<?xml version="1.0" encoding="UTF-8"?>
<svg xmlns="http://www.w3.org/2000/svg" version="1.1" width="300" height="300" viewBox="0 0 300 300"><rect x="0" y="0" width="300" height="300" fill="#ffffff"/><g transform="scale(12)"><g transform="translate(0,0)"><path fill-rule="evenodd" d="M14 0L14 1L15 1L15 2L14 2L14 3L13 3L13 4L14 4L14 5L15 5L15 6L14 6L14 7L15 7L15 8L14 8L14 9L13 9L13 6L12 6L12 7L11 7L11 6L10 6L10 5L9 5L9 4L12 4L12 2L13 2L13 1L10 1L10 3L9 3L9 1L8 1L8 3L9 3L9 4L8 4L8 8L6 8L6 9L7 9L7 10L5 10L5 9L4 9L4 8L3 8L3 9L2 9L2 8L0 8L0 9L2 9L2 12L1 12L1 10L0 10L0 13L1 13L1 14L0 14L0 15L1 15L1 16L0 16L0 17L4 17L4 16L6 16L6 17L7 17L7 16L8 16L8 19L10 19L10 16L11 16L11 17L12 17L12 19L15 19L15 20L14 20L14 21L15 21L15 20L16 20L16 21L20 21L20 22L19 22L19 23L16 23L16 22L13 22L13 20L11 20L11 21L10 21L10 20L9 20L9 21L8 21L8 22L9 22L9 21L10 21L10 24L9 24L9 23L8 23L8 25L10 25L10 24L11 24L11 22L12 22L12 23L13 23L13 24L12 24L12 25L19 25L19 24L21 24L21 25L22 25L22 23L21 23L21 21L22 21L22 20L23 20L23 22L24 22L24 23L25 23L25 20L24 20L24 19L25 19L25 18L22 18L22 17L23 17L23 16L22 16L22 15L23 15L23 14L24 14L24 15L25 15L25 14L24 14L24 13L25 13L25 12L23 12L23 13L21 13L21 12L22 12L22 11L23 11L23 9L24 9L24 11L25 11L25 9L24 9L24 8L22 8L22 9L21 9L21 8L18 8L18 9L17 9L17 8L16 8L16 7L17 7L17 6L16 6L16 5L17 5L17 4L16 4L16 5L15 5L15 2L16 2L16 3L17 3L17 1L15 1L15 0ZM9 6L9 7L10 7L10 8L8 8L8 12L7 12L7 11L6 11L6 12L7 12L7 13L5 13L5 14L4 14L4 9L3 9L3 14L1 14L1 15L3 15L3 14L4 14L4 15L6 15L6 16L7 16L7 15L6 15L6 14L9 14L9 15L11 15L11 14L10 14L10 12L9 12L9 10L11 10L11 13L12 13L12 12L13 12L13 13L14 13L14 14L13 14L13 15L12 15L12 16L13 16L13 15L14 15L14 18L16 18L16 17L15 17L15 16L19 16L19 15L20 15L20 16L21 16L21 15L22 15L22 14L21 14L21 13L20 13L20 12L21 12L21 11L22 11L22 10L21 10L21 9L18 9L18 11L17 11L17 10L15 10L15 11L14 11L14 10L11 10L11 9L12 9L12 8L11 8L11 7L10 7L10 6ZM15 6L15 7L16 7L16 6ZM15 8L15 9L16 9L16 8ZM19 10L19 11L18 11L18 12L16 12L16 11L15 11L15 12L16 12L16 15L19 15L19 12L20 12L20 10ZM13 11L13 12L14 12L14 11ZM17 17L17 20L20 20L20 17ZM18 18L18 19L19 19L19 18ZM14 23L14 24L15 24L15 23ZM23 24L23 25L25 25L25 24ZM0 0L0 7L7 7L7 0ZM1 1L1 6L6 6L6 1ZM2 2L2 5L5 5L5 2ZM18 0L18 7L25 7L25 0ZM19 1L19 6L24 6L24 1ZM20 2L20 5L23 5L23 2ZM0 18L0 25L7 25L7 18ZM1 19L1 24L6 24L6 19ZM2 20L2 23L5 23L5 20Z" fill="#000000"/></g></g></svg>
