<?xml version="1.0" encoding="UTF-8"?>
<svg xmlns="http://www.w3.org/2000/svg" version="1.1" width="300" height="300" viewBox="0 0 300 300"><rect x="0" y="0" width="300" height="300" fill="#ffffff"/><g transform="scale(12)"><g transform="translate(0,0)"><path fill-rule="evenodd" d="M8 0L8 2L9 2L9 3L10 3L10 7L11 7L11 5L12 5L12 7L13 7L13 6L14 6L14 7L15 7L15 5L16 5L16 3L17 3L17 2L15 2L15 3L14 3L14 2L13 2L13 3L12 3L12 2L11 2L11 3L10 3L10 2L9 2L9 0ZM10 0L10 1L12 1L12 0ZM13 0L13 1L16 1L16 0ZM11 3L11 4L12 4L12 5L14 5L14 3L13 3L13 4L12 4L12 3ZM8 4L8 9L7 9L7 8L5 8L5 9L3 9L3 8L0 8L0 10L2 10L2 11L0 11L0 13L1 13L1 12L4 12L4 13L2 13L2 14L0 14L0 15L4 15L4 17L5 17L5 16L6 16L6 17L8 17L8 18L9 18L9 17L8 17L8 16L10 16L10 17L11 17L11 18L10 18L10 19L8 19L8 20L10 20L10 22L8 22L8 25L10 25L10 24L11 24L11 25L14 25L14 24L13 24L13 23L12 23L12 22L13 22L13 21L14 21L14 23L15 23L15 22L16 22L16 25L17 25L17 24L18 24L18 25L21 25L21 24L20 24L20 23L25 23L25 22L24 22L24 21L22 21L22 22L21 22L21 15L23 15L23 17L24 17L24 15L25 15L25 14L24 14L24 15L23 15L23 14L20 14L20 16L18 16L18 15L19 15L19 13L22 13L22 12L21 12L21 11L22 11L22 10L23 10L23 11L25 11L25 8L23 8L23 9L22 9L22 10L21 10L21 11L20 11L20 9L21 9L21 8L17 8L17 6L16 6L16 8L15 8L15 9L16 9L16 10L13 10L13 9L14 9L14 8L9 8L9 4ZM6 9L6 10L7 10L7 9ZM8 9L8 12L7 12L7 11L5 11L5 13L4 13L4 15L6 15L6 16L7 16L7 15L6 15L6 14L7 14L7 13L8 13L8 14L9 14L9 15L10 15L10 16L14 16L14 18L15 18L15 19L13 19L13 17L12 17L12 19L11 19L11 20L12 20L12 19L13 19L13 20L14 20L14 21L15 21L15 20L16 20L16 18L15 18L15 17L16 17L16 16L17 16L17 15L16 15L16 16L14 16L14 13L15 13L15 12L17 12L17 13L16 13L16 14L18 14L18 11L19 11L19 12L20 12L20 11L19 11L19 9L17 9L17 11L15 11L15 12L14 12L14 11L11 11L11 10L12 10L12 9L10 9L10 10L9 10L9 9ZM9 11L9 14L10 14L10 11ZM6 12L6 13L7 13L7 12ZM11 12L11 13L12 13L12 14L11 14L11 15L13 15L13 13L14 13L14 12L13 12L13 13L12 13L12 12ZM24 12L24 13L25 13L25 12ZM0 16L0 17L3 17L3 16ZM17 17L17 20L20 20L20 17ZM18 18L18 19L19 19L19 18ZM22 18L22 19L23 19L23 20L25 20L25 18L24 18L24 19L23 19L23 18ZM11 21L11 22L12 22L12 21ZM16 21L16 22L17 22L17 21ZM18 21L18 23L19 23L19 21ZM9 23L9 24L10 24L10 23ZM11 23L11 24L12 24L12 23ZM24 24L24 25L25 25L25 24ZM0 0L0 7L7 7L7 0ZM1 1L1 6L6 6L6 1ZM2 2L2 5L5 5L5 2ZM18 0L18 7L25 7L25 0ZM19 1L19 6L24 6L24 1ZM20 2L20 5L23 5L23 2ZM0 18L0 25L7 25L7 18ZM1 19L1 24L6 24L6 19ZM2 20L2 23L5 23L5 20Z" fill="#000000"/></g></g></svg>
