<?xml version="1.0" encoding="UTF-8"?>
<svg xmlns="http://www.w3.org/2000/svg" version="1.1" width="300" height="300" viewBox="0 0 300 300"><rect x="0" y="0" width="300" height="300" fill="#ffffff"/><g transform="scale(12)"><g transform="translate(0,0)"><path fill-rule="evenodd" d="M9 0L9 1L8 1L8 2L9 2L9 3L8 3L8 4L10 4L10 2L9 2L9 1L12 1L12 0ZM13 0L13 1L14 1L14 3L13 3L13 2L12 2L12 4L11 4L11 5L10 5L10 7L11 7L11 8L6 8L6 9L7 9L7 10L5 10L5 8L0 8L0 10L1 10L1 11L2 11L2 12L0 12L0 17L1 17L1 13L2 13L2 12L3 12L3 13L5 13L5 15L7 15L7 16L4 16L4 15L3 15L3 14L2 14L2 17L3 17L3 16L4 16L4 17L8 17L8 19L9 19L9 20L8 20L8 25L10 25L10 24L9 24L9 23L10 23L10 22L12 22L12 24L11 24L11 25L15 25L15 24L17 24L17 25L20 25L20 24L22 24L22 25L25 25L25 21L24 21L24 20L22 20L22 19L21 19L21 18L22 18L22 17L23 17L23 16L25 16L25 10L24 10L24 8L23 8L23 9L22 9L22 8L21 8L21 10L20 10L20 8L19 8L19 9L18 9L18 8L17 8L17 9L16 9L16 10L14 10L14 9L15 9L15 8L16 8L16 7L17 7L17 6L16 6L16 5L17 5L17 4L16 4L16 3L17 3L17 0L16 0L16 1L14 1L14 0ZM12 4L12 5L11 5L11 7L12 7L12 8L14 8L14 6L15 6L15 7L16 7L16 6L15 6L15 5L16 5L16 4ZM8 5L8 7L9 7L9 5ZM12 5L12 7L13 7L13 5ZM2 9L2 11L3 11L3 9ZM8 9L8 10L7 10L7 11L5 11L5 13L6 13L6 14L7 14L7 13L6 13L6 12L8 12L8 13L9 13L9 12L8 12L8 10L9 10L9 9ZM10 9L10 11L12 11L12 10L13 10L13 9L12 9L12 10L11 10L11 9ZM17 9L17 10L16 10L16 13L15 13L15 14L16 14L16 15L14 15L14 13L13 13L13 12L15 12L15 11L13 11L13 12L10 12L10 13L12 13L12 14L10 14L10 16L9 16L9 18L11 18L11 21L12 21L12 22L13 22L13 21L12 21L12 19L13 19L13 20L15 20L15 19L16 19L16 16L17 16L17 15L18 15L18 14L20 14L20 16L21 16L21 17L22 17L22 16L23 16L23 14L24 14L24 13L22 13L22 16L21 16L21 12L20 12L20 10L18 10L18 9ZM17 10L17 11L18 11L18 10ZM23 10L23 11L22 11L22 12L24 12L24 10ZM17 12L17 13L19 13L19 12ZM8 14L8 15L9 15L9 14ZM12 15L12 16L11 16L11 18L12 18L12 17L14 17L14 16L13 16L13 15ZM17 17L17 20L20 20L20 17ZM24 17L24 18L23 18L23 19L25 19L25 17ZM18 18L18 19L19 19L19 18ZM9 20L9 21L10 21L10 20ZM21 20L21 21L22 21L22 22L17 22L17 21L14 21L14 23L13 23L13 24L14 24L14 23L18 23L18 24L20 24L20 23L22 23L22 24L24 24L24 22L23 22L23 21L22 21L22 20ZM22 22L22 23L23 23L23 22ZM0 0L0 7L7 7L7 0ZM1 1L1 6L6 6L6 1ZM2 2L2 5L5 5L5 2ZM18 0L18 7L25 7L25 0ZM19 1L19 6L24 6L24 1ZM20 2L20 5L23 5L23 2ZM0 18L0 25L7 25L7 18ZM1 19L1 24L6 24L6 19ZM2 20L2 23L5 23L5 20Z" fill="#000000"/></g></g></svg>
