<?xml version="1.0" encoding="UTF-8"?>
<svg xmlns="http://www.w3.org/2000/svg" version="1.1" width="300" height="300" viewBox="0 0 300 300"><rect x="0" y="0" width="300" height="300" fill="#ffffff"/><g transform="scale(12)"><g transform="translate(0,0)"><path fill-rule="evenodd" d="M11 0L11 2L10 2L10 4L9 4L9 6L8 6L8 8L4 8L4 9L3 9L3 8L0 8L0 10L1 10L1 12L0 12L0 13L1 13L1 14L0 14L0 15L1 15L1 16L0 16L0 17L1 17L1 16L2 16L2 17L8 17L8 21L10 21L10 23L9 23L9 22L8 22L8 25L10 25L10 23L11 23L11 24L13 24L13 25L14 25L14 22L12 22L12 23L11 23L11 20L12 20L12 21L14 21L14 20L16 20L16 21L20 21L20 23L18 23L18 24L17 24L17 22L15 22L15 25L19 25L19 24L20 24L20 25L22 25L22 23L23 23L23 25L25 25L25 24L24 24L24 23L25 23L25 22L24 22L24 23L23 23L23 22L22 22L22 23L21 23L21 21L22 21L22 19L24 19L24 20L23 20L23 21L24 21L24 20L25 20L25 18L24 18L24 17L23 17L23 18L22 18L22 15L25 15L25 14L24 14L24 13L25 13L25 12L24 12L24 11L25 11L25 9L24 9L24 11L23 11L23 14L22 14L22 13L21 13L21 12L22 12L22 11L18 11L18 9L19 9L19 8L17 8L17 9L16 9L16 11L15 11L15 10L14 10L14 11L13 11L13 12L12 12L12 11L11 11L11 13L12 13L12 15L10 15L10 14L5 14L5 12L6 12L6 13L7 13L7 12L6 12L6 11L8 11L8 13L9 13L9 11L10 11L10 10L6 10L6 11L5 11L5 12L4 12L4 13L3 13L3 14L2 14L2 12L3 12L3 11L4 11L4 9L9 9L9 8L10 8L10 9L11 9L11 6L12 6L12 8L13 8L13 9L12 9L12 10L13 10L13 9L14 9L14 7L15 7L15 6L16 6L16 7L17 7L17 5L16 5L16 3L17 3L17 1L16 1L16 0L15 0L15 2L16 2L16 3L14 3L14 4L13 4L13 5L12 5L12 3L13 3L13 1L12 1L12 0ZM8 2L8 3L9 3L9 2ZM11 2L11 3L12 3L12 2ZM10 5L10 6L9 6L9 7L10 7L10 6L11 6L11 5ZM14 5L14 6L13 6L13 7L14 7L14 6L15 6L15 5ZM22 8L22 9L21 9L21 10L23 10L23 8ZM1 9L1 10L2 10L2 9ZM16 11L16 12L14 12L14 13L13 13L13 14L15 14L15 16L14 16L14 18L13 18L13 19L12 19L12 17L13 17L13 16L10 16L10 15L5 15L5 14L3 14L3 16L8 16L8 17L11 17L11 19L12 19L12 20L13 20L13 19L14 19L14 18L16 18L16 17L15 17L15 16L19 16L19 15L20 15L20 16L21 16L21 15L22 15L22 14L21 14L21 13L20 13L20 12L19 12L19 13L20 13L20 14L19 14L19 15L18 15L18 14L17 14L17 13L16 13L16 12L17 12L17 11ZM1 14L1 15L2 15L2 14ZM16 14L16 15L17 15L17 14ZM17 17L17 20L20 20L20 17ZM9 18L9 19L10 19L10 18ZM18 18L18 19L19 19L19 18ZM0 0L0 7L7 7L7 0ZM1 1L1 6L6 6L6 1ZM2 2L2 5L5 5L5 2ZM18 0L18 7L25 7L25 0ZM19 1L19 6L24 6L24 1ZM20 2L20 5L23 5L23 2ZM0 18L0 25L7 25L7 18ZM1 19L1 24L6 24L6 19ZM2 20L2 23L5 23L5 20Z" fill="#000000"/></g></g></svg>
