<?xml version="1.0" encoding="UTF-8"?>
<svg xmlns="http://www.w3.org/2000/svg" version="1.1" width="300" height="300" viewBox="0 0 300 300"><rect x="0" y="0" width="300" height="300" fill="#ffffff"/><g transform="scale(12)"><g transform="translate(0,0)"><path fill-rule="evenodd" d="M8 0L8 4L9 4L9 5L8 5L8 7L9 7L9 6L10 6L10 9L14 9L14 10L13 10L13 11L12 11L12 10L9 10L9 11L8 11L8 9L7 9L7 8L4 8L4 9L3 9L3 10L2 10L2 8L0 8L0 9L1 9L1 10L2 10L2 12L1 12L1 13L0 13L0 14L3 14L3 11L4 11L4 13L5 13L5 12L6 12L6 13L8 13L8 14L6 14L6 15L8 15L8 16L5 16L5 17L8 17L8 18L9 18L9 17L10 17L10 16L12 16L12 17L13 17L13 18L10 18L10 21L11 21L11 19L12 19L12 20L13 20L13 22L9 22L9 23L8 23L8 25L10 25L10 24L12 24L12 25L14 25L14 24L15 24L15 25L16 25L16 23L18 23L18 24L17 24L17 25L25 25L25 24L24 24L24 22L25 22L25 21L24 21L24 19L23 19L23 18L22 18L22 19L21 19L21 17L23 17L23 14L21 14L21 12L22 12L22 13L24 13L24 14L25 14L25 12L24 12L24 9L25 9L25 8L21 8L21 9L20 9L20 8L19 8L19 9L18 9L18 11L17 11L17 9L16 9L16 8L17 8L17 0L16 0L16 2L15 2L15 1L14 1L14 0L13 0L13 1L11 1L11 2L12 2L12 3L13 3L13 1L14 1L14 5L13 5L13 4L12 4L12 5L13 5L13 6L12 6L12 7L11 7L11 3L10 3L10 2L9 2L9 0ZM15 3L15 7L14 7L14 6L13 6L13 7L12 7L12 8L14 8L14 9L15 9L15 10L16 10L16 9L15 9L15 8L16 8L16 3ZM4 9L4 11L6 11L6 12L7 12L7 11L6 11L6 10L7 10L7 9ZM19 9L19 12L20 12L20 9ZM21 9L21 10L22 10L22 11L23 11L23 10L22 10L22 9ZM10 11L10 12L9 12L9 14L8 14L8 15L9 15L9 16L10 16L10 15L11 15L11 14L13 14L13 13L11 13L11 11ZM13 11L13 12L14 12L14 15L12 15L12 16L13 16L13 17L14 17L14 16L16 16L16 15L15 15L15 13L16 13L16 14L18 14L18 15L17 15L17 16L20 16L20 15L21 15L21 14L20 14L20 15L19 15L19 13L17 13L17 12L14 12L14 11ZM10 13L10 14L9 14L9 15L10 15L10 14L11 14L11 13ZM4 14L4 15L3 15L3 16L0 16L0 17L3 17L3 16L4 16L4 15L5 15L5 14ZM17 17L17 20L20 20L20 17ZM24 17L24 18L25 18L25 17ZM13 18L13 20L14 20L14 21L16 21L16 22L15 22L15 23L16 23L16 22L17 22L17 21L16 21L16 20L15 20L15 19L16 19L16 18ZM18 18L18 19L19 19L19 18ZM8 19L8 21L9 21L9 19ZM19 21L19 24L21 24L21 23L22 23L22 21ZM12 23L12 24L14 24L14 23ZM0 0L0 7L7 7L7 0ZM1 1L1 6L6 6L6 1ZM2 2L2 5L5 5L5 2ZM18 0L18 7L25 7L25 0ZM19 1L19 6L24 6L24 1ZM20 2L20 5L23 5L23 2ZM0 18L0 25L7 25L7 18ZM1 19L1 24L6 24L6 19ZM2 20L2 23L5 23L5 20Z" fill="#000000"/></g></g></svg>
