<?xml version="1.0" encoding="UTF-8"?>
<svg xmlns="http://www.w3.org/2000/svg" version="1.1" width="300" height="300" viewBox="0 0 300 300"><rect x="0" y="0" width="300" height="300" fill="#ffffff"/><g transform="scale(12)"><g transform="translate(0,0)"><path fill-rule="evenodd" d="M10 0L10 2L11 2L11 0ZM12 0L12 1L13 1L13 0ZM14 0L14 2L15 2L15 3L13 3L13 2L12 2L12 4L13 4L13 5L11 5L11 6L10 6L10 4L11 4L11 3L8 3L8 4L9 4L9 5L8 5L8 7L9 7L9 8L6 8L6 9L10 9L10 11L11 11L11 9L12 9L12 10L13 10L13 11L12 11L12 13L16 13L16 10L17 10L17 11L18 11L18 10L20 10L20 12L21 12L21 16L20 16L20 14L18 14L18 15L17 15L17 16L16 16L16 19L15 19L15 18L14 18L14 17L12 17L12 15L13 15L13 14L9 14L9 15L7 15L7 14L8 14L8 13L11 13L11 12L9 12L9 10L8 10L8 11L7 11L7 10L6 10L6 11L5 11L5 8L0 8L0 11L1 11L1 12L2 12L2 13L0 13L0 17L1 17L1 14L2 14L2 13L3 13L3 14L4 14L4 15L5 15L5 17L8 17L8 19L9 19L9 20L8 20L8 25L10 25L10 24L11 24L11 25L12 25L12 23L13 23L13 22L10 22L10 23L9 23L9 21L10 21L10 19L11 19L11 17L12 17L12 18L13 18L13 19L12 19L12 21L13 21L13 20L14 20L14 21L17 21L17 22L24 22L24 24L22 24L22 23L21 23L21 24L20 24L20 23L19 23L19 24L18 24L18 23L14 23L14 24L17 24L17 25L19 25L19 24L20 24L20 25L21 25L21 24L22 24L22 25L25 25L25 17L24 17L24 18L23 18L23 20L22 20L22 19L21 19L21 18L22 18L22 17L23 17L23 16L25 16L25 10L24 10L24 8L23 8L23 9L22 9L22 8L21 8L21 10L20 10L20 8L19 8L19 9L18 9L18 8L16 8L16 7L17 7L17 0L16 0L16 1L15 1L15 0ZM8 1L8 2L9 2L9 1ZM14 4L14 5L13 5L13 7L12 7L12 6L11 6L11 7L12 7L12 9L13 9L13 8L14 8L14 6L15 6L15 7L16 7L16 6L15 6L15 5L16 5L16 4ZM9 6L9 7L10 7L10 6ZM10 8L10 9L11 9L11 8ZM15 8L15 9L14 9L14 11L13 11L13 12L14 12L14 11L15 11L15 10L16 10L16 8ZM1 9L1 11L2 11L2 12L3 12L3 13L4 13L4 12L5 12L5 11L2 11L2 10L3 10L3 9ZM17 9L17 10L18 10L18 9ZM23 10L23 11L22 11L22 12L24 12L24 10ZM6 11L6 12L7 12L7 11ZM17 12L17 13L19 13L19 12ZM5 13L5 15L6 15L6 16L7 16L7 15L6 15L6 14L7 14L7 13ZM22 13L22 16L21 16L21 17L22 17L22 16L23 16L23 14L24 14L24 13ZM15 14L15 15L14 15L14 16L15 16L15 15L16 15L16 14ZM2 16L2 17L3 17L3 16ZM8 16L8 17L9 17L9 18L10 18L10 17L11 17L11 16L10 16L10 17L9 17L9 16ZM17 17L17 20L20 20L20 17ZM18 18L18 19L19 19L19 18ZM14 19L14 20L15 20L15 19ZM21 20L21 21L22 21L22 20ZM0 0L0 7L7 7L7 0ZM1 1L1 6L6 6L6 1ZM2 2L2 5L5 5L5 2ZM18 0L18 7L25 7L25 0ZM19 1L19 6L24 6L24 1ZM20 2L20 5L23 5L23 2ZM0 18L0 25L7 25L7 18ZM1 19L1 24L6 24L6 19ZM2 20L2 23L5 23L5 20Z" fill="#000000"/></g></g></svg>
