<?xml version="1.0" encoding="UTF-8"?>
<svg xmlns="http://www.w3.org/2000/svg" version="1.1" width="300" height="300" viewBox="0 0 300 300"><rect x="0" y="0" width="300" height="300" fill="#ffffff"/><g transform="scale(12)"><g transform="translate(0,0)"><path fill-rule="evenodd" d="M8 0L8 4L9 4L9 5L8 5L8 7L9 7L9 6L10 6L10 9L11 9L11 8L12 8L12 9L13 9L13 10L14 10L14 11L15 11L15 12L17 12L17 13L19 13L19 14L21 14L21 15L20 15L20 16L17 16L17 15L18 15L18 14L16 14L16 13L12 13L12 12L13 12L13 11L12 11L12 12L11 12L11 13L10 13L10 15L9 15L9 13L8 13L8 12L10 12L10 11L11 11L11 10L9 10L9 9L7 9L7 8L4 8L4 9L7 9L7 10L5 10L5 13L3 13L3 14L2 14L2 16L0 16L0 17L2 17L2 16L3 16L3 17L4 17L4 16L5 16L5 17L8 17L8 18L10 18L10 19L11 19L11 17L9 17L9 16L10 16L10 15L11 15L11 16L12 16L12 17L13 17L13 16L12 16L12 15L13 15L13 14L14 14L14 16L15 16L15 17L14 17L14 18L13 18L13 19L12 19L12 20L11 20L11 21L10 21L10 20L9 20L9 19L8 19L8 21L10 21L10 24L12 24L12 25L13 25L13 23L14 23L14 21L13 21L13 19L14 19L14 20L16 20L16 21L15 21L15 22L16 22L16 23L15 23L15 25L16 25L16 23L18 23L18 24L17 24L17 25L25 25L25 24L24 24L24 22L25 22L25 21L23 21L23 20L24 20L24 19L23 19L23 18L22 18L22 19L21 19L21 17L23 17L23 14L21 14L21 12L22 12L22 13L24 13L24 14L25 14L25 12L24 12L24 9L25 9L25 8L21 8L21 9L20 9L20 8L19 8L19 9L18 9L18 11L17 11L17 9L16 9L16 10L15 10L15 9L13 9L13 8L12 8L12 7L13 7L13 6L12 6L12 7L11 7L11 3L10 3L10 2L9 2L9 0ZM14 0L14 1L11 1L11 2L12 2L12 5L13 5L13 4L14 4L14 5L16 5L16 4L17 4L17 3L16 3L16 4L14 4L14 3L15 3L15 2L14 2L14 1L15 1L15 0ZM16 0L16 1L17 1L17 0ZM13 2L13 3L14 3L14 2ZM14 6L14 7L15 7L15 6ZM16 6L16 8L17 8L17 6ZM0 8L0 10L1 10L1 13L0 13L0 14L1 14L1 13L2 13L2 11L3 11L3 10L2 10L2 8ZM19 9L19 12L20 12L20 9ZM21 9L21 10L22 10L22 11L23 11L23 10L22 10L22 9ZM6 11L6 12L8 12L8 11ZM6 13L6 14L7 14L7 15L6 15L6 16L7 16L7 15L8 15L8 16L9 16L9 15L8 15L8 14L7 14L7 13ZM11 13L11 14L12 14L12 13ZM3 14L3 16L4 16L4 14ZM15 15L15 16L16 16L16 15ZM17 17L17 20L20 20L20 17ZM24 17L24 18L25 18L25 17ZM15 18L15 19L16 19L16 18ZM18 18L18 19L19 19L19 18ZM11 21L11 22L12 22L12 21ZM16 21L16 22L17 22L17 21ZM19 21L19 24L20 24L20 23L21 23L21 22L23 22L23 21ZM8 23L8 25L9 25L9 23ZM0 0L0 7L7 7L7 0ZM1 1L1 6L6 6L6 1ZM2 2L2 5L5 5L5 2ZM18 0L18 7L25 7L25 0ZM19 1L19 6L24 6L24 1ZM20 2L20 5L23 5L23 2ZM0 18L0 25L7 25L7 18ZM1 19L1 24L6 24L6 19ZM2 20L2 23L5 23L5 20Z" fill="#000000"/></g></g></svg>
