<?xml version="1.0" encoding="UTF-8"?>
<svg xmlns="http://www.w3.org/2000/svg" version="1.1" width="300" height="300" viewBox="0 0 300 300"><rect x="0" y="0" width="300" height="300" fill="#ffffff"/><g transform="scale(12)"><g transform="translate(0,0)"><path fill-rule="evenodd" d="M12 0L12 1L14 1L14 0ZM16 0L16 1L15 1L15 2L14 2L14 3L12 3L12 4L11 4L11 3L8 3L8 4L9 4L9 5L8 5L8 7L9 7L9 8L6 8L6 9L10 9L10 11L11 11L11 10L12 10L12 9L16 9L16 10L14 10L14 11L16 11L16 10L17 10L17 9L18 9L18 8L17 8L17 9L16 9L16 7L17 7L17 2L16 2L16 1L17 1L17 0ZM8 1L8 2L9 2L9 1ZM10 1L10 2L11 2L11 1ZM15 2L15 3L16 3L16 2ZM10 4L10 6L9 6L9 7L10 7L10 6L11 6L11 8L10 8L10 9L11 9L11 8L15 8L15 7L16 7L16 6L15 6L15 7L14 7L14 6L13 6L13 7L12 7L12 5L13 5L13 4L12 4L12 5L11 5L11 4ZM14 4L14 5L16 5L16 4ZM0 8L0 9L1 9L1 10L0 10L0 11L1 11L1 10L2 10L2 11L4 11L4 12L2 12L2 13L1 13L1 12L0 12L0 17L1 17L1 14L2 14L2 13L3 13L3 14L4 14L4 15L5 15L5 14L6 14L6 15L7 15L7 16L6 16L6 17L7 17L7 16L9 16L9 15L11 15L11 16L10 16L10 17L8 17L8 19L9 19L9 20L8 20L8 25L11 25L11 23L9 23L9 22L11 22L11 21L9 21L9 20L11 20L11 19L10 19L10 18L12 18L12 17L11 17L11 16L12 16L12 15L14 15L14 14L15 14L15 16L13 16L13 17L14 17L14 18L13 18L13 19L12 19L12 21L15 21L15 23L14 23L14 24L13 24L13 22L12 22L12 25L14 25L14 24L15 24L15 25L16 25L16 24L17 24L17 25L19 25L19 24L22 24L22 25L25 25L25 21L24 21L24 20L25 20L25 17L24 17L24 18L23 18L23 20L22 20L22 19L21 19L21 18L22 18L22 17L23 17L23 16L25 16L25 10L24 10L24 8L23 8L23 9L22 9L22 8L21 8L21 10L20 10L20 8L19 8L19 10L18 10L18 11L17 11L17 12L13 12L13 11L12 11L12 13L11 13L11 12L9 12L9 10L5 10L5 11L4 11L4 9L5 9L5 8ZM2 9L2 10L3 10L3 9ZM19 10L19 11L20 11L20 10ZM23 10L23 11L22 11L22 12L24 12L24 10ZM6 11L6 12L7 12L7 13L6 13L6 14L7 14L7 13L8 13L8 12L7 12L7 11ZM19 12L19 13L17 13L17 14L16 14L16 16L17 16L17 14L18 14L18 15L19 15L19 16L20 16L20 14L21 14L21 12ZM10 13L10 14L11 14L11 15L12 15L12 14L14 14L14 13L12 13L12 14L11 14L11 13ZM19 13L19 14L20 14L20 13ZM22 13L22 16L21 16L21 17L22 17L22 16L23 16L23 14L24 14L24 13ZM8 14L8 15L9 15L9 14ZM2 16L2 17L5 17L5 16ZM17 17L17 20L20 20L20 17ZM14 18L14 19L13 19L13 20L15 20L15 19L16 19L16 18ZM18 18L18 19L19 19L19 18ZM21 20L21 21L19 21L19 22L17 22L17 23L22 23L22 24L24 24L24 22L23 22L23 21L22 21L22 20ZM21 21L21 22L22 22L22 23L23 23L23 22L22 22L22 21ZM15 23L15 24L16 24L16 23ZM0 0L0 7L7 7L7 0ZM1 1L1 6L6 6L6 1ZM2 2L2 5L5 5L5 2ZM18 0L18 7L25 7L25 0ZM19 1L19 6L24 6L24 1ZM20 2L20 5L23 5L23 2ZM0 18L0 25L7 25L7 18ZM1 19L1 24L6 24L6 19ZM2 20L2 23L5 23L5 20Z" fill="#000000"/></g></g></svg>
