<?xml version="1.0" encoding="UTF-8"?>
<svg xmlns="http://www.w3.org/2000/svg" version="1.1" width="300" height="300" viewBox="0 0 300 300"><rect x="0" y="0" width="300" height="300" fill="#ffffff"/><g transform="scale(12)"><g transform="translate(0,0)"><path fill-rule="evenodd" d="M8 0L8 1L10 1L10 0ZM13 0L13 2L11 2L11 4L10 4L10 3L9 3L9 2L8 2L8 5L9 5L9 6L8 6L8 7L9 7L9 8L8 8L8 9L7 9L7 8L6 8L6 9L7 9L7 10L4 10L4 8L0 8L0 9L2 9L2 11L0 11L0 13L1 13L1 12L2 12L2 11L3 11L3 14L1 14L1 15L0 15L0 16L1 16L1 15L2 15L2 17L3 17L3 16L4 16L4 17L5 17L5 16L6 16L6 17L8 17L8 18L9 18L9 19L10 19L10 20L9 20L9 21L8 21L8 25L11 25L11 24L9 24L9 23L13 23L13 24L12 24L12 25L13 25L13 24L14 24L14 25L15 25L15 23L16 23L16 22L15 22L15 23L14 23L14 22L11 22L11 20L13 20L13 21L15 21L15 19L14 19L14 20L13 20L13 18L14 18L14 17L15 17L15 18L16 18L16 21L17 21L17 25L20 25L20 23L21 23L21 22L22 22L22 25L25 25L25 24L23 24L23 23L24 23L24 22L25 22L25 20L24 20L24 19L25 19L25 18L23 18L23 17L25 17L25 15L24 15L24 13L25 13L25 12L23 12L23 11L24 11L24 9L25 9L25 8L24 8L24 9L23 9L23 8L20 8L20 9L18 9L18 8L17 8L17 9L15 9L15 8L16 8L16 7L17 7L17 4L16 4L16 3L17 3L17 0L15 0L15 1L14 1L14 0ZM15 1L15 2L14 2L14 3L13 3L13 4L12 4L12 5L10 5L10 6L9 6L9 7L10 7L10 8L9 8L9 9L10 9L10 10L7 10L7 11L6 11L6 12L7 12L7 11L8 11L8 12L10 12L10 13L11 13L11 10L14 10L14 9L13 9L13 8L15 8L15 7L16 7L16 4L15 4L15 7L14 7L14 6L13 6L13 5L14 5L14 3L16 3L16 1ZM10 6L10 7L11 7L11 9L12 9L12 7L13 7L13 6L12 6L12 7L11 7L11 6ZM17 9L17 10L15 10L15 12L16 12L16 14L14 14L14 15L13 15L13 16L12 16L12 14L10 14L10 15L9 15L9 14L8 14L8 13L6 13L6 14L7 14L7 15L6 15L6 16L7 16L7 15L9 15L9 16L12 16L12 17L9 17L9 18L11 18L11 19L12 19L12 17L13 17L13 16L17 16L17 15L19 15L19 16L21 16L21 15L22 15L22 16L23 16L23 15L22 15L22 14L23 14L23 13L21 13L21 12L22 12L22 10L21 10L21 9L20 9L20 10L19 10L19 11L21 11L21 12L19 12L19 14L17 14L17 12L18 12L18 9ZM12 11L12 12L13 12L13 13L14 13L14 12L13 12L13 11ZM16 11L16 12L17 12L17 11ZM4 12L4 13L5 13L5 12ZM20 13L20 14L21 14L21 13ZM4 14L4 16L5 16L5 14ZM16 14L16 15L17 15L17 14ZM17 17L17 20L20 20L20 17ZM21 17L21 20L22 20L22 22L23 22L23 18L22 18L22 17ZM18 18L18 19L19 19L19 18ZM19 22L19 23L20 23L20 22ZM0 0L0 7L7 7L7 0ZM1 1L1 6L6 6L6 1ZM2 2L2 5L5 5L5 2ZM18 0L18 7L25 7L25 0ZM19 1L19 6L24 6L24 1ZM20 2L20 5L23 5L23 2ZM0 18L0 25L7 25L7 18ZM1 19L1 24L6 24L6 19ZM2 20L2 23L5 23L5 20Z" fill="#000000"/></g></g></svg>
