<?xml version="1.0" encoding="UTF-8"?>
<svg xmlns="http://www.w3.org/2000/svg" version="1.1" width="300" height="300" viewBox="0 0 300 300"><rect x="0" y="0" width="300" height="300" fill="#ffffff"/><g transform="scale(12)"><g transform="translate(0,0)"><path fill-rule="evenodd" d="M8 0L8 1L9 1L9 2L10 2L10 3L11 3L11 1L12 1L12 2L13 2L13 5L14 5L14 7L13 7L13 6L12 6L12 5L10 5L10 4L9 4L9 5L10 5L10 8L9 8L9 6L8 6L8 8L9 8L9 10L10 10L10 11L8 11L8 13L10 13L10 12L11 12L11 14L12 14L12 15L11 15L11 16L10 16L10 18L9 18L9 17L8 17L8 18L9 18L9 19L10 19L10 18L11 18L11 19L12 19L12 21L10 21L10 22L9 22L9 20L8 20L8 22L9 22L9 23L8 23L8 25L12 25L12 24L13 24L13 22L12 22L12 21L13 21L13 20L15 20L15 21L14 21L14 23L15 23L15 25L17 25L17 24L16 24L16 23L18 23L18 25L19 25L19 24L20 24L20 25L21 25L21 24L20 24L20 23L21 23L21 22L23 22L23 23L22 23L22 24L24 24L24 25L25 25L25 21L24 21L24 20L25 20L25 17L24 17L24 16L25 16L25 10L24 10L24 9L25 9L25 8L24 8L24 9L23 9L23 10L21 10L21 9L19 9L19 8L18 8L18 9L19 9L19 10L16 10L16 9L17 9L17 8L16 8L16 9L15 9L15 4L14 4L14 3L16 3L16 7L17 7L17 1L16 1L16 2L15 2L15 0L14 0L14 1L13 1L13 0L10 0L10 1L9 1L9 0ZM11 6L11 8L12 8L12 6ZM0 8L0 17L1 17L1 15L3 15L3 14L4 14L4 16L3 16L3 17L4 17L4 16L5 16L5 15L7 15L7 16L6 16L6 17L7 17L7 16L9 16L9 14L8 14L8 15L7 15L7 14L6 14L6 13L7 13L7 12L6 12L6 13L4 13L4 12L2 12L2 14L1 14L1 11L2 11L2 10L3 10L3 11L4 11L4 10L5 10L5 11L7 11L7 10L8 10L8 9L7 9L7 8L6 8L6 9L7 9L7 10L5 10L5 8L3 8L3 9L2 9L2 8ZM13 8L13 9L12 9L12 10L13 10L13 11L12 11L12 12L13 12L13 13L12 13L12 14L13 14L13 15L12 15L12 16L11 16L11 18L12 18L12 19L13 19L13 17L12 17L12 16L14 16L14 18L15 18L15 20L16 20L16 17L15 17L15 16L16 16L16 15L15 15L15 12L14 12L14 11L15 11L15 10L14 10L14 8ZM1 9L1 10L2 10L2 9ZM3 9L3 10L4 10L4 9ZM10 9L10 10L11 10L11 9ZM19 10L19 11L21 11L21 12L22 12L22 13L21 13L21 14L24 14L24 12L22 12L22 11L21 11L21 10ZM17 11L17 12L16 12L16 13L17 13L17 14L18 14L18 15L19 15L19 16L21 16L21 21L23 21L23 19L24 19L24 18L23 18L23 19L22 19L22 15L19 15L19 14L20 14L20 13L18 13L18 11ZM13 13L13 14L14 14L14 13ZM17 17L17 20L20 20L20 17ZM18 18L18 19L19 19L19 18ZM15 21L15 22L17 22L17 21ZM19 21L19 22L18 22L18 23L20 23L20 21ZM10 22L10 23L9 23L9 24L11 24L11 22ZM0 0L0 7L7 7L7 0ZM1 1L1 6L6 6L6 1ZM2 2L2 5L5 5L5 2ZM18 0L18 7L25 7L25 0ZM19 1L19 6L24 6L24 1ZM20 2L20 5L23 5L23 2ZM0 18L0 25L7 25L7 18ZM1 19L1 24L6 24L6 19ZM2 20L2 23L5 23L5 20Z" fill="#000000"/></g></g></svg>
