<?xml version="1.0" encoding="UTF-8"?>
<svg xmlns="http://www.w3.org/2000/svg" version="1.1" width="300" height="300" viewBox="0 0 300 300"><rect x="0" y="0" width="300" height="300" fill="#ffffff"/><g transform="scale(12)"><g transform="translate(0,0)"><path fill-rule="evenodd" d="M8 0L8 2L10 2L10 4L8 4L8 9L9 9L9 10L11 10L11 11L12 11L12 12L11 12L11 13L12 13L12 14L11 14L11 15L9 15L9 14L10 14L10 11L7 11L7 10L6 10L6 9L7 9L7 8L5 8L5 9L3 9L3 8L0 8L0 9L2 9L2 10L0 10L0 11L1 11L1 12L0 12L0 13L1 13L1 14L0 14L0 15L2 15L2 16L0 16L0 17L2 17L2 16L3 16L3 15L5 15L5 14L6 14L6 15L7 15L7 16L4 16L4 17L8 17L8 18L9 18L9 19L8 19L8 20L9 20L9 19L10 19L10 21L9 21L9 22L8 22L8 25L12 25L12 24L13 24L13 25L14 25L14 24L15 24L15 25L17 25L17 24L18 24L18 25L20 25L20 24L18 24L18 21L21 21L21 15L23 15L23 17L24 17L24 15L25 15L25 14L24 14L24 15L23 15L23 14L21 14L21 15L20 15L20 13L22 13L22 12L21 12L21 11L22 11L22 10L23 10L23 11L25 11L25 8L23 8L23 9L22 9L22 10L21 10L21 11L20 11L20 9L21 9L21 8L17 8L17 5L16 5L16 4L15 4L15 3L17 3L17 1L16 1L16 0L15 0L15 1L16 1L16 2L13 2L13 1L14 1L14 0L11 0L11 1L9 1L9 0ZM11 1L11 2L12 2L12 1ZM11 3L11 4L12 4L12 6L11 6L11 5L9 5L9 8L10 8L10 6L11 6L11 7L12 7L12 6L13 6L13 8L14 8L14 10L16 10L16 13L15 13L15 12L14 12L14 11L13 11L13 12L14 12L14 15L13 15L13 14L12 14L12 15L13 15L13 16L14 16L14 17L13 17L13 19L11 19L11 21L10 21L10 22L12 22L12 20L14 20L14 21L13 21L13 22L16 22L16 23L17 23L17 22L16 22L16 21L15 21L15 20L16 20L16 17L15 17L15 16L17 16L17 15L18 15L18 16L20 16L20 15L19 15L19 14L18 14L18 12L19 12L19 11L18 11L18 12L17 12L17 10L18 10L18 9L17 9L17 8L16 8L16 9L15 9L15 7L16 7L16 5L15 5L15 7L14 7L14 6L13 6L13 5L14 5L14 3ZM11 8L11 10L13 10L13 9L12 9L12 8ZM16 9L16 10L17 10L17 9ZM3 10L3 11L4 11L4 10ZM5 11L5 13L6 13L6 14L8 14L8 13L9 13L9 12L8 12L8 13L6 13L6 12L7 12L7 11ZM1 12L1 13L2 13L2 14L3 14L3 13L4 13L4 12ZM24 12L24 13L25 13L25 12ZM16 13L16 14L15 14L15 15L17 15L17 13ZM8 15L8 17L9 17L9 18L12 18L12 16L10 16L10 17L9 17L9 15ZM14 17L14 19L15 19L15 17ZM17 17L17 20L20 20L20 17ZM18 18L18 19L19 19L19 18ZM22 18L22 19L23 19L23 22L22 22L22 23L25 23L25 22L24 22L24 20L25 20L25 18L24 18L24 19L23 19L23 18ZM19 22L19 23L21 23L21 22ZM9 23L9 24L12 24L12 23ZM13 23L13 24L14 24L14 23ZM24 24L24 25L25 25L25 24ZM0 0L0 7L7 7L7 0ZM1 1L1 6L6 6L6 1ZM2 2L2 5L5 5L5 2ZM18 0L18 7L25 7L25 0ZM19 1L19 6L24 6L24 1ZM20 2L20 5L23 5L23 2ZM0 18L0 25L7 25L7 18ZM1 19L1 24L6 24L6 19ZM2 20L2 23L5 23L5 20Z" fill="#000000"/></g></g></svg>
