<?xml version="1.0" encoding="UTF-8"?>
<svg xmlns="http://www.w3.org/2000/svg" version="1.1" width="300" height="300" viewBox="0 0 300 300"><rect x="0" y="0" width="300" height="300" fill="#ffffff"/><g transform="scale(12)"><g transform="translate(0,0)"><path fill-rule="evenodd" d="M8 0L8 1L10 1L10 2L12 2L12 5L13 5L13 4L15 4L15 5L14 5L14 9L13 9L13 10L12 10L12 8L13 8L13 6L12 6L12 8L11 8L11 11L13 11L13 12L11 12L11 13L10 13L10 12L9 12L9 10L10 10L10 9L9 9L9 8L10 8L10 7L11 7L11 6L10 6L10 3L9 3L9 2L8 2L8 5L9 5L9 6L8 6L8 7L9 7L9 8L8 8L8 9L7 9L7 8L6 8L6 9L4 9L4 8L0 8L0 10L1 10L1 11L0 11L0 13L1 13L1 15L0 15L0 16L1 16L1 15L2 15L2 17L3 17L3 16L4 16L4 17L8 17L8 18L9 18L9 19L10 19L10 18L9 18L9 17L8 17L8 16L10 16L10 17L11 17L11 18L14 18L14 16L13 16L13 15L12 15L12 16L13 16L13 17L11 17L11 16L10 16L10 15L11 15L11 13L12 13L12 14L16 14L16 15L17 15L17 16L15 16L15 18L16 18L16 21L17 21L17 25L19 25L19 24L20 24L20 25L21 25L21 24L20 24L20 23L22 23L22 25L25 25L25 24L23 24L23 23L24 23L24 22L25 22L25 18L23 18L23 17L25 17L25 15L24 15L24 13L25 13L25 12L23 12L23 11L24 11L24 9L25 9L25 8L24 8L24 9L23 9L23 8L20 8L20 9L18 9L18 8L17 8L17 4L15 4L15 2L14 2L14 1L13 1L13 2L12 2L12 0L11 0L11 1L10 1L10 0ZM16 0L16 3L17 3L17 0ZM15 5L15 9L14 9L14 10L13 10L13 11L14 11L14 10L15 10L15 12L16 12L16 14L17 14L17 15L20 15L20 16L21 16L21 15L22 15L22 16L23 16L23 15L22 15L22 14L23 14L23 13L21 13L21 12L22 12L22 10L21 10L21 9L20 9L20 10L19 10L19 11L21 11L21 12L19 12L19 14L17 14L17 12L18 12L18 9L17 9L17 10L15 10L15 9L16 9L16 5ZM9 6L9 7L10 7L10 6ZM1 9L1 10L3 10L3 12L5 12L5 15L4 15L4 16L5 16L5 15L6 15L6 16L8 16L8 15L9 15L9 14L8 14L8 13L6 13L6 12L7 12L7 11L5 11L5 10L3 10L3 9ZM6 9L6 10L7 10L7 9ZM16 11L16 12L17 12L17 11ZM1 12L1 13L2 13L2 12ZM3 13L3 14L4 14L4 13ZM20 13L20 15L21 15L21 13ZM6 14L6 15L8 15L8 14ZM17 17L17 20L20 20L20 17ZM21 17L21 20L22 20L22 23L23 23L23 18L22 18L22 17ZM18 18L18 19L19 19L19 18ZM9 20L9 21L8 21L8 25L9 25L9 24L10 24L10 25L11 25L11 23L12 23L12 21L13 21L13 22L14 22L14 23L13 23L13 24L12 24L12 25L14 25L14 24L15 24L15 23L16 23L16 22L15 22L15 20L14 20L14 21L13 21L13 20L12 20L12 21L11 21L11 20ZM19 22L19 23L20 23L20 22ZM0 0L0 7L7 7L7 0ZM1 1L1 6L6 6L6 1ZM2 2L2 5L5 5L5 2ZM18 0L18 7L25 7L25 0ZM19 1L19 6L24 6L24 1ZM20 2L20 5L23 5L23 2ZM0 18L0 25L7 25L7 18ZM1 19L1 24L6 24L6 19ZM2 20L2 23L5 23L5 20Z" fill="#000000"/></g></g></svg>
