<?xml version="1.0" encoding="UTF-8"?>
<svg xmlns="http://www.w3.org/2000/svg" version="1.1" width="300" height="300" viewBox="0 0 300 300"><rect x="0" y="0" width="300" height="300" fill="#ffffff"/><g transform="scale(12)"><g transform="translate(0,0)"><path fill-rule="evenodd" d="M10 0L10 2L11 2L11 0ZM12 0L12 1L13 1L13 0ZM8 1L8 2L9 2L9 1ZM15 1L15 2L17 2L17 1ZM12 2L12 4L13 4L13 5L11 5L11 6L10 6L10 4L11 4L11 3L8 3L8 4L9 4L9 5L8 5L8 7L9 7L9 8L6 8L6 9L7 9L7 10L5 10L5 11L3 11L3 9L5 9L5 8L0 8L0 10L1 10L1 9L2 9L2 11L3 11L3 12L0 12L0 17L1 17L1 14L2 14L2 15L3 15L3 16L2 16L2 17L3 17L3 16L4 16L4 17L5 17L5 16L6 16L6 17L8 17L8 19L9 19L9 16L10 16L10 15L11 15L11 17L10 17L10 20L8 20L8 25L13 25L13 24L12 24L12 23L13 23L13 22L14 22L14 21L17 21L17 22L21 22L21 24L22 24L22 25L25 25L25 20L24 20L24 19L25 19L25 17L24 17L24 18L23 18L23 20L22 20L22 19L21 19L21 18L22 18L22 17L23 17L23 16L25 16L25 10L24 10L24 8L23 8L23 9L22 9L22 8L21 8L21 10L20 10L20 8L19 8L19 9L18 9L18 8L14 8L14 9L12 9L12 7L13 7L13 6L14 6L14 7L15 7L15 6L16 6L16 7L17 7L17 3L14 3L14 4L13 4L13 2ZM14 4L14 6L15 6L15 4ZM9 6L9 7L10 7L10 6ZM11 6L11 7L12 7L12 6ZM10 8L10 9L8 9L8 11L6 11L6 12L5 12L5 14L7 14L7 15L6 15L6 16L8 16L8 13L9 13L9 15L10 15L10 14L14 14L14 15L12 15L12 17L11 17L11 21L9 21L9 24L11 24L11 22L13 22L13 21L14 21L14 20L15 20L15 19L16 19L16 16L17 16L17 15L18 15L18 14L20 14L20 16L21 16L21 17L22 17L22 16L23 16L23 14L24 14L24 13L22 13L22 16L21 16L21 12L20 12L20 10L18 10L18 9L17 9L17 10L16 10L16 13L15 13L15 14L14 14L14 11L13 11L13 10L12 10L12 9L11 9L11 8ZM10 9L10 11L11 11L11 9ZM14 9L14 10L15 10L15 9ZM17 10L17 11L18 11L18 10ZM23 10L23 11L22 11L22 12L24 12L24 10ZM8 11L8 12L9 12L9 13L11 13L11 12L9 12L9 11ZM12 11L12 13L13 13L13 11ZM6 12L6 13L7 13L7 12ZM17 12L17 13L19 13L19 12ZM3 13L3 14L4 14L4 13ZM15 14L15 15L14 15L14 17L12 17L12 18L14 18L14 17L15 17L15 15L16 15L16 14ZM4 15L4 16L5 16L5 15ZM17 17L17 20L20 20L20 17ZM18 18L18 19L19 19L19 18ZM12 19L12 21L13 21L13 19ZM21 20L21 21L22 21L22 24L24 24L24 22L23 22L23 21L22 21L22 20ZM14 23L14 24L17 24L17 25L20 25L20 23L19 23L19 24L18 24L18 23ZM0 0L0 7L7 7L7 0ZM1 1L1 6L6 6L6 1ZM2 2L2 5L5 5L5 2ZM18 0L18 7L25 7L25 0ZM19 1L19 6L24 6L24 1ZM20 2L20 5L23 5L23 2ZM0 18L0 25L7 25L7 18ZM1 19L1 24L6 24L6 19ZM2 20L2 23L5 23L5 20Z" fill="#000000"/></g></g></svg>
