<?xml version="1.0" encoding="UTF-8"?>
<svg xmlns="http://www.w3.org/2000/svg" version="1.1" width="300" height="300" viewBox="0 0 300 300"><rect x="0" y="0" width="300" height="300" fill="#ffffff"/><g transform="scale(10.345)"><g transform="translate(0,0)"><path fill-rule="evenodd" d="M8 0L8 1L9 1L9 2L8 2L8 5L9 5L9 4L11 4L11 5L10 5L10 10L6 10L6 9L7 9L7 8L6 8L6 9L4 9L4 8L0 8L0 15L1 15L1 18L0 18L0 19L1 19L1 18L3 18L3 19L2 19L2 20L1 20L1 21L2 21L2 20L3 20L3 21L4 21L4 20L6 20L6 21L7 21L7 20L6 20L6 19L7 19L7 18L6 18L6 19L5 19L5 18L3 18L3 17L7 17L7 16L10 16L10 17L9 17L9 18L8 18L8 20L10 20L10 22L9 22L9 21L8 21L8 22L9 22L9 23L10 23L10 24L9 24L9 25L8 25L8 29L9 29L9 25L11 25L11 26L12 26L12 28L10 28L10 29L12 29L12 28L14 28L14 27L15 27L15 26L17 26L17 27L18 27L18 29L22 29L22 27L20 27L20 26L19 26L19 25L18 25L18 24L19 24L19 23L20 23L20 25L21 25L21 26L22 26L22 25L23 25L23 27L24 27L24 25L26 25L26 26L25 26L25 27L26 27L26 26L27 26L27 25L28 25L28 27L27 27L27 28L26 28L26 29L28 29L28 27L29 27L29 25L28 25L28 24L26 24L26 23L25 23L25 19L24 19L24 20L21 20L21 19L22 19L22 18L21 18L21 16L23 16L23 18L24 18L24 17L25 17L25 18L26 18L26 21L27 21L27 23L28 23L28 21L27 21L27 20L28 20L28 19L27 19L27 18L26 18L26 16L25 16L25 15L24 15L24 14L23 14L23 13L22 13L22 12L25 12L25 13L26 13L26 14L28 14L28 15L27 15L27 17L28 17L28 18L29 18L29 17L28 17L28 15L29 15L29 12L26 12L26 11L27 11L27 10L29 10L29 8L28 8L28 9L27 9L27 8L24 8L24 9L22 9L22 8L21 8L21 5L20 5L20 4L21 4L21 1L20 1L20 0L18 0L18 1L16 1L16 0L12 0L12 1L11 1L11 0L10 0L10 1L9 1L9 0ZM14 1L14 2L11 2L11 4L12 4L12 3L13 3L13 5L12 5L12 6L11 6L11 8L12 8L12 6L13 6L13 8L14 8L14 9L15 9L15 7L16 7L16 6L15 6L15 5L16 5L16 4L17 4L17 5L18 5L18 6L17 6L17 7L18 7L18 6L19 6L19 9L21 9L21 8L20 8L20 6L19 6L19 4L20 4L20 3L19 3L19 2L20 2L20 1L18 1L18 2L17 2L17 3L16 3L16 1ZM14 3L14 5L13 5L13 6L14 6L14 7L15 7L15 6L14 6L14 5L15 5L15 4L16 4L16 3ZM17 3L17 4L18 4L18 3ZM8 6L8 7L9 7L9 6ZM8 8L8 9L9 9L9 8ZM1 9L1 11L2 11L2 13L1 13L1 14L2 14L2 15L5 15L5 16L7 16L7 15L8 15L8 14L9 14L9 15L10 15L10 16L11 16L11 17L10 17L10 18L11 18L11 19L10 19L10 20L11 20L11 22L10 22L10 23L14 23L14 22L15 22L15 24L12 24L12 26L13 26L13 27L14 27L14 26L15 26L15 24L16 24L16 25L17 25L17 24L18 24L18 23L19 23L19 22L20 22L20 19L21 19L21 18L20 18L20 17L18 17L18 16L21 16L21 15L23 15L23 16L24 16L24 15L23 15L23 14L21 14L21 11L20 11L20 10L18 10L18 9L16 9L16 10L14 10L14 11L11 11L11 13L8 13L8 12L9 12L9 11L8 11L8 12L7 12L7 11L5 11L5 10L2 10L2 9ZM11 9L11 10L12 10L12 9ZM25 9L25 10L22 10L22 11L26 11L26 10L27 10L27 9ZM17 10L17 11L15 11L15 12L14 12L14 14L13 14L13 12L12 12L12 13L11 13L11 14L10 14L10 15L11 15L11 16L12 16L12 17L13 17L13 16L12 16L12 14L13 14L13 15L14 15L14 18L13 18L13 21L15 21L15 20L16 20L16 24L17 24L17 23L18 23L18 22L19 22L19 20L18 20L18 19L19 19L19 18L18 18L18 17L17 17L17 18L16 18L16 17L15 17L15 16L16 16L16 15L14 15L14 14L17 14L17 15L18 15L18 14L19 14L19 15L21 15L21 14L20 14L20 12L19 12L19 11L18 11L18 10ZM3 11L3 14L4 14L4 13L7 13L7 12L4 12L4 11ZM17 11L17 12L18 12L18 13L19 13L19 12L18 12L18 11ZM6 14L6 15L7 15L7 14ZM2 16L2 17L3 17L3 16ZM17 18L17 19L18 19L18 18ZM11 19L11 20L12 20L12 19ZM21 21L21 24L24 24L24 21ZM22 22L22 23L23 23L23 22ZM13 25L13 26L14 26L14 25ZM18 26L18 27L19 27L19 28L20 28L20 27L19 27L19 26ZM16 28L16 29L17 29L17 28ZM23 28L23 29L25 29L25 28ZM0 0L0 7L7 7L7 0ZM1 1L1 6L6 6L6 1ZM2 2L2 5L5 5L5 2ZM22 0L22 7L29 7L29 0ZM23 1L23 6L28 6L28 1ZM24 2L24 5L27 5L27 2ZM0 22L0 29L7 29L7 22ZM1 23L1 28L6 28L6 23ZM2 24L2 27L5 27L5 24Z" fill="#000000"/></g></g></svg>
