<?xml version="1.0" encoding="UTF-8"?>
<svg xmlns="http://www.w3.org/2000/svg" version="1.1" width="300" height="300" viewBox="0 0 300 300"><rect x="0" y="0" width="300" height="300" fill="#ffffff"/><g transform="scale(12)"><g transform="translate(0,0)"><path fill-rule="evenodd" d="M8 0L8 1L11 1L11 3L10 3L10 2L9 2L9 3L10 3L10 5L9 5L9 6L8 6L8 8L9 8L9 9L10 9L10 10L8 10L8 9L7 9L7 8L6 8L6 9L7 9L7 10L4 10L4 9L5 9L5 8L3 8L3 10L2 10L2 11L0 11L0 12L4 12L4 13L3 13L3 15L2 15L2 13L0 13L0 17L1 17L1 15L2 15L2 17L3 17L3 16L4 16L4 15L5 15L5 12L4 12L4 11L7 11L7 12L6 12L6 13L7 13L7 14L6 14L6 15L7 15L7 14L8 14L8 16L5 16L5 17L8 17L8 18L9 18L9 19L10 19L10 20L8 20L8 22L9 22L9 23L8 23L8 25L9 25L9 23L11 23L11 24L10 24L10 25L11 25L11 24L12 24L12 25L13 25L13 23L14 23L14 22L15 22L15 25L17 25L17 24L16 24L16 23L18 23L18 25L19 25L19 24L20 24L20 25L21 25L21 23L22 23L22 24L24 24L24 25L25 25L25 21L22 21L22 22L21 22L21 16L19 16L19 15L22 15L22 19L23 19L23 18L24 18L24 20L25 20L25 17L24 17L24 16L25 16L25 10L24 10L24 9L25 9L25 8L24 8L24 9L23 9L23 10L21 10L21 9L19 9L19 8L18 8L18 9L19 9L19 10L17 10L17 11L16 11L16 9L17 9L17 8L16 8L16 9L15 9L15 6L14 6L14 7L13 7L13 6L12 6L12 5L13 5L13 4L14 4L14 5L15 5L15 4L16 4L16 5L17 5L17 4L16 4L16 3L17 3L17 1L16 1L16 2L15 2L15 0L13 0L13 1L12 1L12 0ZM12 2L12 4L13 4L13 2ZM10 5L10 6L9 6L9 7L10 7L10 9L11 9L11 10L10 10L10 11L8 11L8 13L9 13L9 16L8 16L8 17L11 17L11 16L12 16L12 15L13 15L13 16L14 16L14 18L15 18L15 20L16 20L16 17L15 17L15 16L16 16L16 15L13 15L13 14L12 14L12 13L16 13L16 12L14 12L14 11L15 11L15 10L13 10L13 9L14 9L14 8L13 8L13 9L12 9L12 6L11 6L11 5ZM10 6L10 7L11 7L11 6ZM16 6L16 7L17 7L17 6ZM0 8L0 9L2 9L2 8ZM3 10L3 11L4 11L4 10ZM12 10L12 11L13 11L13 10ZM19 10L19 11L21 11L21 12L22 12L22 13L21 13L21 14L24 14L24 12L22 12L22 11L21 11L21 10ZM17 11L17 14L18 14L18 15L19 15L19 14L20 14L20 13L18 13L18 11ZM9 12L9 13L10 13L10 16L11 16L11 12ZM12 17L12 18L11 18L11 19L12 19L12 20L13 20L13 21L14 21L14 20L13 20L13 19L12 19L12 18L13 18L13 17ZM17 17L17 20L20 20L20 17ZM18 18L18 19L19 19L19 18ZM9 21L9 22L12 22L12 23L13 23L13 22L12 22L12 21ZM15 21L15 22L17 22L17 21ZM19 21L19 22L18 22L18 23L20 23L20 21ZM22 22L22 23L23 23L23 22ZM0 0L0 7L7 7L7 0ZM1 1L1 6L6 6L6 1ZM2 2L2 5L5 5L5 2ZM18 0L18 7L25 7L25 0ZM19 1L19 6L24 6L24 1ZM20 2L20 5L23 5L23 2ZM0 18L0 25L7 25L7 18ZM1 19L1 24L6 24L6 19ZM2 20L2 23L5 23L5 20Z" fill="#000000"/></g></g></svg>
