<?xml version="1.0" encoding="UTF-8"?>
<svg xmlns="http://www.w3.org/2000/svg" version="1.1" width="300" height="300" viewBox="0 0 300 300"><rect x="0" y="0" width="300" height="300" fill="#ffffff"/><g transform="scale(12)"><g transform="translate(0,0)"><path fill-rule="evenodd" d="M8 0L8 2L9 2L9 3L10 3L10 7L11 7L11 5L12 5L12 8L11 8L11 9L12 9L12 10L11 10L11 11L10 11L10 10L9 10L9 9L10 9L10 8L9 8L9 4L8 4L8 11L7 11L7 10L6 10L6 11L3 11L3 10L5 10L5 9L7 9L7 8L5 8L5 9L3 9L3 8L0 8L0 11L1 11L1 9L3 9L3 10L2 10L2 11L3 11L3 12L1 12L1 13L3 13L3 12L4 12L4 13L5 13L5 14L4 14L4 15L3 15L3 14L0 14L0 15L3 15L3 16L4 16L4 17L8 17L8 18L10 18L10 17L8 17L8 15L10 15L10 16L11 16L11 19L13 19L13 18L14 18L14 20L12 20L12 22L11 22L11 20L10 20L10 19L8 19L8 20L9 20L9 22L8 22L8 25L9 25L9 23L10 23L10 24L11 24L11 25L12 25L12 22L13 22L13 23L14 23L14 24L13 24L13 25L14 25L14 24L15 24L15 23L14 23L14 22L13 22L13 21L14 21L14 20L15 20L15 22L16 22L16 25L17 25L17 24L18 24L18 25L21 25L21 24L19 24L19 23L21 23L21 22L22 22L22 21L21 21L21 15L23 15L23 17L24 17L24 15L25 15L25 14L24 14L24 15L23 15L23 14L19 14L19 13L22 13L22 12L21 12L21 11L22 11L22 10L23 10L23 11L25 11L25 8L23 8L23 9L22 9L22 10L21 10L21 11L20 11L20 9L21 9L21 8L17 8L17 9L16 9L16 7L17 7L17 6L16 6L16 7L15 7L15 6L14 6L14 4L15 4L15 5L16 5L16 3L17 3L17 2L15 2L15 1L16 1L16 0L15 0L15 1L14 1L14 0L13 0L13 1L12 1L12 0ZM9 1L9 2L10 2L10 3L11 3L11 4L12 4L12 5L13 5L13 4L14 4L14 3L15 3L15 2L14 2L14 1L13 1L13 2L14 2L14 3L13 3L13 4L12 4L12 1ZM13 6L13 8L12 8L12 9L13 9L13 8L14 8L14 10L16 10L16 9L15 9L15 8L14 8L14 6ZM17 9L17 11L13 11L13 10L12 10L12 11L11 11L11 13L10 13L10 14L12 14L12 11L13 11L13 12L14 12L14 14L15 14L15 12L17 12L17 13L16 13L16 14L18 14L18 11L19 11L19 12L20 12L20 11L19 11L19 9ZM6 11L6 12L7 12L7 11ZM9 11L9 12L8 12L8 13L6 13L6 14L5 14L5 15L4 15L4 16L7 16L7 15L8 15L8 14L9 14L9 12L10 12L10 11ZM24 12L24 13L25 13L25 12ZM6 14L6 15L7 15L7 14ZM11 15L11 16L14 16L14 18L15 18L15 20L16 20L16 18L15 18L15 17L16 17L16 16L17 16L17 15L16 15L16 16L14 16L14 15ZM18 15L18 16L20 16L20 15ZM0 16L0 17L2 17L2 16ZM12 17L12 18L13 18L13 17ZM17 17L17 20L20 20L20 17ZM18 18L18 19L19 19L19 18ZM22 18L22 19L23 19L23 18ZM24 18L24 19L25 19L25 18ZM23 20L23 21L24 21L24 22L23 22L23 23L25 23L25 20ZM16 21L16 22L17 22L17 21ZM18 21L18 23L19 23L19 21ZM10 22L10 23L11 23L11 22ZM24 24L24 25L25 25L25 24ZM0 0L0 7L7 7L7 0ZM1 1L1 6L6 6L6 1ZM2 2L2 5L5 5L5 2ZM18 0L18 7L25 7L25 0ZM19 1L19 6L24 6L24 1ZM20 2L20 5L23 5L23 2ZM0 18L0 25L7 25L7 18ZM1 19L1 24L6 24L6 19ZM2 20L2 23L5 23L5 20Z" fill="#000000"/></g></g></svg>
