<?xml version="1.0" encoding="UTF-8"?>
<svg xmlns="http://www.w3.org/2000/svg" version="1.1" width="300" height="300" viewBox="0 0 300 300"><rect x="0" y="0" width="300" height="300" fill="#ffffff"/><g transform="scale(10.345)"><g transform="translate(0,0)"><path fill-rule="evenodd" d="M10 0L10 1L9 1L9 2L8 2L8 3L9 3L9 5L10 5L10 7L11 7L11 8L12 8L12 9L11 9L11 10L10 10L10 9L9 9L9 6L8 6L8 8L4 8L4 9L9 9L9 10L8 10L8 11L9 11L9 12L8 12L8 13L9 13L9 12L10 12L10 14L12 14L12 12L14 12L14 14L13 14L13 15L14 15L14 14L16 14L16 15L15 15L15 16L18 16L18 15L19 15L19 16L22 16L22 17L19 17L19 18L18 18L18 17L15 17L15 18L14 18L14 17L13 17L13 16L12 16L12 15L11 15L11 16L12 16L12 17L11 17L11 19L10 19L10 16L9 16L9 14L8 14L8 16L9 16L9 20L8 20L8 25L9 25L9 26L8 26L8 29L10 29L10 27L12 27L12 28L11 28L11 29L12 29L12 28L14 28L14 29L15 29L15 26L18 26L18 27L17 27L17 28L19 28L19 29L22 29L22 27L23 27L23 28L26 28L26 29L29 29L29 28L28 28L28 27L29 27L29 22L28 22L28 21L26 21L26 19L24 19L24 20L22 20L22 19L23 19L23 16L24 16L24 15L25 15L25 17L26 17L26 15L27 15L27 19L29 19L29 18L28 18L28 17L29 17L29 16L28 16L28 15L29 15L29 13L28 13L28 15L27 15L27 14L26 14L26 11L27 11L27 12L29 12L29 9L27 9L27 8L26 8L26 9L25 9L25 10L23 10L23 8L20 8L20 7L21 7L21 4L20 4L20 3L21 3L21 2L20 2L20 1L19 1L19 2L18 2L18 1L17 1L17 2L18 2L18 3L17 3L17 4L16 4L16 5L14 5L14 3L12 3L12 2L11 2L11 3L12 3L12 5L10 5L10 3L9 3L9 2L10 2L10 1L11 1L11 0ZM14 0L14 1L13 1L13 2L14 2L14 1L15 1L15 0ZM15 2L15 3L16 3L16 2ZM19 2L19 3L20 3L20 2ZM17 4L17 5L18 5L18 6L17 6L17 7L16 7L16 6L15 6L15 7L14 7L14 5L13 5L13 7L12 7L12 6L11 6L11 7L12 7L12 8L13 8L13 9L14 9L14 10L13 10L13 11L14 11L14 10L15 10L15 11L16 11L16 10L15 10L15 7L16 7L16 8L17 8L17 9L19 9L19 8L17 8L17 7L18 7L18 6L19 6L19 7L20 7L20 6L19 6L19 5L18 5L18 4ZM0 8L0 9L2 9L2 10L0 10L0 11L1 11L1 12L0 12L0 13L2 13L2 11L4 11L4 10L3 10L3 8ZM26 9L26 10L25 10L25 11L26 11L26 10L27 10L27 11L28 11L28 10L27 10L27 9ZM6 10L6 11L7 11L7 10ZM9 10L9 11L10 11L10 10ZM17 10L17 11L18 11L18 12L15 12L15 13L17 13L17 15L18 15L18 14L19 14L19 15L23 15L23 14L25 14L25 12L24 12L24 11L21 11L21 12L19 12L19 11L20 11L20 10ZM11 11L11 12L12 12L12 11ZM6 12L6 13L3 13L3 14L4 14L4 15L3 15L3 16L0 16L0 17L1 17L1 18L0 18L0 19L1 19L1 20L0 20L0 21L1 21L1 20L2 20L2 21L4 21L4 20L2 20L2 19L1 19L1 18L2 18L2 17L3 17L3 16L4 16L4 18L3 18L3 19L5 19L5 20L6 20L6 21L7 21L7 20L6 20L6 19L7 19L7 18L6 18L6 19L5 19L5 17L7 17L7 16L5 16L5 15L7 15L7 14L6 14L6 13L7 13L7 12ZM22 12L22 14L23 14L23 12ZM19 13L19 14L21 14L21 13ZM13 18L13 19L14 19L14 18ZM15 18L15 19L18 19L18 18ZM19 18L19 20L17 20L17 22L18 22L18 24L17 24L17 23L16 23L16 22L14 22L14 20L12 20L12 19L11 19L11 20L12 20L12 22L11 22L11 21L10 21L10 22L9 22L9 25L10 25L10 26L9 26L9 27L10 27L10 26L11 26L11 25L12 25L12 24L13 24L13 25L14 25L14 26L13 26L13 27L14 27L14 26L15 26L15 23L16 23L16 24L17 24L17 25L18 25L18 26L19 26L19 27L20 27L20 28L21 28L21 26L23 26L23 25L20 25L20 20L21 20L21 19L22 19L22 18L21 18L21 19L20 19L20 18ZM15 20L15 21L16 21L16 20ZM21 21L21 24L24 24L24 21ZM13 22L13 23L14 23L14 22ZM22 22L22 23L23 23L23 22ZM10 23L10 24L12 24L12 23ZM26 23L26 28L27 28L27 27L28 27L28 26L27 26L27 25L28 25L28 23ZM19 25L19 26L20 26L20 25ZM24 25L24 26L25 26L25 25ZM0 0L0 7L7 7L7 0ZM1 1L1 6L6 6L6 1ZM2 2L2 5L5 5L5 2ZM22 0L22 7L29 7L29 0ZM23 1L23 6L28 6L28 1ZM24 2L24 5L27 5L27 2ZM0 22L0 29L7 29L7 22ZM1 23L1 28L6 28L6 23ZM2 24L2 27L5 27L5 24Z" fill="#000000"/></g></g></svg>
