<?xml version="1.0" encoding="UTF-8"?>
<svg xmlns="http://www.w3.org/2000/svg" version="1.1" width="300" height="300" viewBox="0 0 300 300"><rect x="0" y="0" width="300" height="300" fill="#ffffff"/><g transform="scale(12)"><g transform="translate(0,0)"><path fill-rule="evenodd" d="M8 0L8 4L9 4L9 5L8 5L8 7L9 7L9 6L10 6L10 9L11 9L11 8L12 8L12 9L14 9L14 10L13 10L13 11L12 11L12 12L11 12L11 13L8 13L8 10L9 10L9 12L10 12L10 11L11 11L11 10L9 10L9 9L8 9L8 10L6 10L6 9L7 9L7 8L4 8L4 9L2 9L2 8L0 8L0 10L1 10L1 12L0 12L0 14L2 14L2 16L0 16L0 17L2 17L2 16L3 16L3 17L5 17L5 16L6 16L6 17L7 17L7 16L6 16L6 15L7 15L7 14L8 14L8 18L9 18L9 19L8 19L8 21L13 21L13 22L16 22L16 23L14 23L14 24L13 24L13 23L12 23L12 22L11 22L11 23L10 23L10 24L12 24L12 25L14 25L14 24L15 24L15 25L16 25L16 23L18 23L18 24L17 24L17 25L25 25L25 24L24 24L24 22L25 22L25 21L23 21L23 20L25 20L25 19L23 19L23 18L22 18L22 19L21 19L21 17L23 17L23 14L21 14L21 12L22 12L22 13L24 13L24 14L25 14L25 12L24 12L24 9L25 9L25 8L21 8L21 9L20 9L20 8L19 8L19 9L18 9L18 11L17 11L17 9L16 9L16 10L15 10L15 9L14 9L14 8L17 8L17 4L16 4L16 3L17 3L17 0L16 0L16 3L14 3L14 5L15 5L15 4L16 4L16 7L15 7L15 6L14 6L14 8L12 8L12 7L13 7L13 6L12 6L12 7L11 7L11 3L10 3L10 2L9 2L9 0ZM14 0L14 1L11 1L11 2L12 2L12 5L13 5L13 2L15 2L15 0ZM1 9L1 10L2 10L2 9ZM19 9L19 12L20 12L20 9ZM21 9L21 10L22 10L22 11L23 11L23 10L22 10L22 9ZM14 10L14 11L13 11L13 13L14 13L14 11L15 11L15 10ZM2 11L2 12L1 12L1 13L2 13L2 12L3 12L3 11ZM4 11L4 13L3 13L3 16L5 16L5 15L6 15L6 14L7 14L7 13L6 13L6 12L7 12L7 11L6 11L6 12L5 12L5 11ZM15 12L15 13L16 13L16 14L18 14L18 15L17 15L17 16L19 16L19 15L20 15L20 16L21 16L21 14L19 14L19 13L17 13L17 12ZM5 13L5 14L6 14L6 13ZM11 13L11 14L12 14L12 13ZM9 14L9 15L10 15L10 17L9 17L9 18L10 18L10 17L11 17L11 18L12 18L12 20L14 20L14 21L16 21L16 22L17 22L17 21L16 21L16 20L15 20L15 19L16 19L16 18L14 18L14 19L13 19L13 17L12 17L12 16L11 16L11 15L10 15L10 14ZM13 14L13 16L14 16L14 17L15 17L15 16L16 16L16 15L15 15L15 14ZM17 17L17 20L20 20L20 17ZM24 17L24 18L25 18L25 17ZM18 18L18 19L19 19L19 18ZM9 19L9 20L10 20L10 19ZM19 21L19 23L22 23L22 22L23 22L23 21L22 21L22 22L21 22L21 21ZM8 23L8 25L9 25L9 23ZM0 0L0 7L7 7L7 0ZM1 1L1 6L6 6L6 1ZM2 2L2 5L5 5L5 2ZM18 0L18 7L25 7L25 0ZM19 1L19 6L24 6L24 1ZM20 2L20 5L23 5L23 2ZM0 18L0 25L7 25L7 18ZM1 19L1 24L6 24L6 19ZM2 20L2 23L5 23L5 20Z" fill="#000000"/></g></g></svg>
