<?xml version="1.0" encoding="UTF-8"?>
<svg xmlns="http://www.w3.org/2000/svg" version="1.1" width="300" height="300" viewBox="0 0 300 300"><rect x="0" y="0" width="300" height="300" fill="#ffffff"/><g transform="scale(12)"><g transform="translate(0,0)"><path fill-rule="evenodd" d="M8 0L8 1L9 1L9 0ZM13 0L13 1L11 1L11 2L10 2L10 3L9 3L9 2L8 2L8 5L10 5L10 9L12 9L12 8L13 8L13 6L14 6L14 8L15 8L15 3L16 3L16 2L15 2L15 1L17 1L17 0L15 0L15 1L14 1L14 0ZM13 1L13 2L12 2L12 3L11 3L11 4L10 4L10 5L11 5L11 8L12 8L12 6L13 6L13 5L11 5L11 4L14 4L14 3L13 3L13 2L14 2L14 1ZM16 4L16 5L17 5L17 4ZM8 6L8 7L9 7L9 6ZM16 6L16 7L17 7L17 6ZM0 8L0 9L1 9L1 10L0 10L0 13L2 13L2 14L1 14L1 15L0 15L0 16L1 16L1 15L2 15L2 16L3 16L3 17L4 17L4 16L3 16L3 15L4 15L4 13L3 13L3 11L5 11L5 12L6 12L6 13L7 13L7 14L6 14L6 15L7 15L7 16L5 16L5 17L8 17L8 18L9 18L9 19L10 19L10 20L9 20L9 21L8 21L8 25L12 25L12 24L10 24L10 23L9 23L9 21L10 21L10 20L12 20L12 19L10 19L10 18L11 18L11 17L12 17L12 18L14 18L14 19L15 19L15 18L16 18L16 21L17 21L17 25L19 25L19 22L20 22L20 24L21 24L21 23L22 23L22 25L25 25L25 24L23 24L23 23L24 23L24 22L25 22L25 18L23 18L23 17L25 17L25 15L24 15L24 13L25 13L25 12L23 12L23 11L24 11L24 9L25 9L25 8L24 8L24 9L23 9L23 8L20 8L20 9L18 9L18 8L16 8L16 9L15 9L15 10L14 10L14 11L13 11L13 10L9 10L9 8L8 8L8 11L9 11L9 12L6 12L6 11L7 11L7 10L6 10L6 11L5 11L5 9L4 9L4 8ZM6 8L6 9L7 9L7 8ZM17 9L17 10L15 10L15 11L14 11L14 12L13 12L13 11L11 11L11 13L10 13L10 14L9 14L9 13L8 13L8 14L7 14L7 15L8 15L8 14L9 14L9 16L10 16L10 17L9 17L9 18L10 18L10 17L11 17L11 16L10 16L10 14L11 14L11 15L12 15L12 16L13 16L13 17L15 17L15 16L17 16L17 15L19 15L19 14L20 14L20 16L21 16L21 15L22 15L22 16L23 16L23 15L22 15L22 14L23 14L23 13L21 13L21 12L22 12L22 10L21 10L21 9L20 9L20 10L19 10L19 11L21 11L21 12L19 12L19 14L17 14L17 12L18 12L18 9ZM1 10L1 12L2 12L2 11L3 11L3 10ZM16 11L16 12L14 12L14 13L15 13L15 14L16 14L16 15L17 15L17 14L16 14L16 12L17 12L17 11ZM12 12L12 13L11 13L11 14L12 14L12 15L13 15L13 12ZM20 13L20 14L21 14L21 13ZM14 15L14 16L15 16L15 15ZM17 17L17 20L20 20L20 17ZM21 17L21 20L22 20L22 21L23 21L23 20L24 20L24 19L23 19L23 18L22 18L22 17ZM18 18L18 19L19 19L19 18ZM13 20L13 21L14 21L14 22L11 22L11 23L13 23L13 24L14 24L14 25L15 25L15 24L14 24L14 23L16 23L16 22L15 22L15 20ZM22 22L22 23L23 23L23 22ZM0 0L0 7L7 7L7 0ZM1 1L1 6L6 6L6 1ZM2 2L2 5L5 5L5 2ZM18 0L18 7L25 7L25 0ZM19 1L19 6L24 6L24 1ZM20 2L20 5L23 5L23 2ZM0 18L0 25L7 25L7 18ZM1 19L1 24L6 24L6 19ZM2 20L2 23L5 23L5 20Z" fill="#000000"/></g></g></svg>
