<?xml version="1.0" encoding="UTF-8"?>
<svg xmlns="http://www.w3.org/2000/svg" version="1.1" width="300" height="300" viewBox="0 0 300 300"><rect x="0" y="0" width="300" height="300" fill="#ffffff"/><g transform="scale(12)"><g transform="translate(0,0)"><path fill-rule="evenodd" d="M10 0L10 1L11 1L11 0ZM13 0L13 1L12 1L12 2L15 2L15 3L17 3L17 1L16 1L16 2L15 2L15 0ZM9 2L9 3L8 3L8 5L9 5L9 6L8 6L8 7L9 7L9 9L10 9L10 10L9 10L9 11L8 11L8 8L5 8L5 9L2 9L2 8L0 8L0 9L2 9L2 10L1 10L1 12L2 12L2 13L0 13L0 17L1 17L1 14L2 14L2 13L3 13L3 14L4 14L4 15L3 15L3 16L2 16L2 17L8 17L8 20L9 20L9 23L8 23L8 25L9 25L9 24L10 24L10 25L12 25L12 24L10 24L10 21L11 21L11 22L12 22L12 23L13 23L13 22L12 22L12 21L14 21L14 22L15 22L15 25L17 25L17 24L18 24L18 25L21 25L21 23L22 23L22 22L24 22L24 25L25 25L25 21L24 21L24 20L22 20L22 22L21 22L21 16L19 16L19 15L18 15L18 14L17 14L17 13L16 13L16 12L18 12L18 13L19 13L19 14L20 14L20 15L22 15L22 17L23 17L23 16L25 16L25 10L24 10L24 9L23 9L23 10L21 10L21 9L22 9L22 8L20 8L20 9L19 9L19 10L18 10L18 11L16 11L16 8L15 8L15 6L14 6L14 8L12 8L12 7L13 7L13 6L12 6L12 7L11 7L11 5L12 5L12 4L13 4L13 5L14 5L14 3L11 3L11 2ZM9 3L9 5L11 5L11 4L10 4L10 3ZM16 4L16 7L17 7L17 4ZM9 6L9 7L10 7L10 8L11 8L11 7L10 7L10 6ZM5 9L5 11L6 11L6 12L7 12L7 13L6 13L6 14L5 14L5 15L6 15L6 16L7 16L7 15L6 15L6 14L8 14L8 13L9 13L9 15L8 15L8 17L10 17L10 15L11 15L11 16L16 16L16 15L17 15L17 14L16 14L16 13L15 13L15 12L16 12L16 11L15 11L15 9L12 9L12 10L10 10L10 11L9 11L9 12L8 12L8 11L6 11L6 10L7 10L7 9ZM2 10L2 12L3 12L3 13L5 13L5 12L3 12L3 10ZM12 10L12 11L10 11L10 12L9 12L9 13L10 13L10 14L12 14L12 13L13 13L13 10ZM19 10L19 11L20 11L20 10ZM23 10L23 11L21 11L21 12L22 12L22 13L20 13L20 14L22 14L22 15L23 15L23 14L24 14L24 10ZM14 11L14 12L15 12L15 11ZM14 13L14 15L16 15L16 14L15 14L15 13ZM12 17L12 19L11 19L11 18L10 18L10 19L9 19L9 20L10 20L10 19L11 19L11 21L12 21L12 19L13 19L13 20L14 20L14 21L15 21L15 22L17 22L17 23L19 23L19 24L20 24L20 23L21 23L21 22L20 22L20 21L19 21L19 22L17 22L17 21L15 21L15 20L16 20L16 17ZM17 17L17 20L20 20L20 17ZM24 17L24 19L25 19L25 17ZM13 18L13 19L14 19L14 20L15 20L15 19L14 19L14 18ZM18 18L18 19L19 19L19 18ZM22 18L22 19L23 19L23 18ZM13 24L13 25L14 25L14 24ZM0 0L0 7L7 7L7 0ZM1 1L1 6L6 6L6 1ZM2 2L2 5L5 5L5 2ZM18 0L18 7L25 7L25 0ZM19 1L19 6L24 6L24 1ZM20 2L20 5L23 5L23 2ZM0 18L0 25L7 25L7 18ZM1 19L1 24L6 24L6 19ZM2 20L2 23L5 23L5 20Z" fill="#000000"/></g></g></svg>
