<?xml version="1.0" encoding="UTF-8"?>
<svg xmlns="http://www.w3.org/2000/svg" version="1.1" width="300" height="300" viewBox="0 0 300 300"><rect x="0" y="0" width="300" height="300" fill="#ffffff"/><g transform="scale(12)"><g transform="translate(0,0)"><path fill-rule="evenodd" d="M8 0L8 1L10 1L10 3L9 3L9 2L8 2L8 5L10 5L10 9L12 9L12 8L13 8L13 10L9 10L9 8L8 8L8 10L9 10L9 11L8 11L8 12L9 12L9 13L8 13L8 14L10 14L10 13L11 13L11 14L13 14L13 15L12 15L12 16L11 16L11 17L10 17L10 16L9 16L9 15L7 15L7 14L6 14L6 15L5 15L5 13L7 13L7 12L5 12L5 11L4 11L4 8L0 8L0 9L2 9L2 10L3 10L3 16L2 16L2 17L4 17L4 16L5 16L5 17L7 17L7 16L8 16L8 18L10 18L10 20L11 20L11 21L8 21L8 25L11 25L11 24L12 24L12 22L11 22L11 21L12 21L12 19L11 19L11 18L12 18L12 16L13 16L13 15L14 15L14 16L15 16L15 17L13 17L13 19L14 19L14 18L16 18L16 21L17 21L17 25L19 25L19 22L20 22L20 24L21 24L21 23L22 23L22 25L25 25L25 24L23 24L23 23L24 23L24 22L25 22L25 18L23 18L23 17L25 17L25 15L24 15L24 13L25 13L25 12L23 12L23 11L24 11L24 9L25 9L25 8L24 8L24 9L23 9L23 8L20 8L20 9L18 9L18 8L16 8L16 7L17 7L17 4L16 4L16 7L15 7L15 1L17 1L17 0L15 0L15 1L14 1L14 2L13 2L13 1L10 1L10 0ZM11 2L11 4L10 4L10 5L11 5L11 7L12 7L12 5L11 5L11 4L12 4L12 3L13 3L13 8L15 8L15 9L16 9L16 8L15 8L15 7L14 7L14 3L13 3L13 2ZM16 2L16 3L17 3L17 2ZM8 6L8 7L9 7L9 6ZM6 8L6 9L7 9L7 8ZM17 9L17 10L15 10L15 12L16 12L16 14L14 14L14 12L12 12L12 11L11 11L11 13L13 13L13 14L14 14L14 15L15 15L15 16L17 16L17 15L19 15L19 16L21 16L21 15L22 15L22 16L23 16L23 15L22 15L22 14L23 14L23 13L21 13L21 12L22 12L22 10L21 10L21 9L20 9L20 10L19 10L19 11L21 11L21 12L19 12L19 14L17 14L17 12L18 12L18 9ZM6 10L6 11L7 11L7 10ZM13 10L13 11L14 11L14 10ZM0 11L0 13L2 13L2 11ZM16 11L16 12L17 12L17 11ZM20 13L20 14L21 14L21 13ZM1 14L1 15L0 15L0 16L1 16L1 15L2 15L2 14ZM16 14L16 15L17 15L17 14ZM6 15L6 16L7 16L7 15ZM17 17L17 20L20 20L20 17ZM21 17L21 20L22 20L22 22L23 22L23 20L24 20L24 19L23 19L23 18L22 18L22 17ZM18 18L18 19L19 19L19 18ZM13 20L13 22L14 22L14 23L13 23L13 24L14 24L14 25L15 25L15 24L14 24L14 23L16 23L16 22L14 22L14 21L15 21L15 20ZM9 23L9 24L10 24L10 23ZM0 0L0 7L7 7L7 0ZM1 1L1 6L6 6L6 1ZM2 2L2 5L5 5L5 2ZM18 0L18 7L25 7L25 0ZM19 1L19 6L24 6L24 1ZM20 2L20 5L23 5L23 2ZM0 18L0 25L7 25L7 18ZM1 19L1 24L6 24L6 19ZM2 20L2 23L5 23L5 20Z" fill="#000000"/></g></g></svg>
