<?xml version="1.0" encoding="UTF-8"?>
<svg xmlns="http://www.w3.org/2000/svg" version="1.1" width="300" height="300" viewBox="0 0 300 300"><rect x="0" y="0" width="300" height="300" fill="#ffffff"/><g transform="scale(12)"><g transform="translate(0,0)"><path fill-rule="evenodd" d="M8 0L8 4L10 4L10 3L11 3L11 4L12 4L12 2L11 2L11 0ZM12 0L12 1L13 1L13 2L14 2L14 4L13 4L13 5L11 5L11 6L10 6L10 7L9 7L9 5L8 5L8 7L9 7L9 8L10 8L10 7L11 7L11 6L12 6L12 8L11 8L11 9L7 9L7 8L4 8L4 9L2 9L2 8L0 8L0 9L1 9L1 10L2 10L2 11L0 11L0 12L3 12L3 13L4 13L4 11L3 11L3 10L4 10L4 9L5 9L5 10L6 10L6 11L5 11L5 12L6 12L6 13L5 13L5 15L4 15L4 14L2 14L2 15L3 15L3 16L5 16L5 15L7 15L7 14L8 14L8 16L6 16L6 17L8 17L8 18L11 18L11 19L10 19L10 20L9 20L9 19L8 19L8 21L10 21L10 22L9 22L9 23L8 23L8 25L10 25L10 23L11 23L11 24L12 24L12 25L14 25L14 24L15 24L15 25L16 25L16 23L18 23L18 24L17 24L17 25L25 25L25 24L24 24L24 22L25 22L25 21L23 21L23 18L22 18L22 19L21 19L21 17L23 17L23 14L21 14L21 12L22 12L22 13L24 13L24 14L25 14L25 12L24 12L24 9L25 9L25 8L21 8L21 9L20 9L20 8L19 8L19 9L18 9L18 11L17 11L17 9L16 9L16 10L15 10L15 9L14 9L14 8L13 8L13 5L14 5L14 4L15 4L15 3L16 3L16 8L17 8L17 2L15 2L15 0ZM16 0L16 1L17 1L17 0ZM9 2L9 3L10 3L10 2ZM14 6L14 7L15 7L15 6ZM12 8L12 9L11 9L11 10L7 10L7 9L6 9L6 10L7 10L7 11L6 11L6 12L9 12L9 13L10 13L10 14L9 14L9 16L8 16L8 17L11 17L11 18L12 18L12 19L11 19L11 20L12 20L12 19L13 19L13 20L14 20L14 21L11 21L11 22L12 22L12 23L13 23L13 24L14 24L14 23L16 23L16 22L17 22L17 21L16 21L16 20L15 20L15 19L16 19L16 18L12 18L12 17L11 17L11 16L12 16L12 15L13 15L13 17L14 17L14 16L16 16L16 15L13 15L13 14L14 14L14 13L16 13L16 14L18 14L18 15L17 15L17 16L21 16L21 14L19 14L19 13L17 13L17 12L14 12L14 11L15 11L15 10L13 10L13 11L12 11L12 12L11 12L11 13L10 13L10 11L11 11L11 10L12 10L12 9L13 9L13 8ZM19 9L19 12L20 12L20 9ZM21 9L21 10L22 10L22 11L23 11L23 10L22 10L22 9ZM12 12L12 13L14 13L14 12ZM0 13L0 14L1 14L1 13ZM6 13L6 14L7 14L7 13ZM10 14L10 15L11 15L11 14ZM0 16L0 17L2 17L2 16ZM17 17L17 20L20 20L20 17ZM24 17L24 18L25 18L25 17ZM18 18L18 19L19 19L19 18ZM14 21L14 22L13 22L13 23L14 23L14 22L16 22L16 21ZM19 21L19 23L20 23L20 24L21 24L21 22L23 22L23 21ZM0 0L0 7L7 7L7 0ZM1 1L1 6L6 6L6 1ZM2 2L2 5L5 5L5 2ZM18 0L18 7L25 7L25 0ZM19 1L19 6L24 6L24 1ZM20 2L20 5L23 5L23 2ZM0 18L0 25L7 25L7 18ZM1 19L1 24L6 24L6 19ZM2 20L2 23L5 23L5 20Z" fill="#000000"/></g></g></svg>
