<?xml version="1.0" encoding="UTF-8"?>
<svg xmlns="http://www.w3.org/2000/svg" version="1.1" width="300" height="300" viewBox="0 0 300 300"><rect x="0" y="0" width="300" height="300" fill="#ffffff"/><g transform="scale(12)"><g transform="translate(0,0)"><path fill-rule="evenodd" d="M8 0L8 1L9 1L9 2L8 2L8 5L9 5L9 4L11 4L11 5L10 5L10 10L8 10L8 9L9 9L9 8L8 8L8 9L7 9L7 8L6 8L6 9L4 9L4 8L0 8L0 9L1 9L1 12L3 12L3 13L2 13L2 14L1 14L1 15L0 15L0 16L1 16L1 15L2 15L2 14L5 14L5 15L3 15L3 16L2 16L2 17L3 17L3 16L4 16L4 17L8 17L8 18L9 18L9 19L11 19L11 20L12 20L12 19L11 19L11 17L10 17L10 16L12 16L12 14L13 14L13 15L14 15L14 14L16 14L16 15L15 15L15 16L16 16L16 21L15 21L15 19L14 19L14 16L13 16L13 19L14 19L14 21L15 21L15 22L14 22L14 23L12 23L12 21L10 21L10 20L9 20L9 21L8 21L8 25L9 25L9 24L10 24L10 23L11 23L11 24L13 24L13 25L16 25L16 23L17 23L17 25L19 25L19 24L18 24L18 23L19 23L19 21L21 21L21 22L20 22L20 23L21 23L21 22L22 22L22 20L21 20L21 17L22 17L22 18L23 18L23 19L25 19L25 18L23 18L23 17L25 17L25 15L24 15L24 13L25 13L25 12L23 12L23 11L24 11L24 9L25 9L25 8L24 8L24 9L23 9L23 8L20 8L20 9L19 9L19 10L20 10L20 9L21 9L21 10L22 10L22 12L21 12L21 11L20 11L20 12L21 12L21 13L19 13L19 12L18 12L18 10L17 10L17 9L18 9L18 8L16 8L16 11L15 11L15 10L14 10L14 9L15 9L15 8L14 8L14 9L13 9L13 6L12 6L12 5L13 5L13 4L15 4L15 5L17 5L17 4L15 4L15 3L16 3L16 2L13 2L13 0L12 0L12 1L11 1L11 0L10 0L10 1L9 1L9 0ZM16 0L16 1L17 1L17 0ZM11 2L11 4L12 4L12 3L13 3L13 2ZM8 6L8 7L9 7L9 6ZM11 6L11 8L12 8L12 6ZM14 6L14 7L15 7L15 6ZM16 6L16 7L17 7L17 6ZM3 9L3 12L5 12L5 10L4 10L4 9ZM6 9L6 10L7 10L7 11L6 11L6 12L7 12L7 13L6 13L6 14L7 14L7 15L5 15L5 16L7 16L7 15L8 15L8 14L7 14L7 13L8 13L8 12L7 12L7 11L8 11L8 10L7 10L7 9ZM11 9L11 10L12 10L12 9ZM13 10L13 11L11 11L11 13L10 13L10 14L9 14L9 15L11 15L11 13L12 13L12 12L13 12L13 11L14 11L14 13L13 13L13 14L14 14L14 13L15 13L15 11L14 11L14 10ZM16 11L16 13L17 13L17 11ZM21 13L21 15L22 15L22 16L23 16L23 15L22 15L22 14L23 14L23 13ZM16 15L16 16L17 16L17 15ZM19 15L19 16L20 16L20 15ZM8 16L8 17L9 17L9 18L10 18L10 17L9 17L9 16ZM17 17L17 20L20 20L20 17ZM18 18L18 19L19 19L19 18ZM24 20L24 21L23 21L23 23L22 23L22 25L25 25L25 24L23 24L23 23L24 23L24 22L25 22L25 20ZM9 21L9 23L10 23L10 21ZM15 22L15 23L16 23L16 22ZM20 24L20 25L21 25L21 24ZM0 0L0 7L7 7L7 0ZM1 1L1 6L6 6L6 1ZM2 2L2 5L5 5L5 2ZM18 0L18 7L25 7L25 0ZM19 1L19 6L24 6L24 1ZM20 2L20 5L23 5L23 2ZM0 18L0 25L7 25L7 18ZM1 19L1 24L6 24L6 19ZM2 20L2 23L5 23L5 20Z" fill="#000000"/></g></g></svg>
