<?xml version="1.0" encoding="UTF-8"?>
<svg xmlns="http://www.w3.org/2000/svg" version="1.1" width="300" height="300" viewBox="0 0 300 300"><rect x="0" y="0" width="300" height="300" fill="#ffffff"/><g transform="scale(12)"><g transform="translate(0,0)"><path fill-rule="evenodd" d="M8 0L8 1L11 1L11 3L10 3L10 2L9 2L9 3L10 3L10 5L9 5L9 6L8 6L8 8L9 8L9 9L8 9L8 10L5 10L5 8L3 8L3 10L2 10L2 8L0 8L0 10L1 10L1 12L0 12L0 17L1 17L1 15L2 15L2 17L4 17L4 16L3 16L3 15L5 15L5 16L6 16L6 17L8 17L8 18L10 18L10 19L9 19L9 20L8 20L8 22L9 22L9 23L8 23L8 25L10 25L10 22L11 22L11 23L12 23L12 24L11 24L11 25L12 25L12 24L13 24L13 25L14 25L14 24L15 24L15 23L14 23L14 24L13 24L13 22L11 22L11 21L15 21L15 22L17 22L17 23L18 23L18 22L20 22L20 23L22 23L22 24L24 24L24 25L25 25L25 21L24 21L24 20L25 20L25 17L24 17L24 16L25 16L25 10L24 10L24 9L25 9L25 8L24 8L24 9L23 9L23 10L21 10L21 9L19 9L19 8L18 8L18 10L21 10L21 11L20 11L20 12L18 12L18 11L16 11L16 10L15 10L15 8L14 8L14 7L15 7L15 5L17 5L17 1L16 1L16 0L14 0L14 1L16 1L16 2L15 2L15 3L16 3L16 4L13 4L13 3L14 3L14 2L13 2L13 1L12 1L12 0ZM12 2L12 3L13 3L13 2ZM10 5L10 6L9 6L9 7L10 7L10 9L9 9L9 10L10 10L10 11L8 11L8 12L7 12L7 11L5 11L5 10L4 10L4 11L3 11L3 12L2 12L2 13L3 13L3 14L5 14L5 13L6 13L6 14L7 14L7 15L6 15L6 16L7 16L7 15L9 15L9 16L10 16L10 18L11 18L11 16L12 16L12 19L14 19L14 18L15 18L15 20L16 20L16 18L15 18L15 17L16 17L16 16L14 16L14 15L15 15L15 14L14 14L14 15L13 15L13 13L14 13L14 12L16 12L16 11L12 11L12 12L11 12L11 10L13 10L13 9L12 9L12 8L13 8L13 7L14 7L14 6L13 6L13 5L12 5L12 6L11 6L11 5ZM10 6L10 7L11 7L11 6ZM12 6L12 7L13 7L13 6ZM16 6L16 9L17 9L17 6ZM6 8L6 9L7 9L7 8ZM10 9L10 10L11 10L11 9ZM21 11L21 12L22 12L22 13L21 13L21 14L19 14L19 13L18 13L18 12L17 12L17 13L16 13L16 14L17 14L17 15L18 15L18 14L19 14L19 15L21 15L21 21L20 21L20 22L22 22L22 23L23 23L23 22L22 22L22 21L23 21L23 20L24 20L24 18L23 18L23 19L22 19L22 15L21 15L21 14L24 14L24 12L22 12L22 11ZM4 12L4 13L5 13L5 12ZM6 12L6 13L7 13L7 14L8 14L8 13L9 13L9 14L10 14L10 15L11 15L11 12L8 12L8 13L7 13L7 12ZM12 12L12 13L13 13L13 12ZM17 17L17 20L20 20L20 17ZM18 18L18 19L19 19L19 18ZM10 19L10 20L9 20L9 22L10 22L10 21L11 21L11 19ZM16 24L16 25L17 25L17 24ZM18 24L18 25L21 25L21 24ZM0 0L0 7L7 7L7 0ZM1 1L1 6L6 6L6 1ZM2 2L2 5L5 5L5 2ZM18 0L18 7L25 7L25 0ZM19 1L19 6L24 6L24 1ZM20 2L20 5L23 5L23 2ZM0 18L0 25L7 25L7 18ZM1 19L1 24L6 24L6 19ZM2 20L2 23L5 23L5 20Z" fill="#000000"/></g></g></svg>
