<?xml version="1.0" encoding="UTF-8"?>
<svg xmlns="http://www.w3.org/2000/svg" version="1.1" width="300" height="300" viewBox="0 0 300 300"><rect x="0" y="0" width="300" height="300" fill="#ffffff"/><g transform="scale(10.345)"><g transform="translate(0,0)"><path fill-rule="evenodd" d="M8 0L8 4L10 4L10 3L11 3L11 4L12 4L12 2L11 2L11 0ZM12 0L12 1L13 1L13 2L14 2L14 0ZM16 0L16 1L17 1L17 4L16 4L16 2L15 2L15 3L14 3L14 5L11 5L11 6L10 6L10 7L9 7L9 5L8 5L8 7L9 7L9 8L10 8L10 7L11 7L11 6L12 6L12 8L11 8L11 9L9 9L9 10L11 10L11 11L10 11L10 13L11 13L11 12L12 12L12 13L13 13L13 14L15 14L15 15L14 15L14 16L13 16L13 15L12 15L12 16L10 16L10 15L11 15L11 14L9 14L9 11L8 11L8 10L6 10L6 11L8 11L8 14L9 14L9 16L10 16L10 17L9 17L9 20L8 20L8 22L9 22L9 23L8 23L8 25L9 25L9 24L10 24L10 26L9 26L9 27L8 27L8 29L11 29L11 28L12 28L12 29L14 29L14 27L15 27L15 28L18 28L18 27L20 27L20 26L22 26L22 29L23 29L23 28L25 28L25 29L28 29L28 28L29 28L29 25L28 25L28 23L29 23L29 22L28 22L28 23L27 23L27 21L26 21L26 22L25 22L25 17L22 17L22 18L20 18L20 15L19 15L19 17L18 17L18 18L17 18L17 16L18 16L18 14L17 14L17 13L16 13L16 12L18 12L18 10L20 10L20 11L21 11L21 10L20 10L20 8L21 8L21 6L20 6L20 3L21 3L21 1L20 1L20 0ZM18 1L18 3L19 3L19 1ZM9 2L9 3L10 3L10 2ZM15 4L15 7L16 7L16 8L15 8L15 10L16 10L16 9L17 9L17 10L18 10L18 9L17 9L17 7L18 7L18 4L17 4L17 7L16 7L16 4ZM13 6L13 8L12 8L12 9L11 9L11 10L12 10L12 9L13 9L13 10L14 10L14 9L13 9L13 8L14 8L14 6ZM19 6L19 7L20 7L20 6ZM0 8L0 10L1 10L1 11L0 11L0 12L1 12L1 13L0 13L0 14L1 14L1 13L2 13L2 15L0 15L0 16L2 16L2 15L3 15L3 17L5 17L5 19L7 19L7 18L8 18L8 17L7 17L7 16L6 16L6 17L5 17L5 14L6 14L6 15L7 15L7 14L6 14L6 13L7 13L7 12L5 12L5 14L4 14L4 13L2 13L2 12L4 12L4 11L3 11L3 10L4 10L4 9L7 9L7 8L4 8L4 9L2 9L2 8ZM23 8L23 9L22 9L22 12L23 12L23 10L27 10L27 12L28 12L28 13L21 13L21 12L19 12L19 14L20 14L20 13L21 13L21 16L22 16L22 14L25 14L25 15L26 15L26 14L27 14L27 17L26 17L26 19L27 19L27 17L28 17L28 16L29 16L29 12L28 12L28 11L29 11L29 8L25 8L25 9L24 9L24 8ZM1 9L1 10L2 10L2 9ZM27 9L27 10L28 10L28 9ZM1 11L1 12L2 12L2 11ZM12 11L12 12L13 12L13 11ZM14 11L14 13L15 13L15 14L16 14L16 15L15 15L15 17L13 17L13 16L12 16L12 17L10 17L10 18L12 18L12 17L13 17L13 18L16 18L16 19L17 19L17 18L16 18L16 15L17 15L17 14L16 14L16 13L15 13L15 11ZM24 11L24 12L25 12L25 11ZM23 15L23 16L24 16L24 15ZM0 17L0 18L2 18L2 20L0 20L0 21L2 21L2 20L4 20L4 21L7 21L7 20L4 20L4 19L3 19L3 18L2 18L2 17ZM6 17L6 18L7 18L7 17ZM18 18L18 19L19 19L19 20L15 20L15 19L14 19L14 21L15 21L15 22L13 22L13 21L12 21L12 20L13 20L13 19L12 19L12 20L10 20L10 21L11 21L11 24L12 24L12 25L11 25L11 26L12 26L12 25L13 25L13 26L16 26L16 27L17 27L17 26L20 26L20 25L19 25L19 23L20 23L20 22L19 22L19 20L20 20L20 18ZM28 18L28 21L29 21L29 18ZM23 19L23 20L24 20L24 19ZM16 21L16 22L15 22L15 23L14 23L14 24L13 24L13 23L12 23L12 24L13 24L13 25L16 25L16 26L17 26L17 25L16 25L16 24L15 24L15 23L17 23L17 24L18 24L18 23L19 23L19 22L17 22L17 21ZM21 21L21 24L24 24L24 21ZM22 22L22 23L23 23L23 22ZM25 23L25 25L26 25L26 27L25 27L25 26L24 26L24 25L22 25L22 26L23 26L23 27L25 27L25 28L27 28L27 26L28 26L28 25L27 25L27 23ZM12 27L12 28L13 28L13 27ZM20 28L20 29L21 29L21 28ZM0 0L0 7L7 7L7 0ZM1 1L1 6L6 6L6 1ZM2 2L2 5L5 5L5 2ZM22 0L22 7L29 7L29 0ZM23 1L23 6L28 6L28 1ZM24 2L24 5L27 5L27 2ZM0 22L0 29L7 29L7 22ZM1 23L1 28L6 28L6 23ZM2 24L2 27L5 27L5 24Z" fill="#000000"/></g></g></svg>
