<?xml version="1.0" encoding="UTF-8"?>
<svg xmlns="http://www.w3.org/2000/svg" version="1.1" width="300" height="300" viewBox="0 0 300 300"><rect x="0" y="0" width="300" height="300" fill="#ffffff"/><g transform="scale(12)"><g transform="translate(0,0)"><path fill-rule="evenodd" d="M9 0L9 1L8 1L8 2L9 2L9 3L8 3L8 4L10 4L10 7L11 7L11 4L12 4L12 5L13 5L13 6L12 6L12 9L14 9L14 8L15 8L15 9L16 9L16 10L15 10L15 12L12 12L12 11L13 11L13 10L11 10L11 11L10 11L10 9L11 9L11 8L6 8L6 9L9 9L9 11L8 11L8 10L5 10L5 8L0 8L0 11L1 11L1 12L2 12L2 13L0 13L0 17L1 17L1 14L5 14L5 13L8 13L8 14L6 14L6 15L8 15L8 16L9 16L9 17L8 17L8 19L9 19L9 17L11 17L11 18L12 18L12 20L11 20L11 21L10 21L10 20L8 20L8 25L11 25L11 23L10 23L10 24L9 24L9 21L10 21L10 22L12 22L12 23L15 23L15 24L12 24L12 25L15 25L15 24L17 24L17 25L19 25L19 24L20 24L20 23L19 23L19 24L18 24L18 23L15 23L15 22L14 22L14 21L17 21L17 22L22 22L22 21L23 21L23 22L24 22L24 24L22 24L22 23L21 23L21 24L22 24L22 25L25 25L25 21L23 21L23 20L22 20L22 19L21 19L21 18L22 18L22 17L23 17L23 16L25 16L25 10L24 10L24 8L23 8L23 9L22 9L22 8L21 8L21 10L20 10L20 8L19 8L19 9L18 9L18 8L17 8L17 9L16 9L16 7L17 7L17 4L16 4L16 5L15 5L15 6L14 6L14 4L15 4L15 3L17 3L17 2L16 2L16 1L17 1L17 0L16 0L16 1L14 1L14 0L13 0L13 1L11 1L11 2L10 2L10 0ZM12 2L12 4L13 4L13 3L14 3L14 2ZM10 3L10 4L11 4L11 3ZM8 5L8 7L9 7L9 5ZM13 6L13 8L14 8L14 6ZM15 6L15 7L16 7L16 6ZM17 9L17 10L16 10L16 13L13 13L13 14L12 14L12 13L11 13L11 12L10 12L10 13L9 13L9 12L8 12L8 11L6 11L6 12L8 12L8 13L9 13L9 14L8 14L8 15L9 15L9 16L10 16L10 13L11 13L11 16L12 16L12 15L13 15L13 16L14 16L14 15L13 15L13 14L16 14L16 15L15 15L15 17L12 17L12 18L13 18L13 20L14 20L14 19L16 19L16 16L17 16L17 15L18 15L18 14L19 14L19 16L20 16L20 15L21 15L21 12L20 12L20 10L18 10L18 9ZM2 10L2 12L3 12L3 11L4 11L4 12L5 12L5 10ZM17 10L17 11L18 11L18 10ZM23 10L23 11L22 11L22 12L24 12L24 10ZM17 12L17 13L19 13L19 12ZM22 13L22 16L21 16L21 17L22 17L22 16L23 16L23 14L24 14L24 13ZM2 15L2 16L5 16L5 17L7 17L7 16L5 16L5 15ZM17 17L17 20L20 20L20 17ZM24 17L24 18L23 18L23 19L25 19L25 17ZM18 18L18 19L19 19L19 18ZM21 20L21 21L22 21L22 20ZM12 21L12 22L13 22L13 21ZM0 0L0 7L7 7L7 0ZM1 1L1 6L6 6L6 1ZM2 2L2 5L5 5L5 2ZM18 0L18 7L25 7L25 0ZM19 1L19 6L24 6L24 1ZM20 2L20 5L23 5L23 2ZM0 18L0 25L7 25L7 18ZM1 19L1 24L6 24L6 19ZM2 20L2 23L5 23L5 20Z" fill="#000000"/></g></g></svg>
