<?xml version="1.0" encoding="UTF-8"?>
<svg xmlns="http://www.w3.org/2000/svg" version="1.1" width="300" height="300" viewBox="0 0 300 300"><rect x="0" y="0" width="300" height="300" fill="#ffffff"/><g transform="scale(10.345)"><g transform="translate(0,0)"><path fill-rule="evenodd" d="M8 0L8 2L9 2L9 3L10 3L10 2L9 2L9 1L11 1L11 2L12 2L12 0ZM13 0L13 1L15 1L15 2L16 2L16 0ZM17 0L17 3L15 3L15 5L13 5L13 3L14 3L14 2L13 2L13 3L11 3L11 5L9 5L9 4L8 4L8 9L7 9L7 8L5 8L5 9L7 9L7 10L6 10L6 11L7 11L7 12L6 12L6 13L9 13L9 14L8 14L8 15L7 15L7 14L6 14L6 15L5 15L5 16L6 16L6 17L4 17L4 18L0 18L0 19L2 19L2 20L0 20L0 21L3 21L3 19L4 19L4 20L5 20L5 21L8 21L8 22L9 22L9 23L8 23L8 24L9 24L9 26L8 26L8 29L9 29L9 28L13 28L13 29L15 29L15 28L16 28L16 29L17 29L17 27L18 27L18 28L19 28L19 27L20 27L20 29L21 29L21 28L22 28L22 29L24 29L24 28L25 28L25 29L27 29L27 28L25 28L25 27L29 27L29 24L28 24L28 23L29 23L29 22L28 22L28 23L27 23L27 21L28 21L28 19L29 19L29 18L28 18L28 19L27 19L27 18L26 18L26 17L25 17L25 19L24 19L24 16L23 16L23 15L22 15L22 14L24 14L24 15L25 15L25 14L24 14L24 12L25 12L25 11L28 11L28 12L27 12L27 14L26 14L26 15L29 15L29 13L28 13L28 12L29 12L29 8L27 8L27 9L28 9L28 10L24 10L24 9L25 9L25 8L20 8L20 9L18 9L18 11L19 11L19 13L17 13L17 8L15 8L15 9L16 9L16 11L15 11L15 10L13 10L13 9L14 9L14 7L15 7L15 5L16 5L16 7L17 7L17 5L18 5L18 8L19 8L19 5L18 5L18 4L19 4L19 3L21 3L21 2L19 2L19 3L18 3L18 0ZM20 4L20 5L21 5L21 4ZM11 5L11 7L10 7L10 6L9 6L9 7L10 7L10 9L8 9L8 11L9 11L9 12L10 12L10 11L9 11L9 10L11 10L11 11L12 11L12 9L11 9L11 8L13 8L13 7L14 7L14 6L13 6L13 7L12 7L12 5ZM20 6L20 7L21 7L21 6ZM0 8L0 10L1 10L1 9L3 9L3 10L2 10L2 11L1 11L1 13L0 13L0 14L1 14L1 17L3 17L3 16L2 16L2 14L3 14L3 15L4 15L4 14L3 14L3 13L4 13L4 11L5 11L5 10L4 10L4 9L3 9L3 8ZM21 9L21 10L20 10L20 13L21 13L21 11L22 11L22 12L23 12L23 11L24 11L24 10L23 10L23 11L22 11L22 9ZM13 11L13 12L11 12L11 14L9 14L9 15L8 15L8 16L7 16L7 15L6 15L6 16L7 16L7 17L6 17L6 18L7 18L7 19L5 19L5 18L4 18L4 19L5 19L5 20L7 20L7 19L8 19L8 20L9 20L9 21L10 21L10 22L12 22L12 23L10 23L10 26L9 26L9 27L12 27L12 25L11 25L11 24L13 24L13 23L14 23L14 25L13 25L13 26L15 26L15 22L13 22L13 20L14 20L14 19L13 19L13 20L11 20L11 21L10 21L10 19L12 19L12 17L11 17L11 18L9 18L9 16L13 16L13 15L14 15L14 17L13 17L13 18L15 18L15 17L16 17L16 16L17 16L17 18L19 18L19 16L20 16L20 15L21 15L21 16L22 16L22 15L21 15L21 14L20 14L20 15L19 15L19 16L18 16L18 15L17 15L17 13L16 13L16 12L15 12L15 14L13 14L13 12L14 12L14 11ZM1 13L1 14L2 14L2 13ZM11 14L11 15L12 15L12 14ZM15 14L15 15L16 15L16 14ZM28 16L28 17L29 17L29 16ZM7 17L7 18L8 18L8 17ZM21 17L21 18L22 18L22 17ZM15 19L15 21L16 21L16 20L17 20L17 22L16 22L16 25L17 25L17 26L19 26L19 24L18 24L18 23L20 23L20 20L23 20L23 19L19 19L19 20L18 20L18 19ZM25 19L25 25L22 25L22 27L23 27L23 28L24 28L24 26L25 26L25 25L26 25L26 26L28 26L28 25L27 25L27 23L26 23L26 21L27 21L27 19ZM18 21L18 22L19 22L19 21ZM21 21L21 24L24 24L24 21ZM22 22L22 23L23 23L23 22ZM20 25L20 26L21 26L21 25ZM13 27L13 28L14 28L14 27ZM28 28L28 29L29 29L29 28ZM0 0L0 7L7 7L7 0ZM1 1L1 6L6 6L6 1ZM2 2L2 5L5 5L5 2ZM22 0L22 7L29 7L29 0ZM23 1L23 6L28 6L28 1ZM24 2L24 5L27 5L27 2ZM0 22L0 29L7 29L7 22ZM1 23L1 28L6 28L6 23ZM2 24L2 27L5 27L5 24Z" fill="#000000"/></g></g></svg>
