<?xml version="1.0" encoding="UTF-8"?>
<svg xmlns="http://www.w3.org/2000/svg" version="1.1" width="300" height="300" viewBox="0 0 300 300"><rect x="0" y="0" width="300" height="300" fill="#ffffff"/><g transform="scale(10.345)"><g transform="translate(0,0)"><path fill-rule="evenodd" d="M8 0L8 1L9 1L9 2L8 2L8 5L9 5L9 4L11 4L11 5L10 5L10 10L9 10L9 12L8 12L8 11L7 11L7 10L8 10L8 9L9 9L9 8L8 8L8 9L7 9L7 8L6 8L6 9L7 9L7 10L5 10L5 9L4 9L4 8L0 8L0 9L2 9L2 11L1 11L1 12L0 12L0 17L1 17L1 18L0 18L0 19L1 19L1 18L2 18L2 20L1 20L1 21L5 21L5 20L4 20L4 18L2 18L2 17L8 17L8 18L9 18L9 16L5 16L5 15L4 15L4 13L5 13L5 14L6 14L6 15L7 15L7 14L6 14L6 13L8 13L8 14L10 14L10 13L11 13L11 16L10 16L10 18L11 18L11 16L12 16L12 17L13 17L13 16L12 16L12 14L13 14L13 15L14 15L14 18L13 18L13 21L16 21L16 24L15 24L15 22L14 22L14 23L11 23L11 26L12 26L12 28L10 28L10 22L9 22L9 21L11 21L11 20L12 20L12 19L11 19L11 20L10 20L10 19L8 19L8 20L6 20L6 21L8 21L8 22L9 22L9 25L8 25L8 29L9 29L9 28L10 28L10 29L12 29L12 28L14 28L14 27L15 27L15 26L17 26L17 27L16 27L16 28L17 28L17 27L18 27L18 29L21 29L21 26L22 26L22 25L23 25L23 27L24 27L24 25L25 25L25 27L26 27L26 26L27 26L27 24L26 24L26 23L28 23L28 24L29 24L29 23L28 23L28 21L27 21L27 20L28 20L28 19L26 19L26 21L27 21L27 22L26 22L26 23L25 23L25 19L24 19L24 20L21 20L21 19L22 19L22 18L21 18L21 16L23 16L23 18L24 18L24 17L25 17L25 18L26 18L26 16L25 16L25 15L24 15L24 14L23 14L23 13L22 13L22 12L25 12L25 13L26 13L26 14L28 14L28 15L27 15L27 17L28 17L28 18L29 18L29 17L28 17L28 15L29 15L29 12L26 12L26 11L27 11L27 10L29 10L29 8L28 8L28 9L27 9L27 8L24 8L24 9L22 9L22 8L21 8L21 9L18 9L18 8L20 8L20 7L21 7L21 6L20 6L20 3L19 3L19 2L18 2L18 1L20 1L20 2L21 2L21 0L18 0L18 1L17 1L17 2L15 2L15 3L14 3L14 5L13 5L13 3L12 3L12 4L11 4L11 2L14 2L14 0L12 0L12 1L11 1L11 0L10 0L10 1L9 1L9 0ZM15 0L15 1L16 1L16 0ZM17 2L17 3L18 3L18 4L17 4L17 5L14 5L14 6L13 6L13 5L12 5L12 6L11 6L11 8L12 8L12 6L13 6L13 8L14 8L14 9L15 9L15 10L14 10L14 11L11 11L11 13L12 13L12 12L13 12L13 14L14 14L14 15L15 15L15 16L16 16L16 18L17 18L17 19L18 19L18 18L19 18L19 20L20 20L20 17L18 17L18 16L19 16L19 15L17 15L17 16L16 16L16 14L14 14L14 12L15 12L15 13L17 13L17 12L18 12L18 14L19 14L19 13L20 13L20 15L23 15L23 16L24 16L24 15L23 15L23 14L21 14L21 10L18 10L18 9L17 9L17 10L18 10L18 11L17 11L17 12L15 12L15 11L16 11L16 8L17 8L17 7L18 7L18 6L19 6L19 7L20 7L20 6L19 6L19 5L18 5L18 4L19 4L19 3L18 3L18 2ZM8 6L8 7L9 7L9 6ZM14 6L14 7L15 7L15 6ZM16 6L16 7L17 7L17 6ZM11 9L11 10L12 10L12 9ZM25 9L25 10L22 10L22 11L26 11L26 10L27 10L27 9ZM3 11L3 13L4 13L4 12L5 12L5 13L6 13L6 12L7 12L7 11L6 11L6 12L5 12L5 11ZM19 11L19 12L20 12L20 11ZM1 12L1 13L2 13L2 12ZM1 14L1 16L2 16L2 15L3 15L3 14ZM6 18L6 19L7 19L7 18ZM19 21L19 22L20 22L20 21ZM21 21L21 24L24 24L24 21ZM17 22L17 24L16 24L16 25L17 25L17 26L18 26L18 27L19 27L19 28L20 28L20 27L19 27L19 26L20 26L20 23L18 23L18 22ZM22 22L22 23L23 23L23 22ZM12 24L12 26L13 26L13 27L14 27L14 26L15 26L15 24ZM17 24L17 25L18 25L18 24ZM13 25L13 26L14 26L14 25ZM28 25L28 27L27 27L27 28L26 28L26 29L28 29L28 27L29 27L29 25ZM23 28L23 29L25 29L25 28ZM0 0L0 7L7 7L7 0ZM1 1L1 6L6 6L6 1ZM2 2L2 5L5 5L5 2ZM22 0L22 7L29 7L29 0ZM23 1L23 6L28 6L28 1ZM24 2L24 5L27 5L27 2ZM0 22L0 29L7 29L7 22ZM1 23L1 28L6 28L6 23ZM2 24L2 27L5 27L5 24Z" fill="#000000"/></g></g></svg>
