<?xml version="1.0" encoding="UTF-8"?>
<svg xmlns="http://www.w3.org/2000/svg" version="1.1" width="300" height="300" viewBox="0 0 300 300"><rect x="0" y="0" width="300" height="300" fill="#ffffff"/><g transform="scale(12)"><g transform="translate(0,0)"><path fill-rule="evenodd" d="M8 0L8 2L9 2L9 3L10 3L10 2L9 2L9 1L11 1L11 2L12 2L12 0ZM13 0L13 1L16 1L16 0ZM13 2L13 3L14 3L14 4L12 4L12 3L11 3L11 5L9 5L9 4L8 4L8 9L7 9L7 8L5 8L5 9L7 9L7 10L4 10L4 9L3 9L3 8L0 8L0 9L1 9L1 11L0 11L0 12L1 12L1 11L2 11L2 12L3 12L3 11L5 11L5 12L4 12L4 13L2 13L2 14L0 14L0 15L2 15L2 16L0 16L0 17L2 17L2 16L3 16L3 17L5 17L5 16L4 16L4 15L5 15L5 12L6 12L6 13L7 13L7 14L6 14L6 15L7 15L7 16L6 16L6 17L7 17L7 16L8 16L8 15L9 15L9 16L10 16L10 17L8 17L8 18L9 18L9 19L8 19L8 20L10 20L10 21L9 21L9 22L8 22L8 25L9 25L9 24L11 24L11 23L14 23L14 22L16 22L16 25L17 25L17 24L18 24L18 25L19 25L19 23L20 23L20 25L21 25L21 23L22 23L22 21L21 21L21 16L20 16L20 15L23 15L23 17L24 17L24 15L25 15L25 14L24 14L24 15L23 15L23 14L19 14L19 13L22 13L22 12L21 12L21 11L22 11L22 10L23 10L23 11L25 11L25 8L23 8L23 9L22 9L22 10L21 10L21 11L20 11L20 9L21 9L21 8L17 8L17 9L16 9L16 8L15 8L15 9L16 9L16 10L14 10L14 8L13 8L13 6L14 6L14 7L15 7L15 5L16 5L16 4L17 4L17 2L16 2L16 4L15 4L15 3L14 3L14 2ZM14 4L14 5L15 5L15 4ZM11 5L11 7L10 7L10 6L9 6L9 7L10 7L10 9L9 9L9 10L12 10L12 11L11 11L11 12L14 12L14 14L13 14L13 15L12 15L12 17L10 17L10 18L12 18L12 19L13 19L13 20L14 20L14 21L13 21L13 22L14 22L14 21L15 21L15 20L16 20L16 18L15 18L15 17L16 17L16 16L17 16L17 15L16 15L16 16L15 16L15 12L17 12L17 13L16 13L16 14L18 14L18 11L19 11L19 12L20 12L20 11L19 11L19 9L17 9L17 11L15 11L15 12L14 12L14 11L13 11L13 10L12 10L12 9L13 9L13 8L12 8L12 6L13 6L13 5ZM16 6L16 7L17 7L17 6ZM11 8L11 9L12 9L12 8ZM6 11L6 12L7 12L7 13L9 13L9 14L10 14L10 13L9 13L9 12L10 12L10 11L8 11L8 12L7 12L7 11ZM24 12L24 13L25 13L25 12ZM11 13L11 14L12 14L12 13ZM2 14L2 15L4 15L4 14ZM7 14L7 15L8 15L8 14ZM10 15L10 16L11 16L11 15ZM18 15L18 16L19 16L19 15ZM14 16L14 17L15 17L15 16ZM12 17L12 18L13 18L13 19L15 19L15 18L13 18L13 17ZM17 17L17 20L20 20L20 17ZM18 18L18 19L19 19L19 18ZM22 18L22 19L23 19L23 18ZM24 18L24 19L25 19L25 18ZM10 19L10 20L11 20L11 22L12 22L12 20L11 20L11 19ZM16 21L16 22L17 22L17 21ZM18 21L18 23L19 23L19 21ZM23 21L23 23L25 23L25 22L24 22L24 21ZM12 24L12 25L14 25L14 24ZM24 24L24 25L25 25L25 24ZM0 0L0 7L7 7L7 0ZM1 1L1 6L6 6L6 1ZM2 2L2 5L5 5L5 2ZM18 0L18 7L25 7L25 0ZM19 1L19 6L24 6L24 1ZM20 2L20 5L23 5L23 2ZM0 18L0 25L7 25L7 18ZM1 19L1 24L6 24L6 19ZM2 20L2 23L5 23L5 20Z" fill="#000000"/></g></g></svg>
