<?xml version="1.0" encoding="UTF-8"?>
<svg xmlns="http://www.w3.org/2000/svg" version="1.1" width="300" height="300" viewBox="0 0 300 300"><rect x="0" y="0" width="300" height="300" fill="#ffffff"/><g transform="scale(12)"><g transform="translate(0,0)"><path fill-rule="evenodd" d="M8 0L8 4L9 4L9 3L10 3L10 2L11 2L11 3L12 3L12 2L11 2L11 1L12 1L12 0L11 0L11 1L10 1L10 0ZM15 0L15 1L13 1L13 2L14 2L14 3L13 3L13 5L12 5L12 4L10 4L10 5L8 5L8 7L9 7L9 9L11 9L11 12L12 12L12 13L11 13L11 15L10 15L10 13L9 13L9 12L10 12L10 10L9 10L9 11L8 11L8 9L7 9L7 8L4 8L4 10L3 10L3 9L2 9L2 8L0 8L0 10L1 10L1 11L0 11L0 12L1 12L1 13L0 13L0 14L1 14L1 13L2 13L2 12L3 12L3 13L5 13L5 14L6 14L6 15L4 15L4 16L3 16L3 15L2 15L2 16L0 16L0 17L2 17L2 16L3 16L3 17L4 17L4 16L6 16L6 17L8 17L8 18L10 18L10 19L8 19L8 21L9 21L9 22L10 22L10 23L8 23L8 25L11 25L11 24L10 24L10 23L12 23L12 24L13 24L13 22L12 22L12 21L13 21L13 20L12 20L12 19L14 19L14 20L16 20L16 21L14 21L14 22L16 22L16 23L15 23L15 25L16 25L16 23L18 23L18 24L17 24L17 25L19 25L19 21L23 21L23 20L24 20L24 21L25 21L25 20L24 20L24 19L23 19L23 18L22 18L22 19L21 19L21 17L23 17L23 14L21 14L21 12L22 12L22 13L24 13L24 14L25 14L25 12L24 12L24 9L25 9L25 8L21 8L21 9L20 9L20 8L19 8L19 9L18 9L18 11L17 11L17 9L14 9L14 10L13 10L13 11L15 11L15 12L17 12L17 13L19 13L19 14L20 14L20 15L19 15L19 16L17 16L17 15L18 15L18 14L16 14L16 13L13 13L13 12L12 12L12 9L13 9L13 6L14 6L14 8L16 8L16 7L17 7L17 6L16 6L16 7L15 7L15 5L17 5L17 2L15 2L15 1L17 1L17 0ZM9 1L9 2L10 2L10 1ZM15 3L15 4L16 4L16 3ZM10 5L10 6L9 6L9 7L10 7L10 8L12 8L12 5ZM10 6L10 7L11 7L11 6ZM1 9L1 10L2 10L2 9ZM6 9L6 10L7 10L7 9ZM19 9L19 12L20 12L20 9ZM21 9L21 10L22 10L22 11L23 11L23 10L22 10L22 9ZM6 11L6 12L5 12L5 13L6 13L6 14L7 14L7 13L8 13L8 14L9 14L9 13L8 13L8 12L7 12L7 11ZM6 12L6 13L7 13L7 12ZM12 14L12 15L11 15L11 17L10 17L10 18L11 18L11 17L12 17L12 18L13 18L13 17L14 17L14 19L16 19L16 18L15 18L15 16L16 16L16 15L15 15L15 16L14 16L14 14ZM6 15L6 16L7 16L7 15ZM20 15L20 16L21 16L21 15ZM17 17L17 20L20 20L20 17ZM24 17L24 18L25 18L25 17ZM18 18L18 19L19 19L19 18ZM9 20L9 21L12 21L12 20ZM16 21L16 22L17 22L17 21ZM22 22L22 23L21 23L21 24L20 24L20 25L25 25L25 24L24 24L24 22ZM0 0L0 7L7 7L7 0ZM1 1L1 6L6 6L6 1ZM2 2L2 5L5 5L5 2ZM18 0L18 7L25 7L25 0ZM19 1L19 6L24 6L24 1ZM20 2L20 5L23 5L23 2ZM0 18L0 25L7 25L7 18ZM1 19L1 24L6 24L6 19ZM2 20L2 23L5 23L5 20Z" fill="#000000"/></g></g></svg>
