<?xml version="1.0" encoding="UTF-8"?>
<svg xmlns="http://www.w3.org/2000/svg" version="1.1" width="300" height="300" viewBox="0 0 300 300"><rect x="0" y="0" width="300" height="300" fill="#ffffff"/><g transform="scale(12)"><g transform="translate(0,0)"><path fill-rule="evenodd" d="M8 0L8 4L9 4L9 5L8 5L8 7L9 7L9 6L10 6L10 9L11 9L11 8L12 8L12 9L14 9L14 8L17 8L17 3L16 3L16 7L15 7L15 3L14 3L14 4L13 4L13 1L11 1L11 2L12 2L12 5L13 5L13 6L12 6L12 7L11 7L11 3L10 3L10 2L9 2L9 0ZM14 0L14 2L15 2L15 0ZM16 0L16 1L17 1L17 0ZM13 6L13 7L12 7L12 8L14 8L14 6ZM0 8L0 10L1 10L1 9L2 9L2 8ZM4 8L4 9L5 9L5 10L2 10L2 12L1 12L1 11L0 11L0 14L3 14L3 15L4 15L4 16L0 16L0 17L4 17L4 16L5 16L5 17L7 17L7 16L8 16L8 15L9 15L9 17L8 17L8 18L9 18L9 19L8 19L8 21L9 21L9 23L8 23L8 25L9 25L9 24L10 24L10 22L11 22L11 25L14 25L14 24L12 24L12 22L11 22L11 21L10 21L10 19L11 19L11 20L12 20L12 21L13 21L13 23L16 23L16 22L17 22L17 23L19 23L19 24L17 24L17 25L25 25L25 24L24 24L24 22L25 22L25 21L23 21L23 20L25 20L25 19L23 19L23 18L22 18L22 19L21 19L21 17L23 17L23 14L21 14L21 12L22 12L22 13L24 13L24 14L25 14L25 12L24 12L24 9L25 9L25 8L21 8L21 9L20 9L20 8L19 8L19 9L20 9L20 11L19 11L19 12L17 12L17 11L18 11L18 10L17 10L17 9L16 9L16 10L15 10L15 11L14 11L14 13L13 13L13 11L12 11L12 12L11 12L11 13L10 13L10 14L11 14L11 15L9 15L9 13L8 13L8 12L10 12L10 11L11 11L11 10L9 10L9 9L7 9L7 8ZM6 9L6 10L5 10L5 11L6 11L6 12L8 12L8 11L9 11L9 10L7 10L7 9ZM21 9L21 10L22 10L22 11L23 11L23 10L22 10L22 9ZM6 10L6 11L7 11L7 10ZM16 10L16 11L15 11L15 14L12 14L12 13L11 13L11 14L12 14L12 15L13 15L13 16L14 16L14 17L15 17L15 18L13 18L13 17L12 17L12 16L11 16L11 17L10 17L10 18L13 18L13 19L12 19L12 20L14 20L14 22L16 22L16 20L14 20L14 19L16 19L16 16L15 16L15 14L16 14L16 11L17 11L17 10ZM3 11L3 12L2 12L2 13L3 13L3 12L4 12L4 11ZM4 13L4 15L5 15L5 16L7 16L7 15L5 15L5 13ZM6 13L6 14L8 14L8 13ZM17 13L17 16L20 16L20 13ZM18 14L18 15L19 15L19 14ZM17 17L17 20L20 20L20 17ZM24 17L24 18L25 18L25 17ZM18 18L18 19L19 19L19 18ZM22 21L22 22L19 22L19 23L23 23L23 21ZM0 0L0 7L7 7L7 0ZM1 1L1 6L6 6L6 1ZM2 2L2 5L5 5L5 2ZM18 0L18 7L25 7L25 0ZM19 1L19 6L24 6L24 1ZM20 2L20 5L23 5L23 2ZM0 18L0 25L7 25L7 18ZM1 19L1 24L6 24L6 19ZM2 20L2 23L5 23L5 20Z" fill="#000000"/></g></g></svg>
