<?xml version="1.0" encoding="UTF-8"?>
<svg xmlns="http://www.w3.org/2000/svg" version="1.1" width="300" height="300" viewBox="0 0 300 300"><rect x="0" y="0" width="300" height="300" fill="#ffffff"/><g transform="scale(12)"><g transform="translate(0,0)"><path fill-rule="evenodd" d="M8 0L8 1L9 1L9 2L10 2L10 3L11 3L11 1L12 1L12 2L13 2L13 5L14 5L14 7L13 7L13 6L12 6L12 5L10 5L10 4L9 4L9 5L10 5L10 8L9 8L9 6L8 6L8 8L9 8L9 9L7 9L7 8L6 8L6 9L7 9L7 10L6 10L6 11L7 11L7 10L8 10L8 11L9 11L9 12L6 12L6 13L5 13L5 12L3 12L3 11L2 11L2 13L5 13L5 15L4 15L4 14L1 14L1 13L0 13L0 17L1 17L1 15L2 15L2 16L3 16L3 17L5 17L5 15L7 15L7 16L6 16L6 17L8 17L8 18L9 18L9 20L8 20L8 22L9 22L9 21L10 21L10 22L11 22L11 24L10 24L10 25L11 25L11 24L12 24L12 25L13 25L13 23L14 23L14 24L15 24L15 23L14 23L14 22L17 22L17 23L18 23L18 22L20 22L20 23L19 23L19 24L18 24L18 25L20 25L20 23L21 23L21 22L23 22L23 23L22 23L22 24L24 24L24 25L25 25L25 21L24 21L24 20L25 20L25 17L24 17L24 16L25 16L25 10L24 10L24 9L25 9L25 8L24 8L24 9L23 9L23 10L21 10L21 9L19 9L19 8L18 8L18 10L21 10L21 11L20 11L20 12L18 12L18 11L16 11L16 8L17 8L17 1L16 1L16 2L15 2L15 3L16 3L16 7L15 7L15 4L14 4L14 1L15 1L15 0L14 0L14 1L13 1L13 0L10 0L10 1L9 1L9 0ZM11 6L11 9L10 9L10 10L9 10L9 11L10 11L10 10L11 10L11 9L12 9L12 11L11 11L11 12L10 12L10 14L9 14L9 13L6 13L6 14L7 14L7 15L8 15L8 17L10 17L10 19L11 19L11 20L10 20L10 21L12 21L12 22L14 22L14 20L13 20L13 21L12 21L12 19L13 19L13 18L15 18L15 20L16 20L16 18L15 18L15 17L16 17L16 16L15 16L15 14L14 14L14 13L15 13L15 12L16 12L16 11L15 11L15 12L14 12L14 10L13 10L13 9L14 9L14 8L15 8L15 7L14 7L14 8L13 8L13 9L12 9L12 6ZM0 8L0 9L2 9L2 10L3 10L3 9L5 9L5 8L3 8L3 9L2 9L2 8ZM0 10L0 12L1 12L1 10ZM4 10L4 11L5 11L5 10ZM21 11L21 12L22 12L22 13L21 13L21 14L19 14L19 13L18 13L18 12L17 12L17 13L16 13L16 14L17 14L17 15L18 15L18 14L19 14L19 16L20 16L20 15L21 15L21 21L20 21L20 22L21 22L21 21L23 21L23 19L24 19L24 18L23 18L23 19L22 19L22 15L21 15L21 14L24 14L24 12L22 12L22 11ZM11 12L11 14L10 14L10 15L9 15L9 16L10 16L10 15L11 15L11 14L12 14L12 12ZM12 15L12 16L13 16L13 17L15 17L15 16L13 16L13 15ZM17 17L17 20L20 20L20 17ZM11 18L11 19L12 19L12 18ZM18 18L18 19L19 19L19 18ZM8 23L8 25L9 25L9 23ZM16 24L16 25L17 25L17 24ZM0 0L0 7L7 7L7 0ZM1 1L1 6L6 6L6 1ZM2 2L2 5L5 5L5 2ZM18 0L18 7L25 7L25 0ZM19 1L19 6L24 6L24 1ZM20 2L20 5L23 5L23 2ZM0 18L0 25L7 25L7 18ZM1 19L1 24L6 24L6 19ZM2 20L2 23L5 23L5 20Z" fill="#000000"/></g></g></svg>
