<?xml version="1.0" encoding="UTF-8"?>
<svg xmlns="http://www.w3.org/2000/svg" version="1.1" width="300" height="300" viewBox="0 0 300 300"><rect x="0" y="0" width="300" height="300" fill="#ffffff"/><g transform="scale(12)"><g transform="translate(0,0)"><path fill-rule="evenodd" d="M8 0L8 2L10 2L10 4L8 4L8 9L7 9L7 8L5 8L5 12L3 12L3 11L4 11L4 9L3 9L3 8L0 8L0 10L1 10L1 9L3 9L3 11L2 11L2 12L0 12L0 13L1 13L1 14L0 14L0 15L2 15L2 16L0 16L0 17L3 17L3 16L4 16L4 17L5 17L5 15L7 15L7 14L10 14L10 11L8 11L8 12L6 12L6 11L7 11L7 10L11 10L11 11L12 11L12 10L11 10L11 8L13 8L13 9L14 9L14 10L13 10L13 11L14 11L14 10L15 10L15 11L17 11L17 9L19 9L19 11L18 11L18 14L16 14L16 13L17 13L17 12L15 12L15 14L14 14L14 12L11 12L11 13L12 13L12 15L8 15L8 16L6 16L6 17L8 17L8 18L9 18L9 19L8 19L8 20L9 20L9 21L10 21L10 22L8 22L8 25L9 25L9 24L10 24L10 25L14 25L14 24L10 24L10 22L11 22L11 23L12 23L12 22L13 22L13 21L14 21L14 23L15 23L15 22L16 22L16 25L17 25L17 24L18 24L18 25L19 25L19 24L20 24L20 25L21 25L21 24L20 24L20 23L22 23L22 21L21 21L21 16L18 16L18 15L19 15L19 13L22 13L22 12L21 12L21 11L22 11L22 10L23 10L23 11L25 11L25 8L23 8L23 9L22 9L22 10L21 10L21 11L20 11L20 9L21 9L21 8L17 8L17 5L16 5L16 2L17 2L17 1L16 1L16 0L11 0L11 1L9 1L9 0ZM11 1L11 2L12 2L12 1ZM13 1L13 2L14 2L14 4L15 4L15 2L16 2L16 1ZM11 3L11 4L12 4L12 6L11 6L11 5L9 5L9 8L10 8L10 6L11 6L11 7L12 7L12 6L13 6L13 8L14 8L14 9L15 9L15 10L16 10L16 9L17 9L17 8L16 8L16 5L13 5L13 3ZM14 6L14 7L15 7L15 6ZM15 8L15 9L16 9L16 8ZM6 9L6 10L7 10L7 9ZM19 11L19 12L20 12L20 11ZM5 12L5 13L4 13L4 14L3 14L3 15L5 15L5 14L7 14L7 13L6 13L6 12ZM8 12L8 13L9 13L9 12ZM24 12L24 13L25 13L25 12ZM21 14L21 15L23 15L23 17L24 17L24 15L25 15L25 14L24 14L24 15L23 15L23 14ZM13 15L13 16L14 16L14 18L13 18L13 17L12 17L12 16L11 16L11 18L13 18L13 20L12 20L12 19L11 19L11 20L10 20L10 19L9 19L9 20L10 20L10 21L11 21L11 22L12 22L12 21L13 21L13 20L14 20L14 21L15 21L15 20L16 20L16 18L15 18L15 17L16 17L16 16L17 16L17 15L16 15L16 16L15 16L15 15ZM9 17L9 18L10 18L10 17ZM17 17L17 20L20 20L20 17ZM18 18L18 19L19 19L19 18ZM22 18L22 19L23 19L23 23L25 23L25 22L24 22L24 19L25 19L25 18L24 18L24 19L23 19L23 18ZM14 19L14 20L15 20L15 19ZM11 20L11 21L12 21L12 20ZM16 21L16 22L17 22L17 21ZM18 21L18 23L19 23L19 21ZM24 24L24 25L25 25L25 24ZM0 0L0 7L7 7L7 0ZM1 1L1 6L6 6L6 1ZM2 2L2 5L5 5L5 2ZM18 0L18 7L25 7L25 0ZM19 1L19 6L24 6L24 1ZM20 2L20 5L23 5L23 2ZM0 18L0 25L7 25L7 18ZM1 19L1 24L6 24L6 19ZM2 20L2 23L5 23L5 20Z" fill="#000000"/></g></g></svg>
