<?xml version="1.0" encoding="UTF-8"?>
<svg xmlns="http://www.w3.org/2000/svg" version="1.1" width="300" height="300" viewBox="0 0 300 300"><rect x="0" y="0" width="300" height="300" fill="#ffffff"/><g transform="scale(12)"><g transform="translate(0,0)"><path fill-rule="evenodd" d="M12 0L12 1L13 1L13 2L12 2L12 3L8 3L8 4L9 4L9 5L8 5L8 7L9 7L9 8L6 8L6 9L5 9L5 8L0 8L0 9L3 9L3 13L4 13L4 14L2 14L2 10L1 10L1 13L0 13L0 17L1 17L1 14L2 14L2 15L3 15L3 16L2 16L2 17L4 17L4 16L5 16L5 17L7 17L7 16L8 16L8 19L10 19L10 20L8 20L8 25L10 25L10 24L11 24L11 22L12 22L12 25L14 25L14 24L17 24L17 25L19 25L19 24L18 24L18 23L14 23L14 24L13 24L13 22L12 22L12 21L11 21L11 19L10 19L10 18L12 18L12 20L13 20L13 21L17 21L17 22L22 22L22 23L21 23L21 24L22 24L22 25L25 25L25 21L24 21L24 20L25 20L25 17L24 17L24 18L23 18L23 20L22 20L22 19L21 19L21 18L22 18L22 17L23 17L23 16L25 16L25 10L24 10L24 8L23 8L23 9L22 9L22 8L21 8L21 10L20 10L20 8L19 8L19 9L18 9L18 8L17 8L17 4L16 4L16 2L17 2L17 0L16 0L16 1L14 1L14 0ZM8 1L8 2L9 2L9 1ZM10 1L10 2L11 2L11 1ZM13 2L13 3L15 3L15 2ZM10 4L10 6L9 6L9 7L10 7L10 6L11 6L11 7L12 7L12 6L13 6L13 8L15 8L15 10L16 10L16 13L15 13L15 14L14 14L14 13L13 13L13 12L14 12L14 9L12 9L12 10L11 10L11 11L10 11L10 9L11 9L11 8L10 8L10 9L9 9L9 11L8 11L8 12L7 12L7 11L5 11L5 10L4 10L4 11L5 11L5 13L6 13L6 14L7 14L7 15L5 15L5 14L4 14L4 15L5 15L5 16L7 16L7 15L9 15L9 17L10 17L10 16L11 16L11 17L12 17L12 18L13 18L13 20L15 20L15 19L16 19L16 16L17 16L17 15L18 15L18 14L19 14L19 16L20 16L20 15L21 15L21 12L20 12L20 10L18 10L18 9L17 9L17 8L15 8L15 7L16 7L16 6L15 6L15 5L16 5L16 4L14 4L14 6L13 6L13 4L12 4L12 5L11 5L11 4ZM14 6L14 7L15 7L15 6ZM6 9L6 10L8 10L8 9ZM16 9L16 10L17 10L17 11L18 11L18 10L17 10L17 9ZM12 10L12 11L13 11L13 10ZM23 10L23 11L22 11L22 12L24 12L24 10ZM6 12L6 13L7 13L7 12ZM9 12L9 13L8 13L8 14L9 14L9 15L11 15L11 14L12 14L12 13L11 13L11 12ZM17 12L17 13L19 13L19 12ZM9 13L9 14L11 14L11 13ZM22 13L22 16L21 16L21 17L22 17L22 16L23 16L23 14L24 14L24 13ZM13 14L13 15L12 15L12 17L13 17L13 18L14 18L14 17L15 17L15 15L16 15L16 14L15 14L15 15L14 15L14 14ZM13 15L13 16L14 16L14 15ZM17 17L17 20L20 20L20 17ZM18 18L18 19L19 19L19 18ZM21 20L21 21L22 21L22 22L23 22L23 23L22 23L22 24L24 24L24 22L23 22L23 21L22 21L22 20ZM9 21L9 22L10 22L10 21ZM9 23L9 24L10 24L10 23ZM0 0L0 7L7 7L7 0ZM1 1L1 6L6 6L6 1ZM2 2L2 5L5 5L5 2ZM18 0L18 7L25 7L25 0ZM19 1L19 6L24 6L24 1ZM20 2L20 5L23 5L23 2ZM0 18L0 25L7 25L7 18ZM1 19L1 24L6 24L6 19ZM2 20L2 23L5 23L5 20Z" fill="#000000"/></g></g></svg>
