<?xml version="1.0" encoding="UTF-8"?>
<svg xmlns="http://www.w3.org/2000/svg" version="1.1" width="300" height="300" viewBox="0 0 300 300"><rect x="0" y="0" width="300" height="300" fill="#ffffff"/><g transform="scale(12)"><g transform="translate(0,0)"><path fill-rule="evenodd" d="M8 0L8 2L9 2L9 3L10 3L10 5L12 5L12 7L13 7L13 5L14 5L14 8L11 8L11 9L12 9L12 10L10 10L10 8L9 8L9 4L8 4L8 9L7 9L7 8L5 8L5 9L3 9L3 8L0 8L0 10L1 10L1 12L0 12L0 13L1 13L1 12L2 12L2 11L4 11L4 10L5 10L5 11L7 11L7 12L6 12L6 13L4 13L4 12L3 12L3 13L2 13L2 14L0 14L0 15L3 15L3 17L7 17L7 16L6 16L6 15L9 15L9 14L10 14L10 15L12 15L12 14L13 14L13 15L15 15L15 16L16 16L16 17L14 17L14 16L11 16L11 17L12 17L12 18L9 18L9 17L10 17L10 16L8 16L8 18L9 18L9 19L8 19L8 20L9 20L9 22L8 22L8 25L12 25L12 23L14 23L14 24L13 24L13 25L14 25L14 24L15 24L15 23L14 23L14 22L16 22L16 25L17 25L17 24L18 24L18 25L19 25L19 23L21 23L21 16L20 16L20 15L23 15L23 17L24 17L24 15L25 15L25 14L24 14L24 15L23 15L23 14L19 14L19 13L22 13L22 12L21 12L21 11L22 11L22 10L23 10L23 11L25 11L25 8L23 8L23 9L22 9L22 10L21 10L21 11L20 11L20 9L21 9L21 8L17 8L17 5L16 5L16 4L15 4L15 3L17 3L17 1L16 1L16 0L15 0L15 1L16 1L16 2L15 2L15 3L14 3L14 2L13 2L13 3L14 3L14 4L13 4L13 5L12 5L12 3L10 3L10 0ZM11 0L11 1L12 1L12 0ZM14 4L14 5L15 5L15 8L14 8L14 9L13 9L13 12L12 12L12 13L10 13L10 14L12 14L12 13L13 13L13 14L15 14L15 13L14 13L14 12L17 12L17 13L16 13L16 14L18 14L18 11L19 11L19 12L20 12L20 11L19 11L19 9L17 9L17 11L14 11L14 9L15 9L15 10L16 10L16 5L15 5L15 4ZM10 6L10 7L11 7L11 6ZM1 9L1 10L2 10L2 9ZM5 9L5 10L7 10L7 9ZM9 11L9 12L7 12L7 13L6 13L6 14L7 14L7 13L9 13L9 12L10 12L10 11ZM24 12L24 13L25 13L25 12ZM3 13L3 15L4 15L4 13ZM16 15L16 16L17 16L17 15ZM18 15L18 16L19 16L19 15ZM0 16L0 17L2 17L2 16ZM13 17L13 18L12 18L12 19L11 19L11 22L12 22L12 21L13 21L13 22L14 22L14 21L15 21L15 20L16 20L16 18L15 18L15 20L14 20L14 17ZM17 17L17 20L20 20L20 17ZM18 18L18 19L19 19L19 18ZM22 18L22 19L23 19L23 18ZM24 18L24 19L25 19L25 18ZM9 19L9 20L10 20L10 19ZM13 20L13 21L14 21L14 20ZM23 20L23 21L22 21L22 23L25 23L25 20ZM16 21L16 22L17 22L17 21ZM18 21L18 23L19 23L19 21ZM23 21L23 22L24 22L24 21ZM20 24L20 25L21 25L21 24ZM24 24L24 25L25 25L25 24ZM0 0L0 7L7 7L7 0ZM1 1L1 6L6 6L6 1ZM2 2L2 5L5 5L5 2ZM18 0L18 7L25 7L25 0ZM19 1L19 6L24 6L24 1ZM20 2L20 5L23 5L23 2ZM0 18L0 25L7 25L7 18ZM1 19L1 24L6 24L6 19ZM2 20L2 23L5 23L5 20Z" fill="#000000"/></g></g></svg>
