<?xml version="1.0" encoding="UTF-8"?>
<svg xmlns="http://www.w3.org/2000/svg" version="1.1" width="300" height="300" viewBox="0 0 300 300"><rect x="0" y="0" width="300" height="300" fill="#ffffff"/><g transform="scale(12)"><g transform="translate(0,0)"><path fill-rule="evenodd" d="M8 0L8 2L10 2L10 4L8 4L8 11L7 11L7 10L6 10L6 9L7 9L7 8L5 8L5 10L4 10L4 9L3 9L3 8L0 8L0 10L1 10L1 9L3 9L3 10L2 10L2 12L1 12L1 13L2 13L2 12L3 12L3 10L4 10L4 13L8 13L8 14L6 14L6 15L5 15L5 14L4 14L4 15L3 15L3 14L0 14L0 15L2 15L2 16L0 16L0 17L2 17L2 16L4 16L4 17L8 17L8 18L9 18L9 15L8 15L8 14L9 14L9 13L10 13L10 11L9 11L9 10L11 10L11 11L12 11L12 10L13 10L13 9L14 9L14 8L15 8L15 9L16 9L16 10L14 10L14 11L17 11L17 9L19 9L19 11L18 11L18 14L16 14L16 13L17 13L17 12L15 12L15 14L13 14L13 13L14 13L14 12L11 12L11 13L12 13L12 14L10 14L10 15L11 15L11 17L10 17L10 19L8 19L8 20L9 20L9 21L10 21L10 22L11 22L11 23L9 23L9 22L8 22L8 25L10 25L10 24L11 24L11 25L12 25L12 24L11 24L11 23L15 23L15 22L16 22L16 25L17 25L17 24L18 24L18 25L20 25L20 24L19 24L19 23L22 23L22 21L21 21L21 16L18 16L18 15L20 15L20 14L19 14L19 13L22 13L22 12L21 12L21 11L22 11L22 10L23 10L23 11L25 11L25 8L23 8L23 9L22 9L22 10L21 10L21 11L20 11L20 9L21 9L21 8L17 8L17 6L16 6L16 8L15 8L15 5L16 5L16 4L17 4L17 2L16 2L16 4L15 4L15 3L14 3L14 2L13 2L13 0L10 0L10 1L9 1L9 0ZM14 0L14 1L16 1L16 0ZM11 1L11 2L12 2L12 3L11 3L11 4L12 4L12 5L9 5L9 8L10 8L10 6L11 6L11 7L12 7L12 9L11 9L11 10L12 10L12 9L13 9L13 8L14 8L14 3L13 3L13 2L12 2L12 1ZM12 6L12 7L13 7L13 6ZM16 8L16 9L17 9L17 8ZM5 10L5 11L6 11L6 12L7 12L7 11L6 11L6 10ZM19 11L19 12L20 12L20 11ZM8 12L8 13L9 13L9 12ZM24 12L24 13L25 13L25 12ZM12 14L12 15L13 15L13 16L14 16L14 18L12 18L12 17L11 17L11 18L12 18L12 19L11 19L11 20L13 20L13 22L15 22L15 21L14 21L14 18L15 18L15 20L16 20L16 18L15 18L15 17L16 17L16 16L17 16L17 15L16 15L16 16L14 16L14 15L13 15L13 14ZM21 14L21 15L23 15L23 17L24 17L24 15L25 15L25 14L24 14L24 15L23 15L23 14ZM4 15L4 16L5 16L5 15ZM6 15L6 16L8 16L8 15ZM17 17L17 20L20 20L20 17ZM18 18L18 19L19 19L19 18ZM22 18L22 19L23 19L23 20L24 20L24 19L25 19L25 18L24 18L24 19L23 19L23 18ZM11 21L11 22L12 22L12 21ZM16 21L16 22L17 22L17 21ZM18 21L18 23L19 23L19 21ZM23 21L23 23L25 23L25 22L24 22L24 21ZM13 24L13 25L14 25L14 24ZM24 24L24 25L25 25L25 24ZM0 0L0 7L7 7L7 0ZM1 1L1 6L6 6L6 1ZM2 2L2 5L5 5L5 2ZM18 0L18 7L25 7L25 0ZM19 1L19 6L24 6L24 1ZM20 2L20 5L23 5L23 2ZM0 18L0 25L7 25L7 18ZM1 19L1 24L6 24L6 19ZM2 20L2 23L5 23L5 20Z" fill="#000000"/></g></g></svg>
