<?xml version="1.0" encoding="UTF-8"?>
<svg xmlns="http://www.w3.org/2000/svg" version="1.1" width="300" height="300" viewBox="0 0 300 300"><rect x="0" y="0" width="300" height="300" fill="#ffffff"/><g transform="scale(12)"><g transform="translate(0,0)"><path fill-rule="evenodd" d="M9 0L9 1L8 1L8 2L9 2L9 3L8 3L8 4L10 4L10 7L11 7L11 4L12 4L12 5L14 5L14 7L15 7L15 12L14 12L14 13L16 13L16 10L17 10L17 11L18 11L18 10L20 10L20 12L21 12L21 15L20 15L20 14L18 14L18 15L17 15L17 16L16 16L16 19L15 19L15 18L14 18L14 17L15 17L15 15L16 15L16 14L15 14L15 15L14 15L14 17L13 17L13 15L12 15L12 17L13 17L13 18L12 18L12 19L15 19L15 20L14 20L14 21L13 21L13 20L12 20L12 21L13 21L13 23L12 23L12 25L13 25L13 23L15 23L15 24L14 24L14 25L15 25L15 24L17 24L17 25L19 25L19 24L18 24L18 23L15 23L15 22L14 22L14 21L17 21L17 22L21 22L21 24L22 24L22 25L25 25L25 21L24 21L24 20L25 20L25 17L24 17L24 18L23 18L23 19L24 19L24 20L22 20L22 19L21 19L21 18L22 18L22 17L23 17L23 16L25 16L25 10L24 10L24 8L23 8L23 9L22 9L22 8L21 8L21 10L20 10L20 8L19 8L19 9L18 9L18 8L17 8L17 9L16 9L16 7L17 7L17 2L16 2L16 1L17 1L17 0L14 0L14 4L13 4L13 3L12 3L12 2L13 2L13 1L11 1L11 2L10 2L10 0ZM10 3L10 4L11 4L11 3ZM14 4L14 5L15 5L15 4ZM8 5L8 7L9 7L9 5ZM12 6L12 7L13 7L13 6ZM15 6L15 7L16 7L16 6ZM0 8L0 9L2 9L2 10L3 10L3 9L5 9L5 10L4 10L4 11L3 11L3 12L4 12L4 11L5 11L5 13L3 13L3 15L2 15L2 16L3 16L3 17L4 17L4 16L5 16L5 15L4 15L4 14L5 14L5 13L7 13L7 14L6 14L6 15L7 15L7 16L6 16L6 17L8 17L8 19L9 19L9 20L8 20L8 25L9 25L9 23L10 23L10 25L11 25L11 22L9 22L9 20L11 20L11 19L10 19L10 18L11 18L11 13L10 13L10 12L11 12L11 11L10 11L10 9L11 9L11 8L6 8L6 9L5 9L5 8ZM12 8L12 9L14 9L14 8ZM6 9L6 10L5 10L5 11L6 11L6 12L8 12L8 11L9 11L9 10L7 10L7 9ZM17 9L17 10L18 10L18 9ZM6 10L6 11L7 11L7 10ZM12 10L12 11L13 11L13 10ZM23 10L23 11L22 11L22 12L24 12L24 10ZM0 11L0 12L1 12L1 13L0 13L0 17L1 17L1 14L2 14L2 11ZM17 12L17 13L19 13L19 12ZM8 13L8 14L7 14L7 15L10 15L10 13ZM22 13L22 16L21 16L21 17L22 17L22 16L23 16L23 14L24 14L24 13ZM3 15L3 16L4 16L4 15ZM19 15L19 16L20 16L20 15ZM9 17L9 18L10 18L10 17ZM17 17L17 20L20 20L20 17ZM18 18L18 19L19 19L19 18ZM21 20L21 22L23 22L23 23L22 23L22 24L24 24L24 22L23 22L23 21L22 21L22 20ZM0 0L0 7L7 7L7 0ZM1 1L1 6L6 6L6 1ZM2 2L2 5L5 5L5 2ZM18 0L18 7L25 7L25 0ZM19 1L19 6L24 6L24 1ZM20 2L20 5L23 5L23 2ZM0 18L0 25L7 25L7 18ZM1 19L1 24L6 24L6 19ZM2 20L2 23L5 23L5 20Z" fill="#000000"/></g></g></svg>
