<?xml version="1.0" encoding="UTF-8"?>
<svg xmlns="http://www.w3.org/2000/svg" version="1.1" width="300" height="300" viewBox="0 0 300 300"><rect x="0" y="0" width="300" height="300" fill="#ffffff"/><g transform="scale(10.345)"><g transform="translate(0,0)"><path fill-rule="evenodd" d="M9 0L9 1L8 1L8 3L9 3L9 4L8 4L8 8L6 8L6 9L8 9L8 10L6 10L6 11L5 11L5 9L4 9L4 8L3 8L3 9L2 9L2 8L0 8L0 11L1 11L1 10L3 10L3 9L4 9L4 11L5 11L5 14L6 14L6 15L4 15L4 16L2 16L2 17L1 17L1 18L0 18L0 19L1 19L1 18L2 18L2 19L3 19L3 17L4 17L4 20L5 20L5 21L8 21L8 23L10 23L10 24L9 24L9 25L8 25L8 26L9 26L9 27L8 27L8 29L9 29L9 27L10 27L10 29L11 29L11 28L12 28L12 29L14 29L14 28L12 28L12 24L14 24L14 25L13 25L13 27L15 27L15 28L16 28L16 27L15 27L15 26L16 26L16 25L15 25L15 24L14 24L14 23L15 23L15 22L18 22L18 24L19 24L19 23L20 23L20 26L18 26L18 27L17 27L17 28L19 28L19 27L20 27L20 26L21 26L21 25L22 25L22 27L21 27L21 28L20 28L20 29L22 29L22 27L23 27L23 28L25 28L25 29L28 29L28 27L29 27L29 26L28 26L28 25L29 25L29 23L28 23L28 21L27 21L27 20L25 20L25 19L28 19L28 20L29 20L29 18L28 18L28 15L29 15L29 14L28 14L28 15L27 15L27 17L25 17L25 19L24 19L24 20L23 20L23 18L24 18L24 17L21 17L21 16L24 16L24 15L25 15L25 16L26 16L26 14L24 14L24 15L20 15L20 17L19 17L19 18L20 18L20 17L21 17L21 18L22 18L22 19L21 19L21 20L19 20L19 22L18 22L18 19L17 19L17 18L18 18L18 17L16 17L16 15L13 15L13 12L12 12L12 13L9 13L9 11L11 11L11 10L12 10L12 9L11 9L11 8L10 8L10 7L11 7L11 6L12 6L12 8L13 8L13 6L14 6L14 8L15 8L15 9L14 9L14 10L16 10L16 11L14 11L14 12L16 12L16 13L15 13L15 14L16 14L16 13L17 13L17 16L19 16L19 15L18 15L18 14L19 14L19 13L20 13L20 14L21 14L21 12L20 12L20 10L21 10L21 11L22 11L22 10L23 10L23 12L22 12L22 13L23 13L23 12L25 12L25 13L26 13L26 12L29 12L29 11L27 11L27 10L29 10L29 9L28 9L28 8L26 8L26 9L25 9L25 8L22 8L22 9L19 9L19 10L16 10L16 9L18 9L18 7L19 7L19 6L20 6L20 7L21 7L21 6L20 6L20 4L21 4L21 3L20 3L20 2L21 2L21 1L20 1L20 2L18 2L18 1L19 1L19 0L16 0L16 1L14 1L14 0L12 0L12 1L11 1L11 2L9 2L9 1L10 1L10 0ZM16 1L16 2L14 2L14 3L16 3L16 4L15 4L15 8L17 8L17 7L18 7L18 6L19 6L19 5L18 5L18 4L19 4L19 3L16 3L16 2L17 2L17 1ZM12 3L12 4L9 4L9 5L10 5L10 6L9 6L9 7L10 7L10 6L11 6L11 5L12 5L12 6L13 6L13 3ZM16 4L16 5L17 5L17 4ZM16 6L16 7L17 7L17 6ZM8 8L8 9L9 9L9 10L10 10L10 8ZM23 9L23 10L25 10L25 9ZM26 9L26 10L27 10L27 9ZM6 11L6 12L7 12L7 13L6 13L6 14L7 14L7 13L8 13L8 16L7 16L7 15L6 15L6 16L4 16L4 17L6 17L6 18L7 18L7 19L6 19L6 20L10 20L10 21L11 21L11 19L12 19L12 20L13 20L13 21L14 21L14 22L15 22L15 21L14 21L14 20L17 20L17 19L16 19L16 18L15 18L15 17L13 17L13 16L12 16L12 14L11 14L11 16L10 16L10 17L9 17L9 13L8 13L8 12L7 12L7 11ZM16 11L16 12L17 12L17 13L19 13L19 12L18 12L18 11ZM0 12L0 15L1 15L1 13L3 13L3 14L4 14L4 13L3 13L3 12ZM6 16L6 17L7 17L7 18L8 18L8 17L7 17L7 16ZM11 16L11 17L10 17L10 18L9 18L9 19L10 19L10 18L11 18L11 17L12 17L12 16ZM13 18L13 20L14 20L14 18ZM0 20L0 21L1 21L1 20ZM21 21L21 24L24 24L24 21ZM25 21L25 22L26 22L26 23L27 23L27 21ZM10 22L10 23L11 23L11 22ZM22 22L22 23L23 23L23 22ZM10 24L10 25L11 25L11 24ZM26 24L26 25L24 25L24 26L23 26L23 27L24 27L24 26L26 26L26 28L27 28L27 27L28 27L28 26L26 26L26 25L28 25L28 24ZM10 26L10 27L11 27L11 26ZM0 0L0 7L7 7L7 0ZM1 1L1 6L6 6L6 1ZM2 2L2 5L5 5L5 2ZM22 0L22 7L29 7L29 0ZM23 1L23 6L28 6L28 1ZM24 2L24 5L27 5L27 2ZM0 22L0 29L7 29L7 22ZM1 23L1 28L6 28L6 23ZM2 24L2 27L5 27L5 24Z" fill="#000000"/></g></g></svg>
