<?xml version="1.0" encoding="UTF-8"?>
<svg xmlns="http://www.w3.org/2000/svg" version="1.1" width="300" height="300" viewBox="0 0 300 300"><rect x="0" y="0" width="300" height="300" fill="#ffffff"/><g transform="scale(12)"><g transform="translate(0,0)"><path fill-rule="evenodd" d="M9 0L9 1L8 1L8 3L9 3L9 4L8 4L8 8L6 8L6 9L5 9L5 11L4 11L4 14L3 14L3 15L1 15L1 14L2 14L2 11L3 11L3 10L4 10L4 8L3 8L3 9L2 9L2 8L0 8L0 10L1 10L1 9L2 9L2 11L0 11L0 13L1 13L1 14L0 14L0 15L1 15L1 16L0 16L0 17L3 17L3 15L4 15L4 17L7 17L7 16L8 16L8 19L10 19L10 20L9 20L9 21L8 21L8 22L10 22L10 23L8 23L8 25L10 25L10 24L11 24L11 25L14 25L14 24L15 24L15 25L22 25L22 23L23 23L23 22L22 22L22 20L23 20L23 21L24 21L24 20L23 20L23 19L25 19L25 18L22 18L22 17L23 17L23 16L22 16L22 15L23 15L23 14L24 14L24 15L25 15L25 14L24 14L24 13L25 13L25 12L23 12L23 13L21 13L21 12L22 12L22 11L23 11L23 9L24 9L24 11L25 11L25 9L24 9L24 8L22 8L22 9L21 9L21 8L18 8L18 9L17 9L17 4L15 4L15 2L16 2L16 0L14 0L14 1L15 1L15 2L14 2L14 4L15 4L15 5L13 5L13 6L12 6L12 5L11 5L11 6L10 6L10 5L9 5L9 4L12 4L12 3L13 3L13 0L12 0L12 1L11 1L11 2L9 2L9 1L10 1L10 0ZM9 6L9 7L10 7L10 8L8 8L8 9L6 9L6 10L8 10L8 12L7 12L7 11L5 11L5 13L6 13L6 14L8 14L8 16L9 16L9 18L10 18L10 19L12 19L12 18L13 18L13 20L14 20L14 18L13 18L13 17L15 17L15 18L16 18L16 17L15 17L15 16L19 16L19 15L22 15L22 14L21 14L21 13L20 13L20 12L21 12L21 11L22 11L22 10L21 10L21 9L18 9L18 11L17 11L17 10L16 10L16 8L14 8L14 6L13 6L13 8L12 8L12 6L11 6L11 7L10 7L10 6ZM15 6L15 7L16 7L16 6ZM10 8L10 10L9 10L9 9L8 9L8 10L9 10L9 11L11 11L11 10L12 10L12 9L11 9L11 8ZM13 8L13 12L12 12L12 13L9 13L9 15L10 15L10 16L11 16L11 17L13 17L13 16L14 16L14 15L13 15L13 13L14 13L14 14L15 14L15 13L14 13L14 12L16 12L16 15L19 15L19 12L20 12L20 10L19 10L19 11L18 11L18 12L16 12L16 11L15 11L15 10L14 10L14 8ZM6 12L6 13L7 13L7 12ZM4 14L4 15L5 15L5 14ZM11 14L11 16L12 16L12 14ZM6 15L6 16L7 16L7 15ZM17 17L17 20L20 20L20 17ZM18 18L18 19L19 19L19 18ZM11 20L11 21L10 21L10 22L11 22L11 24L13 24L13 22L12 22L12 20ZM15 20L15 22L14 22L14 23L15 23L15 22L16 22L16 23L19 23L19 22L20 22L20 21L16 21L16 20ZM24 22L24 23L25 23L25 22ZM20 23L20 24L21 24L21 23ZM23 24L23 25L25 25L25 24ZM0 0L0 7L7 7L7 0ZM1 1L1 6L6 6L6 1ZM2 2L2 5L5 5L5 2ZM18 0L18 7L25 7L25 0ZM19 1L19 6L24 6L24 1ZM20 2L20 5L23 5L23 2ZM0 18L0 25L7 25L7 18ZM1 19L1 24L6 24L6 19ZM2 20L2 23L5 23L5 20Z" fill="#000000"/></g></g></svg>
