<?xml version="1.0" encoding="UTF-8"?>
<svg xmlns="http://www.w3.org/2000/svg" version="1.1" width="300" height="300" viewBox="0 0 300 300"><rect x="0" y="0" width="300" height="300" fill="#ffffff"/><g transform="scale(12)"><g transform="translate(0,0)"><path fill-rule="evenodd" d="M8 0L8 2L9 2L9 3L10 3L10 2L9 2L9 1L11 1L11 2L12 2L12 0ZM14 0L14 1L13 1L13 3L11 3L11 5L9 5L9 4L8 4L8 9L7 9L7 8L5 8L5 10L4 10L4 9L3 9L3 8L0 8L0 9L2 9L2 10L3 10L3 12L4 12L4 13L5 13L5 16L4 16L4 15L3 15L3 13L2 13L2 11L1 11L1 10L0 10L0 11L1 11L1 14L0 14L0 15L3 15L3 16L0 16L0 17L8 17L8 18L9 18L9 19L8 19L8 20L9 20L9 19L10 19L10 22L11 22L11 23L9 23L9 22L8 22L8 25L10 25L10 24L11 24L11 25L14 25L14 23L13 23L13 24L11 24L11 23L12 23L12 22L11 22L11 20L13 20L13 22L16 22L16 25L17 25L17 24L18 24L18 25L19 25L19 23L21 23L21 22L22 22L22 23L25 23L25 22L24 22L24 21L25 21L25 20L24 20L24 21L23 21L23 22L22 22L22 21L21 21L21 16L20 16L20 15L23 15L23 17L24 17L24 15L25 15L25 14L24 14L24 15L23 15L23 14L20 14L20 15L19 15L19 13L22 13L22 12L21 12L21 11L22 11L22 10L23 10L23 11L25 11L25 8L23 8L23 9L22 9L22 10L21 10L21 11L20 11L20 9L21 9L21 8L17 8L17 9L16 9L16 8L15 8L15 6L14 6L14 8L15 8L15 9L16 9L16 10L15 10L15 11L14 11L14 9L13 9L13 8L11 8L11 9L12 9L12 11L11 11L11 10L9 10L9 9L10 9L10 7L11 7L11 5L12 5L12 7L13 7L13 5L15 5L15 3L16 3L16 4L17 4L17 3L16 3L16 2L17 2L17 1L16 1L16 2L15 2L15 0ZM9 6L9 7L10 7L10 6ZM16 6L16 7L17 7L17 6ZM6 9L6 10L7 10L7 11L4 11L4 12L5 12L5 13L6 13L6 14L8 14L8 15L11 15L11 16L10 16L10 19L12 19L12 17L11 17L11 16L13 16L13 15L14 15L14 17L13 17L13 18L15 18L15 20L16 20L16 18L15 18L15 17L16 17L16 16L17 16L17 15L16 15L16 16L15 16L15 13L14 13L14 14L13 14L13 12L14 12L14 11L13 11L13 12L11 12L11 14L9 14L9 12L10 12L10 11L9 11L9 10L7 10L7 9ZM17 9L17 11L15 11L15 12L17 12L17 13L16 13L16 14L18 14L18 11L19 11L19 12L20 12L20 11L19 11L19 9ZM7 11L7 12L6 12L6 13L7 13L7 12L9 12L9 11ZM24 12L24 13L25 13L25 12ZM11 14L11 15L12 15L12 14ZM6 15L6 16L7 16L7 15ZM18 15L18 16L19 16L19 15ZM8 16L8 17L9 17L9 16ZM17 17L17 20L20 20L20 17ZM18 18L18 19L19 19L19 18ZM22 18L22 19L23 19L23 18ZM24 18L24 19L25 19L25 18ZM13 19L13 20L14 20L14 19ZM16 21L16 22L17 22L17 21ZM18 21L18 23L19 23L19 21ZM20 24L20 25L21 25L21 24ZM24 24L24 25L25 25L25 24ZM0 0L0 7L7 7L7 0ZM1 1L1 6L6 6L6 1ZM2 2L2 5L5 5L5 2ZM18 0L18 7L25 7L25 0ZM19 1L19 6L24 6L24 1ZM20 2L20 5L23 5L23 2ZM0 18L0 25L7 25L7 18ZM1 19L1 24L6 24L6 19ZM2 20L2 23L5 23L5 20Z" fill="#000000"/></g></g></svg>
