<?xml version="1.0" encoding="UTF-8"?>
<svg xmlns="http://www.w3.org/2000/svg" version="1.1" width="300" height="300" viewBox="0 0 300 300"><rect x="0" y="0" width="300" height="300" fill="#ffffff"/><g transform="scale(12)"><g transform="translate(0,0)"><path fill-rule="evenodd" d="M8 0L8 1L9 1L9 0ZM11 0L11 2L12 2L12 0ZM16 0L16 1L17 1L17 0ZM14 1L14 2L13 2L13 3L11 3L11 4L12 4L12 7L13 7L13 4L14 4L14 7L15 7L15 5L16 5L16 7L17 7L17 4L15 4L15 1ZM8 2L8 5L9 5L9 6L8 6L8 7L9 7L9 8L8 8L8 9L7 9L7 8L6 8L6 9L4 9L4 8L0 8L0 10L1 10L1 15L0 15L0 16L1 16L1 15L2 15L2 11L3 11L3 15L4 15L4 16L2 16L2 17L7 17L7 16L5 16L5 14L6 14L6 15L8 15L8 18L10 18L10 19L9 19L9 20L10 20L10 19L11 19L11 18L14 18L14 16L13 16L13 13L15 13L15 14L16 14L16 15L17 15L17 16L15 16L15 18L16 18L16 21L17 21L17 25L20 25L20 23L22 23L22 25L25 25L25 24L23 24L23 23L24 23L24 22L25 22L25 18L23 18L23 17L25 17L25 15L24 15L24 13L25 13L25 12L23 12L23 11L24 11L24 9L25 9L25 8L24 8L24 9L23 9L23 8L20 8L20 9L18 9L18 8L17 8L17 9L16 9L16 10L17 10L17 9L18 9L18 12L17 12L17 11L16 11L16 12L15 12L15 11L13 11L13 10L12 10L12 9L11 9L11 12L12 12L12 16L10 16L10 15L9 15L9 14L11 14L11 13L10 13L10 12L8 12L8 13L9 13L9 14L6 14L6 13L7 13L7 12L6 12L6 13L5 13L5 14L4 14L4 12L5 12L5 11L8 11L8 9L9 9L9 10L10 10L10 9L9 9L9 8L10 8L10 7L11 7L11 6L10 6L10 3L9 3L9 2ZM16 2L16 3L17 3L17 2ZM9 6L9 7L10 7L10 6ZM14 8L14 10L15 10L15 8ZM1 9L1 10L2 10L2 9ZM3 9L3 11L5 11L5 10L4 10L4 9ZM6 9L6 10L7 10L7 9ZM20 9L20 10L19 10L19 11L21 11L21 12L19 12L19 14L17 14L17 12L16 12L16 14L17 14L17 15L19 15L19 14L20 14L20 13L21 13L21 15L20 15L20 16L21 16L21 15L22 15L22 16L23 16L23 15L22 15L22 14L23 14L23 13L21 13L21 12L22 12L22 10L21 10L21 9ZM12 11L12 12L13 12L13 11ZM9 16L9 17L10 17L10 16ZM12 16L12 17L13 17L13 16ZM17 17L17 20L20 20L20 17ZM21 17L21 20L22 20L22 22L23 22L23 18L22 18L22 17ZM18 18L18 19L19 19L19 18ZM11 20L11 21L8 21L8 25L9 25L9 23L10 23L10 25L11 25L11 23L12 23L12 20ZM14 20L14 21L13 21L13 22L14 22L14 21L15 21L15 20ZM10 22L10 23L11 23L11 22ZM15 22L15 23L13 23L13 24L12 24L12 25L14 25L14 24L15 24L15 23L16 23L16 22ZM19 22L19 23L20 23L20 22ZM0 0L0 7L7 7L7 0ZM1 1L1 6L6 6L6 1ZM2 2L2 5L5 5L5 2ZM18 0L18 7L25 7L25 0ZM19 1L19 6L24 6L24 1ZM20 2L20 5L23 5L23 2ZM0 18L0 25L7 25L7 18ZM1 19L1 24L6 24L6 19ZM2 20L2 23L5 23L5 20Z" fill="#000000"/></g></g></svg>
