<?xml version="1.0" encoding="UTF-8"?>
<svg xmlns="http://www.w3.org/2000/svg" version="1.1" width="300" height="300" viewBox="0 0 300 300"><rect x="0" y="0" width="300" height="300" fill="#ffffff"/><g transform="scale(12)"><g transform="translate(0,0)"><path fill-rule="evenodd" d="M8 0L8 1L11 1L11 3L10 3L10 2L9 2L9 3L10 3L10 5L9 5L9 6L8 6L8 8L9 8L9 9L7 9L7 8L6 8L6 9L5 9L5 8L3 8L3 9L2 9L2 8L0 8L0 9L1 9L1 12L0 12L0 17L1 17L1 15L2 15L2 16L3 16L3 17L4 17L4 16L6 16L6 17L7 17L7 16L8 16L8 18L9 18L9 20L8 20L8 22L10 22L10 24L11 24L11 25L14 25L14 19L15 19L15 18L16 18L16 20L15 20L15 22L17 22L17 23L18 23L18 22L20 22L20 23L21 23L21 22L22 22L22 24L24 24L24 25L25 25L25 17L24 17L24 16L25 16L25 10L24 10L24 9L25 9L25 8L24 8L24 9L23 9L23 10L21 10L21 9L19 9L19 8L18 8L18 10L21 10L21 11L20 11L20 12L18 12L18 11L16 11L16 10L12 10L12 11L14 11L14 12L13 12L13 13L12 13L12 14L13 14L13 13L14 13L14 15L12 15L12 16L11 16L11 17L10 17L10 16L9 16L9 15L11 15L11 12L9 12L9 11L10 11L10 10L11 10L11 9L10 9L10 7L11 7L11 6L12 6L12 9L16 9L16 8L17 8L17 1L16 1L16 0L14 0L14 1L12 1L12 0ZM14 1L14 3L13 3L13 2L12 2L12 4L13 4L13 5L12 5L12 6L13 6L13 7L14 7L14 8L15 8L15 7L16 7L16 5L14 5L14 4L15 4L15 2L16 2L16 1ZM10 5L10 6L9 6L9 7L10 7L10 6L11 6L11 5ZM14 6L14 7L15 7L15 6ZM3 9L3 10L2 10L2 11L3 11L3 10L4 10L4 9ZM6 9L6 10L5 10L5 11L4 11L4 12L7 12L7 13L5 13L5 14L7 14L7 15L6 15L6 16L7 16L7 15L9 15L9 14L10 14L10 13L9 13L9 14L7 14L7 13L8 13L8 11L9 11L9 10L10 10L10 9L9 9L9 10L8 10L8 11L6 11L6 10L7 10L7 9ZM15 11L15 12L16 12L16 11ZM21 11L21 12L22 12L22 13L21 13L21 14L19 14L19 13L18 13L18 12L17 12L17 13L16 13L16 14L17 14L17 15L18 15L18 14L19 14L19 15L21 15L21 21L20 21L20 22L21 22L21 21L23 21L23 20L24 20L24 18L23 18L23 19L22 19L22 15L21 15L21 14L24 14L24 12L22 12L22 11ZM1 12L1 13L3 13L3 14L2 14L2 15L4 15L4 13L3 13L3 12ZM13 16L13 17L12 17L12 18L10 18L10 17L9 17L9 18L10 18L10 20L9 20L9 21L10 21L10 22L12 22L12 23L13 23L13 22L12 22L12 21L13 21L13 19L12 19L12 18L15 18L15 17L16 17L16 16ZM17 17L17 20L20 20L20 17ZM18 18L18 19L19 19L19 18ZM11 19L11 20L10 20L10 21L12 21L12 19ZM8 23L8 25L9 25L9 23ZM16 24L16 25L17 25L17 24ZM18 24L18 25L21 25L21 24ZM0 0L0 7L7 7L7 0ZM1 1L1 6L6 6L6 1ZM2 2L2 5L5 5L5 2ZM18 0L18 7L25 7L25 0ZM19 1L19 6L24 6L24 1ZM20 2L20 5L23 5L23 2ZM0 18L0 25L7 25L7 18ZM1 19L1 24L6 24L6 19ZM2 20L2 23L5 23L5 20Z" fill="#000000"/></g></g></svg>
