<?xml version="1.0" encoding="UTF-8"?>
<svg xmlns="http://www.w3.org/2000/svg" version="1.1" width="300" height="300" viewBox="0 0 300 300"><rect x="0" y="0" width="300" height="300" fill="#ffffff"/><g transform="scale(12)"><g transform="translate(0,0)"><path fill-rule="evenodd" d="M8 0L8 2L9 2L9 3L10 3L10 2L9 2L9 1L11 1L11 2L12 2L12 0ZM13 0L13 1L14 1L14 2L13 2L13 3L11 3L11 5L9 5L9 4L8 4L8 9L7 9L7 8L5 8L5 9L3 9L3 8L0 8L0 11L1 11L1 9L3 9L3 11L4 11L4 10L5 10L5 9L7 9L7 10L6 10L6 11L10 11L10 12L9 12L9 14L8 14L8 15L7 15L7 14L5 14L5 13L3 13L3 14L0 14L0 15L2 15L2 16L0 16L0 17L3 17L3 15L4 15L4 14L5 14L5 16L4 16L4 17L8 17L8 18L10 18L10 17L9 17L9 16L8 16L8 15L9 15L9 14L10 14L10 16L11 16L11 17L12 17L12 18L11 18L11 19L8 19L8 20L9 20L9 21L10 21L10 22L8 22L8 25L9 25L9 23L10 23L10 22L11 22L11 24L10 24L10 25L12 25L12 23L14 23L14 24L13 24L13 25L14 25L14 24L15 24L15 22L16 22L16 25L17 25L17 24L18 24L18 25L21 25L21 16L18 16L18 15L19 15L19 13L22 13L22 12L21 12L21 11L22 11L22 10L23 10L23 11L25 11L25 8L23 8L23 9L22 9L22 10L21 10L21 11L20 11L20 9L21 9L21 8L17 8L17 5L16 5L16 4L17 4L17 3L16 3L16 2L15 2L15 1L16 1L16 0L15 0L15 1L14 1L14 0ZM13 3L13 4L14 4L14 3ZM15 3L15 4L16 4L16 3ZM11 5L11 7L10 7L10 6L9 6L9 7L10 7L10 9L9 9L9 10L11 10L11 11L12 11L12 9L11 9L11 8L14 8L14 11L13 11L13 13L12 13L12 12L11 12L11 14L12 14L12 15L11 15L11 16L12 16L12 15L13 15L13 16L14 16L14 17L13 17L13 18L14 18L14 19L11 19L11 20L12 20L12 21L11 21L11 22L12 22L12 21L13 21L13 22L15 22L15 20L16 20L16 18L14 18L14 17L16 17L16 16L17 16L17 15L16 15L16 16L15 16L15 15L13 15L13 14L15 14L15 13L14 13L14 11L15 11L15 12L17 12L17 13L16 13L16 14L18 14L18 11L19 11L19 12L20 12L20 11L19 11L19 9L17 9L17 8L16 8L16 5L13 5L13 7L12 7L12 5ZM14 6L14 8L15 8L15 9L16 9L16 10L15 10L15 11L17 11L17 9L16 9L16 8L15 8L15 6ZM0 12L0 13L2 13L2 12ZM6 12L6 13L8 13L8 12ZM24 12L24 13L25 13L25 12ZM20 14L20 15L23 15L23 17L24 17L24 15L25 15L25 14L24 14L24 15L23 15L23 14ZM6 15L6 16L7 16L7 15ZM17 17L17 20L20 20L20 17ZM18 18L18 19L19 19L19 18ZM22 18L22 19L23 19L23 18ZM24 18L24 20L23 20L23 21L22 21L22 23L25 23L25 22L24 22L24 20L25 20L25 18ZM14 19L14 20L13 20L13 21L14 21L14 20L15 20L15 19ZM16 21L16 22L17 22L17 21ZM18 21L18 23L19 23L19 21ZM24 24L24 25L25 25L25 24ZM0 0L0 7L7 7L7 0ZM1 1L1 6L6 6L6 1ZM2 2L2 5L5 5L5 2ZM18 0L18 7L25 7L25 0ZM19 1L19 6L24 6L24 1ZM20 2L20 5L23 5L23 2ZM0 18L0 25L7 25L7 18ZM1 19L1 24L6 24L6 19ZM2 20L2 23L5 23L5 20Z" fill="#000000"/></g></g></svg>
