<?xml version="1.0" encoding="UTF-8"?>
<svg xmlns="http://www.w3.org/2000/svg" version="1.1" width="300" height="300" viewBox="0 0 300 300"><rect x="0" y="0" width="300" height="300" fill="#ffffff"/><g transform="scale(12)"><g transform="translate(0,0)"><path fill-rule="evenodd" d="M9 0L9 1L11 1L11 2L9 2L9 3L8 3L8 5L9 5L9 6L8 6L8 7L9 7L9 9L10 9L10 10L8 10L8 8L5 8L5 10L4 10L4 9L2 9L2 8L0 8L0 9L2 9L2 10L4 10L4 12L3 12L3 13L2 13L2 14L3 14L3 13L4 13L4 14L5 14L5 13L4 13L4 12L5 12L5 10L6 10L6 11L8 11L8 12L9 12L9 13L10 13L10 14L6 14L6 15L7 15L7 16L2 16L2 17L7 17L7 16L8 16L8 20L10 20L10 23L8 23L8 25L9 25L9 24L10 24L10 25L11 25L11 24L10 24L10 23L11 23L11 20L10 20L10 19L12 19L12 18L10 18L10 19L9 19L9 17L11 17L11 16L13 16L13 17L14 17L14 16L13 16L13 14L15 14L15 16L16 16L16 17L15 17L15 18L13 18L13 19L15 19L15 18L16 18L16 20L14 20L14 22L20 22L20 21L21 21L21 15L22 15L22 17L23 17L23 16L25 16L25 10L24 10L24 9L23 9L23 10L21 10L21 9L22 9L22 8L20 8L20 9L18 9L18 10L17 10L17 11L18 11L18 10L20 10L20 12L18 12L18 13L22 13L22 12L21 12L21 11L23 11L23 10L24 10L24 14L23 14L23 15L22 15L22 14L21 14L21 15L20 15L20 14L18 14L18 15L16 15L16 13L17 13L17 12L15 12L15 11L16 11L16 10L15 10L15 9L17 9L17 8L16 8L16 7L17 7L17 3L16 3L16 2L17 2L17 1L16 1L16 0L14 0L14 1L12 1L12 0ZM15 1L15 2L12 2L12 4L11 4L11 7L10 7L10 6L9 6L9 7L10 7L10 8L11 8L11 10L10 10L10 11L9 11L9 12L10 12L10 11L11 11L11 10L13 10L13 11L12 11L12 12L11 12L11 15L10 15L10 16L11 16L11 15L12 15L12 12L14 12L14 13L15 13L15 12L14 12L14 11L15 11L15 10L14 10L14 8L15 8L15 7L16 7L16 5L15 5L15 4L16 4L16 3L15 3L15 2L16 2L16 1ZM9 3L9 5L10 5L10 3ZM12 4L12 5L13 5L13 6L12 6L12 9L13 9L13 6L14 6L14 7L15 7L15 6L14 6L14 4ZM6 9L6 10L7 10L7 9ZM0 10L0 17L1 17L1 12L2 12L2 11L1 11L1 10ZM6 12L6 13L7 13L7 12ZM17 17L17 20L20 20L20 17ZM24 17L24 19L25 19L25 17ZM18 18L18 19L19 19L19 18ZM22 18L22 19L23 19L23 18ZM12 20L12 21L13 21L13 20ZM22 20L22 22L21 22L21 23L23 23L23 22L24 22L24 25L25 25L25 21L23 21L23 20ZM12 22L12 25L14 25L14 24L15 24L15 23L14 23L14 24L13 24L13 22ZM16 23L16 25L17 25L17 24L18 24L18 25L21 25L21 24L20 24L20 23L19 23L19 24L18 24L18 23ZM0 0L0 7L7 7L7 0ZM1 1L1 6L6 6L6 1ZM2 2L2 5L5 5L5 2ZM18 0L18 7L25 7L25 0ZM19 1L19 6L24 6L24 1ZM20 2L20 5L23 5L23 2ZM0 18L0 25L7 25L7 18ZM1 19L1 24L6 24L6 19ZM2 20L2 23L5 23L5 20Z" fill="#000000"/></g></g></svg>
