<?xml version="1.0" encoding="UTF-8"?>
<svg xmlns="http://www.w3.org/2000/svg" version="1.1" width="300" height="300" viewBox="0 0 300 300"><rect x="0" y="0" width="300" height="300" fill="#ffffff"/><g transform="scale(12)"><g transform="translate(0,0)"><path fill-rule="evenodd" d="M8 0L8 2L9 2L9 3L10 3L10 5L12 5L12 7L13 7L13 5L16 5L16 7L15 7L15 6L14 6L14 8L11 8L11 6L10 6L10 8L9 8L9 4L8 4L8 9L9 9L9 10L10 10L10 9L12 9L12 10L11 10L11 12L12 12L12 14L10 14L10 11L9 11L9 12L8 12L8 13L7 13L7 12L6 12L6 13L5 13L5 11L8 11L8 10L6 10L6 9L7 9L7 8L5 8L5 9L3 9L3 8L0 8L0 11L1 11L1 12L0 12L0 13L1 13L1 12L2 12L2 10L5 10L5 11L4 11L4 15L5 15L5 14L6 14L6 15L7 15L7 14L8 14L8 15L9 15L9 16L10 16L10 15L12 15L12 18L11 18L11 19L10 19L10 20L9 20L9 19L8 19L8 20L9 20L9 21L10 21L10 20L11 20L11 21L12 21L12 22L8 22L8 25L11 25L11 24L12 24L12 25L14 25L14 24L12 24L12 22L13 22L13 23L15 23L15 22L16 22L16 25L17 25L17 24L18 24L18 25L21 25L21 24L19 24L19 23L25 23L25 22L24 22L24 21L22 21L22 22L21 22L21 15L23 15L23 17L24 17L24 15L25 15L25 14L24 14L24 15L23 15L23 14L20 14L20 16L18 16L18 15L19 15L19 13L22 13L22 12L21 12L21 11L22 11L22 10L23 10L23 11L25 11L25 8L23 8L23 9L22 9L22 10L21 10L21 11L20 11L20 9L21 9L21 8L17 8L17 5L16 5L16 4L15 4L15 3L17 3L17 1L16 1L16 0L15 0L15 1L16 1L16 2L15 2L15 3L14 3L14 2L12 2L12 4L11 4L11 1L12 1L12 0L10 0L10 1L9 1L9 0ZM13 3L13 4L12 4L12 5L13 5L13 4L14 4L14 3ZM14 8L14 9L13 9L13 10L12 10L12 12L14 12L14 13L13 13L13 16L14 16L14 18L15 18L15 20L16 20L16 18L15 18L15 17L16 17L16 16L17 16L17 15L16 15L16 16L15 16L15 15L14 15L14 13L15 13L15 12L17 12L17 13L16 13L16 14L18 14L18 11L19 11L19 12L20 12L20 11L19 11L19 9L17 9L17 11L15 11L15 10L16 10L16 9L15 9L15 8ZM1 9L1 10L2 10L2 9ZM14 9L14 10L13 10L13 11L14 11L14 10L15 10L15 9ZM24 12L24 13L25 13L25 12ZM2 13L2 14L0 14L0 15L2 15L2 16L0 16L0 17L2 17L2 16L3 16L3 17L5 17L5 16L3 16L3 15L2 15L2 14L3 14L3 13ZM6 13L6 14L7 14L7 13ZM8 13L8 14L9 14L9 15L10 15L10 14L9 14L9 13ZM6 16L6 17L8 17L8 18L9 18L9 17L8 17L8 16ZM17 17L17 20L20 20L20 17ZM12 18L12 19L11 19L11 20L12 20L12 21L13 21L13 22L15 22L15 21L14 21L14 19L13 19L13 18ZM18 18L18 19L19 19L19 18ZM22 18L22 19L23 19L23 20L25 20L25 18L24 18L24 19L23 19L23 18ZM12 19L12 20L13 20L13 19ZM16 21L16 22L17 22L17 21ZM18 21L18 23L19 23L19 21ZM9 23L9 24L11 24L11 23ZM24 24L24 25L25 25L25 24ZM0 0L0 7L7 7L7 0ZM1 1L1 6L6 6L6 1ZM2 2L2 5L5 5L5 2ZM18 0L18 7L25 7L25 0ZM19 1L19 6L24 6L24 1ZM20 2L20 5L23 5L23 2ZM0 18L0 25L7 25L7 18ZM1 19L1 24L6 24L6 19ZM2 20L2 23L5 23L5 20Z" fill="#000000"/></g></g></svg>
