<?xml version="1.0" encoding="UTF-8"?>
<svg xmlns="http://www.w3.org/2000/svg" version="1.1" width="300" height="300" viewBox="0 0 300 300"><rect x="0" y="0" width="300" height="300" fill="#ffffff"/><g transform="scale(10.345)"><g transform="translate(0,0)"><path fill-rule="evenodd" d="M8 0L8 1L10 1L10 0ZM15 0L15 1L14 1L14 2L11 2L11 4L10 4L10 3L9 3L9 2L8 2L8 5L9 5L9 6L8 6L8 7L9 7L9 8L8 8L8 9L9 9L9 10L10 10L10 9L9 9L9 8L10 8L10 7L11 7L11 8L12 8L12 7L13 7L13 9L15 9L15 5L14 5L14 4L13 4L13 5L12 5L12 3L16 3L16 1L17 1L17 2L18 2L18 3L17 3L17 4L18 4L18 3L19 3L19 2L18 2L18 1L20 1L20 4L19 4L19 5L17 5L17 6L16 6L16 7L17 7L17 8L16 8L16 11L18 11L18 10L20 10L20 11L19 11L19 13L18 13L18 12L17 12L17 13L15 13L15 14L14 14L14 13L13 13L13 14L12 14L12 12L15 12L15 10L14 10L14 11L11 11L11 13L10 13L10 12L9 12L9 11L8 11L8 10L4 10L4 8L0 8L0 10L2 10L2 13L1 13L1 14L0 14L0 16L1 16L1 18L0 18L0 19L1 19L1 18L2 18L2 19L3 19L3 20L4 20L4 21L7 21L7 20L6 20L6 19L8 19L8 18L6 18L6 17L9 17L9 18L11 18L11 19L10 19L10 20L9 20L9 21L8 21L8 22L9 22L9 21L12 21L12 22L10 22L10 23L14 23L14 22L15 22L15 21L14 21L14 20L13 20L13 18L14 18L14 17L12 17L12 16L14 16L14 15L15 15L15 14L16 14L16 15L18 15L18 17L17 17L17 16L16 16L16 17L15 17L15 19L17 19L17 20L16 20L16 23L15 23L15 24L14 24L14 26L13 26L13 24L12 24L12 25L11 25L11 24L9 24L9 25L8 25L8 29L11 29L11 28L12 28L12 29L13 29L13 28L12 28L12 26L13 26L13 27L14 27L14 29L15 29L15 27L14 27L14 26L16 26L16 29L17 29L17 25L18 25L18 24L19 24L19 23L20 23L20 25L21 25L21 27L20 27L20 26L19 26L19 27L18 27L18 29L21 29L21 27L22 27L22 25L23 25L23 27L24 27L24 25L28 25L28 27L27 27L27 28L26 28L26 29L28 29L28 27L29 27L29 25L28 25L28 21L27 21L27 20L28 20L28 19L26 19L26 21L27 21L27 24L26 24L26 22L25 22L25 19L24 19L24 20L21 20L21 19L22 19L22 18L21 18L21 16L23 16L23 18L24 18L24 17L26 17L26 16L25 16L25 15L24 15L24 14L23 14L23 13L22 13L22 12L25 12L25 13L26 13L26 14L28 14L28 15L27 15L27 17L28 17L28 18L29 18L29 17L28 17L28 15L29 15L29 12L26 12L26 11L27 11L27 10L29 10L29 8L28 8L28 9L27 9L27 8L24 8L24 9L22 9L22 8L19 8L19 9L18 9L18 7L19 7L19 6L20 6L20 7L21 7L21 5L20 5L20 4L21 4L21 0L18 0L18 1L17 1L17 0ZM10 5L10 6L9 6L9 7L10 7L10 6L11 6L11 7L12 7L12 5ZM13 5L13 7L14 7L14 5ZM17 6L17 7L18 7L18 6ZM6 8L6 9L7 9L7 8ZM17 9L17 10L18 10L18 9ZM25 9L25 10L22 10L22 11L26 11L26 10L27 10L27 9ZM3 10L3 12L4 12L4 13L2 13L2 14L4 14L4 15L6 15L6 16L5 16L5 17L3 17L3 16L2 16L2 15L1 15L1 16L2 16L2 17L3 17L3 18L5 18L5 19L4 19L4 20L5 20L5 19L6 19L6 18L5 18L5 17L6 17L6 16L8 16L8 15L6 15L6 14L7 14L7 13L6 13L6 14L5 14L5 12L7 12L7 11L5 11L5 12L4 12L4 10ZM20 11L20 16L19 16L19 17L18 17L18 18L17 18L17 17L16 17L16 18L17 18L17 19L18 19L18 18L19 18L19 21L17 21L17 24L15 24L15 25L17 25L17 24L18 24L18 23L19 23L19 22L20 22L20 16L21 16L21 15L23 15L23 16L24 16L24 15L23 15L23 14L21 14L21 11ZM8 12L8 14L10 14L10 13L9 13L9 12ZM11 14L11 15L10 15L10 16L12 16L12 14ZM13 14L13 15L14 15L14 14ZM11 17L11 18L12 18L12 17ZM11 19L11 20L12 20L12 19ZM1 20L1 21L2 21L2 20ZM21 21L21 24L24 24L24 21ZM22 22L22 23L23 23L23 22ZM10 26L10 28L11 28L11 26ZM25 26L25 27L26 27L26 26ZM23 28L23 29L25 29L25 28ZM0 0L0 7L7 7L7 0ZM1 1L1 6L6 6L6 1ZM2 2L2 5L5 5L5 2ZM22 0L22 7L29 7L29 0ZM23 1L23 6L28 6L28 1ZM24 2L24 5L27 5L27 2ZM0 22L0 29L7 29L7 22ZM1 23L1 28L6 28L6 23ZM2 24L2 27L5 27L5 24Z" fill="#000000"/></g></g></svg>
