<?xml version="1.0" encoding="UTF-8"?>
<svg xmlns="http://www.w3.org/2000/svg" version="1.1" width="300" height="300" viewBox="0 0 300 300"><rect x="0" y="0" width="300" height="300" fill="#ffffff"/><g transform="scale(12)"><g transform="translate(0,0)"><path fill-rule="evenodd" d="M8 0L8 1L9 1L9 2L10 2L10 3L11 3L11 1L13 1L13 2L12 2L12 4L11 4L11 5L10 5L10 4L9 4L9 5L10 5L10 8L9 8L9 6L8 6L8 8L9 8L9 10L8 10L8 9L7 9L7 8L6 8L6 9L5 9L5 8L3 8L3 10L2 10L2 8L0 8L0 9L1 9L1 10L0 10L0 12L3 12L3 10L4 10L4 12L5 12L5 10L6 10L6 11L7 11L7 10L8 10L8 11L9 11L9 13L8 13L8 12L6 12L6 13L8 13L8 14L2 14L2 13L0 13L0 17L1 17L1 15L2 15L2 17L5 17L5 16L6 16L6 17L8 17L8 18L9 18L9 20L8 20L8 22L9 22L9 23L8 23L8 25L9 25L9 23L11 23L11 24L10 24L10 25L13 25L13 24L12 24L12 23L13 23L13 22L12 22L12 21L13 21L13 20L14 20L14 24L15 24L15 25L17 25L17 24L16 24L16 23L18 23L18 25L19 25L19 23L18 23L18 22L19 22L19 21L20 21L20 23L21 23L21 16L19 16L19 15L22 15L22 19L23 19L23 20L25 20L25 17L24 17L24 16L25 16L25 10L24 10L24 9L25 9L25 8L24 8L24 9L23 9L23 10L21 10L21 9L19 9L19 8L18 8L18 9L19 9L19 10L16 10L16 9L17 9L17 6L16 6L16 9L15 9L15 6L14 6L14 7L13 7L13 5L12 5L12 4L14 4L14 5L15 5L15 4L16 4L16 5L17 5L17 1L16 1L16 2L15 2L15 3L14 3L14 0L11 0L11 1L9 1L9 0ZM11 5L11 7L12 7L12 9L10 9L10 10L9 10L9 11L10 11L10 10L12 10L12 11L13 11L13 13L11 13L11 12L10 12L10 13L9 13L9 14L8 14L8 15L6 15L6 16L8 16L8 17L9 17L9 18L11 18L11 17L12 17L12 16L14 16L14 17L13 17L13 18L12 18L12 19L11 19L11 21L12 21L12 20L13 20L13 19L14 19L14 17L15 17L15 20L16 20L16 17L15 17L15 16L16 16L16 15L15 15L15 14L14 14L14 15L12 15L12 16L11 16L11 17L9 17L9 16L8 16L8 15L10 15L10 14L13 14L13 13L15 13L15 12L16 12L16 11L15 11L15 9L14 9L14 8L13 8L13 7L12 7L12 5ZM4 9L4 10L5 10L5 9ZM6 9L6 10L7 10L7 9ZM12 9L12 10L13 10L13 11L14 11L14 10L13 10L13 9ZM19 10L19 11L21 11L21 12L22 12L22 13L21 13L21 14L24 14L24 12L22 12L22 11L21 11L21 10ZM17 11L17 14L18 14L18 15L19 15L19 14L20 14L20 13L18 13L18 11ZM4 15L4 16L5 16L5 15ZM17 17L17 20L20 20L20 17ZM18 18L18 19L19 19L19 18ZM23 18L23 19L24 19L24 18ZM9 20L9 21L10 21L10 20ZM15 21L15 22L17 22L17 21ZM22 21L22 24L24 24L24 25L25 25L25 21ZM20 24L20 25L21 25L21 24ZM0 0L0 7L7 7L7 0ZM1 1L1 6L6 6L6 1ZM2 2L2 5L5 5L5 2ZM18 0L18 7L25 7L25 0ZM19 1L19 6L24 6L24 1ZM20 2L20 5L23 5L23 2ZM0 18L0 25L7 25L7 18ZM1 19L1 24L6 24L6 19ZM2 20L2 23L5 23L5 20Z" fill="#000000"/></g></g></svg>
