<?xml version="1.0" encoding="UTF-8"?>
<svg xmlns="http://www.w3.org/2000/svg" version="1.1" width="300" height="300" viewBox="0 0 300 300"><rect x="0" y="0" width="300" height="300" fill="#ffffff"/><g transform="scale(12)"><g transform="translate(0,0)"><path fill-rule="evenodd" d="M8 0L8 4L10 4L10 3L11 3L11 4L12 4L12 3L13 3L13 2L11 2L11 1L10 1L10 0ZM12 0L12 1L13 1L13 0ZM14 0L14 1L16 1L16 0ZM9 2L9 3L10 3L10 2ZM16 2L16 3L14 3L14 4L13 4L13 5L12 5L12 7L11 7L11 6L10 6L10 7L9 7L9 5L8 5L8 7L9 7L9 8L10 8L10 7L11 7L11 9L8 9L8 10L6 10L6 9L7 9L7 8L4 8L4 9L3 9L3 10L4 10L4 9L5 9L5 10L6 10L6 11L5 11L5 15L7 15L7 16L6 16L6 17L8 17L8 18L11 18L11 19L10 19L10 20L9 20L9 19L8 19L8 21L9 21L9 22L10 22L10 25L11 25L11 24L12 24L12 25L13 25L13 24L12 24L12 22L11 22L11 20L12 20L12 21L14 21L14 23L15 23L15 24L14 24L14 25L16 25L16 23L18 23L18 24L17 24L17 25L19 25L19 24L20 24L20 25L25 25L25 24L24 24L24 22L25 22L25 21L24 21L24 20L23 20L23 18L22 18L22 19L21 19L21 17L23 17L23 14L21 14L21 12L22 12L22 13L24 13L24 14L25 14L25 12L24 12L24 9L25 9L25 8L21 8L21 9L20 9L20 8L19 8L19 9L18 9L18 11L17 11L17 9L16 9L16 10L15 10L15 9L14 9L14 8L16 8L16 7L17 7L17 6L16 6L16 7L15 7L15 5L14 5L14 4L16 4L16 5L17 5L17 4L16 4L16 3L17 3L17 2ZM13 5L13 7L12 7L12 8L14 8L14 5ZM0 8L0 11L1 11L1 10L2 10L2 8ZM11 9L11 10L9 10L9 12L7 12L7 11L6 11L6 12L7 12L7 13L6 13L6 14L10 14L10 17L11 17L11 18L12 18L12 19L13 19L13 20L14 20L14 21L16 21L16 22L15 22L15 23L16 23L16 22L17 22L17 21L16 21L16 20L14 20L14 19L16 19L16 18L13 18L13 17L11 17L11 14L14 14L14 15L12 15L12 16L14 16L14 17L15 17L15 16L16 16L16 15L15 15L15 14L14 14L14 13L16 13L16 14L18 14L18 15L17 15L17 16L19 16L19 15L20 15L20 16L21 16L21 15L20 15L20 14L19 14L19 13L17 13L17 12L14 12L14 10L13 10L13 9ZM19 9L19 12L20 12L20 9ZM21 9L21 10L22 10L22 11L23 11L23 10L22 10L22 9ZM11 10L11 11L10 11L10 13L11 13L11 11L12 11L12 13L14 13L14 12L13 12L13 10ZM2 11L2 12L1 12L1 13L0 13L0 14L1 14L1 13L2 13L2 14L3 14L3 15L4 15L4 11ZM2 12L2 13L3 13L3 12ZM8 15L8 17L9 17L9 15ZM0 16L0 17L3 17L3 16ZM4 16L4 17L5 17L5 16ZM17 17L17 20L20 20L20 17ZM24 17L24 18L25 18L25 17ZM18 18L18 19L19 19L19 18ZM19 21L19 23L20 23L20 24L21 24L21 23L22 23L22 22L23 22L23 21ZM8 23L8 25L9 25L9 23ZM0 0L0 7L7 7L7 0ZM1 1L1 6L6 6L6 1ZM2 2L2 5L5 5L5 2ZM18 0L18 7L25 7L25 0ZM19 1L19 6L24 6L24 1ZM20 2L20 5L23 5L23 2ZM0 18L0 25L7 25L7 18ZM1 19L1 24L6 24L6 19ZM2 20L2 23L5 23L5 20Z" fill="#000000"/></g></g></svg>
