<?xml version="1.0" encoding="UTF-8"?>
<svg xmlns="http://www.w3.org/2000/svg" version="1.1" width="300" height="300" viewBox="0 0 300 300"><rect x="0" y="0" width="300" height="300" fill="#ffffff"/><g transform="scale(12)"><g transform="translate(0,0)"><path fill-rule="evenodd" d="M9 0L9 1L11 1L11 2L9 2L9 3L8 3L8 5L9 5L9 6L8 6L8 7L9 7L9 9L10 9L10 10L9 10L9 11L8 11L8 8L5 8L5 9L3 9L3 10L2 10L2 8L0 8L0 10L2 10L2 11L4 11L4 12L3 12L3 13L2 13L2 12L1 12L1 11L0 11L0 17L1 17L1 13L2 13L2 14L3 14L3 15L2 15L2 16L3 16L3 17L7 17L7 16L8 16L8 15L9 15L9 17L8 17L8 20L9 20L9 22L10 22L10 23L8 23L8 25L14 25L14 23L15 23L15 22L20 22L20 21L21 21L21 15L22 15L22 17L23 17L23 16L25 16L25 10L24 10L24 9L23 9L23 10L21 10L21 9L22 9L22 8L20 8L20 9L18 9L18 10L17 10L17 11L18 11L18 10L20 10L20 12L18 12L18 13L22 13L22 12L21 12L21 11L23 11L23 10L24 10L24 14L23 14L23 15L22 15L22 14L21 14L21 15L20 15L20 16L19 16L19 14L18 14L18 15L16 15L16 13L17 13L17 12L13 12L13 13L12 13L12 14L13 14L13 15L12 15L12 17L13 17L13 16L14 16L14 17L15 17L15 18L12 18L12 19L11 19L11 20L9 20L9 17L10 17L10 18L11 18L11 16L10 16L10 15L11 15L11 12L12 12L12 11L13 11L13 10L14 10L14 11L16 11L16 10L15 10L15 9L17 9L17 8L16 8L16 7L17 7L17 3L16 3L16 2L17 2L17 1L16 1L16 0L14 0L14 1L16 1L16 2L15 2L15 3L16 3L16 4L15 4L15 5L16 5L16 7L15 7L15 6L14 6L14 9L13 9L13 6L12 6L12 9L13 9L13 10L11 10L11 8L10 8L10 7L11 7L11 4L12 4L12 5L14 5L14 4L12 4L12 2L13 2L13 1L12 1L12 0ZM9 3L9 5L10 5L10 3ZM9 6L9 7L10 7L10 6ZM5 9L5 10L4 10L4 11L5 11L5 12L4 12L4 14L5 14L5 13L6 13L6 14L9 14L9 15L10 15L10 14L9 14L9 12L10 12L10 11L11 11L11 10L10 10L10 11L9 11L9 12L8 12L8 11L6 11L6 10L7 10L7 9ZM6 12L6 13L7 13L7 12ZM14 13L14 14L15 14L15 13ZM3 15L3 16L4 16L4 15ZM6 15L6 16L7 16L7 15ZM15 16L15 17L16 17L16 16ZM17 17L17 20L20 20L20 17ZM24 17L24 20L22 20L22 21L23 21L23 22L24 22L24 25L25 25L25 17ZM15 18L15 20L14 20L14 19L12 19L12 21L11 21L11 24L12 24L12 23L13 23L13 22L12 22L12 21L14 21L14 22L15 22L15 20L16 20L16 18ZM18 18L18 19L19 19L19 18ZM22 18L22 19L23 19L23 18ZM21 22L21 23L20 23L20 25L21 25L21 23L22 23L22 22ZM16 23L16 25L17 25L17 24L18 24L18 25L19 25L19 24L18 24L18 23ZM0 0L0 7L7 7L7 0ZM1 1L1 6L6 6L6 1ZM2 2L2 5L5 5L5 2ZM18 0L18 7L25 7L25 0ZM19 1L19 6L24 6L24 1ZM20 2L20 5L23 5L23 2ZM0 18L0 25L7 25L7 18ZM1 19L1 24L6 24L6 19ZM2 20L2 23L5 23L5 20Z" fill="#000000"/></g></g></svg>
