<?xml version="1.0" encoding="UTF-8"?>
<svg xmlns="http://www.w3.org/2000/svg" version="1.1" width="300" height="300" viewBox="0 0 300 300"><rect x="0" y="0" width="300" height="300" fill="#ffffff"/><g transform="scale(12)"><g transform="translate(0,0)"><path fill-rule="evenodd" d="M8 0L8 1L10 1L10 0ZM14 0L14 1L13 1L13 2L11 2L11 4L10 4L10 3L9 3L9 2L8 2L8 5L9 5L9 6L8 6L8 7L9 7L9 8L8 8L8 9L9 9L9 10L10 10L10 9L9 9L9 8L10 8L10 7L11 7L11 8L12 8L12 7L13 7L13 6L14 6L14 7L15 7L15 6L14 6L14 5L17 5L17 4L15 4L15 3L17 3L17 0L16 0L16 2L15 2L15 0ZM14 2L14 3L15 3L15 2ZM12 3L12 5L10 5L10 6L9 6L9 7L10 7L10 6L11 6L11 7L12 7L12 5L14 5L14 4L13 4L13 3ZM16 6L16 7L17 7L17 6ZM0 8L0 10L1 10L1 9L2 9L2 10L3 10L3 9L4 9L4 11L2 11L2 12L0 12L0 13L2 13L2 14L1 14L1 15L0 15L0 16L1 16L1 15L4 15L4 17L5 17L5 16L6 16L6 17L8 17L8 18L9 18L9 19L10 19L10 22L11 22L11 23L12 23L12 21L11 21L11 20L12 20L12 19L11 19L11 18L13 18L13 19L15 19L15 18L14 18L14 16L13 16L13 17L12 17L12 16L11 16L11 18L9 18L9 17L10 17L10 16L9 16L9 13L10 13L10 15L11 15L11 14L12 14L12 13L14 13L14 14L13 14L13 15L14 15L14 14L16 14L16 15L15 15L15 16L16 16L16 21L15 21L15 20L14 20L14 21L13 21L13 24L10 24L10 25L16 25L16 23L17 23L17 25L19 25L19 24L18 24L18 23L19 23L19 21L22 21L22 20L21 20L21 17L22 17L22 18L23 18L23 20L24 20L24 21L23 21L23 23L22 23L22 22L20 22L20 23L22 23L22 25L25 25L25 24L23 24L23 23L24 23L24 22L25 22L25 18L23 18L23 17L25 17L25 15L24 15L24 13L25 13L25 12L23 12L23 11L24 11L24 9L25 9L25 8L24 8L24 9L23 9L23 8L20 8L20 9L19 9L19 10L20 10L20 9L21 9L21 10L22 10L22 12L21 12L21 11L20 11L20 12L21 12L21 13L19 13L19 12L18 12L18 10L17 10L17 9L18 9L18 8L14 8L14 9L13 9L13 10L14 10L14 9L16 9L16 10L17 10L17 12L16 12L16 11L11 11L11 13L10 13L10 12L9 12L9 11L7 11L7 10L6 10L6 9L7 9L7 8L6 8L6 9L4 9L4 8ZM5 10L5 11L4 11L4 12L3 12L3 13L4 13L4 12L7 12L7 11L6 11L6 10ZM8 12L8 13L9 13L9 12ZM14 12L14 13L15 13L15 12ZM5 13L5 14L4 14L4 15L6 15L6 16L8 16L8 15L6 15L6 14L7 14L7 13ZM21 13L21 15L22 15L22 16L23 16L23 15L22 15L22 14L23 14L23 13ZM16 15L16 16L17 16L17 15ZM19 15L19 16L20 16L20 15ZM2 16L2 17L3 17L3 16ZM17 17L17 20L20 20L20 17ZM18 18L18 19L19 19L19 18ZM8 21L8 25L9 25L9 21ZM14 21L14 23L16 23L16 22L15 22L15 21ZM20 24L20 25L21 25L21 24ZM0 0L0 7L7 7L7 0ZM1 1L1 6L6 6L6 1ZM2 2L2 5L5 5L5 2ZM18 0L18 7L25 7L25 0ZM19 1L19 6L24 6L24 1ZM20 2L20 5L23 5L23 2ZM0 18L0 25L7 25L7 18ZM1 19L1 24L6 24L6 19ZM2 20L2 23L5 23L5 20Z" fill="#000000"/></g></g></svg>
