<?xml version="1.0" encoding="UTF-8"?>
<svg xmlns="http://www.w3.org/2000/svg" version="1.1" width="300" height="300" viewBox="0 0 300 300"><rect x="0" y="0" width="300" height="300" fill="#ffffff"/><g transform="scale(10.345)"><g transform="translate(0,0)"><path fill-rule="evenodd" d="M9 0L9 1L8 1L8 2L9 2L9 3L8 3L8 4L10 4L10 7L11 7L11 4L12 4L12 5L13 5L13 6L12 6L12 9L13 9L13 8L14 8L14 9L15 9L15 10L17 10L17 9L18 9L18 12L19 12L19 13L18 13L18 14L19 14L19 13L20 13L20 15L21 15L21 17L20 17L20 18L21 18L21 19L20 19L20 23L18 23L18 22L17 22L17 21L12 21L12 19L13 19L13 18L11 18L11 17L10 17L10 18L9 18L9 19L8 19L8 20L6 20L6 19L7 19L7 18L6 18L6 17L9 17L9 16L6 16L6 15L8 15L8 14L9 14L9 15L10 15L10 14L11 14L11 13L12 13L12 14L13 14L13 15L12 15L12 17L13 17L13 16L14 16L14 17L15 17L15 19L14 19L14 20L17 20L17 19L16 19L16 18L17 18L17 17L15 17L15 16L16 16L16 15L17 15L17 14L16 14L16 13L12 13L12 11L13 11L13 10L11 10L11 11L10 11L10 9L11 9L11 8L6 8L6 9L5 9L5 8L0 8L0 10L1 10L1 9L2 9L2 10L4 10L4 11L5 11L5 12L0 12L0 13L1 13L1 14L2 14L2 15L1 15L1 17L0 17L0 21L1 21L1 17L2 17L2 15L4 15L4 14L5 14L5 12L6 12L6 13L7 13L7 12L6 12L6 11L8 11L8 12L9 12L9 13L8 13L8 14L6 14L6 15L5 15L5 16L6 16L6 17L4 17L4 16L3 16L3 17L4 17L4 19L5 19L5 20L6 20L6 21L8 21L8 23L9 23L9 24L8 24L8 29L12 29L12 27L13 27L13 26L11 26L11 24L10 24L10 22L11 22L11 21L12 21L12 22L13 22L13 23L12 23L12 25L13 25L13 24L14 24L14 25L15 25L15 27L14 27L14 28L17 28L17 27L16 27L16 26L17 26L17 25L16 25L16 23L18 23L18 24L20 24L20 25L18 25L18 27L19 27L19 26L20 26L20 25L24 25L24 26L23 26L23 27L22 27L22 26L21 26L21 28L22 28L22 29L23 29L23 27L25 27L25 26L26 26L26 25L27 25L27 28L28 28L28 26L29 26L29 25L28 25L28 24L25 24L25 23L26 23L26 22L28 22L28 21L29 21L29 20L24 20L24 19L23 19L23 20L22 20L22 18L25 18L25 19L27 19L27 18L28 18L28 17L27 17L27 16L28 16L28 14L29 14L29 11L28 11L28 10L29 10L29 9L28 9L28 8L27 8L27 12L25 12L25 13L22 13L22 12L21 12L21 10L23 10L23 12L24 12L24 11L25 11L25 9L26 9L26 8L25 8L25 9L24 9L24 8L23 8L23 9L22 9L22 8L21 8L21 9L20 9L20 12L19 12L19 8L20 8L20 7L21 7L21 6L20 6L20 7L19 7L19 4L17 4L17 2L18 2L18 3L19 3L19 1L17 1L17 0L15 0L15 1L17 1L17 2L16 2L16 4L12 4L12 2L13 2L13 1L11 1L11 2L10 2L10 0ZM20 0L20 2L21 2L21 0ZM14 2L14 3L15 3L15 2ZM10 3L10 4L11 4L11 3ZM16 4L16 5L17 5L17 7L16 7L16 6L15 6L15 7L14 7L14 6L13 6L13 7L14 7L14 8L15 8L15 7L16 7L16 9L17 9L17 8L19 8L19 7L18 7L18 5L17 5L17 4ZM20 4L20 5L21 5L21 4ZM8 5L8 7L9 7L9 5ZM6 9L6 10L7 10L7 9ZM8 9L8 11L9 11L9 9ZM14 11L14 12L15 12L15 11ZM16 11L16 12L17 12L17 11ZM10 12L10 13L9 13L9 14L10 14L10 13L11 13L11 12ZM20 12L20 13L21 13L21 14L22 14L22 13L21 13L21 12ZM3 13L3 14L4 14L4 13ZM25 13L25 14L26 14L26 15L25 15L25 16L24 16L24 15L23 15L23 16L22 16L22 17L25 17L25 16L27 16L27 14L28 14L28 13ZM14 15L14 16L15 16L15 15ZM18 15L18 16L19 16L19 15ZM18 17L18 18L19 18L19 17ZM26 17L26 18L27 18L27 17ZM2 18L2 20L3 20L3 21L4 21L4 20L3 20L3 18ZM10 20L10 21L11 21L11 20ZM21 21L21 24L24 24L24 21ZM25 21L25 22L26 22L26 21ZM22 22L22 23L23 23L23 22ZM14 23L14 24L15 24L15 23ZM9 24L9 25L10 25L10 24ZM10 26L10 27L9 27L9 28L10 28L10 27L11 27L11 26ZM19 28L19 29L20 29L20 28ZM0 0L0 7L7 7L7 0ZM1 1L1 6L6 6L6 1ZM2 2L2 5L5 5L5 2ZM22 0L22 7L29 7L29 0ZM23 1L23 6L28 6L28 1ZM24 2L24 5L27 5L27 2ZM0 22L0 29L7 29L7 22ZM1 23L1 28L6 28L6 23ZM2 24L2 27L5 27L5 24Z" fill="#000000"/></g></g></svg>
