<?xml version="1.0" encoding="UTF-8"?>
<svg xmlns="http://www.w3.org/2000/svg" version="1.1" width="300" height="300" viewBox="0 0 300 300"><rect x="0" y="0" width="300" height="300" fill="#ffffff"/><g transform="scale(10.345)"><g transform="translate(0,0)"><path fill-rule="evenodd" d="M9 0L9 1L8 1L8 3L9 3L9 4L8 4L8 8L6 8L6 9L4 9L4 8L3 8L3 9L2 9L2 8L0 8L0 10L4 10L4 11L7 11L7 12L6 12L6 13L7 13L7 14L5 14L5 15L4 15L4 14L3 14L3 13L2 13L2 11L1 11L1 12L0 12L0 14L1 14L1 16L0 16L0 17L1 17L1 18L0 18L0 19L1 19L1 18L2 18L2 17L1 17L1 16L2 16L2 14L3 14L3 15L4 15L4 16L5 16L5 15L7 15L7 16L6 16L6 17L4 17L4 18L3 18L3 19L2 19L2 21L4 21L4 20L5 20L5 21L7 21L7 20L9 20L9 21L8 21L8 23L9 23L9 25L8 25L8 26L9 26L9 27L8 27L8 29L9 29L9 28L12 28L12 29L14 29L14 28L12 28L12 24L14 24L14 25L13 25L13 27L15 27L15 25L17 25L17 27L16 27L16 28L15 28L15 29L16 29L16 28L17 28L17 29L18 29L18 28L20 28L20 29L22 29L22 27L21 27L21 26L20 26L20 25L22 25L22 26L24 26L24 27L23 27L23 28L25 28L25 29L28 29L28 27L29 27L29 26L28 26L28 25L29 25L29 23L28 23L28 21L27 21L27 20L25 20L25 19L24 19L24 20L23 20L23 18L24 18L24 17L21 17L21 16L24 16L24 15L25 15L25 16L26 16L26 14L24 14L24 15L21 15L21 12L20 12L20 11L22 11L22 10L23 10L23 12L22 12L22 13L23 13L23 12L25 12L25 13L26 13L26 12L29 12L29 11L27 11L27 10L29 10L29 9L28 9L28 8L26 8L26 9L25 9L25 8L22 8L22 9L20 9L20 10L18 10L18 9L17 9L17 8L19 8L19 6L20 6L20 7L21 7L21 6L20 6L20 5L19 5L19 4L21 4L21 3L20 3L20 2L21 2L21 0L18 0L18 1L17 1L17 0L16 0L16 1L14 1L14 0L12 0L12 1L11 1L11 2L9 2L9 1L10 1L10 0ZM16 1L16 2L14 2L14 3L16 3L16 4L15 4L15 8L14 8L14 6L13 6L13 3L12 3L12 4L9 4L9 5L10 5L10 6L9 6L9 7L10 7L10 8L8 8L8 9L6 9L6 10L7 10L7 11L8 11L8 12L7 12L7 13L12 13L12 12L13 12L13 15L16 15L16 16L15 16L15 17L13 17L13 16L12 16L12 14L9 14L9 15L11 15L11 16L9 16L9 17L8 17L8 16L7 16L7 17L6 17L6 18L4 18L4 19L3 19L3 20L4 20L4 19L6 19L6 20L7 20L7 19L8 19L8 18L10 18L10 17L11 17L11 19L10 19L10 20L11 20L11 19L12 19L12 20L13 20L13 21L14 21L14 22L15 22L15 23L14 23L14 24L16 24L16 23L17 23L17 24L18 24L18 26L19 26L19 25L20 25L20 22L19 22L19 21L20 21L20 20L21 20L21 19L22 19L22 18L21 18L21 17L19 17L19 15L20 15L20 16L21 16L21 15L20 15L20 14L19 14L19 13L20 13L20 12L18 12L18 10L17 10L17 9L16 9L16 10L14 10L14 9L15 9L15 8L17 8L17 7L18 7L18 6L17 6L17 5L18 5L18 3L16 3L16 2L17 2L17 1ZM18 1L18 2L20 2L20 1ZM16 4L16 5L17 5L17 4ZM11 5L11 6L10 6L10 7L11 7L11 6L12 6L12 8L13 8L13 6L12 6L12 5ZM16 6L16 7L17 7L17 6ZM10 8L10 10L9 10L9 11L11 11L11 10L12 10L12 9L11 9L11 8ZM23 9L23 10L25 10L25 9ZM26 9L26 10L27 10L27 9ZM14 11L14 12L15 12L15 11ZM4 12L4 13L5 13L5 12ZM17 12L17 13L18 13L18 12ZM1 13L1 14L2 14L2 13ZM7 14L7 15L8 15L8 14ZM28 14L28 15L27 15L27 17L25 17L25 18L26 18L26 19L28 19L28 20L29 20L29 18L28 18L28 15L29 15L29 14ZM17 15L17 17L16 17L16 18L17 18L17 19L16 19L16 20L14 20L14 18L13 18L13 20L14 20L14 21L16 21L16 22L17 22L17 23L18 23L18 24L19 24L19 23L18 23L18 21L17 21L17 20L18 20L18 19L19 19L19 20L20 20L20 19L21 19L21 18L20 18L20 19L19 19L19 18L18 18L18 15ZM11 16L11 17L12 17L12 16ZM6 18L6 19L7 19L7 18ZM0 20L0 21L1 21L1 20ZM9 21L9 23L10 23L10 24L11 24L11 21ZM21 21L21 24L24 24L24 21ZM26 21L26 22L27 22L27 21ZM22 22L22 23L23 23L23 22ZM26 24L26 26L25 26L25 25L24 25L24 26L25 26L25 27L26 27L26 28L27 28L27 27L28 27L28 26L27 26L27 25L28 25L28 24ZM9 25L9 26L10 26L10 27L11 27L11 26L10 26L10 25ZM26 26L26 27L27 27L27 26ZM0 0L0 7L7 7L7 0ZM1 1L1 6L6 6L6 1ZM2 2L2 5L5 5L5 2ZM22 0L22 7L29 7L29 0ZM23 1L23 6L28 6L28 1ZM24 2L24 5L27 5L27 2ZM0 22L0 29L7 29L7 22ZM1 23L1 28L6 28L6 23ZM2 24L2 27L5 27L5 24Z" fill="#000000"/></g></g></svg>
