<?xml version="1.0" encoding="UTF-8"?>
<svg xmlns="http://www.w3.org/2000/svg" version="1.1" width="300" height="300" viewBox="0 0 300 300"><rect x="0" y="0" width="300" height="300" fill="#ffffff"/><g transform="scale(12)"><g transform="translate(0,0)"><path fill-rule="evenodd" d="M8 0L8 1L9 1L9 2L8 2L8 5L9 5L9 4L11 4L11 5L10 5L10 10L8 10L8 9L9 9L9 8L8 8L8 9L7 9L7 8L6 8L6 9L7 9L7 10L5 10L5 9L4 9L4 8L0 8L0 10L1 10L1 9L2 9L2 10L3 10L3 9L4 9L4 12L3 12L3 11L2 11L2 12L0 12L0 13L2 13L2 12L3 12L3 14L5 14L5 15L3 15L3 17L4 17L4 16L6 16L6 17L8 17L8 18L9 18L9 19L10 19L10 20L9 20L9 21L8 21L8 25L12 25L12 24L15 24L15 23L16 23L16 22L14 22L14 23L11 23L11 21L10 21L10 20L12 20L12 19L11 19L11 16L12 16L12 17L13 17L13 16L12 16L12 14L13 14L13 15L15 15L15 14L16 14L16 15L17 15L17 16L14 16L14 17L15 17L15 18L13 18L13 21L15 21L15 18L16 18L16 21L17 21L17 25L19 25L19 24L20 24L20 25L21 25L21 24L20 24L20 23L21 23L21 22L22 22L22 25L25 25L25 24L23 24L23 23L24 23L24 22L25 22L25 21L24 21L24 20L23 20L23 22L22 22L22 20L21 20L21 19L25 19L25 18L23 18L23 17L25 17L25 15L24 15L24 13L25 13L25 12L23 12L23 11L24 11L24 9L25 9L25 8L24 8L24 9L23 9L23 8L20 8L20 9L18 9L18 8L17 8L17 9L16 9L16 10L17 10L17 9L18 9L18 12L17 12L17 11L16 11L16 12L15 12L15 10L14 10L14 9L15 9L15 8L16 8L16 7L17 7L17 6L16 6L16 7L15 7L15 6L14 6L14 9L13 9L13 6L12 6L12 5L13 5L13 4L14 4L14 5L17 5L17 4L15 4L15 1L14 1L14 0L12 0L12 1L11 1L11 0L10 0L10 1L9 1L9 0ZM16 0L16 1L17 1L17 0ZM13 1L13 2L11 2L11 4L12 4L12 3L13 3L13 2L14 2L14 1ZM16 2L16 3L17 3L17 2ZM8 6L8 7L9 7L9 6ZM11 6L11 8L12 8L12 6ZM11 9L11 10L12 10L12 9ZM20 9L20 10L19 10L19 11L21 11L21 12L19 12L19 14L17 14L17 12L16 12L16 14L17 14L17 15L19 15L19 16L21 16L21 15L22 15L22 16L23 16L23 15L22 15L22 14L23 14L23 13L21 13L21 12L22 12L22 10L21 10L21 9ZM13 10L13 11L11 11L11 13L6 13L6 12L9 12L9 11L5 11L5 12L4 12L4 13L5 13L5 14L11 14L11 13L12 13L12 12L13 12L13 11L14 11L14 10ZM20 13L20 14L19 14L19 15L21 15L21 13ZM1 14L1 15L0 15L0 16L1 16L1 15L2 15L2 14ZM6 15L6 16L8 16L8 17L9 17L9 15ZM10 15L10 16L11 16L11 15ZM17 17L17 20L20 20L20 17ZM21 17L21 18L22 18L22 17ZM18 18L18 19L19 19L19 18ZM9 21L9 23L10 23L10 24L11 24L11 23L10 23L10 21ZM19 22L19 23L20 23L20 22ZM0 0L0 7L7 7L7 0ZM1 1L1 6L6 6L6 1ZM2 2L2 5L5 5L5 2ZM18 0L18 7L25 7L25 0ZM19 1L19 6L24 6L24 1ZM20 2L20 5L23 5L23 2ZM0 18L0 25L7 25L7 18ZM1 19L1 24L6 24L6 19ZM2 20L2 23L5 23L5 20Z" fill="#000000"/></g></g></svg>
