<?xml version="1.0" encoding="UTF-8"?>
<svg xmlns="http://www.w3.org/2000/svg" version="1.1" width="300" height="300" viewBox="0 0 300 300"><rect x="0" y="0" width="300" height="300" fill="#ffffff"/><g transform="scale(12)"><g transform="translate(0,0)"><path fill-rule="evenodd" d="M9 0L9 1L10 1L10 2L8 2L8 3L9 3L9 4L10 4L10 5L9 5L9 6L8 6L8 8L4 8L4 9L3 9L3 8L0 8L0 10L2 10L2 9L3 9L3 11L0 11L0 12L3 12L3 11L4 11L4 13L3 13L3 15L4 15L4 14L5 14L5 15L7 15L7 14L10 14L10 15L8 15L8 16L10 16L10 15L11 15L11 14L12 14L12 15L13 15L13 16L14 16L14 14L15 14L15 13L13 13L13 12L14 12L14 11L15 11L15 12L16 12L16 13L17 13L17 14L16 14L16 15L17 15L17 14L18 14L18 15L19 15L19 14L20 14L20 13L21 13L21 14L22 14L22 15L21 15L21 16L15 16L15 17L16 17L16 18L14 18L14 17L8 17L8 21L9 21L9 22L8 22L8 25L9 25L9 22L10 22L10 25L13 25L13 24L14 24L14 23L15 23L15 25L19 25L19 23L18 23L18 24L17 24L17 22L14 22L14 21L15 21L15 20L16 20L16 21L20 21L20 25L22 25L22 23L21 23L21 21L22 21L22 19L21 19L21 18L22 18L22 15L25 15L25 14L24 14L24 13L25 13L25 12L24 12L24 11L25 11L25 9L24 9L24 11L23 11L23 14L22 14L22 13L21 13L21 12L22 12L22 11L18 11L18 9L19 9L19 8L16 8L16 7L17 7L17 5L15 5L15 4L17 4L17 3L15 3L15 2L16 2L16 1L15 1L15 0L12 0L12 1L11 1L11 0ZM14 1L14 2L11 2L11 3L12 3L12 4L11 4L11 5L10 5L10 6L9 6L9 7L10 7L10 6L11 6L11 7L12 7L12 6L13 6L13 7L14 7L14 6L15 6L15 7L16 7L16 6L15 6L15 5L14 5L14 4L13 4L13 3L14 3L14 2L15 2L15 1ZM11 5L11 6L12 6L12 5ZM13 5L13 6L14 6L14 5ZM9 8L9 9L8 9L8 11L6 11L6 10L7 10L7 9L4 9L4 11L6 11L6 12L8 12L8 13L10 13L10 14L11 14L11 13L12 13L12 12L13 12L13 10L10 10L10 8ZM13 8L13 9L16 9L16 8ZM22 8L22 9L21 9L21 10L23 10L23 8ZM9 10L9 11L8 11L8 12L9 12L9 11L10 11L10 10ZM15 10L15 11L16 11L16 12L17 12L17 11L16 11L16 10ZM11 11L11 12L12 12L12 11ZM19 12L19 13L20 13L20 12ZM1 13L1 14L0 14L0 15L1 15L1 16L0 16L0 17L1 17L1 16L2 16L2 17L3 17L3 16L2 16L2 15L1 15L1 14L2 14L2 13ZM6 13L6 14L7 14L7 13ZM5 16L5 17L7 17L7 16ZM17 17L17 20L20 20L20 17ZM23 17L23 19L25 19L25 18L24 18L24 17ZM9 18L9 19L10 19L10 20L9 20L9 21L10 21L10 22L11 22L11 24L13 24L13 23L14 23L14 22L11 22L11 21L12 21L12 20L13 20L13 19L14 19L14 18ZM18 18L18 19L19 19L19 18ZM11 19L11 20L12 20L12 19ZM23 20L23 21L24 21L24 20ZM24 22L24 23L23 23L23 25L25 25L25 24L24 24L24 23L25 23L25 22ZM0 0L0 7L7 7L7 0ZM1 1L1 6L6 6L6 1ZM2 2L2 5L5 5L5 2ZM18 0L18 7L25 7L25 0ZM19 1L19 6L24 6L24 1ZM20 2L20 5L23 5L23 2ZM0 18L0 25L7 25L7 18ZM1 19L1 24L6 24L6 19ZM2 20L2 23L5 23L5 20Z" fill="#000000"/></g></g></svg>
