<?xml version="1.0" encoding="UTF-8"?>
<svg xmlns="http://www.w3.org/2000/svg" version="1.1" width="300" height="300" viewBox="0 0 300 300"><rect x="0" y="0" width="300" height="300" fill="#ffffff"/><g transform="scale(12)"><g transform="translate(0,0)"><path fill-rule="evenodd" d="M10 0L10 1L9 1L9 2L8 2L8 3L9 3L9 5L10 5L10 7L11 7L11 6L12 6L12 7L13 7L13 8L15 8L15 10L16 10L16 11L15 11L15 12L16 12L16 13L17 13L17 14L16 14L16 15L17 15L17 14L18 14L18 15L19 15L19 16L15 16L15 17L16 17L16 18L14 18L14 17L8 17L8 16L14 16L14 15L13 15L13 14L15 14L15 13L13 13L13 12L14 12L14 10L13 10L13 9L11 9L11 10L10 10L10 9L9 9L9 6L8 6L8 8L4 8L4 9L8 9L8 12L6 12L6 13L4 13L4 11L7 11L7 10L3 10L3 11L2 11L2 10L0 10L0 12L1 12L1 14L0 14L0 15L1 15L1 16L0 16L0 17L1 17L1 16L3 16L3 15L4 15L4 16L5 16L5 15L4 15L4 14L6 14L6 15L7 15L7 14L8 14L8 16L6 16L6 17L8 17L8 21L9 21L9 22L8 22L8 25L9 25L9 24L14 24L14 23L15 23L15 25L22 25L22 23L23 23L23 25L25 25L25 24L24 24L24 23L25 23L25 22L24 22L24 23L23 23L23 22L22 22L22 19L21 19L21 18L22 18L22 15L25 15L25 14L24 14L24 13L25 13L25 12L24 12L24 11L25 11L25 9L24 9L24 11L23 11L23 14L22 14L22 13L21 13L21 12L22 12L22 11L18 11L18 9L19 9L19 8L15 8L15 6L16 6L16 7L17 7L17 6L16 6L16 5L15 5L15 4L16 4L16 3L17 3L17 1L15 1L15 2L16 2L16 3L13 3L13 4L12 4L12 5L10 5L10 3L9 3L9 2L10 2L10 1L11 1L11 0ZM13 0L13 2L14 2L14 0ZM11 2L11 3L12 3L12 2ZM13 4L13 5L12 5L12 6L13 6L13 7L14 7L14 6L15 6L15 5L14 5L14 4ZM13 5L13 6L14 6L14 5ZM0 8L0 9L3 9L3 8ZM22 8L22 9L21 9L21 10L23 10L23 8ZM9 10L9 11L10 11L10 10ZM11 10L11 11L12 11L12 12L11 12L11 13L12 13L12 12L13 12L13 10ZM1 11L1 12L2 12L2 11ZM16 11L16 12L17 12L17 11ZM8 12L8 13L10 13L10 12ZM19 12L19 13L20 13L20 14L21 14L21 15L20 15L20 16L21 16L21 15L22 15L22 14L21 14L21 13L20 13L20 12ZM2 13L2 14L1 14L1 15L3 15L3 13ZM6 13L6 14L7 14L7 13ZM9 14L9 15L10 15L10 14ZM11 14L11 15L12 15L12 14ZM17 17L17 20L20 20L20 17ZM23 17L23 21L24 21L24 19L25 19L25 18L24 18L24 17ZM9 18L9 19L10 19L10 18ZM11 18L11 19L12 19L12 20L11 20L11 21L10 21L10 20L9 20L9 21L10 21L10 22L11 22L11 23L12 23L12 22L11 22L11 21L12 21L12 20L13 20L13 19L14 19L14 18ZM18 18L18 19L19 19L19 18ZM15 20L15 21L14 21L14 22L13 22L13 23L14 23L14 22L17 22L17 24L18 24L18 23L20 23L20 24L21 24L21 23L20 23L20 21L16 21L16 20ZM0 0L0 7L7 7L7 0ZM1 1L1 6L6 6L6 1ZM2 2L2 5L5 5L5 2ZM18 0L18 7L25 7L25 0ZM19 1L19 6L24 6L24 1ZM20 2L20 5L23 5L23 2ZM0 18L0 25L7 25L7 18ZM1 19L1 24L6 24L6 19ZM2 20L2 23L5 23L5 20Z" fill="#000000"/></g></g></svg>
