<?xml version="1.0" encoding="UTF-8"?>
<svg xmlns="http://www.w3.org/2000/svg" version="1.1" width="300" height="300" viewBox="0 0 300 300"><rect x="0" y="0" width="300" height="300" fill="#ffffff"/><g transform="scale(10.345)"><g transform="translate(0,0)"><path fill-rule="evenodd" d="M8 0L8 1L9 1L9 2L8 2L8 5L9 5L9 4L11 4L11 5L10 5L10 10L9 10L9 8L8 8L8 9L7 9L7 8L6 8L6 9L4 9L4 8L0 8L0 9L2 9L2 11L3 11L3 12L1 12L1 13L0 13L0 17L2 17L2 20L1 20L1 21L3 21L3 20L4 20L4 21L5 21L5 19L3 19L3 18L4 18L4 15L7 15L7 14L6 14L6 13L7 13L7 12L8 12L8 13L11 13L11 14L9 14L9 15L10 15L10 16L12 16L12 17L13 17L13 16L12 16L12 14L13 14L13 15L14 15L14 18L13 18L13 21L15 21L15 22L14 22L14 23L11 23L11 21L8 21L8 20L10 20L10 18L9 18L9 17L8 17L8 16L6 16L6 17L5 17L5 18L6 18L6 19L8 19L8 20L6 20L6 21L8 21L8 22L9 22L9 25L8 25L8 29L10 29L10 27L11 27L11 26L12 26L12 28L11 28L11 29L12 29L12 28L14 28L14 27L15 27L15 28L16 28L16 27L15 27L15 26L14 26L14 25L13 25L13 26L12 26L12 24L16 24L16 23L15 23L15 22L17 22L17 20L18 20L18 22L19 22L19 20L20 20L20 25L19 25L19 26L20 26L20 27L21 27L21 28L19 28L19 27L18 27L18 28L17 28L17 29L21 29L21 28L22 28L22 29L25 29L25 28L22 28L22 27L24 27L24 25L26 25L26 26L25 26L25 27L26 27L26 26L27 26L27 25L28 25L28 27L27 27L27 28L26 28L26 29L28 29L28 27L29 27L29 25L28 25L28 24L26 24L26 23L28 23L28 21L27 21L27 20L28 20L28 19L27 19L27 18L26 18L26 16L25 16L25 15L27 15L27 17L28 17L28 18L29 18L29 17L28 17L28 15L29 15L29 12L26 12L26 11L27 11L27 10L29 10L29 8L28 8L28 9L27 9L27 8L24 8L24 9L22 9L22 8L21 8L21 6L20 6L20 5L19 5L19 4L16 4L16 3L17 3L17 2L19 2L19 3L20 3L20 4L21 4L21 2L19 2L19 1L16 1L16 0L12 0L12 1L11 1L11 0L10 0L10 1L9 1L9 0ZM20 0L20 1L21 1L21 0ZM14 1L14 2L11 2L11 4L12 4L12 3L13 3L13 5L12 5L12 6L11 6L11 8L12 8L12 6L13 6L13 8L14 8L14 9L15 9L15 7L16 7L16 6L15 6L15 5L16 5L16 4L15 4L15 5L14 5L14 3L16 3L16 1ZM13 5L13 6L14 6L14 7L15 7L15 6L14 6L14 5ZM17 5L17 7L18 7L18 8L17 8L17 9L16 9L16 10L14 10L14 11L11 11L11 13L12 13L12 12L13 12L13 14L14 14L14 15L15 15L15 16L16 16L16 17L15 17L15 18L16 18L16 19L15 19L15 21L16 21L16 19L18 19L18 20L19 20L19 19L20 19L20 20L24 20L24 19L25 19L25 22L26 22L26 18L25 18L25 17L24 17L24 18L23 18L23 16L24 16L24 15L25 15L25 14L26 14L26 13L25 13L25 12L22 12L22 13L23 13L23 14L21 14L21 8L20 8L20 6L19 6L19 7L18 7L18 5ZM8 6L8 7L9 7L9 6ZM18 8L18 10L16 10L16 12L17 12L17 11L18 11L18 12L19 12L19 13L20 13L20 12L19 12L19 11L18 11L18 10L20 10L20 8ZM3 9L3 10L4 10L4 9ZM6 9L6 10L5 10L5 11L6 11L6 12L7 12L7 11L8 11L8 10L7 10L7 9ZM11 9L11 10L12 10L12 9ZM25 9L25 10L22 10L22 11L26 11L26 10L27 10L27 9ZM6 10L6 11L7 11L7 10ZM14 12L14 14L15 14L15 12ZM1 13L1 14L3 14L3 15L4 15L4 14L5 14L5 13ZM16 13L16 16L17 16L17 13ZM18 14L18 15L21 15L21 16L20 16L20 17L19 17L19 18L18 18L18 19L19 19L19 18L21 18L21 19L22 19L22 18L21 18L21 16L23 16L23 15L24 15L24 14L23 14L23 15L21 15L21 14ZM27 14L27 15L28 15L28 14ZM1 15L1 16L2 16L2 15ZM6 17L6 18L7 18L7 17ZM0 18L0 19L1 19L1 18ZM8 18L8 19L9 19L9 18ZM11 19L11 20L12 20L12 19ZM21 21L21 24L24 24L24 21ZM22 22L22 23L23 23L23 22ZM10 23L10 24L11 24L11 23ZM18 23L18 24L19 24L19 23ZM9 25L9 26L10 26L10 25ZM16 25L16 26L17 26L17 25ZM20 25L20 26L21 26L21 25ZM22 25L22 26L23 26L23 25ZM13 26L13 27L14 27L14 26ZM0 0L0 7L7 7L7 0ZM1 1L1 6L6 6L6 1ZM2 2L2 5L5 5L5 2ZM22 0L22 7L29 7L29 0ZM23 1L23 6L28 6L28 1ZM24 2L24 5L27 5L27 2ZM0 22L0 29L7 29L7 22ZM1 23L1 28L6 28L6 23ZM2 24L2 27L5 27L5 24Z" fill="#000000"/></g></g></svg>
