<?xml version="1.0" encoding="UTF-8"?>
<svg xmlns="http://www.w3.org/2000/svg" version="1.1" width="300" height="300" viewBox="0 0 300 300"><rect x="0" y="0" width="300" height="300" fill="#ffffff"/><g transform="scale(12)"><g transform="translate(0,0)"><path fill-rule="evenodd" d="M9 0L9 1L8 1L8 2L9 2L9 3L8 3L8 4L10 4L10 7L11 7L11 4L12 4L12 5L13 5L13 4L14 4L14 8L13 8L13 6L12 6L12 9L13 9L13 10L11 10L11 11L10 11L10 9L11 9L11 8L6 8L6 9L9 9L9 11L8 11L8 13L7 13L7 12L6 12L6 13L5 13L5 14L6 14L6 15L7 15L7 16L6 16L6 17L8 17L8 19L9 19L9 20L8 20L8 25L11 25L11 24L9 24L9 22L10 22L10 23L11 23L11 21L12 21L12 22L13 22L13 23L12 23L12 25L13 25L13 24L14 24L14 25L15 25L15 24L17 24L17 25L20 25L20 24L22 24L22 25L25 25L25 20L22 20L22 19L25 19L25 17L24 17L24 18L22 18L22 17L23 17L23 16L25 16L25 10L24 10L24 8L23 8L23 9L22 9L22 8L21 8L21 10L20 10L20 8L19 8L19 9L18 9L18 8L15 8L15 6L16 6L16 7L17 7L17 6L16 6L16 5L17 5L17 4L16 4L16 2L17 2L17 0L16 0L16 1L15 1L15 3L13 3L13 4L12 4L12 2L13 2L13 1L14 1L14 0L13 0L13 1L11 1L11 2L10 2L10 0ZM10 3L10 4L11 4L11 3ZM15 4L15 5L16 5L16 4ZM8 5L8 7L9 7L9 5ZM0 8L0 9L1 9L1 10L0 10L0 12L2 12L2 11L1 11L1 10L2 10L2 9L4 9L4 10L3 10L3 12L5 12L5 11L7 11L7 10L5 10L5 8ZM14 9L14 10L13 10L13 11L12 11L12 13L11 13L11 12L10 12L10 13L11 13L11 14L9 14L9 16L8 16L8 17L9 17L9 18L10 18L10 20L11 20L11 18L13 18L13 17L14 17L14 19L12 19L12 21L14 21L14 22L15 22L15 23L14 23L14 24L15 24L15 23L18 23L18 24L20 24L20 23L21 23L21 22L23 22L23 23L22 23L22 24L24 24L24 22L23 22L23 21L22 21L22 20L21 20L21 22L17 22L17 21L15 21L15 20L14 20L14 19L16 19L16 16L17 16L17 15L18 15L18 14L19 14L19 16L20 16L20 15L21 15L21 12L20 12L20 10L18 10L18 9L17 9L17 10L16 10L16 13L15 13L15 11L14 11L14 10L15 10L15 9ZM17 10L17 11L18 11L18 10ZM23 10L23 11L22 11L22 12L24 12L24 10ZM13 12L13 13L12 13L12 14L13 14L13 13L14 13L14 12ZM17 12L17 13L19 13L19 12ZM0 13L0 17L1 17L1 13ZM6 13L6 14L7 14L7 13ZM22 13L22 16L21 16L21 17L22 17L22 16L23 16L23 14L24 14L24 13ZM2 14L2 17L3 17L3 15L4 15L4 14ZM15 14L15 15L16 15L16 14ZM12 15L12 17L13 17L13 15ZM4 16L4 17L5 17L5 16ZM14 16L14 17L15 17L15 16ZM17 17L17 20L20 20L20 17ZM18 18L18 19L19 19L19 18ZM0 0L0 7L7 7L7 0ZM1 1L1 6L6 6L6 1ZM2 2L2 5L5 5L5 2ZM18 0L18 7L25 7L25 0ZM19 1L19 6L24 6L24 1ZM20 2L20 5L23 5L23 2ZM0 18L0 25L7 25L7 18ZM1 19L1 24L6 24L6 19ZM2 20L2 23L5 23L5 20Z" fill="#000000"/></g></g></svg>
