<?xml version="1.0" encoding="UTF-8"?>
<svg xmlns="http://www.w3.org/2000/svg" version="1.1" width="300" height="300" viewBox="0 0 300 300"><rect x="0" y="0" width="300" height="300" fill="#ffffff"/><g transform="scale(12)"><g transform="translate(0,0)"><path fill-rule="evenodd" d="M8 0L8 4L9 4L9 5L8 5L8 7L9 7L9 6L10 6L10 9L11 9L11 8L12 8L12 9L14 9L14 8L15 8L15 3L16 3L16 5L17 5L17 0L16 0L16 2L15 2L15 3L14 3L14 4L12 4L12 5L13 5L13 6L12 6L12 7L11 7L11 3L10 3L10 2L9 2L9 0ZM14 0L14 1L15 1L15 0ZM11 1L11 2L12 2L12 3L13 3L13 1ZM13 6L13 8L14 8L14 6ZM16 6L16 7L17 7L17 6ZM0 8L0 11L1 11L1 12L0 12L0 14L1 14L1 12L2 12L2 16L0 16L0 17L2 17L2 16L3 16L3 17L7 17L7 16L6 16L6 15L7 15L7 14L5 14L5 13L8 13L8 10L9 10L9 12L10 12L10 11L11 11L11 12L13 12L13 14L11 14L11 13L9 13L9 14L8 14L8 15L9 15L9 16L10 16L10 17L8 17L8 18L9 18L9 19L8 19L8 21L9 21L9 22L10 22L10 23L11 23L11 24L13 24L13 25L14 25L14 24L13 24L13 23L12 23L12 22L10 22L10 21L13 21L13 22L16 22L16 23L15 23L15 25L16 25L16 23L18 23L18 24L17 24L17 25L25 25L25 24L24 24L24 22L25 22L25 21L24 21L24 19L22 19L22 18L21 18L21 17L23 17L23 14L21 14L21 12L22 12L22 13L24 13L24 14L25 14L25 12L24 12L24 9L25 9L25 8L21 8L21 9L20 9L20 8L19 8L19 9L18 9L18 11L17 11L17 8L16 8L16 10L15 10L15 11L14 11L14 12L13 12L13 11L12 11L12 10L9 10L9 9L7 9L7 8L4 8L4 9L7 9L7 10L3 10L3 9L2 9L2 8ZM1 9L1 11L2 11L2 12L3 12L3 16L5 16L5 15L4 15L4 13L5 13L5 12L7 12L7 11L5 11L5 12L4 12L4 11L3 11L3 10L2 10L2 9ZM19 9L19 12L20 12L20 9ZM21 9L21 10L22 10L22 11L23 11L23 10L22 10L22 9ZM14 12L14 13L16 13L16 14L18 14L18 15L17 15L17 16L21 16L21 14L20 14L20 15L19 15L19 13L17 13L17 12ZM10 14L10 16L11 16L11 17L10 17L10 18L12 18L12 20L13 20L13 21L14 21L14 19L16 19L16 18L14 18L14 17L15 17L15 16L16 16L16 15L15 15L15 14L13 14L13 16L14 16L14 17L12 17L12 16L11 16L11 14ZM14 15L14 16L15 16L15 15ZM17 17L17 20L20 20L20 17ZM24 17L24 18L25 18L25 17ZM13 18L13 19L14 19L14 18ZM18 18L18 19L19 19L19 18ZM10 19L10 20L9 20L9 21L10 21L10 20L11 20L11 19ZM15 20L15 21L16 21L16 22L17 22L17 21L16 21L16 20ZM19 21L19 24L21 24L21 23L22 23L22 22L23 22L23 21L22 21L22 22L21 22L21 21ZM8 23L8 25L9 25L9 23ZM0 0L0 7L7 7L7 0ZM1 1L1 6L6 6L6 1ZM2 2L2 5L5 5L5 2ZM18 0L18 7L25 7L25 0ZM19 1L19 6L24 6L24 1ZM20 2L20 5L23 5L23 2ZM0 18L0 25L7 25L7 18ZM1 19L1 24L6 24L6 19ZM2 20L2 23L5 23L5 20Z" fill="#000000"/></g></g></svg>
