<?xml version="1.0" encoding="UTF-8"?>
<svg xmlns="http://www.w3.org/2000/svg" version="1.1" width="300" height="300" viewBox="0 0 300 300"><rect x="0" y="0" width="300" height="300" fill="#ffffff"/><g transform="scale(14.286)"><g transform="translate(0,0)"><path fill-rule="evenodd" d="M8 0L8 1L9 1L9 2L8 2L8 5L9 5L9 6L8 6L8 7L9 7L9 6L10 6L10 7L11 7L11 8L10 8L10 9L11 9L11 11L10 11L10 10L9 10L9 8L8 8L8 10L4 10L4 8L0 8L0 9L1 9L1 10L0 10L0 11L1 11L1 10L2 10L2 9L3 9L3 11L2 11L2 12L0 12L0 13L8 13L8 14L9 14L9 13L10 13L10 12L11 12L11 14L10 14L10 16L12 16L12 18L11 18L11 19L10 19L10 17L8 17L8 21L9 21L9 19L10 19L10 21L11 21L11 19L13 19L13 21L15 21L15 19L16 19L16 21L19 21L19 20L18 20L18 19L19 19L19 18L18 18L18 19L16 19L16 17L15 17L15 16L14 16L14 15L15 15L15 14L16 14L16 15L17 15L17 14L18 14L18 16L17 16L17 17L19 17L19 16L20 16L20 17L21 17L21 16L20 16L20 15L19 15L19 13L18 13L18 12L17 12L17 13L16 13L16 12L15 12L15 14L13 14L13 12L14 12L14 11L15 11L15 10L13 10L13 12L12 12L12 9L14 9L14 8L13 8L13 6L12 6L12 7L11 7L11 5L13 5L13 3L12 3L12 4L10 4L10 3L11 3L11 0L10 0L10 1L9 1L9 0ZM12 0L12 1L13 1L13 0ZM6 8L6 9L7 9L7 8ZM11 8L11 9L12 9L12 8ZM16 8L16 10L17 10L17 11L18 11L18 10L19 10L19 11L21 11L21 10L19 10L19 8ZM20 8L20 9L21 9L21 8ZM4 11L4 12L8 12L8 13L9 13L9 12L10 12L10 11ZM20 12L20 14L21 14L21 12ZM12 14L12 15L13 15L13 14ZM13 16L13 19L14 19L14 16ZM20 19L20 20L21 20L21 19ZM0 0L0 7L7 7L7 0ZM1 1L1 6L6 6L6 1ZM2 2L2 5L5 5L5 2ZM14 0L14 7L21 7L21 0ZM15 1L15 6L20 6L20 1ZM16 2L16 5L19 5L19 2ZM0 14L0 21L7 21L7 14ZM1 15L1 20L6 20L6 15ZM2 16L2 19L5 19L5 16Z" fill="#000000"/></g></g></svg>
