<?xml version="1.0" encoding="UTF-8"?>
<svg xmlns="http://www.w3.org/2000/svg" version="1.1" width="300" height="300" viewBox="0 0 300 300"><rect x="0" y="0" width="300" height="300" fill="#ffffff"/><g transform="scale(10.345)"><g transform="translate(0,0)"><path fill-rule="evenodd" d="M9 0L9 1L10 1L10 2L8 2L8 3L9 3L9 4L10 4L10 5L9 5L9 6L8 6L8 8L4 8L4 9L3 9L3 8L0 8L0 9L3 9L3 10L4 10L4 11L2 11L2 12L3 12L3 13L2 13L2 14L3 14L3 13L5 13L5 14L6 14L6 15L5 15L5 16L3 16L3 17L2 17L2 16L1 16L1 15L0 15L0 16L1 16L1 18L0 18L0 19L1 19L1 20L0 20L0 21L1 21L1 20L2 20L2 21L3 21L3 20L4 20L4 21L5 21L5 20L6 20L6 21L8 21L8 25L9 25L9 26L8 26L8 29L9 29L9 28L12 28L12 29L13 29L13 28L12 28L12 27L9 27L9 26L12 26L12 24L14 24L14 26L13 26L13 27L14 27L14 26L16 26L16 27L15 27L15 28L18 28L18 27L19 27L19 29L21 29L21 28L22 28L22 29L23 29L23 28L26 28L26 29L29 29L29 28L28 28L28 27L29 27L29 22L28 22L28 21L27 21L27 22L25 22L25 21L26 21L26 19L29 19L29 18L28 18L28 17L29 17L29 16L28 16L28 15L29 15L29 13L28 13L28 15L27 15L27 18L26 18L26 19L24 19L24 20L22 20L22 19L23 19L23 16L24 16L24 15L25 15L25 17L26 17L26 15L25 15L25 14L26 14L26 11L27 11L27 12L29 12L29 9L27 9L27 8L26 8L26 9L25 9L25 10L23 10L23 8L20 8L20 7L21 7L21 5L19 5L19 6L18 6L18 7L17 7L17 6L16 6L16 8L15 8L15 6L14 6L14 5L15 5L15 4L16 4L16 3L17 3L17 4L21 4L21 3L20 3L20 2L21 2L21 1L19 1L19 0L18 0L18 1L17 1L17 0L16 0L16 1L14 1L14 0L12 0L12 1L10 1L10 0ZM13 1L13 2L14 2L14 1ZM18 1L18 2L17 2L17 3L19 3L19 1ZM11 2L11 3L12 3L12 4L11 4L11 5L10 5L10 6L9 6L9 7L10 7L10 6L11 6L11 8L12 8L12 10L10 10L10 8L9 8L9 10L10 10L10 11L8 11L8 9L4 9L4 10L7 10L7 11L6 11L6 12L5 12L5 11L4 11L4 12L5 12L5 13L6 13L6 14L7 14L7 15L6 15L6 16L8 16L8 17L9 17L9 19L8 19L8 18L7 18L7 17L3 17L3 18L4 18L4 19L5 19L5 18L7 18L7 19L6 19L6 20L8 20L8 21L10 21L10 22L9 22L9 25L10 25L10 22L11 22L11 21L12 21L12 20L13 20L13 21L14 21L14 22L13 22L13 23L14 23L14 22L15 22L15 23L16 23L16 24L17 24L17 23L16 23L16 22L15 22L15 21L17 21L17 22L18 22L18 24L19 24L19 25L18 25L18 26L17 26L17 27L18 27L18 26L19 26L19 27L20 27L20 28L21 28L21 27L22 27L22 26L23 26L23 25L20 25L20 20L21 20L21 19L22 19L22 18L21 18L21 19L20 19L20 18L19 18L19 17L22 17L22 16L21 16L21 15L23 15L23 14L25 14L25 12L24 12L24 11L20 11L20 10L19 10L19 9L20 9L20 8L19 8L19 7L20 7L20 6L19 6L19 7L18 7L18 8L17 8L17 9L16 9L16 10L14 10L14 8L12 8L12 6L13 6L13 7L14 7L14 6L13 6L13 5L14 5L14 4L13 4L13 3L12 3L12 2ZM15 2L15 3L16 3L16 2ZM17 9L17 10L18 10L18 9ZM26 9L26 10L25 10L25 11L26 11L26 10L27 10L27 11L28 11L28 10L27 10L27 9ZM0 10L0 11L1 11L1 10ZM13 10L13 11L14 11L14 10ZM11 11L11 12L12 12L12 13L11 13L11 14L10 14L10 13L9 13L9 14L8 14L8 16L9 16L9 14L10 14L10 16L11 16L11 18L10 18L10 19L9 19L9 20L10 20L10 21L11 21L11 20L12 20L12 19L11 19L11 18L12 18L12 16L14 16L14 18L13 18L13 19L14 19L14 18L18 18L18 19L15 19L15 20L19 20L19 18L18 18L18 17L15 17L15 14L17 14L17 12L18 12L18 11L15 11L15 12L16 12L16 13L15 13L15 14L14 14L14 13L13 13L13 12L12 12L12 11ZM19 11L19 14L18 14L18 15L17 15L17 16L18 16L18 15L19 15L19 14L21 14L21 12L20 12L20 11ZM0 12L0 13L1 13L1 12ZM6 12L6 13L7 13L7 12ZM22 12L22 14L23 14L23 12ZM13 14L13 15L14 15L14 14ZM11 15L11 16L12 16L12 15ZM1 18L1 19L2 19L2 18ZM21 21L21 24L24 24L24 21ZM22 22L22 23L23 23L23 22ZM11 23L11 24L12 24L12 23ZM26 23L26 26L25 26L25 25L24 25L24 26L25 26L25 27L26 27L26 28L27 28L27 27L28 27L28 26L27 26L27 25L28 25L28 24L27 24L27 23ZM20 26L20 27L21 27L21 26ZM26 26L26 27L27 27L27 26ZM0 0L0 7L7 7L7 0ZM1 1L1 6L6 6L6 1ZM2 2L2 5L5 5L5 2ZM22 0L22 7L29 7L29 0ZM23 1L23 6L28 6L28 1ZM24 2L24 5L27 5L27 2ZM0 22L0 29L7 29L7 22ZM1 23L1 28L6 28L6 23ZM2 24L2 27L5 27L5 24Z" fill="#000000"/></g></g></svg>
