<?xml version="1.0" encoding="UTF-8"?>
<svg xmlns="http://www.w3.org/2000/svg" version="1.1" width="300" height="300" viewBox="0 0 300 300"><rect x="0" y="0" width="300" height="300" fill="#ffffff"/><g transform="scale(12)"><g transform="translate(0,0)"><path fill-rule="evenodd" d="M10 0L10 1L9 1L9 2L8 2L8 3L9 3L9 5L10 5L10 7L11 7L11 8L12 8L12 9L11 9L11 10L10 10L10 9L9 9L9 6L8 6L8 8L4 8L4 9L3 9L3 8L0 8L0 9L1 9L1 10L0 10L0 12L6 12L6 13L5 13L5 15L7 15L7 16L4 16L4 17L8 17L8 21L9 21L9 22L8 22L8 25L9 25L9 22L10 22L10 23L11 23L11 24L10 24L10 25L11 25L11 24L12 24L12 25L13 25L13 24L12 24L12 23L11 23L11 22L12 22L12 20L14 20L14 22L13 22L13 23L14 23L14 22L15 22L15 25L22 25L22 19L21 19L21 18L22 18L22 15L25 15L25 14L24 14L24 13L25 13L25 12L24 12L24 11L25 11L25 9L24 9L24 11L23 11L23 14L22 14L22 13L21 13L21 12L22 12L22 11L18 11L18 9L19 9L19 8L17 8L17 9L16 9L16 11L15 11L15 10L14 10L14 7L15 7L15 6L16 6L16 7L17 7L17 6L16 6L16 4L17 4L17 3L15 3L15 2L17 2L17 1L16 1L16 0L14 0L14 1L13 1L13 2L14 2L14 4L15 4L15 6L14 6L14 7L13 7L13 3L12 3L12 2L11 2L11 3L12 3L12 5L10 5L10 3L9 3L9 2L10 2L10 1L11 1L11 0ZM11 6L11 7L12 7L12 8L13 8L13 7L12 7L12 6ZM22 8L22 9L21 9L21 10L23 10L23 8ZM2 9L2 10L1 10L1 11L6 11L6 12L8 12L8 11L6 11L6 10L7 10L7 9L6 9L6 10L3 10L3 9ZM9 10L9 11L10 11L10 10ZM13 10L13 11L14 11L14 10ZM11 11L11 12L12 12L12 14L11 14L11 15L10 15L10 17L9 17L9 18L10 18L10 20L12 20L12 19L11 19L11 18L10 18L10 17L12 17L12 16L13 16L13 17L14 17L14 18L13 18L13 19L14 19L14 18L16 18L16 17L15 17L15 16L19 16L19 15L18 15L18 14L17 14L17 13L16 13L16 12L17 12L17 11L16 11L16 12L15 12L15 13L14 13L14 12L12 12L12 11ZM9 12L9 13L10 13L10 12ZM19 12L19 13L20 13L20 16L21 16L21 15L22 15L22 14L21 14L21 13L20 13L20 12ZM2 13L2 15L1 15L1 14L0 14L0 15L1 15L1 16L0 16L0 17L1 17L1 16L3 16L3 15L4 15L4 14L3 14L3 13ZM6 13L6 14L8 14L8 15L9 15L9 14L8 14L8 13ZM13 14L13 15L14 15L14 14ZM16 14L16 15L17 15L17 14ZM11 15L11 16L12 16L12 15ZM17 17L17 20L20 20L20 17ZM23 17L23 21L25 21L25 20L24 20L24 19L25 19L25 18L24 18L24 17ZM18 18L18 19L19 19L19 18ZM15 20L15 22L17 22L17 24L18 24L18 23L19 23L19 24L21 24L21 23L20 23L20 21L16 21L16 20ZM10 21L10 22L11 22L11 21ZM24 22L24 23L23 23L23 25L25 25L25 24L24 24L24 23L25 23L25 22ZM0 0L0 7L7 7L7 0ZM1 1L1 6L6 6L6 1ZM2 2L2 5L5 5L5 2ZM18 0L18 7L25 7L25 0ZM19 1L19 6L24 6L24 1ZM20 2L20 5L23 5L23 2ZM0 18L0 25L7 25L7 18ZM1 19L1 24L6 24L6 19ZM2 20L2 23L5 23L5 20Z" fill="#000000"/></g></g></svg>
