<?xml version="1.0" encoding="UTF-8"?>
<svg xmlns="http://www.w3.org/2000/svg" version="1.1" width="300" height="300" viewBox="0 0 300 300"><rect x="0" y="0" width="300" height="300" fill="#ffffff"/><g transform="scale(12)"><g transform="translate(0,0)"><path fill-rule="evenodd" d="M8 0L8 4L10 4L10 3L11 3L11 4L12 4L12 2L11 2L11 0ZM12 0L12 1L13 1L13 2L14 2L14 3L13 3L13 5L11 5L11 6L10 6L10 7L9 7L9 5L8 5L8 7L9 7L9 8L10 8L10 7L11 7L11 6L12 6L12 8L11 8L11 9L9 9L9 10L8 10L8 9L7 9L7 8L4 8L4 9L5 9L5 10L3 10L3 9L2 9L2 8L0 8L0 9L1 9L1 12L0 12L0 14L2 14L2 15L4 15L4 17L5 17L5 15L4 15L4 14L5 14L5 13L7 13L7 14L6 14L6 15L7 15L7 16L6 16L6 17L7 17L7 16L8 16L8 18L9 18L9 17L10 17L10 16L11 16L11 17L12 17L12 18L11 18L11 19L10 19L10 20L9 20L9 19L8 19L8 21L9 21L9 23L8 23L8 25L9 25L9 24L10 24L10 25L12 25L12 24L13 24L13 25L16 25L16 23L18 23L18 24L17 24L17 25L19 25L19 24L20 24L20 25L25 25L25 24L24 24L24 22L25 22L25 20L23 20L23 19L22 19L22 18L21 18L21 17L23 17L23 14L21 14L21 12L22 12L22 13L24 13L24 14L25 14L25 12L24 12L24 9L25 9L25 8L21 8L21 9L20 9L20 8L19 8L19 9L18 9L18 11L17 11L17 6L16 6L16 7L15 7L15 6L14 6L14 7L15 7L15 8L16 8L16 9L14 9L14 10L15 10L15 11L14 11L14 12L17 12L17 13L19 13L19 14L21 14L21 16L20 16L20 15L19 15L19 16L17 16L17 15L18 15L18 14L16 14L16 13L14 13L14 14L13 14L13 15L12 15L12 16L11 16L11 15L10 15L10 14L9 14L9 15L7 15L7 14L8 14L8 13L9 13L9 12L6 12L6 11L7 11L7 10L8 10L8 11L9 11L9 10L11 10L11 11L10 11L10 13L11 13L11 12L12 12L12 13L13 13L13 12L12 12L12 11L13 11L13 9L12 9L12 8L13 8L13 5L14 5L14 4L15 4L15 5L17 5L17 4L16 4L16 3L17 3L17 2L16 2L16 3L15 3L15 1L17 1L17 0ZM9 2L9 3L10 3L10 2ZM6 9L6 10L5 10L5 11L6 11L6 10L7 10L7 9ZM11 9L11 10L12 10L12 9ZM19 9L19 12L20 12L20 9ZM21 9L21 10L22 10L22 11L23 11L23 10L22 10L22 9ZM2 10L2 12L3 12L3 13L5 13L5 12L4 12L4 11L3 11L3 10ZM13 15L13 16L12 16L12 17L13 17L13 18L14 18L14 17L13 17L13 16L16 16L16 15ZM0 16L0 17L3 17L3 16ZM17 17L17 20L20 20L20 17ZM24 17L24 18L25 18L25 17ZM15 18L15 19L14 19L14 21L16 21L16 22L13 22L13 21L12 21L12 20L13 20L13 19L12 19L12 20L11 20L11 21L10 21L10 22L11 22L11 24L12 24L12 23L13 23L13 24L14 24L14 23L16 23L16 22L17 22L17 21L16 21L16 20L15 20L15 19L16 19L16 18ZM18 18L18 19L19 19L19 18ZM19 21L19 23L20 23L20 24L21 24L21 22L22 22L22 23L23 23L23 21ZM0 0L0 7L7 7L7 0ZM1 1L1 6L6 6L6 1ZM2 2L2 5L5 5L5 2ZM18 0L18 7L25 7L25 0ZM19 1L19 6L24 6L24 1ZM20 2L20 5L23 5L23 2ZM0 18L0 25L7 25L7 18ZM1 19L1 24L6 24L6 19ZM2 20L2 23L5 23L5 20Z" fill="#000000"/></g></g></svg>
