<?xml version="1.0" encoding="UTF-8"?>
<svg xmlns="http://www.w3.org/2000/svg" version="1.1" width="300" height="300" viewBox="0 0 300 300"><rect x="0" y="0" width="300" height="300" fill="#ffffff"/><g transform="scale(12)"><g transform="translate(0,0)"><path fill-rule="evenodd" d="M9 0L9 1L10 1L10 2L8 2L8 3L9 3L9 4L10 4L10 5L9 5L9 6L8 6L8 8L4 8L4 9L3 9L3 8L0 8L0 10L2 10L2 11L1 11L1 12L0 12L0 13L3 13L3 12L4 12L4 16L2 16L2 15L3 15L3 14L2 14L2 15L1 15L1 14L0 14L0 15L1 15L1 16L0 16L0 17L1 17L1 16L2 16L2 17L8 17L8 21L9 21L9 20L10 20L10 21L11 21L11 22L12 22L12 23L9 23L9 22L8 22L8 25L11 25L11 24L12 24L12 25L13 25L13 24L14 24L14 23L15 23L15 25L19 25L19 24L20 24L20 25L22 25L22 23L23 23L23 25L25 25L25 24L24 24L24 23L25 23L25 22L24 22L24 23L23 23L23 22L22 22L22 19L21 19L21 18L22 18L22 15L25 15L25 14L24 14L24 13L25 13L25 12L24 12L24 11L25 11L25 9L24 9L24 11L23 11L23 14L22 14L22 13L21 13L21 12L22 12L22 11L18 11L18 9L19 9L19 8L16 8L16 7L17 7L17 5L15 5L15 4L17 4L17 3L15 3L15 2L16 2L16 1L15 1L15 0L12 0L12 1L10 1L10 0ZM14 1L14 2L13 2L13 3L12 3L12 2L11 2L11 3L12 3L12 4L11 4L11 5L10 5L10 6L9 6L9 7L10 7L10 6L11 6L11 8L12 8L12 6L13 6L13 7L14 7L14 6L15 6L15 7L16 7L16 6L15 6L15 5L14 5L14 4L13 4L13 3L14 3L14 2L15 2L15 1ZM13 5L13 6L14 6L14 5ZM9 8L9 10L10 10L10 11L8 11L8 13L10 13L10 14L11 14L11 15L12 15L12 14L11 14L11 13L12 13L12 12L11 12L11 11L13 11L13 9L16 9L16 8L13 8L13 9L12 9L12 10L10 10L10 8ZM22 8L22 9L21 9L21 10L23 10L23 8ZM4 9L4 10L3 10L3 11L5 11L5 15L6 15L6 16L7 16L7 15L6 15L6 14L7 14L7 13L6 13L6 12L7 12L7 11L6 11L6 10L8 10L8 9L6 9L6 10L5 10L5 9ZM15 10L15 11L14 11L14 12L13 12L13 13L15 13L15 14L14 14L14 16L13 16L13 17L14 17L14 18L11 18L11 16L10 16L10 15L9 15L9 14L8 14L8 16L10 16L10 17L9 17L9 19L10 19L10 18L11 18L11 19L12 19L12 20L11 20L11 21L12 21L12 20L13 20L13 19L14 19L14 18L16 18L16 17L15 17L15 16L21 16L21 15L22 15L22 14L21 14L21 13L20 13L20 12L19 12L19 13L20 13L20 15L18 15L18 14L17 14L17 13L16 13L16 12L17 12L17 11L16 11L16 10ZM15 11L15 12L16 12L16 11ZM16 14L16 15L17 15L17 14ZM17 17L17 20L20 20L20 17ZM23 17L23 19L24 19L24 20L25 20L25 18L24 18L24 17ZM18 18L18 19L19 19L19 18ZM15 20L15 21L14 21L14 22L13 22L13 23L14 23L14 22L17 22L17 24L18 24L18 23L20 23L20 24L21 24L21 23L22 23L22 22L21 22L21 23L20 23L20 21L16 21L16 20ZM0 0L0 7L7 7L7 0ZM1 1L1 6L6 6L6 1ZM2 2L2 5L5 5L5 2ZM18 0L18 7L25 7L25 0ZM19 1L19 6L24 6L24 1ZM20 2L20 5L23 5L23 2ZM0 18L0 25L7 25L7 18ZM1 19L1 24L6 24L6 19ZM2 20L2 23L5 23L5 20Z" fill="#000000"/></g></g></svg>
