<?xml version="1.0" encoding="UTF-8"?>
<svg xmlns="http://www.w3.org/2000/svg" version="1.1" width="300" height="300" viewBox="0 0 300 300"><rect x="0" y="0" width="300" height="300" fill="#ffffff"/><g transform="scale(12)"><g transform="translate(0,0)"><path fill-rule="evenodd" d="M11 0L11 1L9 1L9 2L11 2L11 1L13 1L13 2L12 2L12 4L14 4L14 3L13 3L13 2L14 2L14 0ZM15 2L15 3L16 3L16 8L15 8L15 6L14 6L14 8L13 8L13 9L12 9L12 7L13 7L13 5L11 5L11 6L10 6L10 8L9 8L9 9L8 9L8 8L5 8L5 9L7 9L7 10L4 10L4 9L3 9L3 10L2 10L2 8L0 8L0 11L1 11L1 10L2 10L2 13L1 13L1 12L0 12L0 17L1 17L1 14L3 14L3 15L2 15L2 17L3 17L3 15L4 15L4 16L5 16L5 17L8 17L8 20L9 20L9 22L10 22L10 23L8 23L8 25L9 25L9 24L10 24L10 25L13 25L13 23L14 23L14 24L15 24L15 25L17 25L17 24L18 24L18 25L20 25L20 24L19 24L19 23L17 23L17 22L19 22L19 21L20 21L20 22L21 22L21 19L22 19L22 18L21 18L21 16L19 16L19 15L18 15L18 14L17 14L17 13L16 13L16 9L17 9L17 2ZM8 3L8 5L10 5L10 4L9 4L9 3ZM8 6L8 7L9 7L9 6ZM11 6L11 7L12 7L12 6ZM10 8L10 10L7 10L7 11L4 11L4 10L3 10L3 11L4 11L4 12L3 12L3 14L4 14L4 13L5 13L5 14L7 14L7 15L6 15L6 16L7 16L7 15L10 15L10 16L8 16L8 17L10 17L10 18L9 18L9 20L10 20L10 18L12 18L12 17L11 17L11 14L13 14L13 15L12 15L12 16L14 16L14 15L15 15L15 16L16 16L16 15L17 15L17 14L16 14L16 15L15 15L15 14L14 14L14 13L15 13L15 10L14 10L14 9L15 9L15 8L14 8L14 9L13 9L13 10L12 10L12 9L11 9L11 8ZM20 8L20 9L19 9L19 10L18 10L18 11L17 11L17 12L18 12L18 13L19 13L19 14L20 14L20 15L22 15L22 17L23 17L23 16L25 16L25 10L24 10L24 9L23 9L23 10L21 10L21 9L22 9L22 8ZM10 10L10 11L9 11L9 13L7 13L7 12L6 12L6 13L7 13L7 14L9 14L9 13L10 13L10 11L11 11L11 10ZM19 10L19 11L20 11L20 10ZM23 10L23 11L21 11L21 12L22 12L22 13L20 13L20 14L22 14L22 15L23 15L23 14L24 14L24 10ZM12 11L12 12L11 12L11 13L13 13L13 11ZM13 17L13 18L15 18L15 20L16 20L16 17ZM17 17L17 20L20 20L20 17ZM24 17L24 19L23 19L23 20L22 20L22 21L23 21L23 22L24 22L24 25L25 25L25 21L23 21L23 20L25 20L25 17ZM18 18L18 19L19 19L19 18ZM13 19L13 20L11 20L11 21L12 21L12 22L11 22L11 23L10 23L10 24L12 24L12 23L13 23L13 22L17 22L17 21L13 21L13 20L14 20L14 19ZM0 0L0 7L7 7L7 0ZM1 1L1 6L6 6L6 1ZM2 2L2 5L5 5L5 2ZM18 0L18 7L25 7L25 0ZM19 1L19 6L24 6L24 1ZM20 2L20 5L23 5L23 2ZM0 18L0 25L7 25L7 18ZM1 19L1 24L6 24L6 19ZM2 20L2 23L5 23L5 20Z" fill="#000000"/></g></g></svg>
