<?xml version="1.0" encoding="UTF-8"?>
<svg xmlns="http://www.w3.org/2000/svg" version="1.1" width="300" height="300" viewBox="0 0 300 300"><rect x="0" y="0" width="300" height="300" fill="#ffffff"/><g transform="scale(12)"><g transform="translate(0,0)"><path fill-rule="evenodd" d="M8 0L8 2L9 2L9 3L10 3L10 5L12 5L12 7L13 7L13 5L14 5L14 8L11 8L11 6L10 6L10 8L9 8L9 4L8 4L8 9L7 9L7 8L5 8L5 9L3 9L3 8L0 8L0 11L1 11L1 12L0 12L0 13L1 13L1 14L0 14L0 15L2 15L2 16L0 16L0 17L3 17L3 15L4 15L4 16L5 16L5 17L8 17L8 18L11 18L11 19L12 19L12 22L11 22L11 23L12 23L12 24L10 24L10 23L9 23L9 22L10 22L10 19L8 19L8 20L9 20L9 22L8 22L8 25L12 25L12 24L13 24L13 25L14 25L14 24L15 24L15 22L16 22L16 25L17 25L17 24L18 24L18 25L19 25L19 24L20 24L20 25L21 25L21 23L22 23L22 22L21 22L21 19L22 19L22 18L21 18L21 15L23 15L23 17L24 17L24 15L25 15L25 14L24 14L24 15L23 15L23 14L19 14L19 13L22 13L22 12L21 12L21 11L22 11L22 10L23 10L23 11L25 11L25 8L23 8L23 9L22 9L22 10L21 10L21 11L20 11L20 9L21 9L21 8L17 8L17 6L16 6L16 7L15 7L15 5L16 5L16 3L17 3L17 1L16 1L16 0L14 0L14 2L12 2L12 4L11 4L11 1L12 1L12 0L10 0L10 1L9 1L9 0ZM15 1L15 2L16 2L16 1ZM13 3L13 4L12 4L12 5L13 5L13 4L14 4L14 3ZM14 8L14 9L13 9L13 10L12 10L12 9L10 9L10 10L7 10L7 9L6 9L6 10L4 10L4 11L6 11L6 12L5 12L5 14L4 14L4 15L5 15L5 14L7 14L7 15L6 15L6 16L8 16L8 14L9 14L9 15L11 15L11 16L13 16L13 18L15 18L15 19L13 19L13 20L14 20L14 22L12 22L12 23L13 23L13 24L14 24L14 22L15 22L15 20L16 20L16 18L15 18L15 17L16 17L16 16L17 16L17 15L16 15L16 16L15 16L15 15L13 15L13 14L12 14L12 12L14 12L14 14L15 14L15 12L17 12L17 13L16 13L16 14L18 14L18 11L19 11L19 12L20 12L20 11L19 11L19 9L17 9L17 11L15 11L15 12L14 12L14 9L15 9L15 10L16 10L16 8ZM2 9L2 10L1 10L1 11L3 11L3 9ZM6 10L6 11L7 11L7 10ZM11 10L11 12L12 12L12 10ZM8 11L8 12L9 12L9 14L10 14L10 11ZM1 12L1 13L3 13L3 12ZM6 12L6 13L7 13L7 12ZM24 12L24 13L25 13L25 12ZM2 14L2 15L3 15L3 14ZM11 14L11 15L12 15L12 14ZM18 15L18 16L20 16L20 15ZM9 16L9 17L10 17L10 16ZM14 16L14 17L15 17L15 16ZM11 17L11 18L12 18L12 17ZM17 17L17 20L20 20L20 17ZM18 18L18 19L19 19L19 18ZM24 18L24 19L23 19L23 20L25 20L25 18ZM16 21L16 22L17 22L17 21ZM18 21L18 23L19 23L19 21ZM23 21L23 23L25 23L25 22L24 22L24 21ZM24 24L24 25L25 25L25 24ZM0 0L0 7L7 7L7 0ZM1 1L1 6L6 6L6 1ZM2 2L2 5L5 5L5 2ZM18 0L18 7L25 7L25 0ZM19 1L19 6L24 6L24 1ZM20 2L20 5L23 5L23 2ZM0 18L0 25L7 25L7 18ZM1 19L1 24L6 24L6 19ZM2 20L2 23L5 23L5 20Z" fill="#000000"/></g></g></svg>
