<?xml version="1.0" encoding="UTF-8"?>
<svg xmlns="http://www.w3.org/2000/svg" version="1.1" width="300" height="300" viewBox="0 0 300 300"><rect x="0" y="0" width="300" height="300" fill="#ffffff"/><g transform="scale(12)"><g transform="translate(0,0)"><path fill-rule="evenodd" d="M10 0L10 1L9 1L9 2L8 2L8 3L9 3L9 5L10 5L10 7L11 7L11 10L10 10L10 9L9 9L9 6L8 6L8 8L4 8L4 9L3 9L3 8L0 8L0 10L2 10L2 9L3 9L3 12L2 12L2 11L1 11L1 12L0 12L0 13L1 13L1 14L0 14L0 15L1 15L1 16L0 16L0 17L1 17L1 16L2 16L2 17L4 17L4 16L5 16L5 17L7 17L7 16L5 16L5 15L7 15L7 14L8 14L8 16L14 16L14 14L13 14L13 12L16 12L16 13L17 13L17 14L16 14L16 15L17 15L17 14L18 14L18 15L20 15L20 13L21 13L21 14L22 14L22 15L21 15L21 16L15 16L15 17L16 17L16 18L14 18L14 19L13 19L13 20L12 20L12 19L11 19L11 18L13 18L13 17L8 17L8 21L9 21L9 20L10 20L10 22L8 22L8 25L11 25L11 24L12 24L12 23L13 23L13 24L14 24L14 23L15 23L15 25L19 25L19 24L20 24L20 25L22 25L22 23L23 23L23 25L25 25L25 24L24 24L24 23L25 23L25 22L24 22L24 23L23 23L23 22L22 22L22 19L21 19L21 18L22 18L22 15L25 15L25 14L24 14L24 13L25 13L25 12L24 12L24 11L25 11L25 9L24 9L24 11L23 11L23 14L22 14L22 13L21 13L21 12L22 12L22 11L18 11L18 9L19 9L19 8L16 8L16 7L17 7L17 5L14 5L14 7L13 7L13 6L12 6L12 5L13 5L13 4L17 4L17 1L15 1L15 0L13 0L13 2L14 2L14 3L13 3L13 4L12 4L12 5L10 5L10 3L9 3L9 2L10 2L10 1L11 1L11 0ZM14 1L14 2L15 2L15 1ZM11 2L11 3L12 3L12 2ZM11 6L11 7L12 7L12 6ZM15 6L15 7L16 7L16 6ZM13 8L13 10L11 10L11 11L12 11L12 12L13 12L13 11L14 11L14 10L15 10L15 11L16 11L16 12L17 12L17 11L16 11L16 10L15 10L15 9L16 9L16 8ZM22 8L22 9L21 9L21 10L23 10L23 8ZM4 9L4 10L5 10L5 11L6 11L6 12L3 12L3 14L1 14L1 15L2 15L2 16L3 16L3 14L4 14L4 13L5 13L5 14L7 14L7 13L6 13L6 12L8 12L8 13L9 13L9 15L12 15L12 14L10 14L10 12L8 12L8 11L10 11L10 10L9 10L9 9L8 9L8 11L6 11L6 10L7 10L7 9ZM1 12L1 13L2 13L2 12ZM19 12L19 13L20 13L20 12ZM17 17L17 20L20 20L20 17ZM23 17L23 21L24 21L24 19L25 19L25 18L24 18L24 17ZM9 18L9 19L10 19L10 20L11 20L11 21L12 21L12 20L11 20L11 19L10 19L10 18ZM18 18L18 19L19 19L19 18ZM15 20L15 21L14 21L14 22L13 22L13 23L14 23L14 22L17 22L17 24L18 24L18 23L20 23L20 21L16 21L16 20ZM10 22L10 23L9 23L9 24L10 24L10 23L12 23L12 22ZM21 22L21 23L22 23L22 22ZM0 0L0 7L7 7L7 0ZM1 1L1 6L6 6L6 1ZM2 2L2 5L5 5L5 2ZM18 0L18 7L25 7L25 0ZM19 1L19 6L24 6L24 1ZM20 2L20 5L23 5L23 2ZM0 18L0 25L7 25L7 18ZM1 19L1 24L6 24L6 19ZM2 20L2 23L5 23L5 20Z" fill="#000000"/></g></g></svg>
