<?xml version="1.0" encoding="UTF-8"?>
<svg xmlns="http://www.w3.org/2000/svg" version="1.1" width="300" height="300" viewBox="0 0 300 300"><rect x="0" y="0" width="300" height="300" fill="#ffffff"/><g transform="scale(12)"><g transform="translate(0,0)"><path fill-rule="evenodd" d="M8 0L8 2L10 2L10 4L8 4L8 9L7 9L7 8L5 8L5 9L3 9L3 8L0 8L0 13L1 13L1 14L0 14L0 15L3 15L3 14L4 14L4 16L5 16L5 17L8 17L8 18L9 18L9 17L10 17L10 18L11 18L11 19L8 19L8 20L9 20L9 22L8 22L8 25L9 25L9 23L10 23L10 22L11 22L11 25L12 25L12 22L13 22L13 23L15 23L15 25L17 25L17 24L18 24L18 25L21 25L21 22L22 22L22 21L21 21L21 19L22 19L22 18L21 18L21 15L23 15L23 17L24 17L24 15L25 15L25 14L24 14L24 15L23 15L23 14L21 14L21 15L20 15L20 13L22 13L22 12L21 12L21 11L22 11L22 10L23 10L23 11L25 11L25 8L23 8L23 9L22 9L22 10L21 10L21 11L20 11L20 9L21 9L21 8L16 8L16 10L15 10L15 12L14 12L14 13L16 13L16 14L13 14L13 11L14 11L14 8L15 8L15 6L14 6L14 8L13 8L13 6L12 6L12 8L11 8L11 6L10 6L10 8L9 8L9 5L12 5L12 4L11 4L11 3L12 3L12 2L13 2L13 3L14 3L14 4L13 4L13 5L16 5L16 3L17 3L17 1L16 1L16 0L15 0L15 1L14 1L14 0L10 0L10 1L9 1L9 0ZM11 1L11 2L12 2L12 1ZM13 1L13 2L14 2L14 1ZM15 1L15 2L16 2L16 1ZM16 6L16 7L17 7L17 6ZM5 9L5 10L7 10L7 9ZM8 9L8 10L9 10L9 11L10 11L10 16L11 16L11 18L12 18L12 16L14 16L14 17L13 17L13 18L15 18L15 20L16 20L16 17L15 17L15 16L17 16L17 15L18 15L18 16L20 16L20 15L19 15L19 14L18 14L18 12L19 12L19 11L18 11L18 12L17 12L17 10L18 10L18 9L17 9L17 10L16 10L16 13L17 13L17 15L13 15L13 14L12 14L12 12L11 12L11 10L12 10L12 9L11 9L11 10L9 10L9 9ZM1 10L1 12L2 12L2 13L6 13L6 14L5 14L5 16L7 16L7 15L6 15L6 14L9 14L9 13L6 13L6 12L8 12L8 11L5 11L5 12L3 12L3 11L4 11L4 10ZM24 12L24 13L25 13L25 12ZM11 14L11 15L12 15L12 14ZM0 16L0 17L2 17L2 16ZM8 16L8 17L9 17L9 16ZM17 17L17 20L20 20L20 17ZM18 18L18 19L19 19L19 18ZM24 18L24 19L23 19L23 20L24 20L24 19L25 19L25 18ZM11 19L11 20L10 20L10 21L11 21L11 22L12 22L12 20L13 20L13 22L16 22L16 23L17 23L17 22L16 22L16 21L14 21L14 19ZM18 21L18 24L19 24L19 22L21 22L21 21ZM23 21L23 23L25 23L25 22L24 22L24 21ZM13 24L13 25L14 25L14 24ZM24 24L24 25L25 25L25 24ZM0 0L0 7L7 7L7 0ZM1 1L1 6L6 6L6 1ZM2 2L2 5L5 5L5 2ZM18 0L18 7L25 7L25 0ZM19 1L19 6L24 6L24 1ZM20 2L20 5L23 5L23 2ZM0 18L0 25L7 25L7 18ZM1 19L1 24L6 24L6 19ZM2 20L2 23L5 23L5 20Z" fill="#000000"/></g></g></svg>
