<?xml version="1.0" encoding="UTF-8"?>
<svg xmlns="http://www.w3.org/2000/svg" version="1.1" width="300" height="300" viewBox="0 0 300 300"><rect x="0" y="0" width="300" height="300" fill="#ffffff"/><g transform="scale(12)"><g transform="translate(0,0)"><path fill-rule="evenodd" d="M8 0L8 1L11 1L11 3L10 3L10 2L9 2L9 3L10 3L10 5L9 5L9 6L8 6L8 8L9 8L9 9L10 9L10 10L9 10L9 11L8 11L8 9L7 9L7 8L6 8L6 9L7 9L7 10L6 10L6 11L7 11L7 12L6 12L6 13L7 13L7 14L4 14L4 13L5 13L5 11L4 11L4 9L5 9L5 8L3 8L3 9L2 9L2 8L0 8L0 9L1 9L1 10L0 10L0 11L1 11L1 10L3 10L3 11L4 11L4 13L3 13L3 16L2 16L2 17L7 17L7 16L6 16L6 15L8 15L8 18L9 18L9 20L8 20L8 22L9 22L9 23L8 23L8 25L12 25L12 23L13 23L13 22L11 22L11 23L10 23L10 21L9 21L9 20L11 20L11 21L14 21L14 24L13 24L13 25L14 25L14 24L15 24L15 25L17 25L17 24L16 24L16 23L18 23L18 25L21 25L21 19L22 19L22 18L24 18L24 19L25 19L25 17L24 17L24 16L25 16L25 10L24 10L24 9L25 9L25 8L24 8L24 9L23 9L23 10L21 10L21 9L19 9L19 8L18 8L18 9L19 9L19 10L15 10L15 12L14 12L14 13L13 13L13 12L12 12L12 15L14 15L14 16L15 16L15 17L14 17L14 18L13 18L13 19L12 19L12 17L13 17L13 16L12 16L12 17L11 17L11 19L10 19L10 17L9 17L9 15L8 15L8 13L7 13L7 12L9 12L9 13L10 13L10 15L11 15L11 12L9 12L9 11L10 11L10 10L11 10L11 9L10 9L10 7L11 7L11 6L12 6L12 9L17 9L17 8L14 8L14 7L15 7L15 6L14 6L14 7L13 7L13 6L12 6L12 5L13 5L13 4L12 4L12 2L13 2L13 3L14 3L14 2L15 2L15 3L16 3L16 2L17 2L17 1L16 1L16 0L15 0L15 1L14 1L14 0L13 0L13 1L12 1L12 0ZM13 1L13 2L14 2L14 1ZM15 1L15 2L16 2L16 1ZM14 4L14 5L17 5L17 4ZM10 5L10 6L9 6L9 7L10 7L10 6L11 6L11 5ZM16 6L16 7L17 7L17 6ZM12 10L12 11L14 11L14 10ZM19 10L19 11L21 11L21 12L22 12L22 13L21 13L21 14L24 14L24 12L22 12L22 11L21 11L21 10ZM16 11L16 12L17 12L17 14L18 14L18 15L19 15L19 16L21 16L21 18L22 18L22 15L19 15L19 14L20 14L20 13L18 13L18 11ZM0 12L0 17L1 17L1 15L2 15L2 14L1 14L1 13L2 13L2 12ZM15 13L15 14L14 14L14 15L15 15L15 16L16 16L16 15L15 15L15 14L16 14L16 13ZM4 15L4 16L5 16L5 15ZM15 17L15 20L16 20L16 17ZM17 17L17 20L20 20L20 17ZM18 18L18 19L19 19L19 18ZM11 19L11 20L12 20L12 19ZM15 21L15 22L17 22L17 21ZM19 21L19 22L18 22L18 23L20 23L20 21ZM22 21L22 22L23 22L23 23L22 23L22 24L24 24L24 25L25 25L25 21ZM9 23L9 24L10 24L10 23ZM0 0L0 7L7 7L7 0ZM1 1L1 6L6 6L6 1ZM2 2L2 5L5 5L5 2ZM18 0L18 7L25 7L25 0ZM19 1L19 6L24 6L24 1ZM20 2L20 5L23 5L23 2ZM0 18L0 25L7 25L7 18ZM1 19L1 24L6 24L6 19ZM2 20L2 23L5 23L5 20Z" fill="#000000"/></g></g></svg>
