<?xml version="1.0" encoding="UTF-8"?>
<svg xmlns="http://www.w3.org/2000/svg" version="1.1" width="300" height="300" viewBox="0 0 300 300"><rect x="0" y="0" width="300" height="300" fill="#ffffff"/><g transform="scale(12)"><g transform="translate(0,0)"><path fill-rule="evenodd" d="M8 0L8 1L11 1L11 3L10 3L10 2L9 2L9 3L10 3L10 5L9 5L9 6L8 6L8 8L9 8L9 9L10 9L10 10L9 10L9 11L8 11L8 10L6 10L6 9L7 9L7 8L6 8L6 9L5 9L5 8L3 8L3 9L2 9L2 8L0 8L0 11L2 11L2 12L0 12L0 17L1 17L1 15L3 15L3 16L5 16L5 15L7 15L7 16L6 16L6 17L7 17L7 16L8 16L8 18L11 18L11 21L10 21L10 19L9 19L9 20L8 20L8 22L9 22L9 23L8 23L8 25L10 25L10 24L9 24L9 23L11 23L11 25L13 25L13 24L12 24L12 23L13 23L13 22L12 22L12 21L13 21L13 20L14 20L14 21L17 21L17 22L14 22L14 23L15 23L15 25L17 25L17 24L16 24L16 23L18 23L18 25L21 25L21 24L19 24L19 23L18 23L18 22L19 22L19 21L20 21L20 23L22 23L22 24L24 24L24 25L25 25L25 21L24 21L24 20L25 20L25 17L24 17L24 16L25 16L25 10L24 10L24 9L25 9L25 8L24 8L24 9L23 9L23 10L21 10L21 9L19 9L19 8L18 8L18 9L19 9L19 10L16 10L16 9L17 9L17 1L16 1L16 2L15 2L15 3L16 3L16 7L15 7L15 4L14 4L14 2L13 2L13 1L12 1L12 0ZM14 0L14 1L15 1L15 0ZM12 2L12 3L13 3L13 2ZM13 4L13 5L12 5L12 6L11 6L11 5L10 5L10 6L9 6L9 7L10 7L10 9L12 9L12 11L11 11L11 10L10 10L10 11L9 11L9 12L12 12L12 14L10 14L10 15L11 15L11 16L14 16L14 17L11 17L11 18L15 18L15 19L14 19L14 20L16 20L16 17L15 17L15 16L16 16L16 15L15 15L15 14L14 14L14 13L15 13L15 12L16 12L16 11L14 11L14 9L16 9L16 8L11 8L11 7L12 7L12 6L13 6L13 7L14 7L14 4ZM10 6L10 7L11 7L11 6ZM1 9L1 10L2 10L2 9ZM3 9L3 12L2 12L2 13L1 13L1 14L2 14L2 13L3 13L3 15L4 15L4 13L5 13L5 14L7 14L7 15L8 15L8 16L9 16L9 15L8 15L8 14L9 14L9 13L8 13L8 12L7 12L7 11L6 11L6 12L4 12L4 11L5 11L5 10L4 10L4 9ZM19 10L19 11L21 11L21 12L22 12L22 13L21 13L21 14L24 14L24 12L22 12L22 11L21 11L21 10ZM12 11L12 12L13 12L13 11ZM17 11L17 14L18 14L18 15L19 15L19 16L21 16L21 18L22 18L22 19L21 19L21 22L22 22L22 23L23 23L23 20L24 20L24 18L22 18L22 15L19 15L19 14L20 14L20 13L18 13L18 11ZM3 12L3 13L4 13L4 12ZM6 12L6 13L7 13L7 12ZM17 17L17 20L20 20L20 17ZM18 18L18 19L19 19L19 18ZM12 19L12 20L13 20L13 19ZM9 21L9 22L10 22L10 21ZM0 0L0 7L7 7L7 0ZM1 1L1 6L6 6L6 1ZM2 2L2 5L5 5L5 2ZM18 0L18 7L25 7L25 0ZM19 1L19 6L24 6L24 1ZM20 2L20 5L23 5L23 2ZM0 18L0 25L7 25L7 18ZM1 19L1 24L6 24L6 19ZM2 20L2 23L5 23L5 20Z" fill="#000000"/></g></g></svg>
