<?xml version="1.0" encoding="UTF-8"?>
<svg xmlns="http://www.w3.org/2000/svg" version="1.1" width="300" height="300" viewBox="0 0 300 300"><rect x="0" y="0" width="300" height="300" fill="#ffffff"/><g transform="scale(12)"><g transform="translate(0,0)"><path fill-rule="evenodd" d="M10 0L10 2L11 2L11 0ZM12 0L12 1L13 1L13 2L12 2L12 4L13 4L13 2L14 2L14 4L15 4L15 5L14 5L14 10L13 10L13 8L12 8L12 7L13 7L13 5L11 5L11 6L10 6L10 4L11 4L11 3L8 3L8 4L9 4L9 5L8 5L8 7L9 7L9 8L6 8L6 9L7 9L7 10L6 10L6 11L8 11L8 12L4 12L4 11L5 11L5 10L4 10L4 11L3 11L3 10L2 10L2 9L5 9L5 8L0 8L0 9L1 9L1 11L0 11L0 12L2 12L2 14L3 14L3 15L2 15L2 16L3 16L3 17L5 17L5 16L6 16L6 17L8 17L8 19L9 19L9 20L8 20L8 25L9 25L9 22L10 22L10 23L11 23L11 22L10 22L10 21L11 21L11 20L10 20L10 18L11 18L11 17L14 17L14 16L13 16L13 15L12 15L12 16L11 16L11 15L10 15L10 13L13 13L13 14L14 14L14 13L16 13L16 10L17 10L17 11L18 11L18 10L20 10L20 12L21 12L21 15L20 15L20 14L18 14L18 15L17 15L17 16L16 16L16 19L15 19L15 20L14 20L14 22L15 22L15 21L17 21L17 22L22 22L22 23L21 23L21 24L22 24L22 25L25 25L25 21L23 21L23 20L24 20L24 19L25 19L25 17L24 17L24 18L22 18L22 17L23 17L23 16L25 16L25 10L24 10L24 8L23 8L23 9L22 9L22 8L21 8L21 10L20 10L20 8L19 8L19 9L18 9L18 8L16 8L16 7L17 7L17 4L15 4L15 2L16 2L16 3L17 3L17 0L15 0L15 1L13 1L13 0ZM8 1L8 2L9 2L9 1ZM9 6L9 7L10 7L10 6ZM11 6L11 7L12 7L12 6ZM15 6L15 7L16 7L16 6ZM10 8L10 9L8 9L8 11L9 11L9 12L13 12L13 13L14 13L14 11L15 11L15 10L14 10L14 11L12 11L12 9L11 9L11 8ZM15 8L15 9L16 9L16 8ZM10 9L10 11L11 11L11 9ZM17 9L17 10L18 10L18 9ZM23 10L23 11L22 11L22 12L24 12L24 10ZM17 12L17 13L19 13L19 12ZM0 13L0 17L1 17L1 13ZM3 13L3 14L4 14L4 16L5 16L5 14L7 14L7 15L6 15L6 16L8 16L8 17L9 17L9 18L10 18L10 17L11 17L11 16L8 16L8 14L9 14L9 13L8 13L8 14L7 14L7 13L5 13L5 14L4 14L4 13ZM22 13L22 16L21 16L21 17L22 17L22 16L23 16L23 14L24 14L24 13ZM15 14L15 15L16 15L16 14ZM19 15L19 16L20 16L20 15ZM17 17L17 20L20 20L20 17ZM12 18L12 19L13 19L13 18ZM18 18L18 19L19 19L19 18ZM22 19L22 20L21 20L21 21L22 21L22 22L23 22L23 23L22 23L22 24L24 24L24 22L23 22L23 21L22 21L22 20L23 20L23 19ZM12 23L12 25L13 25L13 23ZM15 23L15 24L14 24L14 25L15 25L15 24L17 24L17 25L19 25L19 24L20 24L20 23L19 23L19 24L18 24L18 23ZM0 0L0 7L7 7L7 0ZM1 1L1 6L6 6L6 1ZM2 2L2 5L5 5L5 2ZM18 0L18 7L25 7L25 0ZM19 1L19 6L24 6L24 1ZM20 2L20 5L23 5L23 2ZM0 18L0 25L7 25L7 18ZM1 19L1 24L6 24L6 19ZM2 20L2 23L5 23L5 20Z" fill="#000000"/></g></g></svg>
