<?xml version="1.0" encoding="UTF-8"?>
<svg xmlns="http://www.w3.org/2000/svg" version="1.1" width="300" height="300" viewBox="0 0 300 300"><rect x="0" y="0" width="300" height="300" fill="#ffffff"/><g transform="scale(12)"><g transform="translate(0,0)"><path fill-rule="evenodd" d="M9 0L9 3L8 3L8 5L9 5L9 6L8 6L8 7L9 7L9 9L10 9L10 10L8 10L8 8L5 8L5 9L7 9L7 10L5 10L5 11L7 11L7 10L8 10L8 11L10 11L10 12L8 12L8 14L9 14L9 16L10 16L10 17L8 17L8 20L9 20L9 21L10 21L10 22L9 22L9 23L8 23L8 25L14 25L14 24L13 24L13 22L12 22L12 23L11 23L11 20L9 20L9 19L10 19L10 17L11 17L11 16L12 16L12 17L13 17L13 19L12 19L12 18L11 18L11 19L12 19L12 21L14 21L14 22L20 22L20 21L21 21L21 22L24 22L24 25L25 25L25 21L24 21L24 20L22 20L22 21L21 21L21 19L22 19L22 18L21 18L21 15L22 15L22 17L23 17L23 16L25 16L25 10L24 10L24 9L23 9L23 10L21 10L21 9L22 9L22 8L20 8L20 9L18 9L18 10L17 10L17 11L18 11L18 10L20 10L20 12L18 12L18 13L22 13L22 12L21 12L21 11L23 11L23 10L24 10L24 14L23 14L23 15L22 15L22 14L21 14L21 15L20 15L20 14L18 14L18 15L16 15L16 13L17 13L17 12L15 12L15 11L16 11L16 10L15 10L15 8L14 8L14 10L15 10L15 11L14 11L14 12L13 12L13 10L12 10L12 13L14 13L14 14L13 14L13 15L11 15L11 11L10 11L10 10L11 10L11 9L13 9L13 5L14 5L14 4L13 4L13 2L12 2L12 4L13 4L13 5L12 5L12 8L10 8L10 7L11 7L11 5L9 5L9 3L10 3L10 4L11 4L11 3L10 3L10 2L11 2L11 1L12 1L12 0L11 0L11 1L10 1L10 0ZM13 0L13 1L14 1L14 2L15 2L15 3L16 3L16 4L15 4L15 5L16 5L16 8L17 8L17 3L16 3L16 2L17 2L17 1L16 1L16 0ZM15 1L15 2L16 2L16 1ZM9 6L9 7L10 7L10 6ZM14 6L14 7L15 7L15 6ZM0 8L0 17L1 17L1 12L2 12L2 14L3 14L3 15L2 15L2 17L3 17L3 16L5 16L5 17L7 17L7 16L6 16L6 15L7 15L7 14L6 14L6 13L7 13L7 12L5 12L5 14L3 14L3 13L4 13L4 11L3 11L3 10L4 10L4 9L2 9L2 8ZM1 9L1 11L2 11L2 12L3 12L3 11L2 11L2 9ZM14 12L14 13L15 13L15 12ZM5 14L5 15L6 15L6 14ZM13 15L13 17L14 17L14 18L15 18L15 20L14 20L14 19L13 19L13 20L14 20L14 21L15 21L15 20L16 20L16 18L15 18L15 17L16 17L16 16L15 16L15 17L14 17L14 15ZM19 15L19 16L20 16L20 15ZM17 17L17 20L20 20L20 17ZM24 17L24 19L25 19L25 17ZM18 18L18 19L19 19L19 18ZM10 23L10 24L11 24L11 23ZM16 23L16 25L17 25L17 24L18 24L18 25L19 25L19 24L18 24L18 23ZM20 24L20 25L21 25L21 24ZM0 0L0 7L7 7L7 0ZM1 1L1 6L6 6L6 1ZM2 2L2 5L5 5L5 2ZM18 0L18 7L25 7L25 0ZM19 1L19 6L24 6L24 1ZM20 2L20 5L23 5L23 2ZM0 18L0 25L7 25L7 18ZM1 19L1 24L6 24L6 19ZM2 20L2 23L5 23L5 20Z" fill="#000000"/></g></g></svg>
