<?xml version="1.0" encoding="UTF-8"?>
<svg xmlns="http://www.w3.org/2000/svg" version="1.1" width="300" height="300" viewBox="0 0 300 300"><rect x="0" y="0" width="300" height="300" fill="#ffffff"/><g transform="scale(12)"><g transform="translate(0,0)"><path fill-rule="evenodd" d="M9 0L9 1L8 1L8 2L9 2L9 3L8 3L8 4L10 4L10 7L11 7L11 8L6 8L6 9L8 9L8 11L7 11L7 10L5 10L5 11L4 11L4 10L3 10L3 9L5 9L5 8L0 8L0 11L1 11L1 12L2 12L2 13L4 13L4 12L6 12L6 13L7 13L7 14L5 14L5 15L7 15L7 16L4 16L4 17L8 17L8 19L9 19L9 20L8 20L8 25L10 25L10 24L9 24L9 23L11 23L11 21L13 21L13 22L14 22L14 23L15 23L15 24L14 24L14 25L15 25L15 24L17 24L17 25L20 25L20 24L22 24L22 25L25 25L25 21L24 21L24 20L25 20L25 17L24 17L24 18L22 18L22 17L23 17L23 16L25 16L25 10L24 10L24 8L23 8L23 9L22 9L22 8L21 8L21 10L20 10L20 8L19 8L19 9L18 9L18 8L17 8L17 6L16 6L16 5L17 5L17 4L15 4L15 3L16 3L16 2L17 2L17 0L15 0L15 1L14 1L14 0L13 0L13 1L11 1L11 2L10 2L10 0ZM12 2L12 3L13 3L13 8L11 8L11 9L10 9L10 11L11 11L11 12L10 12L10 13L11 13L11 15L13 15L13 17L11 17L11 16L10 16L10 15L9 15L9 12L8 12L8 17L9 17L9 19L10 19L10 21L9 21L9 22L10 22L10 21L11 21L11 19L12 19L12 20L13 20L13 21L14 21L14 22L15 22L15 23L18 23L18 24L19 24L19 23L21 23L21 22L23 22L23 23L22 23L22 24L24 24L24 22L23 22L23 21L22 21L22 20L24 20L24 19L22 19L22 20L21 20L21 22L17 22L17 21L14 21L14 18L15 18L15 19L16 19L16 16L17 16L17 15L18 15L18 14L19 14L19 16L21 16L21 17L22 17L22 16L23 16L23 14L24 14L24 13L22 13L22 16L21 16L21 15L20 15L20 14L21 14L21 12L20 12L20 10L18 10L18 9L17 9L17 8L14 8L14 6L15 6L15 7L16 7L16 6L15 6L15 4L14 4L14 3L15 3L15 2ZM10 3L10 4L11 4L11 7L12 7L12 4L11 4L11 3ZM8 5L8 7L9 7L9 5ZM13 8L13 9L14 9L14 8ZM15 9L15 12L14 12L14 14L13 14L13 15L16 15L16 14L15 14L15 13L16 13L16 10L17 10L17 11L18 11L18 10L17 10L17 9ZM2 10L2 11L3 11L3 10ZM23 10L23 11L22 11L22 12L24 12L24 10ZM6 11L6 12L7 12L7 11ZM12 11L12 13L13 13L13 11ZM17 12L17 13L19 13L19 12ZM0 13L0 17L1 17L1 13ZM2 14L2 16L3 16L3 14ZM9 16L9 17L10 17L10 16ZM14 16L14 17L15 17L15 16ZM17 17L17 20L20 20L20 17ZM12 18L12 19L13 19L13 18ZM18 18L18 19L19 19L19 18ZM12 24L12 25L13 25L13 24ZM0 0L0 7L7 7L7 0ZM1 1L1 6L6 6L6 1ZM2 2L2 5L5 5L5 2ZM18 0L18 7L25 7L25 0ZM19 1L19 6L24 6L24 1ZM20 2L20 5L23 5L23 2ZM0 18L0 25L7 25L7 18ZM1 19L1 24L6 24L6 19ZM2 20L2 23L5 23L5 20Z" fill="#000000"/></g></g></svg>
