<?xml version="1.0" encoding="UTF-8"?>
<svg xmlns="http://www.w3.org/2000/svg" version="1.1" width="300" height="300" viewBox="0 0 300 300"><rect x="0" y="0" width="300" height="300" fill="#ffffff"/><g transform="scale(12)"><g transform="translate(0,0)"><path fill-rule="evenodd" d="M8 0L8 4L9 4L9 5L8 5L8 7L9 7L9 6L10 6L10 9L11 9L11 8L12 8L12 9L13 9L13 10L15 10L15 12L17 12L17 13L19 13L19 14L20 14L20 15L21 15L21 16L17 16L17 15L18 15L18 14L16 14L16 13L15 13L15 14L14 14L14 12L13 12L13 11L12 11L12 12L11 12L11 13L9 13L9 12L10 12L10 11L11 11L11 10L8 10L8 9L7 9L7 8L4 8L4 9L2 9L2 8L0 8L0 14L2 14L2 15L4 15L4 17L5 17L5 16L6 16L6 17L7 17L7 16L6 16L6 15L8 15L8 16L9 16L9 17L8 17L8 18L10 18L10 19L8 19L8 21L9 21L9 22L10 22L10 19L13 19L13 18L11 18L11 16L12 16L12 17L14 17L14 18L16 18L16 19L15 19L15 20L16 20L16 21L14 21L14 20L13 20L13 21L14 21L14 22L16 22L16 23L14 23L14 24L13 24L13 25L14 25L14 24L15 24L15 25L16 25L16 23L18 23L18 24L17 24L17 25L19 25L19 24L20 24L20 25L25 25L25 24L24 24L24 22L25 22L25 21L23 21L23 20L25 20L25 19L22 19L22 18L21 18L21 17L23 17L23 14L21 14L21 12L22 12L22 13L24 13L24 14L25 14L25 12L24 12L24 9L25 9L25 8L21 8L21 9L20 9L20 8L19 8L19 9L18 9L18 11L17 11L17 9L16 9L16 10L15 10L15 8L17 8L17 3L16 3L16 2L17 2L17 0L16 0L16 2L14 2L14 5L13 5L13 1L11 1L11 2L12 2L12 5L13 5L13 6L12 6L12 7L11 7L11 3L10 3L10 2L9 2L9 0ZM14 0L14 1L15 1L15 0ZM15 3L15 5L14 5L14 6L13 6L13 7L12 7L12 8L13 8L13 9L14 9L14 8L15 8L15 7L16 7L16 3ZM14 6L14 7L15 7L15 6ZM1 9L1 10L2 10L2 11L1 11L1 13L5 13L5 14L9 14L9 13L8 13L8 11L6 11L6 10L7 10L7 9L5 9L5 12L4 12L4 10L2 10L2 9ZM19 9L19 12L20 12L20 9ZM21 9L21 10L22 10L22 11L23 11L23 10L22 10L22 9ZM5 12L5 13L7 13L7 12ZM11 13L11 14L12 14L12 13ZM13 14L13 16L14 16L14 17L15 17L15 16L16 16L16 15L14 15L14 14ZM9 15L9 16L11 16L11 15ZM0 16L0 17L2 17L2 16ZM17 17L17 20L20 20L20 17ZM24 17L24 18L25 18L25 17ZM18 18L18 19L19 19L19 18ZM16 21L16 22L17 22L17 21ZM19 21L19 23L20 23L20 24L21 24L21 21ZM22 21L22 23L23 23L23 21ZM11 22L11 23L8 23L8 25L9 25L9 24L12 24L12 22ZM0 0L0 7L7 7L7 0ZM1 1L1 6L6 6L6 1ZM2 2L2 5L5 5L5 2ZM18 0L18 7L25 7L25 0ZM19 1L19 6L24 6L24 1ZM20 2L20 5L23 5L23 2ZM0 18L0 25L7 25L7 18ZM1 19L1 24L6 24L6 19ZM2 20L2 23L5 23L5 20Z" fill="#000000"/></g></g></svg>
