<?xml version="1.0" encoding="UTF-8"?>
<svg xmlns="http://www.w3.org/2000/svg" version="1.1" width="300" height="300" viewBox="0 0 300 300"><rect x="0" y="0" width="300" height="300" fill="#ffffff"/><g transform="scale(12)"><g transform="translate(0,0)"><path fill-rule="evenodd" d="M9 0L9 1L10 1L10 2L8 2L8 3L9 3L9 4L10 4L10 5L9 5L9 6L8 6L8 8L4 8L4 9L3 9L3 8L0 8L0 12L1 12L1 14L0 14L0 15L1 15L1 16L0 16L0 17L1 17L1 16L2 16L2 17L5 17L5 16L2 16L2 15L4 15L4 13L3 13L3 14L2 14L2 12L4 12L4 11L5 11L5 12L6 12L6 13L7 13L7 12L6 12L6 11L10 11L10 10L12 10L12 8L13 8L13 9L14 9L14 7L15 7L15 8L16 8L16 7L17 7L17 6L16 6L16 4L17 4L17 2L16 2L16 0L14 0L14 1L13 1L13 0L12 0L12 1L10 1L10 0ZM14 1L14 2L13 2L13 3L12 3L12 2L11 2L11 3L12 3L12 4L11 4L11 5L10 5L10 6L9 6L9 7L10 7L10 6L11 6L11 8L12 8L12 6L13 6L13 7L14 7L14 6L13 6L13 5L15 5L15 4L14 4L14 3L15 3L15 1ZM15 6L15 7L16 7L16 6ZM9 8L9 10L10 10L10 8ZM17 8L17 9L15 9L15 10L14 10L14 11L13 11L13 12L12 12L12 11L11 11L11 12L12 12L12 13L11 13L11 15L10 15L10 17L8 17L8 21L9 21L9 22L8 22L8 25L11 25L11 24L10 24L10 23L11 23L11 22L10 22L10 21L9 21L9 20L10 20L10 19L11 19L11 21L12 21L12 22L14 22L14 20L16 20L16 21L20 21L20 23L21 23L21 24L19 24L19 23L18 23L18 24L17 24L17 22L15 22L15 23L13 23L13 25L14 25L14 24L15 24L15 25L22 25L22 23L23 23L23 25L25 25L25 24L24 24L24 23L25 23L25 22L24 22L24 23L23 23L23 22L22 22L22 23L21 23L21 21L22 21L22 19L21 19L21 18L22 18L22 15L25 15L25 14L24 14L24 13L25 13L25 12L24 12L24 11L25 11L25 9L24 9L24 11L23 11L23 14L22 14L22 13L21 13L21 12L22 12L22 11L18 11L18 9L19 9L19 8ZM22 8L22 9L21 9L21 10L23 10L23 8ZM1 9L1 11L4 11L4 10L5 10L5 11L6 11L6 10L8 10L8 9L6 9L6 10L5 10L5 9L4 9L4 10L2 10L2 9ZM15 10L15 11L14 11L14 14L13 14L13 15L14 15L14 14L15 14L15 16L14 16L14 17L12 17L12 18L11 18L11 17L10 17L10 18L11 18L11 19L12 19L12 20L13 20L13 19L15 19L15 18L16 18L16 17L15 17L15 16L19 16L19 15L18 15L18 14L17 14L17 13L16 13L16 12L17 12L17 11L16 11L16 10ZM15 11L15 12L16 12L16 11ZM8 12L8 15L7 15L7 14L6 14L6 15L7 15L7 16L6 16L6 17L7 17L7 16L8 16L8 15L9 15L9 12ZM19 12L19 13L20 13L20 14L21 14L21 15L22 15L22 14L21 14L21 13L20 13L20 12ZM1 14L1 15L2 15L2 14ZM16 14L16 15L17 15L17 14ZM11 15L11 16L12 16L12 15ZM17 17L17 20L20 20L20 17ZM23 17L23 19L25 19L25 18L24 18L24 17ZM12 18L12 19L13 19L13 18ZM18 18L18 19L19 19L19 18ZM0 0L0 7L7 7L7 0ZM1 1L1 6L6 6L6 1ZM2 2L2 5L5 5L5 2ZM18 0L18 7L25 7L25 0ZM19 1L19 6L24 6L24 1ZM20 2L20 5L23 5L23 2ZM0 18L0 25L7 25L7 18ZM1 19L1 24L6 24L6 19ZM2 20L2 23L5 23L5 20Z" fill="#000000"/></g></g></svg>
