<?xml version="1.0" encoding="UTF-8"?>
<svg xmlns="http://www.w3.org/2000/svg" version="1.1" width="300" height="300" viewBox="0 0 300 300"><rect x="0" y="0" width="300" height="300" fill="#ffffff"/><g transform="scale(10.345)"><g transform="translate(0,0)"><path fill-rule="evenodd" d="M8 0L8 2L10 2L10 4L8 4L8 9L7 9L7 8L5 8L5 9L3 9L3 8L0 8L0 9L2 9L2 10L0 10L0 14L1 14L1 15L2 15L2 14L3 14L3 15L5 15L5 14L6 14L6 15L7 15L7 16L6 16L6 17L8 17L8 20L11 20L11 21L12 21L12 23L11 23L11 22L9 22L9 21L8 21L8 22L9 22L9 23L8 23L8 24L9 24L9 23L10 23L10 25L9 25L9 26L8 26L8 29L10 29L10 28L9 28L9 26L10 26L10 27L12 27L12 26L11 26L11 24L13 24L13 26L15 26L15 27L16 27L16 26L17 26L17 27L19 27L19 26L18 26L18 24L19 24L19 25L20 25L20 26L21 26L21 27L20 27L20 28L19 28L19 29L24 29L24 28L25 28L25 29L27 29L27 28L25 28L25 27L29 27L29 22L28 22L28 24L27 24L27 25L28 25L28 26L24 26L24 28L23 28L23 26L22 26L22 25L25 25L25 19L27 19L27 21L26 21L26 23L27 23L27 21L28 21L28 19L29 19L29 18L28 18L28 19L27 19L27 17L26 17L26 18L25 18L25 19L24 19L24 16L23 16L23 15L22 15L22 14L24 14L24 15L26 15L26 14L24 14L24 12L25 12L25 11L28 11L28 12L27 12L27 15L29 15L29 13L28 13L28 12L29 12L29 8L27 8L27 9L28 9L28 10L24 10L24 9L25 9L25 8L21 8L21 6L20 6L20 7L19 7L19 5L20 5L20 3L21 3L21 1L20 1L20 0L18 0L18 2L17 2L17 0L15 0L15 1L13 1L13 0L11 0L11 1L9 1L9 0ZM11 1L11 2L12 2L12 1ZM15 1L15 2L16 2L16 1ZM19 1L19 2L20 2L20 1ZM13 2L13 3L11 3L11 4L12 4L12 6L11 6L11 5L9 5L9 8L10 8L10 6L11 6L11 7L12 7L12 6L13 6L13 8L11 8L11 10L8 10L8 11L10 11L10 14L9 14L9 13L8 13L8 12L7 12L7 11L4 11L4 10L3 10L3 11L4 11L4 12L3 12L3 13L4 13L4 12L5 12L5 13L6 13L6 14L9 14L9 15L8 15L8 17L9 17L9 19L11 19L11 20L13 20L13 19L14 19L14 21L13 21L13 22L16 22L16 23L15 23L15 26L16 26L16 23L17 23L17 24L18 24L18 22L19 22L19 20L20 20L20 19L17 19L17 18L19 18L19 17L20 17L20 18L22 18L22 17L20 17L20 16L19 16L19 15L17 15L17 14L16 14L16 13L17 13L17 12L18 12L18 14L19 14L19 12L21 12L21 11L22 11L22 12L23 12L23 11L24 11L24 10L23 10L23 11L22 11L22 9L21 9L21 11L19 11L19 12L18 12L18 9L19 9L19 10L20 10L20 8L18 8L18 5L17 5L17 4L18 4L18 3L15 3L15 4L16 4L16 6L15 6L15 5L13 5L13 4L14 4L14 2ZM14 6L14 8L13 8L13 10L15 10L15 13L16 13L16 11L17 11L17 10L15 10L15 8L16 8L16 9L18 9L18 8L17 8L17 6L16 6L16 7L15 7L15 6ZM6 9L6 10L7 10L7 9ZM11 10L11 11L12 11L12 10ZM1 11L1 13L2 13L2 11ZM13 11L13 12L11 12L11 13L12 13L12 15L11 15L11 14L10 14L10 16L9 16L9 17L10 17L10 18L11 18L11 19L12 19L12 18L11 18L11 17L10 17L10 16L13 16L13 18L15 18L15 20L16 20L16 22L18 22L18 20L16 20L16 18L17 18L17 16L15 16L15 15L16 15L16 14L13 14L13 13L14 13L14 11ZM6 12L6 13L7 13L7 12ZM20 13L20 14L21 14L21 13ZM13 15L13 16L14 16L14 15ZM21 15L21 16L22 16L22 15ZM0 16L0 17L1 17L1 18L0 18L0 19L2 19L2 17L1 17L1 16ZM3 16L3 18L4 18L4 19L3 19L3 20L0 20L0 21L3 21L3 20L5 20L5 16ZM18 16L18 17L19 17L19 16ZM28 16L28 17L29 17L29 16ZM15 17L15 18L16 18L16 17ZM6 18L6 19L7 19L7 18ZM21 19L21 20L23 20L23 19ZM6 20L6 21L7 21L7 20ZM21 21L21 24L24 24L24 21ZM22 22L22 23L23 23L23 22ZM13 23L13 24L14 24L14 23ZM13 27L13 28L11 28L11 29L14 29L14 27ZM15 28L15 29L18 29L18 28ZM28 28L28 29L29 29L29 28ZM0 0L0 7L7 7L7 0ZM1 1L1 6L6 6L6 1ZM2 2L2 5L5 5L5 2ZM22 0L22 7L29 7L29 0ZM23 1L23 6L28 6L28 1ZM24 2L24 5L27 5L27 2ZM0 22L0 29L7 29L7 22ZM1 23L1 28L6 28L6 23ZM2 24L2 27L5 27L5 24Z" fill="#000000"/></g></g></svg>
