<?xml version="1.0" encoding="UTF-8"?>
<svg xmlns="http://www.w3.org/2000/svg" version="1.1" width="300" height="300" viewBox="0 0 300 300"><rect x="0" y="0" width="300" height="300" fill="#ffffff"/><g transform="scale(12)"><g transform="translate(0,0)"><path fill-rule="evenodd" d="M10 0L10 1L8 1L8 3L9 3L9 4L8 4L8 8L6 8L6 9L8 9L8 8L9 8L9 5L10 5L10 8L11 8L11 11L9 11L9 10L10 10L10 9L9 9L9 10L5 10L5 9L4 9L4 8L3 8L3 9L2 9L2 8L0 8L0 9L1 9L1 10L3 10L3 11L1 11L1 12L0 12L0 13L1 13L1 14L0 14L0 15L1 15L1 16L0 16L0 17L2 17L2 16L4 16L4 17L5 17L5 16L6 16L6 17L7 17L7 16L9 16L9 15L10 15L10 16L11 16L11 15L13 15L13 17L12 17L12 18L14 18L14 19L15 19L15 20L14 20L14 21L13 21L13 20L12 20L12 19L11 19L11 21L10 21L10 22L9 22L9 21L8 21L8 22L9 22L9 23L8 23L8 25L11 25L11 24L12 24L12 25L13 25L13 24L14 24L14 23L15 23L15 22L16 22L16 25L19 25L19 24L21 24L21 25L22 25L22 23L23 23L23 22L20 22L20 21L22 21L22 20L23 20L23 21L24 21L24 20L25 20L25 18L23 18L23 19L21 19L21 18L22 18L22 17L23 17L23 16L22 16L22 15L23 15L23 14L24 14L24 15L25 15L25 14L24 14L24 13L25 13L25 12L23 12L23 13L21 13L21 12L22 12L22 11L23 11L23 9L24 9L24 11L25 11L25 9L24 9L24 8L22 8L22 9L21 9L21 8L18 8L18 9L17 9L17 8L14 8L14 9L15 9L15 10L13 10L13 8L12 8L12 7L13 7L13 4L14 4L14 5L15 5L15 6L14 6L14 7L15 7L15 6L16 6L16 7L17 7L17 4L16 4L16 5L15 5L15 2L16 2L16 3L17 3L17 1L15 1L15 0L13 0L13 1L15 1L15 2L14 2L14 3L12 3L12 7L11 7L11 4L10 4L10 3L9 3L9 2L11 2L11 0ZM19 9L19 10L20 10L20 11L18 11L18 10L17 10L17 11L18 11L18 12L19 12L19 13L20 13L20 14L17 14L17 13L16 13L16 14L15 14L15 13L12 13L12 14L13 14L13 15L14 15L14 18L15 18L15 17L16 17L16 16L19 16L19 15L20 15L20 14L21 14L21 15L22 15L22 14L21 14L21 13L20 13L20 12L21 12L21 11L22 11L22 10L21 10L21 9ZM4 10L4 11L3 11L3 12L2 12L2 13L3 13L3 14L1 14L1 15L3 15L3 14L4 14L4 15L5 15L5 14L7 14L7 15L6 15L6 16L7 16L7 15L9 15L9 13L10 13L10 14L11 14L11 13L10 13L10 12L8 12L8 11L6 11L6 12L8 12L8 14L7 14L7 13L5 13L5 10ZM15 10L15 11L14 11L14 12L15 12L15 11L16 11L16 10ZM4 13L4 14L5 14L5 13ZM16 14L16 15L15 15L15 16L16 16L16 15L17 15L17 14ZM8 17L8 19L9 19L9 20L10 20L10 19L9 19L9 17ZM10 17L10 18L11 18L11 17ZM17 17L17 20L20 20L20 17ZM18 18L18 19L19 19L19 18ZM15 20L15 21L14 21L14 22L15 22L15 21L16 21L16 20ZM17 21L17 23L18 23L18 24L19 24L19 21ZM10 22L10 24L11 24L11 23L13 23L13 22ZM24 22L24 23L25 23L25 22ZM23 24L23 25L25 25L25 24ZM0 0L0 7L7 7L7 0ZM1 1L1 6L6 6L6 1ZM2 2L2 5L5 5L5 2ZM18 0L18 7L25 7L25 0ZM19 1L19 6L24 6L24 1ZM20 2L20 5L23 5L23 2ZM0 18L0 25L7 25L7 18ZM1 19L1 24L6 24L6 19ZM2 20L2 23L5 23L5 20Z" fill="#000000"/></g></g></svg>
