<?xml version="1.0" encoding="UTF-8"?>
<svg xmlns="http://www.w3.org/2000/svg" version="1.1" width="300" height="300" viewBox="0 0 300 300"><rect x="0" y="0" width="300" height="300" fill="#ffffff"/><g transform="scale(12)"><g transform="translate(0,0)"><path fill-rule="evenodd" d="M8 0L8 2L10 2L10 4L8 4L8 9L9 9L9 10L8 10L8 11L9 11L9 13L10 13L10 11L9 11L9 10L11 10L11 11L12 11L12 12L11 12L11 13L12 13L12 14L10 14L10 15L9 15L9 14L8 14L8 15L7 15L7 14L3 14L3 16L0 16L0 17L5 17L5 16L4 16L4 15L7 15L7 16L6 16L6 17L8 17L8 18L11 18L11 19L8 19L8 20L9 20L9 21L10 21L10 23L9 23L9 22L8 22L8 25L10 25L10 24L11 24L11 23L12 23L12 22L13 22L13 23L15 23L15 25L17 25L17 24L18 24L18 25L21 25L21 24L18 24L18 21L21 21L21 19L22 19L22 18L21 18L21 15L23 15L23 17L24 17L24 15L25 15L25 14L24 14L24 15L23 15L23 14L21 14L21 15L20 15L20 13L22 13L22 12L21 12L21 11L22 11L22 10L23 10L23 11L25 11L25 8L23 8L23 9L22 9L22 10L21 10L21 11L20 11L20 9L21 9L21 8L17 8L17 9L16 9L16 7L17 7L17 6L16 6L16 7L15 7L15 6L14 6L14 8L13 8L13 6L12 6L12 4L11 4L11 3L14 3L14 4L13 4L13 5L16 5L16 4L17 4L17 3L16 3L16 2L17 2L17 1L16 1L16 0L14 0L14 1L13 1L13 0L11 0L11 1L9 1L9 0ZM11 1L11 2L12 2L12 1ZM15 1L15 2L16 2L16 1ZM15 3L15 4L16 4L16 3ZM9 5L9 8L10 8L10 6L11 6L11 7L12 7L12 6L11 6L11 5ZM0 8L0 10L1 10L1 11L2 11L2 12L3 12L3 13L5 13L5 12L6 12L6 13L7 13L7 12L6 12L6 11L7 11L7 10L6 10L6 11L5 11L5 10L4 10L4 9L3 9L3 8ZM5 8L5 9L7 9L7 8ZM11 8L11 10L12 10L12 11L13 11L13 14L16 14L16 11L17 11L17 10L18 10L18 9L17 9L17 10L16 10L16 9L15 9L15 8L14 8L14 11L13 11L13 9L12 9L12 8ZM2 9L2 11L3 11L3 12L5 12L5 11L3 11L3 9ZM15 10L15 11L16 11L16 10ZM18 11L18 12L17 12L17 15L13 15L13 16L14 16L14 17L13 17L13 20L14 20L14 22L16 22L16 23L17 23L17 22L16 22L16 21L15 21L15 20L16 20L16 17L15 17L15 16L17 16L17 15L18 15L18 16L20 16L20 15L19 15L19 14L18 14L18 12L19 12L19 11ZM14 12L14 13L15 13L15 12ZM24 12L24 13L25 13L25 12ZM0 14L0 15L2 15L2 14ZM8 15L8 17L9 17L9 15ZM10 15L10 17L11 17L11 18L12 18L12 17L11 17L11 16L12 16L12 15ZM14 17L14 20L15 20L15 17ZM17 17L17 20L20 20L20 17ZM18 18L18 19L19 19L19 18ZM24 18L24 19L23 19L23 23L25 23L25 22L24 22L24 20L25 20L25 18ZM10 20L10 21L11 21L11 22L12 22L12 20ZM19 22L19 23L22 23L22 22ZM12 24L12 25L14 25L14 24ZM24 24L24 25L25 25L25 24ZM0 0L0 7L7 7L7 0ZM1 1L1 6L6 6L6 1ZM2 2L2 5L5 5L5 2ZM18 0L18 7L25 7L25 0ZM19 1L19 6L24 6L24 1ZM20 2L20 5L23 5L23 2ZM0 18L0 25L7 25L7 18ZM1 19L1 24L6 24L6 19ZM2 20L2 23L5 23L5 20Z" fill="#000000"/></g></g></svg>
