<?xml version="1.0" encoding="UTF-8"?>
<svg xmlns="http://www.w3.org/2000/svg" version="1.1" width="300" height="300" viewBox="0 0 300 300"><rect x="0" y="0" width="300" height="300" fill="#ffffff"/><g transform="scale(10.345)"><g transform="translate(0,0)"><path fill-rule="evenodd" d="M10 0L10 1L9 1L9 2L8 2L8 3L9 3L9 5L10 5L10 7L11 7L11 8L12 8L12 9L11 9L11 10L10 10L10 9L9 9L9 6L8 6L8 8L4 8L4 10L3 10L3 8L0 8L0 11L1 11L1 12L5 12L5 13L7 13L7 14L6 14L6 15L5 15L5 14L1 14L1 13L0 13L0 14L1 14L1 15L2 15L2 16L1 16L1 17L3 17L3 18L2 18L2 19L1 19L1 18L0 18L0 19L1 19L1 20L0 20L0 21L1 21L1 20L2 20L2 21L4 21L4 19L5 19L5 20L6 20L6 21L8 21L8 25L9 25L9 26L8 26L8 29L10 29L10 27L12 27L12 28L11 28L11 29L12 29L12 28L14 28L14 29L15 29L15 26L16 26L16 27L17 27L17 28L18 28L18 27L17 27L17 26L18 26L18 25L17 25L17 24L18 24L18 22L17 22L17 21L15 21L15 20L19 20L19 22L20 22L20 25L23 25L23 26L22 26L22 28L20 28L20 27L21 27L21 26L20 26L20 27L19 27L19 29L23 29L23 28L26 28L26 29L29 29L29 28L28 28L28 27L29 27L29 22L28 22L28 21L27 21L27 22L26 22L26 23L25 23L25 21L26 21L26 19L29 19L29 18L28 18L28 17L29 17L29 16L28 16L28 15L29 15L29 13L28 13L28 15L27 15L27 18L26 18L26 19L24 19L24 20L22 20L22 19L23 19L23 16L24 16L24 15L25 15L25 17L26 17L26 15L25 15L25 14L26 14L26 11L27 11L27 12L29 12L29 9L27 9L27 8L26 8L26 9L25 9L25 10L23 10L23 8L21 8L21 6L20 6L20 5L19 5L19 4L21 4L21 2L20 2L20 1L19 1L19 0L18 0L18 1L17 1L17 2L18 2L18 1L19 1L19 4L18 4L18 5L17 5L17 4L16 4L16 5L14 5L14 3L12 3L12 2L11 2L11 3L12 3L12 5L10 5L10 3L9 3L9 2L10 2L10 1L11 1L11 0ZM14 0L14 1L13 1L13 2L14 2L14 1L15 1L15 0ZM15 2L15 3L16 3L16 2ZM13 5L13 7L12 7L12 6L11 6L11 7L12 7L12 8L13 8L13 9L14 9L14 10L13 10L13 11L14 11L14 10L15 10L15 11L16 11L16 13L17 13L17 15L16 15L16 14L14 14L14 12L12 12L12 11L11 11L11 12L12 12L12 14L11 14L11 15L12 15L12 16L10 16L10 12L9 12L9 11L10 11L10 10L9 10L9 9L8 9L8 10L9 10L9 11L8 11L8 14L7 14L7 15L6 15L6 16L4 16L4 18L3 18L3 19L4 19L4 18L5 18L5 19L6 19L6 20L9 20L9 19L8 19L8 18L7 18L7 17L8 17L8 16L10 16L10 17L12 17L12 16L13 16L13 17L14 17L14 18L13 18L13 19L14 19L14 18L15 18L15 19L16 19L16 18L15 18L15 17L18 17L18 18L17 18L17 19L18 19L18 18L19 18L19 19L20 19L20 20L21 20L21 19L22 19L22 18L21 18L21 19L20 19L20 18L19 18L19 17L20 17L20 16L19 16L19 15L23 15L23 14L25 14L25 12L24 12L24 11L21 11L21 14L19 14L19 12L20 12L20 10L19 10L19 9L20 9L20 8L19 8L19 7L20 7L20 6L19 6L19 5L18 5L18 6L17 6L17 7L18 7L18 8L17 8L17 9L18 9L18 10L19 10L19 12L17 12L17 10L15 10L15 9L16 9L16 8L15 8L15 7L16 7L16 6L15 6L15 7L14 7L14 5ZM18 6L18 7L19 7L19 6ZM1 9L1 11L3 11L3 10L2 10L2 9ZM5 9L5 12L7 12L7 11L6 11L6 10L7 10L7 9ZM26 9L26 10L25 10L25 11L26 11L26 10L27 10L27 11L28 11L28 10L27 10L27 9ZM22 12L22 14L23 14L23 12ZM13 14L13 15L14 15L14 14ZM18 14L18 15L17 15L17 16L18 16L18 15L19 15L19 14ZM6 16L6 17L5 17L5 18L6 18L6 19L7 19L7 18L6 18L6 17L7 17L7 16ZM21 16L21 17L22 17L22 16ZM10 19L10 20L12 20L12 22L11 22L11 21L10 21L10 22L11 22L11 23L10 23L10 24L9 24L9 25L12 25L12 24L13 24L13 25L14 25L14 26L13 26L13 27L14 27L14 26L15 26L15 25L16 25L16 24L17 24L17 22L14 22L14 20L12 20L12 19ZM21 21L21 24L24 24L24 21ZM13 22L13 23L14 23L14 22ZM22 22L22 23L23 23L23 22ZM11 23L11 24L12 24L12 23ZM15 23L15 24L16 24L16 23ZM26 23L26 25L24 25L24 26L27 26L27 27L26 27L26 28L27 28L27 27L28 27L28 26L27 26L27 25L28 25L28 23ZM0 0L0 7L7 7L7 0ZM1 1L1 6L6 6L6 1ZM2 2L2 5L5 5L5 2ZM22 0L22 7L29 7L29 0ZM23 1L23 6L28 6L28 1ZM24 2L24 5L27 5L27 2ZM0 22L0 29L7 29L7 22ZM1 23L1 28L6 28L6 23ZM2 24L2 27L5 27L5 24Z" fill="#000000"/></g></g></svg>
