<?xml version="1.0" encoding="UTF-8"?>
<svg xmlns="http://www.w3.org/2000/svg" version="1.1" width="300" height="300" viewBox="0 0 300 300"><rect x="0" y="0" width="300" height="300" fill="#ffffff"/><g transform="scale(12)"><g transform="translate(0,0)"><path fill-rule="evenodd" d="M9 0L9 1L8 1L8 3L9 3L9 4L8 4L8 8L6 8L6 9L4 9L4 8L3 8L3 9L2 9L2 8L0 8L0 10L1 10L1 13L2 13L2 15L1 15L1 14L0 14L0 15L1 15L1 16L0 16L0 17L2 17L2 15L3 15L3 14L4 14L4 12L5 12L5 13L8 13L8 12L9 12L9 11L11 11L11 10L12 10L12 9L15 9L15 8L16 8L16 10L18 10L18 11L17 11L17 14L16 14L16 13L15 13L15 10L13 10L13 11L12 11L12 14L11 14L11 13L9 13L9 14L8 14L8 16L9 16L9 17L8 17L8 19L10 19L10 20L9 20L9 21L8 21L8 22L9 22L9 21L11 21L11 19L10 19L10 18L9 18L9 17L10 17L10 15L12 15L12 17L11 17L11 18L12 18L12 22L13 22L13 24L12 24L12 25L14 25L14 24L15 24L15 22L16 22L16 25L19 25L19 24L18 24L18 23L17 23L17 21L19 21L19 23L20 23L20 24L21 24L21 25L22 25L22 23L23 23L23 22L22 22L22 20L23 20L23 21L24 21L24 20L25 20L25 18L23 18L23 19L21 19L21 18L22 18L22 17L23 17L23 16L22 16L22 15L23 15L23 14L24 14L24 15L25 15L25 14L24 14L24 13L25 13L25 12L23 12L23 13L21 13L21 12L22 12L22 11L23 11L23 9L24 9L24 11L25 11L25 9L24 9L24 8L22 8L22 9L21 9L21 8L18 8L18 9L17 9L17 4L15 4L15 2L16 2L16 0L14 0L14 4L13 4L13 5L14 5L14 8L13 8L13 6L12 6L12 5L11 5L11 6L10 6L10 5L9 5L9 4L12 4L12 3L13 3L13 0L12 0L12 1L11 1L11 2L9 2L9 1L10 1L10 0ZM14 4L14 5L15 5L15 4ZM9 6L9 7L10 7L10 8L8 8L8 9L9 9L9 10L7 10L7 9L6 9L6 10L7 10L7 11L6 11L6 12L7 12L7 11L9 11L9 10L10 10L10 8L11 8L11 9L12 9L12 6L11 6L11 7L10 7L10 6ZM15 6L15 7L16 7L16 6ZM3 9L3 10L2 10L2 13L3 13L3 10L4 10L4 9ZM19 9L19 10L20 10L20 11L18 11L18 12L19 12L19 13L20 13L20 14L17 14L17 15L16 15L16 14L15 14L15 13L13 13L13 14L12 14L12 15L14 15L14 17L16 17L16 16L19 16L19 15L20 15L20 14L21 14L21 15L22 15L22 14L21 14L21 13L20 13L20 12L21 12L21 11L22 11L22 10L21 10L21 9ZM5 14L5 15L4 15L4 16L6 16L6 17L7 17L7 16L6 16L6 15L7 15L7 14ZM15 15L15 16L16 16L16 15ZM17 17L17 20L20 20L20 17ZM18 18L18 19L19 19L19 18ZM13 19L13 20L15 20L15 21L13 21L13 22L15 22L15 21L16 21L16 20L15 20L15 19ZM23 19L23 20L24 20L24 19ZM20 21L20 22L21 22L21 23L22 23L22 22L21 22L21 21ZM10 22L10 24L9 24L9 23L8 23L8 25L10 25L10 24L11 24L11 22ZM24 22L24 23L25 23L25 22ZM23 24L23 25L25 25L25 24ZM0 0L0 7L7 7L7 0ZM1 1L1 6L6 6L6 1ZM2 2L2 5L5 5L5 2ZM18 0L18 7L25 7L25 0ZM19 1L19 6L24 6L24 1ZM20 2L20 5L23 5L23 2ZM0 18L0 25L7 25L7 18ZM1 19L1 24L6 24L6 19ZM2 20L2 23L5 23L5 20Z" fill="#000000"/></g></g></svg>
