<?xml version="1.0" encoding="UTF-8"?>
<svg xmlns="http://www.w3.org/2000/svg" version="1.1" width="300" height="300" viewBox="0 0 300 300"><rect x="0" y="0" width="300" height="300" fill="#ffffff"/><g transform="scale(10.345)"><g transform="translate(0,0)"><path fill-rule="evenodd" d="M8 0L8 1L10 1L10 0ZM15 0L15 1L14 1L14 2L11 2L11 4L10 4L10 3L9 3L9 2L8 2L8 5L9 5L9 6L8 6L8 7L9 7L9 8L8 8L8 9L7 9L7 8L6 8L6 9L7 9L7 10L6 10L6 11L7 11L7 12L6 12L6 13L5 13L5 14L4 14L4 13L3 13L3 11L1 11L1 10L0 10L0 12L1 12L1 13L0 13L0 14L1 14L1 18L0 18L0 19L1 19L1 18L3 18L3 19L4 19L4 20L1 20L1 21L4 21L4 20L5 20L5 19L8 19L8 20L10 20L10 21L12 21L12 22L11 22L11 23L10 23L10 22L9 22L9 21L8 21L8 22L9 22L9 25L8 25L8 29L10 29L10 28L12 28L12 29L13 29L13 28L12 28L12 26L13 26L13 27L14 27L14 29L15 29L15 28L17 28L17 29L25 29L25 28L22 28L22 27L24 27L24 25L25 25L25 27L26 27L26 26L27 26L27 25L28 25L28 27L27 27L27 28L26 28L26 29L28 29L28 27L29 27L29 25L28 25L28 24L29 24L29 23L28 23L28 21L27 21L27 20L28 20L28 19L27 19L27 18L26 18L26 16L25 16L25 15L27 15L27 17L28 17L28 18L29 18L29 17L28 17L28 15L29 15L29 12L26 12L26 11L27 11L27 10L29 10L29 8L28 8L28 9L27 9L27 8L24 8L24 9L22 9L22 8L21 8L21 6L20 6L20 5L19 5L19 4L20 4L20 2L21 2L21 1L20 1L20 0L18 0L18 1L17 1L17 0ZM16 1L16 3L12 3L12 5L10 5L10 6L9 6L9 7L10 7L10 8L9 8L9 9L8 9L8 10L7 10L7 11L8 11L8 10L9 10L9 12L10 12L10 13L11 13L11 11L14 11L14 10L15 10L15 9L16 9L16 8L17 8L17 10L16 10L16 12L12 12L12 14L10 14L10 15L8 15L8 14L9 14L9 13L8 13L8 12L7 12L7 13L6 13L6 14L5 14L5 15L2 15L2 17L3 17L3 18L7 18L7 17L5 17L5 16L9 16L9 17L8 17L8 19L11 19L11 20L12 20L12 19L11 19L11 18L12 18L12 17L14 17L14 18L13 18L13 20L14 20L14 21L16 21L16 20L17 20L17 22L19 22L19 24L18 24L18 23L17 23L17 24L15 24L15 23L16 23L16 22L14 22L14 23L11 23L11 25L10 25L10 26L11 26L11 25L12 25L12 24L13 24L13 26L14 26L14 27L17 27L17 28L18 28L18 26L19 26L19 25L20 25L20 22L19 22L19 21L18 21L18 20L24 20L24 19L25 19L25 21L26 21L26 22L25 22L25 23L26 23L26 24L27 24L27 23L26 23L26 22L27 22L27 21L26 21L26 18L25 18L25 17L24 17L24 18L23 18L23 16L24 16L24 15L25 15L25 14L26 14L26 13L25 13L25 12L22 12L22 13L23 13L23 14L21 14L21 10L20 10L20 9L21 9L21 8L20 8L20 9L19 9L19 10L18 10L18 8L17 8L17 7L18 7L18 6L17 6L17 4L19 4L19 2L20 2L20 1L18 1L18 2L17 2L17 1ZM16 3L16 4L17 4L17 3ZM13 4L13 5L12 5L12 7L11 7L11 6L10 6L10 7L11 7L11 8L12 8L12 7L13 7L13 9L15 9L15 5L14 5L14 4ZM13 5L13 7L14 7L14 5ZM16 6L16 7L17 7L17 6ZM19 6L19 7L20 7L20 6ZM0 8L0 9L2 9L2 10L3 10L3 9L4 9L4 8ZM9 9L9 10L10 10L10 9ZM25 9L25 10L22 10L22 11L26 11L26 10L27 10L27 9ZM4 10L4 12L5 12L5 10ZM17 10L17 11L18 11L18 12L20 12L20 11L18 11L18 10ZM1 13L1 14L3 14L3 13ZM13 13L13 14L12 14L12 16L10 16L10 17L9 17L9 18L10 18L10 17L12 17L12 16L14 16L14 15L15 15L15 14L14 14L14 13ZM17 13L17 14L16 14L16 15L19 15L19 16L16 16L16 17L17 17L17 18L15 18L15 19L17 19L17 20L18 20L18 19L19 19L19 18L20 18L20 19L22 19L22 18L21 18L21 17L19 17L19 16L20 16L20 14L18 14L18 13ZM6 14L6 15L7 15L7 14ZM13 14L13 15L14 15L14 14ZM23 14L23 15L21 15L21 16L23 16L23 15L24 15L24 14ZM27 14L27 15L28 15L28 14ZM18 17L18 18L17 18L17 19L18 19L18 18L19 18L19 17ZM6 20L6 21L7 21L7 20ZM21 21L21 24L24 24L24 21ZM22 22L22 23L23 23L23 22ZM14 24L14 26L15 26L15 24ZM16 25L16 26L17 26L17 25ZM22 25L22 26L23 26L23 25ZM20 26L20 27L19 27L19 28L21 28L21 26ZM0 0L0 7L7 7L7 0ZM1 1L1 6L6 6L6 1ZM2 2L2 5L5 5L5 2ZM22 0L22 7L29 7L29 0ZM23 1L23 6L28 6L28 1ZM24 2L24 5L27 5L27 2ZM0 22L0 29L7 29L7 22ZM1 23L1 28L6 28L6 23ZM2 24L2 27L5 27L5 24Z" fill="#000000"/></g></g></svg>
