<?xml version="1.0" encoding="UTF-8"?>
<svg xmlns="http://www.w3.org/2000/svg" version="1.1" width="300" height="300" viewBox="0 0 300 300"><rect x="0" y="0" width="300" height="300" fill="#ffffff"/><g transform="scale(12)"><g transform="translate(0,0)"><path fill-rule="evenodd" d="M9 0L9 1L11 1L11 2L9 2L9 3L8 3L8 5L9 5L9 6L8 6L8 7L9 7L9 9L8 9L8 8L5 8L5 9L2 9L2 8L0 8L0 12L1 12L1 13L0 13L0 17L1 17L1 14L2 14L2 16L3 16L3 17L4 17L4 16L5 16L5 17L7 17L7 16L6 16L6 15L7 15L7 14L6 14L6 13L8 13L8 15L11 15L11 16L8 16L8 20L10 20L10 22L9 22L9 23L8 23L8 25L9 25L9 23L10 23L10 22L11 22L11 19L12 19L12 21L13 21L13 19L15 19L15 18L16 18L16 20L14 20L14 22L20 22L20 21L21 21L21 22L22 22L22 23L23 23L23 22L24 22L24 25L25 25L25 21L23 21L23 20L22 20L22 21L21 21L21 15L22 15L22 17L23 17L23 16L25 16L25 10L24 10L24 9L23 9L23 10L21 10L21 9L22 9L22 8L20 8L20 9L18 9L18 10L17 10L17 11L18 11L18 10L20 10L20 12L18 12L18 13L22 13L22 12L21 12L21 11L23 11L23 10L24 10L24 14L23 14L23 15L22 15L22 14L18 14L18 15L16 15L16 13L17 13L17 12L15 12L15 15L14 15L14 14L13 14L13 13L14 13L14 12L12 12L12 11L13 11L13 10L11 10L11 8L10 8L10 7L11 7L11 4L12 4L12 5L14 5L14 8L13 8L13 6L12 6L12 9L14 9L14 10L15 10L15 11L16 11L16 10L15 10L15 9L17 9L17 8L16 8L16 7L17 7L17 3L16 3L16 2L14 2L14 3L15 3L15 5L14 5L14 4L12 4L12 2L13 2L13 1L16 1L16 0L13 0L13 1L12 1L12 0ZM9 3L9 5L10 5L10 3ZM15 5L15 7L16 7L16 5ZM9 6L9 7L10 7L10 6ZM14 8L14 9L15 9L15 8ZM1 9L1 11L2 11L2 9ZM5 9L5 10L4 10L4 11L5 11L5 12L2 12L2 13L3 13L3 14L4 14L4 15L5 15L5 14L4 14L4 13L6 13L6 12L7 12L7 11L6 11L6 10L7 10L7 9ZM9 9L9 10L10 10L10 11L8 11L8 12L10 12L10 11L11 11L11 10L10 10L10 9ZM11 12L11 15L12 15L12 12ZM13 15L13 16L11 16L11 18L12 18L12 19L13 19L13 17L14 17L14 18L15 18L15 17L16 17L16 16L15 16L15 17L14 17L14 15ZM19 15L19 16L20 16L20 15ZM9 17L9 18L10 18L10 17ZM17 17L17 20L20 20L20 17ZM24 17L24 19L25 19L25 17ZM18 18L18 19L19 19L19 18ZM12 22L12 23L11 23L11 25L12 25L12 23L13 23L13 22ZM14 23L14 24L13 24L13 25L14 25L14 24L15 24L15 23ZM16 23L16 25L17 25L17 24L18 24L18 25L21 25L21 23L19 23L19 24L18 24L18 23ZM0 0L0 7L7 7L7 0ZM1 1L1 6L6 6L6 1ZM2 2L2 5L5 5L5 2ZM18 0L18 7L25 7L25 0ZM19 1L19 6L24 6L24 1ZM20 2L20 5L23 5L23 2ZM0 18L0 25L7 25L7 18ZM1 19L1 24L6 24L6 19ZM2 20L2 23L5 23L5 20Z" fill="#000000"/></g></g></svg>
