<?xml version="1.0" encoding="UTF-8"?>
<svg xmlns="http://www.w3.org/2000/svg" version="1.1" width="300" height="300" viewBox="0 0 300 300"><rect x="0" y="0" width="300" height="300" fill="#ffffff"/><g transform="scale(12)"><g transform="translate(0,0)"><path fill-rule="evenodd" d="M9 0L9 1L8 1L8 2L9 2L9 3L8 3L8 4L10 4L10 7L11 7L11 4L12 4L12 8L6 8L6 9L5 9L5 8L0 8L0 9L1 9L1 12L0 12L0 17L1 17L1 14L2 14L2 15L3 15L3 14L4 14L4 12L5 12L5 11L7 11L7 12L6 12L6 13L5 13L5 15L4 15L4 16L3 16L3 17L7 17L7 16L5 16L5 15L8 15L8 19L9 19L9 20L8 20L8 25L10 25L10 24L11 24L11 23L10 23L10 22L11 22L11 20L13 20L13 19L15 19L15 20L14 20L14 21L17 21L17 22L21 22L21 23L19 23L19 24L18 24L18 23L14 23L14 24L13 24L13 22L12 22L12 25L14 25L14 24L17 24L17 25L20 25L20 24L22 24L22 25L25 25L25 21L24 21L24 20L25 20L25 17L24 17L24 18L22 18L22 17L23 17L23 16L25 16L25 10L24 10L24 8L23 8L23 9L22 9L22 8L21 8L21 10L20 10L20 8L19 8L19 9L18 9L18 8L17 8L17 6L16 6L16 5L17 5L17 4L16 4L16 2L17 2L17 0L14 0L14 1L11 1L11 2L10 2L10 0ZM14 1L14 2L12 2L12 3L13 3L13 5L14 5L14 6L13 6L13 9L10 9L10 11L11 11L11 12L10 12L10 13L11 13L11 16L10 16L10 15L9 15L9 11L8 11L8 10L7 10L7 9L6 9L6 10L7 10L7 11L8 11L8 13L6 13L6 14L8 14L8 15L9 15L9 16L10 16L10 18L9 18L9 19L10 19L10 20L9 20L9 21L10 21L10 20L11 20L11 19L13 19L13 17L14 17L14 18L15 18L15 19L16 19L16 16L17 16L17 15L18 15L18 14L20 14L20 16L21 16L21 17L22 17L22 16L23 16L23 14L24 14L24 13L22 13L22 16L21 16L21 12L20 12L20 10L18 10L18 9L17 9L17 8L16 8L16 9L17 9L17 10L16 10L16 13L14 13L14 12L15 12L15 9L14 9L14 6L15 6L15 7L16 7L16 6L15 6L15 5L14 5L14 3L15 3L15 1ZM10 3L10 4L11 4L11 3ZM8 5L8 7L9 7L9 5ZM4 9L4 11L3 11L3 10L2 10L2 12L4 12L4 11L5 11L5 9ZM13 9L13 10L14 10L14 9ZM17 10L17 11L18 11L18 10ZM23 10L23 11L22 11L22 12L24 12L24 10ZM12 11L12 13L13 13L13 11ZM17 12L17 13L19 13L19 12ZM2 13L2 14L3 14L3 13ZM12 14L12 16L11 16L11 17L13 17L13 14ZM15 14L15 15L14 15L14 17L15 17L15 15L16 15L16 14ZM17 17L17 20L20 20L20 17ZM18 18L18 19L19 19L19 18ZM21 18L21 19L22 19L22 20L21 20L21 22L23 22L23 23L22 23L22 24L24 24L24 22L23 22L23 21L22 21L22 20L24 20L24 19L22 19L22 18ZM0 0L0 7L7 7L7 0ZM1 1L1 6L6 6L6 1ZM2 2L2 5L5 5L5 2ZM18 0L18 7L25 7L25 0ZM19 1L19 6L24 6L24 1ZM20 2L20 5L23 5L23 2ZM0 18L0 25L7 25L7 18ZM1 19L1 24L6 24L6 19ZM2 20L2 23L5 23L5 20Z" fill="#000000"/></g></g></svg>
