<?xml version="1.0" encoding="UTF-8"?>
<svg xmlns="http://www.w3.org/2000/svg" version="1.1" width="300" height="300" viewBox="0 0 300 300"><rect x="0" y="0" width="300" height="300" fill="#ffffff"/><g transform="scale(12)"><g transform="translate(0,0)"><path fill-rule="evenodd" d="M8 0L8 1L10 1L10 2L9 2L9 3L10 3L10 4L11 4L11 3L13 3L13 5L14 5L14 7L13 7L13 6L12 6L12 5L11 5L11 6L10 6L10 5L9 5L9 6L8 6L8 8L9 8L9 9L10 9L10 10L6 10L6 11L5 11L5 8L3 8L3 9L2 9L2 8L0 8L0 9L2 9L2 10L3 10L3 9L4 9L4 11L5 11L5 12L4 12L4 15L5 15L5 12L6 12L6 13L8 13L8 14L9 14L9 13L10 13L10 15L8 15L8 16L3 16L3 15L2 15L2 14L1 14L1 13L3 13L3 11L1 11L1 10L0 10L0 17L1 17L1 15L2 15L2 16L3 16L3 17L8 17L8 18L10 18L10 19L9 19L9 20L8 20L8 22L9 22L9 23L8 23L8 25L11 25L11 24L12 24L12 25L13 25L13 23L15 23L15 25L17 25L17 24L16 24L16 23L18 23L18 25L21 25L21 24L20 24L20 23L21 23L21 16L19 16L19 15L22 15L22 18L24 18L24 19L25 19L25 17L24 17L24 16L25 16L25 10L24 10L24 9L25 9L25 8L24 8L24 9L23 9L23 10L21 10L21 9L19 9L19 8L18 8L18 9L19 9L19 10L16 10L16 7L17 7L17 4L16 4L16 7L15 7L15 4L14 4L14 2L13 2L13 1L12 1L12 2L11 2L11 0ZM14 0L14 1L15 1L15 0ZM16 1L16 2L15 2L15 3L16 3L16 2L17 2L17 1ZM10 2L10 3L11 3L11 2ZM9 6L9 7L10 7L10 9L12 9L12 10L13 10L13 11L12 11L12 12L13 12L13 13L12 13L12 14L11 14L11 15L12 15L12 16L10 16L10 17L11 17L11 18L12 18L12 19L10 19L10 20L9 20L9 21L10 21L10 22L11 22L11 21L12 21L12 22L14 22L14 20L13 20L13 21L12 21L12 19L13 19L13 18L15 18L15 20L16 20L16 17L12 17L12 16L16 16L16 15L15 15L15 14L14 14L14 13L16 13L16 12L17 12L17 14L18 14L18 15L19 15L19 14L20 14L20 13L18 13L18 11L15 11L15 12L14 12L14 8L15 8L15 7L14 7L14 8L13 8L13 7L12 7L12 6L11 6L11 7L10 7L10 6ZM6 8L6 9L7 9L7 8ZM10 10L10 11L9 11L9 12L8 12L8 11L6 11L6 12L8 12L8 13L9 13L9 12L11 12L11 10ZM19 10L19 11L21 11L21 12L22 12L22 13L21 13L21 14L24 14L24 12L22 12L22 11L21 11L21 10ZM6 14L6 15L7 15L7 14ZM12 14L12 15L14 15L14 14ZM8 16L8 17L9 17L9 16ZM17 17L17 20L20 20L20 17ZM18 18L18 19L19 19L19 18ZM10 20L10 21L11 21L11 20ZM23 20L23 21L22 21L22 22L23 22L23 23L22 23L22 24L24 24L24 25L25 25L25 21L24 21L24 20ZM15 21L15 22L17 22L17 21ZM19 21L19 22L18 22L18 23L20 23L20 21ZM9 23L9 24L11 24L11 23ZM0 0L0 7L7 7L7 0ZM1 1L1 6L6 6L6 1ZM2 2L2 5L5 5L5 2ZM18 0L18 7L25 7L25 0ZM19 1L19 6L24 6L24 1ZM20 2L20 5L23 5L23 2ZM0 18L0 25L7 25L7 18ZM1 19L1 24L6 24L6 19ZM2 20L2 23L5 23L5 20Z" fill="#000000"/></g></g></svg>
