<?xml version="1.0" encoding="UTF-8"?>
<svg xmlns="http://www.w3.org/2000/svg" version="1.1" width="300" height="300" viewBox="0 0 300 300"><rect x="0" y="0" width="300" height="300" fill="#ffffff"/><g transform="scale(12)"><g transform="translate(0,0)"><path fill-rule="evenodd" d="M8 0L8 4L9 4L9 5L8 5L8 7L9 7L9 6L10 6L10 9L11 9L11 8L12 8L12 9L13 9L13 10L14 10L14 8L12 8L12 7L13 7L13 6L14 6L14 7L15 7L15 5L16 5L16 4L17 4L17 2L15 2L15 1L14 1L14 0L13 0L13 1L11 1L11 2L12 2L12 5L13 5L13 6L12 6L12 7L11 7L11 3L10 3L10 2L9 2L9 0ZM16 0L16 1L17 1L17 0ZM13 1L13 3L14 3L14 4L15 4L15 3L14 3L14 1ZM16 6L16 8L17 8L17 6ZM0 8L0 9L1 9L1 12L0 12L0 14L3 14L3 13L5 13L5 12L6 12L6 13L7 13L7 12L8 12L8 13L9 13L9 12L10 12L10 11L11 11L11 10L8 10L8 11L7 11L7 10L6 10L6 11L5 11L5 9L7 9L7 8L4 8L4 10L2 10L2 8ZM19 8L19 9L18 9L18 11L17 11L17 9L16 9L16 10L15 10L15 12L17 12L17 13L19 13L19 15L20 15L20 14L21 14L21 16L17 16L17 15L18 15L18 14L16 14L16 13L14 13L14 12L13 12L13 11L12 11L12 12L11 12L11 13L10 13L10 14L9 14L9 15L11 15L11 16L8 16L8 14L4 14L4 15L7 15L7 16L5 16L5 17L7 17L7 16L8 16L8 18L9 18L9 19L8 19L8 21L9 21L9 20L10 20L10 21L12 21L12 22L11 22L11 23L10 23L10 22L9 22L9 23L8 23L8 25L9 25L9 23L10 23L10 25L14 25L14 24L15 24L15 25L16 25L16 23L18 23L18 24L17 24L17 25L20 25L20 23L19 23L19 21L21 21L21 25L25 25L25 24L24 24L24 22L25 22L25 21L23 21L23 20L24 20L24 19L21 19L21 17L23 17L23 14L21 14L21 12L22 12L22 13L24 13L24 14L25 14L25 12L24 12L24 9L25 9L25 8L21 8L21 9L20 9L20 8ZM19 9L19 12L20 12L20 9ZM21 9L21 10L22 10L22 11L23 11L23 10L22 10L22 9ZM4 11L4 12L5 12L5 11ZM6 11L6 12L7 12L7 11ZM8 11L8 12L9 12L9 11ZM1 12L1 13L2 13L2 12ZM12 12L12 13L11 13L11 14L12 14L12 13L13 13L13 12ZM13 14L13 15L12 15L12 16L11 16L11 17L9 17L9 18L11 18L11 19L10 19L10 20L12 20L12 19L13 19L13 20L14 20L14 21L13 21L13 22L12 22L12 23L13 23L13 24L14 24L14 23L16 23L16 22L17 22L17 21L16 21L16 20L15 20L15 19L16 19L16 18L15 18L15 16L16 16L16 15L15 15L15 14ZM14 15L14 16L12 16L12 17L13 17L13 18L14 18L14 19L15 19L15 18L14 18L14 16L15 16L15 15ZM0 16L0 17L4 17L4 16ZM17 17L17 20L20 20L20 17ZM24 17L24 18L25 18L25 17ZM18 18L18 19L19 19L19 18ZM14 21L14 22L16 22L16 21ZM22 21L22 22L23 22L23 21ZM0 0L0 7L7 7L7 0ZM1 1L1 6L6 6L6 1ZM2 2L2 5L5 5L5 2ZM18 0L18 7L25 7L25 0ZM19 1L19 6L24 6L24 1ZM20 2L20 5L23 5L23 2ZM0 18L0 25L7 25L7 18ZM1 19L1 24L6 24L6 19ZM2 20L2 23L5 23L5 20Z" fill="#000000"/></g></g></svg>
