<?xml version="1.0" encoding="UTF-8"?>
<svg xmlns="http://www.w3.org/2000/svg" version="1.1" width="300" height="300" viewBox="0 0 300 300"><rect x="0" y="0" width="300" height="300" fill="#ffffff"/><g transform="scale(10.345)"><g transform="translate(0,0)"><path fill-rule="evenodd" d="M8 0L8 4L9 4L9 5L8 5L8 7L9 7L9 6L10 6L10 9L11 9L11 8L12 8L12 9L13 9L13 10L15 10L15 11L14 11L14 12L13 12L13 11L12 11L12 12L11 12L11 13L10 13L10 14L9 14L9 13L8 13L8 14L9 14L9 15L8 15L8 17L7 17L7 16L5 16L5 15L7 15L7 14L5 14L5 15L4 15L4 13L3 13L3 11L4 11L4 12L5 12L5 13L7 13L7 12L6 12L6 11L7 11L7 10L8 10L8 9L7 9L7 8L4 8L4 10L3 10L3 9L2 9L2 8L0 8L0 10L1 10L1 11L2 11L2 14L3 14L3 15L4 15L4 18L3 18L3 16L1 16L1 13L0 13L0 18L1 18L1 17L2 17L2 19L4 19L4 18L5 18L5 17L7 17L7 18L6 18L6 19L5 19L5 20L4 20L4 21L5 21L5 20L6 20L6 21L8 21L8 22L9 22L9 21L10 21L10 22L11 22L11 23L8 23L8 25L9 25L9 26L10 26L10 28L11 28L11 29L12 29L12 28L13 28L13 29L15 29L15 27L16 27L16 29L17 29L17 28L18 28L18 26L17 26L17 25L16 25L16 24L18 24L18 23L16 23L16 22L17 22L17 20L19 20L19 21L20 21L20 23L19 23L19 25L20 25L20 26L21 26L21 27L23 27L23 28L22 28L22 29L23 29L23 28L25 28L25 29L28 29L28 28L29 28L29 25L28 25L28 26L27 26L27 25L25 25L25 19L26 19L26 17L22 17L22 18L21 18L21 19L19 19L19 18L20 18L20 17L21 17L21 16L22 16L22 14L25 14L25 15L27 15L27 17L28 17L28 16L29 16L29 12L28 12L28 11L29 11L29 8L25 8L25 9L24 9L24 8L23 8L23 9L22 9L22 12L23 12L23 10L27 10L27 12L28 12L28 13L21 13L21 12L19 12L19 14L17 14L17 13L16 13L16 14L13 14L13 13L15 13L15 12L16 12L16 10L18 10L18 11L17 11L17 12L18 12L18 11L19 11L19 10L20 10L20 11L21 11L21 10L20 10L20 8L21 8L21 5L20 5L20 3L18 3L18 2L21 2L21 0L20 0L20 1L19 1L19 0L18 0L18 2L17 2L17 3L16 3L16 4L18 4L18 5L19 5L19 6L18 6L18 7L17 7L17 5L16 5L16 10L15 10L15 9L14 9L14 7L15 7L15 6L14 6L14 7L13 7L13 6L12 6L12 7L11 7L11 3L10 3L10 2L9 2L9 0ZM13 0L13 1L11 1L11 2L12 2L12 5L13 5L13 2L14 2L14 3L15 3L15 2L16 2L16 1L17 1L17 0L16 0L16 1L15 1L15 0ZM19 6L19 8L17 8L17 9L19 9L19 8L20 8L20 6ZM12 7L12 8L13 8L13 7ZM1 9L1 10L2 10L2 11L3 11L3 10L2 10L2 9ZM6 9L6 10L7 10L7 9ZM27 9L27 10L28 10L28 9ZM9 10L9 11L8 11L8 12L10 12L10 11L11 11L11 10ZM24 11L24 12L25 12L25 11ZM12 12L12 13L11 13L11 14L12 14L12 13L13 13L13 12ZM20 13L20 14L19 14L19 15L18 15L18 16L17 16L17 18L16 18L16 15L17 15L17 14L16 14L16 15L14 15L14 17L15 17L15 18L13 18L13 17L12 17L12 16L13 16L13 15L12 15L12 16L11 16L11 15L10 15L10 16L9 16L9 17L10 17L10 18L8 18L8 19L6 19L6 20L8 20L8 19L11 19L11 20L12 20L12 21L11 21L11 22L12 22L12 21L13 21L13 22L16 22L16 19L17 19L17 18L18 18L18 17L20 17L20 16L19 16L19 15L21 15L21 13ZM23 15L23 16L24 16L24 15ZM10 16L10 17L11 17L11 16ZM15 18L15 19L14 19L14 20L13 20L13 19L12 19L12 20L13 20L13 21L15 21L15 19L16 19L16 18ZM28 18L28 21L29 21L29 18ZM23 19L23 20L24 20L24 19ZM0 20L0 21L2 21L2 20ZM21 21L21 24L24 24L24 21ZM26 21L26 23L27 23L27 21ZM22 22L22 23L23 23L23 22ZM28 22L28 23L29 23L29 22ZM12 23L12 24L11 24L11 25L10 25L10 24L9 24L9 25L10 25L10 26L11 26L11 28L12 28L12 27L13 27L13 28L14 28L14 27L15 27L15 26L16 26L16 25L15 25L15 23L14 23L14 25L15 25L15 26L13 26L13 25L12 25L12 24L13 24L13 23ZM22 25L22 26L23 26L23 27L25 27L25 28L27 28L27 26L26 26L26 27L25 27L25 26L24 26L24 25ZM8 27L8 29L9 29L9 27ZM20 28L20 29L21 29L21 28ZM0 0L0 7L7 7L7 0ZM1 1L1 6L6 6L6 1ZM2 2L2 5L5 5L5 2ZM22 0L22 7L29 7L29 0ZM23 1L23 6L28 6L28 1ZM24 2L24 5L27 5L27 2ZM0 22L0 29L7 29L7 22ZM1 23L1 28L6 28L6 23ZM2 24L2 27L5 27L5 24Z" fill="#000000"/></g></g></svg>
