<?xml version="1.0" encoding="UTF-8"?>
<svg xmlns="http://www.w3.org/2000/svg" version="1.1" width="300" height="300" viewBox="0 0 300 300"><rect x="0" y="0" width="300" height="300" fill="#ffffff"/><g transform="scale(10.345)"><g transform="translate(0,0)"><path fill-rule="evenodd" d="M9 0L9 1L8 1L8 3L9 3L9 4L8 4L8 8L6 8L6 9L4 9L4 8L3 8L3 9L2 9L2 8L0 8L0 9L2 9L2 10L1 10L1 11L2 11L2 10L3 10L3 13L2 13L2 12L0 12L0 15L1 15L1 16L0 16L0 17L1 17L1 18L0 18L0 19L1 19L1 18L2 18L2 21L3 21L3 18L4 18L4 16L5 16L5 17L7 17L7 18L6 18L6 19L4 19L4 21L7 21L7 20L6 20L6 19L7 19L7 18L9 18L9 17L8 17L8 16L10 16L10 15L11 15L11 14L12 14L12 16L11 16L11 17L10 17L10 19L8 19L8 20L9 20L9 21L8 21L8 23L9 23L9 25L8 25L8 26L10 26L10 28L12 28L12 29L14 29L14 28L12 28L12 24L14 24L14 25L13 25L13 27L15 27L15 26L16 26L16 27L17 27L17 28L20 28L20 29L21 29L21 28L20 28L20 27L18 27L18 26L16 26L16 25L17 25L17 22L18 22L18 24L19 24L19 23L20 23L20 25L19 25L19 26L20 26L20 25L22 25L22 28L25 28L25 29L28 29L28 27L29 27L29 26L28 26L28 25L29 25L29 23L28 23L28 21L27 21L27 20L25 20L25 19L28 19L28 20L29 20L29 18L28 18L28 15L29 15L29 14L28 14L28 15L27 15L27 14L24 14L24 15L21 15L21 11L22 11L22 10L23 10L23 12L22 12L22 13L23 13L23 12L25 12L25 13L26 13L26 12L29 12L29 11L27 11L27 10L29 10L29 9L28 9L28 8L26 8L26 9L25 9L25 8L22 8L22 9L20 9L20 8L21 8L21 6L20 6L20 3L19 3L19 0L16 0L16 1L14 1L14 0L12 0L12 1L11 1L11 2L9 2L9 1L10 1L10 0ZM16 1L16 2L14 2L14 3L16 3L16 4L15 4L15 8L14 8L14 6L13 6L13 3L12 3L12 4L9 4L9 5L10 5L10 6L9 6L9 7L10 7L10 8L8 8L8 9L6 9L6 10L5 10L5 11L4 11L4 13L3 13L3 14L2 14L2 16L1 16L1 17L2 17L2 16L3 16L3 15L5 15L5 14L7 14L7 15L6 15L6 16L7 16L7 15L9 15L9 14L10 14L10 13L12 13L12 12L13 12L13 15L19 15L19 16L15 16L15 17L13 17L13 16L12 16L12 17L11 17L11 19L12 19L12 20L13 20L13 21L14 21L14 22L15 22L15 23L14 23L14 24L15 24L15 25L16 25L16 24L15 24L15 23L16 23L16 22L15 22L15 21L14 21L14 20L16 20L16 19L18 19L18 22L19 22L19 19L20 19L20 20L21 20L21 19L22 19L22 18L21 18L21 17L24 17L24 18L23 18L23 20L24 20L24 19L25 19L25 17L27 17L27 15L26 15L26 16L25 16L25 15L24 15L24 16L21 16L21 15L20 15L20 13L19 13L19 11L17 11L17 10L18 10L18 9L19 9L19 8L20 8L20 6L19 6L19 5L18 5L18 4L19 4L19 3L16 3L16 2L18 2L18 1ZM20 1L20 2L21 2L21 1ZM16 4L16 5L17 5L17 4ZM11 5L11 6L10 6L10 7L11 7L11 6L12 6L12 8L13 8L13 6L12 6L12 5ZM16 6L16 7L17 7L17 8L15 8L15 9L14 9L14 10L16 10L16 9L18 9L18 7L19 7L19 6L18 6L18 7L17 7L17 6ZM10 8L10 10L9 10L9 9L8 9L8 10L9 10L9 11L7 11L7 10L6 10L6 11L7 11L7 12L5 12L5 13L7 13L7 14L9 14L9 13L8 13L8 12L9 12L9 11L11 11L11 10L12 10L12 9L11 9L11 8ZM3 9L3 10L4 10L4 9ZM23 9L23 10L25 10L25 9ZM26 9L26 10L27 10L27 9ZM14 11L14 12L15 12L15 11ZM15 13L15 14L16 14L16 13ZM19 16L19 18L20 18L20 16ZM15 17L15 18L18 18L18 17ZM13 18L13 20L14 20L14 18ZM0 20L0 21L1 21L1 20ZM10 20L10 21L9 21L9 23L11 23L11 20ZM21 21L21 24L24 24L24 21ZM25 21L25 22L26 22L26 23L27 23L27 21ZM22 22L22 23L23 23L23 22ZM10 24L10 25L11 25L11 24ZM26 24L26 25L24 25L24 26L23 26L23 27L24 27L24 26L25 26L25 27L26 27L26 28L27 28L27 27L28 27L28 26L26 26L26 25L28 25L28 24ZM8 27L8 29L9 29L9 27ZM0 0L0 7L7 7L7 0ZM1 1L1 6L6 6L6 1ZM2 2L2 5L5 5L5 2ZM22 0L22 7L29 7L29 0ZM23 1L23 6L28 6L28 1ZM24 2L24 5L27 5L27 2ZM0 22L0 29L7 29L7 22ZM1 23L1 28L6 28L6 23ZM2 24L2 27L5 27L5 24Z" fill="#000000"/></g></g></svg>
