<?xml version="1.0" encoding="UTF-8"?>
<svg xmlns="http://www.w3.org/2000/svg" version="1.1" width="300" height="300" viewBox="0 0 300 300"><rect x="0" y="0" width="300" height="300" fill="#ffffff"/><g transform="scale(12)"><g transform="translate(0,0)"><path fill-rule="evenodd" d="M15 0L15 1L14 1L14 2L15 2L15 3L14 3L14 4L13 4L13 3L12 3L12 4L13 4L13 5L12 5L12 8L11 8L11 6L10 6L10 4L11 4L11 2L9 2L9 1L8 1L8 2L9 2L9 3L8 3L8 4L9 4L9 5L8 5L8 7L9 7L9 8L6 8L6 9L5 9L5 8L0 8L0 11L1 11L1 10L3 10L3 11L2 11L2 13L0 13L0 17L1 17L1 14L3 14L3 15L2 15L2 17L3 17L3 16L5 16L5 15L7 15L7 16L6 16L6 17L8 17L8 19L9 19L9 20L8 20L8 25L9 25L9 24L10 24L10 25L11 25L11 24L10 24L10 23L9 23L9 22L11 22L11 20L12 20L12 21L13 21L13 20L12 20L12 19L10 19L10 17L9 17L9 15L7 15L7 14L10 14L10 11L9 11L9 10L11 10L11 9L13 9L13 5L14 5L14 4L15 4L15 6L14 6L14 7L15 7L15 8L14 8L14 13L13 13L13 12L12 12L12 13L13 13L13 15L12 15L12 17L13 17L13 15L14 15L14 17L15 17L15 15L16 15L16 14L15 14L15 15L14 15L14 13L16 13L16 10L17 10L17 11L18 11L18 10L20 10L20 12L21 12L21 16L19 16L19 15L20 15L20 14L18 14L18 15L17 15L17 16L16 16L16 19L14 19L14 22L12 22L12 25L14 25L14 24L13 24L13 23L14 23L14 22L15 22L15 21L17 21L17 22L21 22L21 24L22 24L22 25L25 25L25 22L24 22L24 24L22 24L22 23L23 23L23 22L21 22L21 20L22 20L22 21L23 21L23 20L22 20L22 19L24 19L24 21L25 21L25 17L24 17L24 18L22 18L22 17L23 17L23 16L25 16L25 10L24 10L24 8L23 8L23 9L22 9L22 8L21 8L21 10L20 10L20 8L19 8L19 9L18 9L18 8L17 8L17 4L16 4L16 2L17 2L17 0ZM9 6L9 7L10 7L10 6ZM15 6L15 7L16 7L16 6ZM15 8L15 9L17 9L17 10L18 10L18 9L17 9L17 8ZM3 9L3 10L4 10L4 11L3 11L3 12L5 12L5 14L4 14L4 15L5 15L5 14L7 14L7 13L6 13L6 12L8 12L8 11L6 11L6 10L9 10L9 9L6 9L6 10L5 10L5 9ZM12 10L12 11L13 11L13 10ZM23 10L23 11L22 11L22 12L24 12L24 10ZM5 11L5 12L6 12L6 11ZM17 12L17 13L19 13L19 12ZM22 13L22 16L21 16L21 17L22 17L22 16L23 16L23 14L24 14L24 13ZM10 15L10 16L11 16L11 15ZM17 17L17 20L20 20L20 17ZM18 18L18 19L19 19L19 18ZM21 18L21 19L22 19L22 18ZM15 23L15 24L17 24L17 25L19 25L19 24L18 24L18 23ZM0 0L0 7L7 7L7 0ZM1 1L1 6L6 6L6 1ZM2 2L2 5L5 5L5 2ZM18 0L18 7L25 7L25 0ZM19 1L19 6L24 6L24 1ZM20 2L20 5L23 5L23 2ZM0 18L0 25L7 25L7 18ZM1 19L1 24L6 24L6 19ZM2 20L2 23L5 23L5 20Z" fill="#000000"/></g></g></svg>
