<?xml version="1.0" encoding="UTF-8"?>
<svg xmlns="http://www.w3.org/2000/svg" version="1.1" width="300" height="300" viewBox="0 0 300 300"><rect x="0" y="0" width="300" height="300" fill="#ffffff"/><g transform="scale(12)"><g transform="translate(0,0)"><path fill-rule="evenodd" d="M9 0L9 1L8 1L8 3L9 3L9 4L8 4L8 8L6 8L6 9L8 9L8 8L10 8L10 10L9 10L9 11L7 11L7 10L5 10L5 9L4 9L4 8L3 8L3 9L2 9L2 8L0 8L0 9L2 9L2 10L4 10L4 11L3 11L3 12L2 12L2 11L1 11L1 12L0 12L0 13L2 13L2 14L3 14L3 15L4 15L4 16L3 16L3 17L5 17L5 15L7 15L7 14L3 14L3 13L5 13L5 12L4 12L4 11L7 11L7 12L6 12L6 13L9 13L9 11L11 11L11 10L12 10L12 9L11 9L11 8L10 8L10 7L11 7L11 6L12 6L12 8L13 8L13 12L12 12L12 13L10 13L10 14L12 14L12 16L10 16L10 17L8 17L8 19L11 19L11 20L10 20L10 21L11 21L11 22L10 22L10 24L9 24L9 23L8 23L8 25L10 25L10 24L11 24L11 25L13 25L13 24L14 24L14 23L13 23L13 19L11 19L11 18L10 18L10 17L14 17L14 19L15 19L15 20L14 20L14 21L15 21L15 22L16 22L16 25L19 25L19 24L20 24L20 25L22 25L22 23L23 23L23 22L22 22L22 20L23 20L23 21L24 21L24 20L23 20L23 19L25 19L25 18L23 18L23 19L22 19L22 17L23 17L23 16L22 16L22 15L23 15L23 14L24 14L24 15L25 15L25 14L24 14L24 13L25 13L25 12L23 12L23 13L21 13L21 12L22 12L22 11L23 11L23 9L24 9L24 11L25 11L25 9L24 9L24 8L22 8L22 9L21 9L21 8L18 8L18 9L17 9L17 8L15 8L15 10L14 10L14 8L13 8L13 6L14 6L14 7L15 7L15 6L16 6L16 7L17 7L17 4L16 4L16 5L15 5L15 6L14 6L14 4L15 4L15 2L16 2L16 3L17 3L17 1L15 1L15 0L12 0L12 1L11 1L11 2L9 2L9 1L10 1L10 0ZM13 1L13 3L12 3L12 4L9 4L9 5L10 5L10 6L9 6L9 7L10 7L10 6L11 6L11 5L12 5L12 6L13 6L13 3L14 3L14 2L15 2L15 1ZM19 9L19 10L20 10L20 11L18 11L18 10L17 10L17 11L18 11L18 12L19 12L19 13L20 13L20 14L17 14L17 13L16 13L16 14L15 14L15 12L13 12L13 13L14 13L14 15L16 15L16 16L14 16L14 17L16 17L16 16L19 16L19 15L20 15L20 14L21 14L21 15L22 15L22 14L21 14L21 13L20 13L20 12L21 12L21 11L22 11L22 10L21 10L21 9ZM15 10L15 11L16 11L16 10ZM0 14L0 15L1 15L1 16L0 16L0 17L2 17L2 15L1 15L1 14ZM8 14L8 15L9 15L9 14ZM16 14L16 15L17 15L17 14ZM6 16L6 17L7 17L7 16ZM17 17L17 20L20 20L20 17ZM18 18L18 19L19 19L19 18ZM15 20L15 21L16 21L16 20ZM8 21L8 22L9 22L9 21ZM17 21L17 23L18 23L18 24L19 24L19 21ZM20 21L20 22L21 22L21 21ZM11 22L11 24L12 24L12 22ZM24 22L24 23L25 23L25 22ZM23 24L23 25L25 25L25 24ZM0 0L0 7L7 7L7 0ZM1 1L1 6L6 6L6 1ZM2 2L2 5L5 5L5 2ZM18 0L18 7L25 7L25 0ZM19 1L19 6L24 6L24 1ZM20 2L20 5L23 5L23 2ZM0 18L0 25L7 25L7 18ZM1 19L1 24L6 24L6 19ZM2 20L2 23L5 23L5 20Z" fill="#000000"/></g></g></svg>
