<?xml version="1.0" encoding="UTF-8"?>
<svg xmlns="http://www.w3.org/2000/svg" version="1.1" width="300" height="300" viewBox="0 0 300 300"><rect x="0" y="0" width="300" height="300" fill="#ffffff"/><g transform="scale(12)"><g transform="translate(0,0)"><path fill-rule="evenodd" d="M9 0L9 1L8 1L8 2L9 2L9 3L8 3L8 4L9 4L9 5L8 5L8 7L9 7L9 8L6 8L6 9L5 9L5 8L0 8L0 9L1 9L1 10L2 10L2 11L0 11L0 17L1 17L1 14L2 14L2 15L3 15L3 17L7 17L7 16L8 16L8 19L9 19L9 20L8 20L8 25L9 25L9 23L10 23L10 24L11 24L11 22L10 22L10 21L11 21L11 20L12 20L12 21L13 21L13 19L15 19L15 20L14 20L14 23L15 23L15 24L17 24L17 25L19 25L19 24L20 24L20 25L21 25L21 24L22 24L22 25L25 25L25 21L24 21L24 19L25 19L25 17L24 17L24 18L22 18L22 17L23 17L23 16L25 16L25 10L24 10L24 8L23 8L23 9L22 9L22 8L21 8L21 10L20 10L20 8L19 8L19 9L18 9L18 8L15 8L15 6L16 6L16 7L17 7L17 4L15 4L15 3L16 3L16 1L17 1L17 0L14 0L14 1L12 1L12 3L11 3L11 2L10 2L10 0ZM14 1L14 2L13 2L13 4L11 4L11 7L10 7L10 5L9 5L9 7L10 7L10 9L6 9L6 10L5 10L5 9L4 9L4 10L5 10L5 11L6 11L6 12L3 12L3 11L2 11L2 12L1 12L1 13L2 13L2 14L4 14L4 15L5 15L5 16L7 16L7 15L6 15L6 14L7 14L7 13L9 13L9 14L8 14L8 16L10 16L10 17L11 17L11 19L12 19L12 18L13 18L13 17L14 17L14 18L15 18L15 19L16 19L16 16L17 16L17 15L18 15L18 14L20 14L20 15L19 15L19 16L20 16L20 15L21 15L21 12L20 12L20 10L18 10L18 9L17 9L17 10L16 10L16 13L14 13L14 11L15 11L15 9L14 9L14 6L15 6L15 4L14 4L14 3L15 3L15 1ZM13 4L13 5L12 5L12 8L11 8L11 9L13 9L13 11L11 11L11 10L10 10L10 11L11 11L11 12L9 12L9 13L11 13L11 12L12 12L12 13L13 13L13 11L14 11L14 9L13 9L13 5L14 5L14 4ZM2 9L2 10L3 10L3 9ZM6 10L6 11L7 11L7 10ZM17 10L17 11L18 11L18 10ZM23 10L23 11L22 11L22 12L24 12L24 10ZM2 12L2 13L3 13L3 12ZM6 12L6 13L5 13L5 14L6 14L6 13L7 13L7 12ZM17 12L17 13L19 13L19 12ZM22 13L22 16L21 16L21 17L22 17L22 16L23 16L23 14L24 14L24 13ZM9 14L9 15L10 15L10 14ZM15 14L15 15L14 15L14 17L15 17L15 15L16 15L16 14ZM12 15L12 17L13 17L13 15ZM17 17L17 20L20 20L20 17ZM9 18L9 19L10 19L10 18ZM18 18L18 19L19 19L19 18ZM21 18L21 19L22 19L22 20L21 20L21 21L22 21L22 20L23 20L23 19L22 19L22 18ZM9 20L9 21L10 21L10 20ZM15 21L15 23L18 23L18 24L19 24L19 23L20 23L20 24L21 24L21 23L22 23L22 24L24 24L24 22L17 22L17 21ZM12 22L12 25L14 25L14 24L13 24L13 22ZM0 0L0 7L7 7L7 0ZM1 1L1 6L6 6L6 1ZM2 2L2 5L5 5L5 2ZM18 0L18 7L25 7L25 0ZM19 1L19 6L24 6L24 1ZM20 2L20 5L23 5L23 2ZM0 18L0 25L7 25L7 18ZM1 19L1 24L6 24L6 19ZM2 20L2 23L5 23L5 20Z" fill="#000000"/></g></g></svg>
