<?xml version="1.0" encoding="UTF-8"?>
<svg xmlns="http://www.w3.org/2000/svg" version="1.1" width="300" height="300" viewBox="0 0 300 300"><rect x="0" y="0" width="300" height="300" fill="#ffffff"/><g transform="scale(12)"><g transform="translate(0,0)"><path fill-rule="evenodd" d="M8 0L8 2L9 2L9 3L10 3L10 4L8 4L8 9L7 9L7 8L5 8L5 10L3 10L3 8L0 8L0 10L1 10L1 9L2 9L2 11L0 11L0 13L3 13L3 16L0 16L0 17L7 17L7 16L9 16L9 17L8 17L8 18L9 18L9 19L8 19L8 20L9 20L9 19L10 19L10 18L11 18L11 20L10 20L10 21L9 21L9 22L8 22L8 25L9 25L9 23L10 23L10 25L13 25L13 24L11 24L11 23L15 23L15 22L16 22L16 25L17 25L17 24L18 24L18 25L21 25L21 23L22 23L22 21L21 21L21 16L18 16L18 15L19 15L19 13L22 13L22 12L21 12L21 11L22 11L22 10L23 10L23 11L25 11L25 8L23 8L23 9L22 9L22 10L21 10L21 11L20 11L20 9L21 9L21 8L17 8L17 9L16 9L16 7L17 7L17 5L16 5L16 3L17 3L17 2L15 2L15 3L14 3L14 2L13 2L13 1L16 1L16 0L13 0L13 1L12 1L12 0ZM9 1L9 2L10 2L10 3L11 3L11 4L10 4L10 6L9 6L9 8L11 8L11 7L12 7L12 6L13 6L13 8L12 8L12 9L10 9L10 10L9 10L9 9L8 9L8 11L10 11L10 14L9 14L9 13L6 13L6 12L7 12L7 11L6 11L6 10L7 10L7 9L6 9L6 10L5 10L5 11L6 11L6 12L5 12L5 13L6 13L6 14L7 14L7 15L6 15L6 16L7 16L7 15L8 15L8 14L9 14L9 15L11 15L11 18L12 18L12 16L14 16L14 17L13 17L13 19L12 19L12 20L14 20L14 22L15 22L15 20L16 20L16 18L15 18L15 20L14 20L14 17L16 17L16 16L17 16L17 15L16 15L16 16L14 16L14 15L15 15L15 12L17 12L17 13L16 13L16 14L18 14L18 11L19 11L19 12L20 12L20 11L19 11L19 9L17 9L17 11L15 11L15 10L16 10L16 9L15 9L15 8L14 8L14 6L15 6L15 7L16 7L16 5L14 5L14 3L13 3L13 4L12 4L12 1ZM11 4L11 5L12 5L12 4ZM10 6L10 7L11 7L11 6ZM13 8L13 9L12 9L12 10L11 10L11 11L12 11L12 10L13 10L13 11L14 11L14 8ZM3 11L3 13L4 13L4 11ZM11 12L11 13L12 13L12 14L11 14L11 15L14 15L14 14L13 14L13 13L14 13L14 12ZM24 12L24 13L25 13L25 12ZM0 14L0 15L2 15L2 14ZM4 14L4 16L5 16L5 14ZM21 14L21 15L23 15L23 17L24 17L24 15L25 15L25 14L24 14L24 15L23 15L23 14ZM9 17L9 18L10 18L10 17ZM17 17L17 20L20 20L20 17ZM18 18L18 19L19 19L19 18ZM24 18L24 19L23 19L23 20L25 20L25 18ZM11 21L11 22L12 22L12 21ZM16 21L16 22L17 22L17 21ZM18 21L18 23L19 23L19 21ZM23 21L23 23L25 23L25 22L24 22L24 21ZM14 24L14 25L15 25L15 24ZM24 24L24 25L25 25L25 24ZM0 0L0 7L7 7L7 0ZM1 1L1 6L6 6L6 1ZM2 2L2 5L5 5L5 2ZM18 0L18 7L25 7L25 0ZM19 1L19 6L24 6L24 1ZM20 2L20 5L23 5L23 2ZM0 18L0 25L7 25L7 18ZM1 19L1 24L6 24L6 19ZM2 20L2 23L5 23L5 20Z" fill="#000000"/></g></g></svg>
