<?xml version="1.0" encoding="UTF-8"?>
<svg xmlns="http://www.w3.org/2000/svg" version="1.1" width="300" height="300" viewBox="0 0 300 300"><rect x="0" y="0" width="300" height="300" fill="#ffffff"/><g transform="scale(12)"><g transform="translate(0,0)"><path fill-rule="evenodd" d="M8 0L8 1L9 1L9 2L8 2L8 5L9 5L9 4L11 4L11 5L10 5L10 10L9 10L9 8L8 8L8 10L9 10L9 12L6 12L6 11L7 11L7 10L6 10L6 9L7 9L7 8L6 8L6 9L5 9L5 10L4 10L4 8L0 8L0 10L1 10L1 9L2 9L2 11L5 11L5 12L6 12L6 13L5 13L5 14L4 14L4 15L2 15L2 14L3 14L3 13L2 13L2 12L1 12L1 11L0 11L0 12L1 12L1 15L0 15L0 16L1 16L1 15L2 15L2 16L3 16L3 17L5 17L5 16L4 16L4 15L5 15L5 14L6 14L6 15L7 15L7 16L6 16L6 17L7 17L7 16L9 16L9 17L8 17L8 18L10 18L10 20L9 20L9 21L8 21L8 25L9 25L9 22L11 22L11 24L10 24L10 25L13 25L13 24L14 24L14 25L16 25L16 23L17 23L17 25L19 25L19 24L18 24L18 23L19 23L19 21L21 21L21 22L20 22L20 24L21 24L21 23L22 23L22 25L25 25L25 24L23 24L23 23L24 23L24 22L25 22L25 18L23 18L23 17L25 17L25 15L24 15L24 13L25 13L25 12L23 12L23 11L24 11L24 9L25 9L25 8L24 8L24 9L23 9L23 8L20 8L20 9L19 9L19 10L20 10L20 9L21 9L21 10L22 10L22 12L21 12L21 11L20 11L20 12L21 12L21 13L19 13L19 12L18 12L18 10L17 10L17 9L18 9L18 8L17 8L17 6L16 6L16 8L15 8L15 5L13 5L13 3L14 3L14 4L16 4L16 5L17 5L17 2L13 2L13 0L12 0L12 1L11 1L11 0L10 0L10 1L9 1L9 0ZM14 0L14 1L17 1L17 0ZM11 2L11 4L12 4L12 3L13 3L13 2ZM12 5L12 6L11 6L11 8L12 8L12 9L11 9L11 10L12 10L12 11L11 11L11 13L10 13L10 14L9 14L9 15L11 15L11 16L12 16L12 17L10 17L10 18L11 18L11 22L13 22L13 23L14 23L14 24L15 24L15 23L16 23L16 22L15 22L15 21L16 21L16 16L17 16L17 15L16 15L16 13L17 13L17 12L16 12L16 10L15 10L15 9L13 9L13 8L14 8L14 6L13 6L13 5ZM8 6L8 7L9 7L9 6ZM12 6L12 8L13 8L13 6ZM12 9L12 10L13 10L13 9ZM5 10L5 11L6 11L6 10ZM14 10L14 11L12 11L12 12L13 12L13 13L11 13L11 14L12 14L12 16L13 16L13 15L14 15L14 14L15 14L15 13L16 13L16 12L15 12L15 10ZM14 12L14 13L13 13L13 14L14 14L14 13L15 13L15 12ZM6 13L6 14L7 14L7 15L8 15L8 14L7 14L7 13ZM21 13L21 15L22 15L22 16L23 16L23 15L22 15L22 14L23 14L23 13ZM15 15L15 16L16 16L16 15ZM19 15L19 16L20 16L20 15ZM12 17L12 19L13 19L13 18L14 18L14 20L12 20L12 21L13 21L13 22L14 22L14 23L15 23L15 22L14 22L14 21L15 21L15 17ZM17 17L17 20L20 20L20 17ZM21 17L21 20L22 20L22 21L24 21L24 19L22 19L22 17ZM18 18L18 19L19 19L19 18ZM22 22L22 23L23 23L23 22ZM0 0L0 7L7 7L7 0ZM1 1L1 6L6 6L6 1ZM2 2L2 5L5 5L5 2ZM18 0L18 7L25 7L25 0ZM19 1L19 6L24 6L24 1ZM20 2L20 5L23 5L23 2ZM0 18L0 25L7 25L7 18ZM1 19L1 24L6 24L6 19ZM2 20L2 23L5 23L5 20Z" fill="#000000"/></g></g></svg>
