<?xml version="1.0" encoding="UTF-8"?>
<svg xmlns="http://www.w3.org/2000/svg" version="1.1" width="300" height="300" viewBox="0 0 300 300"><rect x="0" y="0" width="300" height="300" fill="#ffffff"/><g transform="scale(12)"><g transform="translate(0,0)"><path fill-rule="evenodd" d="M8 0L8 2L10 2L10 4L8 4L8 9L9 9L9 10L6 10L6 9L7 9L7 8L5 8L5 10L4 10L4 9L3 9L3 8L0 8L0 11L1 11L1 9L2 9L2 12L0 12L0 13L3 13L3 10L4 10L4 14L3 14L3 15L2 15L2 14L0 14L0 15L2 15L2 16L0 16L0 17L5 17L5 16L4 16L4 14L5 14L5 15L7 15L7 16L6 16L6 17L7 17L7 16L9 16L9 17L8 17L8 18L9 18L9 19L8 19L8 20L9 20L9 21L12 21L12 23L11 23L11 22L8 22L8 25L9 25L9 23L11 23L11 24L10 24L10 25L11 25L11 24L12 24L12 25L15 25L15 24L13 24L13 23L14 23L14 22L16 22L16 25L17 25L17 24L18 24L18 25L19 25L19 23L21 23L21 22L22 22L22 23L25 23L25 22L24 22L24 21L25 21L25 18L24 18L24 19L23 19L23 20L24 20L24 21L23 21L23 22L22 22L22 21L21 21L21 15L23 15L23 17L24 17L24 15L25 15L25 14L24 14L24 15L23 15L23 14L19 14L19 13L22 13L22 12L21 12L21 11L22 11L22 10L23 10L23 11L25 11L25 8L23 8L23 9L22 9L22 10L21 10L21 11L20 11L20 9L21 9L21 8L17 8L17 9L16 9L16 7L17 7L17 5L16 5L16 3L17 3L17 1L16 1L16 0L11 0L11 1L9 1L9 0ZM11 1L11 2L12 2L12 1ZM13 1L13 2L14 2L14 1ZM15 1L15 2L16 2L16 1ZM11 3L11 4L12 4L12 6L11 6L11 5L9 5L9 8L10 8L10 6L11 6L11 7L12 7L12 6L13 6L13 8L11 8L11 10L9 10L9 11L6 11L6 10L5 10L5 11L6 11L6 12L9 12L9 11L10 11L10 14L9 14L9 13L8 13L8 14L7 14L7 13L6 13L6 14L7 14L7 15L9 15L9 16L10 16L10 17L9 17L9 18L12 18L12 19L11 19L11 20L14 20L14 21L13 21L13 22L14 22L14 21L15 21L15 20L16 20L16 18L15 18L15 19L14 19L14 17L16 17L16 16L17 16L17 15L16 15L16 16L14 16L14 15L13 15L13 16L11 16L11 15L12 15L12 13L11 13L11 12L14 12L14 13L13 13L13 14L15 14L15 12L17 12L17 13L16 13L16 14L18 14L18 11L19 11L19 12L20 12L20 11L19 11L19 9L17 9L17 11L13 11L13 8L14 8L14 10L16 10L16 9L15 9L15 7L16 7L16 5L15 5L15 7L14 7L14 5L13 5L13 4L14 4L14 3ZM11 10L11 11L12 11L12 10ZM24 12L24 13L25 13L25 12ZM10 14L10 15L11 15L11 14ZM18 15L18 16L20 16L20 15ZM13 16L13 17L14 17L14 16ZM17 17L17 20L20 20L20 17ZM18 18L18 19L19 19L19 18ZM9 19L9 20L10 20L10 19ZM16 21L16 22L17 22L17 21ZM18 21L18 23L19 23L19 21ZM20 24L20 25L21 25L21 24ZM24 24L24 25L25 25L25 24ZM0 0L0 7L7 7L7 0ZM1 1L1 6L6 6L6 1ZM2 2L2 5L5 5L5 2ZM18 0L18 7L25 7L25 0ZM19 1L19 6L24 6L24 1ZM20 2L20 5L23 5L23 2ZM0 18L0 25L7 25L7 18ZM1 19L1 24L6 24L6 19ZM2 20L2 23L5 23L5 20Z" fill="#000000"/></g></g></svg>
