<?xml version="1.0" encoding="UTF-8"?>
<svg xmlns="http://www.w3.org/2000/svg" version="1.1" width="300" height="300" viewBox="0 0 300 300"><rect x="0" y="0" width="300" height="300" fill="#ffffff"/><g transform="scale(12)"><g transform="translate(0,0)"><path fill-rule="evenodd" d="M8 0L8 4L10 4L10 3L11 3L11 4L12 4L12 2L11 2L11 0ZM12 0L12 1L13 1L13 2L14 2L14 3L13 3L13 4L14 4L14 5L16 5L16 7L15 7L15 6L14 6L14 7L15 7L15 8L13 8L13 5L11 5L11 6L10 6L10 7L9 7L9 5L8 5L8 7L9 7L9 8L10 8L10 7L11 7L11 6L12 6L12 8L11 8L11 9L9 9L9 10L11 10L11 11L10 11L10 13L9 13L9 11L8 11L8 10L6 10L6 9L7 9L7 8L4 8L4 9L5 9L5 11L3 11L3 10L2 10L2 11L0 11L0 14L3 14L3 13L4 13L4 14L5 14L5 15L7 15L7 16L6 16L6 17L8 17L8 18L10 18L10 17L12 17L12 18L11 18L11 19L10 19L10 20L12 20L12 21L13 21L13 22L15 22L15 23L14 23L14 24L13 24L13 23L12 23L12 24L11 24L11 25L12 25L12 24L13 24L13 25L15 25L15 24L16 24L16 23L17 23L17 24L19 24L19 25L20 25L20 24L23 24L23 25L25 25L25 24L24 24L24 22L25 22L25 19L24 19L24 21L23 21L23 19L21 19L21 17L23 17L23 14L21 14L21 13L20 13L20 12L17 12L17 9L15 9L15 8L16 8L16 7L17 7L17 4L16 4L16 2L15 2L15 1L17 1L17 0ZM9 2L9 3L10 3L10 2ZM0 8L0 10L1 10L1 9L2 9L2 8ZM12 8L12 9L11 9L11 10L12 10L12 9L13 9L13 10L14 10L14 9L13 9L13 8ZM19 8L19 9L20 9L20 10L18 10L18 11L20 11L20 10L21 10L21 12L22 12L22 13L24 13L24 14L25 14L25 12L24 12L24 9L25 9L25 8L21 8L21 9L20 9L20 8ZM21 9L21 10L22 10L22 11L23 11L23 10L22 10L22 9ZM2 11L2 12L1 12L1 13L3 13L3 11ZM6 11L6 12L5 12L5 13L6 13L6 14L7 14L7 15L8 15L8 17L9 17L9 16L10 16L10 15L9 15L9 14L7 14L7 13L6 13L6 12L7 12L7 11ZM12 11L12 12L11 12L11 13L10 13L10 14L11 14L11 16L12 16L12 17L13 17L13 18L16 18L16 15L17 15L17 16L19 16L19 15L20 15L20 13L17 13L17 12L16 12L16 13L17 13L17 14L16 14L16 15L15 15L15 14L13 14L13 13L12 13L12 12L13 12L13 11ZM14 11L14 13L15 13L15 11ZM3 15L3 16L0 16L0 17L5 17L5 16L4 16L4 15ZM12 15L12 16L13 16L13 17L15 17L15 15L14 15L14 16L13 16L13 15ZM17 17L17 20L20 20L20 17ZM24 17L24 18L25 18L25 17ZM18 18L18 19L19 19L19 18ZM8 19L8 21L9 21L9 23L8 23L8 25L10 25L10 24L9 24L9 23L11 23L11 22L10 22L10 21L9 21L9 19ZM12 19L12 20L13 20L13 19ZM14 19L14 21L15 21L15 22L17 22L17 23L18 23L18 21L16 21L16 19ZM22 21L22 22L23 22L23 21ZM20 22L20 23L19 23L19 24L20 24L20 23L21 23L21 22ZM0 0L0 7L7 7L7 0ZM1 1L1 6L6 6L6 1ZM2 2L2 5L5 5L5 2ZM18 0L18 7L25 7L25 0ZM19 1L19 6L24 6L24 1ZM20 2L20 5L23 5L23 2ZM0 18L0 25L7 25L7 18ZM1 19L1 24L6 24L6 19ZM2 20L2 23L5 23L5 20Z" fill="#000000"/></g></g></svg>
