<?xml version="1.0" encoding="UTF-8"?>
<svg xmlns="http://www.w3.org/2000/svg" version="1.1" width="300" height="300" viewBox="0 0 300 300"><rect x="0" y="0" width="300" height="300" fill="#ffffff"/><g transform="scale(12)"><g transform="translate(0,0)"><path fill-rule="evenodd" d="M10 0L10 1L12 1L12 0ZM14 0L14 1L13 1L13 2L11 2L11 3L10 3L10 2L9 2L9 3L8 3L8 5L9 5L9 6L8 6L8 7L9 7L9 9L10 9L10 10L8 10L8 8L5 8L5 10L4 10L4 9L2 9L2 8L0 8L0 9L1 9L1 10L2 10L2 11L0 11L0 17L1 17L1 14L2 14L2 15L3 15L3 16L2 16L2 17L5 17L5 16L4 16L4 15L3 15L3 14L4 14L4 13L3 13L3 14L2 14L2 11L3 11L3 12L5 12L5 14L6 14L6 15L7 15L7 14L6 14L6 13L7 13L7 12L9 12L9 13L8 13L8 14L9 14L9 15L11 15L11 11L10 11L10 10L11 10L11 8L10 8L10 7L11 7L11 5L9 5L9 3L10 3L10 4L13 4L13 2L15 2L15 3L16 3L16 4L15 4L15 5L14 5L14 7L15 7L15 8L14 8L14 9L13 9L13 10L15 10L15 11L14 11L14 12L12 12L12 13L14 13L14 14L15 14L15 15L14 15L14 16L13 16L13 14L12 14L12 16L11 16L11 17L10 17L10 16L8 16L8 20L9 20L9 23L8 23L8 25L9 25L9 24L10 24L10 25L14 25L14 24L11 24L11 23L10 23L10 22L11 22L11 20L13 20L13 19L15 19L15 18L16 18L16 20L14 20L14 23L15 23L15 22L20 22L20 21L21 21L21 15L22 15L22 17L23 17L23 16L25 16L25 10L24 10L24 9L23 9L23 10L21 10L21 9L22 9L22 8L20 8L20 9L18 9L18 10L17 10L17 11L18 11L18 10L20 10L20 12L18 12L18 13L22 13L22 12L21 12L21 11L23 11L23 10L24 10L24 14L23 14L23 15L22 15L22 14L18 14L18 15L16 15L16 13L17 13L17 12L15 12L15 11L16 11L16 10L15 10L15 9L17 9L17 8L16 8L16 7L17 7L17 3L16 3L16 2L17 2L17 1L16 1L16 0ZM15 1L15 2L16 2L16 1ZM15 5L15 7L16 7L16 5ZM9 6L9 7L10 7L10 6ZM12 6L12 7L13 7L13 6ZM6 9L6 10L5 10L5 12L7 12L7 11L8 11L8 10L7 10L7 9ZM3 10L3 11L4 11L4 10ZM6 10L6 11L7 11L7 10ZM9 11L9 12L10 12L10 11ZM14 12L14 13L15 13L15 12ZM9 13L9 14L10 14L10 13ZM19 15L19 16L20 16L20 15ZM6 16L6 17L7 17L7 16ZM14 16L14 17L11 17L11 18L12 18L12 19L13 19L13 18L15 18L15 17L16 17L16 16ZM9 17L9 18L10 18L10 17ZM17 17L17 20L20 20L20 17ZM24 17L24 19L25 19L25 17ZM18 18L18 19L19 19L19 18ZM9 19L9 20L11 20L11 19ZM22 20L22 21L23 21L23 22L24 22L24 25L25 25L25 21L24 21L24 20ZM16 23L16 25L17 25L17 24L18 24L18 25L20 25L20 24L18 24L18 23ZM0 0L0 7L7 7L7 0ZM1 1L1 6L6 6L6 1ZM2 2L2 5L5 5L5 2ZM18 0L18 7L25 7L25 0ZM19 1L19 6L24 6L24 1ZM20 2L20 5L23 5L23 2ZM0 18L0 25L7 25L7 18ZM1 19L1 24L6 24L6 19ZM2 20L2 23L5 23L5 20Z" fill="#000000"/></g></g></svg>
