<?xml version="1.0" encoding="UTF-8"?>
<svg xmlns="http://www.w3.org/2000/svg" version="1.1" width="300" height="300" viewBox="0 0 300 300"><rect x="0" y="0" width="300" height="300" fill="#ffffff"/><g transform="scale(12)"><g transform="translate(0,0)"><path fill-rule="evenodd" d="M9 0L9 1L11 1L11 2L9 2L9 3L8 3L8 5L9 5L9 6L8 6L8 7L9 7L9 9L8 9L8 8L5 8L5 9L4 9L4 10L3 10L3 9L2 9L2 8L0 8L0 9L2 9L2 11L1 11L1 10L0 10L0 12L1 12L1 13L0 13L0 17L1 17L1 13L2 13L2 11L3 11L3 13L4 13L4 14L5 14L5 13L7 13L7 12L8 12L8 11L10 11L10 12L9 12L9 13L8 13L8 14L9 14L9 13L10 13L10 14L11 14L11 11L10 11L10 10L11 10L11 9L13 9L13 10L15 10L15 11L16 11L16 10L15 10L15 9L17 9L17 6L16 6L16 7L15 7L15 6L14 6L14 5L13 5L13 3L12 3L12 2L13 2L13 1L12 1L12 0ZM14 0L14 1L16 1L16 2L14 2L14 3L16 3L16 4L15 4L15 5L17 5L17 3L16 3L16 2L17 2L17 1L16 1L16 0ZM9 3L9 5L10 5L10 3ZM11 4L11 7L10 7L10 6L9 6L9 7L10 7L10 8L13 8L13 9L14 9L14 8L15 8L15 7L14 7L14 6L13 6L13 7L12 7L12 4ZM20 8L20 9L18 9L18 10L17 10L17 11L18 11L18 10L20 10L20 12L18 12L18 13L22 13L22 12L21 12L21 11L23 11L23 10L24 10L24 14L23 14L23 15L22 15L22 14L18 14L18 15L16 15L16 13L17 13L17 12L15 12L15 16L14 16L14 18L16 18L16 20L15 20L15 21L14 21L14 20L13 20L13 19L12 19L12 18L11 18L11 16L10 16L10 15L8 15L8 16L5 16L5 15L3 15L3 14L2 14L2 15L3 15L3 16L5 16L5 17L8 17L8 20L9 20L9 21L10 21L10 23L8 23L8 25L9 25L9 24L10 24L10 25L12 25L12 24L13 24L13 25L14 25L14 24L13 24L13 22L12 22L12 24L10 24L10 23L11 23L11 19L12 19L12 21L14 21L14 22L20 22L20 21L21 21L21 22L22 22L22 23L23 23L23 22L24 22L24 25L25 25L25 21L24 21L24 20L25 20L25 17L24 17L24 20L22 20L22 21L21 21L21 15L22 15L22 17L23 17L23 16L25 16L25 10L24 10L24 9L23 9L23 10L21 10L21 9L22 9L22 8ZM6 9L6 10L4 10L4 12L7 12L7 11L8 11L8 10L7 10L7 9ZM9 9L9 10L10 10L10 9ZM6 10L6 11L7 11L7 10ZM12 11L12 13L14 13L14 12L13 12L13 11ZM6 14L6 15L7 15L7 14ZM12 14L12 15L13 15L13 14ZM19 15L19 16L20 16L20 15ZM9 16L9 20L10 20L10 19L11 19L11 18L10 18L10 16ZM15 16L15 17L16 17L16 16ZM17 17L17 20L20 20L20 17ZM18 18L18 19L19 19L19 18ZM16 23L16 25L17 25L17 24L18 24L18 25L19 25L19 24L20 24L20 25L21 25L21 23L19 23L19 24L18 24L18 23ZM0 0L0 7L7 7L7 0ZM1 1L1 6L6 6L6 1ZM2 2L2 5L5 5L5 2ZM18 0L18 7L25 7L25 0ZM19 1L19 6L24 6L24 1ZM20 2L20 5L23 5L23 2ZM0 18L0 25L7 25L7 18ZM1 19L1 24L6 24L6 19ZM2 20L2 23L5 23L5 20Z" fill="#000000"/></g></g></svg>
