<?xml version="1.0" encoding="UTF-8"?>
<svg xmlns="http://www.w3.org/2000/svg" version="1.1" width="300" height="300" viewBox="0 0 300 300"><rect x="0" y="0" width="300" height="300" fill="#ffffff"/><g transform="scale(12)"><g transform="translate(0,0)"><path fill-rule="evenodd" d="M8 0L8 1L10 1L10 0ZM15 0L15 1L14 1L14 2L11 2L11 4L10 4L10 3L9 3L9 2L8 2L8 5L9 5L9 6L8 6L8 7L9 7L9 8L8 8L8 9L7 9L7 8L6 8L6 9L7 9L7 10L6 10L6 11L5 11L5 12L4 12L4 10L5 10L5 9L4 9L4 8L0 8L0 11L1 11L1 9L2 9L2 12L1 12L1 13L2 13L2 14L1 14L1 15L0 15L0 16L1 16L1 15L2 15L2 14L3 14L3 15L5 15L5 14L6 14L6 15L8 15L8 18L9 18L9 21L8 21L8 25L13 25L13 24L14 24L14 25L16 25L16 23L17 23L17 25L19 25L19 24L18 24L18 23L19 23L19 21L22 21L22 20L21 20L21 17L22 17L22 19L23 19L23 20L24 20L24 21L23 21L23 23L22 23L22 25L25 25L25 24L23 24L23 23L24 23L24 22L25 22L25 20L24 20L24 19L25 19L25 18L23 18L23 17L25 17L25 15L24 15L24 13L25 13L25 12L23 12L23 11L24 11L24 9L25 9L25 8L24 8L24 9L23 9L23 8L20 8L20 9L19 9L19 10L20 10L20 9L21 9L21 10L22 10L22 12L21 12L21 11L20 11L20 12L21 12L21 13L19 13L19 12L18 12L18 10L17 10L17 9L18 9L18 8L17 8L17 6L16 6L16 8L17 8L17 9L15 9L15 6L14 6L14 5L15 5L15 4L14 4L14 3L17 3L17 2L15 2L15 1L17 1L17 0ZM12 3L12 5L10 5L10 6L9 6L9 7L10 7L10 8L9 8L9 9L8 9L8 10L7 10L7 11L6 11L6 12L7 12L7 13L6 13L6 14L7 14L7 13L9 13L9 12L10 12L10 13L11 13L11 11L13 11L13 10L14 10L14 12L12 12L12 14L11 14L11 15L10 15L10 14L9 14L9 18L10 18L10 17L11 17L11 18L12 18L12 17L15 17L15 21L13 21L13 20L14 20L14 18L13 18L13 20L12 20L12 19L11 19L11 20L10 20L10 24L11 24L11 22L12 22L12 21L13 21L13 23L12 23L12 24L13 24L13 23L14 23L14 22L15 22L15 23L16 23L16 22L15 22L15 21L16 21L16 16L17 16L17 15L16 15L16 13L15 13L15 14L14 14L14 12L16 12L16 11L17 11L17 10L15 10L15 9L13 9L13 8L14 8L14 6L13 6L13 7L12 7L12 5L14 5L14 4L13 4L13 3ZM16 4L16 5L17 5L17 4ZM10 6L10 7L11 7L11 8L12 8L12 7L11 7L11 6ZM9 9L9 10L8 10L8 11L7 11L7 12L8 12L8 11L9 11L9 10L10 10L10 9ZM2 12L2 13L3 13L3 14L4 14L4 12ZM21 13L21 15L22 15L22 16L23 16L23 15L22 15L22 14L23 14L23 13ZM12 14L12 16L11 16L11 17L12 17L12 16L13 16L13 15L14 15L14 16L16 16L16 15L14 15L14 14ZM19 15L19 16L20 16L20 15ZM2 16L2 17L3 17L3 16ZM4 16L4 17L5 17L5 16ZM6 16L6 17L7 17L7 16ZM17 17L17 20L20 20L20 17ZM18 18L18 19L19 19L19 18ZM11 20L11 21L12 21L12 20ZM20 22L20 24L21 24L21 22ZM0 0L0 7L7 7L7 0ZM1 1L1 6L6 6L6 1ZM2 2L2 5L5 5L5 2ZM18 0L18 7L25 7L25 0ZM19 1L19 6L24 6L24 1ZM20 2L20 5L23 5L23 2ZM0 18L0 25L7 25L7 18ZM1 19L1 24L6 24L6 19ZM2 20L2 23L5 23L5 20Z" fill="#000000"/></g></g></svg>
