<?xml version="1.0" encoding="UTF-8"?>
<svg xmlns="http://www.w3.org/2000/svg" version="1.1" width="300" height="300" viewBox="0 0 300 300"><rect x="0" y="0" width="300" height="300" fill="#ffffff"/><g transform="scale(12)"><g transform="translate(0,0)"><path fill-rule="evenodd" d="M12 0L12 1L13 1L13 2L15 2L15 3L14 3L14 4L13 4L13 3L12 3L12 4L13 4L13 5L12 5L12 7L13 7L13 5L14 5L14 4L15 4L15 6L14 6L14 9L13 9L13 8L11 8L11 6L10 6L10 4L11 4L11 3L8 3L8 4L9 4L9 5L8 5L8 7L9 7L9 8L6 8L6 9L7 9L7 10L5 10L5 8L0 8L0 12L2 12L2 13L0 13L0 17L1 17L1 14L2 14L2 16L3 16L3 17L4 17L4 16L3 16L3 14L4 14L4 15L5 15L5 12L6 12L6 13L7 13L7 12L8 12L8 13L9 13L9 15L10 15L10 16L11 16L11 14L10 14L10 13L11 13L11 12L12 12L12 13L13 13L13 12L12 12L12 11L11 11L11 9L13 9L13 11L15 11L15 12L14 12L14 13L16 13L16 10L17 10L17 11L18 11L18 10L20 10L20 12L21 12L21 16L19 16L19 15L20 15L20 14L18 14L18 15L17 15L17 16L16 16L16 19L15 19L15 20L14 20L14 21L17 21L17 22L21 22L21 20L22 20L22 21L23 21L23 22L22 22L22 23L19 23L19 24L18 24L18 23L14 23L14 24L13 24L13 22L12 22L12 25L14 25L14 24L17 24L17 25L19 25L19 24L22 24L22 25L25 25L25 21L24 21L24 20L25 20L25 17L24 17L24 18L22 18L22 17L23 17L23 16L25 16L25 10L24 10L24 8L23 8L23 9L22 9L22 8L21 8L21 10L20 10L20 8L19 8L19 9L18 9L18 8L15 8L15 6L16 6L16 7L17 7L17 6L16 6L16 5L17 5L17 4L16 4L16 2L17 2L17 0L14 0L14 1L13 1L13 0ZM8 1L8 2L9 2L9 1ZM10 1L10 2L11 2L11 1ZM9 6L9 7L10 7L10 6ZM10 8L10 9L9 9L9 11L8 11L8 10L7 10L7 11L6 11L6 12L7 12L7 11L8 11L8 12L11 12L11 11L10 11L10 9L11 9L11 8ZM3 9L3 10L1 10L1 11L3 11L3 10L4 10L4 9ZM14 9L14 10L15 10L15 9ZM17 9L17 10L18 10L18 9ZM23 10L23 11L22 11L22 12L24 12L24 10ZM4 11L4 12L3 12L3 13L2 13L2 14L3 14L3 13L4 13L4 12L5 12L5 11ZM17 12L17 13L19 13L19 12ZM22 13L22 16L21 16L21 17L22 17L22 16L23 16L23 14L24 14L24 13ZM6 14L6 15L7 15L7 16L5 16L5 17L8 17L8 19L9 19L9 20L8 20L8 25L11 25L11 24L10 24L10 22L9 22L9 20L10 20L10 21L13 21L13 19L14 19L14 18L15 18L15 16L14 16L14 18L13 18L13 19L11 19L11 20L10 20L10 19L9 19L9 18L10 18L10 17L9 17L9 16L8 16L8 15L7 15L7 14ZM14 14L14 15L16 15L16 14ZM12 15L12 17L13 17L13 15ZM17 17L17 20L20 20L20 17ZM18 18L18 19L19 19L19 18ZM21 18L21 19L22 19L22 20L23 20L23 19L22 19L22 18ZM23 22L23 23L22 23L22 24L24 24L24 22ZM0 0L0 7L7 7L7 0ZM1 1L1 6L6 6L6 1ZM2 2L2 5L5 5L5 2ZM18 0L18 7L25 7L25 0ZM19 1L19 6L24 6L24 1ZM20 2L20 5L23 5L23 2ZM0 18L0 25L7 25L7 18ZM1 19L1 24L6 24L6 19ZM2 20L2 23L5 23L5 20Z" fill="#000000"/></g></g></svg>
