<?xml version="1.0" encoding="UTF-8"?>
<svg xmlns="http://www.w3.org/2000/svg" version="1.1" width="300" height="300" viewBox="0 0 300 300"><rect x="0" y="0" width="300" height="300" fill="#ffffff"/><g transform="scale(12)"><g transform="translate(0,0)"><path fill-rule="evenodd" d="M9 0L9 1L8 1L8 2L9 2L9 3L8 3L8 4L10 4L10 7L11 7L11 4L12 4L12 5L13 5L13 6L12 6L12 7L13 7L13 6L14 6L14 7L15 7L15 8L14 8L14 9L15 9L15 11L14 11L14 13L13 13L13 12L12 12L12 13L13 13L13 14L12 14L12 15L11 15L11 13L10 13L10 12L11 12L11 11L10 11L10 9L11 9L11 8L6 8L6 9L5 9L5 8L0 8L0 10L2 10L2 12L1 12L1 11L0 11L0 12L1 12L1 13L0 13L0 17L1 17L1 14L2 14L2 13L4 13L4 12L5 12L5 10L6 10L6 11L7 11L7 12L6 12L6 13L5 13L5 15L3 15L3 16L2 16L2 17L3 17L3 16L4 16L4 17L7 17L7 16L6 16L6 15L9 15L9 16L10 16L10 18L9 18L9 17L8 17L8 19L11 19L11 17L14 17L14 16L12 16L12 15L14 15L14 13L16 13L16 10L17 10L17 11L18 11L18 10L20 10L20 12L21 12L21 14L20 14L20 15L21 15L21 16L19 16L19 14L18 14L18 15L17 15L17 16L16 16L16 19L15 19L15 20L14 20L14 21L17 21L17 22L22 22L22 23L21 23L21 24L22 24L22 25L25 25L25 21L24 21L24 20L25 20L25 17L24 17L24 18L22 18L22 17L23 17L23 16L25 16L25 10L24 10L24 8L23 8L23 9L22 9L22 8L21 8L21 10L20 10L20 8L19 8L19 9L18 9L18 8L16 8L16 7L17 7L17 0L14 0L14 1L11 1L11 2L10 2L10 0ZM12 2L12 3L13 3L13 5L14 5L14 6L15 6L15 7L16 7L16 6L15 6L15 5L14 5L14 3L15 3L15 2ZM10 3L10 4L11 4L11 3ZM8 5L8 7L9 7L9 5ZM12 8L12 9L13 9L13 8ZM15 8L15 9L16 9L16 8ZM2 9L2 10L3 10L3 11L4 11L4 10L5 10L5 9L4 9L4 10L3 10L3 9ZM6 9L6 10L7 10L7 9ZM17 9L17 10L18 10L18 9ZM8 10L8 11L9 11L9 10ZM12 10L12 11L13 11L13 10ZM23 10L23 11L22 11L22 12L24 12L24 10ZM8 12L8 14L9 14L9 15L10 15L10 16L11 16L11 15L10 15L10 14L9 14L9 12ZM17 12L17 13L19 13L19 12ZM6 13L6 14L7 14L7 13ZM22 13L22 16L21 16L21 17L22 17L22 16L23 16L23 14L24 14L24 13ZM15 14L15 15L16 15L16 14ZM17 17L17 20L20 20L20 17ZM18 18L18 19L19 19L19 18ZM21 18L21 19L22 19L22 20L21 20L21 21L22 21L22 22L23 22L23 23L22 23L22 24L24 24L24 22L23 22L23 21L22 21L22 20L24 20L24 19L22 19L22 18ZM12 19L12 21L13 21L13 19ZM8 20L8 25L13 25L13 22L12 22L12 24L11 24L11 23L10 23L10 22L11 22L11 21L10 21L10 22L9 22L9 20ZM14 22L14 23L15 23L15 24L14 24L14 25L15 25L15 24L17 24L17 25L19 25L19 24L18 24L18 23L15 23L15 22ZM0 0L0 7L7 7L7 0ZM1 1L1 6L6 6L6 1ZM2 2L2 5L5 5L5 2ZM18 0L18 7L25 7L25 0ZM19 1L19 6L24 6L24 1ZM20 2L20 5L23 5L23 2ZM0 18L0 25L7 25L7 18ZM1 19L1 24L6 24L6 19ZM2 20L2 23L5 23L5 20Z" fill="#000000"/></g></g></svg>
