<?xml version="1.0" encoding="UTF-8"?>
<svg xmlns="http://www.w3.org/2000/svg" version="1.1" width="300" height="300" viewBox="0 0 300 300"><rect x="0" y="0" width="300" height="300" fill="#ffffff"/><g transform="scale(12)"><g transform="translate(0,0)"><path fill-rule="evenodd" d="M8 0L8 2L10 2L10 4L8 4L8 13L7 13L7 12L6 12L6 11L7 11L7 10L6 10L6 9L7 9L7 8L5 8L5 9L3 9L3 8L0 8L0 9L3 9L3 10L2 10L2 11L1 11L1 12L0 12L0 13L4 13L4 12L3 12L3 10L5 10L5 14L0 14L0 15L2 15L2 16L0 16L0 17L2 17L2 16L3 16L3 15L4 15L4 17L8 17L8 18L10 18L10 19L8 19L8 20L9 20L9 22L8 22L8 25L12 25L12 24L13 24L13 23L14 23L14 24L15 24L15 25L18 25L18 24L19 24L19 25L20 25L20 24L21 24L21 25L23 25L23 24L21 24L21 22L22 22L22 23L25 23L25 22L24 22L24 21L23 21L23 22L22 22L22 21L21 21L21 15L23 15L23 17L24 17L24 15L25 15L25 14L24 14L24 15L23 15L23 14L21 14L21 15L20 15L20 12L18 12L18 11L16 11L16 10L17 10L17 9L18 9L18 10L20 10L20 11L22 11L22 10L23 10L23 11L25 11L25 8L23 8L23 9L22 9L22 10L20 10L20 9L21 9L21 8L17 8L17 4L16 4L16 7L15 7L15 3L17 3L17 2L15 2L15 1L16 1L16 0L15 0L15 1L14 1L14 0L10 0L10 1L9 1L9 0ZM11 1L11 5L9 5L9 8L10 8L10 6L11 6L11 8L12 8L12 5L13 5L13 10L12 10L12 13L14 13L14 14L15 14L15 12L16 12L16 11L15 11L15 12L14 12L14 10L15 10L15 8L14 8L14 5L13 5L13 4L12 4L12 2L14 2L14 1ZM16 8L16 9L17 9L17 8ZM9 10L9 11L10 11L10 14L9 14L9 13L8 13L8 14L7 14L7 13L6 13L6 14L5 14L5 16L8 16L8 17L9 17L9 15L10 15L10 18L12 18L12 17L13 17L13 16L14 16L14 19L11 19L11 20L10 20L10 22L11 22L11 20L13 20L13 21L12 21L12 22L14 22L14 23L15 23L15 24L16 24L16 23L15 23L15 22L17 22L17 24L18 24L18 23L19 23L19 24L20 24L20 22L21 22L21 21L15 21L15 20L14 20L14 19L16 19L16 16L15 16L15 15L13 15L13 14L12 14L12 15L10 15L10 14L11 14L11 10ZM17 12L17 15L18 15L18 16L19 16L19 15L18 15L18 12ZM21 12L21 13L22 13L22 12ZM24 12L24 13L25 13L25 12ZM6 14L6 15L7 15L7 14ZM12 15L12 16L11 16L11 17L12 17L12 16L13 16L13 15ZM17 17L17 20L20 20L20 17ZM18 18L18 19L19 19L19 18ZM24 18L24 19L23 19L23 20L24 20L24 19L25 19L25 18ZM10 23L10 24L12 24L12 23ZM24 24L24 25L25 25L25 24ZM0 0L0 7L7 7L7 0ZM1 1L1 6L6 6L6 1ZM2 2L2 5L5 5L5 2ZM18 0L18 7L25 7L25 0ZM19 1L19 6L24 6L24 1ZM20 2L20 5L23 5L23 2ZM0 18L0 25L7 25L7 18ZM1 19L1 24L6 24L6 19ZM2 20L2 23L5 23L5 20Z" fill="#000000"/></g></g></svg>
