<?xml version="1.0" encoding="UTF-8"?>
<svg xmlns="http://www.w3.org/2000/svg" version="1.1" width="300" height="300" viewBox="0 0 300 300"><rect x="0" y="0" width="300" height="300" fill="#ffffff"/><g transform="scale(12)"><g transform="translate(0,0)"><path fill-rule="evenodd" d="M9 0L9 1L11 1L11 2L9 2L9 3L8 3L8 5L9 5L9 6L8 6L8 7L9 7L9 9L8 9L8 8L5 8L5 9L4 9L4 10L3 10L3 9L2 9L2 8L0 8L0 9L1 9L1 10L0 10L0 11L1 11L1 12L0 12L0 17L1 17L1 14L2 14L2 15L4 15L4 16L2 16L2 17L4 17L4 16L5 16L5 17L8 17L8 20L9 20L9 19L10 19L10 20L13 20L13 21L14 21L14 22L15 22L15 23L14 23L14 24L15 24L15 25L17 25L17 24L18 24L18 25L20 25L20 23L17 23L17 22L19 22L19 21L20 21L20 22L21 22L21 23L22 23L22 22L21 22L21 16L19 16L19 15L18 15L18 14L17 14L17 12L18 12L18 13L19 13L19 14L20 14L20 15L22 15L22 17L23 17L23 16L25 16L25 10L24 10L24 9L23 9L23 10L21 10L21 9L22 9L22 8L20 8L20 9L19 9L19 10L18 10L18 11L17 11L17 10L16 10L16 8L15 8L15 6L14 6L14 8L13 8L13 6L12 6L12 8L10 8L10 7L11 7L11 4L12 4L12 5L13 5L13 4L14 4L14 3L12 3L12 2L14 2L14 0L13 0L13 1L12 1L12 0ZM16 1L16 2L15 2L15 4L16 4L16 7L17 7L17 3L16 3L16 2L17 2L17 1ZM9 3L9 5L10 5L10 3ZM9 6L9 7L10 7L10 6ZM14 8L14 9L12 9L12 10L10 10L10 9L9 9L9 10L10 10L10 11L9 11L9 12L10 12L10 11L12 11L12 12L11 12L11 13L12 13L12 14L10 14L10 13L9 13L9 14L7 14L7 13L8 13L8 10L7 10L7 9L5 9L5 10L4 10L4 11L6 11L6 12L5 12L5 14L4 14L4 15L5 15L5 14L7 14L7 15L6 15L6 16L7 16L7 15L8 15L8 16L10 16L10 17L9 17L9 18L11 18L11 17L12 17L12 18L13 18L13 17L12 17L12 15L13 15L13 16L14 16L14 13L15 13L15 14L16 14L16 15L15 15L15 16L16 16L16 15L17 15L17 14L16 14L16 12L17 12L17 11L16 11L16 12L15 12L15 10L14 10L14 9L15 9L15 8ZM1 10L1 11L2 11L2 12L3 12L3 13L2 13L2 14L3 14L3 13L4 13L4 12L3 12L3 11L2 11L2 10ZM6 10L6 11L7 11L7 10ZM12 10L12 11L13 11L13 10ZM19 10L19 11L20 11L20 10ZM23 10L23 11L21 11L21 12L22 12L22 13L20 13L20 14L22 14L22 15L23 15L23 14L24 14L24 10ZM6 12L6 13L7 13L7 12ZM12 12L12 13L14 13L14 12ZM9 14L9 15L10 15L10 16L11 16L11 15L10 15L10 14ZM14 17L14 18L15 18L15 19L13 19L13 20L16 20L16 17ZM17 17L17 20L20 20L20 17ZM24 17L24 20L22 20L22 21L23 21L23 22L24 22L24 25L25 25L25 21L24 21L24 20L25 20L25 17ZM18 18L18 19L19 19L19 18ZM9 21L9 23L8 23L8 25L9 25L9 23L10 23L10 24L11 24L11 25L12 25L12 23L11 23L11 22L12 22L12 21ZM15 21L15 22L17 22L17 21ZM0 0L0 7L7 7L7 0ZM1 1L1 6L6 6L6 1ZM2 2L2 5L5 5L5 2ZM18 0L18 7L25 7L25 0ZM19 1L19 6L24 6L24 1ZM20 2L20 5L23 5L23 2ZM0 18L0 25L7 25L7 18ZM1 19L1 24L6 24L6 19ZM2 20L2 23L5 23L5 20Z" fill="#000000"/></g></g></svg>
