<?xml version="1.0" encoding="UTF-8"?>
<svg xmlns="http://www.w3.org/2000/svg" version="1.1" width="300" height="300" viewBox="0 0 300 300"><rect x="0" y="0" width="300" height="300" fill="#ffffff"/><g transform="scale(12)"><g transform="translate(0,0)"><path fill-rule="evenodd" d="M14 0L14 2L16 2L16 3L13 3L13 1L10 1L10 3L9 3L9 1L8 1L8 3L9 3L9 4L8 4L8 8L6 8L6 9L4 9L4 8L3 8L3 9L2 9L2 8L0 8L0 9L1 9L1 10L2 10L2 12L3 12L3 13L2 13L2 15L1 15L1 14L0 14L0 15L1 15L1 16L0 16L0 17L2 17L2 15L3 15L3 17L5 17L5 14L6 14L6 15L8 15L8 16L6 16L6 17L8 17L8 19L9 19L9 17L10 17L10 16L9 16L9 12L10 12L10 13L11 13L11 14L10 14L10 15L11 15L11 16L12 16L12 15L13 15L13 17L12 17L12 19L11 19L11 18L10 18L10 19L11 19L11 20L10 20L10 21L13 21L13 23L12 23L12 24L11 24L11 22L9 22L9 21L8 21L8 22L9 22L9 23L8 23L8 25L13 25L13 24L14 24L14 23L15 23L15 25L22 25L22 23L21 23L21 22L22 22L22 20L25 20L25 18L23 18L23 19L22 19L22 17L23 17L23 16L22 16L22 15L23 15L23 14L24 14L24 15L25 15L25 14L24 14L24 13L25 13L25 12L23 12L23 13L21 13L21 12L22 12L22 11L23 11L23 9L24 9L24 11L25 11L25 9L24 9L24 8L22 8L22 9L21 9L21 8L18 8L18 9L15 9L15 8L14 8L14 9L12 9L12 8L13 8L13 6L14 6L14 7L15 7L15 6L16 6L16 8L17 8L17 6L16 6L16 5L17 5L17 4L16 4L16 3L17 3L17 2L16 2L16 1L15 1L15 0ZM10 3L10 5L9 5L9 8L8 8L8 9L6 9L6 10L4 10L4 9L3 9L3 12L4 12L4 14L3 14L3 15L4 15L4 14L5 14L5 13L6 13L6 14L7 14L7 13L8 13L8 12L9 12L9 11L11 11L11 13L12 13L12 12L13 12L13 14L14 14L14 15L15 15L15 16L14 16L14 17L13 17L13 19L12 19L12 20L13 20L13 21L14 21L14 22L16 22L16 23L19 23L19 22L20 22L20 21L16 21L16 20L15 20L15 19L14 19L14 17L15 17L15 18L16 18L16 17L15 17L15 16L19 16L19 15L16 15L16 12L18 12L18 11L19 11L19 10L20 10L20 12L19 12L19 14L20 14L20 16L21 16L21 15L22 15L22 14L21 14L21 13L20 13L20 12L21 12L21 11L22 11L22 10L21 10L21 9L18 9L18 11L17 11L17 10L15 10L15 9L14 9L14 12L13 12L13 10L11 10L11 8L12 8L12 5L14 5L14 4L13 4L13 3L12 3L12 4L11 4L11 3ZM15 4L15 5L16 5L16 4ZM10 5L10 8L11 8L11 5ZM8 9L8 10L6 10L6 11L9 11L9 10L10 10L10 9ZM4 11L4 12L5 12L5 11ZM15 11L15 12L16 12L16 11ZM0 12L0 13L1 13L1 12ZM6 12L6 13L7 13L7 12ZM14 13L14 14L15 14L15 13ZM8 16L8 17L9 17L9 16ZM17 17L17 20L20 20L20 17ZM18 18L18 19L19 19L19 18ZM14 20L14 21L15 21L15 20ZM24 22L24 23L25 23L25 22ZM9 23L9 24L10 24L10 23ZM20 23L20 24L21 24L21 23ZM23 24L23 25L25 25L25 24ZM0 0L0 7L7 7L7 0ZM1 1L1 6L6 6L6 1ZM2 2L2 5L5 5L5 2ZM18 0L18 7L25 7L25 0ZM19 1L19 6L24 6L24 1ZM20 2L20 5L23 5L23 2ZM0 18L0 25L7 25L7 18ZM1 19L1 24L6 24L6 19ZM2 20L2 23L5 23L5 20Z" fill="#000000"/></g></g></svg>
