<?xml version="1.0" encoding="UTF-8"?>
<svg xmlns="http://www.w3.org/2000/svg" version="1.1" width="300" height="300" viewBox="0 0 300 300"><rect x="0" y="0" width="300" height="300" fill="#ffffff"/><g transform="scale(12)"><g transform="translate(0,0)"><path fill-rule="evenodd" d="M9 0L9 1L8 1L8 2L9 2L9 3L8 3L8 4L10 4L10 7L11 7L11 4L12 4L12 5L13 5L13 3L12 3L12 2L15 2L15 3L14 3L14 4L15 4L15 5L14 5L14 7L15 7L15 6L16 6L16 7L17 7L17 4L16 4L16 2L17 2L17 0L15 0L15 1L14 1L14 0L13 0L13 1L11 1L11 2L10 2L10 0ZM10 3L10 4L11 4L11 3ZM8 5L8 7L9 7L9 5ZM12 6L12 7L13 7L13 6ZM0 8L0 11L1 11L1 12L4 12L4 10L3 10L3 11L2 11L2 9L5 9L5 11L7 11L7 10L6 10L6 9L9 9L9 10L8 10L8 11L9 11L9 13L10 13L10 14L8 14L8 13L7 13L7 12L5 12L5 14L4 14L4 13L0 13L0 17L1 17L1 14L3 14L3 15L2 15L2 16L3 16L3 17L4 17L4 15L5 15L5 14L6 14L6 15L7 15L7 16L5 16L5 17L7 17L7 16L9 16L9 17L8 17L8 19L9 19L9 20L8 20L8 25L13 25L13 23L14 23L14 25L15 25L15 24L17 24L17 25L19 25L19 24L22 24L22 25L25 25L25 21L24 21L24 20L25 20L25 17L24 17L24 18L22 18L22 17L23 17L23 16L25 16L25 10L24 10L24 8L23 8L23 9L22 9L22 8L21 8L21 10L20 10L20 8L19 8L19 9L18 9L18 8L14 8L14 9L13 9L13 8L12 8L12 9L13 9L13 10L12 10L12 11L13 11L13 10L14 10L14 9L15 9L15 11L14 11L14 14L15 14L15 15L16 15L16 14L15 14L15 13L16 13L16 10L17 10L17 11L18 11L18 10L20 10L20 12L21 12L21 16L20 16L20 15L19 15L19 14L18 14L18 15L17 15L17 16L16 16L16 19L15 19L15 20L14 20L14 22L12 22L12 24L11 24L11 23L10 23L10 24L9 24L9 22L10 22L10 21L9 21L9 20L11 20L11 21L13 21L13 19L12 19L12 20L11 20L11 17L14 17L14 16L12 16L12 15L13 15L13 14L12 14L12 15L10 15L10 14L11 14L11 13L10 13L10 12L11 12L11 11L10 11L10 9L11 9L11 8L6 8L6 9L5 9L5 8ZM17 9L17 10L18 10L18 9ZM23 10L23 11L22 11L22 12L24 12L24 10ZM12 12L12 13L13 13L13 12ZM17 12L17 13L19 13L19 12ZM6 13L6 14L7 14L7 15L8 15L8 14L7 14L7 13ZM22 13L22 16L21 16L21 17L22 17L22 16L23 16L23 14L24 14L24 13ZM10 16L10 17L11 17L11 16ZM17 17L17 20L20 20L20 17ZM9 18L9 19L10 19L10 18ZM18 18L18 19L19 19L19 18ZM21 18L21 19L22 19L22 20L21 20L21 21L22 21L22 20L24 20L24 19L22 19L22 18ZM15 21L15 22L14 22L14 23L18 23L18 24L19 24L19 23L21 23L21 22L17 22L17 21ZM22 22L22 24L24 24L24 22ZM0 0L0 7L7 7L7 0ZM1 1L1 6L6 6L6 1ZM2 2L2 5L5 5L5 2ZM18 0L18 7L25 7L25 0ZM19 1L19 6L24 6L24 1ZM20 2L20 5L23 5L23 2ZM0 18L0 25L7 25L7 18ZM1 19L1 24L6 24L6 19ZM2 20L2 23L5 23L5 20Z" fill="#000000"/></g></g></svg>
