<?xml version="1.0" encoding="UTF-8"?>
<svg xmlns="http://www.w3.org/2000/svg" version="1.1" width="300" height="300" viewBox="0 0 300 300"><rect x="0" y="0" width="300" height="300" fill="#ffffff"/><g transform="scale(12)"><g transform="translate(0,0)"><path fill-rule="evenodd" d="M9 0L9 1L8 1L8 2L9 2L9 3L8 3L8 4L10 4L10 7L11 7L11 4L12 4L12 5L13 5L13 4L14 4L14 3L16 3L16 4L15 4L15 6L14 6L14 7L15 7L15 8L14 8L14 9L15 9L15 11L14 11L14 10L12 10L12 11L10 11L10 9L13 9L13 6L12 6L12 8L6 8L6 9L7 9L7 10L6 10L6 11L7 11L7 12L5 12L5 8L0 8L0 9L3 9L3 10L0 10L0 11L2 11L2 12L1 12L1 13L0 13L0 17L1 17L1 13L2 13L2 12L3 12L3 10L4 10L4 13L3 13L3 14L2 14L2 17L3 17L3 16L4 16L4 17L8 17L8 19L10 19L10 20L8 20L8 25L10 25L10 24L9 24L9 22L10 22L10 21L13 21L13 18L12 18L12 20L11 20L11 17L10 17L10 16L11 16L11 15L9 15L9 17L8 17L8 12L9 12L9 13L10 13L10 14L11 14L11 13L10 13L10 12L13 12L13 11L14 11L14 13L13 13L13 14L14 14L14 13L15 13L15 16L14 16L14 17L15 17L15 18L16 18L16 19L14 19L14 25L16 25L16 24L17 24L17 25L19 25L19 23L17 23L17 22L19 22L19 21L21 21L21 20L22 20L22 21L23 21L23 22L24 22L24 24L22 24L22 23L20 23L20 24L22 24L22 25L25 25L25 21L24 21L24 20L25 20L25 17L24 17L24 18L22 18L22 17L23 17L23 16L25 16L25 10L24 10L24 8L23 8L23 9L22 9L22 8L21 8L21 10L20 10L20 8L19 8L19 10L18 10L18 11L16 11L16 10L17 10L17 9L18 9L18 8L17 8L17 9L15 9L15 8L16 8L16 7L17 7L17 3L16 3L16 2L17 2L17 0L15 0L15 2L14 2L14 3L12 3L12 2L13 2L13 1L11 1L11 2L10 2L10 0ZM10 3L10 4L11 4L11 3ZM8 5L8 7L9 7L9 5ZM15 6L15 7L16 7L16 6ZM7 10L7 11L9 11L9 10ZM19 10L19 11L20 11L20 10ZM23 10L23 11L22 11L22 12L24 12L24 10ZM16 12L16 13L17 13L17 14L16 14L16 16L17 16L17 14L18 14L18 15L19 15L19 16L20 16L20 14L21 14L21 12L19 12L19 13L17 13L17 12ZM5 13L5 16L7 16L7 15L6 15L6 14L7 14L7 13ZM19 13L19 14L20 14L20 13ZM22 13L22 16L21 16L21 17L22 17L22 16L23 16L23 14L24 14L24 13ZM3 14L3 15L4 15L4 14ZM12 15L12 17L13 17L13 15ZM9 17L9 18L10 18L10 17ZM17 17L17 20L20 20L20 17ZM18 18L18 19L19 19L19 18ZM21 18L21 19L22 19L22 20L24 20L24 19L22 19L22 18ZM12 22L12 23L13 23L13 22ZM15 23L15 24L16 24L16 23ZM12 24L12 25L13 25L13 24ZM0 0L0 7L7 7L7 0ZM1 1L1 6L6 6L6 1ZM2 2L2 5L5 5L5 2ZM18 0L18 7L25 7L25 0ZM19 1L19 6L24 6L24 1ZM20 2L20 5L23 5L23 2ZM0 18L0 25L7 25L7 18ZM1 19L1 24L6 24L6 19ZM2 20L2 23L5 23L5 20Z" fill="#000000"/></g></g></svg>
