<?xml version="1.0" encoding="UTF-8"?>
<svg xmlns="http://www.w3.org/2000/svg" version="1.1" width="300" height="300" viewBox="0 0 300 300"><rect x="0" y="0" width="300" height="300" fill="#ffffff"/><g transform="scale(12)"><g transform="translate(0,0)"><path fill-rule="evenodd" d="M8 0L8 2L10 2L10 4L8 4L8 11L7 11L7 10L6 10L6 9L7 9L7 8L5 8L5 10L3 10L3 8L0 8L0 9L2 9L2 10L1 10L1 12L2 12L2 13L1 13L1 14L0 14L0 15L2 15L2 16L0 16L0 17L8 17L8 18L9 18L9 19L8 19L8 20L9 20L9 22L8 22L8 25L11 25L11 24L12 24L12 25L15 25L15 23L14 23L14 22L13 22L13 21L14 21L14 20L9 20L9 19L12 19L12 18L11 18L11 17L8 17L8 16L5 16L5 15L7 15L7 14L8 14L8 13L9 13L9 15L10 15L10 11L9 11L9 10L11 10L11 11L12 11L12 10L11 10L11 8L13 8L13 10L14 10L14 12L11 12L11 13L12 13L12 15L11 15L11 16L13 16L13 19L14 19L14 16L16 16L16 17L15 17L15 18L16 18L16 20L15 20L15 22L16 22L16 25L17 25L17 24L18 24L18 25L20 25L20 23L25 23L25 22L24 22L24 21L25 21L25 18L24 18L24 19L23 19L23 20L24 20L24 21L23 21L23 22L22 22L22 21L21 21L21 16L18 16L18 15L20 15L20 14L19 14L19 13L22 13L22 12L21 12L21 11L22 11L22 10L23 10L23 11L25 11L25 8L23 8L23 9L22 9L22 10L21 10L21 11L20 11L20 9L21 9L21 8L17 8L17 6L16 6L16 8L15 8L15 9L16 9L16 10L14 10L14 8L13 8L13 6L14 6L14 7L15 7L15 4L16 4L16 5L17 5L17 4L16 4L16 3L15 3L15 2L14 2L14 1L16 1L16 0L11 0L11 1L9 1L9 0ZM11 1L11 2L12 2L12 1ZM11 3L11 4L12 4L12 6L11 6L11 5L9 5L9 8L10 8L10 6L11 6L11 7L12 7L12 6L13 6L13 5L14 5L14 4L15 4L15 3L14 3L14 4L13 4L13 3ZM17 9L17 11L15 11L15 12L14 12L14 13L13 13L13 14L15 14L15 12L17 12L17 13L16 13L16 14L18 14L18 11L19 11L19 12L20 12L20 11L19 11L19 9ZM2 11L2 12L4 12L4 13L2 13L2 14L4 14L4 15L5 15L5 14L7 14L7 13L5 13L5 12L4 12L4 11ZM6 11L6 12L7 12L7 11ZM8 11L8 12L9 12L9 11ZM24 12L24 13L25 13L25 12ZM4 13L4 14L5 14L5 13ZM21 14L21 15L23 15L23 17L24 17L24 15L25 15L25 14L24 14L24 15L23 15L23 14ZM13 15L13 16L14 16L14 15ZM16 15L16 16L17 16L17 15ZM17 17L17 20L20 20L20 17ZM18 18L18 19L19 19L19 18ZM11 21L11 22L10 22L10 23L12 23L12 21ZM16 21L16 22L17 22L17 21ZM18 21L18 23L19 23L19 21ZM13 23L13 24L14 24L14 23ZM24 24L24 25L25 25L25 24ZM0 0L0 7L7 7L7 0ZM1 1L1 6L6 6L6 1ZM2 2L2 5L5 5L5 2ZM18 0L18 7L25 7L25 0ZM19 1L19 6L24 6L24 1ZM20 2L20 5L23 5L23 2ZM0 18L0 25L7 25L7 18ZM1 19L1 24L6 24L6 19ZM2 20L2 23L5 23L5 20Z" fill="#000000"/></g></g></svg>
