<?xml version="1.0" encoding="UTF-8"?>
<svg xmlns="http://www.w3.org/2000/svg" version="1.1" width="300" height="300" viewBox="0 0 300 300"><rect x="0" y="0" width="300" height="300" fill="#ffffff"/><g transform="scale(10.345)"><g transform="translate(0,0)"><path fill-rule="evenodd" d="M8 0L8 2L10 2L10 4L8 4L8 9L7 9L7 8L5 8L5 9L3 9L3 8L0 8L0 9L3 9L3 10L2 10L2 11L4 11L4 15L5 15L5 17L7 17L7 18L5 18L5 19L4 19L4 16L3 16L3 15L2 15L2 12L1 12L1 11L0 11L0 12L1 12L1 13L0 13L0 14L1 14L1 15L0 15L0 17L1 17L1 18L0 18L0 19L2 19L2 20L0 20L0 21L5 21L5 20L6 20L6 21L7 21L7 20L8 20L8 22L9 22L9 23L8 23L8 24L10 24L10 25L9 25L9 26L8 26L8 29L10 29L10 28L9 28L9 27L12 27L12 26L10 26L10 25L11 25L11 24L13 24L13 26L15 26L15 28L16 28L16 29L18 29L18 28L19 28L19 26L18 26L18 24L17 24L17 23L19 23L19 25L20 25L20 26L21 26L21 28L20 28L20 29L24 29L24 28L25 28L25 29L27 29L27 28L25 28L25 26L26 26L26 25L25 25L25 23L27 23L27 22L26 22L26 21L25 21L25 19L24 19L24 16L23 16L23 15L22 15L22 14L24 14L24 15L25 15L25 14L24 14L24 12L25 12L25 11L28 11L28 12L27 12L27 15L29 15L29 13L28 13L28 12L29 12L29 8L27 8L27 9L28 9L28 10L24 10L24 9L25 9L25 8L21 8L21 5L20 5L20 4L21 4L21 1L20 1L20 0L18 0L18 1L20 1L20 4L19 4L19 2L17 2L17 0L15 0L15 1L13 1L13 0L11 0L11 1L9 1L9 0ZM11 1L11 2L12 2L12 1ZM15 1L15 2L16 2L16 1ZM13 2L13 3L11 3L11 4L12 4L12 6L11 6L11 5L9 5L9 8L10 8L10 6L11 6L11 7L12 7L12 6L13 6L13 8L11 8L11 10L7 10L7 9L5 9L5 10L4 10L4 11L5 11L5 12L7 12L7 13L5 13L5 15L6 15L6 16L7 16L7 15L6 15L6 14L8 14L8 15L9 15L9 16L11 16L11 17L10 17L10 18L9 18L9 22L10 22L10 19L11 19L11 20L13 20L13 19L14 19L14 21L13 21L13 22L16 22L16 23L17 23L17 22L18 22L18 21L20 21L20 20L23 20L23 19L21 19L21 18L22 18L22 17L21 17L21 18L20 18L20 17L18 17L18 16L22 16L22 15L21 15L21 14L20 14L20 12L18 12L18 11L17 11L17 10L20 10L20 9L19 9L19 8L20 8L20 5L19 5L19 4L18 4L18 3L15 3L15 4L16 4L16 6L15 6L15 5L13 5L13 4L14 4L14 2ZM17 4L17 6L16 6L16 7L15 7L15 6L14 6L14 8L13 8L13 10L15 10L15 11L16 11L16 12L15 12L15 13L16 13L16 14L13 14L13 13L14 13L14 11L13 11L13 12L11 12L11 13L12 13L12 15L11 15L11 14L10 14L10 11L7 11L7 10L5 10L5 11L7 11L7 12L8 12L8 14L9 14L9 15L11 15L11 16L13 16L13 18L15 18L15 19L16 19L16 18L17 18L17 19L20 19L20 18L17 18L17 13L18 13L18 15L20 15L20 14L19 14L19 13L18 13L18 12L17 12L17 11L16 11L16 10L15 10L15 8L16 8L16 9L18 9L18 8L19 8L19 5L18 5L18 4ZM17 6L17 8L18 8L18 6ZM21 9L21 11L22 11L22 12L23 12L23 11L24 11L24 10L23 10L23 11L22 11L22 9ZM11 10L11 11L12 11L12 10ZM1 15L1 17L2 17L2 15ZM13 15L13 16L14 16L14 15ZM15 15L15 18L16 18L16 15ZM28 16L28 17L29 17L29 16ZM25 17L25 18L26 18L26 19L27 19L27 21L28 21L28 19L29 19L29 18L28 18L28 19L27 19L27 18L26 18L26 17ZM7 18L7 19L6 19L6 20L7 20L7 19L8 19L8 18ZM11 18L11 19L12 19L12 18ZM15 20L15 21L16 21L16 22L17 22L17 21L18 21L18 20ZM11 21L11 23L10 23L10 24L11 24L11 23L12 23L12 21ZM21 21L21 24L24 24L24 21ZM22 22L22 23L23 23L23 22ZM28 22L28 24L27 24L27 25L28 25L28 26L27 26L27 27L29 27L29 22ZM13 23L13 24L14 24L14 23ZM15 25L15 26L16 26L16 25ZM22 25L22 26L23 26L23 27L22 27L22 28L24 28L24 26L25 26L25 25ZM13 27L13 28L11 28L11 29L14 29L14 27ZM17 27L17 28L18 28L18 27ZM28 28L28 29L29 29L29 28ZM0 0L0 7L7 7L7 0ZM1 1L1 6L6 6L6 1ZM2 2L2 5L5 5L5 2ZM22 0L22 7L29 7L29 0ZM23 1L23 6L28 6L28 1ZM24 2L24 5L27 5L27 2ZM0 22L0 29L7 29L7 22ZM1 23L1 28L6 28L6 23ZM2 24L2 27L5 27L5 24Z" fill="#000000"/></g></g></svg>
