<?xml version="1.0" encoding="UTF-8"?>
<svg xmlns="http://www.w3.org/2000/svg" version="1.1" width="300" height="300" viewBox="0 0 300 300"><rect x="0" y="0" width="300" height="300" fill="#ffffff"/><g transform="scale(10.345)"><g transform="translate(0,0)"><path fill-rule="evenodd" d="M9 0L9 1L10 1L10 2L8 2L8 3L9 3L9 4L10 4L10 5L9 5L9 6L8 6L8 8L4 8L4 9L5 9L5 11L4 11L4 10L2 10L2 11L1 11L1 10L0 10L0 14L1 14L1 13L3 13L3 14L2 14L2 15L1 15L1 16L0 16L0 17L2 17L2 18L3 18L3 19L1 19L1 18L0 18L0 19L1 19L1 20L0 20L0 21L1 21L1 20L2 20L2 21L3 21L3 19L4 19L4 20L5 20L5 19L4 19L4 17L5 17L5 16L6 16L6 17L8 17L8 19L9 19L9 21L8 21L8 25L9 25L9 24L10 24L10 25L11 25L11 26L12 26L12 24L14 24L14 26L13 26L13 27L14 27L14 26L16 26L16 27L15 27L15 29L17 29L17 28L19 28L19 29L22 29L22 27L23 27L23 28L26 28L26 29L29 29L29 28L28 28L28 27L29 27L29 22L28 22L28 21L27 21L27 24L28 24L28 25L27 25L27 26L26 26L26 23L25 23L25 22L26 22L26 19L24 19L24 20L22 20L22 19L23 19L23 16L24 16L24 15L25 15L25 18L26 18L26 11L27 11L27 12L29 12L29 9L27 9L27 8L26 8L26 9L25 9L25 10L23 10L23 8L21 8L21 6L20 6L20 5L21 5L21 4L20 4L20 3L21 3L21 2L20 2L20 1L19 1L19 0L18 0L18 1L19 1L19 2L18 2L18 3L17 3L17 0L16 0L16 1L14 1L14 0L12 0L12 1L10 1L10 0ZM13 1L13 2L14 2L14 1ZM11 2L11 3L12 3L12 4L11 4L11 5L10 5L10 6L9 6L9 7L10 7L10 6L11 6L11 8L12 8L12 10L10 10L10 8L9 8L9 10L8 10L8 11L6 11L6 12L5 12L5 13L4 13L4 11L2 11L2 12L3 12L3 13L4 13L4 16L2 16L2 17L4 17L4 16L5 16L5 13L6 13L6 14L7 14L7 15L6 15L6 16L10 16L10 17L9 17L9 19L12 19L12 20L11 20L11 21L12 21L12 20L13 20L13 21L14 21L14 22L13 22L13 23L14 23L14 22L15 22L15 23L16 23L16 24L15 24L15 25L16 25L16 24L17 24L17 25L18 25L18 26L19 26L19 27L20 27L20 28L21 28L21 27L20 27L20 26L23 26L23 25L20 25L20 22L19 22L19 19L20 19L20 20L21 20L21 19L22 19L22 18L17 18L17 19L16 19L16 18L14 18L14 16L12 16L12 15L11 15L11 16L10 16L10 14L11 14L11 13L12 13L12 12L13 12L13 13L14 13L14 14L13 14L13 15L14 15L14 14L15 14L15 15L16 15L16 17L19 17L19 16L21 16L21 17L22 17L22 16L21 16L21 15L23 15L23 14L25 14L25 12L24 12L24 11L21 11L21 10L19 10L19 9L21 9L21 8L19 8L19 7L20 7L20 6L19 6L19 5L18 5L18 6L17 6L17 3L16 3L16 2L15 2L15 3L16 3L16 4L15 4L15 5L14 5L14 4L13 4L13 3L12 3L12 2ZM19 2L19 3L20 3L20 2ZM13 5L13 6L12 6L12 8L14 8L14 10L13 10L13 11L14 11L14 10L16 10L16 9L17 9L17 10L18 10L18 11L17 11L17 12L16 12L16 11L15 11L15 12L16 12L16 13L15 13L15 14L21 14L21 12L20 12L20 11L19 11L19 10L18 10L18 9L17 9L17 8L18 8L18 7L19 7L19 6L18 6L18 7L17 7L17 6L16 6L16 8L15 8L15 6L14 6L14 5ZM13 6L13 7L14 7L14 6ZM0 8L0 9L3 9L3 8ZM6 9L6 10L7 10L7 9ZM26 9L26 10L25 10L25 11L26 11L26 10L27 10L27 11L28 11L28 10L27 10L27 9ZM9 10L9 11L10 11L10 10ZM11 11L11 12L12 12L12 11ZM6 12L6 13L7 13L7 14L8 14L8 15L9 15L9 14L10 14L10 13L8 13L8 12ZM17 12L17 13L20 13L20 12ZM22 12L22 14L23 14L23 12ZM28 13L28 15L27 15L27 19L29 19L29 18L28 18L28 17L29 17L29 16L28 16L28 15L29 15L29 13ZM17 15L17 16L18 16L18 15ZM11 16L11 18L12 18L12 16ZM6 18L6 19L7 19L7 18ZM13 18L13 19L14 19L14 18ZM17 19L17 20L18 20L18 19ZM6 20L6 21L7 21L7 20ZM9 21L9 22L10 22L10 21ZM15 21L15 22L18 22L18 23L17 23L17 24L19 24L19 22L18 22L18 21ZM21 21L21 24L24 24L24 21ZM22 22L22 23L23 23L23 22ZM10 23L10 24L12 24L12 23ZM24 25L24 26L25 26L25 25ZM8 26L8 29L9 29L9 28L12 28L12 29L13 29L13 28L12 28L12 27L10 27L10 26ZM27 26L27 27L26 27L26 28L27 28L27 27L28 27L28 26ZM16 27L16 28L17 28L17 27ZM0 0L0 7L7 7L7 0ZM1 1L1 6L6 6L6 1ZM2 2L2 5L5 5L5 2ZM22 0L22 7L29 7L29 0ZM23 1L23 6L28 6L28 1ZM24 2L24 5L27 5L27 2ZM0 22L0 29L7 29L7 22ZM1 23L1 28L6 28L6 23ZM2 24L2 27L5 27L5 24Z" fill="#000000"/></g></g></svg>
