<?xml version="1.0" encoding="UTF-8"?>
<svg xmlns="http://www.w3.org/2000/svg" version="1.1" width="300" height="300" viewBox="0 0 300 300"><rect x="0" y="0" width="300" height="300" fill="#ffffff"/><g transform="scale(12)"><g transform="translate(0,0)"><path fill-rule="evenodd" d="M9 0L9 1L11 1L11 2L9 2L9 3L8 3L8 5L9 5L9 6L8 6L8 7L9 7L9 9L10 9L10 10L9 10L9 11L10 11L10 12L9 12L9 13L8 13L8 15L7 15L7 14L5 14L5 13L3 13L3 11L2 11L2 10L1 10L1 11L2 11L2 12L1 12L1 13L0 13L0 17L1 17L1 13L2 13L2 16L3 16L3 17L4 17L4 16L5 16L5 17L8 17L8 20L9 20L9 21L10 21L10 22L9 22L9 23L8 23L8 25L9 25L9 24L10 24L10 25L11 25L11 24L12 24L12 25L13 25L13 24L12 24L12 23L13 23L13 22L15 22L15 23L14 23L14 24L15 24L15 25L17 25L17 24L18 24L18 25L21 25L21 23L23 23L23 22L24 22L24 25L25 25L25 21L23 21L23 20L22 20L22 22L21 22L21 16L19 16L19 15L18 15L18 14L17 14L17 13L16 13L16 11L17 11L17 12L18 12L18 13L19 13L19 14L20 14L20 15L22 15L22 17L23 17L23 16L25 16L25 10L24 10L24 9L23 9L23 10L21 10L21 9L22 9L22 8L20 8L20 9L19 9L19 10L18 10L18 11L17 11L17 10L16 10L16 8L17 8L17 3L15 3L15 2L14 2L14 3L13 3L13 4L12 4L12 2L13 2L13 1L15 1L15 0L13 0L13 1L12 1L12 0ZM9 3L9 5L10 5L10 3ZM14 3L14 5L12 5L12 4L11 4L11 7L10 7L10 6L9 6L9 7L10 7L10 8L11 8L11 10L10 10L10 11L11 11L11 10L13 10L13 11L12 11L12 12L11 12L11 14L9 14L9 15L8 15L8 16L9 16L9 18L10 18L10 16L9 16L9 15L11 15L11 19L12 19L12 20L14 20L14 19L12 19L12 18L15 18L15 20L16 20L16 17L12 17L12 15L13 15L13 16L14 16L14 15L15 15L15 16L16 16L16 15L17 15L17 14L16 14L16 15L15 15L15 10L14 10L14 9L15 9L15 8L16 8L16 4L15 4L15 3ZM14 5L14 7L15 7L15 5ZM12 6L12 9L14 9L14 8L13 8L13 6ZM0 8L0 9L2 9L2 8ZM5 8L5 10L4 10L4 9L3 9L3 10L4 10L4 12L6 12L6 13L7 13L7 12L6 12L6 11L8 11L8 10L6 10L6 9L8 9L8 8ZM19 10L19 11L20 11L20 10ZM23 10L23 11L21 11L21 12L22 12L22 13L20 13L20 14L22 14L22 15L23 15L23 14L24 14L24 10ZM12 13L12 14L13 14L13 15L14 15L14 13ZM3 14L3 16L4 16L4 15L5 15L5 16L7 16L7 15L5 15L5 14ZM17 17L17 20L20 20L20 17ZM24 17L24 20L25 20L25 17ZM18 18L18 19L19 19L19 18ZM9 19L9 20L10 20L10 21L11 21L11 22L10 22L10 23L12 23L12 21L11 21L11 20L10 20L10 19ZM15 21L15 22L17 22L17 23L19 23L19 24L20 24L20 23L21 23L21 22L20 22L20 21L19 21L19 22L17 22L17 21ZM0 0L0 7L7 7L7 0ZM1 1L1 6L6 6L6 1ZM2 2L2 5L5 5L5 2ZM18 0L18 7L25 7L25 0ZM19 1L19 6L24 6L24 1ZM20 2L20 5L23 5L23 2ZM0 18L0 25L7 25L7 18ZM1 19L1 24L6 24L6 19ZM2 20L2 23L5 23L5 20Z" fill="#000000"/></g></g></svg>
