<?xml version="1.0" encoding="UTF-8"?>
<svg xmlns="http://www.w3.org/2000/svg" version="1.1" width="300" height="300" viewBox="0 0 300 300"><rect x="0" y="0" width="300" height="300" fill="#ffffff"/><g transform="scale(12)"><g transform="translate(0,0)"><path fill-rule="evenodd" d="M8 0L8 2L9 2L9 3L10 3L10 5L12 5L12 4L11 4L11 3L14 3L14 5L16 5L16 3L17 3L17 1L16 1L16 0L15 0L15 1L16 1L16 2L15 2L15 3L14 3L14 0L13 0L13 1L12 1L12 0L11 0L11 1L12 1L12 2L10 2L10 0ZM8 4L8 9L7 9L7 8L5 8L5 9L3 9L3 8L0 8L0 9L1 9L1 10L5 10L5 12L6 12L6 13L5 13L5 14L4 14L4 13L3 13L3 12L2 12L2 11L1 11L1 14L0 14L0 15L3 15L3 14L4 14L4 16L5 16L5 17L7 17L7 16L5 16L5 14L6 14L6 15L7 15L7 14L9 14L9 15L8 15L8 18L9 18L9 16L10 16L10 14L9 14L9 13L10 13L10 11L8 11L8 10L10 10L10 9L11 9L11 6L10 6L10 8L9 8L9 4ZM12 6L12 7L13 7L13 6ZM14 6L14 7L15 7L15 9L16 9L16 10L13 10L13 9L14 9L14 8L12 8L12 10L11 10L11 11L12 11L12 12L11 12L11 13L12 13L12 14L11 14L11 15L12 15L12 16L11 16L11 17L12 17L12 18L10 18L10 19L12 19L12 18L13 18L13 19L15 19L15 18L16 18L16 20L15 20L15 22L14 22L14 24L12 24L12 25L14 25L14 24L15 24L15 22L16 22L16 25L17 25L17 24L18 24L18 25L20 25L20 23L21 23L21 16L20 16L20 15L19 15L19 13L22 13L22 12L21 12L21 11L22 11L22 10L23 10L23 11L25 11L25 8L23 8L23 9L22 9L22 10L21 10L21 11L20 11L20 9L21 9L21 8L17 8L17 6L16 6L16 7L15 7L15 6ZM16 8L16 9L17 9L17 11L15 11L15 12L14 12L14 11L13 11L13 12L14 12L14 15L13 15L13 14L12 14L12 15L13 15L13 16L12 16L12 17L13 17L13 18L15 18L15 17L16 17L16 16L17 16L17 15L16 15L16 16L15 16L15 12L17 12L17 13L16 13L16 14L18 14L18 11L19 11L19 12L20 12L20 11L19 11L19 9L17 9L17 8ZM6 9L6 10L7 10L7 9ZM6 11L6 12L8 12L8 13L9 13L9 12L8 12L8 11ZM24 12L24 13L25 13L25 12ZM2 13L2 14L3 14L3 13ZM6 13L6 14L7 14L7 13ZM21 14L21 15L23 15L23 17L24 17L24 15L25 15L25 14L24 14L24 15L23 15L23 14ZM18 15L18 16L19 16L19 15ZM0 16L0 17L2 17L2 16ZM14 16L14 17L15 17L15 16ZM17 17L17 20L20 20L20 17ZM18 18L18 19L19 19L19 18ZM24 18L24 19L23 19L23 20L25 20L25 18ZM8 19L8 20L9 20L9 22L8 22L8 25L9 25L9 24L11 24L11 23L13 23L13 21L14 21L14 20L11 20L11 21L12 21L12 22L11 22L11 23L9 23L9 22L10 22L10 20L9 20L9 19ZM16 21L16 22L17 22L17 21ZM18 21L18 23L19 23L19 21ZM22 21L22 23L25 23L25 22L24 22L24 21ZM24 24L24 25L25 25L25 24ZM0 0L0 7L7 7L7 0ZM1 1L1 6L6 6L6 1ZM2 2L2 5L5 5L5 2ZM18 0L18 7L25 7L25 0ZM19 1L19 6L24 6L24 1ZM20 2L20 5L23 5L23 2ZM0 18L0 25L7 25L7 18ZM1 19L1 24L6 24L6 19ZM2 20L2 23L5 23L5 20Z" fill="#000000"/></g></g></svg>
