<?xml version="1.0" encoding="UTF-8"?>
<svg xmlns="http://www.w3.org/2000/svg" version="1.1" width="300" height="300" viewBox="0 0 300 300"><rect x="0" y="0" width="300" height="300" fill="#ffffff"/><g transform="scale(12)"><g transform="translate(0,0)"><path fill-rule="evenodd" d="M9 0L9 1L8 1L8 2L9 2L9 3L8 3L8 4L10 4L10 7L11 7L11 4L12 4L12 5L14 5L14 4L16 4L16 5L15 5L15 6L14 6L14 7L15 7L15 8L13 8L13 6L12 6L12 9L16 9L16 10L15 10L15 11L14 11L14 12L12 12L12 11L13 11L13 10L11 10L11 11L10 11L10 9L11 9L11 8L6 8L6 9L7 9L7 10L5 10L5 11L4 11L4 10L0 10L0 11L2 11L2 12L0 12L0 17L1 17L1 13L2 13L2 12L3 12L3 13L4 13L4 12L6 12L6 13L7 13L7 14L6 14L6 15L7 15L7 14L8 14L8 12L9 12L9 16L10 16L10 17L8 17L8 19L9 19L9 18L10 18L10 19L11 19L11 18L12 18L12 20L10 20L10 21L11 21L11 22L12 22L12 23L14 23L14 24L11 24L11 23L9 23L9 20L8 20L8 25L10 25L10 24L11 24L11 25L16 25L16 24L17 24L17 25L20 25L20 24L22 24L22 25L25 25L25 21L23 21L23 20L22 20L22 19L25 19L25 17L24 17L24 18L22 18L22 17L23 17L23 16L25 16L25 10L24 10L24 8L23 8L23 9L22 9L22 8L21 8L21 10L20 10L20 8L19 8L19 10L18 10L18 11L17 11L17 9L18 9L18 8L17 8L17 4L16 4L16 3L17 3L17 0L16 0L16 1L14 1L14 2L16 2L16 3L13 3L13 4L12 4L12 2L13 2L13 1L11 1L11 2L10 2L10 0ZM10 3L10 4L11 4L11 3ZM8 5L8 7L9 7L9 5ZM15 6L15 7L16 7L16 6ZM0 8L0 9L5 9L5 8ZM7 10L7 11L6 11L6 12L8 12L8 10ZM19 10L19 11L20 11L20 10ZM23 10L23 11L22 11L22 12L24 12L24 10ZM10 12L10 13L11 13L11 17L10 17L10 18L11 18L11 17L12 17L12 18L13 18L13 17L12 17L12 16L15 16L15 14L16 14L16 16L17 16L17 14L18 14L18 15L19 15L19 16L20 16L20 14L21 14L21 12L19 12L19 13L17 13L17 12L14 12L14 13L13 13L13 14L12 14L12 13L11 13L11 12ZM16 13L16 14L17 14L17 13ZM19 13L19 14L20 14L20 13ZM22 13L22 16L21 16L21 17L22 17L22 16L23 16L23 14L24 14L24 13ZM3 14L3 15L4 15L4 16L2 16L2 17L4 17L4 16L5 16L5 15L4 15L4 14ZM6 16L6 17L7 17L7 16ZM14 17L14 19L13 19L13 20L14 20L14 19L16 19L16 18L15 18L15 17ZM17 17L17 20L20 20L20 17ZM18 18L18 19L19 19L19 18ZM21 18L21 19L22 19L22 18ZM21 20L21 21L19 21L19 22L17 22L17 23L19 23L19 24L20 24L20 23L22 23L22 24L24 24L24 22L23 22L23 21L22 21L22 20ZM12 21L12 22L13 22L13 21ZM14 21L14 22L15 22L15 21ZM21 21L21 22L22 22L22 21ZM15 23L15 24L16 24L16 23ZM0 0L0 7L7 7L7 0ZM1 1L1 6L6 6L6 1ZM2 2L2 5L5 5L5 2ZM18 0L18 7L25 7L25 0ZM19 1L19 6L24 6L24 1ZM20 2L20 5L23 5L23 2ZM0 18L0 25L7 25L7 18ZM1 19L1 24L6 24L6 19ZM2 20L2 23L5 23L5 20Z" fill="#000000"/></g></g></svg>
