<?xml version="1.0" encoding="UTF-8"?>
<svg xmlns="http://www.w3.org/2000/svg" version="1.1" width="300" height="300" viewBox="0 0 300 300"><rect x="0" y="0" width="300" height="300" fill="#ffffff"/><g transform="scale(12)"><g transform="translate(0,0)"><path fill-rule="evenodd" d="M8 0L8 1L11 1L11 3L10 3L10 2L9 2L9 3L10 3L10 5L9 5L9 6L8 6L8 8L9 8L9 9L10 9L10 10L6 10L6 9L7 9L7 8L6 8L6 9L5 9L5 8L3 8L3 9L5 9L5 12L4 12L4 13L3 13L3 14L1 14L1 13L0 13L0 17L1 17L1 15L3 15L3 16L4 16L4 17L8 17L8 18L9 18L9 20L8 20L8 22L9 22L9 23L8 23L8 25L10 25L10 24L9 24L9 23L10 23L10 22L11 22L11 25L14 25L14 24L13 24L13 23L12 23L12 22L11 22L11 21L15 21L15 22L14 22L14 23L15 23L15 22L17 22L17 23L18 23L18 22L20 22L20 23L19 23L19 24L18 24L18 25L19 25L19 24L20 24L20 25L21 25L21 24L20 24L20 23L21 23L21 22L20 22L20 21L21 21L21 15L22 15L22 18L24 18L24 20L23 20L23 21L22 21L22 22L23 22L23 23L22 23L22 24L24 24L24 25L25 25L25 21L24 21L24 20L25 20L25 17L24 17L24 16L25 16L25 10L24 10L24 9L25 9L25 8L24 8L24 9L23 9L23 10L21 10L21 9L19 9L19 8L18 8L18 10L21 10L21 11L20 11L20 12L18 12L18 11L16 11L16 10L14 10L14 9L17 9L17 8L15 8L15 5L17 5L17 3L16 3L16 2L15 2L15 1L16 1L16 0L14 0L14 1L12 1L12 0ZM12 2L12 3L13 3L13 7L12 7L12 6L11 6L11 5L10 5L10 6L9 6L9 7L10 7L10 9L11 9L11 10L10 10L10 11L9 11L9 12L8 12L8 11L6 11L6 12L7 12L7 13L6 13L6 14L8 14L8 15L6 15L6 16L8 16L8 17L10 17L10 16L8 16L8 15L11 15L11 16L15 16L15 17L12 17L12 18L15 18L15 20L16 20L16 18L15 18L15 17L16 17L16 16L15 16L15 14L14 14L14 15L12 15L12 14L13 14L13 13L12 13L12 12L11 12L11 10L12 10L12 11L13 11L13 12L14 12L14 13L15 13L15 12L16 12L16 11L15 11L15 12L14 12L14 10L13 10L13 7L14 7L14 5L15 5L15 4L16 4L16 3L13 3L13 2ZM10 6L10 7L11 7L11 6ZM16 6L16 7L17 7L17 6ZM0 8L0 10L1 10L1 12L2 12L2 11L3 11L3 10L1 10L1 9L2 9L2 8ZM21 11L21 12L22 12L22 13L21 13L21 14L20 14L20 15L21 15L21 14L24 14L24 12L22 12L22 11ZM9 12L9 13L8 13L8 14L11 14L11 12ZM17 12L17 13L16 13L16 14L17 14L17 15L18 15L18 14L19 14L19 13L18 13L18 12ZM4 13L4 14L3 14L3 15L5 15L5 13ZM17 17L17 20L20 20L20 17ZM18 18L18 19L19 19L19 18ZM10 19L10 21L9 21L9 22L10 22L10 21L11 21L11 19ZM12 19L12 20L13 20L13 19ZM16 24L16 25L17 25L17 24ZM0 0L0 7L7 7L7 0ZM1 1L1 6L6 6L6 1ZM2 2L2 5L5 5L5 2ZM18 0L18 7L25 7L25 0ZM19 1L19 6L24 6L24 1ZM20 2L20 5L23 5L23 2ZM0 18L0 25L7 25L7 18ZM1 19L1 24L6 24L6 19ZM2 20L2 23L5 23L5 20Z" fill="#000000"/></g></g></svg>
