<?xml version="1.0" encoding="UTF-8"?>
<svg xmlns="http://www.w3.org/2000/svg" version="1.1" width="300" height="300" viewBox="0 0 300 300"><rect x="0" y="0" width="300" height="300" fill="#ffffff"/><g transform="scale(12)"><g transform="translate(0,0)"><path fill-rule="evenodd" d="M9 0L9 1L8 1L8 2L9 2L9 3L8 3L8 4L10 4L10 7L11 7L11 4L12 4L12 5L13 5L13 4L12 4L12 2L15 2L15 3L14 3L14 7L15 7L15 6L16 6L16 7L17 7L17 4L16 4L16 2L17 2L17 0L15 0L15 1L14 1L14 0L13 0L13 1L11 1L11 2L10 2L10 0ZM10 3L10 4L11 4L11 3ZM8 5L8 7L9 7L9 5ZM12 6L12 9L13 9L13 10L11 10L11 11L10 11L10 9L11 9L11 8L6 8L6 9L5 9L5 8L0 8L0 10L1 10L1 9L2 9L2 11L0 11L0 12L1 12L1 13L0 13L0 17L1 17L1 14L2 14L2 16L3 16L3 17L4 17L4 16L3 16L3 15L5 15L5 17L8 17L8 19L9 19L9 18L10 18L10 19L11 19L11 20L10 20L10 21L9 21L9 20L8 20L8 25L11 25L11 23L10 23L10 22L11 22L11 21L12 21L12 22L13 22L13 23L12 23L12 25L13 25L13 24L14 24L14 25L15 25L15 24L17 24L17 25L20 25L20 24L22 24L22 25L25 25L25 20L22 20L22 19L25 19L25 17L24 17L24 18L22 18L22 17L23 17L23 16L25 16L25 10L24 10L24 8L23 8L23 9L22 9L22 8L21 8L21 10L20 10L20 8L19 8L19 9L18 9L18 8L14 8L14 9L13 9L13 6ZM3 9L3 11L4 11L4 12L3 12L3 13L2 13L2 14L3 14L3 13L5 13L5 12L8 12L8 13L9 13L9 14L10 14L10 13L11 13L11 15L10 15L10 16L9 16L9 17L11 17L11 18L13 18L13 19L12 19L12 21L14 21L14 22L15 22L15 23L14 23L14 24L15 24L15 23L18 23L18 24L19 24L19 23L22 23L22 24L24 24L24 22L17 22L17 21L15 21L15 19L16 19L16 16L17 16L17 15L18 15L18 14L21 14L21 12L20 12L20 10L18 10L18 9L17 9L17 10L16 10L16 13L15 13L15 14L14 14L14 11L12 11L12 13L11 13L11 12L10 12L10 13L9 13L9 12L8 12L8 11L9 11L9 10L8 10L8 9L6 9L6 10L5 10L5 9ZM14 9L14 10L15 10L15 9ZM6 10L6 11L8 11L8 10ZM17 10L17 11L18 11L18 10ZM23 10L23 11L22 11L22 12L24 12L24 10ZM17 12L17 13L19 13L19 12ZM6 13L6 14L5 14L5 15L6 15L6 16L8 16L8 14L7 14L7 13ZM12 13L12 14L13 14L13 15L12 15L12 17L13 17L13 18L14 18L14 17L15 17L15 15L16 15L16 14L15 14L15 15L14 15L14 14L13 14L13 13ZM22 13L22 16L21 16L21 15L19 15L19 16L21 16L21 17L22 17L22 16L23 16L23 14L24 14L24 13ZM6 14L6 15L7 15L7 14ZM13 15L13 17L14 17L14 15ZM17 17L17 20L20 20L20 17ZM18 18L18 19L19 19L19 18ZM21 18L21 19L22 19L22 18ZM21 20L21 21L22 21L22 20ZM9 23L9 24L10 24L10 23ZM0 0L0 7L7 7L7 0ZM1 1L1 6L6 6L6 1ZM2 2L2 5L5 5L5 2ZM18 0L18 7L25 7L25 0ZM19 1L19 6L24 6L24 1ZM20 2L20 5L23 5L23 2ZM0 18L0 25L7 25L7 18ZM1 19L1 24L6 24L6 19ZM2 20L2 23L5 23L5 20Z" fill="#000000"/></g></g></svg>
