<?xml version="1.0" encoding="UTF-8"?>
<svg xmlns="http://www.w3.org/2000/svg" version="1.1" width="300" height="300" viewBox="0 0 300 300"><rect x="0" y="0" width="300" height="300" fill="#ffffff"/><g transform="scale(12)"><g transform="translate(0,0)"><path fill-rule="evenodd" d="M8 0L8 1L9 1L9 0ZM10 0L10 1L12 1L12 2L13 2L13 3L10 3L10 2L9 2L9 3L10 3L10 4L11 4L11 6L10 6L10 5L9 5L9 6L8 6L8 8L9 8L9 9L10 9L10 10L9 10L9 11L8 11L8 10L6 10L6 9L7 9L7 8L6 8L6 9L5 9L5 8L3 8L3 10L2 10L2 11L1 11L1 12L0 12L0 17L1 17L1 15L2 15L2 16L4 16L4 15L5 15L5 16L6 16L6 17L8 17L8 18L9 18L9 19L10 19L10 18L9 18L9 15L10 15L10 14L11 14L11 13L12 13L12 12L13 12L13 14L12 14L12 15L11 15L11 16L10 16L10 17L11 17L11 19L12 19L12 21L13 21L13 20L15 20L15 21L14 21L14 23L15 23L15 22L17 22L17 23L18 23L18 22L20 22L20 23L21 23L21 22L20 22L20 21L21 21L21 15L22 15L22 18L24 18L24 19L25 19L25 17L24 17L24 16L25 16L25 10L24 10L24 9L25 9L25 8L24 8L24 9L23 9L23 10L21 10L21 9L19 9L19 8L18 8L18 10L21 10L21 11L20 11L20 12L18 12L18 11L16 11L16 10L15 10L15 9L17 9L17 8L16 8L16 7L17 7L17 2L15 2L15 1L16 1L16 0L13 0L13 1L12 1L12 0ZM13 3L13 4L12 4L12 6L11 6L11 7L10 7L10 6L9 6L9 7L10 7L10 9L11 9L11 10L10 10L10 11L9 11L9 12L12 12L12 11L13 11L13 12L14 12L14 14L13 14L13 15L12 15L12 16L11 16L11 17L12 17L12 19L13 19L13 17L14 17L14 18L15 18L15 20L16 20L16 18L15 18L15 17L16 17L16 16L15 16L15 12L16 12L16 11L15 11L15 10L14 10L14 9L12 9L12 6L13 6L13 7L14 7L14 6L13 6L13 5L15 5L15 7L16 7L16 5L15 5L15 3ZM0 8L0 10L1 10L1 9L2 9L2 8ZM4 9L4 12L5 12L5 14L7 14L7 15L6 15L6 16L8 16L8 15L9 15L9 14L7 14L7 13L8 13L8 12L7 12L7 11L6 11L6 10L5 10L5 9ZM11 10L11 11L12 11L12 10ZM5 11L5 12L6 12L6 13L7 13L7 12L6 12L6 11ZM14 11L14 12L15 12L15 11ZM21 11L21 12L22 12L22 13L21 13L21 14L19 14L19 13L18 13L18 12L17 12L17 13L16 13L16 14L17 14L17 15L18 15L18 14L19 14L19 16L20 16L20 15L21 15L21 14L24 14L24 12L22 12L22 11ZM2 12L2 13L3 13L3 12ZM2 14L2 15L4 15L4 14ZM12 16L12 17L13 17L13 16ZM17 17L17 20L20 20L20 17ZM18 18L18 19L19 19L19 18ZM8 20L8 22L9 22L9 23L8 23L8 25L9 25L9 23L10 23L10 25L14 25L14 24L13 24L13 22L11 22L11 21L10 21L10 22L9 22L9 20ZM23 20L23 21L22 21L22 22L23 22L23 23L22 23L22 24L24 24L24 25L25 25L25 21L24 21L24 20ZM10 22L10 23L11 23L11 24L12 24L12 23L11 23L11 22ZM16 24L16 25L17 25L17 24ZM18 24L18 25L21 25L21 24ZM0 0L0 7L7 7L7 0ZM1 1L1 6L6 6L6 1ZM2 2L2 5L5 5L5 2ZM18 0L18 7L25 7L25 0ZM19 1L19 6L24 6L24 1ZM20 2L20 5L23 5L23 2ZM0 18L0 25L7 25L7 18ZM1 19L1 24L6 24L6 19ZM2 20L2 23L5 23L5 20Z" fill="#000000"/></g></g></svg>
