<?xml version="1.0" encoding="UTF-8"?>
<svg xmlns="http://www.w3.org/2000/svg" version="1.1" width="300" height="300" viewBox="0 0 300 300"><rect x="0" y="0" width="300" height="300" fill="#ffffff"/><g transform="scale(12)"><g transform="translate(0,0)"><path fill-rule="evenodd" d="M9 0L9 1L8 1L8 2L9 2L9 3L8 3L8 4L10 4L10 7L11 7L11 4L12 4L12 5L13 5L13 6L12 6L12 9L13 9L13 6L14 6L14 7L15 7L15 6L16 6L16 7L17 7L17 4L15 4L15 3L16 3L16 1L17 1L17 0L15 0L15 2L14 2L14 4L12 4L12 2L13 2L13 1L11 1L11 2L10 2L10 0ZM10 3L10 4L11 4L11 3ZM14 4L14 5L15 5L15 4ZM8 5L8 7L9 7L9 5ZM0 8L0 9L2 9L2 10L3 10L3 11L5 11L5 13L4 13L4 12L3 12L3 13L4 13L4 15L7 15L7 16L5 16L5 17L8 17L8 19L9 19L9 20L8 20L8 25L9 25L9 22L10 22L10 25L11 25L11 22L10 22L10 21L13 21L13 23L12 23L12 25L13 25L13 23L14 23L14 25L15 25L15 24L17 24L17 25L19 25L19 24L18 24L18 23L14 23L14 21L17 21L17 22L21 22L21 20L22 20L22 21L23 21L23 22L22 22L22 23L21 23L21 24L22 24L22 25L25 25L25 21L23 21L23 20L22 20L22 19L25 19L25 17L24 17L24 18L22 18L22 17L23 17L23 16L25 16L25 10L24 10L24 8L23 8L23 9L22 9L22 8L21 8L21 10L20 10L20 8L19 8L19 9L18 9L18 8L17 8L17 9L16 9L16 8L14 8L14 9L15 9L15 10L14 10L14 11L15 11L15 12L14 12L14 14L13 14L13 12L12 12L12 11L13 11L13 10L11 10L11 11L10 11L10 9L11 9L11 8L6 8L6 9L5 9L5 8ZM3 9L3 10L4 10L4 9ZM6 9L6 10L7 10L7 11L6 11L6 12L7 12L7 11L8 11L8 13L9 13L9 15L8 15L8 16L9 16L9 17L10 17L10 18L9 18L9 19L12 19L12 20L13 20L13 21L14 21L14 19L16 19L16 16L17 16L17 15L18 15L18 14L20 14L20 15L19 15L19 16L20 16L20 15L21 15L21 12L20 12L20 10L18 10L18 9L17 9L17 10L16 10L16 13L15 13L15 14L14 14L14 15L12 15L12 13L11 13L11 12L10 12L10 13L9 13L9 11L8 11L8 10L7 10L7 9ZM0 10L0 12L1 12L1 13L0 13L0 17L1 17L1 14L2 14L2 12L1 12L1 10ZM17 10L17 11L18 11L18 10ZM23 10L23 11L22 11L22 12L24 12L24 10ZM17 12L17 13L19 13L19 12ZM5 13L5 14L7 14L7 13ZM10 13L10 14L11 14L11 13ZM22 13L22 16L21 16L21 17L22 17L22 16L23 16L23 14L24 14L24 13ZM15 14L15 15L16 15L16 14ZM10 15L10 17L11 17L11 15ZM2 16L2 17L3 17L3 16ZM14 16L14 17L15 17L15 16ZM17 17L17 20L20 20L20 17ZM12 18L12 19L13 19L13 18ZM18 18L18 19L19 19L19 18ZM21 18L21 19L22 19L22 18ZM9 20L9 21L10 21L10 20ZM23 22L23 23L22 23L22 24L24 24L24 22ZM0 0L0 7L7 7L7 0ZM1 1L1 6L6 6L6 1ZM2 2L2 5L5 5L5 2ZM18 0L18 7L25 7L25 0ZM19 1L19 6L24 6L24 1ZM20 2L20 5L23 5L23 2ZM0 18L0 25L7 25L7 18ZM1 19L1 24L6 24L6 19ZM2 20L2 23L5 23L5 20Z" fill="#000000"/></g></g></svg>
