<?xml version="1.0" encoding="UTF-8"?>
<svg xmlns="http://www.w3.org/2000/svg" version="1.1" width="300" height="300" viewBox="0 0 300 300"><rect x="0" y="0" width="300" height="300" fill="#ffffff"/><g transform="scale(12)"><g transform="translate(0,0)"><path fill-rule="evenodd" d="M14 0L14 1L13 1L13 2L12 2L12 3L11 3L11 4L13 4L13 2L14 2L14 1L15 1L15 3L14 3L14 5L12 5L12 8L6 8L6 9L5 9L5 8L0 8L0 10L4 10L4 11L0 11L0 17L1 17L1 14L2 14L2 16L3 16L3 17L4 17L4 16L3 16L3 15L7 15L7 16L5 16L5 17L8 17L8 19L9 19L9 20L8 20L8 25L9 25L9 24L10 24L10 25L11 25L11 24L10 24L10 22L9 22L9 21L10 21L10 19L11 19L11 18L10 18L10 17L11 17L11 16L12 16L12 17L13 17L13 16L12 16L12 15L11 15L11 13L13 13L13 15L14 15L14 13L16 13L16 10L17 10L17 11L18 11L18 10L20 10L20 12L21 12L21 14L20 14L20 15L21 15L21 16L19 16L19 14L18 14L18 15L17 15L17 16L16 16L16 19L15 19L15 18L14 18L14 21L17 21L17 22L21 22L21 23L20 23L20 24L18 24L18 23L15 23L15 22L14 22L14 25L15 25L15 24L17 24L17 25L20 25L20 24L22 24L22 25L25 25L25 21L24 21L24 20L22 20L22 19L25 19L25 17L24 17L24 18L22 18L22 17L23 17L23 16L25 16L25 10L24 10L24 8L23 8L23 9L22 9L22 8L21 8L21 10L20 10L20 8L19 8L19 9L18 9L18 8L17 8L17 9L15 9L15 8L16 8L16 7L17 7L17 6L16 6L16 5L17 5L17 4L16 4L16 2L17 2L17 0ZM8 1L8 2L9 2L9 3L8 3L8 4L10 4L10 2L11 2L11 1ZM8 5L8 7L9 7L9 5ZM10 5L10 7L11 7L11 5ZM14 5L14 6L13 6L13 9L10 9L10 11L12 11L12 12L13 12L13 13L14 13L14 12L15 12L15 9L14 9L14 6L15 6L15 7L16 7L16 6L15 6L15 5ZM4 9L4 10L5 10L5 12L3 12L3 13L5 13L5 14L7 14L7 15L8 15L8 17L9 17L9 16L10 16L10 13L11 13L11 12L10 12L10 13L9 13L9 15L8 15L8 12L9 12L9 11L8 11L8 10L9 10L9 9L8 9L8 10L7 10L7 9L6 9L6 10L5 10L5 9ZM13 9L13 10L14 10L14 9ZM17 9L17 10L18 10L18 9ZM6 10L6 11L7 11L7 12L6 12L6 13L7 13L7 12L8 12L8 11L7 11L7 10ZM23 10L23 11L22 11L22 12L24 12L24 10ZM17 12L17 13L19 13L19 12ZM22 13L22 16L21 16L21 17L22 17L22 16L23 16L23 14L24 14L24 13ZM15 14L15 15L16 15L16 14ZM14 16L14 17L15 17L15 16ZM17 17L17 20L20 20L20 17ZM9 18L9 19L10 19L10 18ZM12 18L12 21L11 21L11 22L12 22L12 23L13 23L13 18ZM18 18L18 19L19 19L19 18ZM21 18L21 19L22 19L22 18ZM21 20L21 21L22 21L22 22L23 22L23 23L22 23L22 24L24 24L24 22L23 22L23 21L22 21L22 20ZM0 0L0 7L7 7L7 0ZM1 1L1 6L6 6L6 1ZM2 2L2 5L5 5L5 2ZM18 0L18 7L25 7L25 0ZM19 1L19 6L24 6L24 1ZM20 2L20 5L23 5L23 2ZM0 18L0 25L7 25L7 18ZM1 19L1 24L6 24L6 19ZM2 20L2 23L5 23L5 20Z" fill="#000000"/></g></g></svg>
