<?xml version="1.0" encoding="UTF-8"?>
<svg xmlns="http://www.w3.org/2000/svg" version="1.1" width="300" height="300" viewBox="0 0 300 300"><rect x="0" y="0" width="300" height="300" fill="#ffffff"/><g transform="scale(12)"><g transform="translate(0,0)"><path fill-rule="evenodd" d="M8 0L8 1L11 1L11 3L10 3L10 2L9 2L9 3L10 3L10 5L9 5L9 6L8 6L8 8L9 8L9 9L8 9L8 11L10 11L10 10L11 10L11 12L9 12L9 14L5 14L5 13L4 13L4 14L5 14L5 15L3 15L3 16L2 16L2 17L3 17L3 16L4 16L4 17L5 17L5 15L8 15L8 18L9 18L9 17L11 17L11 19L12 19L12 21L13 21L13 20L15 20L15 21L14 21L14 23L15 23L15 22L17 22L17 23L18 23L18 22L20 22L20 25L21 25L21 22L20 22L20 21L21 21L21 15L22 15L22 18L24 18L24 20L23 20L23 21L22 21L22 22L23 22L23 23L22 23L22 24L24 24L24 25L25 25L25 21L24 21L24 20L25 20L25 17L24 17L24 16L25 16L25 10L24 10L24 9L25 9L25 8L24 8L24 9L23 9L23 10L21 10L21 9L19 9L19 8L18 8L18 10L21 10L21 11L20 11L20 12L18 12L18 11L16 11L16 10L13 10L13 11L12 11L12 10L11 10L11 9L10 9L10 7L11 7L11 8L13 8L13 9L16 9L16 7L17 7L17 6L16 6L16 7L15 7L15 5L17 5L17 2L15 2L15 1L16 1L16 0L14 0L14 1L12 1L12 0ZM12 2L12 3L13 3L13 5L15 5L15 3L13 3L13 2ZM10 5L10 6L9 6L9 7L10 7L10 6L11 6L11 7L12 7L12 6L11 6L11 5ZM13 6L13 7L14 7L14 6ZM0 8L0 9L1 9L1 11L0 11L0 17L1 17L1 15L2 15L2 14L3 14L3 11L4 11L4 10L5 10L5 11L7 11L7 10L6 10L6 9L7 9L7 8L6 8L6 9L5 9L5 8L3 8L3 9L2 9L2 8ZM3 9L3 10L2 10L2 11L3 11L3 10L4 10L4 9ZM9 9L9 10L10 10L10 9ZM13 11L13 12L14 12L14 13L15 13L15 12L16 12L16 11ZM21 11L21 12L22 12L22 13L21 13L21 14L24 14L24 12L22 12L22 11ZM1 12L1 13L2 13L2 12ZM6 12L6 13L7 13L7 12ZM17 12L17 13L16 13L16 14L17 14L17 15L18 15L18 14L19 14L19 15L20 15L20 14L19 14L19 13L18 13L18 12ZM11 13L11 15L12 15L12 19L14 19L14 18L15 18L15 20L16 20L16 18L15 18L15 17L16 17L16 16L15 16L15 14L14 14L14 15L13 15L13 13ZM9 15L9 16L10 16L10 15ZM6 16L6 17L7 17L7 16ZM13 17L13 18L14 18L14 17ZM17 17L17 20L20 20L20 17ZM18 18L18 19L19 19L19 18ZM8 20L8 22L9 22L9 23L8 23L8 25L9 25L9 23L10 23L10 22L9 22L9 21L10 21L10 20ZM11 22L11 24L10 24L10 25L12 25L12 24L13 24L13 25L14 25L14 24L13 24L13 22ZM16 24L16 25L17 25L17 24ZM18 24L18 25L19 25L19 24ZM0 0L0 7L7 7L7 0ZM1 1L1 6L6 6L6 1ZM2 2L2 5L5 5L5 2ZM18 0L18 7L25 7L25 0ZM19 1L19 6L24 6L24 1ZM20 2L20 5L23 5L23 2ZM0 18L0 25L7 25L7 18ZM1 19L1 24L6 24L6 19ZM2 20L2 23L5 23L5 20Z" fill="#000000"/></g></g></svg>
