<?xml version="1.0" encoding="UTF-8"?>
<svg xmlns="http://www.w3.org/2000/svg" version="1.1" width="300" height="300" viewBox="0 0 300 300"><rect x="0" y="0" width="300" height="300" fill="#ffffff"/><g transform="scale(12)"><g transform="translate(0,0)"><path fill-rule="evenodd" d="M8 0L8 1L10 1L10 0ZM14 0L14 1L13 1L13 2L11 2L11 4L10 4L10 3L9 3L9 2L8 2L8 5L9 5L9 6L8 6L8 7L9 7L9 8L8 8L8 9L7 9L7 8L6 8L6 9L4 9L4 8L0 8L0 10L1 10L1 11L0 11L0 13L2 13L2 14L1 14L1 15L0 15L0 16L1 16L1 15L2 15L2 17L5 17L5 16L6 16L6 17L7 17L7 16L10 16L10 17L8 17L8 18L9 18L9 19L10 19L10 18L11 18L11 19L12 19L12 20L11 20L11 21L12 21L12 22L10 22L10 23L14 23L14 22L15 22L15 23L16 23L16 22L15 22L15 21L14 21L14 20L13 20L13 18L14 18L14 17L12 17L12 16L14 16L14 15L15 15L15 14L16 14L16 15L17 15L17 16L15 16L15 18L16 18L16 21L17 21L17 25L20 25L20 24L19 24L19 22L20 22L20 23L22 23L22 25L25 25L25 24L23 24L23 23L24 23L24 22L25 22L25 21L24 21L24 19L25 19L25 18L23 18L23 17L25 17L25 15L24 15L24 13L25 13L25 12L23 12L23 11L24 11L24 9L25 9L25 8L24 8L24 9L23 9L23 8L20 8L20 9L18 9L18 8L17 8L17 9L16 9L16 8L13 8L13 11L11 11L11 13L10 13L10 12L9 12L9 11L8 11L8 9L9 9L9 10L10 10L10 9L9 9L9 8L10 8L10 7L11 7L11 8L12 8L12 7L13 7L13 6L14 6L14 7L15 7L15 6L14 6L14 5L15 5L15 4L16 4L16 5L17 5L17 3L14 3L14 2L15 2L15 1L16 1L16 2L17 2L17 0ZM12 3L12 5L10 5L10 6L9 6L9 7L10 7L10 6L11 6L11 7L12 7L12 5L14 5L14 3ZM16 6L16 7L17 7L17 6ZM2 9L2 10L3 10L3 11L2 11L2 12L3 12L3 13L4 13L4 12L5 12L5 14L8 14L8 15L10 15L10 16L12 16L12 14L13 14L13 15L14 15L14 14L13 14L13 13L15 13L15 12L16 12L16 14L17 14L17 15L20 15L20 16L21 16L21 15L22 15L22 16L23 16L23 15L22 15L22 14L23 14L23 13L21 13L21 12L22 12L22 10L21 10L21 9L20 9L20 10L19 10L19 11L21 11L21 12L19 12L19 14L17 14L17 12L18 12L18 9L17 9L17 10L15 10L15 9L14 9L14 10L15 10L15 11L14 11L14 12L12 12L12 14L11 14L11 15L10 15L10 13L9 13L9 12L8 12L8 11L6 11L6 10L7 10L7 9L6 9L6 10L4 10L4 9ZM16 11L16 12L17 12L17 11ZM6 12L6 13L7 13L7 12ZM8 13L8 14L9 14L9 13ZM20 13L20 15L21 15L21 13ZM2 14L2 15L3 15L3 14ZM6 15L6 16L7 16L7 15ZM11 17L11 18L12 18L12 17ZM17 17L17 20L20 20L20 17ZM18 18L18 19L19 19L19 18ZM22 18L22 19L21 19L21 20L22 20L22 21L23 21L23 18ZM9 20L9 21L8 21L8 25L9 25L9 21L10 21L10 20ZM22 22L22 23L23 23L23 22ZM10 24L10 25L11 25L11 24ZM12 24L12 25L13 25L13 24ZM14 24L14 25L15 25L15 24ZM0 0L0 7L7 7L7 0ZM1 1L1 6L6 6L6 1ZM2 2L2 5L5 5L5 2ZM18 0L18 7L25 7L25 0ZM19 1L19 6L24 6L24 1ZM20 2L20 5L23 5L23 2ZM0 18L0 25L7 25L7 18ZM1 19L1 24L6 24L6 19ZM2 20L2 23L5 23L5 20Z" fill="#000000"/></g></g></svg>
