<?xml version="1.0" encoding="UTF-8"?>
<svg xmlns="http://www.w3.org/2000/svg" version="1.1" width="300" height="300" viewBox="0 0 300 300"><rect x="0" y="0" width="300" height="300" fill="#ffffff"/><g transform="scale(10.345)"><g transform="translate(0,0)"><path fill-rule="evenodd" d="M9 0L9 1L8 1L8 3L9 3L9 4L8 4L8 8L6 8L6 9L8 9L8 8L10 8L10 10L6 10L6 11L2 11L2 12L1 12L1 10L3 10L3 9L4 9L4 8L3 8L3 9L2 9L2 8L0 8L0 9L1 9L1 10L0 10L0 12L1 12L1 13L3 13L3 12L4 12L4 15L3 15L3 14L1 14L1 15L0 15L0 16L1 16L1 15L3 15L3 17L5 17L5 18L6 18L6 19L7 19L7 18L8 18L8 20L6 20L6 21L8 21L8 23L9 23L9 21L10 21L10 18L11 18L11 17L12 17L12 16L13 16L13 17L15 17L15 18L16 18L16 20L17 20L17 21L15 21L15 20L14 20L14 18L13 18L13 20L12 20L12 19L11 19L11 22L10 22L10 23L11 23L11 24L10 24L10 25L11 25L11 26L9 26L9 25L8 25L8 26L9 26L9 27L8 27L8 29L9 29L9 28L12 28L12 29L14 29L14 28L12 28L12 24L14 24L14 25L13 25L13 27L15 27L15 28L16 28L16 27L15 27L15 26L16 26L16 25L15 25L15 24L14 24L14 23L15 23L15 22L16 22L16 23L17 23L17 21L18 21L18 20L20 20L20 22L18 22L18 23L20 23L20 25L17 25L17 26L19 26L19 27L17 27L17 28L20 28L20 29L21 29L21 28L20 28L20 25L22 25L22 27L23 27L23 28L25 28L25 29L28 29L28 27L29 27L29 26L28 26L28 25L29 25L29 23L28 23L28 21L27 21L27 20L25 20L25 19L26 19L26 18L27 18L27 19L28 19L28 20L29 20L29 18L28 18L28 15L29 15L29 14L28 14L28 15L27 15L27 17L25 17L25 19L24 19L24 20L23 20L23 18L24 18L24 17L21 17L21 16L24 16L24 15L25 15L25 16L26 16L26 15L25 15L25 14L26 14L26 12L29 12L29 11L27 11L27 10L29 10L29 9L28 9L28 8L26 8L26 9L25 9L25 8L22 8L22 9L18 9L18 7L19 7L19 6L20 6L20 8L21 8L21 5L20 5L20 4L21 4L21 3L20 3L20 2L19 2L19 4L18 4L18 5L19 5L19 6L18 6L18 7L17 7L17 6L16 6L16 7L17 7L17 8L15 8L15 4L16 4L16 5L17 5L17 4L16 4L16 3L18 3L18 1L19 1L19 0L18 0L18 1L17 1L17 0L16 0L16 1L14 1L14 0L12 0L12 1L11 1L11 2L9 2L9 1L10 1L10 0ZM16 1L16 2L14 2L14 3L16 3L16 2L17 2L17 1ZM12 3L12 4L9 4L9 5L10 5L10 6L9 6L9 7L10 7L10 8L11 8L11 9L12 9L12 10L11 10L11 11L8 11L8 12L9 12L9 16L8 16L8 14L7 14L7 13L6 13L6 12L7 12L7 11L6 11L6 12L5 12L5 14L7 14L7 15L6 15L6 16L5 16L5 17L6 17L6 18L7 18L7 17L8 17L8 18L9 18L9 17L10 17L10 15L11 15L11 16L12 16L12 14L10 14L10 13L12 13L12 12L13 12L13 15L16 15L16 16L15 16L15 17L17 17L17 18L18 18L18 17L19 17L19 16L17 16L17 14L19 14L19 15L20 15L20 13L19 13L19 12L21 12L21 15L24 15L24 14L25 14L25 12L23 12L23 10L25 10L25 9L23 9L23 10L22 10L22 11L19 11L19 10L18 10L18 11L17 11L17 13L16 13L16 14L15 14L15 12L16 12L16 10L17 10L17 9L16 9L16 10L14 10L14 9L15 9L15 8L14 8L14 6L13 6L13 3ZM11 5L11 6L10 6L10 7L11 7L11 6L12 6L12 8L13 8L13 6L12 6L12 5ZM26 9L26 10L27 10L27 9ZM14 11L14 12L15 12L15 11ZM22 12L22 13L23 13L23 12ZM6 16L6 17L7 17L7 16ZM20 17L20 18L19 18L19 19L20 19L20 18L21 18L21 19L22 19L22 18L21 18L21 17ZM0 18L0 19L1 19L1 18ZM2 18L2 19L4 19L4 20L5 20L5 19L4 19L4 18ZM0 20L0 21L1 21L1 20ZM8 20L8 21L9 21L9 20ZM13 20L13 21L14 21L14 22L15 22L15 21L14 21L14 20ZM21 21L21 24L24 24L24 21ZM26 21L26 22L27 22L27 21ZM22 22L22 23L23 23L23 22ZM26 24L26 25L24 25L24 26L23 26L23 27L24 27L24 26L26 26L26 28L27 28L27 27L28 27L28 26L26 26L26 25L28 25L28 24ZM0 0L0 7L7 7L7 0ZM1 1L1 6L6 6L6 1ZM2 2L2 5L5 5L5 2ZM22 0L22 7L29 7L29 0ZM23 1L23 6L28 6L28 1ZM24 2L24 5L27 5L27 2ZM0 22L0 29L7 29L7 22ZM1 23L1 28L6 28L6 23ZM2 24L2 27L5 27L5 24Z" fill="#000000"/></g></g></svg>
