<?xml version="1.0" encoding="UTF-8"?>
<svg xmlns="http://www.w3.org/2000/svg" version="1.1" width="300" height="300" viewBox="0 0 300 300"><rect x="0" y="0" width="300" height="300" fill="#ffffff"/><g transform="scale(12)"><g transform="translate(0,0)"><path fill-rule="evenodd" d="M8 0L8 2L9 2L9 3L10 3L10 5L9 5L9 4L8 4L8 9L7 9L7 8L5 8L5 9L3 9L3 8L0 8L0 10L1 10L1 12L2 12L2 10L3 10L3 15L2 15L2 14L0 14L0 15L2 15L2 16L0 16L0 17L4 17L4 15L7 15L7 14L6 14L6 13L8 13L8 15L9 15L9 17L8 17L8 16L6 16L6 17L8 17L8 18L10 18L10 19L11 19L11 20L10 20L10 21L9 21L9 22L8 22L8 25L9 25L9 23L10 23L10 21L11 21L11 20L12 20L12 22L11 22L11 23L14 23L14 25L17 25L17 24L18 24L18 25L21 25L21 22L19 22L19 23L20 23L20 24L18 24L18 21L21 21L21 19L23 19L23 18L22 18L22 17L21 17L21 15L23 15L23 17L24 17L24 15L25 15L25 14L24 14L24 15L23 15L23 14L21 14L21 15L20 15L20 13L22 13L22 12L21 12L21 11L22 11L22 10L23 10L23 11L25 11L25 8L23 8L23 9L22 9L22 10L21 10L21 11L20 11L20 9L21 9L21 8L15 8L15 5L16 5L16 7L17 7L17 5L16 5L16 2L17 2L17 1L16 1L16 0L15 0L15 1L16 1L16 2L14 2L14 0L13 0L13 1L12 1L12 0L11 0L11 1L12 1L12 2L10 2L10 0ZM11 3L11 4L12 4L12 5L11 5L11 7L10 7L10 6L9 6L9 8L10 8L10 10L12 10L12 8L14 8L14 9L13 9L13 10L14 10L14 11L13 11L13 12L14 12L14 13L13 13L13 14L12 14L12 11L11 11L11 13L9 13L9 14L10 14L10 17L11 17L11 18L12 18L12 20L14 20L14 22L16 22L16 23L17 23L17 22L16 22L16 21L15 21L15 20L16 20L16 17L15 17L15 16L17 16L17 15L18 15L18 16L20 16L20 15L19 15L19 14L18 14L18 12L19 12L19 11L18 11L18 12L17 12L17 10L18 10L18 9L17 9L17 10L16 10L16 9L15 9L15 8L14 8L14 5L15 5L15 4L14 4L14 3ZM13 4L13 5L12 5L12 7L11 7L11 8L12 8L12 7L13 7L13 5L14 5L14 4ZM5 9L5 10L4 10L4 11L5 11L5 12L10 12L10 11L8 11L8 10L9 10L9 9L8 9L8 10L7 10L7 9ZM6 10L6 11L7 11L7 10ZM15 10L15 13L16 13L16 14L15 14L15 15L17 15L17 13L16 13L16 10ZM24 12L24 13L25 13L25 12ZM11 14L11 15L12 15L12 16L11 16L11 17L12 17L12 18L13 18L13 19L15 19L15 18L14 18L14 16L13 16L13 15L14 15L14 14L13 14L13 15L12 15L12 14ZM12 16L12 17L13 17L13 16ZM17 17L17 20L20 20L20 17ZM18 18L18 19L19 19L19 18ZM24 18L24 19L25 19L25 18ZM8 19L8 20L9 20L9 19ZM23 20L23 21L24 21L24 22L23 22L23 23L25 23L25 20ZM11 24L11 25L13 25L13 24ZM24 24L24 25L25 25L25 24ZM0 0L0 7L7 7L7 0ZM1 1L1 6L6 6L6 1ZM2 2L2 5L5 5L5 2ZM18 0L18 7L25 7L25 0ZM19 1L19 6L24 6L24 1ZM20 2L20 5L23 5L23 2ZM0 18L0 25L7 25L7 18ZM1 19L1 24L6 24L6 19ZM2 20L2 23L5 23L5 20Z" fill="#000000"/></g></g></svg>
