<?xml version="1.0" encoding="UTF-8"?>
<svg xmlns="http://www.w3.org/2000/svg" version="1.1" width="300" height="300" viewBox="0 0 300 300"><rect x="0" y="0" width="300" height="300" fill="#ffffff"/><g transform="scale(10.345)"><g transform="translate(0,0)"><path fill-rule="evenodd" d="M10 0L10 1L9 1L9 2L8 2L8 3L9 3L9 5L10 5L10 7L11 7L11 8L12 8L12 9L11 9L11 10L10 10L10 9L9 9L9 6L8 6L8 8L4 8L4 9L3 9L3 8L0 8L0 10L1 10L1 9L2 9L2 11L0 11L0 12L2 12L2 14L0 14L0 16L1 16L1 18L0 18L0 19L1 19L1 20L0 20L0 21L1 21L1 20L2 20L2 19L1 19L1 18L4 18L4 16L6 16L6 17L5 17L5 19L3 19L3 20L4 20L4 21L5 21L5 20L6 20L6 21L7 21L7 20L6 20L6 19L8 19L8 18L6 18L6 17L8 17L8 16L6 16L6 15L8 15L8 14L9 14L9 18L10 18L10 19L9 19L9 20L8 20L8 25L10 25L10 26L11 26L11 27L12 27L12 28L11 28L11 29L12 29L12 28L14 28L14 29L15 29L15 28L16 28L16 29L22 29L22 27L23 27L23 28L26 28L26 29L29 29L29 28L28 28L28 27L29 27L29 22L28 22L28 21L27 21L27 23L28 23L28 24L27 24L27 26L24 26L24 25L26 25L26 22L25 22L25 21L26 21L26 19L24 19L24 20L22 20L22 19L23 19L23 16L24 16L24 15L25 15L25 18L26 18L26 15L27 15L27 19L29 19L29 18L28 18L28 17L29 17L29 16L28 16L28 15L29 15L29 13L28 13L28 15L27 15L27 14L26 14L26 15L25 15L25 14L23 14L23 12L22 12L22 14L23 14L23 15L21 15L21 11L24 11L24 12L25 12L25 13L26 13L26 11L27 11L27 12L29 12L29 9L27 9L27 8L26 8L26 9L25 9L25 10L23 10L23 8L21 8L21 9L19 9L19 10L20 10L20 11L17 11L17 10L18 10L18 9L17 9L17 8L18 8L18 7L19 7L19 6L20 6L20 7L21 7L21 6L20 6L20 5L19 5L19 4L20 4L20 3L21 3L21 1L19 1L19 2L20 2L20 3L16 3L16 2L17 2L17 1L15 1L15 0L14 0L14 1L13 1L13 2L14 2L14 1L15 1L15 3L12 3L12 2L11 2L11 3L12 3L12 5L10 5L10 3L9 3L9 2L10 2L10 1L11 1L11 0ZM13 4L13 5L14 5L14 4ZM15 4L15 5L17 5L17 4ZM18 5L18 6L17 6L17 7L16 7L16 6L15 6L15 7L14 7L14 6L13 6L13 7L12 7L12 6L11 6L11 7L12 7L12 8L13 8L13 9L14 9L14 10L13 10L13 11L16 11L16 12L17 12L17 14L19 14L19 16L15 16L15 15L16 15L16 14L15 14L15 13L14 13L14 12L12 12L12 11L11 11L11 12L12 12L12 14L11 14L11 15L12 15L12 16L11 16L11 17L12 17L12 16L13 16L13 17L14 17L14 18L13 18L13 19L14 19L14 18L15 18L15 20L16 20L16 19L18 19L18 20L17 20L17 21L18 21L18 22L14 22L14 20L12 20L12 19L11 19L11 20L12 20L12 22L11 22L11 21L9 21L9 22L11 22L11 23L9 23L9 24L11 24L11 25L12 25L12 24L13 24L13 25L14 25L14 26L13 26L13 27L14 27L14 26L15 26L15 27L16 27L16 28L17 28L17 27L16 27L16 26L15 26L15 24L17 24L17 25L20 25L20 26L19 26L19 27L18 27L18 28L19 28L19 27L20 27L20 28L21 28L21 27L22 27L22 26L23 26L23 25L20 25L20 22L19 22L19 21L20 21L20 20L21 20L21 19L22 19L22 18L19 18L19 16L20 16L20 14L19 14L19 13L20 13L20 12L17 12L17 11L16 11L16 10L15 10L15 9L16 9L16 8L17 8L17 7L18 7L18 6L19 6L19 5ZM13 7L13 8L14 8L14 7ZM15 7L15 8L16 8L16 7ZM4 9L4 11L3 11L3 14L2 14L2 15L1 15L1 16L2 16L2 17L3 17L3 16L4 16L4 15L6 15L6 14L7 14L7 13L8 13L8 12L9 12L9 14L10 14L10 12L9 12L9 11L10 11L10 10L9 10L9 9L6 9L6 10L7 10L7 11L6 11L6 12L4 12L4 11L5 11L5 9ZM26 9L26 10L25 10L25 11L26 11L26 10L27 10L27 11L28 11L28 10L27 10L27 9ZM8 10L8 11L7 11L7 12L6 12L6 13L5 13L5 14L6 14L6 13L7 13L7 12L8 12L8 11L9 11L9 10ZM3 14L3 15L4 15L4 14ZM13 14L13 15L14 15L14 14ZM21 16L21 17L22 17L22 16ZM15 17L15 18L17 18L17 17ZM18 18L18 19L19 19L19 20L20 20L20 19L19 19L19 18ZM21 21L21 24L24 24L24 21ZM13 22L13 23L14 23L14 22ZM18 22L18 23L17 23L17 24L19 24L19 22ZM22 22L22 23L23 23L23 22ZM11 23L11 24L12 24L12 23ZM8 26L8 29L10 29L10 28L9 28L9 26ZM27 26L27 27L26 27L26 28L27 28L27 27L28 27L28 26ZM0 0L0 7L7 7L7 0ZM1 1L1 6L6 6L6 1ZM2 2L2 5L5 5L5 2ZM22 0L22 7L29 7L29 0ZM23 1L23 6L28 6L28 1ZM24 2L24 5L27 5L27 2ZM0 22L0 29L7 29L7 22ZM1 23L1 28L6 28L6 23ZM2 24L2 27L5 27L5 24Z" fill="#000000"/></g></g></svg>
