<?xml version="1.0" encoding="UTF-8"?>
<svg xmlns="http://www.w3.org/2000/svg" version="1.1" width="300" height="300" viewBox="0 0 300 300"><rect x="0" y="0" width="300" height="300" fill="#ffffff"/><g transform="scale(12)"><g transform="translate(0,0)"><path fill-rule="evenodd" d="M10 0L10 1L9 1L9 2L11 2L11 1L14 1L14 3L15 3L15 5L16 5L16 7L15 7L15 6L14 6L14 5L13 5L13 6L12 6L12 7L13 7L13 6L14 6L14 7L15 7L15 8L14 8L14 9L13 9L13 8L11 8L11 6L10 6L10 8L9 8L9 10L10 10L10 11L9 11L9 14L10 14L10 15L11 15L11 14L10 14L10 11L11 11L11 13L12 13L12 12L13 12L13 13L14 13L14 14L13 14L13 15L12 15L12 17L13 17L13 18L11 18L11 19L10 19L10 23L11 23L11 25L12 25L12 24L13 24L13 25L14 25L14 24L13 24L13 23L11 23L11 21L14 21L14 22L20 22L20 21L21 21L21 22L24 22L24 25L25 25L25 21L24 21L24 20L25 20L25 17L24 17L24 19L23 19L23 18L22 18L22 17L23 17L23 16L25 16L25 10L24 10L24 9L23 9L23 10L21 10L21 9L22 9L22 8L20 8L20 9L18 9L18 10L17 10L17 11L18 11L18 10L20 10L20 12L18 12L18 13L22 13L22 12L21 12L21 11L23 11L23 10L24 10L24 14L23 14L23 15L22 15L22 14L20 14L20 16L19 16L19 14L18 14L18 15L16 15L16 13L17 13L17 12L15 12L15 13L14 13L14 12L13 12L13 10L15 10L15 11L16 11L16 10L15 10L15 9L17 9L17 8L16 8L16 7L17 7L17 3L16 3L16 2L15 2L15 1L16 1L16 0L15 0L15 1L14 1L14 0ZM12 2L12 4L13 4L13 2ZM8 3L8 5L10 5L10 4L9 4L9 3ZM8 6L8 7L9 7L9 6ZM0 8L0 17L1 17L1 14L2 14L2 15L3 15L3 16L2 16L2 17L5 17L5 15L8 15L8 16L9 16L9 17L8 17L8 20L9 20L9 18L10 18L10 17L11 17L11 16L9 16L9 15L8 15L8 11L7 11L7 10L5 10L5 9L8 9L8 8L5 8L5 9L2 9L2 8ZM10 8L10 10L11 10L11 11L12 11L12 10L13 10L13 9L11 9L11 8ZM1 9L1 10L2 10L2 9ZM4 10L4 11L3 11L3 12L1 12L1 13L3 13L3 14L7 14L7 13L6 13L6 12L7 12L7 11L5 11L5 10ZM4 11L4 12L5 12L5 11ZM14 14L14 15L13 15L13 17L14 17L14 18L15 18L15 19L13 19L13 20L14 20L14 21L15 21L15 20L16 20L16 18L15 18L15 17L16 17L16 16L15 16L15 14ZM21 15L21 17L22 17L22 15ZM6 16L6 17L7 17L7 16ZM14 16L14 17L15 17L15 16ZM17 17L17 20L20 20L20 17ZM18 18L18 19L19 19L19 18ZM11 19L11 20L12 20L12 19ZM21 19L21 21L22 21L22 20L23 20L23 19ZM8 23L8 25L9 25L9 23ZM16 23L16 25L17 25L17 24L18 24L18 25L19 25L19 24L20 24L20 25L21 25L21 23L19 23L19 24L18 24L18 23ZM0 0L0 7L7 7L7 0ZM1 1L1 6L6 6L6 1ZM2 2L2 5L5 5L5 2ZM18 0L18 7L25 7L25 0ZM19 1L19 6L24 6L24 1ZM20 2L20 5L23 5L23 2ZM0 18L0 25L7 25L7 18ZM1 19L1 24L6 24L6 19ZM2 20L2 23L5 23L5 20Z" fill="#000000"/></g></g></svg>
