<?xml version="1.0" encoding="UTF-8"?>
<svg xmlns="http://www.w3.org/2000/svg" version="1.1" width="300" height="300" viewBox="0 0 300 300"><rect x="0" y="0" width="300" height="300" fill="#ffffff"/><g transform="scale(9.091)"><g transform="translate(0,0)"><path fill-rule="evenodd" d="M10 0L10 1L8 1L8 3L9 3L9 4L8 4L8 8L6 8L6 9L4 9L4 8L3 8L3 9L2 9L2 8L0 8L0 9L2 9L2 10L1 10L1 11L2 11L2 12L3 12L3 13L2 13L2 14L1 14L1 12L0 12L0 14L1 14L1 15L2 15L2 16L0 16L0 17L2 17L2 18L3 18L3 17L4 17L4 19L5 19L5 21L8 21L8 22L4 22L4 21L3 21L3 20L2 20L2 21L3 21L3 23L4 23L4 24L5 24L5 25L8 25L8 27L9 27L9 29L8 29L8 30L10 30L10 31L8 31L8 33L9 33L9 32L10 32L10 33L13 33L13 32L14 32L14 33L17 33L17 32L18 32L18 33L19 33L19 31L17 31L17 32L14 32L14 30L15 30L15 28L16 28L16 30L18 30L18 28L19 28L19 29L22 29L22 27L23 27L23 26L24 26L24 30L23 30L23 31L22 31L22 30L20 30L20 33L22 33L22 32L23 32L23 33L27 33L27 32L25 32L25 31L26 31L26 30L27 30L27 31L33 31L33 27L32 27L32 26L33 26L33 25L32 25L32 26L29 26L29 25L30 25L30 22L31 22L31 21L32 21L32 23L31 23L31 24L33 24L33 21L32 21L32 20L31 20L31 21L30 21L30 18L31 18L31 19L33 19L33 18L31 18L31 17L29 17L29 16L30 16L30 14L31 14L31 16L32 16L32 17L33 17L33 16L32 16L32 14L33 14L33 9L32 9L32 8L30 8L30 9L29 9L29 8L26 8L26 11L27 11L27 9L29 9L29 11L30 11L30 9L32 9L32 11L31 11L31 12L32 12L32 13L30 13L30 12L29 12L29 13L28 13L28 12L25 12L25 11L21 11L21 12L20 12L20 10L21 10L21 9L22 9L22 7L23 7L23 9L24 9L24 10L25 10L25 8L24 8L24 7L25 7L25 5L24 5L24 4L23 4L23 3L25 3L25 1L24 1L24 0L21 0L21 1L20 1L20 0L17 0L17 1L18 1L18 2L17 2L17 3L18 3L18 4L21 4L21 2L22 2L22 1L23 1L23 3L22 3L22 4L23 4L23 5L24 5L24 7L23 7L23 6L22 6L22 5L19 5L19 6L18 6L18 5L17 5L17 4L16 4L16 3L14 3L14 4L13 4L13 3L12 3L12 7L11 7L11 4L10 4L10 3L9 3L9 2L11 2L11 0ZM15 0L15 1L14 1L14 2L16 2L16 0ZM19 1L19 2L18 2L18 3L19 3L19 2L20 2L20 1ZM9 5L9 8L8 8L8 9L6 9L6 10L8 10L8 12L7 12L7 11L5 11L5 12L4 12L4 10L3 10L3 12L4 12L4 13L6 13L6 14L3 14L3 15L4 15L4 16L5 16L5 19L6 19L6 20L9 20L9 21L12 21L12 22L11 22L11 25L12 25L12 24L13 24L13 23L14 23L14 24L15 24L15 27L14 27L14 25L13 25L13 27L14 27L14 28L15 28L15 27L20 27L20 26L19 26L19 25L20 25L20 23L22 23L22 22L23 22L23 23L24 23L24 24L22 24L22 25L21 25L21 27L22 27L22 26L23 26L23 25L24 25L24 24L27 24L27 23L29 23L29 22L30 22L30 21L29 21L29 19L27 19L27 20L26 20L26 18L29 18L29 17L28 17L28 16L29 16L29 15L27 15L27 17L26 17L26 15L25 15L25 14L26 14L26 13L23 13L23 12L22 12L22 13L21 13L21 14L22 14L22 16L23 16L23 14L24 14L24 15L25 15L25 18L23 18L23 17L22 17L22 18L21 18L21 17L20 17L20 16L19 16L19 17L18 17L18 20L17 20L17 18L16 18L16 16L17 16L17 15L18 15L18 14L17 14L17 15L16 15L16 13L15 13L15 11L16 11L16 8L17 8L17 10L20 10L20 6L19 6L19 7L18 7L18 6L17 6L17 5L16 5L16 6L15 6L15 7L16 7L16 8L15 8L15 9L13 9L13 10L15 10L15 11L14 11L14 14L13 14L13 12L12 12L12 16L11 16L11 15L10 15L10 16L9 16L9 17L8 17L8 15L9 15L9 14L11 14L11 13L10 13L10 12L9 12L9 11L11 11L11 8L10 8L10 5ZM13 6L13 7L12 7L12 8L14 8L14 6ZM16 6L16 7L17 7L17 8L18 8L18 7L17 7L17 6ZM21 6L21 7L22 7L22 6ZM9 9L9 10L10 10L10 9ZM17 11L17 12L18 12L18 13L20 13L20 12L18 12L18 11ZM6 12L6 13L7 13L7 14L6 14L6 15L5 15L5 16L6 16L6 17L7 17L7 18L6 18L6 19L7 19L7 18L8 18L8 17L7 17L7 16L6 16L6 15L7 15L7 14L8 14L8 13L9 13L9 12L8 12L8 13L7 13L7 12ZM22 13L22 14L23 14L23 13ZM27 13L27 14L28 14L28 13ZM14 14L14 15L13 15L13 16L12 16L12 18L11 18L11 16L10 16L10 17L9 17L9 19L10 19L10 20L11 20L11 19L12 19L12 20L13 20L13 21L14 21L14 20L16 20L16 23L18 23L18 24L17 24L17 25L18 25L18 24L19 24L19 23L20 23L20 22L22 22L22 20L23 20L23 19L21 19L21 18L20 18L20 19L21 19L21 21L20 21L20 20L19 20L19 21L20 21L20 22L18 22L18 21L17 21L17 20L16 20L16 19L15 19L15 18L14 18L14 17L13 17L13 16L14 16L14 15L15 15L15 14ZM19 14L19 15L20 15L20 14ZM2 16L2 17L3 17L3 16ZM10 18L10 19L11 19L11 18ZM13 19L13 20L14 20L14 19ZM24 19L24 22L25 22L25 23L26 23L26 22L27 22L27 21L26 21L26 20L25 20L25 19ZM0 22L0 23L1 23L1 24L0 24L0 25L1 25L1 24L2 24L2 25L3 25L3 24L2 24L2 22ZM8 22L8 24L10 24L10 22ZM6 23L6 24L7 24L7 23ZM25 25L25 28L28 28L28 25ZM9 26L9 27L11 27L11 28L10 28L10 29L11 29L11 31L10 31L10 32L11 32L11 31L12 31L12 32L13 32L13 30L14 30L14 29L13 29L13 28L12 28L12 26ZM26 26L26 27L27 27L27 26ZM29 27L29 29L30 29L30 30L31 30L31 27ZM11 28L11 29L12 29L12 28ZM25 29L25 30L24 30L24 31L25 31L25 30L26 30L26 29ZM28 32L28 33L30 33L30 32ZM31 32L31 33L32 33L32 32ZM0 0L0 7L7 7L7 0ZM1 1L1 6L6 6L6 1ZM2 2L2 5L5 5L5 2ZM26 0L26 7L33 7L33 0ZM27 1L27 6L32 6L32 1ZM28 2L28 5L31 5L31 2ZM0 26L0 33L7 33L7 26ZM1 27L1 32L6 32L6 27ZM2 28L2 31L5 31L5 28Z" fill="#000000"/></g></g></svg>
