<?xml version="1.0" encoding="UTF-8"?>
<svg xmlns="http://www.w3.org/2000/svg" version="1.1" width="300" height="300" viewBox="0 0 300 300"><rect x="0" y="0" width="300" height="300" fill="#ffffff"/><g transform="scale(12)"><g transform="translate(0,0)"><path fill-rule="evenodd" d="M9 0L9 1L8 1L8 2L9 2L9 3L8 3L8 4L10 4L10 7L11 7L11 4L12 4L12 5L13 5L13 3L12 3L12 2L14 2L14 1L11 1L11 2L10 2L10 0ZM15 0L15 3L14 3L14 4L15 4L15 6L14 6L14 9L15 9L15 10L14 10L14 11L15 11L15 12L14 12L14 13L16 13L16 10L17 10L17 11L18 11L18 10L20 10L20 12L21 12L21 14L20 14L20 15L21 15L21 16L19 16L19 14L18 14L18 15L17 15L17 16L16 16L16 19L14 19L14 18L15 18L15 15L16 15L16 14L15 14L15 15L14 15L14 18L12 18L12 20L11 20L11 19L10 19L10 20L8 20L8 25L9 25L9 23L11 23L11 24L12 24L12 25L13 25L13 23L11 23L11 22L9 22L9 21L14 21L14 20L15 20L15 21L17 21L17 22L21 22L21 23L19 23L19 24L18 24L18 23L15 23L15 24L14 24L14 25L15 25L15 24L17 24L17 25L19 25L19 24L22 24L22 25L25 25L25 21L24 21L24 20L25 20L25 17L24 17L24 18L23 18L23 19L24 19L24 20L22 20L22 18L21 18L21 16L22 16L22 17L23 17L23 16L25 16L25 10L24 10L24 8L23 8L23 9L22 9L22 8L21 8L21 10L20 10L20 8L19 8L19 9L18 9L18 8L17 8L17 9L16 9L16 7L17 7L17 4L15 4L15 3L17 3L17 0ZM10 3L10 4L11 4L11 3ZM8 5L8 7L9 7L9 5ZM12 6L12 7L13 7L13 6ZM15 6L15 7L16 7L16 6ZM0 8L0 17L1 17L1 14L2 14L2 13L1 13L1 11L3 11L3 12L4 12L4 13L7 13L7 12L4 12L4 10L5 10L5 8ZM6 8L6 9L7 9L7 10L6 10L6 11L8 11L8 13L10 13L10 14L11 14L11 13L10 13L10 12L11 12L11 11L10 11L10 9L11 9L11 8ZM12 8L12 9L13 9L13 8ZM2 9L2 10L3 10L3 9ZM17 9L17 10L18 10L18 9ZM12 10L12 11L13 11L13 10ZM23 10L23 11L22 11L22 12L24 12L24 10ZM17 12L17 13L19 13L19 12ZM22 13L22 16L23 16L23 14L24 14L24 13ZM4 14L4 15L2 15L2 17L4 17L4 15L5 15L5 14ZM6 14L6 15L7 15L7 14ZM8 15L8 16L10 16L10 17L8 17L8 19L9 19L9 18L11 18L11 17L13 17L13 16L12 16L12 15L11 15L11 16L10 16L10 15ZM5 16L5 17L7 17L7 16ZM17 17L17 20L20 20L20 17ZM18 18L18 19L19 19L19 18ZM13 19L13 20L14 20L14 19ZM21 20L21 21L22 21L22 24L24 24L24 22L23 22L23 21L22 21L22 20ZM0 0L0 7L7 7L7 0ZM1 1L1 6L6 6L6 1ZM2 2L2 5L5 5L5 2ZM18 0L18 7L25 7L25 0ZM19 1L19 6L24 6L24 1ZM20 2L20 5L23 5L23 2ZM0 18L0 25L7 25L7 18ZM1 19L1 24L6 24L6 19ZM2 20L2 23L5 23L5 20Z" fill="#000000"/></g></g></svg>
