<?xml version="1.0" encoding="UTF-8"?>
<svg xmlns="http://www.w3.org/2000/svg" version="1.1" width="300" height="300" viewBox="0 0 300 300"><rect x="0" y="0" width="300" height="300" fill="#ffffff"/><g transform="scale(12)"><g transform="translate(0,0)"><path fill-rule="evenodd" d="M9 0L9 1L8 1L8 3L9 3L9 4L8 4L8 8L6 8L6 9L4 9L4 8L3 8L3 9L2 9L2 8L0 8L0 9L2 9L2 10L0 10L0 11L1 11L1 12L0 12L0 13L1 13L1 12L2 12L2 10L3 10L3 9L4 9L4 12L3 12L3 14L2 14L2 15L1 15L1 14L0 14L0 15L1 15L1 16L0 16L0 17L2 17L2 16L3 16L3 17L4 17L4 15L3 15L3 14L5 14L5 15L7 15L7 14L8 14L8 15L10 15L10 16L11 16L11 17L12 17L12 16L13 16L13 17L14 17L14 18L13 18L13 20L12 20L12 19L11 19L11 18L9 18L9 16L8 16L8 19L11 19L11 20L10 20L10 21L11 21L11 22L10 22L10 23L8 23L8 25L9 25L9 24L10 24L10 25L12 25L12 24L14 24L14 25L19 25L19 24L21 24L21 25L22 25L22 23L23 23L23 22L22 22L22 20L23 20L23 19L25 19L25 18L22 18L22 19L21 19L21 17L23 17L23 16L22 16L22 15L23 15L23 14L24 14L24 15L25 15L25 14L24 14L24 13L25 13L25 12L23 12L23 13L21 13L21 12L22 12L22 11L23 11L23 9L24 9L24 11L25 11L25 9L24 9L24 8L22 8L22 9L21 9L21 8L18 8L18 9L15 9L15 8L14 8L14 9L13 9L13 12L12 12L12 13L9 13L9 11L11 11L11 10L12 10L12 9L11 9L11 8L10 8L10 7L11 7L11 6L12 6L12 8L13 8L13 6L12 6L12 5L11 5L11 6L10 6L10 5L9 5L9 4L12 4L12 3L13 3L13 4L15 4L15 2L16 2L16 3L17 3L17 1L15 1L15 0L14 0L14 1L15 1L15 2L14 2L14 3L13 3L13 0L12 0L12 1L11 1L11 2L9 2L9 1L10 1L10 0ZM16 4L16 5L14 5L14 7L15 7L15 6L16 6L16 8L17 8L17 4ZM9 6L9 7L10 7L10 6ZM8 8L8 9L6 9L6 10L5 10L5 11L6 11L6 12L7 12L7 13L5 13L5 14L7 14L7 13L8 13L8 14L9 14L9 13L8 13L8 10L10 10L10 8ZM14 9L14 12L13 12L13 14L14 14L14 16L19 16L19 15L22 15L22 14L21 14L21 13L20 13L20 12L21 12L21 11L22 11L22 10L21 10L21 9L18 9L18 11L17 11L17 10L15 10L15 9ZM6 10L6 11L7 11L7 10ZM19 10L19 11L18 11L18 12L16 12L16 11L15 11L15 12L16 12L16 15L19 15L19 12L20 12L20 10ZM11 14L11 16L12 16L12 14ZM6 16L6 17L7 17L7 16ZM15 17L15 18L14 18L14 20L13 20L13 21L14 21L14 22L16 22L16 23L19 23L19 22L20 22L20 21L16 21L16 20L15 20L15 18L16 18L16 17ZM17 17L17 20L20 20L20 17ZM18 18L18 19L19 19L19 18ZM14 20L14 21L15 21L15 20ZM24 20L24 21L25 21L25 20ZM8 21L8 22L9 22L9 21ZM24 22L24 23L25 23L25 22ZM14 23L14 24L15 24L15 23ZM23 24L23 25L25 25L25 24ZM0 0L0 7L7 7L7 0ZM1 1L1 6L6 6L6 1ZM2 2L2 5L5 5L5 2ZM18 0L18 7L25 7L25 0ZM19 1L19 6L24 6L24 1ZM20 2L20 5L23 5L23 2ZM0 18L0 25L7 25L7 18ZM1 19L1 24L6 24L6 19ZM2 20L2 23L5 23L5 20Z" fill="#000000"/></g></g></svg>
