<?xml version="1.0" encoding="UTF-8"?>
<svg xmlns="http://www.w3.org/2000/svg" version="1.1" width="300" height="300" viewBox="0 0 300 300"><rect x="0" y="0" width="300" height="300" fill="#ffffff"/><g transform="scale(12)"><g transform="translate(0,0)"><path fill-rule="evenodd" d="M9 0L9 1L8 1L8 2L9 2L9 3L8 3L8 4L9 4L9 5L8 5L8 7L9 7L9 8L6 8L6 9L7 9L7 10L5 10L5 14L6 14L6 15L4 15L4 14L2 14L2 13L0 13L0 17L1 17L1 14L2 14L2 15L4 15L4 17L8 17L8 19L9 19L9 20L8 20L8 25L10 25L10 23L9 23L9 21L10 21L10 22L11 22L11 21L14 21L14 20L15 20L15 21L17 21L17 22L21 22L21 20L22 20L22 21L23 21L23 22L24 22L24 24L22 24L22 23L19 23L19 24L18 24L18 23L15 23L15 24L14 24L14 25L15 25L15 24L17 24L17 25L19 25L19 24L22 24L22 25L25 25L25 21L24 21L24 19L25 19L25 17L24 17L24 18L23 18L23 20L22 20L22 18L21 18L21 16L22 16L22 17L23 17L23 16L25 16L25 10L24 10L24 8L23 8L23 9L22 9L22 8L21 8L21 10L20 10L20 8L19 8L19 9L18 9L18 8L17 8L17 6L16 6L16 5L17 5L17 4L16 4L16 2L17 2L17 0L15 0L15 1L14 1L14 0L13 0L13 2L10 2L10 0ZM13 2L13 4L11 4L11 5L9 5L9 7L10 7L10 9L8 9L8 10L7 10L7 11L6 11L6 12L7 12L7 11L8 11L8 10L9 10L9 12L11 12L11 13L8 13L8 14L11 14L11 15L9 15L9 16L8 16L8 15L6 15L6 16L8 16L8 17L9 17L9 18L11 18L11 20L10 20L10 21L11 21L11 20L12 20L12 18L13 18L13 20L14 20L14 19L16 19L16 16L17 16L17 15L18 15L18 14L19 14L19 16L21 16L21 12L20 12L20 10L18 10L18 9L17 9L17 8L16 8L16 6L15 6L15 7L14 7L14 5L15 5L15 4L14 4L14 3L15 3L15 2ZM10 6L10 7L11 7L11 6ZM12 6L12 7L13 7L13 6ZM0 8L0 11L1 11L1 12L2 12L2 9L3 9L3 10L4 10L4 9L5 9L5 8ZM12 8L12 9L13 9L13 10L12 10L12 11L13 11L13 10L14 10L14 9L15 9L15 11L14 11L14 13L13 13L13 15L16 15L16 14L14 14L14 13L16 13L16 10L17 10L17 11L18 11L18 10L17 10L17 9L15 9L15 8L14 8L14 9L13 9L13 8ZM10 10L10 11L11 11L11 10ZM23 10L23 11L22 11L22 12L24 12L24 10ZM3 11L3 12L4 12L4 11ZM17 12L17 13L19 13L19 12ZM6 13L6 14L7 14L7 13ZM22 13L22 16L23 16L23 14L24 14L24 13ZM11 15L11 16L9 16L9 17L13 17L13 18L14 18L14 17L15 17L15 16L14 16L14 17L13 17L13 16L12 16L12 15ZM2 16L2 17L3 17L3 16ZM17 17L17 20L20 20L20 17ZM18 18L18 19L19 19L19 18ZM11 23L11 24L12 24L12 25L13 25L13 24L12 24L12 23ZM0 0L0 7L7 7L7 0ZM1 1L1 6L6 6L6 1ZM2 2L2 5L5 5L5 2ZM18 0L18 7L25 7L25 0ZM19 1L19 6L24 6L24 1ZM20 2L20 5L23 5L23 2ZM0 18L0 25L7 25L7 18ZM1 19L1 24L6 24L6 19ZM2 20L2 23L5 23L5 20Z" fill="#000000"/></g></g></svg>
