<?xml version="1.0" encoding="UTF-8"?>
<svg xmlns="http://www.w3.org/2000/svg" version="1.1" width="300" height="300" viewBox="0 0 300 300"><rect x="0" y="0" width="300" height="300" fill="#ffffff"/><g transform="scale(10.345)"><g transform="translate(0,0)"><path fill-rule="evenodd" d="M8 0L8 2L9 2L9 3L10 3L10 2L9 2L9 1L11 1L11 2L12 2L12 0ZM13 0L13 1L15 1L15 2L16 2L16 0ZM17 0L17 3L15 3L15 5L13 5L13 3L14 3L14 2L13 2L13 3L11 3L11 5L9 5L9 4L8 4L8 9L7 9L7 8L5 8L5 9L7 9L7 10L4 10L4 9L3 9L3 8L0 8L0 9L2 9L2 10L0 10L0 12L1 12L1 11L2 11L2 12L3 12L3 13L2 13L2 14L5 14L5 13L4 13L4 12L6 12L6 13L8 13L8 14L6 14L6 15L7 15L7 16L6 16L6 17L4 17L4 18L3 18L3 19L2 19L2 17L1 17L1 16L2 16L2 15L1 15L1 13L0 13L0 15L1 15L1 16L0 16L0 17L1 17L1 18L0 18L0 19L2 19L2 20L0 20L0 21L7 21L7 20L8 20L8 22L10 22L10 21L11 21L11 20L13 20L13 22L15 22L15 23L16 23L16 24L15 24L15 25L16 25L16 26L13 26L13 25L14 25L14 23L13 23L13 24L11 24L11 23L12 23L12 22L11 22L11 23L10 23L10 29L11 29L11 28L13 28L13 29L15 29L15 27L16 27L16 29L18 29L18 28L17 28L17 27L19 27L19 28L20 28L20 29L24 29L24 28L25 28L25 29L27 29L27 28L25 28L25 26L26 26L26 27L29 27L29 24L28 24L28 23L29 23L29 22L28 22L28 23L27 23L27 21L28 21L28 19L29 19L29 18L28 18L28 19L27 19L27 18L26 18L26 19L27 19L27 21L26 21L26 22L25 22L25 19L24 19L24 16L23 16L23 15L22 15L22 14L24 14L24 15L29 15L29 13L28 13L28 12L29 12L29 8L27 8L27 9L28 9L28 10L24 10L24 9L25 9L25 8L21 8L21 6L20 6L20 7L19 7L19 6L18 6L18 9L19 9L19 8L20 8L20 10L17 10L17 8L15 8L15 9L16 9L16 11L15 11L15 10L13 10L13 9L14 9L14 7L15 7L15 5L16 5L16 7L17 7L17 5L20 5L20 4L19 4L19 3L20 3L20 2L18 2L18 0ZM19 0L19 1L20 1L20 0ZM17 3L17 4L18 4L18 3ZM11 5L11 7L10 7L10 6L9 6L9 7L10 7L10 9L9 9L9 10L7 10L7 11L6 11L6 12L8 12L8 13L9 13L9 12L10 12L10 11L9 11L9 10L11 10L11 11L12 11L12 9L11 9L11 8L13 8L13 7L14 7L14 6L13 6L13 7L12 7L12 5ZM21 9L21 10L20 10L20 11L17 11L17 12L18 12L18 13L16 13L16 12L15 12L15 14L13 14L13 12L14 12L14 11L13 11L13 12L11 12L11 14L9 14L9 15L8 15L8 17L6 17L6 18L4 18L4 19L5 19L5 20L7 20L7 19L8 19L8 20L9 20L9 21L10 21L10 20L11 20L11 19L12 19L12 17L10 17L10 18L8 18L8 17L9 17L9 16L13 16L13 15L14 15L14 17L13 17L13 18L16 18L16 20L15 20L15 22L16 22L16 23L17 23L17 24L16 24L16 25L17 25L17 24L18 24L18 26L20 26L20 25L19 25L19 24L18 24L18 21L19 21L19 22L20 22L20 20L23 20L23 19L21 19L21 18L22 18L22 17L21 17L21 16L22 16L22 15L21 15L21 16L20 16L20 17L19 17L19 14L20 14L20 13L19 13L19 12L20 12L20 11L22 11L22 12L23 12L23 11L24 11L24 10L23 10L23 11L22 11L22 9ZM8 11L8 12L9 12L9 11ZM25 11L25 12L24 12L24 14L25 14L25 13L26 13L26 14L27 14L27 12L28 12L28 11ZM11 14L11 15L12 15L12 14ZM15 14L15 15L18 15L18 14ZM3 15L3 16L5 16L5 15ZM16 16L16 18L17 18L17 19L18 19L18 20L16 20L16 22L17 22L17 21L18 21L18 20L19 20L19 19L20 19L20 18L21 18L21 17L20 17L20 18L19 18L19 19L18 19L18 18L17 18L17 17L18 17L18 16ZM28 16L28 17L29 17L29 16ZM6 18L6 19L7 19L7 18ZM13 19L13 20L14 20L14 19ZM21 21L21 24L24 24L24 21ZM22 22L22 23L23 23L23 22ZM8 23L8 24L9 24L9 23ZM25 23L25 25L22 25L22 26L21 26L21 27L20 27L20 28L21 28L21 27L22 27L22 28L24 28L24 26L25 26L25 25L26 25L26 26L28 26L28 25L27 25L27 23ZM11 25L11 27L12 27L12 25ZM8 26L8 29L9 29L9 26ZM16 26L16 27L17 27L17 26ZM22 26L22 27L23 27L23 26ZM13 27L13 28L14 28L14 27ZM28 28L28 29L29 29L29 28ZM0 0L0 7L7 7L7 0ZM1 1L1 6L6 6L6 1ZM2 2L2 5L5 5L5 2ZM22 0L22 7L29 7L29 0ZM23 1L23 6L28 6L28 1ZM24 2L24 5L27 5L27 2ZM0 22L0 29L7 29L7 22ZM1 23L1 28L6 28L6 23ZM2 24L2 27L5 27L5 24Z" fill="#000000"/></g></g></svg>
