<?xml version="1.0" encoding="UTF-8"?>
<svg xmlns="http://www.w3.org/2000/svg" version="1.1" width="300" height="300" viewBox="0 0 300 300"><rect x="0" y="0" width="300" height="300" fill="#ffffff"/><g transform="scale(12)"><g transform="translate(0,0)"><path fill-rule="evenodd" d="M8 0L8 2L9 2L9 3L10 3L10 4L8 4L8 9L9 9L9 11L7 11L7 10L5 10L5 9L7 9L7 8L5 8L5 9L3 9L3 8L0 8L0 10L1 10L1 11L0 11L0 12L1 12L1 13L2 13L2 14L0 14L0 15L2 15L2 16L0 16L0 17L8 17L8 18L10 18L10 22L8 22L8 25L9 25L9 23L10 23L10 24L11 24L11 25L14 25L14 24L12 24L12 22L13 22L13 23L15 23L15 22L16 22L16 25L17 25L17 24L18 24L18 25L19 25L19 24L20 24L20 25L21 25L21 24L20 24L20 23L21 23L21 19L23 19L23 18L22 18L22 17L21 17L21 15L23 15L23 17L24 17L24 15L25 15L25 14L24 14L24 15L23 15L23 14L19 14L19 13L22 13L22 12L21 12L21 11L22 11L22 10L23 10L23 11L25 11L25 8L23 8L23 9L22 9L22 10L21 10L21 11L20 11L20 9L21 9L21 8L16 8L16 7L17 7L17 5L16 5L16 4L17 4L17 2L16 2L16 4L15 4L15 3L14 3L14 2L11 2L11 3L10 3L10 2L9 2L9 1L12 1L12 0ZM14 0L14 1L16 1L16 0ZM12 3L12 5L11 5L11 4L10 4L10 6L9 6L9 8L10 8L10 10L12 10L12 11L11 11L11 12L12 12L12 13L9 13L9 15L10 15L10 16L8 16L8 13L6 13L6 12L7 12L7 11L6 11L6 12L5 12L5 11L4 11L4 10L3 10L3 9L1 9L1 10L2 10L2 11L1 11L1 12L2 12L2 11L4 11L4 12L5 12L5 13L3 13L3 15L4 15L4 14L5 14L5 15L6 15L6 16L8 16L8 17L10 17L10 16L14 16L14 17L13 17L13 18L15 18L15 20L16 20L16 18L15 18L15 17L16 17L16 16L17 16L17 15L16 15L16 16L15 16L15 12L17 12L17 13L16 13L16 14L18 14L18 11L19 11L19 12L20 12L20 11L19 11L19 9L17 9L17 11L13 11L13 10L12 10L12 9L11 9L11 8L12 8L12 6L13 6L13 8L14 8L14 10L16 10L16 8L14 8L14 6L15 6L15 7L16 7L16 5L15 5L15 4L14 4L14 3ZM13 4L13 6L14 6L14 4ZM10 6L10 7L11 7L11 6ZM9 11L9 12L10 12L10 11ZM12 11L12 12L13 12L13 13L12 13L12 14L10 14L10 15L12 15L12 14L14 14L14 12L13 12L13 11ZM24 12L24 13L25 13L25 12ZM5 13L5 14L6 14L6 15L7 15L7 14L6 14L6 13ZM18 15L18 16L20 16L20 15ZM11 17L11 18L12 18L12 17ZM17 17L17 20L20 20L20 17ZM18 18L18 19L19 19L19 18ZM24 18L24 19L25 19L25 18ZM8 19L8 20L9 20L9 19ZM11 19L11 22L10 22L10 23L11 23L11 22L12 22L12 20L13 20L13 22L15 22L15 21L14 21L14 19ZM23 20L23 21L22 21L22 23L25 23L25 20ZM16 21L16 22L17 22L17 21ZM18 21L18 23L19 23L19 21ZM23 21L23 22L24 22L24 21ZM24 24L24 25L25 25L25 24ZM0 0L0 7L7 7L7 0ZM1 1L1 6L6 6L6 1ZM2 2L2 5L5 5L5 2ZM18 0L18 7L25 7L25 0ZM19 1L19 6L24 6L24 1ZM20 2L20 5L23 5L23 2ZM0 18L0 25L7 25L7 18ZM1 19L1 24L6 24L6 19ZM2 20L2 23L5 23L5 20Z" fill="#000000"/></g></g></svg>
