<?xml version="1.0" encoding="UTF-8"?>
<svg xmlns="http://www.w3.org/2000/svg" version="1.1" width="300" height="300" viewBox="0 0 300 300"><rect x="0" y="0" width="300" height="300" fill="#ffffff"/><g transform="scale(12)"><g transform="translate(0,0)"><path fill-rule="evenodd" d="M10 0L10 1L8 1L8 3L9 3L9 4L8 4L8 8L6 8L6 9L8 9L8 11L9 11L9 12L5 12L5 10L4 10L4 8L3 8L3 10L2 10L2 8L0 8L0 9L1 9L1 10L2 10L2 11L0 11L0 13L1 13L1 14L0 14L0 15L1 15L1 16L0 16L0 17L2 17L2 16L4 16L4 17L8 17L8 19L9 19L9 20L10 20L10 21L11 21L11 22L12 22L12 21L11 21L11 20L10 20L10 19L12 19L12 20L13 20L13 19L15 19L15 20L16 20L16 21L15 21L15 22L16 22L16 25L22 25L22 23L21 23L21 22L20 22L20 21L22 21L22 20L24 20L24 21L25 21L25 18L22 18L22 19L21 19L21 17L23 17L23 16L22 16L22 15L23 15L23 14L24 14L24 15L25 15L25 14L24 14L24 13L25 13L25 12L23 12L23 13L21 13L21 12L22 12L22 11L23 11L23 9L24 9L24 11L25 11L25 9L24 9L24 8L22 8L22 9L21 9L21 8L18 8L18 9L15 9L15 6L16 6L16 8L17 8L17 6L16 6L16 5L17 5L17 4L16 4L16 5L15 5L15 3L12 3L12 7L11 7L11 4L10 4L10 3L9 3L9 2L11 2L11 0ZM14 1L14 2L16 2L16 3L17 3L17 2L16 2L16 1ZM9 5L9 8L8 8L8 9L10 9L10 10L9 10L9 11L11 11L11 8L10 8L10 5ZM13 6L13 7L12 7L12 8L13 8L13 10L14 10L14 12L15 12L15 13L13 13L13 12L12 12L12 16L10 16L10 14L11 14L11 13L10 13L10 12L9 12L9 13L6 13L6 14L5 14L5 12L4 12L4 11L2 11L2 12L4 12L4 16L10 16L10 18L9 18L9 19L10 19L10 18L12 18L12 16L13 16L13 17L14 17L14 18L15 18L15 17L16 17L16 16L19 16L19 15L20 15L20 14L21 14L21 15L22 15L22 14L21 14L21 13L20 13L20 12L21 12L21 11L22 11L22 10L21 10L21 9L19 9L19 10L20 10L20 11L18 11L18 10L15 10L15 9L14 9L14 6ZM6 10L6 11L7 11L7 10ZM15 11L15 12L16 12L16 11ZM17 11L17 14L16 14L16 13L15 13L15 14L16 14L16 15L15 15L15 16L14 16L14 15L13 15L13 16L14 16L14 17L15 17L15 16L16 16L16 15L17 15L17 14L20 14L20 13L19 13L19 12L18 12L18 11ZM2 13L2 14L1 14L1 15L2 15L2 14L3 14L3 13ZM6 14L6 15L8 15L8 14ZM17 17L17 20L20 20L20 17ZM18 18L18 19L19 19L19 18ZM8 21L8 22L9 22L9 23L8 23L8 25L9 25L9 23L10 23L10 24L11 24L11 23L10 23L10 22L9 22L9 21ZM17 21L17 23L18 23L18 24L19 24L19 21ZM24 22L24 23L25 23L25 22ZM14 23L14 24L15 24L15 23ZM12 24L12 25L13 25L13 24ZM23 24L23 25L25 25L25 24ZM0 0L0 7L7 7L7 0ZM1 1L1 6L6 6L6 1ZM2 2L2 5L5 5L5 2ZM18 0L18 7L25 7L25 0ZM19 1L19 6L24 6L24 1ZM20 2L20 5L23 5L23 2ZM0 18L0 25L7 25L7 18ZM1 19L1 24L6 24L6 19ZM2 20L2 23L5 23L5 20Z" fill="#000000"/></g></g></svg>
