<?xml version="1.0" encoding="UTF-8"?>
<svg xmlns="http://www.w3.org/2000/svg" version="1.1" width="300" height="300" viewBox="0 0 300 300"><rect x="0" y="0" width="300" height="300" fill="#ffffff"/><g transform="scale(12)"><g transform="translate(0,0)"><path fill-rule="evenodd" d="M9 0L9 1L10 1L10 2L8 2L8 3L9 3L9 4L10 4L10 5L9 5L9 6L8 6L8 8L4 8L4 9L3 9L3 8L0 8L0 12L1 12L1 10L2 10L2 9L3 9L3 10L4 10L4 11L2 11L2 12L4 12L4 14L5 14L5 12L6 12L6 13L8 13L8 15L9 15L9 11L10 11L10 10L12 10L12 8L14 8L14 7L15 7L15 9L16 9L16 10L17 10L17 11L18 11L18 10L19 10L19 12L16 12L16 11L15 11L15 10L13 10L13 12L12 12L12 11L11 11L11 12L12 12L12 13L11 13L11 14L10 14L10 15L12 15L12 16L11 16L11 17L10 17L10 18L9 18L9 17L8 17L8 21L9 21L9 22L8 22L8 25L9 25L9 24L11 24L11 25L14 25L14 24L16 24L16 25L17 25L17 24L22 24L22 25L25 25L25 24L24 24L24 23L25 23L25 22L24 22L24 23L23 23L23 22L22 22L22 23L21 23L21 22L20 22L20 21L22 21L22 19L25 19L25 18L24 18L24 17L23 17L23 18L22 18L22 19L21 19L21 17L22 17L22 15L25 15L25 14L24 14L24 13L25 13L25 12L24 12L24 11L25 11L25 9L24 9L24 11L23 11L23 14L22 14L22 13L21 13L21 14L22 14L22 15L20 15L20 16L17 16L17 15L19 15L19 12L20 12L20 11L21 11L21 12L22 12L22 11L21 11L21 10L23 10L23 8L22 8L22 9L21 9L21 10L19 10L19 8L17 8L17 9L16 9L16 7L17 7L17 5L16 5L16 4L17 4L17 3L15 3L15 2L17 2L17 1L16 1L16 0L15 0L15 2L14 2L14 3L15 3L15 4L14 4L14 5L13 5L13 6L12 6L12 8L11 8L11 6L10 6L10 5L11 5L11 4L12 4L12 3L13 3L13 0L12 0L12 1L10 1L10 0ZM11 2L11 3L12 3L12 2ZM14 5L14 6L13 6L13 7L14 7L14 6L15 6L15 7L16 7L16 6L15 6L15 5ZM9 6L9 7L10 7L10 6ZM9 8L9 9L8 9L8 10L7 10L7 9L6 9L6 10L7 10L7 11L6 11L6 12L7 12L7 11L9 11L9 10L10 10L10 8ZM14 11L14 14L13 14L13 15L14 15L14 14L15 14L15 15L17 15L17 14L16 14L16 12L15 12L15 11ZM2 13L2 15L1 15L1 14L0 14L0 15L1 15L1 16L0 16L0 17L1 17L1 16L2 16L2 17L3 17L3 16L2 16L2 15L3 15L3 13ZM6 14L6 15L7 15L7 14ZM4 15L4 16L5 16L5 15ZM6 16L6 17L7 17L7 16ZM14 16L14 17L15 17L15 16ZM12 17L12 18L10 18L10 19L9 19L9 20L10 20L10 22L11 22L11 23L12 23L12 20L11 20L11 19L13 19L13 17ZM17 17L17 20L20 20L20 17ZM14 18L14 19L15 19L15 20L14 20L14 22L13 22L13 23L14 23L14 22L15 22L15 23L16 23L16 22L17 22L17 21L16 21L16 18ZM18 18L18 19L19 19L19 18ZM15 21L15 22L16 22L16 21ZM18 21L18 23L19 23L19 21ZM22 23L22 24L23 24L23 23ZM0 0L0 7L7 7L7 0ZM1 1L1 6L6 6L6 1ZM2 2L2 5L5 5L5 2ZM18 0L18 7L25 7L25 0ZM19 1L19 6L24 6L24 1ZM20 2L20 5L23 5L23 2ZM0 18L0 25L7 25L7 18ZM1 19L1 24L6 24L6 19ZM2 20L2 23L5 23L5 20Z" fill="#000000"/></g></g></svg>
