<?xml version="1.0" encoding="UTF-8"?>
<svg xmlns="http://www.w3.org/2000/svg" version="1.1" width="300" height="300" viewBox="0 0 300 300"><rect x="0" y="0" width="300" height="300" fill="#ffffff"/><g transform="scale(12)"><g transform="translate(0,0)"><path fill-rule="evenodd" d="M8 0L8 4L10 4L10 3L11 3L11 4L12 4L12 2L11 2L11 0ZM12 0L12 1L13 1L13 2L14 2L14 1L15 1L15 0L14 0L14 1L13 1L13 0ZM16 0L16 2L15 2L15 3L14 3L14 5L11 5L11 6L10 6L10 7L9 7L9 5L8 5L8 7L9 7L9 8L10 8L10 7L11 7L11 6L12 6L12 8L11 8L11 9L9 9L9 10L8 10L8 9L7 9L7 8L4 8L4 9L7 9L7 10L3 10L3 9L2 9L2 8L0 8L0 9L2 9L2 10L0 10L0 14L2 14L2 13L1 13L1 11L2 11L2 12L3 12L3 11L4 11L4 13L3 13L3 15L2 15L2 16L0 16L0 17L3 17L3 15L7 15L7 16L6 16L6 17L7 17L7 16L8 16L8 18L9 18L9 19L8 19L8 21L10 21L10 22L9 22L9 23L8 23L8 25L9 25L9 23L10 23L10 24L11 24L11 25L12 25L12 24L13 24L13 25L16 25L16 23L18 23L18 24L17 24L17 25L19 25L19 24L20 24L20 25L25 25L25 24L24 24L24 22L25 22L25 20L23 20L23 18L22 18L22 17L23 17L23 14L21 14L21 12L22 12L22 13L24 13L24 14L25 14L25 12L24 12L24 9L25 9L25 8L21 8L21 9L20 9L20 8L19 8L19 9L18 9L18 11L17 11L17 9L16 9L16 7L17 7L17 0ZM9 2L9 3L10 3L10 2ZM15 3L15 7L16 7L16 3ZM13 6L13 8L12 8L12 9L11 9L11 10L9 10L9 11L8 11L8 10L7 10L7 11L5 11L5 13L6 13L6 14L7 14L7 15L10 15L10 16L9 16L9 17L10 17L10 18L12 18L12 17L13 17L13 18L14 18L14 17L13 17L13 16L16 16L16 15L14 15L14 14L13 14L13 13L12 13L12 12L14 12L14 13L16 13L16 14L18 14L18 15L17 15L17 16L21 16L21 14L19 14L19 13L17 13L17 12L15 12L15 11L12 11L12 12L11 12L11 13L10 13L10 11L11 11L11 10L12 10L12 9L13 9L13 10L14 10L14 9L15 9L15 10L16 10L16 9L15 9L15 8L14 8L14 6ZM13 8L13 9L14 9L14 8ZM19 9L19 12L20 12L20 9ZM21 9L21 10L22 10L22 11L23 11L23 10L22 10L22 9ZM2 10L2 11L3 11L3 10ZM6 12L6 13L7 13L7 14L10 14L10 13L7 13L7 12ZM12 15L12 16L10 16L10 17L12 17L12 16L13 16L13 15ZM17 17L17 20L20 20L20 17ZM24 17L24 18L25 18L25 17ZM15 18L15 19L14 19L14 21L16 21L16 22L13 22L13 21L12 21L12 20L13 20L13 19L12 19L12 20L11 20L11 19L9 19L9 20L10 20L10 21L11 21L11 22L10 22L10 23L11 23L11 24L12 24L12 23L13 23L13 24L14 24L14 23L16 23L16 22L17 22L17 21L16 21L16 20L15 20L15 19L16 19L16 18ZM18 18L18 19L19 19L19 18ZM19 21L19 23L23 23L23 21ZM0 0L0 7L7 7L7 0ZM1 1L1 6L6 6L6 1ZM2 2L2 5L5 5L5 2ZM18 0L18 7L25 7L25 0ZM19 1L19 6L24 6L24 1ZM20 2L20 5L23 5L23 2ZM0 18L0 25L7 25L7 18ZM1 19L1 24L6 24L6 19ZM2 20L2 23L5 23L5 20Z" fill="#000000"/></g></g></svg>
