<?xml version="1.0" encoding="UTF-8"?>
<svg xmlns="http://www.w3.org/2000/svg" version="1.1" width="300" height="300" viewBox="0 0 300 300"><rect x="0" y="0" width="300" height="300" fill="#ffffff"/><g transform="scale(12)"><g transform="translate(0,0)"><path fill-rule="evenodd" d="M8 0L8 2L9 2L9 3L10 3L10 4L8 4L8 9L7 9L7 8L5 8L5 9L4 9L4 10L2 10L2 11L1 11L1 10L0 10L0 12L2 12L2 14L0 14L0 15L2 15L2 16L0 16L0 17L2 17L2 16L3 16L3 15L4 15L4 14L5 14L5 15L9 15L9 16L8 16L8 18L9 18L9 19L8 19L8 20L10 20L10 21L11 21L11 20L12 20L12 22L8 22L8 25L13 25L13 24L10 24L10 23L15 23L15 24L14 24L14 25L17 25L17 24L18 24L18 25L19 25L19 24L20 24L20 25L21 25L21 22L19 22L19 24L18 24L18 21L21 21L21 19L23 19L23 20L25 20L25 18L24 18L24 19L23 19L23 18L22 18L22 17L21 17L21 15L23 15L23 17L24 17L24 15L25 15L25 14L24 14L24 15L23 15L23 14L21 14L21 15L20 15L20 13L22 13L22 12L21 12L21 11L22 11L22 10L23 10L23 11L25 11L25 8L23 8L23 9L22 9L22 10L21 10L21 11L20 11L20 9L21 9L21 8L16 8L16 10L14 10L14 8L15 8L15 5L16 5L16 7L17 7L17 5L16 5L16 4L17 4L17 1L16 1L16 0L14 0L14 1L16 1L16 4L15 4L15 2L13 2L13 1L12 1L12 0ZM9 1L9 2L10 2L10 1ZM11 1L11 2L12 2L12 1ZM11 3L11 4L12 4L12 5L11 5L11 7L12 7L12 8L11 8L11 9L10 9L10 10L9 10L9 9L8 9L8 11L10 11L10 13L9 13L9 15L10 15L10 17L9 17L9 18L10 18L10 17L11 17L11 18L12 18L12 20L14 20L14 22L16 22L16 23L17 23L17 22L16 22L16 21L15 21L15 20L16 20L16 17L15 17L15 16L17 16L17 15L18 15L18 16L20 16L20 15L19 15L19 14L18 14L18 12L19 12L19 11L18 11L18 12L17 12L17 11L16 11L16 13L15 13L15 12L14 12L14 10L13 10L13 12L12 12L12 11L11 11L11 10L12 10L12 8L14 8L14 5L13 5L13 4L14 4L14 3ZM9 5L9 8L10 8L10 5ZM12 5L12 7L13 7L13 5ZM0 8L0 9L3 9L3 8ZM6 9L6 10L4 10L4 11L5 11L5 12L7 12L7 13L5 13L5 14L8 14L8 12L7 12L7 11L6 11L6 10L7 10L7 9ZM17 9L17 10L18 10L18 9ZM2 11L2 12L3 12L3 14L4 14L4 12L3 12L3 11ZM11 12L11 13L12 13L12 14L10 14L10 15L12 15L12 14L13 14L13 15L14 15L14 16L11 16L11 17L12 17L12 18L13 18L13 17L14 17L14 20L15 20L15 17L14 17L14 16L15 16L15 15L17 15L17 13L16 13L16 14L15 14L15 15L14 15L14 14L13 14L13 13L14 13L14 12L13 12L13 13L12 13L12 12ZM24 12L24 13L25 13L25 12ZM5 16L5 17L7 17L7 16ZM17 17L17 20L20 20L20 17ZM18 18L18 19L19 19L19 18ZM10 19L10 20L11 20L11 19ZM22 21L22 23L25 23L25 22L24 22L24 21ZM24 24L24 25L25 25L25 24ZM0 0L0 7L7 7L7 0ZM1 1L1 6L6 6L6 1ZM2 2L2 5L5 5L5 2ZM18 0L18 7L25 7L25 0ZM19 1L19 6L24 6L24 1ZM20 2L20 5L23 5L23 2ZM0 18L0 25L7 25L7 18ZM1 19L1 24L6 24L6 19ZM2 20L2 23L5 23L5 20Z" fill="#000000"/></g></g></svg>
