<?xml version="1.0" encoding="UTF-8"?>
<svg xmlns="http://www.w3.org/2000/svg" version="1.1" width="300" height="300" viewBox="0 0 300 300"><rect x="0" y="0" width="300" height="300" fill="#ffffff"/><g transform="scale(12)"><g transform="translate(0,0)"><path fill-rule="evenodd" d="M8 0L8 1L11 1L11 3L10 3L10 2L9 2L9 3L10 3L10 5L9 5L9 6L8 6L8 8L9 8L9 9L10 9L10 10L9 10L9 11L8 11L8 10L6 10L6 9L7 9L7 8L6 8L6 9L5 9L5 8L3 8L3 9L2 9L2 8L0 8L0 10L1 10L1 9L2 9L2 10L3 10L3 9L5 9L5 10L4 10L4 11L1 11L1 13L0 13L0 17L1 17L1 15L2 15L2 16L5 16L5 17L7 17L7 16L5 16L5 14L6 14L6 15L8 15L8 18L10 18L10 19L9 19L9 20L8 20L8 22L9 22L9 20L10 20L10 23L8 23L8 25L9 25L9 24L10 24L10 25L11 25L11 24L12 24L12 25L14 25L14 24L15 24L15 22L17 22L17 23L18 23L18 22L20 22L20 24L18 24L18 25L21 25L21 22L20 22L20 21L21 21L21 19L23 19L23 18L24 18L24 20L23 20L23 21L22 21L22 24L24 24L24 25L25 25L25 21L24 21L24 20L25 20L25 17L24 17L24 16L25 16L25 10L24 10L24 9L25 9L25 8L24 8L24 9L23 9L23 10L21 10L21 9L19 9L19 8L18 8L18 10L21 10L21 11L20 11L20 12L18 12L18 11L16 11L16 10L15 10L15 9L17 9L17 6L16 6L16 7L15 7L15 5L17 5L17 1L16 1L16 0L15 0L15 1L16 1L16 2L14 2L14 0L13 0L13 1L12 1L12 0ZM12 2L12 3L13 3L13 5L12 5L12 6L11 6L11 5L10 5L10 6L9 6L9 7L10 7L10 9L11 9L11 10L10 10L10 11L9 11L9 12L8 12L8 11L6 11L6 10L5 10L5 11L6 11L6 12L4 12L4 14L3 14L3 13L1 13L1 14L2 14L2 15L4 15L4 14L5 14L5 13L6 13L6 14L7 14L7 13L6 13L6 12L8 12L8 13L9 13L9 12L11 12L11 14L8 14L8 15L10 15L10 16L9 16L9 17L10 17L10 16L11 16L11 15L12 15L12 14L14 14L14 13L15 13L15 12L16 12L16 11L15 11L15 12L14 12L14 9L12 9L12 6L13 6L13 7L14 7L14 5L15 5L15 4L16 4L16 3L13 3L13 2ZM10 6L10 7L11 7L11 6ZM11 10L11 12L12 12L12 13L14 13L14 12L12 12L12 10ZM21 11L21 12L22 12L22 13L21 13L21 14L24 14L24 12L22 12L22 11ZM17 12L17 13L16 13L16 14L17 14L17 15L18 15L18 14L19 14L19 16L20 16L20 14L19 14L19 13L18 13L18 12ZM13 15L13 16L12 16L12 19L11 19L11 22L15 22L15 21L12 21L12 19L13 19L13 18L15 18L15 20L16 20L16 18L15 18L15 17L16 17L16 16L15 16L15 15ZM21 15L21 17L22 17L22 15ZM13 16L13 17L15 17L15 16ZM17 17L17 20L20 20L20 17ZM18 18L18 19L19 19L19 18ZM10 23L10 24L11 24L11 23ZM13 23L13 24L14 24L14 23ZM16 24L16 25L17 25L17 24ZM0 0L0 7L7 7L7 0ZM1 1L1 6L6 6L6 1ZM2 2L2 5L5 5L5 2ZM18 0L18 7L25 7L25 0ZM19 1L19 6L24 6L24 1ZM20 2L20 5L23 5L23 2ZM0 18L0 25L7 25L7 18ZM1 19L1 24L6 24L6 19ZM2 20L2 23L5 23L5 20Z" fill="#000000"/></g></g></svg>
