<?xml version="1.0" encoding="UTF-8"?>
<svg xmlns="http://www.w3.org/2000/svg" version="1.1" width="300" height="300" viewBox="0 0 300 300"><rect x="0" y="0" width="300" height="300" fill="#ffffff"/><g transform="scale(12)"><g transform="translate(0,0)"><path fill-rule="evenodd" d="M8 0L8 2L9 2L9 3L10 3L10 2L9 2L9 1L12 1L12 2L11 2L11 4L10 4L10 5L9 5L9 4L8 4L8 9L7 9L7 8L5 8L5 9L7 9L7 10L4 10L4 9L3 9L3 8L0 8L0 10L1 10L1 11L0 11L0 13L1 13L1 12L2 12L2 14L0 14L0 15L2 15L2 16L0 16L0 17L2 17L2 16L3 16L3 17L4 17L4 16L5 16L5 17L8 17L8 18L9 18L9 19L8 19L8 20L9 20L9 21L12 21L12 22L11 22L11 23L10 23L10 22L8 22L8 25L9 25L9 23L10 23L10 25L13 25L13 24L11 24L11 23L13 23L13 22L14 22L14 20L15 20L15 22L16 22L16 25L17 25L17 24L18 24L18 25L21 25L21 23L22 23L22 22L21 22L21 19L23 19L23 18L22 18L22 17L21 17L21 16L20 16L20 15L23 15L23 17L24 17L24 15L25 15L25 14L24 14L24 15L23 15L23 14L20 14L20 15L19 15L19 13L22 13L22 12L21 12L21 11L22 11L22 10L23 10L23 11L25 11L25 8L23 8L23 9L22 9L22 10L21 10L21 11L20 11L20 9L21 9L21 8L17 8L17 9L16 9L16 7L17 7L17 5L16 5L16 3L17 3L17 2L14 2L14 0L13 0L13 1L12 1L12 0ZM15 0L15 1L16 1L16 0ZM12 2L12 5L11 5L11 7L10 7L10 6L9 6L9 7L10 7L10 9L9 9L9 10L12 10L12 11L11 11L11 12L14 12L14 15L11 15L11 14L12 14L12 13L11 13L11 14L10 14L10 13L9 13L9 12L10 12L10 11L9 11L9 12L8 12L8 11L6 11L6 12L5 12L5 11L4 11L4 10L3 10L3 9L1 9L1 10L2 10L2 11L4 11L4 13L6 13L6 14L9 14L9 15L5 15L5 14L2 14L2 15L5 15L5 16L9 16L9 18L10 18L10 19L11 19L11 18L12 18L12 21L13 21L13 20L14 20L14 19L13 19L13 18L15 18L15 20L16 20L16 18L15 18L15 17L16 17L16 16L17 16L17 15L16 15L16 16L14 16L14 15L15 15L15 12L17 12L17 13L16 13L16 14L18 14L18 11L19 11L19 12L20 12L20 11L19 11L19 9L17 9L17 11L15 11L15 10L16 10L16 9L15 9L15 8L14 8L14 5L13 5L13 4L14 4L14 3L13 3L13 2ZM15 5L15 7L16 7L16 5ZM12 6L12 7L11 7L11 9L12 9L12 10L13 10L13 11L14 11L14 12L15 12L15 11L14 11L14 10L13 10L13 9L14 9L14 8L13 8L13 9L12 9L12 7L13 7L13 6ZM6 12L6 13L8 13L8 12ZM24 12L24 13L25 13L25 12ZM10 15L10 17L11 17L11 15ZM18 15L18 16L19 16L19 15ZM12 16L12 18L13 18L13 17L14 17L14 16ZM17 17L17 20L20 20L20 17ZM18 18L18 19L19 19L19 18ZM24 18L24 20L25 20L25 18ZM16 21L16 22L17 22L17 21ZM18 21L18 23L19 23L19 24L20 24L20 23L19 23L19 21ZM23 21L23 23L25 23L25 22L24 22L24 21ZM14 24L14 25L15 25L15 24ZM24 24L24 25L25 25L25 24ZM0 0L0 7L7 7L7 0ZM1 1L1 6L6 6L6 1ZM2 2L2 5L5 5L5 2ZM18 0L18 7L25 7L25 0ZM19 1L19 6L24 6L24 1ZM20 2L20 5L23 5L23 2ZM0 18L0 25L7 25L7 18ZM1 19L1 24L6 24L6 19ZM2 20L2 23L5 23L5 20Z" fill="#000000"/></g></g></svg>
