<?xml version="1.0" encoding="UTF-8"?>
<svg xmlns="http://www.w3.org/2000/svg" version="1.1" width="300" height="300" viewBox="0 0 300 300"><rect x="0" y="0" width="300" height="300" fill="#ffffff"/><g transform="scale(10.345)"><g transform="translate(0,0)"><path fill-rule="evenodd" d="M9 0L9 1L10 1L10 2L8 2L8 3L9 3L9 4L10 4L10 5L9 5L9 6L8 6L8 8L4 8L4 10L3 10L3 8L0 8L0 9L1 9L1 10L0 10L0 11L1 11L1 13L2 13L2 14L0 14L0 15L2 15L2 14L3 14L3 15L4 15L4 16L3 16L3 17L2 17L2 16L1 16L1 17L2 17L2 19L1 19L1 18L0 18L0 19L1 19L1 20L0 20L0 21L1 21L1 20L2 20L2 21L3 21L3 20L4 20L4 19L3 19L3 18L5 18L5 17L7 17L7 18L6 18L6 19L7 19L7 20L5 20L5 21L8 21L8 25L9 25L9 26L8 26L8 29L10 29L10 25L9 25L9 23L12 23L12 24L11 24L11 26L12 26L12 24L14 24L14 26L13 26L13 27L14 27L14 26L16 26L16 28L15 28L15 29L17 29L17 28L19 28L19 29L21 29L21 28L22 28L22 27L23 27L23 28L26 28L26 29L29 29L29 28L28 28L28 27L29 27L29 22L28 22L28 21L27 21L27 24L28 24L28 25L26 25L26 22L25 22L25 21L26 21L26 15L27 15L27 19L29 19L29 18L28 18L28 17L29 17L29 16L28 16L28 15L29 15L29 13L28 13L28 15L27 15L27 14L26 14L26 15L25 15L25 14L23 14L23 12L22 12L22 14L23 14L23 15L21 15L21 16L20 16L20 15L19 15L19 14L21 14L21 12L20 12L20 13L19 13L19 14L18 14L18 13L17 13L17 12L18 12L18 11L19 11L19 10L21 10L21 11L24 11L24 12L25 12L25 13L26 13L26 11L27 11L27 12L29 12L29 9L27 9L27 8L26 8L26 9L25 9L25 10L23 10L23 8L20 8L20 7L21 7L21 6L20 6L20 5L19 5L19 4L20 4L20 3L21 3L21 1L19 1L19 0L16 0L16 1L14 1L14 0L12 0L12 1L10 1L10 0ZM13 1L13 2L14 2L14 1ZM17 1L17 3L16 3L16 2L15 2L15 3L16 3L16 4L15 4L15 5L14 5L14 4L13 4L13 3L12 3L12 2L11 2L11 3L12 3L12 4L11 4L11 5L10 5L10 6L9 6L9 7L10 7L10 6L11 6L11 8L12 8L12 10L10 10L10 8L9 8L9 9L8 9L8 10L10 10L10 11L9 11L9 12L8 12L8 11L6 11L6 10L7 10L7 9L5 9L5 10L4 10L4 11L2 11L2 12L3 12L3 13L4 13L4 14L5 14L5 15L6 15L6 16L7 16L7 17L11 17L11 16L12 16L12 18L11 18L11 19L12 19L12 20L11 20L11 21L12 21L12 20L13 20L13 21L14 21L14 22L13 22L13 23L14 23L14 22L15 22L15 23L16 23L16 22L15 22L15 20L16 20L16 19L18 19L18 20L17 20L17 23L18 23L18 24L17 24L17 25L18 25L18 26L17 26L17 27L18 27L18 26L19 26L19 27L20 27L20 28L21 28L21 27L20 27L20 26L23 26L23 25L20 25L20 18L19 18L19 17L18 17L18 18L14 18L14 16L12 16L12 15L10 15L10 16L9 16L9 15L8 15L8 14L9 14L9 13L10 13L10 14L11 14L11 13L12 13L12 12L13 12L13 13L14 13L14 14L13 14L13 15L14 15L14 14L15 14L15 17L17 17L17 15L18 15L18 14L17 14L17 15L16 15L16 14L15 14L15 13L16 13L16 12L15 12L15 11L17 11L17 9L19 9L19 7L20 7L20 6L19 6L19 7L18 7L18 6L17 6L17 5L18 5L18 4L17 4L17 3L18 3L18 1ZM19 2L19 3L20 3L20 2ZM13 5L13 6L12 6L12 8L14 8L14 10L13 10L13 11L14 11L14 10L16 10L16 9L17 9L17 8L18 8L18 7L17 7L17 6L16 6L16 8L15 8L15 6L14 6L14 5ZM13 6L13 7L14 7L14 6ZM26 9L26 10L25 10L25 11L26 11L26 10L27 10L27 11L28 11L28 10L27 10L27 9ZM11 11L11 12L12 12L12 11ZM4 12L4 13L5 13L5 14L6 14L6 15L7 15L7 14L8 14L8 12ZM6 13L6 14L7 14L7 13ZM24 15L24 16L23 16L23 19L22 19L22 18L21 18L21 19L22 19L22 20L24 20L24 19L25 19L25 15ZM21 16L21 17L22 17L22 16ZM9 18L9 19L8 19L8 20L9 20L9 21L10 21L10 18ZM13 18L13 19L14 19L14 18ZM18 18L18 19L19 19L19 18ZM2 19L2 20L3 20L3 19ZM21 21L21 24L24 24L24 21ZM18 22L18 23L19 23L19 22ZM22 22L22 23L23 23L23 22ZM15 24L15 25L16 25L16 24ZM24 25L24 26L25 26L25 25ZM27 26L27 27L26 27L26 28L27 28L27 27L28 27L28 26ZM11 27L11 28L12 28L12 29L13 29L13 28L12 28L12 27ZM0 0L0 7L7 7L7 0ZM1 1L1 6L6 6L6 1ZM2 2L2 5L5 5L5 2ZM22 0L22 7L29 7L29 0ZM23 1L23 6L28 6L28 1ZM24 2L24 5L27 5L27 2ZM0 22L0 29L7 29L7 22ZM1 23L1 28L6 28L6 23ZM2 24L2 27L5 27L5 24Z" fill="#000000"/></g></g></svg>
