<?xml version="1.0" encoding="UTF-8"?>
<svg xmlns="http://www.w3.org/2000/svg" version="1.1" width="300" height="300" viewBox="0 0 300 300"><rect x="0" y="0" width="300" height="300" fill="#ffffff"/><g transform="scale(12)"><g transform="translate(0,0)"><path fill-rule="evenodd" d="M8 0L8 1L9 1L9 2L8 2L8 5L9 5L9 4L11 4L11 5L10 5L10 10L8 10L8 9L9 9L9 8L8 8L8 9L7 9L7 8L6 8L6 9L5 9L5 10L4 10L4 11L3 11L3 9L4 9L4 8L0 8L0 9L2 9L2 11L3 11L3 12L4 12L4 13L2 13L2 12L1 12L1 10L0 10L0 12L1 12L1 15L0 15L0 16L1 16L1 15L2 15L2 16L3 16L3 15L4 15L4 13L5 13L5 15L7 15L7 14L6 14L6 13L8 13L8 11L9 11L9 13L11 13L11 14L10 14L10 15L8 15L8 16L4 16L4 17L8 17L8 18L9 18L9 17L8 17L8 16L10 16L10 15L11 15L11 14L12 14L12 16L11 16L11 17L12 17L12 18L13 18L13 19L14 19L14 18L13 18L13 17L12 17L12 16L13 16L13 15L14 15L14 14L15 14L15 13L16 13L16 15L15 15L15 16L16 16L16 21L15 21L15 20L13 20L13 21L14 21L14 22L16 22L16 23L12 23L12 22L9 22L9 21L8 21L8 25L13 25L13 24L14 24L14 25L16 25L16 23L17 23L17 25L19 25L19 24L20 24L20 25L21 25L21 24L20 24L20 23L21 23L21 22L22 22L22 25L25 25L25 24L23 24L23 23L24 23L24 22L25 22L25 20L23 20L23 22L22 22L22 20L21 20L21 19L22 19L22 18L23 18L23 19L25 19L25 18L23 18L23 17L25 17L25 15L24 15L24 13L25 13L25 12L23 12L23 11L24 11L24 9L25 9L25 8L24 8L24 9L23 9L23 8L20 8L20 9L19 9L19 10L20 10L20 9L21 9L21 10L22 10L22 12L21 12L21 11L20 11L20 12L21 12L21 13L19 13L19 12L18 12L18 10L17 10L17 9L18 9L18 8L16 8L16 9L15 9L15 8L13 8L13 6L14 6L14 7L15 7L15 3L16 3L16 2L15 2L15 1L17 1L17 0L15 0L15 1L14 1L14 0L12 0L12 1L9 1L9 0ZM11 2L11 3L13 3L13 5L11 5L11 8L12 8L12 9L11 9L11 10L12 10L12 12L11 12L11 13L13 13L13 14L14 14L14 13L15 13L15 11L16 11L16 10L14 10L14 9L13 9L13 8L12 8L12 6L13 6L13 5L14 5L14 3L13 3L13 2ZM16 4L16 5L17 5L17 4ZM8 6L8 7L9 7L9 6ZM16 6L16 7L17 7L17 6ZM6 9L6 10L5 10L5 11L6 11L6 12L5 12L5 13L6 13L6 12L7 12L7 11L8 11L8 10L7 10L7 9ZM6 10L6 11L7 11L7 10ZM13 11L13 13L14 13L14 11ZM21 13L21 15L22 15L22 16L23 16L23 15L22 15L22 14L23 14L23 13ZM2 14L2 15L3 15L3 14ZM16 15L16 16L17 16L17 15ZM19 15L19 16L20 16L20 15ZM17 17L17 20L20 20L20 17ZM10 18L10 19L9 19L9 20L11 20L11 21L12 21L12 20L11 20L11 18ZM18 18L18 19L19 19L19 18ZM19 21L19 23L18 23L18 24L19 24L19 23L20 23L20 22L21 22L21 21ZM10 23L10 24L12 24L12 23ZM0 0L0 7L7 7L7 0ZM1 1L1 6L6 6L6 1ZM2 2L2 5L5 5L5 2ZM18 0L18 7L25 7L25 0ZM19 1L19 6L24 6L24 1ZM20 2L20 5L23 5L23 2ZM0 18L0 25L7 25L7 18ZM1 19L1 24L6 24L6 19ZM2 20L2 23L5 23L5 20Z" fill="#000000"/></g></g></svg>
