<?xml version="1.0" encoding="UTF-8"?>
<svg xmlns="http://www.w3.org/2000/svg" version="1.1" width="300" height="300" viewBox="0 0 300 300"><rect x="0" y="0" width="300" height="300" fill="#ffffff"/><g transform="scale(12)"><g transform="translate(0,0)"><path fill-rule="evenodd" d="M8 0L8 2L9 2L9 3L10 3L10 2L9 2L9 1L11 1L11 2L12 2L12 0ZM13 0L13 3L11 3L11 5L9 5L9 4L8 4L8 9L7 9L7 8L5 8L5 10L4 10L4 9L3 9L3 8L0 8L0 11L3 11L3 10L4 10L4 12L6 12L6 13L7 13L7 14L3 14L3 13L1 13L1 12L0 12L0 13L1 13L1 14L0 14L0 15L2 15L2 16L0 16L0 17L4 17L4 16L5 16L5 17L8 17L8 18L10 18L10 19L8 19L8 20L9 20L9 21L10 21L10 22L8 22L8 25L10 25L10 24L9 24L9 23L10 23L10 22L11 22L11 24L12 24L12 25L14 25L14 24L15 24L15 22L16 22L16 25L17 25L17 24L18 24L18 25L20 25L20 23L22 23L22 21L21 21L21 19L23 19L23 18L22 18L22 17L21 17L21 16L20 16L20 15L23 15L23 17L24 17L24 15L25 15L25 14L24 14L24 15L23 15L23 14L20 14L20 15L19 15L19 13L22 13L22 12L21 12L21 11L22 11L22 10L23 10L23 11L25 11L25 8L23 8L23 9L22 9L22 10L21 10L21 11L20 11L20 9L21 9L21 8L17 8L17 6L16 6L16 7L15 7L15 4L16 4L16 5L17 5L17 4L16 4L16 3L15 3L15 2L14 2L14 1L16 1L16 0ZM14 3L14 4L13 4L13 5L14 5L14 4L15 4L15 3ZM11 5L11 7L10 7L10 6L9 6L9 7L10 7L10 9L8 9L8 10L11 10L11 11L12 11L12 9L11 9L11 8L14 8L14 11L13 11L13 12L11 12L11 14L12 14L12 15L11 15L11 16L10 16L10 13L9 13L9 12L10 12L10 11L8 11L8 12L7 12L7 11L6 11L6 12L7 12L7 13L9 13L9 14L8 14L8 15L5 15L5 16L9 16L9 17L11 17L11 19L10 19L10 21L11 21L11 22L12 22L12 24L14 24L14 23L13 23L13 22L15 22L15 20L16 20L16 18L15 18L15 17L16 17L16 16L17 16L17 15L16 15L16 16L14 16L14 15L13 15L13 14L15 14L15 12L17 12L17 13L16 13L16 14L18 14L18 11L19 11L19 12L20 12L20 11L19 11L19 9L17 9L17 11L15 11L15 10L16 10L16 8L15 8L15 7L14 7L14 6L13 6L13 7L12 7L12 5ZM6 9L6 10L7 10L7 9ZM14 11L14 12L13 12L13 13L14 13L14 12L15 12L15 11ZM24 12L24 13L25 13L25 12ZM2 14L2 15L3 15L3 16L4 16L4 15L3 15L3 14ZM18 15L18 16L19 16L19 15ZM11 16L11 17L12 17L12 19L11 19L11 20L12 20L12 21L14 21L14 20L13 20L13 19L14 19L14 16ZM17 17L17 20L20 20L20 17ZM18 18L18 19L19 19L19 18ZM24 18L24 19L25 19L25 18ZM23 20L23 23L25 23L25 22L24 22L24 20ZM16 21L16 22L17 22L17 21ZM18 21L18 23L19 23L19 21ZM24 24L24 25L25 25L25 24ZM0 0L0 7L7 7L7 0ZM1 1L1 6L6 6L6 1ZM2 2L2 5L5 5L5 2ZM18 0L18 7L25 7L25 0ZM19 1L19 6L24 6L24 1ZM20 2L20 5L23 5L23 2ZM0 18L0 25L7 25L7 18ZM1 19L1 24L6 24L6 19ZM2 20L2 23L5 23L5 20Z" fill="#000000"/></g></g></svg>
