<?xml version="1.0" encoding="UTF-8"?>
<svg xmlns="http://www.w3.org/2000/svg" version="1.1" width="300" height="300" viewBox="0 0 300 300"><rect x="0" y="0" width="300" height="300" fill="#ffffff"/><g transform="scale(10.345)"><g transform="translate(0,0)"><path fill-rule="evenodd" d="M10 0L10 1L9 1L9 2L8 2L8 3L9 3L9 5L10 5L10 7L11 7L11 8L12 8L12 9L11 9L11 10L10 10L10 9L9 9L9 6L8 6L8 8L4 8L4 9L3 9L3 8L0 8L0 13L2 13L2 14L3 14L3 15L5 15L5 14L6 14L6 15L7 15L7 14L12 14L12 12L14 12L14 14L13 14L13 15L14 15L14 14L16 14L16 15L17 15L17 16L20 16L20 17L15 17L15 18L14 18L14 17L13 17L13 16L12 16L12 15L11 15L11 16L10 16L10 17L9 17L9 18L8 18L8 17L7 17L7 16L6 16L6 17L5 17L5 16L4 16L4 17L1 17L1 18L0 18L0 19L1 19L1 20L0 20L0 21L1 21L1 20L4 20L4 21L8 21L8 25L9 25L9 26L8 26L8 29L10 29L10 28L11 28L11 29L12 29L12 28L14 28L14 29L15 29L15 26L18 26L18 27L17 27L17 28L16 28L16 29L17 29L17 28L19 28L19 29L21 29L21 28L26 28L26 29L29 29L29 28L28 28L28 27L29 27L29 22L28 22L28 21L27 21L27 22L26 22L26 23L25 23L25 21L26 21L26 19L29 19L29 18L28 18L28 17L29 17L29 16L28 16L28 15L29 15L29 13L28 13L28 15L27 15L27 14L26 14L26 15L25 15L25 14L23 14L23 12L22 12L22 14L23 14L23 15L21 15L21 11L24 11L24 12L25 12L25 13L26 13L26 11L27 11L27 12L29 12L29 9L27 9L27 8L26 8L26 9L25 9L25 10L23 10L23 8L21 8L21 5L19 5L19 4L21 4L21 2L20 2L20 1L21 1L21 0L18 0L18 1L17 1L17 2L18 2L18 3L17 3L17 4L16 4L16 5L14 5L14 3L12 3L12 2L11 2L11 3L12 3L12 5L10 5L10 3L9 3L9 2L10 2L10 1L11 1L11 0ZM14 0L14 1L13 1L13 2L14 2L14 1L15 1L15 0ZM18 1L18 2L19 2L19 3L20 3L20 2L19 2L19 1ZM15 2L15 3L16 3L16 2ZM17 4L17 7L16 7L16 6L15 6L15 7L14 7L14 5L13 5L13 7L12 7L12 6L11 6L11 7L12 7L12 8L13 8L13 9L14 9L14 10L13 10L13 11L14 11L14 10L15 10L15 11L16 11L16 13L18 13L18 14L17 14L17 15L18 15L18 14L19 14L19 15L20 15L20 14L19 14L19 13L20 13L20 12L19 12L19 11L21 11L21 10L19 10L19 9L20 9L20 8L19 8L19 7L20 7L20 6L19 6L19 5L18 5L18 4ZM18 6L18 7L17 7L17 8L16 8L16 7L15 7L15 8L16 8L16 9L15 9L15 10L17 10L17 8L18 8L18 7L19 7L19 6ZM4 9L4 11L5 11L5 12L7 12L7 11L8 11L8 10L9 10L9 11L10 11L10 10L9 10L9 9L6 9L6 10L5 10L5 9ZM26 9L26 10L25 10L25 11L26 11L26 10L27 10L27 11L28 11L28 10L27 10L27 9ZM6 10L6 11L7 11L7 10ZM18 10L18 11L17 11L17 12L18 12L18 11L19 11L19 10ZM1 11L1 12L2 12L2 13L3 13L3 14L4 14L4 12L3 12L3 11ZM11 11L11 12L12 12L12 11ZM8 12L8 13L10 13L10 12ZM6 13L6 14L7 14L7 13ZM0 14L0 16L2 16L2 15L1 15L1 14ZM8 15L8 16L9 16L9 15ZM24 15L24 16L23 16L23 19L22 19L22 18L15 18L15 19L16 19L16 20L15 20L15 21L16 21L16 20L17 20L17 21L19 21L19 22L17 22L17 23L16 23L16 22L14 22L14 20L12 20L12 19L10 19L10 20L12 20L12 22L11 22L11 21L10 21L10 23L12 23L12 24L11 24L11 25L12 25L12 24L13 24L13 25L14 25L14 26L13 26L13 27L14 27L14 26L15 26L15 23L16 23L16 24L17 24L17 25L18 25L18 26L19 26L19 27L20 27L20 28L21 28L21 27L22 27L22 26L23 26L23 25L20 25L20 21L19 21L19 19L20 19L20 20L21 20L21 19L22 19L22 20L24 20L24 19L25 19L25 15ZM26 15L26 18L27 18L27 15ZM11 16L11 17L10 17L10 18L11 18L11 17L12 17L12 16ZM21 16L21 17L22 17L22 16ZM6 17L6 18L1 18L1 19L4 19L4 20L8 20L8 21L9 21L9 20L8 20L8 19L6 19L6 18L7 18L7 17ZM13 18L13 19L14 19L14 18ZM17 19L17 20L18 20L18 19ZM21 21L21 24L24 24L24 21ZM13 22L13 23L14 23L14 22ZM22 22L22 23L23 23L23 22ZM17 23L17 24L18 24L18 23ZM26 23L26 25L24 25L24 26L25 26L25 27L26 27L26 28L27 28L27 27L28 27L28 26L27 26L27 25L28 25L28 23ZM9 24L9 25L10 25L10 24ZM10 26L10 27L11 27L11 28L12 28L12 27L11 27L11 26ZM20 26L20 27L21 27L21 26ZM26 26L26 27L27 27L27 26ZM0 0L0 7L7 7L7 0ZM1 1L1 6L6 6L6 1ZM2 2L2 5L5 5L5 2ZM22 0L22 7L29 7L29 0ZM23 1L23 6L28 6L28 1ZM24 2L24 5L27 5L27 2ZM0 22L0 29L7 29L7 22ZM1 23L1 28L6 28L6 23ZM2 24L2 27L5 27L5 24Z" fill="#000000"/></g></g></svg>
