<?xml version="1.0" encoding="UTF-8"?>
<svg xmlns="http://www.w3.org/2000/svg" version="1.1" width="300" height="300" viewBox="0 0 300 300"><rect x="0" y="0" width="300" height="300" fill="#ffffff"/><g transform="scale(12)"><g transform="translate(0,0)"><path fill-rule="evenodd" d="M9 0L9 1L11 1L11 2L9 2L9 3L8 3L8 5L9 5L9 6L8 6L8 7L9 7L9 9L10 9L10 10L9 10L9 11L8 11L8 13L7 13L7 12L6 12L6 11L7 11L7 10L8 10L8 8L5 8L5 9L2 9L2 8L0 8L0 9L1 9L1 10L2 10L2 12L3 12L3 11L4 11L4 14L3 14L3 13L0 13L0 17L1 17L1 14L2 14L2 17L4 17L4 16L5 16L5 17L7 17L7 16L5 16L5 15L9 15L9 14L12 14L12 13L13 13L13 11L12 11L12 12L11 12L11 11L10 11L10 10L12 10L12 9L11 9L11 8L13 8L13 9L14 9L14 10L15 10L15 11L16 11L16 13L14 13L14 14L15 14L15 15L14 15L14 16L13 16L13 15L10 15L10 16L11 16L11 17L9 17L9 16L8 16L8 20L9 20L9 19L10 19L10 20L11 20L11 21L9 21L9 23L8 23L8 25L10 25L10 23L11 23L11 24L12 24L12 25L13 25L13 24L12 24L12 23L11 23L11 22L12 22L12 21L17 21L17 22L15 22L15 23L14 23L14 22L13 22L13 23L14 23L14 24L15 24L15 25L17 25L17 24L18 24L18 25L20 25L20 24L19 24L19 23L17 23L17 22L19 22L19 21L20 21L20 22L21 22L21 19L23 19L23 18L22 18L22 17L23 17L23 16L25 16L25 10L24 10L24 9L23 9L23 10L21 10L21 9L22 9L22 8L20 8L20 9L19 9L19 10L18 10L18 11L17 11L17 10L16 10L16 8L15 8L15 9L14 9L14 8L13 8L13 4L14 4L14 7L15 7L15 4L16 4L16 7L17 7L17 2L16 2L16 3L15 3L15 2L14 2L14 3L12 3L12 2L13 2L13 1L15 1L15 0L13 0L13 1L12 1L12 0ZM9 3L9 5L10 5L10 3ZM14 3L14 4L15 4L15 3ZM11 4L11 7L10 7L10 6L9 6L9 7L10 7L10 8L11 8L11 7L12 7L12 4ZM5 9L5 10L4 10L4 11L5 11L5 10L7 10L7 9ZM19 10L19 11L20 11L20 10ZM23 10L23 11L21 11L21 12L22 12L22 13L20 13L20 14L19 14L19 13L18 13L18 12L17 12L17 14L16 14L16 15L15 15L15 16L16 16L16 15L17 15L17 14L18 14L18 15L19 15L19 16L21 16L21 17L22 17L22 15L23 15L23 14L24 14L24 10ZM9 11L9 12L10 12L10 11ZM6 13L6 14L7 14L7 13ZM8 13L8 14L9 14L9 13ZM4 14L4 15L3 15L3 16L4 16L4 15L5 15L5 14ZM20 14L20 15L22 15L22 14ZM12 17L12 18L13 18L13 17ZM14 17L14 18L15 18L15 20L16 20L16 17ZM17 17L17 20L20 20L20 17ZM24 17L24 20L22 20L22 22L24 22L24 25L25 25L25 21L24 21L24 20L25 20L25 17ZM10 18L10 19L11 19L11 20L14 20L14 19L11 19L11 18ZM18 18L18 19L19 19L19 18ZM0 0L0 7L7 7L7 0ZM1 1L1 6L6 6L6 1ZM2 2L2 5L5 5L5 2ZM18 0L18 7L25 7L25 0ZM19 1L19 6L24 6L24 1ZM20 2L20 5L23 5L23 2ZM0 18L0 25L7 25L7 18ZM1 19L1 24L6 24L6 19ZM2 20L2 23L5 23L5 20Z" fill="#000000"/></g></g></svg>
