<?xml version="1.0" encoding="UTF-8"?>
<svg xmlns="http://www.w3.org/2000/svg" version="1.1" width="300" height="300" viewBox="0 0 300 300"><rect x="0" y="0" width="300" height="300" fill="#ffffff"/><g transform="scale(12)"><g transform="translate(0,0)"><path fill-rule="evenodd" d="M8 0L8 2L10 2L10 4L8 4L8 9L9 9L9 10L11 10L11 11L12 11L12 14L11 14L11 16L12 16L12 18L9 18L9 17L10 17L10 16L9 16L9 17L8 17L8 18L9 18L9 19L8 19L8 20L9 20L9 22L8 22L8 25L9 25L9 23L10 23L10 19L12 19L12 18L13 18L13 19L14 19L14 21L15 21L15 22L13 22L13 20L11 20L11 21L12 21L12 22L11 22L11 24L12 24L12 25L14 25L14 24L12 24L12 22L13 22L13 23L15 23L15 22L16 22L16 25L17 25L17 24L18 24L18 25L21 25L21 24L20 24L20 23L25 23L25 22L24 22L24 21L23 21L23 22L21 22L21 19L23 19L23 20L24 20L24 19L25 19L25 18L24 18L24 19L23 19L23 18L22 18L22 17L21 17L21 16L18 16L18 15L23 15L23 17L24 17L24 15L25 15L25 14L24 14L24 15L23 15L23 14L19 14L19 13L22 13L22 12L21 12L21 11L22 11L22 10L23 10L23 11L25 11L25 8L23 8L23 9L22 9L22 10L21 10L21 11L20 11L20 9L21 9L21 8L15 8L15 5L16 5L16 7L17 7L17 5L16 5L16 4L17 4L17 1L16 1L16 0L14 0L14 1L16 1L16 4L15 4L15 2L12 2L12 3L11 3L11 1L13 1L13 0L10 0L10 1L9 1L9 0ZM12 3L12 5L9 5L9 8L10 8L10 6L11 6L11 10L12 10L12 8L14 8L14 10L16 10L16 9L15 9L15 8L14 8L14 6L13 6L13 7L12 7L12 5L13 5L13 4L14 4L14 5L15 5L15 4L14 4L14 3ZM0 8L0 9L3 9L3 10L1 10L1 11L0 11L0 12L2 12L2 11L4 11L4 14L6 14L6 15L7 15L7 14L8 14L8 12L6 12L6 13L5 13L5 10L6 10L6 11L7 11L7 10L6 10L6 9L7 9L7 8L5 8L5 10L4 10L4 9L3 9L3 8ZM17 9L17 11L15 11L15 12L14 12L14 11L13 11L13 12L14 12L14 14L12 14L12 16L14 16L14 18L15 18L15 20L16 20L16 18L15 18L15 17L16 17L16 16L17 16L17 15L16 15L16 16L15 16L15 12L17 12L17 13L16 13L16 14L18 14L18 11L19 11L19 12L20 12L20 11L19 11L19 9ZM9 11L9 13L10 13L10 11ZM24 12L24 13L25 13L25 12ZM1 13L1 14L0 14L0 15L3 15L3 13ZM6 13L6 14L7 14L7 13ZM9 14L9 15L10 15L10 14ZM4 15L4 16L0 16L0 17L5 17L5 15ZM6 16L6 17L7 17L7 16ZM17 17L17 20L20 20L20 17ZM18 18L18 19L19 19L19 18ZM16 21L16 22L17 22L17 21ZM18 21L18 23L19 23L19 21ZM24 24L24 25L25 25L25 24ZM0 0L0 7L7 7L7 0ZM1 1L1 6L6 6L6 1ZM2 2L2 5L5 5L5 2ZM18 0L18 7L25 7L25 0ZM19 1L19 6L24 6L24 1ZM20 2L20 5L23 5L23 2ZM0 18L0 25L7 25L7 18ZM1 19L1 24L6 24L6 19ZM2 20L2 23L5 23L5 20Z" fill="#000000"/></g></g></svg>
