<?xml version="1.0" encoding="UTF-8"?>
<svg xmlns="http://www.w3.org/2000/svg" version="1.1" width="300" height="300" viewBox="0 0 300 300"><rect x="0" y="0" width="300" height="300" fill="#ffffff"/><g transform="scale(12)"><g transform="translate(0,0)"><path fill-rule="evenodd" d="M8 0L8 2L9 2L9 3L14 3L14 5L16 5L16 7L15 7L15 6L14 6L14 8L13 8L13 6L12 6L12 10L9 10L9 9L10 9L10 7L11 7L11 5L12 5L12 4L10 4L10 5L9 5L9 4L8 4L8 9L7 9L7 8L5 8L5 9L7 9L7 10L6 10L6 11L5 11L5 10L4 10L4 9L3 9L3 8L0 8L0 9L3 9L3 10L4 10L4 11L3 11L3 13L2 13L2 14L0 14L0 15L2 15L2 16L0 16L0 17L3 17L3 16L5 16L5 17L8 17L8 18L10 18L10 19L8 19L8 20L9 20L9 21L10 21L10 22L8 22L8 25L9 25L9 24L10 24L10 25L13 25L13 24L10 24L10 23L15 23L15 22L16 22L16 25L17 25L17 24L18 24L18 25L19 25L19 23L21 23L21 22L22 22L22 23L25 23L25 22L24 22L24 21L23 21L23 22L22 22L22 21L21 21L21 19L23 19L23 18L22 18L22 17L21 17L21 16L18 16L18 15L19 15L19 13L22 13L22 12L21 12L21 11L22 11L22 10L23 10L23 11L25 11L25 8L23 8L23 9L22 9L22 10L21 10L21 11L20 11L20 9L21 9L21 8L17 8L17 9L16 9L16 7L17 7L17 5L16 5L16 3L17 3L17 2L15 2L15 3L14 3L14 2L13 2L13 1L16 1L16 0L13 0L13 1L12 1L12 0L11 0L11 1L12 1L12 2L10 2L10 0ZM9 6L9 7L10 7L10 6ZM14 8L14 11L13 11L13 10L12 10L12 11L11 11L11 12L12 12L12 11L13 11L13 12L14 12L14 13L13 13L13 14L14 14L14 15L11 15L11 18L12 18L12 21L11 21L11 22L12 22L12 21L13 21L13 20L14 20L14 22L15 22L15 20L16 20L16 18L15 18L15 20L14 20L14 17L16 17L16 16L17 16L17 15L16 15L16 16L14 16L14 15L15 15L15 12L17 12L17 13L16 13L16 14L18 14L18 11L19 11L19 12L20 12L20 11L19 11L19 9L17 9L17 11L15 11L15 10L16 10L16 9L15 9L15 8ZM1 10L1 11L2 11L2 10ZM7 10L7 11L6 11L6 12L5 12L5 11L4 11L4 15L5 15L5 16L9 16L9 17L10 17L10 14L9 14L9 13L8 13L8 12L10 12L10 11L9 11L9 10ZM6 12L6 13L5 13L5 14L6 14L6 15L8 15L8 13L7 13L7 12ZM24 12L24 13L25 13L25 12ZM6 13L6 14L7 14L7 13ZM11 13L11 14L12 14L12 13ZM21 14L21 15L23 15L23 17L24 17L24 15L25 15L25 14L24 14L24 15L23 15L23 14ZM12 16L12 18L13 18L13 17L14 17L14 16ZM17 17L17 20L20 20L20 17ZM18 18L18 19L19 19L19 18ZM24 18L24 20L25 20L25 18ZM10 19L10 20L11 20L11 19ZM16 21L16 22L17 22L17 21ZM18 21L18 23L19 23L19 21ZM14 24L14 25L15 25L15 24ZM20 24L20 25L21 25L21 24ZM24 24L24 25L25 25L25 24ZM0 0L0 7L7 7L7 0ZM1 1L1 6L6 6L6 1ZM2 2L2 5L5 5L5 2ZM18 0L18 7L25 7L25 0ZM19 1L19 6L24 6L24 1ZM20 2L20 5L23 5L23 2ZM0 18L0 25L7 25L7 18ZM1 19L1 24L6 24L6 19ZM2 20L2 23L5 23L5 20Z" fill="#000000"/></g></g></svg>
