<?xml version="1.0" encoding="UTF-8"?>
<svg xmlns="http://www.w3.org/2000/svg" version="1.1" width="300" height="300" viewBox="0 0 300 300"><rect x="0" y="0" width="300" height="300" fill="#ffffff"/><g transform="scale(12)"><g transform="translate(0,0)"><path fill-rule="evenodd" d="M8 0L8 2L10 2L10 4L8 4L8 9L7 9L7 8L5 8L5 10L1 10L1 12L0 12L0 13L1 13L1 14L0 14L0 15L2 15L2 16L0 16L0 17L3 17L3 15L4 15L4 16L5 16L5 15L4 15L4 14L6 14L6 15L8 15L8 16L6 16L6 17L8 17L8 18L9 18L9 19L8 19L8 20L10 20L10 22L11 22L11 23L10 23L10 24L11 24L11 25L13 25L13 24L11 24L11 23L12 23L12 22L13 22L13 23L15 23L15 25L17 25L17 24L18 24L18 25L20 25L20 23L22 23L22 22L19 22L19 24L18 24L18 21L21 21L21 19L23 19L23 20L24 20L24 19L25 19L25 18L24 18L24 19L23 19L23 18L22 18L22 17L21 17L21 15L23 15L23 17L24 17L24 15L25 15L25 14L24 14L24 15L23 15L23 14L21 14L21 15L20 15L20 13L22 13L22 12L21 12L21 11L22 11L22 10L23 10L23 11L25 11L25 8L23 8L23 9L22 9L22 10L21 10L21 11L20 11L20 9L21 9L21 8L16 8L16 9L15 9L15 10L14 10L14 9L13 9L13 8L11 8L11 6L10 6L10 8L9 8L9 5L11 5L11 1L14 1L14 2L12 2L12 4L13 4L13 5L12 5L12 7L13 7L13 6L14 6L14 8L15 8L15 6L14 6L14 4L15 4L15 3L16 3L16 4L17 4L17 3L16 3L16 2L15 2L15 0L10 0L10 1L9 1L9 0ZM14 2L14 3L15 3L15 2ZM16 5L16 7L17 7L17 5ZM0 8L0 9L3 9L3 8ZM6 9L6 10L5 10L5 11L6 11L6 12L7 12L7 13L6 13L6 14L8 14L8 15L9 15L9 17L10 17L10 18L11 18L11 13L12 13L12 12L11 12L11 10L9 10L9 11L10 11L10 13L9 13L9 14L8 14L8 11L6 11L6 10L7 10L7 9ZM17 9L17 10L18 10L18 9ZM2 11L2 12L1 12L1 13L2 13L2 15L3 15L3 14L4 14L4 13L2 13L2 12L4 12L4 11ZM13 11L13 14L16 14L16 12L17 12L17 15L12 15L12 17L13 17L13 16L14 16L14 18L12 18L12 19L10 19L10 20L11 20L11 21L12 21L12 20L13 20L13 21L14 21L14 22L16 22L16 23L17 23L17 22L16 22L16 21L15 21L15 20L16 20L16 17L15 17L15 16L17 16L17 15L18 15L18 16L20 16L20 15L19 15L19 14L18 14L18 12L19 12L19 11L18 11L18 12L17 12L17 11ZM14 12L14 13L15 13L15 12ZM24 12L24 13L25 13L25 12ZM9 14L9 15L10 15L10 14ZM17 17L17 20L20 20L20 17ZM14 18L14 20L15 20L15 18ZM18 18L18 19L19 19L19 18ZM23 21L23 23L25 23L25 22L24 22L24 21ZM8 22L8 25L9 25L9 22ZM24 24L24 25L25 25L25 24ZM0 0L0 7L7 7L7 0ZM1 1L1 6L6 6L6 1ZM2 2L2 5L5 5L5 2ZM18 0L18 7L25 7L25 0ZM19 1L19 6L24 6L24 1ZM20 2L20 5L23 5L23 2ZM0 18L0 25L7 25L7 18ZM1 19L1 24L6 24L6 19ZM2 20L2 23L5 23L5 20Z" fill="#000000"/></g></g></svg>
