<?xml version="1.0" encoding="UTF-8"?>
<svg xmlns="http://www.w3.org/2000/svg" version="1.1" width="300" height="300" viewBox="0 0 300 300"><rect x="0" y="0" width="300" height="300" fill="#ffffff"/><g transform="scale(10.345)"><g transform="translate(0,0)"><path fill-rule="evenodd" d="M10 0L10 1L9 1L9 2L8 2L8 3L9 3L9 5L10 5L10 7L11 7L11 8L12 8L12 9L11 9L11 10L10 10L10 9L9 9L9 6L8 6L8 8L4 8L4 10L6 10L6 11L5 11L5 12L4 12L4 13L5 13L5 14L3 14L3 13L1 13L1 15L0 15L0 16L1 16L1 17L2 17L2 19L1 19L1 18L0 18L0 19L1 19L1 20L0 20L0 21L1 21L1 20L2 20L2 21L3 21L3 20L4 20L4 21L5 21L5 20L4 20L4 18L5 18L5 17L7 17L7 18L6 18L6 19L9 19L9 17L10 17L10 21L9 21L9 20L6 20L6 21L8 21L8 25L9 25L9 23L11 23L11 24L10 24L10 26L11 26L11 27L10 27L10 28L11 28L11 29L12 29L12 28L14 28L14 29L15 29L15 28L16 28L16 29L17 29L17 28L18 28L18 27L19 27L19 29L21 29L21 28L22 28L22 27L23 27L23 28L26 28L26 29L29 29L29 28L28 28L28 27L29 27L29 24L28 24L28 25L26 25L26 23L29 23L29 22L28 22L28 21L27 21L27 22L26 22L26 19L29 19L29 18L28 18L28 17L29 17L29 16L28 16L28 15L29 15L29 13L28 13L28 15L27 15L27 14L26 14L26 15L25 15L25 14L23 14L23 12L22 12L22 14L23 14L23 15L19 15L19 16L20 16L20 17L19 17L19 18L20 18L20 19L21 19L21 20L19 20L19 19L17 19L17 20L16 20L16 19L15 19L15 18L18 18L18 17L17 17L17 16L18 16L18 15L17 15L17 14L18 14L18 13L17 13L17 12L18 12L18 11L17 11L17 8L19 8L19 10L21 10L21 11L24 11L24 12L25 12L25 13L26 13L26 11L27 11L27 12L29 12L29 9L27 9L27 8L26 8L26 9L25 9L25 10L23 10L23 8L20 8L20 7L21 7L21 6L20 6L20 5L21 5L21 4L20 4L20 3L21 3L21 2L20 2L20 1L19 1L19 0L17 0L17 2L18 2L18 3L16 3L16 2L15 2L15 3L16 3L16 5L14 5L14 3L12 3L12 2L11 2L11 3L12 3L12 5L10 5L10 3L9 3L9 2L10 2L10 1L11 1L11 0ZM14 0L14 1L13 1L13 2L14 2L14 1L15 1L15 0ZM18 1L18 2L19 2L19 3L20 3L20 2L19 2L19 1ZM17 4L17 5L18 5L18 6L17 6L17 7L16 7L16 6L15 6L15 7L14 7L14 5L13 5L13 7L12 7L12 6L11 6L11 7L12 7L12 8L13 8L13 9L14 9L14 10L13 10L13 11L14 11L14 10L15 10L15 9L16 9L16 8L17 8L17 7L18 7L18 6L19 6L19 7L20 7L20 6L19 6L19 5L18 5L18 4ZM15 7L15 8L16 8L16 7ZM0 8L0 9L1 9L1 10L0 10L0 12L1 12L1 11L2 11L2 12L3 12L3 11L2 11L2 9L3 9L3 8ZM6 9L6 10L7 10L7 11L6 11L6 12L7 12L7 11L8 11L8 14L7 14L7 13L6 13L6 14L5 14L5 16L4 16L4 15L3 15L3 14L2 14L2 15L1 15L1 16L2 16L2 17L3 17L3 18L4 18L4 17L5 17L5 16L7 16L7 17L9 17L9 16L10 16L10 15L12 15L12 16L11 16L11 17L12 17L12 16L13 16L13 17L14 17L14 18L13 18L13 19L14 19L14 18L15 18L15 15L16 15L16 14L17 14L17 13L16 13L16 14L14 14L14 12L12 12L12 11L11 11L11 12L12 12L12 14L10 14L10 12L9 12L9 11L10 11L10 10L9 10L9 9L8 9L8 10L7 10L7 9ZM26 9L26 10L25 10L25 11L26 11L26 10L27 10L27 11L28 11L28 10L27 10L27 9ZM8 10L8 11L9 11L9 10ZM15 11L15 12L16 12L16 11ZM19 13L19 14L21 14L21 13ZM6 14L6 15L7 15L7 14ZM9 14L9 15L8 15L8 16L9 16L9 15L10 15L10 14ZM13 14L13 15L14 15L14 14ZM24 15L24 16L23 16L23 19L22 19L22 18L21 18L21 19L22 19L22 20L24 20L24 19L25 19L25 18L27 18L27 15L26 15L26 17L25 17L25 15ZM3 16L3 17L4 17L4 16ZM21 16L21 17L22 17L22 16ZM11 19L11 20L12 20L12 22L11 22L11 23L12 23L12 24L11 24L11 25L12 25L12 24L13 24L13 25L14 25L14 26L13 26L13 27L14 27L14 26L15 26L15 27L16 27L16 28L17 28L17 27L18 27L18 26L15 26L15 25L19 25L19 27L20 27L20 28L21 28L21 27L20 27L20 26L23 26L23 25L20 25L20 22L19 22L19 21L18 21L18 22L17 22L17 23L18 23L18 24L15 24L15 23L16 23L16 22L14 22L14 20L12 20L12 19ZM21 21L21 24L24 24L24 21ZM13 22L13 23L14 23L14 22ZM18 22L18 23L19 23L19 22ZM22 22L22 23L23 23L23 22ZM25 22L25 23L26 23L26 22ZM24 25L24 26L25 26L25 25ZM8 26L8 29L9 29L9 26ZM27 26L27 27L26 27L26 28L27 28L27 27L28 27L28 26ZM11 27L11 28L12 28L12 27ZM0 0L0 7L7 7L7 0ZM1 1L1 6L6 6L6 1ZM2 2L2 5L5 5L5 2ZM22 0L22 7L29 7L29 0ZM23 1L23 6L28 6L28 1ZM24 2L24 5L27 5L27 2ZM0 22L0 29L7 29L7 22ZM1 23L1 28L6 28L6 23ZM2 24L2 27L5 27L5 24Z" fill="#000000"/></g></g></svg>
