<?xml version="1.0" encoding="UTF-8"?>
<svg xmlns="http://www.w3.org/2000/svg" version="1.1" width="300" height="300" viewBox="0 0 300 300"><rect x="0" y="0" width="300" height="300" fill="#ffffff"/><g transform="scale(12)"><g transform="translate(0,0)"><path fill-rule="evenodd" d="M8 0L8 1L9 1L9 2L10 2L10 3L11 3L11 5L10 5L10 4L9 4L9 5L10 5L10 8L9 8L9 6L8 6L8 8L9 8L9 10L10 10L10 11L9 11L9 12L8 12L8 13L7 13L7 12L5 12L5 10L6 10L6 11L8 11L8 10L6 10L6 9L7 9L7 8L6 8L6 9L5 9L5 8L3 8L3 9L2 9L2 8L0 8L0 12L1 12L1 13L0 13L0 17L1 17L1 15L2 15L2 16L4 16L4 15L5 15L5 17L8 17L8 18L9 18L9 19L10 19L10 20L8 20L8 22L9 22L9 23L8 23L8 25L9 25L9 24L10 24L10 25L12 25L12 22L11 22L11 24L10 24L10 20L11 20L11 21L13 21L13 23L14 23L14 24L13 24L13 25L14 25L14 24L15 24L15 22L17 22L17 23L18 23L18 22L20 22L20 23L21 23L21 22L22 22L22 24L24 24L24 25L25 25L25 21L24 21L24 20L25 20L25 17L24 17L24 16L25 16L25 10L24 10L24 9L25 9L25 8L24 8L24 9L23 9L23 10L21 10L21 9L19 9L19 8L18 8L18 10L21 10L21 11L20 11L20 12L18 12L18 11L16 11L16 10L15 10L15 8L14 8L14 7L15 7L15 6L14 6L14 7L13 7L13 5L12 5L12 4L13 4L13 3L16 3L16 4L14 4L14 5L16 5L16 7L17 7L17 3L16 3L16 2L17 2L17 1L16 1L16 0L14 0L14 1L13 1L13 0L10 0L10 1L9 1L9 0ZM11 1L11 3L12 3L12 2L13 2L13 1ZM14 1L14 2L16 2L16 1ZM11 6L11 7L12 7L12 8L13 8L13 7L12 7L12 6ZM16 8L16 9L17 9L17 8ZM3 9L3 10L5 10L5 9ZM10 9L10 10L13 10L13 9ZM1 10L1 11L2 11L2 10ZM14 10L14 11L13 11L13 12L12 12L12 11L11 11L11 12L10 12L10 13L9 13L9 15L10 15L10 17L9 17L9 16L8 16L8 17L9 17L9 18L10 18L10 19L11 19L11 20L13 20L13 19L11 19L11 17L12 17L12 18L15 18L15 20L16 20L16 18L15 18L15 17L16 17L16 16L15 16L15 17L12 17L12 16L11 16L11 15L13 15L13 16L14 16L14 15L13 15L13 12L14 12L14 14L15 14L15 12L16 12L16 11L15 11L15 10ZM21 11L21 12L22 12L22 13L21 13L21 14L20 14L20 15L19 15L19 16L21 16L21 17L22 17L22 15L21 15L21 14L24 14L24 12L22 12L22 11ZM2 12L2 15L3 15L3 12ZM4 12L4 14L5 14L5 12ZM11 12L11 13L12 13L12 12ZM17 12L17 13L16 13L16 14L17 14L17 15L18 15L18 14L19 14L19 13L18 13L18 12ZM6 13L6 14L7 14L7 13ZM6 15L6 16L7 16L7 15ZM17 17L17 20L20 20L20 17ZM18 18L18 19L19 19L19 18ZM23 18L23 19L21 19L21 21L20 21L20 22L21 22L21 21L23 21L23 19L24 19L24 18ZM16 24L16 25L17 25L17 24ZM18 24L18 25L19 25L19 24ZM20 24L20 25L21 25L21 24ZM0 0L0 7L7 7L7 0ZM1 1L1 6L6 6L6 1ZM2 2L2 5L5 5L5 2ZM18 0L18 7L25 7L25 0ZM19 1L19 6L24 6L24 1ZM20 2L20 5L23 5L23 2ZM0 18L0 25L7 25L7 18ZM1 19L1 24L6 24L6 19ZM2 20L2 23L5 23L5 20Z" fill="#000000"/></g></g></svg>
