<?xml version="1.0" encoding="UTF-8"?>
<svg xmlns="http://www.w3.org/2000/svg" version="1.1" width="300" height="300" viewBox="0 0 300 300"><rect x="0" y="0" width="300" height="300" fill="#ffffff"/><g transform="scale(12)"><g transform="translate(0,0)"><path fill-rule="evenodd" d="M12 0L12 2L13 2L13 0ZM16 0L16 1L15 1L15 2L14 2L14 3L12 3L12 4L11 4L11 3L8 3L8 4L9 4L9 5L8 5L8 7L9 7L9 8L6 8L6 9L5 9L5 8L0 8L0 9L4 9L4 10L1 10L1 12L0 12L0 17L1 17L1 12L2 12L2 11L4 11L4 12L5 12L5 13L3 13L3 14L2 14L2 15L3 15L3 16L2 16L2 17L3 17L3 16L4 16L4 17L7 17L7 16L6 16L6 15L8 15L8 16L11 16L11 18L10 18L10 17L8 17L8 19L10 19L10 20L8 20L8 25L10 25L10 22L12 22L12 21L17 21L17 22L24 22L24 24L22 24L22 23L21 23L21 24L22 24L22 25L25 25L25 21L24 21L24 20L25 20L25 17L24 17L24 18L23 18L23 20L22 20L22 18L21 18L21 16L22 16L22 17L23 17L23 16L25 16L25 10L24 10L24 8L23 8L23 9L22 9L22 8L21 8L21 10L20 10L20 8L19 8L19 9L18 9L18 8L17 8L17 9L16 9L16 8L13 8L13 6L14 6L14 7L15 7L15 6L16 6L16 7L17 7L17 4L16 4L16 5L14 5L14 4L15 4L15 3L16 3L16 1L17 1L17 0ZM8 1L8 2L9 2L9 1ZM10 1L10 2L11 2L11 1ZM10 4L10 6L9 6L9 7L10 7L10 6L11 6L11 8L10 8L10 9L8 9L8 10L7 10L7 9L6 9L6 10L5 10L5 12L7 12L7 11L8 11L8 12L11 12L11 13L10 13L10 14L11 14L11 15L13 15L13 16L14 16L14 17L12 17L12 18L11 18L11 20L12 20L12 19L13 19L13 20L15 20L15 19L16 19L16 16L17 16L17 15L18 15L18 14L19 14L19 15L20 15L20 16L21 16L21 15L20 15L20 14L21 14L21 12L20 12L20 10L18 10L18 9L17 9L17 10L16 10L16 9L12 9L12 6L13 6L13 4L12 4L12 5L11 5L11 4ZM10 9L10 11L11 11L11 12L12 12L12 11L11 11L11 10L12 10L12 9ZM6 10L6 11L7 11L7 10ZM14 10L14 11L15 11L15 12L13 12L13 13L14 13L14 16L15 16L15 15L16 15L16 14L15 14L15 13L16 13L16 10ZM17 10L17 11L18 11L18 10ZM23 10L23 11L22 11L22 12L24 12L24 10ZM17 12L17 13L19 13L19 12ZM6 13L6 14L5 14L5 15L4 15L4 16L5 16L5 15L6 15L6 14L8 14L8 13ZM11 13L11 14L12 14L12 13ZM22 13L22 16L23 16L23 14L24 14L24 13ZM17 17L17 20L20 20L20 17ZM18 18L18 19L19 19L19 18ZM21 20L21 21L22 21L22 20ZM9 21L9 22L10 22L10 21ZM13 22L13 23L12 23L12 25L15 25L15 24L17 24L17 25L20 25L20 23L19 23L19 24L18 24L18 23L15 23L15 22ZM13 23L13 24L14 24L14 23ZM0 0L0 7L7 7L7 0ZM1 1L1 6L6 6L6 1ZM2 2L2 5L5 5L5 2ZM18 0L18 7L25 7L25 0ZM19 1L19 6L24 6L24 1ZM20 2L20 5L23 5L23 2ZM0 18L0 25L7 25L7 18ZM1 19L1 24L6 24L6 19ZM2 20L2 23L5 23L5 20Z" fill="#000000"/></g></g></svg>
