<?xml version="1.0" encoding="UTF-8"?>
<svg xmlns="http://www.w3.org/2000/svg" version="1.1" width="300" height="300" viewBox="0 0 300 300"><rect x="0" y="0" width="300" height="300" fill="#ffffff"/><g transform="scale(12)"><g transform="translate(0,0)"><path fill-rule="evenodd" d="M8 0L8 1L11 1L11 3L10 3L10 2L9 2L9 3L10 3L10 5L9 5L9 6L8 6L8 8L9 8L9 9L10 9L10 10L8 10L8 9L7 9L7 8L6 8L6 9L7 9L7 10L5 10L5 8L3 8L3 9L4 9L4 11L3 11L3 10L2 10L2 12L4 12L4 13L5 13L5 14L4 14L4 15L3 15L3 13L0 13L0 17L1 17L1 15L3 15L3 16L4 16L4 17L7 17L7 16L8 16L8 18L10 18L10 19L9 19L9 20L8 20L8 22L10 22L10 23L11 23L11 24L10 24L10 25L14 25L14 22L17 22L17 23L18 23L18 22L20 22L20 23L21 23L21 22L20 22L20 21L21 21L21 19L23 19L23 18L24 18L24 19L25 19L25 17L24 17L24 16L25 16L25 10L24 10L24 9L25 9L25 8L24 8L24 9L23 9L23 10L21 10L21 9L19 9L19 8L18 8L18 10L21 10L21 11L20 11L20 12L18 12L18 11L16 11L16 10L15 10L15 9L16 9L16 8L17 8L17 1L16 1L16 0L15 0L15 1L14 1L14 0L13 0L13 1L12 1L12 0ZM13 1L13 2L12 2L12 4L13 4L13 5L12 5L12 6L11 6L11 5L10 5L10 6L9 6L9 7L10 7L10 9L11 9L11 10L10 10L10 11L9 11L9 12L8 12L8 14L7 14L7 13L6 13L6 12L7 12L7 11L4 11L4 12L5 12L5 13L6 13L6 14L5 14L5 15L4 15L4 16L5 16L5 15L6 15L6 16L7 16L7 15L8 15L8 16L9 16L9 17L11 17L11 16L12 16L12 15L13 15L13 17L12 17L12 18L11 18L11 19L10 19L10 20L9 20L9 21L10 21L10 20L11 20L11 19L12 19L12 21L11 21L11 22L12 22L12 23L13 23L13 22L12 22L12 21L13 21L13 19L15 19L15 20L14 20L14 21L15 21L15 20L16 20L16 18L15 18L15 17L16 17L16 16L15 16L15 14L14 14L14 15L13 15L13 14L12 14L12 13L13 13L13 12L14 12L14 13L15 13L15 12L16 12L16 11L14 11L14 10L13 10L13 9L12 9L12 6L13 6L13 7L14 7L14 4L16 4L16 3L15 3L15 2L16 2L16 1L15 1L15 2L14 2L14 1ZM13 2L13 3L14 3L14 2ZM15 5L15 7L16 7L16 5ZM10 6L10 7L11 7L11 6ZM0 8L0 11L1 11L1 9L2 9L2 8ZM12 10L12 11L13 11L13 10ZM21 11L21 12L22 12L22 13L21 13L21 14L19 14L19 13L18 13L18 12L17 12L17 13L16 13L16 14L17 14L17 15L18 15L18 14L19 14L19 16L21 16L21 17L22 17L22 15L21 15L21 14L24 14L24 12L22 12L22 11ZM9 12L9 13L10 13L10 14L9 14L9 15L10 15L10 16L11 16L11 15L10 15L10 14L11 14L11 12ZM6 14L6 15L7 15L7 14ZM13 17L13 18L12 18L12 19L13 19L13 18L14 18L14 17ZM17 17L17 20L20 20L20 17ZM18 18L18 19L19 19L19 18ZM23 20L23 21L22 21L22 22L23 22L23 23L22 23L22 24L24 24L24 25L25 25L25 20ZM8 23L8 25L9 25L9 23ZM16 24L16 25L17 25L17 24ZM18 24L18 25L19 25L19 24ZM20 24L20 25L21 25L21 24ZM0 0L0 7L7 7L7 0ZM1 1L1 6L6 6L6 1ZM2 2L2 5L5 5L5 2ZM18 0L18 7L25 7L25 0ZM19 1L19 6L24 6L24 1ZM20 2L20 5L23 5L23 2ZM0 18L0 25L7 25L7 18ZM1 19L1 24L6 24L6 19ZM2 20L2 23L5 23L5 20Z" fill="#000000"/></g></g></svg>
