<?xml version="1.0" encoding="UTF-8"?>
<svg xmlns="http://www.w3.org/2000/svg" version="1.1" width="300" height="300" viewBox="0 0 300 300"><rect x="0" y="0" width="300" height="300" fill="#ffffff"/><g transform="scale(12)"><g transform="translate(0,0)"><path fill-rule="evenodd" d="M8 0L8 4L10 4L10 3L11 3L11 4L12 4L12 2L11 2L11 0ZM12 0L12 1L14 1L14 2L15 2L15 3L14 3L14 4L13 4L13 5L11 5L11 6L10 6L10 7L9 7L9 5L8 5L8 7L9 7L9 8L10 8L10 7L11 7L11 6L12 6L12 8L11 8L11 9L7 9L7 8L4 8L4 9L2 9L2 8L0 8L0 11L1 11L1 10L2 10L2 12L0 12L0 14L2 14L2 15L3 15L3 16L4 16L4 17L5 17L5 15L7 15L7 16L6 16L6 17L8 17L8 18L10 18L10 17L12 17L12 18L11 18L11 20L12 20L12 21L14 21L14 22L13 22L13 23L12 23L12 24L10 24L10 25L16 25L16 23L18 23L18 24L17 24L17 25L19 25L19 24L20 24L20 25L25 25L25 24L24 24L24 22L25 22L25 19L24 19L24 20L23 20L23 18L22 18L22 17L23 17L23 14L21 14L21 12L22 12L22 13L24 13L24 14L25 14L25 12L24 12L24 9L25 9L25 8L21 8L21 9L20 9L20 8L19 8L19 9L18 9L18 11L17 11L17 4L16 4L16 2L17 2L17 0L16 0L16 2L15 2L15 1L14 1L14 0ZM9 2L9 3L10 3L10 2ZM15 4L15 5L14 5L14 6L13 6L13 8L12 8L12 9L11 9L11 10L9 10L9 12L8 12L8 10L7 10L7 9L5 9L5 10L4 10L4 11L5 11L5 10L7 10L7 11L6 11L6 12L4 12L4 13L3 13L3 12L2 12L2 13L3 13L3 14L4 14L4 13L6 13L6 14L8 14L8 15L9 15L9 16L8 16L8 17L9 17L9 16L10 16L10 15L11 15L11 16L12 16L12 17L14 17L14 16L16 16L16 15L15 15L15 14L14 14L14 13L16 13L16 14L18 14L18 15L17 15L17 16L19 16L19 15L20 15L20 16L21 16L21 15L20 15L20 14L19 14L19 13L17 13L17 12L14 12L14 11L15 11L15 10L16 10L16 4ZM14 6L14 8L13 8L13 9L12 9L12 10L11 10L11 11L10 11L10 13L11 13L11 12L12 12L12 13L14 13L14 12L12 12L12 11L14 11L14 8L15 8L15 6ZM19 9L19 12L20 12L20 9ZM21 9L21 10L22 10L22 11L23 11L23 10L22 10L22 9ZM6 12L6 13L8 13L8 12ZM9 14L9 15L10 15L10 14ZM12 15L12 16L13 16L13 15ZM0 16L0 17L2 17L2 16ZM17 17L17 20L20 20L20 17ZM24 17L24 18L25 18L25 17ZM13 18L13 19L12 19L12 20L14 20L14 21L16 21L16 22L14 22L14 23L13 23L13 24L14 24L14 23L16 23L16 22L17 22L17 21L16 21L16 20L15 20L15 19L16 19L16 18ZM18 18L18 19L19 19L19 18ZM21 18L21 19L22 19L22 18ZM8 19L8 21L10 21L10 23L11 23L11 21L10 21L10 19ZM19 21L19 23L21 23L21 22L23 22L23 21ZM8 23L8 25L9 25L9 23ZM0 0L0 7L7 7L7 0ZM1 1L1 6L6 6L6 1ZM2 2L2 5L5 5L5 2ZM18 0L18 7L25 7L25 0ZM19 1L19 6L24 6L24 1ZM20 2L20 5L23 5L23 2ZM0 18L0 25L7 25L7 18ZM1 19L1 24L6 24L6 19ZM2 20L2 23L5 23L5 20Z" fill="#000000"/></g></g></svg>
