<?xml version="1.0" encoding="UTF-8"?>
<svg xmlns="http://www.w3.org/2000/svg" version="1.1" width="300" height="300" viewBox="0 0 300 300"><rect x="0" y="0" width="300" height="300" fill="#ffffff"/><g transform="scale(12)"><g transform="translate(0,0)"><path fill-rule="evenodd" d="M9 0L9 1L8 1L8 2L9 2L9 3L8 3L8 4L10 4L10 7L11 7L11 4L12 4L12 5L13 5L13 4L12 4L12 2L14 2L14 1L15 1L15 3L14 3L14 10L11 10L11 11L10 11L10 9L11 9L11 8L6 8L6 9L5 9L5 8L0 8L0 11L1 11L1 12L0 12L0 17L1 17L1 14L2 14L2 17L5 17L5 16L6 16L6 17L8 17L8 19L10 19L10 20L8 20L8 25L10 25L10 24L11 24L11 21L10 21L10 20L11 20L11 17L13 17L13 16L10 16L10 15L11 15L11 13L12 13L12 14L14 14L14 13L16 13L16 10L17 10L17 11L18 11L18 10L20 10L20 12L21 12L21 14L20 14L20 15L21 15L21 16L19 16L19 14L18 14L18 15L17 15L17 16L16 16L16 19L15 19L15 16L14 16L14 23L15 23L15 24L14 24L14 25L15 25L15 24L17 24L17 25L20 25L20 23L19 23L19 24L18 24L18 23L15 23L15 21L17 21L17 22L21 22L21 20L22 20L22 21L23 21L23 22L22 22L22 23L21 23L21 24L22 24L22 25L25 25L25 21L23 21L23 20L22 20L22 19L21 19L21 16L22 16L22 17L23 17L23 16L25 16L25 10L24 10L24 8L23 8L23 9L22 9L22 8L21 8L21 10L20 10L20 8L19 8L19 9L18 9L18 8L16 8L16 7L17 7L17 6L16 6L16 5L17 5L17 0L14 0L14 1L11 1L11 2L10 2L10 0ZM10 3L10 4L11 4L11 3ZM8 5L8 7L9 7L9 5ZM12 6L12 9L13 9L13 6ZM15 6L15 7L16 7L16 6ZM2 9L2 10L3 10L3 11L2 11L2 12L4 12L4 14L3 14L3 16L4 16L4 14L5 14L5 13L6 13L6 14L7 14L7 13L6 13L6 12L8 12L8 14L9 14L9 12L8 12L8 10L9 10L9 9L6 9L6 10L7 10L7 11L5 11L5 10L3 10L3 9ZM17 9L17 10L18 10L18 9ZM14 10L14 11L12 11L12 12L13 12L13 13L14 13L14 11L15 11L15 10ZM23 10L23 11L22 11L22 12L24 12L24 10ZM4 11L4 12L5 12L5 11ZM10 12L10 13L11 13L11 12ZM17 12L17 13L19 13L19 12ZM22 13L22 16L23 16L23 14L24 14L24 13ZM15 14L15 15L16 15L16 14ZM6 15L6 16L7 16L7 15ZM8 15L8 17L9 17L9 15ZM17 17L17 20L20 20L20 17ZM24 17L24 18L23 18L23 19L25 19L25 17ZM18 18L18 19L19 19L19 18ZM12 19L12 21L13 21L13 19ZM9 21L9 23L10 23L10 21ZM12 22L12 23L13 23L13 22ZM23 22L23 23L22 23L22 24L24 24L24 22ZM0 0L0 7L7 7L7 0ZM1 1L1 6L6 6L6 1ZM2 2L2 5L5 5L5 2ZM18 0L18 7L25 7L25 0ZM19 1L19 6L24 6L24 1ZM20 2L20 5L23 5L23 2ZM0 18L0 25L7 25L7 18ZM1 19L1 24L6 24L6 19ZM2 20L2 23L5 23L5 20Z" fill="#000000"/></g></g></svg>
