<?xml version="1.0" encoding="UTF-8"?>
<svg xmlns="http://www.w3.org/2000/svg" version="1.1" width="300" height="300" viewBox="0 0 300 300"><rect x="0" y="0" width="300" height="300" fill="#ffffff"/><g transform="scale(12)"><g transform="translate(0,0)"><path fill-rule="evenodd" d="M8 0L8 2L10 2L10 4L8 4L8 10L6 10L6 11L4 11L4 10L5 10L5 9L7 9L7 8L5 8L5 9L4 9L4 10L3 10L3 8L0 8L0 10L2 10L2 11L4 11L4 12L2 12L2 13L1 13L1 11L0 11L0 13L1 13L1 14L0 14L0 15L2 15L2 16L0 16L0 17L2 17L2 16L3 16L3 15L4 15L4 14L6 14L6 15L5 15L5 16L4 16L4 17L7 17L7 16L6 16L6 15L8 15L8 16L9 16L9 15L11 15L11 16L12 16L12 17L14 17L14 16L13 16L13 15L14 15L14 14L15 14L15 16L16 16L16 17L15 17L15 18L11 18L11 17L8 17L8 18L11 18L11 20L10 20L10 19L8 19L8 20L9 20L9 22L8 22L8 25L9 25L9 24L10 24L10 23L12 23L12 22L14 22L14 24L11 24L11 25L14 25L14 24L15 24L15 22L16 22L16 25L17 25L17 24L18 24L18 25L21 25L21 22L22 22L22 21L21 21L21 18L22 18L22 19L23 19L23 23L25 23L25 22L24 22L24 19L25 19L25 18L24 18L24 19L23 19L23 18L22 18L22 17L21 17L21 16L20 16L20 15L19 15L19 13L22 13L22 12L21 12L21 11L22 11L22 10L23 10L23 11L25 11L25 8L23 8L23 9L22 9L22 10L21 10L21 11L20 11L20 9L21 9L21 8L15 8L15 6L14 6L14 8L13 8L13 6L12 6L12 4L11 4L11 3L14 3L14 4L13 4L13 5L16 5L16 7L17 7L17 5L16 5L16 4L15 4L15 3L16 3L16 2L13 2L13 0L11 0L11 1L9 1L9 0ZM14 0L14 1L16 1L16 0ZM11 1L11 2L12 2L12 1ZM9 5L9 8L10 8L10 6L11 6L11 7L12 7L12 6L11 6L11 5ZM11 8L11 10L9 10L9 11L6 11L6 12L4 12L4 13L3 13L3 14L4 14L4 13L6 13L6 14L8 14L8 15L9 15L9 14L11 14L11 15L12 15L12 13L11 13L11 12L14 12L14 13L13 13L13 14L14 14L14 13L15 13L15 12L17 12L17 13L16 13L16 14L18 14L18 11L19 11L19 12L20 12L20 11L19 11L19 9L17 9L17 11L15 11L15 10L16 10L16 9L15 9L15 8L14 8L14 9L13 9L13 8ZM14 9L14 10L15 10L15 9ZM11 10L11 11L12 11L12 10ZM9 11L9 13L8 13L8 12L6 12L6 13L8 13L8 14L9 14L9 13L10 13L10 11ZM24 12L24 13L25 13L25 12ZM21 14L21 15L23 15L23 17L24 17L24 15L25 15L25 14L24 14L24 15L23 15L23 14ZM16 15L16 16L17 16L17 15ZM18 15L18 16L19 16L19 15ZM17 17L17 20L20 20L20 17ZM15 18L15 20L14 20L14 19L12 19L12 21L10 21L10 22L9 22L9 23L10 23L10 22L12 22L12 21L13 21L13 20L14 20L14 22L15 22L15 20L16 20L16 18ZM18 18L18 19L19 19L19 18ZM16 21L16 22L17 22L17 21ZM18 21L18 23L19 23L19 21ZM24 24L24 25L25 25L25 24ZM0 0L0 7L7 7L7 0ZM1 1L1 6L6 6L6 1ZM2 2L2 5L5 5L5 2ZM18 0L18 7L25 7L25 0ZM19 1L19 6L24 6L24 1ZM20 2L20 5L23 5L23 2ZM0 18L0 25L7 25L7 18ZM1 19L1 24L6 24L6 19ZM2 20L2 23L5 23L5 20Z" fill="#000000"/></g></g></svg>
