<?xml version="1.0" encoding="UTF-8"?>
<svg xmlns="http://www.w3.org/2000/svg" version="1.1" width="300" height="300" viewBox="0 0 300 300"><rect x="0" y="0" width="300" height="300" fill="#ffffff"/><g transform="scale(12)"><g transform="translate(0,0)"><path fill-rule="evenodd" d="M11 0L11 1L9 1L9 2L11 2L11 1L13 1L13 0ZM15 0L15 1L16 1L16 2L14 2L14 3L15 3L15 4L14 4L14 9L17 9L17 8L15 8L15 5L17 5L17 3L16 3L16 2L17 2L17 1L16 1L16 0ZM12 2L12 4L13 4L13 2ZM8 3L8 5L10 5L10 4L9 4L9 3ZM11 5L11 6L10 6L10 8L9 8L9 9L8 9L8 8L5 8L5 9L2 9L2 8L0 8L0 10L1 10L1 11L0 11L0 17L1 17L1 13L2 13L2 11L4 11L4 10L5 10L5 9L8 9L8 10L6 10L6 11L5 11L5 12L4 12L4 14L5 14L5 13L7 13L7 14L6 14L6 15L9 15L9 16L5 16L5 15L4 15L4 17L8 17L8 20L10 20L10 22L9 22L9 23L8 23L8 25L10 25L10 24L9 24L9 23L11 23L11 24L12 24L12 23L13 23L13 22L11 22L11 20L10 20L10 19L12 19L12 21L13 21L13 20L14 20L14 22L20 22L20 21L21 21L21 18L22 18L22 19L23 19L23 20L22 20L22 22L21 22L21 23L20 23L20 25L21 25L21 23L22 23L22 22L24 22L24 25L25 25L25 17L24 17L24 19L23 19L23 18L22 18L22 17L23 17L23 16L25 16L25 10L24 10L24 9L23 9L23 10L21 10L21 9L22 9L22 8L20 8L20 9L18 9L18 10L17 10L17 11L18 11L18 10L20 10L20 12L18 12L18 13L22 13L22 12L21 12L21 11L23 11L23 10L24 10L24 14L23 14L23 15L22 15L22 14L18 14L18 15L16 15L16 13L17 13L17 12L15 12L15 11L16 11L16 10L15 10L15 11L14 11L14 10L13 10L13 9L12 9L12 7L13 7L13 5ZM8 6L8 7L9 7L9 6ZM11 6L11 7L12 7L12 6ZM16 6L16 7L17 7L17 6ZM10 8L10 10L8 10L8 11L6 11L6 12L7 12L7 13L8 13L8 14L9 14L9 15L10 15L10 14L13 14L13 15L12 15L12 17L11 17L11 16L10 16L10 17L11 17L11 18L12 18L12 19L14 19L14 20L16 20L16 18L15 18L15 17L16 17L16 16L14 16L14 15L15 15L15 12L14 12L14 11L13 11L13 10L12 10L12 9L11 9L11 8ZM1 9L1 10L2 10L2 9ZM10 10L10 11L8 11L8 13L10 13L10 11L11 11L11 10ZM12 11L12 12L11 12L11 13L13 13L13 14L14 14L14 12L13 12L13 11ZM2 14L2 16L3 16L3 14ZM19 15L19 16L20 16L20 15ZM21 15L21 17L22 17L22 15ZM12 17L12 18L14 18L14 17ZM17 17L17 20L20 20L20 17ZM9 18L9 19L10 19L10 18ZM18 18L18 19L19 19L19 18ZM14 23L14 24L13 24L13 25L15 25L15 23ZM16 23L16 25L17 25L17 24L18 24L18 25L19 25L19 24L18 24L18 23ZM0 0L0 7L7 7L7 0ZM1 1L1 6L6 6L6 1ZM2 2L2 5L5 5L5 2ZM18 0L18 7L25 7L25 0ZM19 1L19 6L24 6L24 1ZM20 2L20 5L23 5L23 2ZM0 18L0 25L7 25L7 18ZM1 19L1 24L6 24L6 19ZM2 20L2 23L5 23L5 20Z" fill="#000000"/></g></g></svg>
