<?xml version="1.0" encoding="UTF-8"?>
<svg xmlns="http://www.w3.org/2000/svg" version="1.1" width="300" height="300" viewBox="0 0 300 300"><rect x="0" y="0" width="300" height="300" fill="#ffffff"/><g transform="scale(12)"><g transform="translate(0,0)"><path fill-rule="evenodd" d="M8 0L8 2L9 2L9 3L10 3L10 4L8 4L8 9L9 9L9 11L10 11L10 12L6 12L6 13L7 13L7 14L3 14L3 12L5 12L5 11L4 11L4 10L6 10L6 11L7 11L7 10L6 10L6 9L7 9L7 8L5 8L5 9L3 9L3 8L0 8L0 11L1 11L1 12L2 12L2 13L1 13L1 14L0 14L0 15L2 15L2 16L0 16L0 17L3 17L3 16L5 16L5 15L7 15L7 16L6 16L6 17L7 17L7 16L8 16L8 18L9 18L9 19L8 19L8 20L9 20L9 21L10 21L10 20L11 20L11 19L14 19L14 16L16 16L16 17L15 17L15 18L16 18L16 20L14 20L14 21L15 21L15 22L13 22L13 20L12 20L12 22L10 22L10 23L9 23L9 22L8 22L8 25L9 25L9 24L11 24L11 25L14 25L14 24L12 24L12 22L13 22L13 23L15 23L15 22L16 22L16 25L17 25L17 24L18 24L18 25L21 25L21 24L19 24L19 23L21 23L21 18L22 18L22 19L23 19L23 18L22 18L22 17L21 17L21 16L18 16L18 15L23 15L23 17L24 17L24 15L25 15L25 14L24 14L24 15L23 15L23 14L19 14L19 13L22 13L22 12L21 12L21 11L22 11L22 10L23 10L23 11L25 11L25 8L23 8L23 9L22 9L22 10L21 10L21 11L20 11L20 9L21 9L21 8L17 8L17 6L16 6L16 8L15 8L15 6L14 6L14 4L15 4L15 5L16 5L16 4L15 4L15 3L17 3L17 1L16 1L16 0L15 0L15 1L16 1L16 2L14 2L14 0L13 0L13 2L11 2L11 3L10 3L10 2L9 2L9 1L12 1L12 0ZM12 3L12 5L11 5L11 4L10 4L10 6L9 6L9 8L10 8L10 10L12 10L12 11L11 11L11 12L12 12L12 13L10 13L10 14L7 14L7 15L8 15L8 16L10 16L10 17L9 17L9 18L10 18L10 19L9 19L9 20L10 20L10 19L11 19L11 18L12 18L12 17L11 17L11 16L14 16L14 15L13 15L13 14L12 14L12 13L13 13L13 12L14 12L14 14L15 14L15 12L17 12L17 13L16 13L16 14L18 14L18 11L19 11L19 12L20 12L20 11L19 11L19 9L17 9L17 11L13 11L13 10L12 10L12 9L11 9L11 8L12 8L12 6L13 6L13 8L14 8L14 10L16 10L16 9L15 9L15 8L14 8L14 6L13 6L13 4L14 4L14 3ZM10 6L10 7L11 7L11 6ZM1 9L1 10L2 10L2 12L3 12L3 10L2 10L2 9ZM12 11L12 12L13 12L13 11ZM24 12L24 13L25 13L25 12ZM10 14L10 16L11 16L11 15L12 15L12 14ZM16 15L16 16L17 16L17 15ZM17 17L17 20L20 20L20 17ZM18 18L18 19L19 19L19 18ZM24 18L24 19L25 19L25 18ZM23 20L23 21L24 21L24 22L23 22L23 23L25 23L25 20ZM16 21L16 22L17 22L17 21ZM18 21L18 23L19 23L19 21ZM24 24L24 25L25 25L25 24ZM0 0L0 7L7 7L7 0ZM1 1L1 6L6 6L6 1ZM2 2L2 5L5 5L5 2ZM18 0L18 7L25 7L25 0ZM19 1L19 6L24 6L24 1ZM20 2L20 5L23 5L23 2ZM0 18L0 25L7 25L7 18ZM1 19L1 24L6 24L6 19ZM2 20L2 23L5 23L5 20Z" fill="#000000"/></g></g></svg>
