<?xml version="1.0" encoding="UTF-8"?>
<svg xmlns="http://www.w3.org/2000/svg" version="1.1" width="300" height="300" viewBox="0 0 300 300"><rect x="0" y="0" width="300" height="300" fill="#ffffff"/><g transform="scale(10.345)"><g transform="translate(0,0)"><path fill-rule="evenodd" d="M9 0L9 1L8 1L8 3L9 3L9 4L8 4L8 8L6 8L6 9L8 9L8 8L10 8L10 10L9 10L9 11L8 11L8 10L6 10L6 11L8 11L8 12L5 12L5 10L4 10L4 11L2 11L2 10L1 10L1 11L0 11L0 12L1 12L1 11L2 11L2 13L1 13L1 14L0 14L0 17L1 17L1 18L0 18L0 19L1 19L1 18L2 18L2 16L4 16L4 17L5 17L5 16L6 16L6 17L7 17L7 16L6 16L6 15L8 15L8 16L9 16L9 17L8 17L8 18L6 18L6 19L8 19L8 20L5 20L5 18L4 18L4 20L5 20L5 21L8 21L8 23L9 23L9 25L8 25L8 26L9 26L9 27L8 27L8 29L9 29L9 28L10 28L10 26L11 26L11 28L12 28L12 29L14 29L14 28L12 28L12 24L14 24L14 25L13 25L13 27L15 27L15 28L16 28L16 27L15 27L15 26L16 26L16 25L17 25L17 26L20 26L20 25L22 25L22 28L20 28L20 27L17 27L17 28L20 28L20 29L22 29L22 28L25 28L25 29L28 29L28 27L29 27L29 26L28 26L28 25L29 25L29 23L28 23L28 21L27 21L27 20L25 20L25 19L28 19L28 20L29 20L29 18L28 18L28 15L29 15L29 14L28 14L28 15L27 15L27 17L26 17L26 18L25 18L25 19L24 19L24 20L23 20L23 18L24 18L24 17L21 17L21 16L24 16L24 15L25 15L25 16L26 16L26 12L29 12L29 11L27 11L27 10L29 10L29 9L28 9L28 8L26 8L26 9L25 9L25 8L22 8L22 9L21 9L21 5L20 5L20 4L19 4L19 2L18 2L18 1L20 1L20 2L21 2L21 0L18 0L18 1L17 1L17 0L16 0L16 1L14 1L14 0L12 0L12 1L11 1L11 2L9 2L9 1L10 1L10 0ZM16 1L16 2L14 2L14 3L16 3L16 4L15 4L15 8L14 8L14 6L13 6L13 3L12 3L12 4L9 4L9 5L10 5L10 6L9 6L9 7L10 7L10 8L11 8L11 9L12 9L12 10L11 10L11 11L9 11L9 12L8 12L8 13L12 13L12 12L13 12L13 15L16 15L16 17L20 17L20 18L19 18L19 20L18 20L18 22L15 22L15 21L17 21L17 20L16 20L16 19L18 19L18 18L15 18L15 17L13 17L13 16L12 16L12 14L11 14L11 16L10 16L10 17L11 17L11 19L9 19L9 20L8 20L8 21L9 21L9 23L10 23L10 21L9 21L9 20L11 20L11 19L12 19L12 20L13 20L13 21L14 21L14 22L15 22L15 23L14 23L14 24L16 24L16 23L17 23L17 25L20 25L20 23L19 23L19 24L18 24L18 22L19 22L19 21L20 21L20 18L21 18L21 19L22 19L22 18L21 18L21 17L20 17L20 16L21 16L21 15L24 15L24 14L25 14L25 12L23 12L23 10L25 10L25 9L23 9L23 10L22 10L22 11L21 11L21 10L20 10L20 11L21 11L21 14L20 14L20 12L18 12L18 11L19 11L19 10L17 10L17 9L16 9L16 10L14 10L14 9L15 9L15 8L17 8L17 7L18 7L18 6L19 6L19 7L20 7L20 6L19 6L19 4L17 4L17 3L16 3L16 2L17 2L17 1ZM16 4L16 5L17 5L17 6L16 6L16 7L17 7L17 6L18 6L18 5L17 5L17 4ZM11 5L11 6L10 6L10 7L11 7L11 6L12 6L12 8L13 8L13 6L12 6L12 5ZM0 8L0 9L2 9L2 8ZM3 8L3 9L4 9L4 8ZM18 8L18 9L20 9L20 8ZM26 9L26 10L27 10L27 9ZM16 10L16 11L14 11L14 12L15 12L15 14L16 14L16 15L17 15L17 16L18 16L18 15L19 15L19 16L20 16L20 15L19 15L19 13L17 13L17 12L16 12L16 11L17 11L17 10ZM22 12L22 13L23 13L23 12ZM3 13L3 14L4 14L4 13ZM6 13L6 14L7 14L7 13ZM16 13L16 14L17 14L17 15L18 15L18 14L17 14L17 13ZM9 14L9 15L10 15L10 14ZM1 15L1 16L2 16L2 15ZM11 16L11 17L12 17L12 16ZM13 18L13 20L14 20L14 21L15 21L15 20L14 20L14 18ZM2 19L2 20L3 20L3 19ZM0 20L0 21L1 21L1 20ZM21 21L21 24L24 24L24 21ZM26 21L26 23L27 23L27 21ZM22 22L22 23L23 23L23 22ZM10 24L10 25L11 25L11 24ZM26 24L26 26L25 26L25 25L24 25L24 26L23 26L23 27L24 27L24 26L25 26L25 27L26 27L26 28L27 28L27 27L28 27L28 26L27 26L27 25L28 25L28 24ZM0 0L0 7L7 7L7 0ZM1 1L1 6L6 6L6 1ZM2 2L2 5L5 5L5 2ZM22 0L22 7L29 7L29 0ZM23 1L23 6L28 6L28 1ZM24 2L24 5L27 5L27 2ZM0 22L0 29L7 29L7 22ZM1 23L1 28L6 28L6 23ZM2 24L2 27L5 27L5 24Z" fill="#000000"/></g></g></svg>
