<?xml version="1.0" encoding="UTF-8"?>
<svg xmlns="http://www.w3.org/2000/svg" version="1.1" width="300" height="300" viewBox="0 0 300 300"><rect x="0" y="0" width="300" height="300" fill="#ffffff"/><g transform="scale(12)"><g transform="translate(0,0)"><path fill-rule="evenodd" d="M10 0L10 2L11 2L11 0ZM12 0L12 1L13 1L13 2L12 2L12 4L13 4L13 2L14 2L14 0ZM15 0L15 3L14 3L14 4L15 4L15 6L14 6L14 9L12 9L12 7L13 7L13 5L11 5L11 6L10 6L10 4L11 4L11 3L8 3L8 4L9 4L9 5L8 5L8 7L9 7L9 8L6 8L6 9L10 9L10 11L11 11L11 9L12 9L12 10L14 10L14 11L15 11L15 13L16 13L16 10L17 10L17 11L18 11L18 10L20 10L20 12L21 12L21 16L20 16L20 15L19 15L19 14L18 14L18 15L17 15L17 16L16 16L16 19L14 19L14 18L15 18L15 16L14 16L14 18L13 18L13 16L12 16L12 15L13 15L13 14L9 14L9 13L11 13L11 12L9 12L9 13L8 13L8 12L6 12L6 11L9 11L9 10L4 10L4 9L5 9L5 8L0 8L0 9L3 9L3 10L2 10L2 11L1 11L1 10L0 10L0 11L1 11L1 12L0 12L0 17L1 17L1 13L2 13L2 12L3 12L3 15L2 15L2 17L3 17L3 16L4 16L4 17L8 17L8 19L9 19L9 20L8 20L8 25L9 25L9 22L11 22L11 21L13 21L13 22L14 22L14 21L17 21L17 22L21 22L21 20L22 20L22 21L23 21L23 22L22 22L22 23L21 23L21 24L22 24L22 25L25 25L25 21L23 21L23 20L25 20L25 17L24 17L24 18L23 18L23 20L22 20L22 19L21 19L21 16L22 16L22 17L23 17L23 16L25 16L25 10L24 10L24 8L23 8L23 9L22 9L22 8L21 8L21 10L20 10L20 8L19 8L19 9L18 9L18 8L17 8L17 6L16 6L16 5L17 5L17 4L16 4L16 3L17 3L17 0ZM8 1L8 2L9 2L9 1ZM9 6L9 7L10 7L10 6ZM11 6L11 7L12 7L12 6ZM15 6L15 7L16 7L16 6ZM10 8L10 9L11 9L11 8ZM14 9L14 10L15 10L15 9ZM17 9L17 10L18 10L18 9ZM23 10L23 11L22 11L22 12L24 12L24 10ZM3 11L3 12L4 12L4 15L5 15L5 14L7 14L7 15L6 15L6 16L8 16L8 17L9 17L9 15L8 15L8 14L7 14L7 13L6 13L6 12L4 12L4 11ZM12 11L12 13L14 13L14 12L13 12L13 11ZM17 12L17 13L19 13L19 12ZM22 13L22 16L23 16L23 14L24 14L24 13ZM15 14L15 15L16 15L16 14ZM10 15L10 16L11 16L11 15ZM10 17L10 18L9 18L9 19L10 19L10 20L9 20L9 21L11 21L11 20L12 20L12 17ZM17 17L17 20L20 20L20 17ZM10 18L10 19L11 19L11 18ZM18 18L18 19L19 19L19 18ZM13 19L13 21L14 21L14 19ZM23 22L23 23L22 23L22 24L24 24L24 22ZM12 23L12 25L13 25L13 23ZM15 23L15 24L14 24L14 25L15 25L15 24L17 24L17 25L19 25L19 24L20 24L20 23L19 23L19 24L18 24L18 23ZM10 24L10 25L11 25L11 24ZM0 0L0 7L7 7L7 0ZM1 1L1 6L6 6L6 1ZM2 2L2 5L5 5L5 2ZM18 0L18 7L25 7L25 0ZM19 1L19 6L24 6L24 1ZM20 2L20 5L23 5L23 2ZM0 18L0 25L7 25L7 18ZM1 19L1 24L6 24L6 19ZM2 20L2 23L5 23L5 20Z" fill="#000000"/></g></g></svg>
