<?xml version="1.0" encoding="UTF-8"?>
<svg xmlns="http://www.w3.org/2000/svg" version="1.1" width="300" height="300" viewBox="0 0 300 300"><rect x="0" y="0" width="300" height="300" fill="#ffffff"/><g transform="scale(12)"><g transform="translate(0,0)"><path fill-rule="evenodd" d="M8 0L8 4L9 4L9 5L8 5L8 7L9 7L9 6L10 6L10 9L11 9L11 8L12 8L12 9L13 9L13 10L14 10L14 11L15 11L15 12L17 12L17 13L19 13L19 14L20 14L20 15L21 15L21 16L17 16L17 15L18 15L18 14L16 14L16 13L14 13L14 12L13 12L13 11L12 11L12 12L11 12L11 13L9 13L9 14L10 14L10 16L11 16L11 17L14 17L14 20L13 20L13 22L11 22L11 20L10 20L10 19L8 19L8 21L10 21L10 23L8 23L8 25L10 25L10 23L12 23L12 24L11 24L11 25L14 25L14 24L13 24L13 23L14 23L14 22L16 22L16 23L15 23L15 25L16 25L16 23L18 23L18 24L17 24L17 25L19 25L19 24L20 24L20 25L25 25L25 24L24 24L24 22L25 22L25 21L23 21L23 20L25 20L25 19L23 19L23 18L22 18L22 17L23 17L23 14L21 14L21 12L22 12L22 13L24 13L24 14L25 14L25 12L24 12L24 9L25 9L25 8L21 8L21 9L20 9L20 8L19 8L19 9L18 9L18 11L17 11L17 9L16 9L16 10L14 10L14 8L12 8L12 7L13 7L13 6L12 6L12 7L11 7L11 3L10 3L10 2L9 2L9 0ZM13 0L13 1L11 1L11 2L12 2L12 5L13 5L13 4L14 4L14 5L16 5L16 8L17 8L17 5L16 5L16 4L17 4L17 3L16 3L16 4L14 4L14 3L15 3L15 0ZM16 0L16 1L17 1L17 0ZM13 2L13 3L14 3L14 2ZM14 6L14 7L15 7L15 6ZM0 8L0 9L1 9L1 10L0 10L0 11L1 11L1 10L5 10L5 11L3 11L3 12L2 12L2 13L0 13L0 14L3 14L3 12L4 12L4 16L0 16L0 17L4 17L4 16L5 16L5 15L7 15L7 16L6 16L6 17L7 17L7 16L8 16L8 18L10 18L10 17L9 17L9 16L8 16L8 15L7 15L7 14L8 14L8 13L7 13L7 12L10 12L10 11L11 11L11 10L9 10L9 9L8 9L8 11L7 11L7 10L5 10L5 9L7 9L7 8L4 8L4 9L2 9L2 8ZM19 9L19 12L20 12L20 9ZM21 9L21 10L22 10L22 11L23 11L23 10L22 10L22 9ZM5 11L5 13L6 13L6 14L7 14L7 13L6 13L6 12L7 12L7 11ZM11 13L11 14L12 14L12 13ZM13 14L13 15L12 15L12 16L14 16L14 17L15 17L15 16L16 16L16 15L15 15L15 14ZM14 15L14 16L15 16L15 15ZM17 17L17 20L20 20L20 17ZM24 17L24 18L25 18L25 17ZM11 18L11 19L12 19L12 18ZM15 18L15 19L16 19L16 18ZM18 18L18 19L19 19L19 18ZM21 18L21 19L22 19L22 18ZM14 20L14 21L16 21L16 22L17 22L17 21L16 21L16 20ZM19 21L19 23L21 23L21 22L22 22L22 23L23 23L23 21ZM0 0L0 7L7 7L7 0ZM1 1L1 6L6 6L6 1ZM2 2L2 5L5 5L5 2ZM18 0L18 7L25 7L25 0ZM19 1L19 6L24 6L24 1ZM20 2L20 5L23 5L23 2ZM0 18L0 25L7 25L7 18ZM1 19L1 24L6 24L6 19ZM2 20L2 23L5 23L5 20Z" fill="#000000"/></g></g></svg>
