<?xml version="1.0" encoding="UTF-8"?>
<svg xmlns="http://www.w3.org/2000/svg" version="1.1" width="300" height="300" viewBox="0 0 300 300"><rect x="0" y="0" width="300" height="300" fill="#ffffff"/><g transform="scale(12)"><g transform="translate(0,0)"><path fill-rule="evenodd" d="M11 0L11 1L9 1L9 2L11 2L11 1L13 1L13 2L12 2L12 4L13 4L13 2L14 2L14 0ZM15 0L15 1L16 1L16 2L15 2L15 3L16 3L16 4L15 4L15 5L17 5L17 3L16 3L16 2L17 2L17 1L16 1L16 0ZM8 3L8 5L10 5L10 4L9 4L9 3ZM11 5L11 6L10 6L10 8L9 8L9 10L8 10L8 8L5 8L5 9L3 9L3 10L2 10L2 8L0 8L0 10L1 10L1 13L0 13L0 17L1 17L1 13L2 13L2 14L3 14L3 15L2 15L2 17L4 17L4 16L5 16L5 17L7 17L7 16L8 16L8 15L7 15L7 14L5 14L5 12L6 12L6 13L9 13L9 17L8 17L8 20L10 20L10 21L9 21L9 23L8 23L8 25L11 25L11 24L12 24L12 23L13 23L13 22L10 22L10 21L11 21L11 20L10 20L10 19L12 19L12 21L13 21L13 20L14 20L14 22L20 22L20 21L21 21L21 18L22 18L22 19L23 19L23 20L22 20L22 22L21 22L21 23L23 23L23 22L24 22L24 25L25 25L25 20L24 20L24 19L25 19L25 17L24 17L24 19L23 19L23 18L22 18L22 17L23 17L23 16L25 16L25 10L24 10L24 9L23 9L23 10L21 10L21 9L22 9L22 8L20 8L20 9L18 9L18 10L17 10L17 11L18 11L18 10L20 10L20 12L18 12L18 13L22 13L22 12L21 12L21 11L23 11L23 10L24 10L24 14L23 14L23 15L22 15L22 14L21 14L21 15L22 15L22 17L21 17L21 16L19 16L19 14L18 14L18 15L16 15L16 13L17 13L17 12L15 12L15 16L16 16L16 17L12 17L12 15L13 15L13 14L11 14L11 15L10 15L10 11L11 11L11 10L10 10L10 8L11 8L11 9L12 9L12 10L13 10L13 11L12 11L12 12L11 12L11 13L14 13L14 11L16 11L16 10L15 10L15 9L12 9L12 7L13 7L13 5ZM8 6L8 7L9 7L9 6ZM11 6L11 7L12 7L12 6ZM14 6L14 8L16 8L16 9L17 9L17 8L16 8L16 7L17 7L17 6L16 6L16 7L15 7L15 6ZM6 9L6 10L7 10L7 9ZM9 10L9 11L8 11L8 12L9 12L9 11L10 11L10 10ZM2 11L2 13L3 13L3 14L4 14L4 15L5 15L5 14L4 14L4 13L3 13L3 11ZM4 11L4 12L5 12L5 11ZM6 11L6 12L7 12L7 11ZM6 15L6 16L7 16L7 15ZM10 16L10 18L9 18L9 19L10 19L10 18L12 18L12 19L14 19L14 20L16 20L16 18L12 18L12 17L11 17L11 16ZM17 17L17 20L20 20L20 17ZM18 18L18 19L19 19L19 18ZM23 20L23 21L24 21L24 20ZM9 23L9 24L10 24L10 23ZM14 23L14 24L13 24L13 25L15 25L15 23ZM16 23L16 25L17 25L17 24L18 24L18 25L20 25L20 23L19 23L19 24L18 24L18 23ZM0 0L0 7L7 7L7 0ZM1 1L1 6L6 6L6 1ZM2 2L2 5L5 5L5 2ZM18 0L18 7L25 7L25 0ZM19 1L19 6L24 6L24 1ZM20 2L20 5L23 5L23 2ZM0 18L0 25L7 25L7 18ZM1 19L1 24L6 24L6 19ZM2 20L2 23L5 23L5 20Z" fill="#000000"/></g></g></svg>
