<?xml version="1.0" encoding="UTF-8"?>
<svg xmlns="http://www.w3.org/2000/svg" version="1.1" width="300" height="300" viewBox="0 0 300 300"><rect x="0" y="0" width="300" height="300" fill="#ffffff"/><g transform="scale(14.286)"><g transform="translate(0,0)"><path fill-rule="evenodd" d="M8 0L8 4L9 4L9 5L8 5L8 7L9 7L9 8L13 8L13 5L12 5L12 7L11 7L11 6L10 6L10 5L11 5L11 4L12 4L12 2L13 2L13 1L11 1L11 0ZM9 2L9 3L10 3L10 4L11 4L11 3L10 3L10 2ZM9 6L9 7L10 7L10 6ZM0 8L0 9L2 9L2 8ZM4 8L4 9L3 9L3 10L0 10L0 11L1 11L1 12L0 12L0 13L1 13L1 12L3 12L3 13L8 13L8 14L10 14L10 16L11 16L11 17L12 17L12 16L11 16L11 13L13 13L13 14L14 14L14 15L13 15L13 17L15 17L15 18L14 18L14 19L13 19L13 20L12 20L12 21L14 21L14 19L16 19L16 20L15 20L15 21L16 21L16 20L17 20L17 21L18 21L18 18L19 18L19 17L20 17L20 18L21 18L21 16L20 16L20 14L21 14L21 13L20 13L20 10L21 10L21 8L17 8L17 9L16 9L16 8L15 8L15 9L14 9L14 10L13 10L13 11L15 11L15 12L10 12L10 13L9 13L9 11L12 11L12 9L10 9L10 10L9 10L9 9L7 9L7 8ZM4 9L4 10L3 10L3 12L5 12L5 11L6 11L6 12L8 12L8 11L9 11L9 10L7 10L7 9ZM6 10L6 11L7 11L7 10ZM18 10L18 13L17 13L17 11L16 11L16 13L17 13L17 14L19 14L19 10ZM14 13L14 14L15 14L15 13ZM8 15L8 17L9 17L9 15ZM14 15L14 16L16 16L16 17L17 17L17 18L18 18L18 17L19 17L19 15L18 15L18 16L17 16L17 15ZM9 18L9 19L8 19L8 21L11 21L11 20L10 20L10 19L11 19L11 18ZM20 20L20 21L21 21L21 20ZM0 0L0 7L7 7L7 0ZM1 1L1 6L6 6L6 1ZM2 2L2 5L5 5L5 2ZM14 0L14 7L21 7L21 0ZM15 1L15 6L20 6L20 1ZM16 2L16 5L19 5L19 2ZM0 14L0 21L7 21L7 14ZM1 15L1 20L6 20L6 15ZM2 16L2 19L5 19L5 16Z" fill="#000000"/></g></g></svg>
