<?xml version="1.0" encoding="UTF-8"?>
<svg xmlns="http://www.w3.org/2000/svg" version="1.1" width="300" height="300" viewBox="0 0 300 300"><rect x="0" y="0" width="300" height="300" fill="#ffffff"/><g transform="scale(10.345)"><g transform="translate(0,0)"><path fill-rule="evenodd" d="M10 0L10 1L8 1L8 3L9 3L9 4L8 4L8 8L6 8L6 9L5 9L5 10L4 10L4 8L3 8L3 9L2 9L2 8L0 8L0 9L1 9L1 10L0 10L0 11L1 11L1 10L2 10L2 12L0 12L0 13L2 13L2 14L1 14L1 16L0 16L0 17L1 17L1 16L2 16L2 20L5 20L5 21L7 21L7 20L8 20L8 19L9 19L9 20L10 20L10 21L8 21L8 23L9 23L9 25L8 25L8 26L10 26L10 27L11 27L11 26L12 26L12 28L9 28L9 27L8 27L8 29L12 29L12 28L13 28L13 29L15 29L15 27L13 27L13 24L12 24L12 25L11 25L11 22L12 22L12 21L11 21L11 20L10 20L10 17L11 17L11 16L12 16L12 18L11 18L11 19L12 19L12 20L13 20L13 18L15 18L15 17L13 17L13 16L16 16L16 15L15 15L15 14L14 14L14 12L15 12L15 13L17 13L17 14L18 14L18 15L17 15L17 17L16 17L16 20L19 20L19 21L16 21L16 23L14 23L14 24L15 24L15 25L18 25L18 24L16 24L16 23L17 23L17 22L20 22L20 25L22 25L22 26L24 26L24 27L25 27L25 26L26 26L26 27L27 27L27 29L28 29L28 27L29 27L29 26L28 26L28 25L27 25L27 23L28 23L28 21L25 21L25 19L26 19L26 18L27 18L27 19L28 19L28 20L29 20L29 18L28 18L28 15L29 15L29 14L28 14L28 15L27 15L27 17L26 17L26 18L24 18L24 17L22 17L22 15L23 15L23 14L24 14L24 15L25 15L25 16L26 16L26 12L29 12L29 11L27 11L27 10L29 10L29 9L28 9L28 8L26 8L26 9L25 9L25 8L22 8L22 9L20 9L20 10L19 10L19 9L18 9L18 7L19 7L19 6L20 6L20 8L21 8L21 6L20 6L20 5L19 5L19 4L21 4L21 3L20 3L20 2L21 2L21 1L20 1L20 0L17 0L17 1L16 1L16 0L14 0L14 1L15 1L15 2L14 2L14 4L13 4L13 3L12 3L12 7L11 7L11 4L10 4L10 3L9 3L9 2L11 2L11 0ZM18 1L18 2L20 2L20 1ZM17 3L17 5L16 5L16 4L14 4L14 6L13 6L13 7L12 7L12 8L15 8L15 9L13 9L13 10L15 10L15 12L18 12L18 13L19 13L19 11L18 11L18 10L17 10L17 9L16 9L16 8L15 8L15 7L16 7L16 6L17 6L17 7L18 7L18 6L19 6L19 5L18 5L18 4L19 4L19 3ZM9 5L9 8L8 8L8 10L7 10L7 9L6 9L6 10L5 10L5 11L6 11L6 12L5 12L5 13L6 13L6 14L7 14L7 15L6 15L6 16L5 16L5 17L3 17L3 18L4 18L4 19L6 19L6 20L7 20L7 19L8 19L8 17L9 17L9 16L11 16L11 15L10 15L10 14L11 14L11 13L10 13L10 12L9 12L9 13L8 13L8 14L7 14L7 13L6 13L6 12L7 12L7 11L8 11L8 10L9 10L9 11L11 11L11 8L10 8L10 5ZM15 5L15 6L14 6L14 7L15 7L15 6L16 6L16 5ZM9 9L9 10L10 10L10 9ZM24 9L24 10L20 10L20 12L21 12L21 11L22 11L22 12L24 12L24 14L25 14L25 12L24 12L24 11L25 11L25 9ZM26 9L26 10L27 10L27 9ZM3 10L3 11L4 11L4 10ZM6 10L6 11L7 11L7 10ZM3 12L3 14L4 14L4 12ZM12 12L12 16L13 16L13 12ZM21 13L21 15L20 15L20 14L19 14L19 15L18 15L18 18L17 18L17 19L18 19L18 18L19 18L19 20L21 20L21 19L22 19L22 20L24 20L24 19L22 19L22 17L19 17L19 15L20 15L20 16L21 16L21 15L22 15L22 13ZM8 14L8 15L7 15L7 16L6 16L6 17L8 17L8 15L9 15L9 14ZM3 15L3 16L4 16L4 15ZM0 18L0 19L1 19L1 18ZM6 18L6 19L7 19L7 18ZM20 18L20 19L21 19L21 18ZM0 20L0 21L1 21L1 20ZM10 21L10 22L9 22L9 23L10 23L10 22L11 22L11 21ZM21 21L21 24L24 24L24 21ZM22 22L22 23L23 23L23 22ZM26 22L26 23L25 23L25 25L26 25L26 23L27 23L27 22ZM16 26L16 29L18 29L18 27L20 27L20 29L22 29L22 27L20 27L20 26ZM27 26L27 27L28 27L28 26ZM24 28L24 29L26 29L26 28ZM0 0L0 7L7 7L7 0ZM1 1L1 6L6 6L6 1ZM2 2L2 5L5 5L5 2ZM22 0L22 7L29 7L29 0ZM23 1L23 6L28 6L28 1ZM24 2L24 5L27 5L27 2ZM0 22L0 29L7 29L7 22ZM1 23L1 28L6 28L6 23ZM2 24L2 27L5 27L5 24Z" fill="#000000"/></g></g></svg>
