<?xml version="1.0" encoding="UTF-8"?>
<svg xmlns="http://www.w3.org/2000/svg" version="1.1" width="300" height="300" viewBox="0 0 300 300"><rect x="0" y="0" width="300" height="300" fill="#ffffff"/><g transform="scale(12)"><g transform="translate(0,0)"><path fill-rule="evenodd" d="M9 0L9 1L10 1L10 2L8 2L8 3L9 3L9 4L10 4L10 5L9 5L9 6L8 6L8 8L4 8L4 9L8 9L8 12L9 12L9 11L10 11L10 10L12 10L12 8L14 8L14 7L15 7L15 8L16 8L16 9L13 9L13 12L12 12L12 11L11 11L11 12L12 12L12 13L11 13L11 14L10 14L10 13L8 13L8 15L7 15L7 14L5 14L5 13L4 13L4 11L5 11L5 12L6 12L6 13L7 13L7 12L6 12L6 11L7 11L7 10L3 10L3 14L4 14L4 15L3 15L3 16L2 16L2 15L1 15L1 14L0 14L0 15L1 15L1 16L0 16L0 17L1 17L1 16L2 16L2 17L3 17L3 16L4 16L4 17L5 17L5 16L4 16L4 15L7 15L7 16L6 16L6 17L7 17L7 16L8 16L8 15L9 15L9 16L11 16L11 18L10 18L10 19L11 19L11 18L12 18L12 17L13 17L13 19L12 19L12 21L10 21L10 20L9 20L9 17L8 17L8 21L10 21L10 22L8 22L8 25L11 25L11 24L12 24L12 25L13 25L13 24L15 24L15 22L17 22L17 21L19 21L19 22L20 22L20 23L19 23L19 24L17 24L17 23L16 23L16 25L19 25L19 24L20 24L20 25L22 25L22 23L21 23L21 22L20 22L20 21L22 21L22 19L25 19L25 18L24 18L24 17L23 17L23 18L21 18L21 17L22 17L22 15L25 15L25 14L24 14L24 13L25 13L25 12L24 12L24 11L25 11L25 9L24 9L24 11L23 11L23 14L22 14L22 13L21 13L21 12L22 12L22 11L20 11L20 13L21 13L21 14L22 14L22 15L19 15L19 16L16 16L16 15L18 15L18 14L19 14L19 12L17 12L17 13L15 13L15 14L14 14L14 13L13 13L13 12L15 12L15 10L16 10L16 11L17 11L17 10L18 10L18 11L19 11L19 8L16 8L16 7L17 7L17 5L15 5L15 4L17 4L17 3L16 3L16 1L15 1L15 0L12 0L12 1L10 1L10 0ZM14 1L14 2L13 2L13 3L12 3L12 2L11 2L11 3L12 3L12 4L11 4L11 5L10 5L10 6L9 6L9 7L10 7L10 6L11 6L11 8L12 8L12 6L13 6L13 7L14 7L14 6L15 6L15 7L16 7L16 6L15 6L15 5L14 5L14 4L15 4L15 1ZM13 5L13 6L14 6L14 5ZM0 8L0 9L3 9L3 8ZM9 8L9 10L10 10L10 8ZM22 8L22 9L21 9L21 10L23 10L23 8ZM0 11L0 13L2 13L2 11ZM9 14L9 15L10 15L10 14ZM13 14L13 15L14 15L14 14ZM15 14L15 15L16 15L16 14ZM11 15L11 16L12 16L12 15ZM13 16L13 17L16 17L16 16ZM17 17L17 20L20 20L20 17ZM18 18L18 19L19 19L19 18ZM14 19L14 20L13 20L13 21L16 21L16 20L15 20L15 19ZM11 22L11 23L12 23L12 24L13 24L13 22ZM24 22L24 23L23 23L23 25L25 25L25 24L24 24L24 23L25 23L25 22ZM20 23L20 24L21 24L21 23ZM0 0L0 7L7 7L7 0ZM1 1L1 6L6 6L6 1ZM2 2L2 5L5 5L5 2ZM18 0L18 7L25 7L25 0ZM19 1L19 6L24 6L24 1ZM20 2L20 5L23 5L23 2ZM0 18L0 25L7 25L7 18ZM1 19L1 24L6 24L6 19ZM2 20L2 23L5 23L5 20Z" fill="#000000"/></g></g></svg>
