<?xml version="1.0" encoding="UTF-8"?>
<svg xmlns="http://www.w3.org/2000/svg" version="1.1" width="300" height="300" viewBox="0 0 300 300"><rect x="0" y="0" width="300" height="300" fill="#ffffff"/><g transform="scale(12)"><g transform="translate(0,0)"><path fill-rule="evenodd" d="M8 0L8 1L9 1L9 2L8 2L8 5L9 5L9 4L11 4L11 5L10 5L10 10L9 10L9 8L8 8L8 10L6 10L6 9L7 9L7 8L6 8L6 9L5 9L5 10L6 10L6 11L4 11L4 8L0 8L0 9L2 9L2 10L3 10L3 13L4 13L4 14L5 14L5 13L7 13L7 14L6 14L6 15L5 15L5 16L3 16L3 14L1 14L1 15L0 15L0 16L1 16L1 15L2 15L2 17L7 17L7 16L10 16L10 13L11 13L11 16L12 16L12 14L13 14L13 15L14 15L14 16L15 16L15 18L16 18L16 21L17 21L17 25L19 25L19 24L21 24L21 21L22 21L22 20L21 20L21 18L23 18L23 19L25 19L25 18L23 18L23 17L25 17L25 15L24 15L24 13L25 13L25 12L23 12L23 11L24 11L24 9L25 9L25 8L24 8L24 9L23 9L23 8L20 8L20 9L18 9L18 8L16 8L16 7L17 7L17 4L16 4L16 3L17 3L17 0L12 0L12 1L11 1L11 0L10 0L10 1L9 1L9 0ZM13 1L13 2L11 2L11 4L12 4L12 3L13 3L13 5L12 5L12 6L11 6L11 8L12 8L12 6L13 6L13 8L14 8L14 6L15 6L15 7L16 7L16 4L14 4L14 3L13 3L13 2L14 2L14 1ZM15 1L15 3L16 3L16 1ZM13 5L13 6L14 6L14 5ZM8 6L8 7L9 7L9 6ZM11 9L11 10L12 10L12 9ZM13 9L13 10L14 10L14 9ZM17 9L17 10L15 10L15 11L14 11L14 12L13 12L13 11L11 11L11 13L12 13L12 12L13 12L13 14L14 14L14 15L15 15L15 16L17 16L17 15L19 15L19 16L21 16L21 15L22 15L22 16L23 16L23 15L22 15L22 14L23 14L23 13L21 13L21 12L22 12L22 10L21 10L21 9L20 9L20 10L19 10L19 11L21 11L21 12L19 12L19 14L17 14L17 12L18 12L18 9ZM0 10L0 11L1 11L1 10ZM8 10L8 11L6 11L6 12L8 12L8 11L9 11L9 10ZM16 11L16 12L14 12L14 14L16 14L16 15L17 15L17 14L16 14L16 12L17 12L17 11ZM1 12L1 13L2 13L2 12ZM8 13L8 14L7 14L7 15L6 15L6 16L7 16L7 15L9 15L9 13ZM20 13L20 15L21 15L21 13ZM8 17L8 18L9 18L9 21L8 21L8 25L10 25L10 23L11 23L11 24L12 24L12 23L13 23L13 24L14 24L14 25L15 25L15 23L16 23L16 22L14 22L14 23L13 23L13 22L11 22L11 21L12 21L12 19L14 19L14 18L12 18L12 19L11 19L11 20L10 20L10 18L11 18L11 17L10 17L10 18L9 18L9 17ZM17 17L17 20L20 20L20 17ZM18 18L18 19L19 19L19 18ZM13 20L13 21L15 21L15 20ZM24 20L24 21L23 21L23 23L22 23L22 25L25 25L25 24L23 24L23 23L24 23L24 22L25 22L25 20ZM9 21L9 23L10 23L10 21ZM19 22L19 23L20 23L20 22ZM0 0L0 7L7 7L7 0ZM1 1L1 6L6 6L6 1ZM2 2L2 5L5 5L5 2ZM18 0L18 7L25 7L25 0ZM19 1L19 6L24 6L24 1ZM20 2L20 5L23 5L23 2ZM0 18L0 25L7 25L7 18ZM1 19L1 24L6 24L6 19ZM2 20L2 23L5 23L5 20Z" fill="#000000"/></g></g></svg>
