<?xml version="1.0" encoding="UTF-8"?>
<svg xmlns="http://www.w3.org/2000/svg" version="1.1" width="300" height="300" viewBox="0 0 300 300"><rect x="0" y="0" width="300" height="300" fill="#ffffff"/><g transform="scale(12)"><g transform="translate(0,0)"><path fill-rule="evenodd" d="M10 0L10 1L9 1L9 2L8 2L8 3L9 3L9 5L10 5L10 7L11 7L11 6L12 6L12 8L11 8L11 10L10 10L10 9L9 9L9 6L8 6L8 8L4 8L4 9L3 9L3 8L0 8L0 10L1 10L1 11L0 11L0 12L1 12L1 11L2 11L2 13L4 13L4 14L3 14L3 16L2 16L2 15L1 15L1 14L0 14L0 15L1 15L1 16L0 16L0 17L1 17L1 16L2 16L2 17L3 17L3 16L4 16L4 17L8 17L8 21L9 21L9 22L8 22L8 25L9 25L9 23L10 23L10 24L11 24L11 25L13 25L13 24L15 24L15 25L19 25L19 23L18 23L18 24L17 24L17 22L14 22L14 21L13 21L13 20L16 20L16 21L20 21L20 23L21 23L21 24L20 24L20 25L22 25L22 23L21 23L21 22L22 22L22 19L23 19L23 21L24 21L24 19L25 19L25 18L24 18L24 17L23 17L23 18L21 18L21 17L22 17L22 15L25 15L25 14L24 14L24 13L25 13L25 12L24 12L24 11L25 11L25 9L24 9L24 11L23 11L23 14L22 14L22 13L21 13L21 12L22 12L22 11L18 11L18 9L19 9L19 8L17 8L17 9L15 9L15 10L14 10L14 11L13 11L13 12L12 12L12 11L11 11L11 10L13 10L13 8L14 8L14 7L15 7L15 6L16 6L16 7L17 7L17 5L13 5L13 4L17 4L17 3L16 3L16 2L17 2L17 1L15 1L15 0L14 0L14 1L13 1L13 2L14 2L14 1L15 1L15 3L13 3L13 4L12 4L12 5L10 5L10 3L9 3L9 2L10 2L10 1L11 1L11 0ZM11 2L11 3L12 3L12 2ZM12 5L12 6L13 6L13 7L14 7L14 6L13 6L13 5ZM22 8L22 9L21 9L21 10L23 10L23 8ZM1 9L1 10L2 10L2 11L3 11L3 12L4 12L4 13L5 13L5 11L4 11L4 10L7 10L7 9L4 9L4 10L3 10L3 9ZM9 10L9 11L8 11L8 12L7 12L7 11L6 11L6 12L7 12L7 13L6 13L6 14L5 14L5 15L4 15L4 16L8 16L8 17L10 17L10 18L11 18L11 19L12 19L12 18L11 18L11 17L10 17L10 16L11 16L11 15L12 15L12 16L13 16L13 17L15 17L15 18L16 18L16 17L15 17L15 16L21 16L21 15L22 15L22 14L21 14L21 13L20 13L20 12L19 12L19 13L20 13L20 14L19 14L19 15L18 15L18 14L17 14L17 13L16 13L16 12L17 12L17 11L16 11L16 10L15 10L15 11L16 11L16 12L15 12L15 13L14 13L14 14L13 14L13 15L12 15L12 14L11 14L11 15L6 15L6 14L7 14L7 13L8 13L8 14L9 14L9 13L10 13L10 12L9 12L9 11L10 11L10 10ZM8 12L8 13L9 13L9 12ZM11 12L11 13L12 13L12 12ZM14 14L14 15L13 15L13 16L14 16L14 15L15 15L15 14ZM16 14L16 15L17 15L17 14ZM20 14L20 15L21 15L21 14ZM17 17L17 20L20 20L20 17ZM18 18L18 19L19 19L19 18ZM9 19L9 21L10 21L10 22L11 22L11 24L12 24L12 22L11 22L11 21L12 21L12 20L10 20L10 19ZM13 22L13 23L14 23L14 22ZM24 22L24 23L23 23L23 25L25 25L25 24L24 24L24 23L25 23L25 22ZM0 0L0 7L7 7L7 0ZM1 1L1 6L6 6L6 1ZM2 2L2 5L5 5L5 2ZM18 0L18 7L25 7L25 0ZM19 1L19 6L24 6L24 1ZM20 2L20 5L23 5L23 2ZM0 18L0 25L7 25L7 18ZM1 19L1 24L6 24L6 19ZM2 20L2 23L5 23L5 20Z" fill="#000000"/></g></g></svg>
