<?xml version="1.0" encoding="UTF-8"?>
<svg xmlns="http://www.w3.org/2000/svg" version="1.1" width="300" height="300" viewBox="0 0 300 300"><rect x="0" y="0" width="300" height="300" fill="#ffffff"/><g transform="scale(12)"><g transform="translate(0,0)"><path fill-rule="evenodd" d="M8 0L8 1L11 1L11 3L10 3L10 2L9 2L9 3L10 3L10 5L9 5L9 6L8 6L8 8L9 8L9 9L8 9L8 10L6 10L6 9L7 9L7 8L6 8L6 9L5 9L5 8L3 8L3 10L2 10L2 8L0 8L0 9L1 9L1 12L2 12L2 13L0 13L0 17L1 17L1 15L2 15L2 17L4 17L4 16L5 16L5 17L7 17L7 16L5 16L5 14L6 14L6 15L7 15L7 14L6 14L6 13L7 13L7 12L8 12L8 11L10 11L10 10L11 10L11 9L10 9L10 7L11 7L11 6L12 6L12 9L14 9L14 13L13 13L13 12L12 12L12 14L13 14L13 15L14 15L14 16L15 16L15 17L14 17L14 18L15 18L15 17L16 17L16 20L15 20L15 19L13 19L13 18L12 18L12 17L13 17L13 16L10 16L10 15L11 15L11 12L9 12L9 13L8 13L8 18L9 18L9 20L8 20L8 22L10 22L10 23L8 23L8 25L10 25L10 23L12 23L12 24L11 24L11 25L12 25L12 24L13 24L13 25L14 25L14 24L15 24L15 25L17 25L17 24L16 24L16 23L18 23L18 25L19 25L19 23L18 23L18 22L19 22L19 21L20 21L20 23L21 23L21 18L22 18L22 19L23 19L23 18L24 18L24 19L25 19L25 17L24 17L24 16L25 16L25 10L24 10L24 9L25 9L25 8L24 8L24 9L23 9L23 10L21 10L21 9L19 9L19 8L18 8L18 9L19 9L19 10L17 10L17 11L18 11L18 13L20 13L20 14L19 14L19 15L18 15L18 14L17 14L17 12L15 12L15 11L16 11L16 10L15 10L15 6L14 6L14 7L13 7L13 6L12 6L12 5L17 5L17 1L16 1L16 0L15 0L15 1L14 1L14 0L13 0L13 1L12 1L12 0ZM13 1L13 2L12 2L12 4L15 4L15 3L16 3L16 1L15 1L15 3L13 3L13 2L14 2L14 1ZM10 5L10 6L9 6L9 7L10 7L10 6L11 6L11 5ZM16 6L16 7L17 7L17 6ZM16 8L16 9L17 9L17 8ZM4 9L4 10L3 10L3 11L2 11L2 12L3 12L3 13L4 13L4 12L3 12L3 11L5 11L5 13L6 13L6 12L7 12L7 11L6 11L6 10L5 10L5 9ZM9 9L9 10L10 10L10 9ZM12 10L12 11L13 11L13 10ZM19 10L19 11L21 11L21 12L22 12L22 13L21 13L21 14L24 14L24 12L22 12L22 11L21 11L21 10ZM15 13L15 14L14 14L14 15L15 15L15 16L16 16L16 15L15 15L15 14L16 14L16 13ZM3 14L3 16L4 16L4 14ZM9 14L9 15L10 15L10 14ZM19 15L19 16L21 16L21 17L22 17L22 15ZM9 17L9 18L10 18L10 17ZM17 17L17 20L20 20L20 17ZM18 18L18 19L19 19L19 18ZM10 19L10 20L11 20L11 22L13 22L13 24L14 24L14 21L13 21L13 19ZM15 21L15 22L17 22L17 21ZM23 21L23 23L22 23L22 24L24 24L24 25L25 25L25 21ZM20 24L20 25L21 25L21 24ZM0 0L0 7L7 7L7 0ZM1 1L1 6L6 6L6 1ZM2 2L2 5L5 5L5 2ZM18 0L18 7L25 7L25 0ZM19 1L19 6L24 6L24 1ZM20 2L20 5L23 5L23 2ZM0 18L0 25L7 25L7 18ZM1 19L1 24L6 24L6 19ZM2 20L2 23L5 23L5 20Z" fill="#000000"/></g></g></svg>
