<?xml version="1.0" encoding="UTF-8"?>
<svg xmlns="http://www.w3.org/2000/svg" version="1.1" width="300" height="300" viewBox="0 0 300 300"><rect x="0" y="0" width="300" height="300" fill="#ffffff"/><g transform="scale(12)"><g transform="translate(0,0)"><path fill-rule="evenodd" d="M9 0L9 1L11 1L11 2L9 2L9 3L8 3L8 5L9 5L9 6L8 6L8 7L9 7L9 9L10 9L10 10L8 10L8 8L5 8L5 9L2 9L2 8L0 8L0 11L1 11L1 12L0 12L0 17L1 17L1 14L2 14L2 17L3 17L3 15L4 15L4 17L7 17L7 16L6 16L6 15L7 15L7 14L5 14L5 12L4 12L4 13L3 13L3 11L4 11L4 10L5 10L5 11L10 11L10 12L6 12L6 13L8 13L8 16L11 16L11 15L9 15L9 13L10 13L10 14L11 14L11 12L12 12L12 11L14 11L14 12L13 12L13 13L12 13L12 14L13 14L13 15L12 15L12 17L13 17L13 16L14 16L14 17L15 17L15 18L12 18L12 19L11 19L11 21L10 21L10 20L9 20L9 19L10 19L10 18L11 18L11 17L8 17L8 20L9 20L9 21L10 21L10 22L9 22L9 23L8 23L8 25L14 25L14 23L15 23L15 22L20 22L20 21L21 21L21 18L22 18L22 19L23 19L23 18L22 18L22 17L23 17L23 16L25 16L25 10L24 10L24 9L23 9L23 10L21 10L21 9L22 9L22 8L20 8L20 9L18 9L18 10L17 10L17 11L18 11L18 10L20 10L20 12L18 12L18 13L22 13L22 12L21 12L21 11L23 11L23 10L24 10L24 14L23 14L23 15L22 15L22 14L18 14L18 15L16 15L16 13L17 13L17 12L15 12L15 11L16 11L16 10L15 10L15 11L14 11L14 10L11 10L11 8L10 8L10 7L11 7L11 4L12 4L12 5L13 5L13 4L12 4L12 2L13 2L13 1L12 1L12 0ZM14 0L14 2L15 2L15 5L17 5L17 3L16 3L16 2L17 2L17 1L16 1L16 0ZM15 1L15 2L16 2L16 1ZM9 3L9 5L10 5L10 3ZM9 6L9 7L10 7L10 6ZM12 6L12 9L13 9L13 6ZM14 6L14 9L17 9L17 6L16 6L16 7L15 7L15 6ZM5 9L5 10L7 10L7 9ZM1 10L1 11L2 11L2 10ZM10 10L10 11L11 11L11 10ZM1 12L1 13L2 13L2 14L3 14L3 13L2 13L2 12ZM14 13L14 14L15 14L15 13ZM4 14L4 15L5 15L5 14ZM19 15L19 16L20 16L20 15ZM21 15L21 17L22 17L22 15ZM15 16L15 17L16 17L16 16ZM17 17L17 20L20 20L20 17ZM24 17L24 20L22 20L22 23L23 23L23 22L24 22L24 25L25 25L25 17ZM15 18L15 20L14 20L14 19L12 19L12 21L11 21L11 22L10 22L10 24L12 24L12 23L13 23L13 22L12 22L12 21L14 21L14 22L15 22L15 20L16 20L16 18ZM18 18L18 19L19 19L19 18ZM16 23L16 25L17 25L17 24L18 24L18 25L20 25L20 24L18 24L18 23ZM0 0L0 7L7 7L7 0ZM1 1L1 6L6 6L6 1ZM2 2L2 5L5 5L5 2ZM18 0L18 7L25 7L25 0ZM19 1L19 6L24 6L24 1ZM20 2L20 5L23 5L23 2ZM0 18L0 25L7 25L7 18ZM1 19L1 24L6 24L6 19ZM2 20L2 23L5 23L5 20Z" fill="#000000"/></g></g></svg>
