<?xml version="1.0" encoding="UTF-8"?>
<svg xmlns="http://www.w3.org/2000/svg" version="1.1" width="300" height="300" viewBox="0 0 300 300"><rect x="0" y="0" width="300" height="300" fill="#ffffff"/><g transform="scale(12)"><g transform="translate(0,0)"><path fill-rule="evenodd" d="M8 0L8 2L10 2L10 4L8 4L8 9L7 9L7 8L5 8L5 9L3 9L3 8L0 8L0 11L1 11L1 12L2 12L2 14L0 14L0 15L2 15L2 16L0 16L0 17L2 17L2 16L3 16L3 17L5 17L5 16L4 16L4 15L2 15L2 14L6 14L6 15L8 15L8 16L9 16L9 17L8 17L8 18L9 18L9 19L8 19L8 20L9 20L9 21L10 21L10 23L9 23L9 22L8 22L8 25L9 25L9 24L10 24L10 25L14 25L14 24L15 24L15 23L14 23L14 24L11 24L11 23L12 23L12 22L13 22L13 21L14 21L14 22L16 22L16 25L17 25L17 24L18 24L18 25L19 25L19 24L20 24L20 25L21 25L21 22L22 22L22 23L25 23L25 22L24 22L24 19L25 19L25 18L24 18L24 19L23 19L23 18L22 18L22 17L21 17L21 16L18 16L18 15L19 15L19 13L22 13L22 12L21 12L21 11L22 11L22 10L23 10L23 11L25 11L25 8L23 8L23 9L22 9L22 10L21 10L21 11L20 11L20 9L21 9L21 8L17 8L17 9L16 9L16 7L17 7L17 5L16 5L16 3L17 3L17 2L15 2L15 3L14 3L14 2L13 2L13 0L11 0L11 1L9 1L9 0ZM14 0L14 1L16 1L16 0ZM11 1L11 2L12 2L12 1ZM11 3L11 4L12 4L12 6L11 6L11 5L9 5L9 8L10 8L10 6L11 6L11 7L12 7L12 6L13 6L13 8L11 8L11 10L9 10L9 9L8 9L8 10L9 10L9 11L6 11L6 10L7 10L7 9L5 9L5 13L6 13L6 14L8 14L8 15L9 15L9 13L8 13L8 12L9 12L9 11L10 11L10 15L12 15L12 13L11 13L11 12L14 12L14 14L13 14L13 16L14 16L14 18L15 18L15 20L14 20L14 19L13 19L13 17L12 17L12 16L10 16L10 17L11 17L11 18L12 18L12 21L11 21L11 22L12 22L12 21L13 21L13 20L14 20L14 21L15 21L15 20L16 20L16 18L15 18L15 17L16 17L16 16L17 16L17 15L16 15L16 16L15 16L15 12L17 12L17 13L16 13L16 14L18 14L18 11L19 11L19 12L20 12L20 11L19 11L19 9L17 9L17 11L15 11L15 12L14 12L14 11L13 11L13 8L14 8L14 10L16 10L16 9L15 9L15 7L16 7L16 5L15 5L15 4L14 4L14 3ZM13 4L13 6L14 6L14 7L15 7L15 6L14 6L14 4ZM1 9L1 11L2 11L2 12L4 12L4 11L3 11L3 10L2 10L2 9ZM11 10L11 11L12 11L12 10ZM6 12L6 13L7 13L7 12ZM24 12L24 13L25 13L25 12ZM21 14L21 15L23 15L23 17L24 17L24 15L25 15L25 14L24 14L24 15L23 15L23 14ZM6 16L6 17L7 17L7 16ZM17 17L17 20L20 20L20 17ZM18 18L18 19L19 19L19 18ZM21 18L21 21L22 21L22 22L23 22L23 19L22 19L22 18ZM10 19L10 20L11 20L11 19ZM16 21L16 22L17 22L17 21ZM18 21L18 23L19 23L19 21ZM24 24L24 25L25 25L25 24ZM0 0L0 7L7 7L7 0ZM1 1L1 6L6 6L6 1ZM2 2L2 5L5 5L5 2ZM18 0L18 7L25 7L25 0ZM19 1L19 6L24 6L24 1ZM20 2L20 5L23 5L23 2ZM0 18L0 25L7 25L7 18ZM1 19L1 24L6 24L6 19ZM2 20L2 23L5 23L5 20Z" fill="#000000"/></g></g></svg>
