<?xml version="1.0" encoding="UTF-8"?>
<svg xmlns="http://www.w3.org/2000/svg" version="1.1" width="300" height="300" viewBox="0 0 300 300"><rect x="0" y="0" width="300" height="300" fill="#ffffff"/><g transform="scale(14.286)"><g transform="translate(0,0)"><path fill-rule="evenodd" d="M8 0L8 1L9 1L9 2L8 2L8 5L9 5L9 6L8 6L8 7L9 7L9 6L10 6L10 7L11 7L11 8L10 8L10 10L9 10L9 8L8 8L8 9L7 9L7 8L6 8L6 9L7 9L7 10L5 10L5 9L4 9L4 8L0 8L0 13L1 13L1 12L2 12L2 13L3 13L3 12L2 12L2 11L4 11L4 13L7 13L7 12L8 12L8 14L9 14L9 15L10 15L10 14L9 14L9 11L10 11L10 10L11 10L11 12L10 12L10 13L11 13L11 16L12 16L12 18L11 18L11 19L9 19L9 18L10 18L10 16L9 16L9 17L8 17L8 21L11 21L11 19L13 19L13 21L19 21L19 20L18 20L18 19L19 19L19 18L18 18L18 19L17 19L17 20L16 20L16 17L15 17L15 16L17 16L17 17L19 17L19 16L20 16L20 17L21 17L21 16L20 16L20 15L19 15L19 13L18 13L18 12L17 12L17 11L18 11L18 10L19 10L19 11L21 11L21 10L19 10L19 8L16 8L16 10L17 10L17 11L15 11L15 10L14 10L14 8L13 8L13 6L12 6L12 7L11 7L11 5L13 5L13 3L12 3L12 4L10 4L10 3L11 3L11 0L10 0L10 1L9 1L9 0ZM12 0L12 1L13 1L13 0ZM11 8L11 9L12 9L12 12L13 12L13 14L12 14L12 15L13 15L13 14L15 14L15 15L14 15L14 16L13 16L13 19L14 19L14 16L15 16L15 15L16 15L16 14L15 14L15 13L17 13L17 12L15 12L15 11L14 11L14 10L13 10L13 9L12 9L12 8ZM20 8L20 9L21 9L21 8ZM1 9L1 11L2 11L2 10L3 10L3 9ZM8 10L8 11L9 11L9 10ZM5 11L5 12L7 12L7 11ZM13 11L13 12L14 12L14 11ZM20 12L20 14L21 14L21 12ZM17 14L17 16L18 16L18 14ZM20 19L20 20L21 20L21 19ZM0 0L0 7L7 7L7 0ZM1 1L1 6L6 6L6 1ZM2 2L2 5L5 5L5 2ZM14 0L14 7L21 7L21 0ZM15 1L15 6L20 6L20 1ZM16 2L16 5L19 5L19 2ZM0 14L0 21L7 21L7 14ZM1 15L1 20L6 20L6 15ZM2 16L2 19L5 19L5 16Z" fill="#000000"/></g></g></svg>
