<?xml version="1.0" encoding="UTF-8"?>
<svg xmlns="http://www.w3.org/2000/svg" version="1.1" width="300" height="300" viewBox="0 0 300 300"><rect x="0" y="0" width="300" height="300" fill="#ffffff"/><g transform="scale(12)"><g transform="translate(0,0)"><path fill-rule="evenodd" d="M10 0L10 1L9 1L9 2L8 2L8 3L9 3L9 5L10 5L10 7L11 7L11 8L12 8L12 9L11 9L11 10L10 10L10 9L9 9L9 6L8 6L8 8L4 8L4 9L5 9L5 11L4 11L4 10L3 10L3 12L2 12L2 9L3 9L3 8L0 8L0 10L1 10L1 12L0 12L0 13L1 13L1 14L0 14L0 15L1 15L1 16L0 16L0 17L1 17L1 16L3 16L3 17L8 17L8 21L9 21L9 22L8 22L8 25L11 25L11 24L13 24L13 25L14 25L14 24L16 24L16 25L17 25L17 24L22 24L22 25L25 25L25 24L24 24L24 23L25 23L25 22L24 22L24 23L23 23L23 21L22 21L22 19L23 19L23 20L25 20L25 18L24 18L24 17L23 17L23 18L21 18L21 17L22 17L22 15L25 15L25 14L24 14L24 13L25 13L25 12L24 12L24 11L25 11L25 9L24 9L24 11L23 11L23 14L22 14L22 13L21 13L21 14L22 14L22 15L20 15L20 16L17 16L17 15L19 15L19 12L20 12L20 11L21 11L21 12L22 12L22 11L21 11L21 10L23 10L23 8L22 8L22 9L21 9L21 10L19 10L19 8L17 8L17 9L16 9L16 10L17 10L17 11L18 11L18 10L19 10L19 12L16 12L16 11L15 11L15 12L14 12L14 10L13 10L13 9L14 9L14 8L15 8L15 6L16 6L16 7L17 7L17 6L16 6L16 4L17 4L17 1L16 1L16 0L13 0L13 2L14 2L14 5L13 5L13 3L12 3L12 2L11 2L11 3L12 3L12 5L10 5L10 3L9 3L9 2L10 2L10 1L11 1L11 0ZM14 1L14 2L15 2L15 1ZM14 5L14 6L13 6L13 7L12 7L12 6L11 6L11 7L12 7L12 8L13 8L13 7L14 7L14 6L15 6L15 5ZM6 9L6 10L7 10L7 11L6 11L6 12L7 12L7 13L5 13L5 12L4 12L4 13L2 13L2 14L1 14L1 15L3 15L3 14L7 14L7 15L6 15L6 16L8 16L8 17L9 17L9 18L11 18L11 19L12 19L12 20L13 20L13 19L14 19L14 22L13 22L13 23L14 23L14 22L15 22L15 23L16 23L16 22L17 22L17 21L16 21L16 18L15 18L15 19L14 19L14 18L12 18L12 17L10 17L10 15L12 15L12 14L13 14L13 15L14 15L14 17L16 17L16 16L15 16L15 15L16 15L16 12L15 12L15 13L14 13L14 14L13 14L13 13L12 13L12 14L10 14L10 12L9 12L9 11L10 11L10 10L9 10L9 9L8 9L8 10L7 10L7 9ZM8 10L8 11L9 11L9 10ZM11 11L11 12L12 12L12 11ZM7 13L7 14L8 14L8 15L10 15L10 14L9 14L9 13ZM14 14L14 15L15 15L15 14ZM17 17L17 20L20 20L20 17ZM18 18L18 19L19 19L19 18ZM9 19L9 20L10 20L10 21L11 21L11 22L9 22L9 24L11 24L11 23L12 23L12 21L11 21L11 20L10 20L10 19ZM15 21L15 22L16 22L16 21ZM18 21L18 23L19 23L19 21ZM20 21L20 22L21 22L21 21ZM22 23L22 24L23 24L23 23ZM0 0L0 7L7 7L7 0ZM1 1L1 6L6 6L6 1ZM2 2L2 5L5 5L5 2ZM18 0L18 7L25 7L25 0ZM19 1L19 6L24 6L24 1ZM20 2L20 5L23 5L23 2ZM0 18L0 25L7 25L7 18ZM1 19L1 24L6 24L6 19ZM2 20L2 23L5 23L5 20Z" fill="#000000"/></g></g></svg>
