<?xml version="1.0" encoding="UTF-8"?>
<svg xmlns="http://www.w3.org/2000/svg" version="1.1" width="300" height="300" viewBox="0 0 300 300"><rect x="0" y="0" width="300" height="300" fill="#ffffff"/><g transform="scale(12)"><g transform="translate(0,0)"><path fill-rule="evenodd" d="M12 0L12 1L13 1L13 2L12 2L12 3L8 3L8 4L9 4L9 5L8 5L8 7L9 7L9 8L6 8L6 9L5 9L5 8L0 8L0 9L1 9L1 10L2 10L2 9L3 9L3 10L4 10L4 11L2 11L2 12L1 12L1 13L0 13L0 17L1 17L1 13L2 13L2 14L3 14L3 15L2 15L2 17L8 17L8 19L10 19L10 18L12 18L12 17L14 17L14 20L13 20L13 19L11 19L11 20L8 20L8 25L9 25L9 24L10 24L10 22L12 22L12 23L14 23L14 24L11 24L11 25L16 25L16 24L17 24L17 25L20 25L20 24L19 24L19 23L17 23L17 22L19 22L19 21L21 21L21 20L22 20L22 21L23 21L23 22L22 22L22 23L21 23L21 24L22 24L22 25L25 25L25 21L24 21L24 20L25 20L25 17L24 17L24 18L23 18L23 20L22 20L22 19L21 19L21 16L22 16L22 17L23 17L23 16L25 16L25 10L24 10L24 8L23 8L23 9L22 9L22 8L21 8L21 10L20 10L20 8L19 8L19 10L18 10L18 11L17 11L17 9L18 9L18 8L15 8L15 6L16 6L16 7L17 7L17 4L16 4L16 5L15 5L15 6L14 6L14 4L15 4L15 3L16 3L16 1L17 1L17 0L16 0L16 1L14 1L14 0ZM8 1L8 2L9 2L9 1ZM10 1L10 2L11 2L11 1ZM13 2L13 3L14 3L14 2ZM10 4L10 6L9 6L9 7L10 7L10 6L11 6L11 7L12 7L12 8L14 8L14 9L12 9L12 10L11 10L11 11L10 11L10 9L11 9L11 8L10 8L10 9L6 9L6 10L9 10L9 11L6 11L6 12L7 12L7 13L5 13L5 11L4 11L4 12L3 12L3 13L4 13L4 14L5 14L5 15L4 15L4 16L5 16L5 15L6 15L6 16L8 16L8 17L9 17L9 18L10 18L10 17L12 17L12 15L13 15L13 16L14 16L14 15L15 15L15 13L14 13L14 12L15 12L15 10L16 10L16 9L15 9L15 8L14 8L14 6L13 6L13 7L12 7L12 5L13 5L13 4L12 4L12 5L11 5L11 4ZM12 10L12 11L11 11L11 12L8 12L8 13L7 13L7 14L6 14L6 15L8 15L8 13L11 13L11 14L12 14L12 13L11 13L11 12L13 12L13 10ZM19 10L19 11L20 11L20 10ZM23 10L23 11L22 11L22 12L24 12L24 10ZM16 11L16 13L17 13L17 14L16 14L16 16L17 16L17 14L18 14L18 15L19 15L19 16L20 16L20 14L21 14L21 12L19 12L19 13L17 13L17 11ZM13 13L13 15L14 15L14 13ZM19 13L19 14L20 14L20 13ZM22 13L22 16L23 16L23 14L24 14L24 13ZM9 14L9 17L10 17L10 14ZM17 17L17 20L20 20L20 17ZM15 18L15 19L16 19L16 18ZM18 18L18 19L19 19L19 18ZM9 21L9 22L10 22L10 21ZM12 21L12 22L13 22L13 21ZM14 21L14 23L15 23L15 24L16 24L16 23L15 23L15 21ZM23 22L23 23L22 23L22 24L24 24L24 22ZM0 0L0 7L7 7L7 0ZM1 1L1 6L6 6L6 1ZM2 2L2 5L5 5L5 2ZM18 0L18 7L25 7L25 0ZM19 1L19 6L24 6L24 1ZM20 2L20 5L23 5L23 2ZM0 18L0 25L7 25L7 18ZM1 19L1 24L6 24L6 19ZM2 20L2 23L5 23L5 20Z" fill="#000000"/></g></g></svg>
