<?xml version="1.0" encoding="UTF-8"?>
<svg xmlns="http://www.w3.org/2000/svg" version="1.1" width="300" height="300" viewBox="0 0 300 300"><rect x="0" y="0" width="300" height="300" fill="#ffffff"/><g transform="scale(12)"><g transform="translate(0,0)"><path fill-rule="evenodd" d="M9 0L9 1L8 1L8 3L9 3L9 4L8 4L8 8L6 8L6 9L5 9L5 10L2 10L2 8L0 8L0 11L1 11L1 12L0 12L0 13L1 13L1 14L0 14L0 15L1 15L1 16L0 16L0 17L3 17L3 16L4 16L4 15L7 15L7 16L5 16L5 17L7 17L7 16L8 16L8 19L11 19L11 22L10 22L10 20L9 20L9 21L8 21L8 22L10 22L10 23L8 23L8 25L9 25L9 24L10 24L10 25L12 25L12 24L14 24L14 25L19 25L19 23L20 23L20 24L21 24L21 25L22 25L22 23L23 23L23 22L21 22L21 21L22 21L22 20L23 20L23 21L25 21L25 18L21 18L21 17L23 17L23 16L22 16L22 15L23 15L23 14L24 14L24 15L25 15L25 14L24 14L24 13L25 13L25 12L23 12L23 13L21 13L21 12L22 12L22 11L23 11L23 9L24 9L24 11L25 11L25 9L24 9L24 8L22 8L22 9L21 9L21 8L18 8L18 9L15 9L15 10L17 10L17 11L18 11L18 12L16 12L16 11L14 11L14 12L16 12L16 15L19 15L19 12L20 12L20 13L21 13L21 14L20 14L20 15L21 15L21 16L15 16L15 15L13 15L13 12L12 12L12 13L9 13L9 11L11 11L11 10L12 10L12 9L11 9L11 8L10 8L10 7L11 7L11 6L12 6L12 8L13 8L13 6L14 6L14 8L15 8L15 6L16 6L16 8L17 8L17 4L16 4L16 5L15 5L15 2L16 2L16 3L17 3L17 2L16 2L16 1L15 1L15 0L12 0L12 1L11 1L11 2L9 2L9 1L10 1L10 0ZM13 1L13 3L12 3L12 4L9 4L9 5L10 5L10 6L9 6L9 7L10 7L10 6L11 6L11 5L12 5L12 6L13 6L13 3L14 3L14 1ZM3 8L3 9L4 9L4 8ZM8 8L8 11L9 11L9 10L10 10L10 8ZM6 9L6 10L7 10L7 9ZM18 9L18 11L19 11L19 10L20 10L20 12L21 12L21 11L22 11L22 10L21 10L21 9ZM1 10L1 11L2 11L2 10ZM3 11L3 12L4 12L4 13L3 13L3 14L1 14L1 15L4 15L4 14L5 14L5 12L7 12L7 13L6 13L6 14L7 14L7 15L8 15L8 12L7 12L7 11L5 11L5 12L4 12L4 11ZM1 12L1 13L2 13L2 12ZM9 14L9 18L11 18L11 19L12 19L12 20L13 20L13 21L14 21L14 22L16 22L16 23L19 23L19 22L20 22L20 21L16 21L16 20L15 20L15 18L16 18L16 17L13 17L13 16L12 16L12 14ZM21 14L21 15L22 15L22 14ZM10 15L10 17L12 17L12 16L11 16L11 15ZM17 17L17 20L20 20L20 17ZM13 18L13 20L14 20L14 21L15 21L15 20L14 20L14 18ZM18 18L18 19L19 19L19 18ZM23 19L23 20L24 20L24 19ZM24 22L24 23L25 23L25 22ZM10 23L10 24L11 24L11 23ZM14 23L14 24L15 24L15 23ZM23 24L23 25L25 25L25 24ZM0 0L0 7L7 7L7 0ZM1 1L1 6L6 6L6 1ZM2 2L2 5L5 5L5 2ZM18 0L18 7L25 7L25 0ZM19 1L19 6L24 6L24 1ZM20 2L20 5L23 5L23 2ZM0 18L0 25L7 25L7 18ZM1 19L1 24L6 24L6 19ZM2 20L2 23L5 23L5 20Z" fill="#000000"/></g></g></svg>
