<?xml version="1.0" encoding="UTF-8"?>
<svg xmlns="http://www.w3.org/2000/svg" version="1.1" width="300" height="300" viewBox="0 0 300 300"><rect x="0" y="0" width="300" height="300" fill="#ffffff"/><g transform="scale(12)"><g transform="translate(0,0)"><path fill-rule="evenodd" d="M8 0L8 4L9 4L9 5L8 5L8 7L9 7L9 8L10 8L10 9L7 9L7 8L4 8L4 9L5 9L5 10L1 10L1 9L2 9L2 8L0 8L0 12L1 12L1 13L0 13L0 14L1 14L1 13L3 13L3 14L2 14L2 15L3 15L3 14L4 14L4 15L5 15L5 17L8 17L8 18L9 18L9 17L10 17L10 16L13 16L13 18L10 18L10 19L8 19L8 21L9 21L9 23L8 23L8 25L9 25L9 24L12 24L12 25L13 25L13 24L12 24L12 22L11 22L11 21L13 21L13 22L16 22L16 23L14 23L14 25L16 25L16 23L18 23L18 24L17 24L17 25L19 25L19 24L20 24L20 25L25 25L25 24L24 24L24 22L22 22L22 23L19 23L19 21L23 21L23 20L24 20L24 21L25 21L25 20L24 20L24 19L23 19L23 18L22 18L22 17L23 17L23 14L21 14L21 12L22 12L22 13L24 13L24 14L25 14L25 12L24 12L24 9L25 9L25 8L21 8L21 9L20 9L20 8L19 8L19 9L18 9L18 11L17 11L17 6L16 6L16 7L15 7L15 4L16 4L16 5L17 5L17 4L16 4L16 3L17 3L17 2L16 2L16 3L15 3L15 0L13 0L13 2L14 2L14 7L15 7L15 8L16 8L16 10L15 10L15 9L14 9L14 8L11 8L11 5L10 5L10 3L11 3L11 4L12 4L12 2L10 2L10 1L11 1L11 0L10 0L10 1L9 1L9 0ZM16 0L16 1L17 1L17 0ZM9 6L9 7L10 7L10 6ZM12 6L12 7L13 7L13 6ZM6 9L6 10L7 10L7 9ZM10 9L10 10L12 10L12 11L13 11L13 12L14 12L14 13L11 13L11 11L10 11L10 12L9 12L9 11L8 11L8 12L7 12L7 11L6 11L6 12L5 12L5 11L4 11L4 12L5 12L5 13L6 13L6 14L7 14L7 13L10 13L10 14L14 14L14 15L13 15L13 16L14 16L14 18L13 18L13 19L11 19L11 20L9 20L9 21L11 21L11 20L14 20L14 21L16 21L16 22L17 22L17 21L16 21L16 20L15 20L15 19L16 19L16 18L15 18L15 16L16 16L16 15L15 15L15 14L14 14L14 13L16 13L16 14L18 14L18 15L17 15L17 16L19 16L19 13L17 13L17 12L14 12L14 11L15 11L15 10L13 10L13 9ZM19 9L19 12L20 12L20 9ZM21 9L21 10L22 10L22 11L23 11L23 10L22 10L22 9ZM2 11L2 12L3 12L3 11ZM6 12L6 13L7 13L7 12ZM8 14L8 15L9 15L9 16L8 16L8 17L9 17L9 16L10 16L10 15L9 15L9 14ZM20 14L20 16L21 16L21 14ZM6 15L6 16L7 16L7 15ZM14 15L14 16L15 16L15 15ZM0 16L0 17L2 17L2 16ZM3 16L3 17L4 17L4 16ZM17 17L17 20L20 20L20 17ZM24 17L24 18L25 18L25 17ZM14 18L14 19L15 19L15 18ZM18 18L18 19L19 19L19 18ZM21 18L21 19L22 19L22 18ZM10 22L10 23L11 23L11 22ZM0 0L0 7L7 7L7 0ZM1 1L1 6L6 6L6 1ZM2 2L2 5L5 5L5 2ZM18 0L18 7L25 7L25 0ZM19 1L19 6L24 6L24 1ZM20 2L20 5L23 5L23 2ZM0 18L0 25L7 25L7 18ZM1 19L1 24L6 24L6 19ZM2 20L2 23L5 23L5 20Z" fill="#000000"/></g></g></svg>
