<?xml version="1.0" encoding="UTF-8"?>
<svg xmlns="http://www.w3.org/2000/svg" version="1.1" width="300" height="300" viewBox="0 0 300 300"><rect x="0" y="0" width="300" height="300" fill="#ffffff"/><g transform="scale(12)"><g transform="translate(0,0)"><path fill-rule="evenodd" d="M8 0L8 1L11 1L11 3L10 3L10 2L9 2L9 3L10 3L10 5L9 5L9 6L8 6L8 8L9 8L9 9L7 9L7 8L6 8L6 9L5 9L5 8L3 8L3 9L2 9L2 8L0 8L0 9L1 9L1 10L0 10L0 11L1 11L1 12L2 12L2 13L0 13L0 17L1 17L1 15L3 15L3 16L4 16L4 17L5 17L5 16L4 16L4 15L7 15L7 16L6 16L6 17L8 17L8 18L9 18L9 19L10 19L10 18L11 18L11 19L12 19L12 20L11 20L11 21L9 21L9 20L8 20L8 22L10 22L10 23L8 23L8 25L9 25L9 24L10 24L10 23L12 23L12 24L11 24L11 25L14 25L14 24L15 24L15 25L17 25L17 24L16 24L16 23L18 23L18 25L19 25L19 23L18 23L18 22L19 22L19 21L20 21L20 23L21 23L21 18L22 18L22 19L23 19L23 18L24 18L24 20L23 20L23 21L22 21L22 22L23 22L23 23L22 23L22 24L24 24L24 25L25 25L25 21L24 21L24 20L25 20L25 17L24 17L24 16L25 16L25 10L24 10L24 9L25 9L25 8L24 8L24 9L23 9L23 10L21 10L21 9L19 9L19 8L18 8L18 9L19 9L19 10L15 10L15 9L16 9L16 8L17 8L17 6L16 6L16 7L15 7L15 6L14 6L14 7L13 7L13 6L12 6L12 5L17 5L17 1L16 1L16 0L14 0L14 1L12 1L12 0ZM14 1L14 2L16 2L16 1ZM12 2L12 3L13 3L13 4L16 4L16 3L13 3L13 2ZM10 5L10 6L9 6L9 7L10 7L10 9L9 9L9 10L8 10L8 11L6 11L6 10L7 10L7 9L6 9L6 10L5 10L5 11L4 11L4 10L2 10L2 11L3 11L3 12L4 12L4 13L3 13L3 14L7 14L7 15L9 15L9 16L8 16L8 17L10 17L10 15L12 15L12 16L11 16L11 17L12 17L12 18L15 18L15 19L14 19L14 20L16 20L16 17L15 17L15 16L16 16L16 15L15 15L15 14L16 14L16 13L17 13L17 14L18 14L18 15L19 15L19 16L21 16L21 17L22 17L22 15L19 15L19 14L20 14L20 13L18 13L18 11L17 11L17 12L16 12L16 13L15 13L15 11L14 11L14 9L15 9L15 7L14 7L14 8L13 8L13 9L11 9L11 8L12 8L12 6L11 6L11 5ZM10 6L10 7L11 7L11 6ZM10 9L10 10L9 10L9 11L8 11L8 12L9 12L9 13L7 13L7 12L6 12L6 13L7 13L7 14L9 14L9 13L10 13L10 14L11 14L11 13L12 13L12 12L13 12L13 13L14 13L14 14L15 14L15 13L14 13L14 12L13 12L13 10L11 10L11 9ZM10 10L10 11L9 11L9 12L12 12L12 11L11 11L11 10ZM19 10L19 11L21 11L21 12L22 12L22 13L21 13L21 14L24 14L24 12L22 12L22 11L21 11L21 10ZM14 15L14 16L15 16L15 15ZM12 16L12 17L13 17L13 16ZM17 17L17 20L20 20L20 17ZM18 18L18 19L19 19L19 18ZM11 21L11 22L13 22L13 24L14 24L14 23L15 23L15 22L17 22L17 21L15 21L15 22L13 22L13 21ZM20 24L20 25L21 25L21 24ZM0 0L0 7L7 7L7 0ZM1 1L1 6L6 6L6 1ZM2 2L2 5L5 5L5 2ZM18 0L18 7L25 7L25 0ZM19 1L19 6L24 6L24 1ZM20 2L20 5L23 5L23 2ZM0 18L0 25L7 25L7 18ZM1 19L1 24L6 24L6 19ZM2 20L2 23L5 23L5 20Z" fill="#000000"/></g></g></svg>
