<?xml version="1.0" encoding="UTF-8"?>
<svg xmlns="http://www.w3.org/2000/svg" version="1.1" width="300" height="300" viewBox="0 0 300 300"><rect x="0" y="0" width="300" height="300" fill="#ffffff"/><g transform="scale(12)"><g transform="translate(0,0)"><path fill-rule="evenodd" d="M8 0L8 2L10 2L10 4L8 4L8 9L7 9L7 8L5 8L5 9L3 9L3 8L0 8L0 9L2 9L2 10L3 10L3 11L1 11L1 10L0 10L0 12L1 12L1 14L0 14L0 15L2 15L2 16L0 16L0 17L2 17L2 16L3 16L3 17L8 17L8 18L9 18L9 16L6 16L6 15L7 15L7 14L8 14L8 12L6 12L6 11L8 11L8 9L9 9L9 10L11 10L11 11L12 11L12 10L11 10L11 8L13 8L13 9L14 9L14 10L13 10L13 11L14 11L14 10L15 10L15 11L17 11L17 9L19 9L19 11L18 11L18 14L16 14L16 13L17 13L17 12L15 12L15 14L14 14L14 12L11 12L11 13L12 13L12 15L11 15L11 14L10 14L10 11L9 11L9 14L10 14L10 16L13 16L13 17L14 17L14 16L13 16L13 15L15 15L15 16L16 16L16 17L15 17L15 18L13 18L13 19L14 19L14 20L11 20L11 21L10 21L10 20L9 20L9 19L8 19L8 20L9 20L9 21L10 21L10 22L8 22L8 25L11 25L11 24L12 24L12 25L15 25L15 24L13 24L13 22L14 22L14 20L15 20L15 22L16 22L16 25L17 25L17 24L18 24L18 25L19 25L19 23L22 23L22 22L21 22L21 18L22 18L22 19L23 19L23 20L24 20L24 21L23 21L23 23L25 23L25 22L24 22L24 21L25 21L25 18L24 18L24 19L23 19L23 18L22 18L22 17L21 17L21 16L20 16L20 15L23 15L23 17L24 17L24 15L25 15L25 14L24 14L24 15L23 15L23 14L20 14L20 15L19 15L19 13L22 13L22 12L21 12L21 11L22 11L22 10L23 10L23 11L25 11L25 8L23 8L23 9L22 9L22 10L21 10L21 11L20 11L20 9L21 9L21 8L17 8L17 9L16 9L16 7L17 7L17 6L16 6L16 7L15 7L15 6L14 6L14 8L13 8L13 6L12 6L12 4L11 4L11 3L14 3L14 4L13 4L13 5L15 5L15 3L17 3L17 2L13 2L13 1L14 1L14 0L11 0L11 1L9 1L9 0ZM15 0L15 1L16 1L16 0ZM11 1L11 2L12 2L12 1ZM16 4L16 5L17 5L17 4ZM9 5L9 8L10 8L10 6L11 6L11 7L12 7L12 6L11 6L11 5ZM14 8L14 9L15 9L15 10L16 10L16 9L15 9L15 8ZM5 9L5 11L6 11L6 10L7 10L7 9ZM3 11L3 12L2 12L2 15L3 15L3 16L5 16L5 15L6 15L6 14L7 14L7 13L5 13L5 12L4 12L4 11ZM19 11L19 12L20 12L20 11ZM3 12L3 14L5 14L5 13L4 13L4 12ZM24 12L24 13L25 13L25 12ZM16 15L16 16L17 16L17 15ZM18 15L18 16L19 16L19 15ZM10 17L10 18L11 18L11 19L12 19L12 18L11 18L11 17ZM17 17L17 20L20 20L20 17ZM15 18L15 20L16 20L16 18ZM18 18L18 19L19 19L19 18ZM11 21L11 23L9 23L9 24L11 24L11 23L12 23L12 21ZM16 21L16 22L17 22L17 21ZM18 21L18 23L19 23L19 21ZM20 24L20 25L21 25L21 24ZM24 24L24 25L25 25L25 24ZM0 0L0 7L7 7L7 0ZM1 1L1 6L6 6L6 1ZM2 2L2 5L5 5L5 2ZM18 0L18 7L25 7L25 0ZM19 1L19 6L24 6L24 1ZM20 2L20 5L23 5L23 2ZM0 18L0 25L7 25L7 18ZM1 19L1 24L6 24L6 19ZM2 20L2 23L5 23L5 20Z" fill="#000000"/></g></g></svg>
