<?xml version="1.0" encoding="UTF-8"?>
<svg xmlns="http://www.w3.org/2000/svg" version="1.1" width="300" height="300" viewBox="0 0 300 300"><rect x="0" y="0" width="300" height="300" fill="#ffffff"/><g transform="scale(12)"><g transform="translate(0,0)"><path fill-rule="evenodd" d="M8 0L8 4L10 4L10 3L11 3L11 4L12 4L12 2L11 2L11 1L10 1L10 0ZM13 0L13 1L14 1L14 2L15 2L15 3L14 3L14 4L13 4L13 5L14 5L14 8L13 8L13 6L12 6L12 8L13 8L13 9L14 9L14 10L15 10L15 12L17 12L17 13L19 13L19 16L17 16L17 15L18 15L18 14L16 14L16 13L14 13L14 12L13 12L13 10L11 10L11 12L12 12L12 13L13 13L13 14L15 14L15 15L14 15L14 16L12 16L12 14L10 14L10 13L7 13L7 12L6 12L6 11L7 11L7 10L8 10L8 11L9 11L9 12L10 12L10 10L8 10L8 9L7 9L7 8L4 8L4 9L7 9L7 10L3 10L3 11L1 11L1 10L2 10L2 8L0 8L0 14L2 14L2 15L3 15L3 16L0 16L0 17L7 17L7 16L8 16L8 18L9 18L9 19L8 19L8 21L9 21L9 23L8 23L8 25L9 25L9 24L10 24L10 25L11 25L11 24L12 24L12 25L13 25L13 24L12 24L12 22L11 22L11 20L9 20L9 19L13 19L13 18L14 18L14 19L15 19L15 20L16 20L16 21L14 21L14 20L12 20L12 21L13 21L13 22L16 22L16 23L14 23L14 25L16 25L16 23L18 23L18 24L17 24L17 25L20 25L20 24L19 24L19 21L23 21L23 20L24 20L24 21L25 21L25 20L24 20L24 19L23 19L23 18L22 18L22 17L23 17L23 14L21 14L21 12L22 12L22 13L24 13L24 14L25 14L25 12L24 12L24 9L25 9L25 8L21 8L21 9L20 9L20 8L19 8L19 9L18 9L18 11L17 11L17 9L16 9L16 8L17 8L17 6L16 6L16 7L15 7L15 5L14 5L14 4L16 4L16 5L17 5L17 0L16 0L16 2L15 2L15 1L14 1L14 0ZM8 5L8 7L9 7L9 8L10 8L10 9L11 9L11 5L10 5L10 7L9 7L9 5ZM14 8L14 9L15 9L15 10L16 10L16 9L15 9L15 8ZM19 9L19 12L20 12L20 9ZM21 9L21 10L22 10L22 11L23 11L23 10L22 10L22 9ZM3 11L3 13L5 13L5 14L4 14L4 15L5 15L5 16L7 16L7 15L8 15L8 16L9 16L9 18L13 18L13 17L10 17L10 16L11 16L11 15L10 15L10 14L9 14L9 15L8 15L8 14L7 14L7 13L5 13L5 11ZM1 12L1 13L2 13L2 12ZM6 14L6 15L7 15L7 14ZM9 15L9 16L10 16L10 15ZM15 15L15 16L14 16L14 17L15 17L15 16L16 16L16 15ZM20 15L20 16L21 16L21 15ZM17 17L17 20L20 20L20 17ZM24 17L24 18L25 18L25 17ZM15 18L15 19L16 19L16 18ZM18 18L18 19L19 19L19 18ZM21 18L21 19L22 19L22 18ZM16 21L16 22L17 22L17 21ZM10 22L10 24L11 24L11 22ZM21 22L21 25L25 25L25 24L24 24L24 22L23 22L23 23L22 23L22 22ZM0 0L0 7L7 7L7 0ZM1 1L1 6L6 6L6 1ZM2 2L2 5L5 5L5 2ZM18 0L18 7L25 7L25 0ZM19 1L19 6L24 6L24 1ZM20 2L20 5L23 5L23 2ZM0 18L0 25L7 25L7 18ZM1 19L1 24L6 24L6 19ZM2 20L2 23L5 23L5 20Z" fill="#000000"/></g></g></svg>
