<?xml version="1.0" encoding="UTF-8"?>
<svg xmlns="http://www.w3.org/2000/svg" version="1.1" width="300" height="300" viewBox="0 0 300 300"><rect x="0" y="0" width="300" height="300" fill="#ffffff"/><g transform="scale(12)"><g transform="translate(0,0)"><path fill-rule="evenodd" d="M8 0L8 1L9 1L9 2L10 2L10 3L11 3L11 1L14 1L14 0L11 0L11 1L9 1L9 0ZM15 0L15 1L16 1L16 2L15 2L15 3L16 3L16 4L13 4L13 3L14 3L14 2L12 2L12 4L11 4L11 5L10 5L10 4L9 4L9 5L10 5L10 8L9 8L9 6L8 6L8 8L9 8L9 9L7 9L7 8L6 8L6 9L7 9L7 10L6 10L6 11L8 11L8 12L4 12L4 11L5 11L5 10L1 10L1 9L2 9L2 8L0 8L0 11L1 11L1 12L0 12L0 17L1 17L1 15L2 15L2 16L3 16L3 17L4 17L4 16L5 16L5 17L8 17L8 18L10 18L10 17L11 17L11 19L12 19L12 21L14 21L14 24L12 24L12 25L15 25L15 22L17 22L17 23L18 23L18 22L20 22L20 23L21 23L21 22L20 22L20 21L21 21L21 18L22 18L22 19L23 19L23 21L22 21L22 22L23 22L23 23L22 23L22 24L24 24L24 25L25 25L25 20L24 20L24 19L25 19L25 17L24 17L24 16L25 16L25 10L24 10L24 9L25 9L25 8L24 8L24 9L23 9L23 10L21 10L21 9L19 9L19 8L18 8L18 10L21 10L21 11L20 11L20 12L18 12L18 11L16 11L16 10L15 10L15 9L16 9L16 7L17 7L17 1L16 1L16 0ZM12 4L12 5L11 5L11 7L12 7L12 9L10 9L10 10L9 10L9 11L10 11L10 10L12 10L12 11L13 11L13 12L14 12L14 13L15 13L15 12L16 12L16 11L15 11L15 10L14 10L14 11L13 11L13 10L12 10L12 9L13 9L13 7L14 7L14 8L15 8L15 7L16 7L16 5L13 5L13 4ZM12 5L12 7L13 7L13 5ZM14 6L14 7L15 7L15 6ZM3 8L3 9L5 9L5 8ZM21 11L21 12L22 12L22 13L21 13L21 14L20 14L20 15L19 15L19 16L21 16L21 17L22 17L22 15L21 15L21 14L24 14L24 12L22 12L22 11ZM3 12L3 13L4 13L4 12ZM8 12L8 13L9 13L9 14L7 14L7 13L6 13L6 14L2 14L2 15L6 15L6 16L7 16L7 15L9 15L9 16L8 16L8 17L10 17L10 15L11 15L11 14L13 14L13 13L11 13L11 12L10 12L10 13L9 13L9 12ZM17 12L17 13L16 13L16 14L17 14L17 15L18 15L18 14L19 14L19 13L18 13L18 12ZM6 14L6 15L7 15L7 14ZM9 14L9 15L10 15L10 14ZM12 15L12 16L11 16L11 17L13 17L13 18L12 18L12 19L14 19L14 17L16 17L16 16L14 16L14 15ZM17 17L17 20L20 20L20 17ZM15 18L15 20L16 20L16 18ZM18 18L18 19L19 19L19 18ZM23 18L23 19L24 19L24 18ZM9 19L9 20L8 20L8 22L10 22L10 24L11 24L11 22L10 22L10 21L11 21L11 20L10 20L10 19ZM9 20L9 21L10 21L10 20ZM12 22L12 23L13 23L13 22ZM8 23L8 25L9 25L9 23ZM16 24L16 25L17 25L17 24ZM18 24L18 25L19 25L19 24ZM20 24L20 25L21 25L21 24ZM0 0L0 7L7 7L7 0ZM1 1L1 6L6 6L6 1ZM2 2L2 5L5 5L5 2ZM18 0L18 7L25 7L25 0ZM19 1L19 6L24 6L24 1ZM20 2L20 5L23 5L23 2ZM0 18L0 25L7 25L7 18ZM1 19L1 24L6 24L6 19ZM2 20L2 23L5 23L5 20Z" fill="#000000"/></g></g></svg>
