<?xml version="1.0" encoding="UTF-8"?>
<svg xmlns="http://www.w3.org/2000/svg" version="1.1" width="300" height="300" viewBox="0 0 300 300"><rect x="0" y="0" width="300" height="300" fill="#ffffff"/><g transform="scale(12)"><g transform="translate(0,0)"><path fill-rule="evenodd" d="M8 0L8 2L10 2L10 4L8 4L8 9L7 9L7 8L5 8L5 9L3 9L3 8L0 8L0 9L3 9L3 10L4 10L4 11L5 11L5 10L6 10L6 11L7 11L7 12L5 12L5 14L4 14L4 15L3 15L3 16L0 16L0 17L3 17L3 16L6 16L6 17L7 17L7 16L6 16L6 15L7 15L7 14L6 14L6 13L8 13L8 18L9 18L9 19L8 19L8 20L9 20L9 22L8 22L8 25L9 25L9 23L10 23L10 25L13 25L13 23L12 23L12 22L13 22L13 20L12 20L12 18L13 18L13 19L14 19L14 20L15 20L15 21L16 21L16 22L14 22L14 23L15 23L15 25L17 25L17 24L18 24L18 25L19 25L19 24L20 24L20 25L21 25L21 22L19 22L19 24L18 24L18 21L21 21L21 18L22 18L22 19L23 19L23 21L22 21L22 23L25 23L25 22L24 22L24 20L25 20L25 18L24 18L24 19L23 19L23 18L22 18L22 17L21 17L21 15L23 15L23 17L24 17L24 15L25 15L25 14L24 14L24 15L23 15L23 14L21 14L21 15L20 15L20 13L22 13L22 12L21 12L21 11L22 11L22 10L23 10L23 11L25 11L25 8L23 8L23 9L22 9L22 10L21 10L21 11L20 11L20 9L21 9L21 8L16 8L16 9L15 9L15 8L14 8L14 9L15 9L15 10L11 10L11 8L12 8L12 9L13 9L13 6L14 6L14 7L15 7L15 3L14 3L14 2L13 2L13 1L15 1L15 0L11 0L11 1L9 1L9 0ZM11 1L11 2L12 2L12 1ZM16 2L16 4L17 4L17 2ZM11 3L11 4L12 4L12 6L11 6L11 5L9 5L9 8L10 8L10 6L11 6L11 7L12 7L12 6L13 6L13 5L14 5L14 4L13 4L13 3ZM16 5L16 7L17 7L17 5ZM6 9L6 10L7 10L7 11L8 11L8 10L9 10L9 11L10 11L10 14L11 14L11 10L9 10L9 9L8 9L8 10L7 10L7 9ZM17 9L17 10L16 10L16 12L15 12L15 11L12 11L12 13L13 13L13 14L12 14L12 15L9 15L9 16L10 16L10 17L9 17L9 18L11 18L11 16L13 16L13 17L14 17L14 19L15 19L15 20L16 20L16 17L15 17L15 16L17 16L17 15L18 15L18 16L20 16L20 15L19 15L19 14L18 14L18 12L19 12L19 11L18 11L18 12L17 12L17 10L18 10L18 9ZM0 10L0 13L1 13L1 14L0 14L0 15L2 15L2 14L3 14L3 12L2 12L2 13L1 13L1 10ZM8 12L8 13L9 13L9 12ZM16 12L16 13L15 13L15 14L13 14L13 15L14 15L14 16L15 16L15 15L17 15L17 12ZM24 12L24 13L25 13L25 12ZM17 17L17 20L20 20L20 17ZM18 18L18 19L19 19L19 18ZM10 19L10 20L11 20L11 21L10 21L10 22L11 22L11 21L12 21L12 20L11 20L11 19ZM16 22L16 23L17 23L17 22ZM11 23L11 24L12 24L12 23ZM24 24L24 25L25 25L25 24ZM0 0L0 7L7 7L7 0ZM1 1L1 6L6 6L6 1ZM2 2L2 5L5 5L5 2ZM18 0L18 7L25 7L25 0ZM19 1L19 6L24 6L24 1ZM20 2L20 5L23 5L23 2ZM0 18L0 25L7 25L7 18ZM1 19L1 24L6 24L6 19ZM2 20L2 23L5 23L5 20Z" fill="#000000"/></g></g></svg>
