<?xml version="1.0" encoding="UTF-8"?>
<svg xmlns="http://www.w3.org/2000/svg" version="1.1" width="300" height="300" viewBox="0 0 300 300"><rect x="0" y="0" width="300" height="300" fill="#ffffff"/><g transform="scale(12)"><g transform="translate(0,0)"><path fill-rule="evenodd" d="M9 0L9 1L8 1L8 2L9 2L9 3L8 3L8 4L10 4L10 7L11 7L11 4L12 4L12 5L13 5L13 6L12 6L12 9L13 9L13 6L14 6L14 7L15 7L15 8L14 8L14 9L15 9L15 10L14 10L14 12L15 12L15 13L16 13L16 10L17 10L17 11L18 11L18 10L20 10L20 12L21 12L21 14L20 14L20 15L21 15L21 16L19 16L19 14L18 14L18 15L17 15L17 16L16 16L16 19L14 19L14 20L15 20L15 21L12 21L12 19L13 19L13 18L11 18L11 16L9 16L9 17L8 17L8 16L6 16L6 15L8 15L8 14L9 14L9 15L11 15L11 13L12 13L12 14L13 14L13 15L12 15L12 17L13 17L13 16L14 16L14 17L15 17L15 16L14 16L14 15L16 15L16 14L14 14L14 13L12 13L12 11L13 11L13 10L11 10L11 11L10 11L10 9L11 9L11 8L6 8L6 9L8 9L8 11L9 11L9 12L8 12L8 14L6 14L6 13L7 13L7 12L5 12L5 11L7 11L7 10L5 10L5 8L0 8L0 12L1 12L1 11L3 11L3 12L2 12L2 13L3 13L3 14L4 14L4 15L5 15L5 16L6 16L6 17L8 17L8 19L10 19L10 20L8 20L8 25L9 25L9 21L12 21L12 22L13 22L13 23L12 23L12 25L13 25L13 24L14 24L14 25L15 25L15 24L17 24L17 25L19 25L19 24L20 24L20 25L21 25L21 24L22 24L22 25L25 25L25 17L24 17L24 18L23 18L23 19L24 19L24 20L22 20L22 19L21 19L21 16L22 16L22 17L23 17L23 16L25 16L25 10L24 10L24 8L23 8L23 9L22 9L22 8L21 8L21 10L20 10L20 8L19 8L19 9L18 9L18 8L16 8L16 7L17 7L17 6L16 6L16 5L17 5L17 4L16 4L16 2L17 2L17 0L14 0L14 1L11 1L11 2L10 2L10 0ZM12 2L12 4L14 4L14 5L15 5L15 4L14 4L14 3L15 3L15 2ZM10 3L10 4L11 4L11 3ZM8 5L8 7L9 7L9 5ZM15 6L15 7L16 7L16 6ZM1 9L1 10L3 10L3 11L5 11L5 10L3 10L3 9ZM17 9L17 10L18 10L18 9ZM23 10L23 11L22 11L22 12L24 12L24 10ZM3 12L3 13L4 13L4 14L5 14L5 13L4 13L4 12ZM10 12L10 13L9 13L9 14L10 14L10 13L11 13L11 12ZM17 12L17 13L19 13L19 12ZM0 13L0 17L1 17L1 13ZM22 13L22 16L23 16L23 14L24 14L24 13ZM2 15L2 16L3 16L3 15ZM9 17L9 18L10 18L10 17ZM17 17L17 20L20 20L20 17ZM18 18L18 19L19 19L19 18ZM21 20L21 21L22 21L22 24L24 24L24 22L23 22L23 21L22 21L22 20ZM15 21L15 23L14 23L14 24L15 24L15 23L18 23L18 24L19 24L19 23L20 23L20 24L21 24L21 22L17 22L17 21ZM10 23L10 24L11 24L11 23ZM0 0L0 7L7 7L7 0ZM1 1L1 6L6 6L6 1ZM2 2L2 5L5 5L5 2ZM18 0L18 7L25 7L25 0ZM19 1L19 6L24 6L24 1ZM20 2L20 5L23 5L23 2ZM0 18L0 25L7 25L7 18ZM1 19L1 24L6 24L6 19ZM2 20L2 23L5 23L5 20Z" fill="#000000"/></g></g></svg>
