<?xml version="1.0" encoding="UTF-8"?>
<svg xmlns="http://www.w3.org/2000/svg" version="1.1" width="300" height="300" viewBox="0 0 300 300"><rect x="0" y="0" width="300" height="300" fill="#ffffff"/><g transform="scale(12)"><g transform="translate(0,0)"><path fill-rule="evenodd" d="M8 0L8 1L11 1L11 3L10 3L10 2L9 2L9 3L10 3L10 5L9 5L9 6L8 6L8 8L9 8L9 9L10 9L10 10L9 10L9 11L10 11L10 10L11 10L11 12L8 12L8 9L7 9L7 8L6 8L6 9L7 9L7 10L6 10L6 11L5 11L5 10L4 10L4 9L5 9L5 8L3 8L3 10L2 10L2 11L1 11L1 10L0 10L0 11L1 11L1 12L0 12L0 17L1 17L1 15L3 15L3 16L4 16L4 17L8 17L8 18L9 18L9 16L10 16L10 19L9 19L9 20L8 20L8 22L9 22L9 20L12 20L12 21L13 21L13 22L14 22L14 24L13 24L13 23L12 23L12 22L11 22L11 21L10 21L10 22L11 22L11 23L10 23L10 24L9 24L9 23L8 23L8 25L14 25L14 24L15 24L15 25L17 25L17 24L16 24L16 23L18 23L18 25L19 25L19 24L20 24L20 25L21 25L21 24L20 24L20 23L22 23L22 24L24 24L24 25L25 25L25 21L24 21L24 20L25 20L25 17L24 17L24 16L25 16L25 10L24 10L24 9L25 9L25 8L24 8L24 9L23 9L23 10L21 10L21 9L19 9L19 8L18 8L18 9L19 9L19 10L17 10L17 11L16 11L16 10L15 10L15 9L16 9L16 7L17 7L17 1L16 1L16 0L15 0L15 1L14 1L14 0L13 0L13 1L12 1L12 0ZM13 1L13 2L12 2L12 3L13 3L13 7L12 7L12 6L11 6L11 5L10 5L10 6L9 6L9 7L10 7L10 9L11 9L11 10L12 10L12 11L13 11L13 13L12 13L12 12L11 12L11 14L10 14L10 16L11 16L11 17L12 17L12 19L13 19L13 18L15 18L15 19L14 19L14 20L16 20L16 17L15 17L15 16L16 16L16 15L15 15L15 14L16 14L16 13L17 13L17 14L18 14L18 15L19 15L19 16L21 16L21 17L22 17L22 15L19 15L19 14L20 14L20 13L18 13L18 11L17 11L17 12L16 12L16 11L15 11L15 10L14 10L14 9L13 9L13 7L14 7L14 8L15 8L15 7L16 7L16 5L14 5L14 4L16 4L16 3L13 3L13 2L14 2L14 1ZM15 1L15 2L16 2L16 1ZM10 6L10 7L11 7L11 6ZM14 6L14 7L15 7L15 6ZM0 8L0 9L2 9L2 8ZM19 10L19 11L21 11L21 12L22 12L22 13L21 13L21 14L24 14L24 12L22 12L22 11L21 11L21 10ZM2 11L2 12L1 12L1 13L2 13L2 14L3 14L3 15L5 15L5 16L7 16L7 15L6 15L6 14L8 14L8 12L7 12L7 11L6 11L6 12L7 12L7 13L5 13L5 14L4 14L4 13L3 13L3 12L5 12L5 11ZM14 12L14 13L13 13L13 14L12 14L12 17L13 17L13 15L14 15L14 16L15 16L15 15L14 15L14 14L15 14L15 13L16 13L16 12ZM17 17L17 20L20 20L20 17ZM18 18L18 19L19 19L19 18ZM21 18L21 21L23 21L23 20L24 20L24 18L23 18L23 19L22 19L22 18ZM14 21L14 22L17 22L17 21ZM19 21L19 22L18 22L18 23L20 23L20 21ZM22 22L22 23L23 23L23 22ZM0 0L0 7L7 7L7 0ZM1 1L1 6L6 6L6 1ZM2 2L2 5L5 5L5 2ZM18 0L18 7L25 7L25 0ZM19 1L19 6L24 6L24 1ZM20 2L20 5L23 5L23 2ZM0 18L0 25L7 25L7 18ZM1 19L1 24L6 24L6 19ZM2 20L2 23L5 23L5 20Z" fill="#000000"/></g></g></svg>
