<?xml version="1.0" encoding="UTF-8"?>
<svg xmlns="http://www.w3.org/2000/svg" version="1.1" width="300" height="300" viewBox="0 0 300 300"><rect x="0" y="0" width="300" height="300" fill="#ffffff"/><g transform="scale(12)"><g transform="translate(0,0)"><path fill-rule="evenodd" d="M8 0L8 1L10 1L10 0ZM15 0L15 1L14 1L14 2L11 2L11 4L10 4L10 3L9 3L9 2L8 2L8 5L9 5L9 6L8 6L8 7L9 7L9 8L8 8L8 10L10 10L10 9L9 9L9 8L10 8L10 7L11 7L11 8L12 8L12 7L13 7L13 6L14 6L14 7L15 7L15 6L14 6L14 4L15 4L15 1L17 1L17 0ZM16 2L16 3L17 3L17 2ZM12 3L12 5L10 5L10 6L9 6L9 7L10 7L10 6L11 6L11 7L12 7L12 5L13 5L13 4L14 4L14 3ZM16 4L16 9L15 9L15 8L13 8L13 9L15 9L15 10L14 10L14 11L11 11L11 13L10 13L10 12L9 12L9 11L8 11L8 14L9 14L9 13L10 13L10 15L7 15L7 14L6 14L6 13L7 13L7 12L6 12L6 11L7 11L7 10L6 10L6 9L7 9L7 8L6 8L6 9L4 9L4 8L0 8L0 12L2 12L2 14L1 14L1 15L0 15L0 16L1 16L1 15L2 15L2 17L3 17L3 16L4 16L4 15L5 15L5 14L6 14L6 15L7 15L7 16L5 16L5 17L7 17L7 16L11 16L11 17L12 17L12 18L13 18L13 19L14 19L14 18L16 18L16 21L17 21L17 25L20 25L20 23L22 23L22 25L25 25L25 24L23 24L23 23L24 23L24 22L25 22L25 18L23 18L23 17L25 17L25 15L24 15L24 13L25 13L25 12L23 12L23 11L24 11L24 9L25 9L25 8L24 8L24 9L23 9L23 8L20 8L20 9L18 9L18 8L17 8L17 4ZM3 9L3 11L2 11L2 12L3 12L3 13L4 13L4 14L5 14L5 13L6 13L6 12L5 12L5 11L6 11L6 10L4 10L4 9ZM17 9L17 10L15 10L15 12L16 12L16 14L15 14L15 15L14 15L14 14L13 14L13 13L14 13L14 12L13 12L13 13L12 13L12 14L11 14L11 15L13 15L13 17L15 17L15 16L17 16L17 15L19 15L19 16L21 16L21 15L22 15L22 16L23 16L23 15L22 15L22 14L23 14L23 13L21 13L21 12L22 12L22 10L21 10L21 9L20 9L20 10L19 10L19 11L21 11L21 12L19 12L19 14L17 14L17 12L18 12L18 9ZM16 11L16 12L17 12L17 11ZM20 13L20 15L21 15L21 13ZM2 14L2 15L3 15L3 14ZM16 14L16 15L17 15L17 14ZM8 17L8 18L9 18L9 19L11 19L11 20L10 20L10 21L11 21L11 20L12 20L12 19L11 19L11 18L9 18L9 17ZM17 17L17 20L20 20L20 17ZM18 18L18 19L19 19L19 18ZM21 18L21 20L22 20L22 21L24 21L24 20L23 20L23 18ZM13 20L13 22L11 22L11 23L10 23L10 22L9 22L9 21L8 21L8 25L9 25L9 23L10 23L10 25L11 25L11 24L14 24L14 25L15 25L15 24L14 24L14 23L16 23L16 22L14 22L14 21L15 21L15 20ZM13 22L13 23L14 23L14 22ZM19 22L19 23L20 23L20 22ZM22 22L22 23L23 23L23 22ZM0 0L0 7L7 7L7 0ZM1 1L1 6L6 6L6 1ZM2 2L2 5L5 5L5 2ZM18 0L18 7L25 7L25 0ZM19 1L19 6L24 6L24 1ZM20 2L20 5L23 5L23 2ZM0 18L0 25L7 25L7 18ZM1 19L1 24L6 24L6 19ZM2 20L2 23L5 23L5 20Z" fill="#000000"/></g></g></svg>
