<?xml version="1.0" encoding="UTF-8"?>
<svg xmlns="http://www.w3.org/2000/svg" version="1.1" width="300" height="300" viewBox="0 0 300 300"><rect x="0" y="0" width="300" height="300" fill="#ffffff"/><g transform="scale(12)"><g transform="translate(0,0)"><path fill-rule="evenodd" d="M10 0L10 1L9 1L9 2L8 2L8 3L9 3L9 5L10 5L10 7L11 7L11 8L12 8L12 9L11 9L11 10L10 10L10 9L9 9L9 6L8 6L8 8L4 8L4 9L3 9L3 8L0 8L0 10L1 10L1 9L3 9L3 10L4 10L4 11L7 11L7 10L8 10L8 9L9 9L9 10L10 10L10 11L8 11L8 12L6 12L6 13L5 13L5 12L4 12L4 13L3 13L3 12L2 12L2 11L1 11L1 13L3 13L3 14L4 14L4 13L5 13L5 15L4 15L4 16L3 16L3 15L1 15L1 14L0 14L0 15L1 15L1 16L0 16L0 17L1 17L1 16L2 16L2 17L5 17L5 16L6 16L6 17L7 17L7 16L8 16L8 15L7 15L7 14L6 14L6 13L8 13L8 12L10 12L10 13L9 13L9 17L8 17L8 21L9 21L9 17L10 17L10 16L11 16L11 18L10 18L10 20L11 20L11 22L12 22L12 23L11 23L11 24L9 24L9 23L10 23L10 22L8 22L8 25L11 25L11 24L12 24L12 25L13 25L13 24L14 24L14 23L15 23L15 25L19 25L19 24L20 24L20 23L21 23L21 25L22 25L22 23L23 23L23 25L25 25L25 24L24 24L24 23L25 23L25 22L24 22L24 23L23 23L23 21L24 21L24 20L25 20L25 18L24 18L24 17L23 17L23 21L22 21L22 19L21 19L21 17L22 17L22 15L25 15L25 14L24 14L24 13L25 13L25 12L24 12L24 11L25 11L25 9L24 9L24 11L23 11L23 14L22 14L22 13L21 13L21 12L22 12L22 11L18 11L18 9L19 9L19 8L17 8L17 9L15 9L15 10L14 10L14 11L12 11L12 13L11 13L11 10L13 10L13 8L15 8L15 6L16 6L16 7L17 7L17 5L15 5L15 3L13 3L13 2L16 2L16 3L17 3L17 2L16 2L16 1L15 1L15 0L14 0L14 1L13 1L13 2L12 2L12 1L11 1L11 0ZM9 2L9 3L10 3L10 4L11 4L11 5L13 5L13 7L12 7L12 6L11 6L11 7L12 7L12 8L13 8L13 7L14 7L14 6L15 6L15 5L13 5L13 4L11 4L11 2ZM22 8L22 9L21 9L21 10L23 10L23 8ZM6 9L6 10L7 10L7 9ZM15 10L15 11L14 11L14 12L13 12L13 13L14 13L14 14L13 14L13 15L14 15L14 14L15 14L15 16L13 16L13 17L15 17L15 18L16 18L16 17L15 17L15 16L19 16L19 15L18 15L18 14L17 14L17 13L16 13L16 12L17 12L17 11L16 11L16 10ZM15 11L15 12L16 12L16 11ZM19 12L19 13L20 13L20 14L21 14L21 15L20 15L20 16L21 16L21 15L22 15L22 14L21 14L21 13L20 13L20 12ZM11 14L11 16L12 16L12 14ZM16 14L16 15L17 15L17 14ZM6 15L6 16L7 16L7 15ZM17 17L17 20L20 20L20 17ZM11 18L11 20L12 20L12 19L13 19L13 18ZM18 18L18 19L19 19L19 18ZM14 19L14 20L15 20L15 21L14 21L14 22L13 22L13 23L14 23L14 22L17 22L17 24L18 24L18 23L20 23L20 21L16 21L16 20L15 20L15 19ZM0 0L0 7L7 7L7 0ZM1 1L1 6L6 6L6 1ZM2 2L2 5L5 5L5 2ZM18 0L18 7L25 7L25 0ZM19 1L19 6L24 6L24 1ZM20 2L20 5L23 5L23 2ZM0 18L0 25L7 25L7 18ZM1 19L1 24L6 24L6 19ZM2 20L2 23L5 23L5 20Z" fill="#000000"/></g></g></svg>
