<?xml version="1.0" encoding="UTF-8"?>
<svg xmlns="http://www.w3.org/2000/svg" version="1.1" width="300" height="300" viewBox="0 0 300 300"><rect x="0" y="0" width="300" height="300" fill="#ffffff"/><g transform="scale(12)"><g transform="translate(0,0)"><path fill-rule="evenodd" d="M8 0L8 2L10 2L10 4L8 4L8 9L7 9L7 8L5 8L5 9L3 9L3 8L0 8L0 9L1 9L1 10L0 10L0 11L1 11L1 10L2 10L2 11L3 11L3 12L0 12L0 13L1 13L1 14L0 14L0 15L2 15L2 13L3 13L3 14L4 14L4 13L8 13L8 14L9 14L9 13L10 13L10 11L8 11L8 9L9 9L9 10L11 10L11 11L12 11L12 12L11 12L11 13L12 13L12 14L11 14L11 15L10 15L10 16L9 16L9 15L7 15L7 14L5 14L5 17L8 17L8 18L9 18L9 17L10 17L10 16L11 16L11 17L12 17L12 18L10 18L10 19L13 19L13 18L14 18L14 16L16 16L16 17L15 17L15 18L16 18L16 20L15 20L15 21L14 21L14 20L13 20L13 21L12 21L12 20L11 20L11 21L12 21L12 22L11 22L11 23L10 23L10 20L9 20L9 19L8 19L8 20L9 20L9 22L8 22L8 25L9 25L9 24L10 24L10 25L13 25L13 24L11 24L11 23L14 23L14 22L16 22L16 25L17 25L17 24L18 24L18 25L19 25L19 23L21 23L21 19L22 19L22 17L21 17L21 16L20 16L20 15L23 15L23 17L24 17L24 15L25 15L25 14L24 14L24 15L23 15L23 14L20 14L20 15L19 15L19 13L22 13L22 12L21 12L21 11L22 11L22 10L23 10L23 11L25 11L25 8L23 8L23 9L22 9L22 10L21 10L21 11L20 11L20 9L21 9L21 8L17 8L17 9L16 9L16 8L15 8L15 6L14 6L14 4L15 4L15 5L16 5L16 4L17 4L17 2L16 2L16 4L15 4L15 3L14 3L14 2L13 2L13 3L14 3L14 4L13 4L13 5L12 5L12 2L11 2L11 1L16 1L16 0L10 0L10 1L9 1L9 0ZM9 5L9 8L10 8L10 6L11 6L11 10L12 10L12 8L14 8L14 10L16 10L16 9L15 9L15 8L14 8L14 6L13 6L13 7L12 7L12 5ZM16 6L16 7L17 7L17 6ZM6 9L6 10L3 10L3 11L5 11L5 12L7 12L7 11L6 11L6 10L7 10L7 9ZM17 9L17 11L13 11L13 12L12 12L12 13L13 13L13 14L12 14L12 15L11 15L11 16L14 16L14 15L13 15L13 14L15 14L15 12L17 12L17 13L16 13L16 14L18 14L18 11L19 11L19 12L20 12L20 11L19 11L19 9ZM3 12L3 13L4 13L4 12ZM8 12L8 13L9 13L9 12ZM13 12L13 13L14 13L14 12ZM24 12L24 13L25 13L25 12ZM6 15L6 16L7 16L7 15ZM16 15L16 16L17 16L17 15ZM18 15L18 16L19 16L19 15ZM0 16L0 17L4 17L4 16ZM8 16L8 17L9 17L9 16ZM17 17L17 20L20 20L20 17ZM18 18L18 19L19 19L19 18ZM24 18L24 19L23 19L23 20L24 20L24 19L25 19L25 18ZM13 21L13 22L14 22L14 21ZM16 21L16 22L17 22L17 21ZM18 21L18 23L19 23L19 21ZM22 21L22 23L25 23L25 22L24 22L24 21ZM14 24L14 25L15 25L15 24ZM20 24L20 25L21 25L21 24ZM24 24L24 25L25 25L25 24ZM0 0L0 7L7 7L7 0ZM1 1L1 6L6 6L6 1ZM2 2L2 5L5 5L5 2ZM18 0L18 7L25 7L25 0ZM19 1L19 6L24 6L24 1ZM20 2L20 5L23 5L23 2ZM0 18L0 25L7 25L7 18ZM1 19L1 24L6 24L6 19ZM2 20L2 23L5 23L5 20Z" fill="#000000"/></g></g></svg>
