<?xml version="1.0" encoding="UTF-8"?>
<svg xmlns="http://www.w3.org/2000/svg" version="1.1" width="300" height="300" viewBox="0 0 300 300"><rect x="0" y="0" width="300" height="300" fill="#ffffff"/><g transform="scale(12)"><g transform="translate(0,0)"><path fill-rule="evenodd" d="M8 0L8 1L11 1L11 3L10 3L10 2L9 2L9 3L10 3L10 5L9 5L9 6L8 6L8 8L9 8L9 9L10 9L10 10L8 10L8 9L7 9L7 8L6 8L6 9L5 9L5 8L3 8L3 9L2 9L2 8L0 8L0 17L1 17L1 15L2 15L2 13L1 13L1 11L3 11L3 10L5 10L5 11L7 11L7 12L5 12L5 13L3 13L3 14L5 14L5 13L7 13L7 14L6 14L6 15L3 15L3 16L2 16L2 17L3 17L3 16L6 16L6 17L8 17L8 18L9 18L9 17L8 17L8 16L10 16L10 17L14 17L14 16L13 16L13 15L12 15L12 16L11 16L11 15L10 15L10 14L12 14L12 13L13 13L13 12L12 12L12 11L13 11L13 10L12 10L12 9L13 9L13 8L14 8L14 7L15 7L15 6L14 6L14 5L13 5L13 4L14 4L14 3L15 3L15 4L16 4L16 5L17 5L17 2L15 2L15 0L13 0L13 1L12 1L12 0ZM12 2L12 3L13 3L13 2ZM10 5L10 6L9 6L9 7L10 7L10 9L12 9L12 8L13 8L13 7L14 7L14 6L13 6L13 5L12 5L12 6L11 6L11 5ZM10 6L10 7L11 7L11 6ZM12 6L12 7L13 7L13 6ZM16 6L16 8L15 8L15 9L14 9L14 11L15 11L15 13L14 13L14 14L15 14L15 15L16 15L16 16L15 16L15 17L16 17L16 20L14 20L14 19L15 19L15 18L11 18L11 19L12 19L12 20L11 20L11 22L10 22L10 19L9 19L9 20L8 20L8 22L9 22L9 23L8 23L8 25L12 25L12 23L14 23L14 22L15 22L15 25L17 25L17 24L16 24L16 23L18 23L18 25L19 25L19 24L20 24L20 25L21 25L21 23L22 23L22 24L24 24L24 25L25 25L25 21L24 21L24 20L25 20L25 17L24 17L24 16L25 16L25 10L24 10L24 9L25 9L25 8L24 8L24 9L23 9L23 10L21 10L21 9L19 9L19 8L18 8L18 9L19 9L19 10L16 10L16 8L17 8L17 6ZM1 9L1 10L2 10L2 9ZM6 9L6 10L7 10L7 11L8 11L8 12L7 12L7 13L8 13L8 12L11 12L11 13L12 13L12 12L11 12L11 10L10 10L10 11L8 11L8 10L7 10L7 9ZM19 10L19 11L21 11L21 12L22 12L22 13L21 13L21 14L24 14L24 12L22 12L22 11L21 11L21 10ZM17 11L17 12L16 12L16 13L17 13L17 14L18 14L18 15L19 15L19 16L21 16L21 17L22 17L22 15L19 15L19 14L20 14L20 13L18 13L18 11ZM8 14L8 15L9 15L9 14ZM6 15L6 16L7 16L7 15ZM17 17L17 20L20 20L20 17ZM18 18L18 19L19 19L19 18ZM22 18L22 19L21 19L21 22L22 22L22 21L23 21L23 20L24 20L24 18ZM13 20L13 21L12 21L12 22L13 22L13 21L14 21L14 20ZM15 21L15 22L17 22L17 21ZM19 21L19 22L18 22L18 23L20 23L20 21ZM10 23L10 24L11 24L11 23ZM0 0L0 7L7 7L7 0ZM1 1L1 6L6 6L6 1ZM2 2L2 5L5 5L5 2ZM18 0L18 7L25 7L25 0ZM19 1L19 6L24 6L24 1ZM20 2L20 5L23 5L23 2ZM0 18L0 25L7 25L7 18ZM1 19L1 24L6 24L6 19ZM2 20L2 23L5 23L5 20Z" fill="#000000"/></g></g></svg>
