<?xml version="1.0" encoding="UTF-8"?>
<svg xmlns="http://www.w3.org/2000/svg" version="1.1" width="300" height="300" viewBox="0 0 300 300"><rect x="0" y="0" width="300" height="300" fill="#ffffff"/><g transform="scale(12)"><g transform="translate(0,0)"><path fill-rule="evenodd" d="M9 0L9 1L11 1L11 2L9 2L9 3L8 3L8 5L9 5L9 6L8 6L8 7L9 7L9 9L10 9L10 10L8 10L8 8L5 8L5 10L4 10L4 9L3 9L3 10L1 10L1 9L2 9L2 8L0 8L0 10L1 10L1 13L0 13L0 17L1 17L1 13L3 13L3 14L2 14L2 16L3 16L3 17L4 17L4 16L5 16L5 17L8 17L8 20L9 20L9 23L8 23L8 25L9 25L9 24L10 24L10 25L14 25L14 24L15 24L15 25L17 25L17 24L18 24L18 25L21 25L21 24L20 24L20 23L17 23L17 22L19 22L19 21L20 21L20 22L21 22L21 23L23 23L23 22L24 22L24 25L25 25L25 21L23 21L23 20L22 20L22 22L21 22L21 19L22 19L22 17L23 17L23 16L25 16L25 10L24 10L24 9L23 9L23 10L21 10L21 9L22 9L22 8L20 8L20 9L19 9L19 10L18 10L18 11L17 11L17 10L11 10L11 8L10 8L10 7L11 7L11 4L12 4L12 5L13 5L13 4L15 4L15 5L16 5L16 8L17 8L17 3L16 3L16 2L17 2L17 1L16 1L16 0L15 0L15 1L14 1L14 0L13 0L13 1L12 1L12 0ZM13 1L13 2L12 2L12 4L13 4L13 3L15 3L15 2L16 2L16 1L15 1L15 2L14 2L14 1ZM9 3L9 5L10 5L10 3ZM9 6L9 7L10 7L10 6ZM12 6L12 9L13 9L13 6ZM14 6L14 7L15 7L15 6ZM14 8L14 9L15 9L15 8ZM6 9L6 10L5 10L5 12L4 12L4 13L5 13L5 14L7 14L7 15L5 15L5 16L8 16L8 13L9 13L9 16L10 16L10 17L11 17L11 19L12 19L12 20L13 20L13 21L14 21L14 20L16 20L16 17L15 17L15 19L14 19L14 16L16 16L16 15L17 15L17 14L18 14L18 15L19 15L19 16L21 16L21 17L22 17L22 15L23 15L23 14L24 14L24 10L23 10L23 11L21 11L21 12L22 12L22 13L20 13L20 14L19 14L19 13L18 13L18 12L17 12L17 11L12 11L12 12L11 12L11 15L10 15L10 13L9 13L9 12L10 12L10 11L11 11L11 10L10 10L10 11L9 11L9 12L7 12L7 11L6 11L6 10L7 10L7 9ZM19 10L19 11L20 11L20 10ZM5 12L5 13L7 13L7 12ZM13 12L13 13L12 13L12 14L13 14L13 13L14 13L14 12ZM15 12L15 13L16 13L16 14L15 14L15 15L16 15L16 14L17 14L17 12ZM20 14L20 15L22 15L22 14ZM12 15L12 17L13 17L13 15ZM17 17L17 20L20 20L20 17ZM24 17L24 20L25 20L25 17ZM12 18L12 19L13 19L13 18ZM18 18L18 19L19 19L19 18ZM9 19L9 20L10 20L10 24L12 24L12 23L13 23L13 24L14 24L14 22L12 22L12 21L11 21L11 20L10 20L10 19ZM15 21L15 22L17 22L17 21ZM0 0L0 7L7 7L7 0ZM1 1L1 6L6 6L6 1ZM2 2L2 5L5 5L5 2ZM18 0L18 7L25 7L25 0ZM19 1L19 6L24 6L24 1ZM20 2L20 5L23 5L23 2ZM0 18L0 25L7 25L7 18ZM1 19L1 24L6 24L6 19ZM2 20L2 23L5 23L5 20Z" fill="#000000"/></g></g></svg>
