<?xml version="1.0" encoding="UTF-8"?>
<svg xmlns="http://www.w3.org/2000/svg" version="1.1" width="300" height="300" viewBox="0 0 300 300"><rect x="0" y="0" width="300" height="300" fill="#ffffff"/><g transform="scale(12)"><g transform="translate(0,0)"><path fill-rule="evenodd" d="M12 0L12 1L13 1L13 0ZM16 0L16 1L14 1L14 2L15 2L15 3L12 3L12 4L11 4L11 3L8 3L8 4L9 4L9 5L8 5L8 7L9 7L9 8L6 8L6 9L5 9L5 8L0 8L0 11L1 11L1 9L2 9L2 13L1 13L1 12L0 12L0 17L1 17L1 14L2 14L2 17L7 17L7 16L9 16L9 13L11 13L11 14L10 14L10 17L8 17L8 19L10 19L10 20L11 20L11 18L12 18L12 21L10 21L10 22L9 22L9 20L8 20L8 25L15 25L15 24L17 24L17 25L19 25L19 24L20 24L20 25L21 25L21 24L22 24L22 25L25 25L25 21L24 21L24 20L25 20L25 17L24 17L24 18L21 18L21 16L22 16L22 17L23 17L23 16L25 16L25 10L24 10L24 8L23 8L23 9L22 9L22 8L21 8L21 10L20 10L20 8L19 8L19 9L18 9L18 8L15 8L15 6L16 6L16 7L17 7L17 0ZM8 1L8 2L9 2L9 1ZM10 1L10 2L11 2L11 1ZM10 4L10 6L9 6L9 7L10 7L10 6L11 6L11 8L10 8L10 9L9 9L9 10L8 10L8 11L6 11L6 10L7 10L7 9L6 9L6 10L5 10L5 9L3 9L3 12L8 12L8 11L9 11L9 12L12 12L12 11L13 11L13 12L15 12L15 10L16 10L16 13L15 13L15 14L14 14L14 13L12 13L12 14L11 14L11 15L12 15L12 16L11 16L11 17L10 17L10 18L11 18L11 17L12 17L12 18L13 18L13 20L15 20L15 19L16 19L16 16L17 16L17 15L18 15L18 14L20 14L20 16L21 16L21 12L20 12L20 10L18 10L18 9L17 9L17 10L16 10L16 9L15 9L15 10L14 10L14 9L13 9L13 8L14 8L14 6L15 6L15 5L16 5L16 4L12 4L12 5L11 5L11 4ZM12 5L12 7L13 7L13 5ZM10 9L10 11L11 11L11 10L12 10L12 9ZM4 10L4 11L5 11L5 10ZM13 10L13 11L14 11L14 10ZM17 10L17 11L18 11L18 10ZM23 10L23 11L22 11L22 12L24 12L24 10ZM17 12L17 13L19 13L19 12ZM2 13L2 14L3 14L3 16L4 16L4 15L5 15L5 16L7 16L7 15L8 15L8 14L7 14L7 13L6 13L6 14L5 14L5 13L4 13L4 14L3 14L3 13ZM22 13L22 16L23 16L23 14L24 14L24 13ZM6 14L6 15L7 15L7 14ZM13 14L13 15L14 15L14 16L12 16L12 17L13 17L13 18L14 18L14 17L15 17L15 15L16 15L16 14L15 14L15 15L14 15L14 14ZM17 17L17 20L20 20L20 17ZM18 18L18 19L19 19L19 18ZM22 19L22 20L21 20L21 21L22 21L22 22L17 22L17 21L13 21L13 23L12 23L12 22L10 22L10 23L9 23L9 24L11 24L11 23L12 23L12 24L14 24L14 23L18 23L18 24L19 24L19 23L20 23L20 24L21 24L21 23L22 23L22 24L24 24L24 22L23 22L23 21L22 21L22 20L23 20L23 19ZM22 22L22 23L23 23L23 22ZM0 0L0 7L7 7L7 0ZM1 1L1 6L6 6L6 1ZM2 2L2 5L5 5L5 2ZM18 0L18 7L25 7L25 0ZM19 1L19 6L24 6L24 1ZM20 2L20 5L23 5L23 2ZM0 18L0 25L7 25L7 18ZM1 19L1 24L6 24L6 19ZM2 20L2 23L5 23L5 20Z" fill="#000000"/></g></g></svg>
