<?xml version="1.0" encoding="UTF-8"?>
<svg xmlns="http://www.w3.org/2000/svg" version="1.1" width="300" height="300" viewBox="0 0 300 300"><rect x="0" y="0" width="300" height="300" fill="#ffffff"/><g transform="scale(12)"><g transform="translate(0,0)"><path fill-rule="evenodd" d="M8 0L8 2L10 2L10 4L8 4L8 9L7 9L7 8L5 8L5 9L4 9L4 10L3 10L3 8L0 8L0 11L1 11L1 9L2 9L2 10L3 10L3 12L4 12L4 11L7 11L7 12L6 12L6 13L7 13L7 14L5 14L5 13L2 13L2 14L0 14L0 15L2 15L2 14L3 14L3 16L0 16L0 17L4 17L4 14L5 14L5 15L7 15L7 16L5 16L5 17L8 17L8 18L9 18L9 19L8 19L8 20L9 20L9 21L10 21L10 22L11 22L11 23L12 23L12 24L9 24L9 22L8 22L8 25L12 25L12 24L13 24L13 25L14 25L14 24L15 24L15 25L17 25L17 24L18 24L18 25L21 25L21 22L19 22L19 24L18 24L18 21L21 21L21 19L22 19L22 17L21 17L21 15L23 15L23 17L24 17L24 15L25 15L25 14L24 14L24 15L23 15L23 14L21 14L21 15L20 15L20 13L22 13L22 12L21 12L21 11L22 11L22 10L23 10L23 11L25 11L25 8L23 8L23 9L22 9L22 10L21 10L21 11L20 11L20 9L21 9L21 8L16 8L16 10L13 10L13 11L17 11L17 12L16 12L16 14L15 14L15 13L14 13L14 12L11 12L11 13L12 13L12 15L11 15L11 14L9 14L9 13L10 13L10 11L8 11L8 9L9 9L9 10L11 10L11 11L12 11L12 10L11 10L11 8L13 8L13 6L14 6L14 7L15 7L15 5L16 5L16 7L17 7L17 5L16 5L16 4L17 4L17 2L16 2L16 4L15 4L15 3L14 3L14 2L15 2L15 1L16 1L16 0L11 0L11 1L9 1L9 0ZM11 1L11 2L12 2L12 1ZM13 1L13 2L14 2L14 1ZM11 3L11 4L12 4L12 6L11 6L11 5L9 5L9 8L10 8L10 6L11 6L11 7L12 7L12 6L13 6L13 5L14 5L14 3ZM14 8L14 9L15 9L15 8ZM6 9L6 10L7 10L7 9ZM17 9L17 10L18 10L18 9ZM18 11L18 12L17 12L17 15L15 15L15 16L14 16L14 13L13 13L13 16L14 16L14 18L15 18L15 19L11 19L11 18L13 18L13 17L12 17L12 16L11 16L11 15L9 15L9 14L8 14L8 17L10 17L10 16L11 16L11 18L10 18L10 19L9 19L9 20L11 20L11 22L12 22L12 20L14 20L14 21L13 21L13 22L14 22L14 23L13 23L13 24L14 24L14 23L15 23L15 22L16 22L16 23L17 23L17 22L16 22L16 21L15 21L15 20L16 20L16 17L15 17L15 16L17 16L17 15L18 15L18 16L20 16L20 15L19 15L19 14L18 14L18 12L19 12L19 11ZM0 12L0 13L1 13L1 12ZM7 12L7 13L9 13L9 12ZM24 12L24 13L25 13L25 12ZM17 17L17 20L20 20L20 17ZM18 18L18 19L19 19L19 18ZM24 18L24 19L23 19L23 23L25 23L25 22L24 22L24 19L25 19L25 18ZM24 24L24 25L25 25L25 24ZM0 0L0 7L7 7L7 0ZM1 1L1 6L6 6L6 1ZM2 2L2 5L5 5L5 2ZM18 0L18 7L25 7L25 0ZM19 1L19 6L24 6L24 1ZM20 2L20 5L23 5L23 2ZM0 18L0 25L7 25L7 18ZM1 19L1 24L6 24L6 19ZM2 20L2 23L5 23L5 20Z" fill="#000000"/></g></g></svg>
