<?xml version="1.0" encoding="UTF-8"?>
<svg xmlns="http://www.w3.org/2000/svg" version="1.1" width="300" height="300" viewBox="0 0 300 300"><rect x="0" y="0" width="300" height="300" fill="#ffffff"/><g transform="scale(12)"><g transform="translate(0,0)"><path fill-rule="evenodd" d="M9 0L9 1L10 1L10 2L8 2L8 3L9 3L9 4L10 4L10 5L9 5L9 6L8 6L8 8L4 8L4 9L3 9L3 8L0 8L0 10L2 10L2 11L3 11L3 10L4 10L4 12L3 12L3 15L1 15L1 14L2 14L2 12L1 12L1 11L0 11L0 12L1 12L1 14L0 14L0 15L1 15L1 16L0 16L0 17L1 17L1 16L3 16L3 17L4 17L4 15L5 15L5 17L8 17L8 21L10 21L10 23L11 23L11 22L12 22L12 23L13 23L13 24L15 24L15 25L19 25L19 24L20 24L20 25L22 25L22 23L23 23L23 25L25 25L25 24L24 24L24 23L25 23L25 22L24 22L24 23L23 23L23 22L22 22L22 19L21 19L21 17L22 17L22 15L25 15L25 14L24 14L24 13L25 13L25 12L24 12L24 11L25 11L25 9L24 9L24 11L23 11L23 14L22 14L22 13L21 13L21 12L22 12L22 11L18 11L18 9L19 9L19 8L17 8L17 9L15 9L15 10L14 10L14 9L13 9L13 8L14 8L14 7L15 7L15 8L16 8L16 7L17 7L17 6L16 6L16 5L15 5L15 3L16 3L16 2L17 2L17 1L15 1L15 0L12 0L12 1L11 1L11 0ZM12 1L12 2L13 2L13 3L15 3L15 2L14 2L14 1ZM11 4L11 5L10 5L10 6L9 6L9 7L10 7L10 6L11 6L11 7L12 7L12 8L11 8L11 9L12 9L12 8L13 8L13 7L14 7L14 6L15 6L15 7L16 7L16 6L15 6L15 5L13 5L13 4ZM11 5L11 6L12 6L12 7L13 7L13 5ZM9 8L9 10L10 10L10 11L9 11L9 13L8 13L8 14L7 14L7 13L6 13L6 14L5 14L5 12L4 12L4 14L5 14L5 15L6 15L6 16L7 16L7 15L8 15L8 17L9 17L9 18L10 18L10 19L9 19L9 20L10 20L10 21L12 21L12 20L11 20L11 19L12 19L12 18L10 18L10 17L11 17L11 15L12 15L12 16L13 16L13 17L14 17L14 18L16 18L16 17L15 17L15 16L19 16L19 15L18 15L18 14L17 14L17 13L16 13L16 12L17 12L17 11L16 11L16 10L15 10L15 11L16 11L16 12L15 12L15 13L14 13L14 14L11 14L11 12L13 12L13 11L14 11L14 10L10 10L10 8ZM22 8L22 9L21 9L21 10L23 10L23 8ZM2 9L2 10L3 10L3 9ZM4 9L4 10L5 10L5 11L6 11L6 12L8 12L8 10L7 10L7 9L6 9L6 10L5 10L5 9ZM6 10L6 11L7 11L7 10ZM19 12L19 13L20 13L20 14L21 14L21 15L22 15L22 14L21 14L21 13L20 13L20 12ZM6 14L6 15L7 15L7 14ZM9 14L9 15L11 15L11 14ZM14 14L14 15L13 15L13 16L14 16L14 15L15 15L15 14ZM16 14L16 15L17 15L17 14ZM17 17L17 20L20 20L20 17ZM23 17L23 19L25 19L25 18L24 18L24 17ZM18 18L18 19L19 19L19 18ZM14 19L14 20L13 20L13 22L14 22L14 23L15 23L15 22L17 22L17 24L18 24L18 23L20 23L20 24L21 24L21 23L20 23L20 21L16 21L16 20L15 20L15 19ZM23 20L23 21L24 21L24 20ZM8 22L8 25L9 25L9 22ZM0 0L0 7L7 7L7 0ZM1 1L1 6L6 6L6 1ZM2 2L2 5L5 5L5 2ZM18 0L18 7L25 7L25 0ZM19 1L19 6L24 6L24 1ZM20 2L20 5L23 5L23 2ZM0 18L0 25L7 25L7 18ZM1 19L1 24L6 24L6 19ZM2 20L2 23L5 23L5 20Z" fill="#000000"/></g></g></svg>
