<?xml version="1.0" encoding="UTF-8"?>
<svg xmlns="http://www.w3.org/2000/svg" version="1.1" width="300" height="300" viewBox="0 0 300 300"><rect x="0" y="0" width="300" height="300" fill="#ffffff"/><g transform="scale(12)"><g transform="translate(0,0)"><path fill-rule="evenodd" d="M8 0L8 4L9 4L9 5L8 5L8 7L9 7L9 6L10 6L10 9L11 9L11 5L10 5L10 4L12 4L12 2L11 2L11 0L10 0L10 2L9 2L9 0ZM13 0L13 2L15 2L15 3L14 3L14 4L13 4L13 5L14 5L14 7L15 7L15 5L14 5L14 4L15 4L15 3L16 3L16 7L17 7L17 3L16 3L16 2L17 2L17 0L16 0L16 2L15 2L15 1L14 1L14 0ZM12 6L12 8L13 8L13 10L9 10L9 11L7 11L7 10L4 10L4 12L3 12L3 11L2 11L2 10L3 10L3 9L2 9L2 8L0 8L0 10L1 10L1 11L0 11L0 12L3 12L3 13L4 13L4 15L3 15L3 14L2 14L2 16L0 16L0 17L2 17L2 16L3 16L3 17L8 17L8 18L9 18L9 19L8 19L8 21L10 21L10 22L9 22L9 23L8 23L8 25L9 25L9 23L10 23L10 25L14 25L14 24L15 24L15 25L16 25L16 23L18 23L18 24L17 24L17 25L25 25L25 24L24 24L24 22L25 22L25 21L24 21L24 20L25 20L25 19L22 19L22 17L23 17L23 14L21 14L21 12L22 12L22 13L24 13L24 14L25 14L25 12L24 12L24 9L25 9L25 8L21 8L21 9L20 9L20 8L19 8L19 9L18 9L18 11L17 11L17 9L16 9L16 8L15 8L15 9L14 9L14 8L13 8L13 6ZM4 8L4 9L7 9L7 8ZM15 9L15 10L13 10L13 11L12 11L12 12L11 12L11 11L10 11L10 12L8 12L8 14L7 14L7 13L6 13L6 14L5 14L5 16L8 16L8 17L9 17L9 18L10 18L10 19L9 19L9 20L10 20L10 21L12 21L12 20L14 20L14 23L13 23L13 22L12 22L12 24L14 24L14 23L16 23L16 22L17 22L17 21L16 21L16 20L14 20L14 19L16 19L16 18L13 18L13 16L14 16L14 17L15 17L15 16L16 16L16 15L15 15L15 14L14 14L14 13L16 13L16 14L18 14L18 15L17 15L17 16L19 16L19 13L17 13L17 12L14 12L14 11L15 11L15 10L16 10L16 9ZM19 9L19 12L20 12L20 9ZM21 9L21 10L22 10L22 11L23 11L23 10L22 10L22 9ZM5 11L5 12L4 12L4 13L5 13L5 12L7 12L7 11ZM12 12L12 13L14 13L14 12ZM0 13L0 14L1 14L1 13ZM10 13L10 16L9 16L9 14L8 14L8 16L9 16L9 17L10 17L10 18L11 18L11 19L10 19L10 20L12 20L12 18L11 18L11 15L12 15L12 14L11 14L11 13ZM6 14L6 15L7 15L7 14ZM13 14L13 15L14 15L14 16L15 16L15 15L14 15L14 14ZM20 15L20 16L21 16L21 15ZM17 17L17 20L20 20L20 17ZM24 17L24 18L25 18L25 17ZM18 18L18 19L19 19L19 18ZM15 21L15 22L16 22L16 21ZM19 21L19 24L21 24L21 23L22 23L22 21ZM10 22L10 23L11 23L11 22ZM0 0L0 7L7 7L7 0ZM1 1L1 6L6 6L6 1ZM2 2L2 5L5 5L5 2ZM18 0L18 7L25 7L25 0ZM19 1L19 6L24 6L24 1ZM20 2L20 5L23 5L23 2ZM0 18L0 25L7 25L7 18ZM1 19L1 24L6 24L6 19ZM2 20L2 23L5 23L5 20Z" fill="#000000"/></g></g></svg>
