<?xml version="1.0" encoding="UTF-8"?>
<svg xmlns="http://www.w3.org/2000/svg" version="1.1" width="300" height="300" viewBox="0 0 300 300"><rect x="0" y="0" width="300" height="300" fill="#ffffff"/><g transform="scale(12)"><g transform="translate(0,0)"><path fill-rule="evenodd" d="M9 0L9 1L8 1L8 3L9 3L9 4L8 4L8 8L6 8L6 9L5 9L5 10L4 10L4 8L3 8L3 9L2 9L2 8L0 8L0 9L1 9L1 11L0 11L0 13L1 13L1 11L2 11L2 10L3 10L3 11L7 11L7 12L6 12L6 13L5 13L5 12L4 12L4 14L5 14L5 15L3 15L3 16L2 16L2 15L1 15L1 14L0 14L0 15L1 15L1 16L0 16L0 17L4 17L4 16L5 16L5 17L8 17L8 19L9 19L9 20L10 20L10 21L8 21L8 22L12 22L12 23L11 23L11 25L13 25L13 24L14 24L14 22L16 22L16 25L22 25L22 23L23 23L23 22L22 22L22 20L23 20L23 21L24 21L24 20L25 20L25 18L23 18L23 19L21 19L21 17L23 17L23 16L22 16L22 15L23 15L23 14L24 14L24 15L25 15L25 14L24 14L24 13L25 13L25 12L23 12L23 13L21 13L21 12L22 12L22 11L23 11L23 9L24 9L24 11L25 11L25 9L24 9L24 8L22 8L22 9L21 9L21 8L18 8L18 9L17 9L17 8L16 8L16 7L17 7L17 6L16 6L16 5L17 5L17 4L16 4L16 3L17 3L17 2L16 2L16 1L15 1L15 2L14 2L14 3L15 3L15 4L13 4L13 6L12 6L12 5L11 5L11 6L10 6L10 5L9 5L9 4L12 4L12 3L13 3L13 1L14 1L14 0L12 0L12 1L11 1L11 2L9 2L9 1L10 1L10 0ZM15 2L15 3L16 3L16 2ZM15 4L15 5L16 5L16 4ZM9 6L9 7L10 7L10 8L8 8L8 10L10 10L10 8L11 8L11 9L12 9L12 10L11 10L11 11L9 11L9 12L7 12L7 13L6 13L6 14L7 14L7 15L6 15L6 16L8 16L8 14L10 14L10 15L9 15L9 18L10 18L10 17L11 17L11 19L10 19L10 20L11 20L11 21L12 21L12 20L13 20L13 21L14 21L14 20L15 20L15 21L16 21L16 20L15 20L15 18L14 18L14 17L16 17L16 16L19 16L19 15L20 15L20 14L21 14L21 15L22 15L22 14L21 14L21 13L20 13L20 12L21 12L21 11L22 11L22 10L21 10L21 9L19 9L19 10L20 10L20 11L18 11L18 10L17 10L17 11L18 11L18 12L19 12L19 13L20 13L20 14L17 14L17 12L15 12L15 11L16 11L16 10L15 10L15 11L14 11L14 10L13 10L13 9L14 9L14 8L15 8L15 9L16 9L16 8L15 8L15 7L16 7L16 6L15 6L15 7L14 7L14 6L13 6L13 9L12 9L12 6L11 6L11 7L10 7L10 6ZM6 9L6 10L7 10L7 9ZM12 11L12 13L10 13L10 14L11 14L11 17L12 17L12 18L13 18L13 17L14 17L14 16L16 16L16 15L17 15L17 14L16 14L16 13L15 13L15 14L16 14L16 15L13 15L13 12L14 12L14 11ZM2 13L2 14L3 14L3 13ZM7 13L7 14L8 14L8 13ZM12 15L12 16L13 16L13 15ZM17 17L17 20L20 20L20 17ZM18 18L18 19L19 19L19 18ZM23 19L23 20L24 20L24 19ZM17 21L17 23L18 23L18 24L19 24L19 21ZM20 21L20 22L21 22L21 21ZM24 22L24 23L25 23L25 22ZM8 23L8 25L9 25L9 23ZM23 24L23 25L25 25L25 24ZM0 0L0 7L7 7L7 0ZM1 1L1 6L6 6L6 1ZM2 2L2 5L5 5L5 2ZM18 0L18 7L25 7L25 0ZM19 1L19 6L24 6L24 1ZM20 2L20 5L23 5L23 2ZM0 18L0 25L7 25L7 18ZM1 19L1 24L6 24L6 19ZM2 20L2 23L5 23L5 20Z" fill="#000000"/></g></g></svg>
