<?xml version="1.0" encoding="UTF-8"?>
<svg xmlns="http://www.w3.org/2000/svg" version="1.1" width="300" height="300" viewBox="0 0 300 300"><rect x="0" y="0" width="300" height="300" fill="#ffffff"/><g transform="scale(12)"><g transform="translate(0,0)"><path fill-rule="evenodd" d="M8 0L8 4L9 4L9 5L8 5L8 7L9 7L9 6L10 6L10 9L11 9L11 8L12 8L12 9L13 9L13 10L9 10L9 9L7 9L7 8L4 8L4 9L7 9L7 10L5 10L5 11L7 11L7 12L6 12L6 13L5 13L5 12L4 12L4 10L2 10L2 8L0 8L0 10L1 10L1 13L0 13L0 14L2 14L2 15L4 15L4 14L2 14L2 11L3 11L3 12L4 12L4 13L5 13L5 14L6 14L6 15L5 15L5 16L4 16L4 17L8 17L8 18L9 18L9 17L13 17L13 18L10 18L10 20L11 20L11 21L9 21L9 19L8 19L8 21L9 21L9 23L8 23L8 25L9 25L9 24L11 24L11 25L14 25L14 24L12 24L12 22L11 22L11 21L13 21L13 22L14 22L14 23L15 23L15 25L16 25L16 23L18 23L18 24L17 24L17 25L20 25L20 24L19 24L19 21L22 21L22 22L21 22L21 25L25 25L25 24L24 24L24 22L25 22L25 21L24 21L24 20L25 20L25 19L22 19L22 17L23 17L23 14L21 14L21 12L22 12L22 13L24 13L24 14L25 14L25 12L24 12L24 9L25 9L25 8L21 8L21 9L20 9L20 8L19 8L19 9L18 9L18 11L17 11L17 9L16 9L16 10L15 10L15 9L14 9L14 8L13 8L13 6L12 6L12 7L11 7L11 5L10 5L10 4L12 4L12 3L13 3L13 2L14 2L14 4L13 4L13 5L14 5L14 7L15 7L15 5L14 5L14 4L16 4L16 7L17 7L17 0L16 0L16 2L14 2L14 0L13 0L13 1L12 1L12 2L11 2L11 1L10 1L10 2L9 2L9 0ZM10 2L10 3L11 3L11 2ZM19 9L19 12L20 12L20 9ZM21 9L21 10L22 10L22 11L23 11L23 10L22 10L22 9ZM8 10L8 11L9 11L9 10ZM13 10L13 12L14 12L14 14L15 14L15 13L16 13L16 14L18 14L18 15L17 15L17 16L19 16L19 13L17 13L17 12L14 12L14 11L15 11L15 10ZM10 11L10 12L8 12L8 15L6 15L6 16L9 16L9 13L11 13L11 14L10 14L10 15L11 15L11 16L12 16L12 15L13 15L13 17L14 17L14 16L16 16L16 15L13 15L13 13L12 13L12 11ZM6 13L6 14L7 14L7 13ZM11 14L11 15L12 15L12 14ZM20 15L20 16L21 16L21 15ZM0 16L0 17L3 17L3 16ZM17 17L17 20L20 20L20 17ZM24 17L24 18L25 18L25 17ZM13 18L13 20L14 20L14 21L16 21L16 22L15 22L15 23L16 23L16 22L17 22L17 21L16 21L16 20L15 20L15 19L16 19L16 18ZM18 18L18 19L19 19L19 18ZM11 19L11 20L12 20L12 19ZM0 0L0 7L7 7L7 0ZM1 1L1 6L6 6L6 1ZM2 2L2 5L5 5L5 2ZM18 0L18 7L25 7L25 0ZM19 1L19 6L24 6L24 1ZM20 2L20 5L23 5L23 2ZM0 18L0 25L7 25L7 18ZM1 19L1 24L6 24L6 19ZM2 20L2 23L5 23L5 20Z" fill="#000000"/></g></g></svg>
