<?xml version="1.0" encoding="UTF-8"?>
<svg xmlns="http://www.w3.org/2000/svg" version="1.1" width="300" height="300" viewBox="0 0 300 300"><rect x="0" y="0" width="300" height="300" fill="#ffffff"/><g transform="scale(10.345)"><g transform="translate(0,0)"><path fill-rule="evenodd" d="M9 0L9 1L11 1L11 2L9 2L9 3L8 3L8 5L9 5L9 6L8 6L8 7L9 7L9 9L10 9L10 10L9 10L9 11L10 11L10 12L8 12L8 10L5 10L5 9L8 9L8 8L5 8L5 9L4 9L4 10L5 10L5 11L3 11L3 9L2 9L2 8L0 8L0 9L1 9L1 10L0 10L0 11L1 11L1 10L2 10L2 11L3 11L3 13L1 13L1 12L0 12L0 14L1 14L1 15L0 15L0 21L1 21L1 19L2 19L2 21L4 21L4 20L5 20L5 19L7 19L7 20L6 20L6 21L8 21L8 24L9 24L9 26L10 26L10 28L11 28L11 29L12 29L12 27L13 27L13 26L10 26L10 25L14 25L14 23L15 23L15 24L16 24L16 26L15 26L15 27L16 27L16 26L17 26L17 25L18 25L18 24L16 24L16 23L19 23L19 25L20 25L20 26L21 26L21 27L19 27L19 29L20 29L20 28L21 28L21 27L22 27L22 28L23 28L23 29L24 29L24 28L23 28L23 27L25 27L25 28L27 28L27 27L28 27L28 28L29 28L29 27L28 27L28 26L29 26L29 23L27 23L27 24L25 24L25 21L26 21L26 22L27 22L27 21L28 21L28 22L29 22L29 20L28 20L28 19L29 19L29 18L28 18L28 19L27 19L27 18L26 18L26 17L27 17L27 15L28 15L28 16L29 16L29 15L28 15L28 14L29 14L29 13L28 13L28 12L29 12L29 11L28 11L28 10L27 10L27 9L26 9L26 8L24 8L24 10L22 10L22 9L21 9L21 8L20 8L20 7L21 7L21 6L20 6L20 7L19 7L19 4L20 4L20 5L21 5L21 3L19 3L19 4L17 4L17 2L19 2L19 1L20 1L20 2L21 2L21 1L20 1L20 0L19 0L19 1L18 1L18 0L17 0L17 2L16 2L16 0L13 0L13 1L12 1L12 0ZM13 1L13 2L12 2L12 4L11 4L11 7L10 7L10 6L9 6L9 7L10 7L10 8L11 8L11 10L10 10L10 11L11 11L11 10L13 10L13 11L12 11L12 12L11 12L11 15L10 15L10 13L9 13L9 14L8 14L8 12L7 12L7 11L6 11L6 12L4 12L4 13L3 13L3 14L2 14L2 15L3 15L3 14L5 14L5 13L6 13L6 14L8 14L8 15L5 15L5 16L9 16L9 17L10 17L10 16L11 16L11 18L7 18L7 17L4 17L4 16L1 16L1 18L2 18L2 17L3 17L3 18L4 18L4 19L5 19L5 18L7 18L7 19L10 19L10 20L11 20L11 19L12 19L12 21L9 21L9 20L8 20L8 21L9 21L9 23L10 23L10 24L12 24L12 23L13 23L13 22L12 22L12 21L14 21L14 22L17 22L17 21L19 21L19 23L20 23L20 21L19 21L19 20L24 20L24 18L23 18L23 17L25 17L25 16L26 16L26 14L27 14L27 12L28 12L28 11L27 11L27 10L26 10L26 9L25 9L25 12L24 12L24 13L26 13L26 14L25 14L25 15L24 15L24 16L22 16L22 15L23 15L23 14L22 14L22 13L21 13L21 14L20 14L20 12L22 12L22 11L20 11L20 10L21 10L21 9L20 9L20 8L18 8L18 5L17 5L17 4L16 4L16 5L15 5L15 7L14 7L14 6L13 6L13 5L12 5L12 4L14 4L14 2L15 2L15 3L16 3L16 2L15 2L15 1ZM9 3L9 5L10 5L10 3ZM16 5L16 7L17 7L17 5ZM12 6L12 9L13 9L13 8L14 8L14 10L15 10L15 11L14 11L14 12L13 12L13 13L12 13L12 14L13 14L13 15L12 15L12 17L13 17L13 16L14 16L14 17L16 17L16 18L12 18L12 19L14 19L14 20L15 20L15 21L16 21L16 20L15 20L15 19L16 19L16 18L17 18L17 19L18 19L18 20L19 20L19 19L20 19L20 17L19 17L19 16L17 16L17 15L16 15L16 14L17 14L17 13L18 13L18 15L19 15L19 13L18 13L18 12L20 12L20 11L18 11L18 10L19 10L19 9L17 9L17 11L16 11L16 10L15 10L15 8L14 8L14 7L13 7L13 6ZM17 11L17 12L18 12L18 11ZM6 12L6 13L7 13L7 12ZM15 12L15 14L16 14L16 12ZM21 14L21 15L20 15L20 16L21 16L21 15L22 15L22 14ZM17 17L17 18L18 18L18 17ZM21 18L21 19L22 19L22 18ZM25 19L25 20L27 20L27 19ZM21 21L21 24L24 24L24 21ZM10 22L10 23L11 23L11 22ZM22 22L22 23L23 23L23 22ZM22 25L22 27L23 27L23 26L25 26L25 27L26 27L26 25ZM27 25L27 26L28 26L28 25ZM8 27L8 29L9 29L9 27ZM0 0L0 7L7 7L7 0ZM1 1L1 6L6 6L6 1ZM2 2L2 5L5 5L5 2ZM22 0L22 7L29 7L29 0ZM23 1L23 6L28 6L28 1ZM24 2L24 5L27 5L27 2ZM0 22L0 29L7 29L7 22ZM1 23L1 28L6 28L6 23ZM2 24L2 27L5 27L5 24Z" fill="#000000"/></g></g></svg>
