<?xml version="1.0" encoding="UTF-8"?>
<svg xmlns="http://www.w3.org/2000/svg" version="1.1" width="300" height="300" viewBox="0 0 300 300"><rect x="0" y="0" width="300" height="300" fill="#ffffff"/><g transform="scale(12)"><g transform="translate(0,0)"><path fill-rule="evenodd" d="M10 0L10 2L11 2L11 0ZM12 0L12 1L13 1L13 2L12 2L12 4L13 4L13 2L14 2L14 0ZM15 0L15 3L14 3L14 4L15 4L15 5L14 5L14 10L13 10L13 9L12 9L12 7L13 7L13 5L11 5L11 6L10 6L10 4L11 4L11 3L8 3L8 4L9 4L9 5L8 5L8 7L9 7L9 8L6 8L6 9L5 9L5 8L0 8L0 9L1 9L1 10L0 10L0 12L1 12L1 13L0 13L0 17L1 17L1 13L2 13L2 12L3 12L3 15L4 15L4 16L2 16L2 17L4 17L4 16L5 16L5 17L8 17L8 19L10 19L10 20L8 20L8 25L10 25L10 24L11 24L11 25L13 25L13 24L12 24L12 23L14 23L14 24L17 24L17 25L19 25L19 24L22 24L22 25L25 25L25 20L24 20L24 19L25 19L25 17L24 17L24 18L21 18L21 16L22 16L22 17L23 17L23 16L25 16L25 10L24 10L24 8L23 8L23 9L22 9L22 8L21 8L21 10L20 10L20 8L19 8L19 9L18 9L18 8L15 8L15 6L16 6L16 7L17 7L17 6L16 6L16 5L17 5L17 4L16 4L16 2L17 2L17 0ZM8 1L8 2L9 2L9 1ZM9 6L9 7L10 7L10 6ZM11 6L11 7L12 7L12 6ZM10 8L10 9L8 9L8 10L9 10L9 11L8 11L8 12L7 12L7 11L6 11L6 12L7 12L7 13L5 13L5 14L4 14L4 15L5 15L5 16L8 16L8 17L9 17L9 18L10 18L10 19L11 19L11 20L10 20L10 21L9 21L9 23L11 23L11 22L14 22L14 23L18 23L18 24L19 24L19 23L22 23L22 24L24 24L24 22L23 22L23 21L22 21L22 20L23 20L23 19L22 19L22 20L21 20L21 22L17 22L17 21L15 21L15 22L14 22L14 20L15 20L15 19L16 19L16 16L17 16L17 15L18 15L18 14L19 14L19 16L20 16L20 15L21 15L21 12L20 12L20 10L18 10L18 9L17 9L17 10L16 10L16 13L14 13L14 11L15 11L15 10L14 10L14 11L13 11L13 10L12 10L12 9L11 9L11 8ZM2 9L2 10L3 10L3 9ZM4 9L4 10L5 10L5 9ZM6 9L6 10L7 10L7 9ZM10 9L10 11L11 11L11 9ZM17 10L17 11L18 11L18 10ZM23 10L23 11L22 11L22 12L24 12L24 10ZM1 11L1 12L2 12L2 11ZM12 11L12 13L13 13L13 14L10 14L10 13L11 13L11 12L9 12L9 14L10 14L10 18L11 18L11 17L12 17L12 18L13 18L13 17L14 17L14 16L13 16L13 17L12 17L12 15L13 15L13 14L14 14L14 13L13 13L13 11ZM17 12L17 13L19 13L19 12ZM22 13L22 16L23 16L23 14L24 14L24 13ZM6 14L6 15L8 15L8 14ZM15 14L15 15L16 15L16 14ZM17 17L17 20L20 20L20 17ZM18 18L18 19L19 19L19 18ZM12 19L12 21L13 21L13 19ZM10 21L10 22L11 22L11 21ZM22 22L22 23L23 23L23 22ZM0 0L0 7L7 7L7 0ZM1 1L1 6L6 6L6 1ZM2 2L2 5L5 5L5 2ZM18 0L18 7L25 7L25 0ZM19 1L19 6L24 6L24 1ZM20 2L20 5L23 5L23 2ZM0 18L0 25L7 25L7 18ZM1 19L1 24L6 24L6 19ZM2 20L2 23L5 23L5 20Z" fill="#000000"/></g></g></svg>
