<?xml version="1.0" encoding="UTF-8"?>
<svg xmlns="http://www.w3.org/2000/svg" version="1.1" width="300" height="300" viewBox="0 0 300 300"><rect x="0" y="0" width="300" height="300" fill="#ffffff"/><g transform="scale(12)"><g transform="translate(0,0)"><path fill-rule="evenodd" d="M9 0L9 1L8 1L8 2L9 2L9 3L8 3L8 4L10 4L10 7L11 7L11 8L6 8L6 9L7 9L7 10L6 10L6 11L9 11L9 12L6 12L6 13L0 13L0 17L1 17L1 14L6 14L6 15L7 15L7 16L6 16L6 17L8 17L8 19L9 19L9 20L8 20L8 25L9 25L9 24L10 24L10 25L15 25L15 24L17 24L17 25L20 25L20 24L22 24L22 25L25 25L25 21L24 21L24 20L25 20L25 17L24 17L24 18L21 18L21 16L22 16L22 17L23 17L23 16L25 16L25 10L24 10L24 8L23 8L23 9L22 9L22 8L21 8L21 10L20 10L20 8L19 8L19 9L18 9L18 8L17 8L17 6L16 6L16 5L17 5L17 4L16 4L16 5L15 5L15 6L14 6L14 8L12 8L12 7L13 7L13 4L15 4L15 3L16 3L16 2L17 2L17 0L16 0L16 1L15 1L15 3L12 3L12 2L14 2L14 0L13 0L13 1L11 1L11 2L10 2L10 0ZM10 3L10 4L11 4L11 7L12 7L12 4L11 4L11 3ZM8 5L8 7L9 7L9 5ZM15 6L15 8L16 8L16 6ZM0 8L0 12L1 12L1 11L2 11L2 12L5 12L5 8ZM2 9L2 10L4 10L4 9ZM10 9L10 11L11 11L11 12L10 12L10 13L9 13L9 14L8 14L8 16L10 16L10 17L12 17L12 18L11 18L11 19L10 19L10 18L9 18L9 19L10 19L10 20L9 20L9 21L12 21L12 22L9 22L9 23L11 23L11 24L12 24L12 22L13 22L13 24L14 24L14 23L18 23L18 24L19 24L19 23L21 23L21 22L17 22L17 21L12 21L12 19L13 19L13 20L14 20L14 19L16 19L16 16L17 16L17 15L18 15L18 14L20 14L20 16L21 16L21 12L20 12L20 10L18 10L18 9L17 9L17 10L16 10L16 9L15 9L15 10L13 10L13 9L12 9L12 10L11 10L11 9ZM15 10L15 11L14 11L14 12L13 12L13 11L12 11L12 13L10 13L10 14L9 14L9 15L11 15L11 16L12 16L12 15L13 15L13 14L12 14L12 13L14 13L14 12L15 12L15 13L16 13L16 10ZM17 10L17 11L18 11L18 10ZM23 10L23 11L22 11L22 12L24 12L24 10ZM17 12L17 13L19 13L19 12ZM6 13L6 14L7 14L7 13ZM22 13L22 16L23 16L23 14L24 14L24 13ZM11 14L11 15L12 15L12 14ZM15 14L15 15L16 15L16 14ZM4 15L4 16L2 16L2 17L4 17L4 16L5 16L5 15ZM13 16L13 17L15 17L15 16ZM17 17L17 20L20 20L20 17ZM13 18L13 19L14 19L14 18ZM18 18L18 19L19 19L19 18ZM22 19L22 20L21 20L21 21L22 21L22 24L24 24L24 22L23 22L23 21L22 21L22 20L24 20L24 19ZM0 0L0 7L7 7L7 0ZM1 1L1 6L6 6L6 1ZM2 2L2 5L5 5L5 2ZM18 0L18 7L25 7L25 0ZM19 1L19 6L24 6L24 1ZM20 2L20 5L23 5L23 2ZM0 18L0 25L7 25L7 18ZM1 19L1 24L6 24L6 19ZM2 20L2 23L5 23L5 20Z" fill="#000000"/></g></g></svg>
