<?xml version="1.0" encoding="UTF-8"?>
<svg xmlns="http://www.w3.org/2000/svg" version="1.1" width="300" height="300" viewBox="0 0 300 300"><rect x="0" y="0" width="300" height="300" fill="#ffffff"/><g transform="scale(12)"><g transform="translate(0,0)"><path fill-rule="evenodd" d="M8 0L8 2L10 2L10 4L8 4L8 9L7 9L7 8L5 8L5 10L3 10L3 11L2 11L2 12L0 12L0 13L1 13L1 14L0 14L0 15L2 15L2 16L0 16L0 17L3 17L3 16L5 16L5 15L7 15L7 14L8 14L8 18L9 18L9 17L10 17L10 18L11 18L11 19L12 19L12 18L11 18L11 17L10 17L10 16L13 16L13 18L14 18L14 17L15 17L15 18L16 18L16 20L15 20L15 22L13 22L13 21L14 21L14 19L13 19L13 20L11 20L11 21L10 21L10 19L8 19L8 20L9 20L9 22L8 22L8 25L10 25L10 24L13 24L13 25L15 25L15 22L16 22L16 25L17 25L17 24L18 24L18 25L19 25L19 23L21 23L21 19L22 19L22 17L21 17L21 16L18 16L18 15L19 15L19 13L22 13L22 12L21 12L21 11L22 11L22 10L23 10L23 11L25 11L25 8L23 8L23 9L22 9L22 10L21 10L21 11L20 11L20 9L21 9L21 8L17 8L17 5L16 5L16 4L15 4L15 3L17 3L17 1L16 1L16 0L15 0L15 1L14 1L14 0L11 0L11 1L9 1L9 0ZM11 1L11 2L12 2L12 1ZM13 1L13 2L14 2L14 3L11 3L11 4L12 4L12 6L11 6L11 5L9 5L9 8L10 8L10 6L11 6L11 7L12 7L12 6L13 6L13 8L11 8L11 10L9 10L9 9L8 9L8 10L7 10L7 9L6 9L6 10L5 10L5 11L6 11L6 12L5 12L5 14L4 14L4 15L5 15L5 14L7 14L7 13L8 13L8 14L9 14L9 15L10 15L10 14L11 14L11 15L12 15L12 13L11 13L11 12L14 12L14 15L13 15L13 16L14 16L14 15L15 15L15 12L17 12L17 13L16 13L16 14L18 14L18 11L19 11L19 12L20 12L20 11L19 11L19 9L17 9L17 11L15 11L15 12L14 12L14 11L13 11L13 10L16 10L16 9L15 9L15 7L16 7L16 5L15 5L15 4L14 4L14 3L15 3L15 2L16 2L16 1L15 1L15 2L14 2L14 1ZM13 4L13 5L14 5L14 7L15 7L15 5L14 5L14 4ZM0 8L0 11L1 11L1 9L3 9L3 8ZM13 8L13 9L14 9L14 8ZM6 10L6 11L7 11L7 10ZM8 10L8 11L9 11L9 12L8 12L8 13L9 13L9 14L10 14L10 11L9 11L9 10ZM11 10L11 11L12 11L12 10ZM2 12L2 15L3 15L3 13L4 13L4 12ZM6 12L6 13L7 13L7 12ZM24 12L24 13L25 13L25 12ZM20 14L20 15L23 15L23 17L24 17L24 15L25 15L25 14L24 14L24 15L23 15L23 14ZM16 15L16 16L15 16L15 17L16 17L16 16L17 16L17 15ZM6 16L6 17L7 17L7 16ZM17 17L17 20L20 20L20 17ZM18 18L18 19L19 19L19 18ZM24 18L24 19L23 19L23 20L24 20L24 21L23 21L23 23L25 23L25 22L24 22L24 21L25 21L25 20L24 20L24 19L25 19L25 18ZM11 21L11 23L12 23L12 21ZM16 21L16 22L17 22L17 21ZM18 21L18 23L19 23L19 21ZM9 23L9 24L10 24L10 23ZM13 23L13 24L14 24L14 23ZM20 24L20 25L21 25L21 24ZM24 24L24 25L25 25L25 24ZM0 0L0 7L7 7L7 0ZM1 1L1 6L6 6L6 1ZM2 2L2 5L5 5L5 2ZM18 0L18 7L25 7L25 0ZM19 1L19 6L24 6L24 1ZM20 2L20 5L23 5L23 2ZM0 18L0 25L7 25L7 18ZM1 19L1 24L6 24L6 19ZM2 20L2 23L5 23L5 20Z" fill="#000000"/></g></g></svg>
