<?xml version="1.0" encoding="UTF-8"?>
<svg xmlns="http://www.w3.org/2000/svg" version="1.1" width="300" height="300" viewBox="0 0 300 300"><rect x="0" y="0" width="300" height="300" fill="#ffffff"/><g transform="scale(12)"><g transform="translate(0,0)"><path fill-rule="evenodd" d="M8 0L8 2L9 2L9 3L10 3L10 2L9 2L9 1L11 1L11 2L12 2L12 0ZM13 0L13 1L14 1L14 2L13 2L13 3L14 3L14 4L12 4L12 3L11 3L11 5L9 5L9 4L8 4L8 9L7 9L7 8L5 8L5 9L7 9L7 10L6 10L6 11L7 11L7 12L6 12L6 13L7 13L7 12L8 12L8 13L10 13L10 14L8 14L8 15L7 15L7 14L5 14L5 15L4 15L4 11L5 11L5 10L3 10L3 8L0 8L0 10L1 10L1 9L2 9L2 11L1 11L1 12L0 12L0 13L1 13L1 14L0 14L0 15L2 15L2 16L0 16L0 17L2 17L2 16L4 16L4 17L5 17L5 15L7 15L7 16L6 16L6 17L8 17L8 18L9 18L9 19L8 19L8 20L10 20L10 21L9 21L9 22L8 22L8 25L10 25L10 24L9 24L9 22L10 22L10 23L12 23L12 25L14 25L14 24L15 24L15 25L17 25L17 24L18 24L18 25L21 25L21 22L22 22L22 23L25 23L25 22L24 22L24 21L23 21L23 22L22 22L22 21L21 21L21 19L22 19L22 17L21 17L21 15L23 15L23 17L24 17L24 15L25 15L25 14L24 14L24 15L23 15L23 14L21 14L21 15L20 15L20 13L22 13L22 12L21 12L21 11L22 11L22 10L23 10L23 11L25 11L25 8L23 8L23 9L22 9L22 10L21 10L21 11L20 11L20 9L21 9L21 8L16 8L16 10L14 10L14 8L15 8L15 6L14 6L14 4L15 4L15 5L16 5L16 7L17 7L17 5L16 5L16 4L17 4L17 3L16 3L16 2L15 2L15 1L16 1L16 0ZM14 2L14 3L15 3L15 4L16 4L16 3L15 3L15 2ZM11 5L11 7L10 7L10 6L9 6L9 7L10 7L10 9L8 9L8 10L7 10L7 11L8 11L8 12L10 12L10 11L8 11L8 10L12 10L12 11L11 11L11 12L13 12L13 14L16 14L16 12L15 12L15 11L13 11L13 10L12 10L12 9L13 9L13 8L14 8L14 6L13 6L13 5ZM12 6L12 8L11 8L11 9L12 9L12 8L13 8L13 6ZM17 9L17 10L18 10L18 9ZM2 11L2 13L3 13L3 11ZM18 11L18 12L17 12L17 15L13 15L13 16L12 16L12 17L11 17L11 14L12 14L12 13L11 13L11 14L10 14L10 15L9 15L9 16L8 16L8 17L9 17L9 16L10 16L10 19L11 19L11 20L14 20L14 21L13 21L13 22L12 22L12 21L10 21L10 22L12 22L12 23L13 23L13 24L14 24L14 23L15 23L15 22L16 22L16 23L17 23L17 22L16 22L16 21L15 21L15 20L16 20L16 17L15 17L15 16L17 16L17 15L18 15L18 16L20 16L20 15L19 15L19 14L18 14L18 12L19 12L19 11ZM14 12L14 13L15 13L15 12ZM24 12L24 13L25 13L25 12ZM13 16L13 17L12 17L12 18L11 18L11 19L12 19L12 18L14 18L14 20L15 20L15 18L14 18L14 16ZM17 17L17 20L20 20L20 17ZM18 18L18 19L19 19L19 18ZM24 18L24 19L25 19L25 18ZM14 21L14 22L13 22L13 23L14 23L14 22L15 22L15 21ZM18 21L18 24L19 24L19 22L21 22L21 21ZM24 24L24 25L25 25L25 24ZM0 0L0 7L7 7L7 0ZM1 1L1 6L6 6L6 1ZM2 2L2 5L5 5L5 2ZM18 0L18 7L25 7L25 0ZM19 1L19 6L24 6L24 1ZM20 2L20 5L23 5L23 2ZM0 18L0 25L7 25L7 18ZM1 19L1 24L6 24L6 19ZM2 20L2 23L5 23L5 20Z" fill="#000000"/></g></g></svg>
