<?xml version="1.0" encoding="UTF-8"?>
<svg xmlns="http://www.w3.org/2000/svg" version="1.1" width="300" height="300" viewBox="0 0 300 300"><rect x="0" y="0" width="300" height="300" fill="#ffffff"/><g transform="scale(12)"><g transform="translate(0,0)"><path fill-rule="evenodd" d="M8 0L8 1L9 1L9 2L10 2L10 3L11 3L11 1L13 1L13 0L11 0L11 1L9 1L9 0ZM14 0L14 2L12 2L12 4L11 4L11 5L10 5L10 4L9 4L9 5L10 5L10 8L9 8L9 6L8 6L8 8L9 8L9 10L8 10L8 9L7 9L7 8L6 8L6 9L5 9L5 8L3 8L3 9L4 9L4 10L2 10L2 8L0 8L0 10L1 10L1 11L0 11L0 12L1 12L1 13L0 13L0 17L1 17L1 15L2 15L2 16L3 16L3 17L7 17L7 16L5 16L5 15L2 15L2 14L6 14L6 15L8 15L8 18L9 18L9 17L11 17L11 21L10 21L10 22L9 22L9 20L8 20L8 22L9 22L9 23L8 23L8 25L9 25L9 23L11 23L11 24L12 24L12 25L14 25L14 24L13 24L13 23L12 23L12 22L11 22L11 21L13 21L13 22L14 22L14 23L15 23L15 22L17 22L17 23L18 23L18 22L20 22L20 23L19 23L19 24L18 24L18 25L21 25L21 24L20 24L20 23L22 23L22 24L24 24L24 25L25 25L25 21L22 21L22 22L20 22L20 21L21 21L21 19L22 19L22 18L24 18L24 19L23 19L23 20L24 20L24 19L25 19L25 17L24 17L24 16L25 16L25 10L24 10L24 9L25 9L25 8L24 8L24 9L23 9L23 10L21 10L21 9L19 9L19 8L18 8L18 10L21 10L21 11L20 11L20 12L18 12L18 11L16 11L16 10L13 10L13 9L16 9L16 8L17 8L17 3L16 3L16 2L17 2L17 1L16 1L16 0ZM15 1L15 2L14 2L14 3L13 3L13 4L12 4L12 5L11 5L11 7L12 7L12 8L13 8L13 7L14 7L14 8L16 8L16 5L14 5L14 4L16 4L16 3L15 3L15 2L16 2L16 1ZM12 5L12 7L13 7L13 5ZM14 6L14 7L15 7L15 6ZM6 9L6 10L5 10L5 11L4 11L4 12L3 12L3 11L1 11L1 12L3 12L3 13L4 13L4 12L8 12L8 10L7 10L7 9ZM10 9L10 10L9 10L9 11L10 11L10 10L12 10L12 12L13 12L13 13L11 13L11 12L10 12L10 13L8 13L8 15L9 15L9 16L13 16L13 17L12 17L12 18L13 18L13 19L12 19L12 20L13 20L13 19L14 19L14 20L16 20L16 18L15 18L15 19L14 19L14 17L16 17L16 16L14 16L14 15L15 15L15 14L14 14L14 15L12 15L12 14L13 14L13 13L14 13L14 11L13 11L13 10L12 10L12 9ZM6 10L6 11L7 11L7 10ZM15 11L15 12L16 12L16 11ZM21 11L21 12L22 12L22 13L21 13L21 14L20 14L20 15L19 15L19 16L20 16L20 15L21 15L21 17L22 17L22 15L21 15L21 14L24 14L24 12L22 12L22 11ZM17 12L17 13L16 13L16 14L17 14L17 15L18 15L18 14L19 14L19 13L18 13L18 12ZM1 13L1 14L2 14L2 13ZM6 13L6 14L7 14L7 13ZM17 17L17 20L20 20L20 17ZM18 18L18 19L19 19L19 18ZM22 22L22 23L23 23L23 22ZM16 24L16 25L17 25L17 24ZM0 0L0 7L7 7L7 0ZM1 1L1 6L6 6L6 1ZM2 2L2 5L5 5L5 2ZM18 0L18 7L25 7L25 0ZM19 1L19 6L24 6L24 1ZM20 2L20 5L23 5L23 2ZM0 18L0 25L7 25L7 18ZM1 19L1 24L6 24L6 19ZM2 20L2 23L5 23L5 20Z" fill="#000000"/></g></g></svg>
