<?xml version="1.0" encoding="UTF-8"?>
<svg xmlns="http://www.w3.org/2000/svg" version="1.1" width="300" height="300" viewBox="0 0 300 300"><rect x="0" y="0" width="300" height="300" fill="#ffffff"/><g transform="scale(12)"><g transform="translate(0,0)"><path fill-rule="evenodd" d="M8 0L8 4L9 4L9 5L8 5L8 7L9 7L9 6L10 6L10 9L11 9L11 8L12 8L12 9L13 9L13 10L15 10L15 11L14 11L14 12L12 12L12 10L9 10L9 12L10 12L10 11L11 11L11 13L8 13L8 12L6 12L6 13L7 13L7 14L5 14L5 15L3 15L3 13L5 13L5 11L7 11L7 10L8 10L8 9L7 9L7 8L4 8L4 9L2 9L2 8L0 8L0 10L1 10L1 9L2 9L2 10L5 10L5 11L4 11L4 12L1 12L1 11L0 11L0 14L2 14L2 16L0 16L0 17L2 17L2 16L3 16L3 17L4 17L4 16L5 16L5 17L7 17L7 16L6 16L6 15L7 15L7 14L9 14L9 15L8 15L8 18L9 18L9 19L8 19L8 21L10 21L10 22L11 22L11 24L12 24L12 25L14 25L14 24L15 24L15 25L16 25L16 23L18 23L18 24L17 24L17 25L19 25L19 21L23 21L23 22L21 22L21 24L20 24L20 25L25 25L25 24L24 24L24 22L25 22L25 21L24 21L24 20L25 20L25 19L22 19L22 17L23 17L23 14L21 14L21 12L22 12L22 13L24 13L24 14L25 14L25 12L24 12L24 9L25 9L25 8L21 8L21 9L20 9L20 8L19 8L19 9L18 9L18 11L17 11L17 8L16 8L16 10L15 10L15 9L14 9L14 8L12 8L12 7L13 7L13 6L14 6L14 7L15 7L15 3L16 3L16 5L17 5L17 0L16 0L16 2L15 2L15 1L14 1L14 0L13 0L13 1L12 1L12 3L13 3L13 1L14 1L14 5L13 5L13 6L12 6L12 7L11 7L11 5L10 5L10 4L11 4L11 3L10 3L10 2L11 2L11 1L10 1L10 2L9 2L9 0ZM16 6L16 7L17 7L17 6ZM5 9L5 10L7 10L7 9ZM19 9L19 12L20 12L20 9ZM21 9L21 10L22 10L22 11L23 11L23 10L22 10L22 9ZM14 12L14 13L11 13L11 14L12 14L12 15L13 15L13 17L12 17L12 16L11 16L11 15L10 15L10 17L9 17L9 18L10 18L10 19L9 19L9 20L10 20L10 21L11 21L11 22L13 22L13 21L11 21L11 18L13 18L13 19L12 19L12 20L14 20L14 21L16 21L16 22L15 22L15 23L16 23L16 22L17 22L17 21L16 21L16 20L15 20L15 19L16 19L16 18L13 18L13 17L14 17L14 16L16 16L16 15L14 15L14 13L16 13L16 14L18 14L18 15L17 15L17 16L19 16L19 13L17 13L17 12ZM20 15L20 16L21 16L21 15ZM10 17L10 18L11 18L11 17ZM17 17L17 20L20 20L20 17ZM24 17L24 18L25 18L25 17ZM18 18L18 19L19 19L19 18ZM8 23L8 25L10 25L10 23ZM12 23L12 24L14 24L14 23ZM0 0L0 7L7 7L7 0ZM1 1L1 6L6 6L6 1ZM2 2L2 5L5 5L5 2ZM18 0L18 7L25 7L25 0ZM19 1L19 6L24 6L24 1ZM20 2L20 5L23 5L23 2ZM0 18L0 25L7 25L7 18ZM1 19L1 24L6 24L6 19ZM2 20L2 23L5 23L5 20Z" fill="#000000"/></g></g></svg>
