<?xml version="1.0" encoding="UTF-8"?>
<svg xmlns="http://www.w3.org/2000/svg" version="1.1" width="300" height="300" viewBox="0 0 300 300"><rect x="0" y="0" width="300" height="300" fill="#ffffff"/><g transform="scale(12)"><g transform="translate(0,0)"><path fill-rule="evenodd" d="M8 0L8 4L9 4L9 5L8 5L8 7L9 7L9 6L10 6L10 9L11 9L11 8L12 8L12 9L13 9L13 11L12 11L12 12L11 12L11 13L9 13L9 14L5 14L5 13L7 13L7 12L6 12L6 11L8 11L8 12L10 12L10 11L11 11L11 10L8 10L8 9L7 9L7 8L4 8L4 9L2 9L2 8L0 8L0 12L1 12L1 13L0 13L0 14L1 14L1 13L2 13L2 12L5 12L5 13L4 13L4 14L3 14L3 15L2 15L2 16L0 16L0 17L2 17L2 16L5 16L5 17L8 17L8 18L9 18L9 19L8 19L8 21L9 21L9 23L8 23L8 25L9 25L9 24L10 24L10 25L11 25L11 24L12 24L12 25L14 25L14 23L15 23L15 25L16 25L16 23L18 23L18 24L17 24L17 25L25 25L25 24L24 24L24 22L25 22L25 20L24 20L24 19L22 19L22 17L23 17L23 14L21 14L21 12L22 12L22 13L24 13L24 14L25 14L25 12L24 12L24 9L25 9L25 8L21 8L21 9L20 9L20 8L19 8L19 9L18 9L18 11L17 11L17 9L16 9L16 8L15 8L15 0L14 0L14 4L13 4L13 1L11 1L11 2L12 2L12 5L13 5L13 6L12 6L12 7L11 7L11 3L10 3L10 2L9 2L9 0ZM16 0L16 1L17 1L17 0ZM16 3L16 7L17 7L17 3ZM13 6L13 7L12 7L12 8L14 8L14 11L13 11L13 12L12 12L12 13L11 13L11 14L10 14L10 16L9 16L9 15L6 15L6 16L8 16L8 17L9 17L9 18L10 18L10 17L11 17L11 19L10 19L10 20L9 20L9 21L10 21L10 20L12 20L12 21L11 21L11 22L12 22L12 21L13 21L13 22L15 22L15 23L16 23L16 22L17 22L17 21L16 21L16 20L15 20L15 21L13 21L13 20L14 20L14 19L16 19L16 18L13 18L13 17L12 17L12 16L13 16L13 15L12 15L12 16L11 16L11 14L12 14L12 13L13 13L13 14L14 14L14 13L13 13L13 12L15 12L15 13L16 13L16 14L18 14L18 15L17 15L17 16L19 16L19 15L20 15L20 16L21 16L21 14L19 14L19 13L17 13L17 12L15 12L15 10L16 10L16 9L15 9L15 8L14 8L14 6ZM1 9L1 10L2 10L2 9ZM4 9L4 10L3 10L3 11L4 11L4 10L5 10L5 11L6 11L6 10L7 10L7 9ZM19 9L19 12L20 12L20 9ZM21 9L21 10L22 10L22 11L23 11L23 10L22 10L22 9ZM1 11L1 12L2 12L2 11ZM14 15L14 17L15 17L15 16L16 16L16 15ZM17 17L17 20L20 20L20 17ZM24 17L24 18L25 18L25 17ZM18 18L18 19L19 19L19 18ZM12 19L12 20L13 20L13 19ZM15 21L15 22L16 22L16 21ZM19 21L19 24L21 24L21 23L22 23L22 21ZM10 23L10 24L11 24L11 23ZM12 23L12 24L13 24L13 23ZM0 0L0 7L7 7L7 0ZM1 1L1 6L6 6L6 1ZM2 2L2 5L5 5L5 2ZM18 0L18 7L25 7L25 0ZM19 1L19 6L24 6L24 1ZM20 2L20 5L23 5L23 2ZM0 18L0 25L7 25L7 18ZM1 19L1 24L6 24L6 19ZM2 20L2 23L5 23L5 20Z" fill="#000000"/></g></g></svg>
