<?xml version="1.0" encoding="UTF-8"?>
<svg xmlns="http://www.w3.org/2000/svg" version="1.1" width="300" height="300" viewBox="0 0 300 300"><rect x="0" y="0" width="300" height="300" fill="#ffffff"/><g transform="scale(12)"><g transform="translate(0,0)"><path fill-rule="evenodd" d="M8 0L8 2L10 2L10 4L8 4L8 9L7 9L7 8L5 8L5 9L4 9L4 10L3 10L3 8L0 8L0 13L2 13L2 12L4 12L4 13L3 13L3 14L0 14L0 15L3 15L3 16L0 16L0 17L5 17L5 16L6 16L6 17L7 17L7 16L8 16L8 18L9 18L9 19L8 19L8 20L9 20L9 19L10 19L10 21L9 21L9 22L8 22L8 25L12 25L12 24L13 24L13 23L14 23L14 24L15 24L15 25L18 25L18 24L19 24L19 25L20 25L20 24L21 24L21 25L23 25L23 24L21 24L21 22L22 22L22 23L25 23L25 22L24 22L24 20L25 20L25 18L24 18L24 19L23 19L23 22L22 22L22 21L21 21L21 19L22 19L22 17L21 17L21 15L23 15L23 17L24 17L24 15L25 15L25 14L24 14L24 15L23 15L23 14L21 14L21 15L20 15L20 12L18 12L18 11L16 11L16 10L17 10L17 9L18 9L18 10L20 10L20 11L22 11L22 10L23 10L23 11L25 11L25 8L23 8L23 9L22 9L22 10L20 10L20 9L21 9L21 8L17 8L17 6L16 6L16 8L15 8L15 11L14 11L14 10L11 10L11 8L12 8L12 9L13 9L13 6L12 6L12 4L11 4L11 3L13 3L13 4L14 4L14 7L15 7L15 4L16 4L16 3L17 3L17 2L15 2L15 1L14 1L14 0L11 0L11 1L9 1L9 0ZM11 1L11 2L12 2L12 1ZM13 1L13 2L14 2L14 3L15 3L15 2L14 2L14 1ZM9 5L9 8L10 8L10 6L11 6L11 7L12 7L12 6L11 6L11 5ZM16 8L16 9L17 9L17 8ZM1 9L1 11L2 11L2 9ZM5 9L5 10L4 10L4 12L5 12L5 13L4 13L4 14L3 14L3 15L4 15L4 16L5 16L5 15L6 15L6 16L7 16L7 15L6 15L6 14L8 14L8 15L9 15L9 16L11 16L11 13L12 13L12 12L13 12L13 14L12 14L12 17L13 17L13 18L12 18L12 19L11 19L11 18L10 18L10 19L11 19L11 21L10 21L10 22L11 22L11 21L12 21L12 20L13 20L13 22L17 22L17 24L18 24L18 23L19 23L19 24L20 24L20 22L21 22L21 21L15 21L15 20L14 20L14 17L15 17L15 19L16 19L16 16L17 16L17 15L18 15L18 16L19 16L19 15L18 15L18 12L17 12L17 14L16 14L16 16L15 16L15 15L13 15L13 14L15 14L15 13L16 13L16 12L15 12L15 13L14 13L14 11L11 11L11 10L9 10L9 11L10 11L10 13L6 13L6 12L7 12L7 11L8 11L8 10L7 10L7 9ZM5 10L5 12L6 12L6 11L7 11L7 10ZM21 12L21 13L22 13L22 12ZM24 12L24 13L25 13L25 12ZM9 14L9 15L10 15L10 14ZM17 17L17 20L20 20L20 17ZM18 18L18 19L19 19L19 18ZM10 23L10 24L12 24L12 23ZM15 23L15 24L16 24L16 23ZM24 24L24 25L25 25L25 24ZM0 0L0 7L7 7L7 0ZM1 1L1 6L6 6L6 1ZM2 2L2 5L5 5L5 2ZM18 0L18 7L25 7L25 0ZM19 1L19 6L24 6L24 1ZM20 2L20 5L23 5L23 2ZM0 18L0 25L7 25L7 18ZM1 19L1 24L6 24L6 19ZM2 20L2 23L5 23L5 20Z" fill="#000000"/></g></g></svg>
