<?xml version="1.0" encoding="UTF-8"?>
<svg xmlns="http://www.w3.org/2000/svg" version="1.1" width="300" height="300" viewBox="0 0 300 300"><rect x="0" y="0" width="300" height="300" fill="#ffffff"/><g transform="scale(10.345)"><g transform="translate(0,0)"><path fill-rule="evenodd" d="M8 0L8 1L10 1L10 0ZM14 0L14 1L13 1L13 2L11 2L11 4L10 4L10 3L9 3L9 2L8 2L8 5L9 5L9 6L8 6L8 7L9 7L9 8L8 8L8 9L7 9L7 8L6 8L6 9L7 9L7 10L5 10L5 9L4 9L4 8L0 8L0 11L1 11L1 12L0 12L0 16L1 16L1 18L0 18L0 19L1 19L1 18L3 18L3 19L4 19L4 21L7 21L7 20L8 20L8 19L12 19L12 20L11 20L11 21L10 21L10 23L9 23L9 24L10 24L10 25L11 25L11 26L10 26L10 27L9 27L9 25L8 25L8 29L9 29L9 28L10 28L10 29L11 29L11 28L12 28L12 29L13 29L13 28L12 28L12 26L13 26L13 27L14 27L14 29L15 29L15 28L17 28L17 29L25 29L25 28L22 28L22 27L24 27L24 25L26 25L26 26L25 26L25 27L27 27L27 28L26 28L26 29L28 29L28 27L29 27L29 25L28 25L28 27L27 27L27 24L28 24L28 21L27 21L27 20L28 20L28 19L27 19L27 18L26 18L26 23L25 23L25 19L24 19L24 20L19 20L19 18L20 18L20 19L22 19L22 18L21 18L21 16L23 16L23 18L24 18L24 17L26 17L26 16L25 16L25 15L27 15L27 17L28 17L28 18L29 18L29 17L28 17L28 15L29 15L29 12L26 12L26 11L27 11L27 10L29 10L29 8L28 8L28 9L27 9L27 8L24 8L24 9L22 9L22 8L21 8L21 6L20 6L20 5L17 5L17 3L14 3L14 2L15 2L15 1L16 1L16 2L18 2L18 3L19 3L19 4L20 4L20 3L21 3L21 0L20 0L20 2L18 2L18 1L19 1L19 0ZM12 3L12 5L10 5L10 6L9 6L9 7L10 7L10 8L9 8L9 9L8 9L8 11L6 11L6 12L5 12L5 13L6 13L6 14L7 14L7 13L9 13L9 12L10 12L10 13L11 13L11 11L14 11L14 12L12 12L12 14L11 14L11 16L12 16L12 17L6 17L6 16L8 16L8 15L5 15L5 14L3 14L3 13L4 13L4 9L3 9L3 12L2 12L2 14L1 14L1 16L2 16L2 14L3 14L3 15L5 15L5 16L4 16L4 17L3 17L3 18L4 18L4 17L5 17L5 18L12 18L12 17L14 17L14 18L13 18L13 20L14 20L14 21L15 21L15 22L14 22L14 23L11 23L11 25L12 25L12 24L13 24L13 26L14 26L14 27L17 27L17 28L18 28L18 27L19 27L19 26L20 26L20 28L21 28L21 27L22 27L22 26L23 26L23 25L22 25L22 26L21 26L21 25L20 25L20 21L18 21L18 20L17 20L17 18L18 18L18 17L17 17L17 16L18 16L18 15L19 15L19 16L20 16L20 15L19 15L19 14L21 14L21 15L23 15L23 16L24 16L24 15L25 15L25 12L22 12L22 13L23 13L23 14L21 14L21 12L19 12L19 13L18 13L18 14L17 14L17 16L16 16L16 13L17 13L17 12L18 12L18 11L17 11L17 12L16 12L16 10L15 10L15 9L17 9L17 10L18 10L18 8L20 8L20 10L19 10L19 11L21 11L21 8L20 8L20 6L19 6L19 7L18 7L18 6L17 6L17 7L18 7L18 8L16 8L16 4L15 4L15 5L14 5L14 3ZM12 5L12 7L11 7L11 6L10 6L10 7L11 7L11 8L12 8L12 7L13 7L13 6L14 6L14 7L15 7L15 6L14 6L14 5ZM13 8L13 10L14 10L14 9L15 9L15 8ZM1 9L1 10L2 10L2 9ZM9 9L9 10L10 10L10 9ZM25 9L25 10L22 10L22 11L26 11L26 10L27 10L27 9ZM8 11L8 12L9 12L9 11ZM6 12L6 13L7 13L7 12ZM15 12L15 13L13 13L13 14L12 14L12 16L14 16L14 15L15 15L15 13L16 13L16 12ZM9 14L9 16L10 16L10 14ZM13 14L13 15L14 15L14 14ZM23 14L23 15L24 15L24 14ZM27 14L27 15L28 15L28 14ZM15 16L15 17L16 17L16 16ZM15 18L15 19L16 19L16 18ZM5 19L5 20L7 20L7 19ZM1 20L1 21L3 21L3 20ZM16 20L16 21L17 21L17 20ZM8 21L8 22L9 22L9 21ZM11 21L11 22L12 22L12 21ZM21 21L21 24L24 24L24 21ZM17 22L17 23L15 23L15 24L14 24L14 26L15 26L15 25L16 25L16 26L19 26L19 25L17 25L17 23L18 23L18 24L19 24L19 22ZM22 22L22 23L23 23L23 22ZM26 23L26 24L27 24L27 23ZM10 27L10 28L11 28L11 27ZM0 0L0 7L7 7L7 0ZM1 1L1 6L6 6L6 1ZM2 2L2 5L5 5L5 2ZM22 0L22 7L29 7L29 0ZM23 1L23 6L28 6L28 1ZM24 2L24 5L27 5L27 2ZM0 22L0 29L7 29L7 22ZM1 23L1 28L6 28L6 23ZM2 24L2 27L5 27L5 24Z" fill="#000000"/></g></g></svg>
