<?xml version="1.0" encoding="UTF-8"?>
<svg xmlns="http://www.w3.org/2000/svg" version="1.1" width="300" height="300" viewBox="0 0 300 300"><rect x="0" y="0" width="300" height="300" fill="#ffffff"/><g transform="scale(12)"><g transform="translate(0,0)"><path fill-rule="evenodd" d="M8 0L8 2L10 2L10 4L8 4L8 9L7 9L7 8L5 8L5 9L3 9L3 8L0 8L0 11L1 11L1 9L2 9L2 12L0 12L0 13L2 13L2 12L3 12L3 11L4 11L4 14L0 14L0 15L4 15L4 16L3 16L3 17L5 17L5 16L6 16L6 17L8 17L8 18L9 18L9 17L11 17L11 15L12 15L12 18L11 18L11 19L10 19L10 20L9 20L9 19L8 19L8 20L9 20L9 22L8 22L8 25L11 25L11 24L12 24L12 25L14 25L14 24L12 24L12 22L13 22L13 23L15 23L15 22L16 22L16 25L17 25L17 24L18 24L18 25L21 25L21 24L20 24L20 23L21 23L21 19L22 19L22 17L21 17L21 16L20 16L20 15L23 15L23 17L24 17L24 15L25 15L25 14L24 14L24 15L23 15L23 14L20 14L20 15L19 15L19 13L22 13L22 12L21 12L21 11L22 11L22 10L23 10L23 11L25 11L25 8L23 8L23 9L22 9L22 10L21 10L21 11L20 11L20 9L21 9L21 8L17 8L17 9L16 9L16 7L17 7L17 5L16 5L16 4L15 4L15 3L17 3L17 1L16 1L16 0L14 0L14 1L13 1L13 0L11 0L11 1L9 1L9 0ZM11 1L11 2L12 2L12 1ZM15 1L15 2L16 2L16 1ZM11 3L11 4L12 4L12 6L11 6L11 5L9 5L9 8L10 8L10 6L11 6L11 7L12 7L12 6L13 6L13 8L14 8L14 9L12 9L12 8L11 8L11 10L7 10L7 9L6 9L6 10L7 10L7 11L6 11L6 12L7 12L7 13L6 13L6 14L4 14L4 15L6 15L6 16L7 16L7 15L6 15L6 14L8 14L8 16L10 16L10 14L12 14L12 13L11 13L11 12L12 12L12 11L13 11L13 12L14 12L14 13L13 13L13 14L14 14L14 15L13 15L13 16L14 16L14 17L13 17L13 18L12 18L12 19L11 19L11 20L13 20L13 22L15 22L15 21L14 21L14 20L16 20L16 18L15 18L15 19L13 19L13 18L14 18L14 17L16 17L16 16L17 16L17 15L16 15L16 16L14 16L14 15L15 15L15 12L17 12L17 13L16 13L16 14L18 14L18 11L19 11L19 12L20 12L20 11L19 11L19 9L17 9L17 11L15 11L15 10L16 10L16 9L15 9L15 7L16 7L16 5L15 5L15 7L14 7L14 5L13 5L13 4L14 4L14 3ZM4 10L4 11L5 11L5 10ZM11 10L11 11L12 11L12 10ZM13 10L13 11L14 11L14 12L15 12L15 11L14 11L14 10ZM7 11L7 12L8 12L8 11ZM9 11L9 13L8 13L8 14L10 14L10 11ZM24 12L24 13L25 13L25 12ZM18 15L18 16L19 16L19 15ZM0 16L0 17L2 17L2 16ZM17 17L17 20L20 20L20 17ZM18 18L18 19L19 19L19 18ZM24 18L24 19L23 19L23 21L22 21L22 23L25 23L25 22L24 22L24 20L25 20L25 18ZM11 21L11 22L9 22L9 24L10 24L10 23L11 23L11 22L12 22L12 21ZM16 21L16 22L17 22L17 21ZM18 21L18 23L19 23L19 21ZM24 24L24 25L25 25L25 24ZM0 0L0 7L7 7L7 0ZM1 1L1 6L6 6L6 1ZM2 2L2 5L5 5L5 2ZM18 0L18 7L25 7L25 0ZM19 1L19 6L24 6L24 1ZM20 2L20 5L23 5L23 2ZM0 18L0 25L7 25L7 18ZM1 19L1 24L6 24L6 19ZM2 20L2 23L5 23L5 20Z" fill="#000000"/></g></g></svg>
