<?xml version="1.0" encoding="UTF-8"?>
<svg xmlns="http://www.w3.org/2000/svg" version="1.1" width="300" height="300" viewBox="0 0 300 300"><rect x="0" y="0" width="300" height="300" fill="#ffffff"/><g transform="scale(12)"><g transform="translate(0,0)"><path fill-rule="evenodd" d="M10 0L10 1L9 1L9 2L8 2L8 3L9 3L9 5L10 5L10 7L11 7L11 8L12 8L12 9L11 9L11 10L10 10L10 9L9 9L9 6L8 6L8 8L4 8L4 9L3 9L3 8L0 8L0 13L1 13L1 14L0 14L0 15L1 15L1 16L0 16L0 17L1 17L1 16L2 16L2 17L5 17L5 16L3 16L3 15L4 15L4 13L3 13L3 12L4 12L4 11L3 11L3 10L5 10L5 11L8 11L8 10L10 10L10 11L9 11L9 12L8 12L8 13L7 13L7 12L5 12L5 13L7 13L7 14L5 14L5 15L8 15L8 16L6 16L6 17L8 17L8 21L9 21L9 22L8 22L8 25L9 25L9 22L10 22L10 21L11 21L11 20L12 20L12 22L13 22L13 21L14 21L14 23L13 23L13 25L14 25L14 24L15 24L15 22L17 22L17 21L19 21L19 22L20 22L20 23L21 23L21 24L17 24L17 23L16 23L16 25L22 25L22 23L23 23L23 25L25 25L25 24L24 24L24 23L25 23L25 22L24 22L24 23L23 23L23 22L22 22L22 19L21 19L21 17L22 17L22 15L25 15L25 14L24 14L24 13L25 13L25 12L24 12L24 11L25 11L25 9L24 9L24 11L23 11L23 14L22 14L22 13L21 13L21 12L22 12L22 11L20 11L20 13L21 13L21 14L22 14L22 15L19 15L19 16L16 16L16 15L18 15L18 14L19 14L19 12L16 12L16 11L15 11L15 10L14 10L14 9L15 9L15 6L16 6L16 7L17 7L17 5L16 5L16 4L15 4L15 3L14 3L14 5L13 5L13 3L12 3L12 2L11 2L11 3L12 3L12 5L10 5L10 3L9 3L9 2L10 2L10 1L11 1L11 0ZM13 0L13 2L14 2L14 0ZM15 0L15 2L16 2L16 3L17 3L17 1L16 1L16 0ZM14 5L14 6L13 6L13 7L12 7L12 6L11 6L11 7L12 7L12 8L13 8L13 7L14 7L14 6L15 6L15 5ZM17 8L17 9L16 9L16 10L18 10L18 11L19 11L19 8ZM22 8L22 9L21 9L21 10L23 10L23 8ZM1 9L1 10L3 10L3 9ZM5 9L5 10L7 10L7 9ZM13 10L13 11L14 11L14 13L15 13L15 15L16 15L16 12L15 12L15 11L14 11L14 10ZM11 11L11 12L12 12L12 11ZM9 12L9 13L8 13L8 15L10 15L10 16L11 16L11 17L9 17L9 18L11 18L11 19L10 19L10 20L11 20L11 19L14 19L14 18L15 18L15 17L16 17L16 16L14 16L14 18L12 18L12 16L11 16L11 15L12 15L12 14L13 14L13 13L12 13L12 14L11 14L11 15L10 15L10 14L9 14L9 13L10 13L10 12ZM1 14L1 15L3 15L3 14ZM17 17L17 20L20 20L20 17ZM23 17L23 20L25 20L25 18L24 18L24 17ZM18 18L18 19L19 19L19 18ZM14 20L14 21L16 21L16 20ZM20 21L20 22L21 22L21 23L22 23L22 22L21 22L21 21ZM10 23L10 24L11 24L11 25L12 25L12 23ZM0 0L0 7L7 7L7 0ZM1 1L1 6L6 6L6 1ZM2 2L2 5L5 5L5 2ZM18 0L18 7L25 7L25 0ZM19 1L19 6L24 6L24 1ZM20 2L20 5L23 5L23 2ZM0 18L0 25L7 25L7 18ZM1 19L1 24L6 24L6 19ZM2 20L2 23L5 23L5 20Z" fill="#000000"/></g></g></svg>
