<?xml version="1.0" encoding="UTF-8"?>
<svg xmlns="http://www.w3.org/2000/svg" version="1.1" width="300" height="300" viewBox="0 0 300 300"><rect x="0" y="0" width="300" height="300" fill="#ffffff"/><g transform="scale(12)"><g transform="translate(0,0)"><path fill-rule="evenodd" d="M10 0L10 2L11 2L11 0ZM12 0L12 1L13 1L13 2L12 2L12 4L13 4L13 5L11 5L11 6L10 6L10 4L11 4L11 3L8 3L8 4L9 4L9 5L8 5L8 7L9 7L9 8L6 8L6 9L7 9L7 10L5 10L5 8L0 8L0 12L1 12L1 13L0 13L0 17L1 17L1 13L2 13L2 12L3 12L3 10L5 10L5 11L7 11L7 12L6 12L6 13L7 13L7 12L8 12L8 15L7 15L7 14L4 14L4 13L3 13L3 14L2 14L2 15L4 15L4 17L5 17L5 16L6 16L6 17L7 17L7 16L10 16L10 17L11 17L11 16L10 16L10 15L11 15L11 14L10 14L10 15L9 15L9 13L11 13L11 12L13 12L13 13L14 13L14 12L13 12L13 10L14 10L14 11L15 11L15 13L16 13L16 10L17 10L17 11L18 11L18 10L20 10L20 12L21 12L21 15L20 15L20 16L19 16L19 14L18 14L18 15L17 15L17 16L16 16L16 19L15 19L15 18L14 18L14 17L15 17L15 16L14 16L14 17L13 17L13 15L12 15L12 17L13 17L13 19L11 19L11 20L10 20L10 21L9 21L9 20L8 20L8 25L9 25L9 23L11 23L11 21L13 21L13 19L15 19L15 20L14 20L14 21L17 21L17 22L21 22L21 23L19 23L19 24L18 24L18 23L15 23L15 22L14 22L14 25L15 25L15 24L17 24L17 25L19 25L19 24L22 24L22 25L25 25L25 21L23 21L23 20L24 20L24 19L25 19L25 17L24 17L24 18L21 18L21 16L22 16L22 17L23 17L23 16L25 16L25 10L24 10L24 8L23 8L23 9L22 9L22 8L21 8L21 10L20 10L20 8L19 8L19 9L18 9L18 8L15 8L15 6L16 6L16 7L17 7L17 0L15 0L15 1L14 1L14 0ZM8 1L8 2L9 2L9 1ZM13 2L13 4L14 4L14 5L13 5L13 7L12 7L12 6L11 6L11 7L12 7L12 8L13 8L13 9L14 9L14 10L15 10L15 9L14 9L14 6L15 6L15 4L14 4L14 3L15 3L15 2ZM9 6L9 7L10 7L10 6ZM10 8L10 9L9 9L9 10L7 10L7 11L8 11L8 12L11 12L11 11L12 11L12 9L11 9L11 8ZM2 9L2 10L1 10L1 11L2 11L2 10L3 10L3 9ZM10 9L10 11L11 11L11 9ZM17 9L17 10L18 10L18 9ZM23 10L23 11L22 11L22 12L24 12L24 10ZM17 12L17 13L19 13L19 12ZM22 13L22 16L23 16L23 14L24 14L24 13ZM15 14L15 15L16 15L16 14ZM6 15L6 16L7 16L7 15ZM2 16L2 17L3 17L3 16ZM8 17L8 19L10 19L10 18L9 18L9 17ZM17 17L17 20L20 20L20 17ZM18 18L18 19L19 19L19 18ZM22 19L22 20L21 20L21 21L22 21L22 24L24 24L24 22L23 22L23 21L22 21L22 20L23 20L23 19ZM12 22L12 23L13 23L13 22ZM10 24L10 25L11 25L11 24ZM0 0L0 7L7 7L7 0ZM1 1L1 6L6 6L6 1ZM2 2L2 5L5 5L5 2ZM18 0L18 7L25 7L25 0ZM19 1L19 6L24 6L24 1ZM20 2L20 5L23 5L23 2ZM0 18L0 25L7 25L7 18ZM1 19L1 24L6 24L6 19ZM2 20L2 23L5 23L5 20Z" fill="#000000"/></g></g></svg>
