<?xml version="1.0" encoding="UTF-8"?>
<svg xmlns="http://www.w3.org/2000/svg" version="1.1" width="300" height="300" viewBox="0 0 300 300"><rect x="0" y="0" width="300" height="300" fill="#ffffff"/><g transform="scale(9.091)"><g transform="translate(0,0)"><path fill-rule="evenodd" d="M9 0L9 1L11 1L11 2L9 2L9 3L8 3L8 5L9 5L9 6L8 6L8 7L9 7L9 9L8 9L8 8L5 8L5 9L2 9L2 8L0 8L0 10L1 10L1 11L0 11L0 13L1 13L1 12L2 12L2 11L3 11L3 10L4 10L4 12L3 12L3 14L4 14L4 15L2 15L2 17L4 17L4 18L5 18L5 19L7 19L7 18L5 18L5 16L6 16L6 17L8 17L8 19L9 19L9 20L8 20L8 22L9 22L9 21L10 21L10 24L11 24L11 25L13 25L13 23L14 23L14 26L11 26L11 27L10 27L10 29L12 29L12 30L11 30L11 31L10 31L10 30L9 30L9 31L8 31L8 33L11 33L11 31L12 31L12 33L13 33L13 32L14 32L14 33L15 33L15 32L17 32L17 33L19 33L19 32L17 32L17 31L18 31L18 30L19 30L19 31L20 31L20 33L21 33L21 30L22 30L22 29L18 29L18 28L15 28L15 27L18 27L18 26L20 26L20 27L22 27L22 28L24 28L24 29L25 29L25 30L26 30L26 29L28 29L28 31L27 31L27 32L24 32L24 33L28 33L28 32L31 32L31 33L32 33L32 32L31 32L31 29L29 29L29 28L31 28L31 27L32 27L32 26L33 26L33 25L32 25L32 24L31 24L31 23L32 23L32 20L31 20L31 19L30 19L30 20L31 20L31 23L30 23L30 21L29 21L29 18L30 18L30 17L29 17L29 15L27 15L27 14L28 14L28 13L27 13L27 12L28 12L28 10L29 10L29 11L30 11L30 12L31 12L31 15L30 15L30 16L31 16L31 18L32 18L32 19L33 19L33 17L32 17L32 16L33 16L33 15L32 15L32 14L33 14L33 12L31 12L31 11L32 11L32 9L30 9L30 8L28 8L28 9L27 9L27 11L26 11L26 9L25 9L25 6L24 6L24 9L23 9L23 6L22 6L22 9L21 9L21 6L20 6L20 9L18 9L18 8L19 8L19 5L22 5L22 3L23 3L23 5L24 5L24 4L25 4L25 2L24 2L24 3L23 3L23 0L22 0L22 2L21 2L21 1L20 1L20 2L19 2L19 3L21 3L21 4L19 4L19 5L17 5L17 4L18 4L18 3L17 3L17 2L18 2L18 1L19 1L19 0L18 0L18 1L16 1L16 2L15 2L15 1L14 1L14 0L13 0L13 1L12 1L12 0ZM13 1L13 2L12 2L12 4L11 4L11 7L10 7L10 6L9 6L9 7L10 7L10 8L11 8L11 10L10 10L10 9L9 9L9 10L8 10L8 11L5 11L5 12L8 12L8 13L4 13L4 14L5 14L5 15L4 15L4 16L5 16L5 15L6 15L6 16L8 16L8 17L9 17L9 16L10 16L10 18L9 18L9 19L10 19L10 20L11 20L11 19L12 19L12 21L11 21L11 24L12 24L12 23L13 23L13 22L12 22L12 21L13 21L13 20L14 20L14 21L15 21L15 20L16 20L16 22L18 22L18 21L19 21L19 20L20 20L20 22L19 22L19 23L16 23L16 25L19 25L19 23L20 23L20 24L21 24L21 25L23 25L23 26L22 26L22 27L23 27L23 26L24 26L24 25L23 25L23 24L22 24L22 23L20 23L20 22L22 22L22 20L23 20L23 17L22 17L22 14L23 14L23 16L25 16L25 14L26 14L26 12L25 12L25 9L24 9L24 10L22 10L22 11L21 11L21 13L22 13L22 14L21 14L21 15L20 15L20 14L19 14L19 12L20 12L20 10L21 10L21 9L20 9L20 10L19 10L19 11L17 11L17 13L16 13L16 11L15 11L15 10L13 10L13 9L12 9L12 6L13 6L13 8L14 8L14 6L15 6L15 8L16 8L16 10L17 10L17 8L18 8L18 6L17 6L17 5L16 5L16 3L15 3L15 2L14 2L14 1ZM9 3L9 5L10 5L10 3ZM13 3L13 4L12 4L12 5L13 5L13 4L14 4L14 3ZM16 6L16 8L17 8L17 6ZM5 9L5 10L7 10L7 9ZM29 9L29 10L30 10L30 11L31 11L31 10L30 10L30 9ZM9 10L9 11L8 11L8 12L9 12L9 13L8 13L8 14L6 14L6 15L8 15L8 16L9 16L9 15L10 15L10 16L11 16L11 12L12 12L12 11L13 11L13 10L11 10L11 11L10 11L10 10ZM9 11L9 12L10 12L10 11ZM14 11L14 12L15 12L15 11ZM22 11L22 12L24 12L24 13L23 13L23 14L25 14L25 12L24 12L24 11ZM9 13L9 14L8 14L8 15L9 15L9 14L10 14L10 13ZM12 13L12 14L14 14L14 16L13 16L13 15L12 15L12 17L14 17L14 20L15 20L15 19L16 19L16 20L17 20L17 21L18 21L18 20L19 20L19 19L22 19L22 18L21 18L21 17L20 17L20 16L17 16L17 15L19 15L19 14L17 14L17 15L16 15L16 13L15 13L15 14L14 14L14 13ZM0 15L0 16L1 16L1 15ZM26 15L26 17L27 17L27 15ZM31 15L31 16L32 16L32 15ZM24 17L24 20L26 20L26 21L24 21L24 22L23 22L23 23L26 23L26 22L27 22L27 20L26 20L26 19L25 19L25 17ZM28 17L28 18L27 18L27 19L28 19L28 18L29 18L29 17ZM0 18L0 19L1 19L1 21L0 21L0 25L2 25L2 24L3 24L3 23L2 23L2 24L1 24L1 22L2 22L2 21L3 21L3 20L2 20L2 19L3 19L3 18L2 18L2 19L1 19L1 18ZM12 18L12 19L13 19L13 18ZM16 18L16 19L17 19L17 20L18 20L18 19L19 19L19 18ZM5 20L5 21L4 21L4 23L5 23L5 24L6 24L6 25L8 25L8 28L9 28L9 26L10 26L10 25L9 25L9 24L6 24L6 23L7 23L7 22L6 22L6 23L5 23L5 21L7 21L7 20ZM28 22L28 23L27 23L27 24L28 24L28 23L29 23L29 22ZM29 24L29 25L31 25L31 26L32 26L32 25L31 25L31 24ZM25 25L25 28L28 28L28 25ZM26 26L26 27L27 27L27 26ZM29 26L29 27L30 27L30 26ZM12 27L12 29L14 29L14 30L12 30L12 31L14 31L14 32L15 32L15 28L14 28L14 27ZM16 30L16 31L17 31L17 30ZM29 30L29 31L30 31L30 30ZM32 30L32 31L33 31L33 30ZM9 31L9 32L10 32L10 31ZM22 32L22 33L23 33L23 32ZM0 0L0 7L7 7L7 0ZM1 1L1 6L6 6L6 1ZM2 2L2 5L5 5L5 2ZM26 0L26 7L33 7L33 0ZM27 1L27 6L32 6L32 1ZM28 2L28 5L31 5L31 2ZM0 26L0 33L7 33L7 26ZM1 27L1 32L6 32L6 27ZM2 28L2 31L5 31L5 28Z" fill="#000000"/></g></g></svg>
