<?xml version="1.0" encoding="UTF-8"?>
<svg xmlns="http://www.w3.org/2000/svg" version="1.1" width="300" height="300" viewBox="0 0 300 300"><rect x="0" y="0" width="300" height="300" fill="#ffffff"/><g transform="scale(12)"><g transform="translate(0,0)"><path fill-rule="evenodd" d="M8 0L8 1L9 1L9 2L10 2L10 3L11 3L11 1L13 1L13 2L12 2L12 4L11 4L11 5L10 5L10 4L9 4L9 5L10 5L10 8L9 8L9 6L8 6L8 8L9 8L9 9L7 9L7 8L6 8L6 9L5 9L5 8L3 8L3 9L4 9L4 11L3 11L3 12L4 12L4 13L3 13L3 14L2 14L2 13L1 13L1 10L0 10L0 17L1 17L1 15L2 15L2 17L8 17L8 18L9 18L9 14L10 14L10 12L11 12L11 13L13 13L13 14L11 14L11 16L10 16L10 18L11 18L11 19L10 19L10 20L13 20L13 21L17 21L17 22L15 22L15 23L14 23L14 22L13 22L13 23L14 23L14 24L12 24L12 22L11 22L11 21L10 21L10 22L9 22L9 20L8 20L8 22L9 22L9 23L8 23L8 25L14 25L14 24L15 24L15 25L17 25L17 24L16 24L16 23L18 23L18 25L21 25L21 24L19 24L19 23L18 23L18 22L19 22L19 21L20 21L20 23L21 23L21 19L22 19L22 18L24 18L24 19L23 19L23 20L25 20L25 17L24 17L24 16L25 16L25 10L24 10L24 9L25 9L25 8L24 8L24 9L23 9L23 10L21 10L21 9L19 9L19 8L18 8L18 9L19 9L19 10L15 10L15 9L17 9L17 6L16 6L16 8L15 8L15 9L14 9L14 11L15 11L15 13L16 13L16 14L15 14L15 15L14 15L14 12L13 12L13 11L12 11L12 10L13 10L13 9L12 9L12 7L13 7L13 8L14 8L14 7L15 7L15 6L14 6L14 5L17 5L17 3L16 3L16 2L17 2L17 1L16 1L16 0L14 0L14 1L13 1L13 0L11 0L11 1L9 1L9 0ZM15 1L15 2L16 2L16 1ZM13 3L13 4L12 4L12 5L11 5L11 7L12 7L12 5L14 5L14 4L15 4L15 3ZM13 6L13 7L14 7L14 6ZM0 8L0 9L2 9L2 8ZM6 9L6 10L5 10L5 13L6 13L6 14L4 14L4 15L5 15L5 16L8 16L8 14L9 14L9 13L8 13L8 12L7 12L7 11L6 11L6 10L7 10L7 9ZM10 9L10 10L8 10L8 11L10 11L10 10L12 10L12 9ZM19 10L19 11L21 11L21 12L22 12L22 13L21 13L21 14L24 14L24 12L22 12L22 11L21 11L21 10ZM17 11L17 12L16 12L16 13L17 13L17 14L18 14L18 15L19 15L19 16L21 16L21 17L22 17L22 15L19 15L19 14L20 14L20 13L18 13L18 11ZM6 12L6 13L7 13L7 12ZM6 14L6 15L7 15L7 14ZM12 15L12 16L11 16L11 17L12 17L12 16L13 16L13 17L14 17L14 18L13 18L13 19L14 19L14 20L16 20L16 17L15 17L15 16L16 16L16 15L15 15L15 16L14 16L14 15ZM17 17L17 20L20 20L20 17ZM18 18L18 19L19 19L19 18ZM22 21L22 24L24 24L24 25L25 25L25 21ZM9 23L9 24L11 24L11 23ZM0 0L0 7L7 7L7 0ZM1 1L1 6L6 6L6 1ZM2 2L2 5L5 5L5 2ZM18 0L18 7L25 7L25 0ZM19 1L19 6L24 6L24 1ZM20 2L20 5L23 5L23 2ZM0 18L0 25L7 25L7 18ZM1 19L1 24L6 24L6 19ZM2 20L2 23L5 23L5 20Z" fill="#000000"/></g></g></svg>
