<?xml version="1.0" encoding="UTF-8"?>
<svg xmlns="http://www.w3.org/2000/svg" version="1.1" width="300" height="300" viewBox="0 0 300 300"><rect x="0" y="0" width="300" height="300" fill="#ffffff"/><g transform="scale(12)"><g transform="translate(0,0)"><path fill-rule="evenodd" d="M8 0L8 4L9 4L9 5L8 5L8 7L9 7L9 6L10 6L10 9L11 9L11 10L9 10L9 12L8 12L8 14L6 14L6 15L8 15L8 18L9 18L9 19L8 19L8 21L9 21L9 19L10 19L10 17L11 17L11 20L12 20L12 21L10 21L10 22L9 22L9 23L8 23L8 25L10 25L10 24L11 24L11 25L13 25L13 24L12 24L12 22L13 22L13 23L14 23L14 24L15 24L15 23L16 23L16 22L17 22L17 23L19 23L19 24L17 24L17 25L25 25L25 24L24 24L24 22L25 22L25 21L24 21L24 20L25 20L25 19L21 19L21 18L22 18L22 17L23 17L23 14L21 14L21 12L22 12L22 13L24 13L24 14L25 14L25 12L24 12L24 9L25 9L25 8L21 8L21 9L20 9L20 8L19 8L19 9L20 9L20 11L19 11L19 12L17 12L17 11L18 11L18 10L17 10L17 6L16 6L16 9L13 9L13 10L12 10L12 9L11 9L11 5L12 5L12 4L11 4L11 3L12 3L12 2L14 2L14 0L13 0L13 1L12 1L12 0L11 0L11 1L12 1L12 2L11 2L11 3L10 3L10 2L9 2L9 1L10 1L10 0ZM15 0L15 1L16 1L16 2L15 2L15 3L13 3L13 4L14 4L14 5L13 5L13 6L12 6L12 7L13 7L13 6L14 6L14 7L15 7L15 5L17 5L17 0ZM10 4L10 5L11 5L11 4ZM0 8L0 9L2 9L2 11L3 11L3 12L1 12L1 13L0 13L0 14L2 14L2 13L3 13L3 14L5 14L5 13L7 13L7 12L4 12L4 11L5 11L5 10L3 10L3 9L2 9L2 8ZM4 8L4 9L7 9L7 8ZM21 9L21 10L22 10L22 11L23 11L23 10L22 10L22 9ZM0 10L0 11L1 11L1 10ZM6 10L6 11L7 11L7 10ZM13 10L13 13L12 13L12 15L11 15L11 14L10 14L10 13L11 13L11 12L12 12L12 11L10 11L10 12L9 12L9 17L10 17L10 16L13 16L13 17L12 17L12 20L13 20L13 21L14 21L14 23L15 23L15 22L16 22L16 20L14 20L14 18L13 18L13 17L15 17L15 19L16 19L16 16L14 16L14 13L16 13L16 12L14 12L14 11L15 11L15 10ZM3 12L3 13L4 13L4 12ZM17 13L17 16L20 16L20 13ZM18 14L18 15L19 15L19 14ZM2 15L2 16L0 16L0 17L3 17L3 16L5 16L5 15ZM6 16L6 17L7 17L7 16ZM17 17L17 20L20 20L20 17ZM24 17L24 18L25 18L25 17ZM18 18L18 19L19 19L19 18ZM21 21L21 22L19 22L19 23L20 23L20 24L21 24L21 23L22 23L22 22L23 22L23 21ZM10 22L10 23L11 23L11 22ZM0 0L0 7L7 7L7 0ZM1 1L1 6L6 6L6 1ZM2 2L2 5L5 5L5 2ZM18 0L18 7L25 7L25 0ZM19 1L19 6L24 6L24 1ZM20 2L20 5L23 5L23 2ZM0 18L0 25L7 25L7 18ZM1 19L1 24L6 24L6 19ZM2 20L2 23L5 23L5 20Z" fill="#000000"/></g></g></svg>
