<?xml version="1.0" encoding="UTF-8"?>
<svg xmlns="http://www.w3.org/2000/svg" version="1.1" width="300" height="300" viewBox="0 0 300 300"><rect x="0" y="0" width="300" height="300" fill="#ffffff"/><g transform="scale(12)"><g transform="translate(0,0)"><path fill-rule="evenodd" d="M9 0L9 1L10 1L10 2L8 2L8 3L9 3L9 4L10 4L10 5L9 5L9 6L8 6L8 8L4 8L4 9L3 9L3 8L0 8L0 11L1 11L1 12L0 12L0 13L1 13L1 14L0 14L0 15L1 15L1 16L0 16L0 17L1 17L1 16L2 16L2 17L7 17L7 16L4 16L4 15L8 15L8 14L9 14L9 16L10 16L10 17L8 17L8 21L9 21L9 22L8 22L8 25L13 25L13 24L14 24L14 25L15 25L15 24L16 24L16 25L17 25L17 24L22 24L22 25L25 25L25 24L24 24L24 23L25 23L25 22L24 22L24 23L23 23L23 24L22 24L22 23L21 23L21 22L22 22L22 18L21 18L21 17L22 17L22 15L25 15L25 14L24 14L24 13L25 13L25 12L24 12L24 11L25 11L25 9L24 9L24 11L23 11L23 14L22 14L22 13L21 13L21 14L22 14L22 15L20 15L20 16L16 16L16 18L15 18L15 19L16 19L16 21L15 21L15 22L13 22L13 21L14 21L14 18L13 18L13 20L12 20L12 19L10 19L10 18L12 18L12 16L13 16L13 17L14 17L14 16L15 16L15 14L14 14L14 11L13 11L13 12L12 12L12 11L11 11L11 12L12 12L12 13L11 13L11 14L10 14L10 13L9 13L9 11L10 11L10 10L12 10L12 8L13 8L13 10L15 10L15 9L16 9L16 10L17 10L17 11L15 11L15 12L17 12L17 13L16 13L16 14L17 14L17 15L19 15L19 12L20 12L20 11L21 11L21 12L22 12L22 11L21 11L21 10L23 10L23 8L22 8L22 9L21 9L21 10L19 10L19 8L17 8L17 6L16 6L16 4L14 4L14 5L13 5L13 6L12 6L12 8L11 8L11 6L10 6L10 5L11 5L11 4L12 4L12 3L13 3L13 2L14 2L14 3L15 3L15 2L16 2L16 3L17 3L17 1L16 1L16 0L12 0L12 1L10 1L10 0ZM11 2L11 3L12 3L12 2ZM14 5L14 6L13 6L13 7L14 7L14 9L15 9L15 8L16 8L16 6L15 6L15 5ZM9 6L9 7L10 7L10 6ZM14 6L14 7L15 7L15 6ZM9 8L9 9L6 9L6 10L5 10L5 9L4 9L4 10L1 10L1 11L3 11L3 12L1 12L1 13L2 13L2 14L1 14L1 15L3 15L3 14L7 14L7 13L8 13L8 12L7 12L7 11L9 11L9 10L10 10L10 8ZM4 10L4 13L5 13L5 12L6 12L6 13L7 13L7 12L6 12L6 11L7 11L7 10L6 10L6 11L5 11L5 10ZM18 10L18 11L17 11L17 12L19 12L19 10ZM13 14L13 15L14 15L14 14ZM10 15L10 16L12 16L12 15ZM17 17L17 20L20 20L20 17ZM23 17L23 19L24 19L24 20L23 20L23 21L25 21L25 18L24 18L24 17ZM18 18L18 19L19 19L19 18ZM9 20L9 21L10 21L10 23L9 23L9 24L12 24L12 23L11 23L11 21L12 21L12 20ZM16 21L16 22L15 22L15 23L16 23L16 22L17 22L17 21ZM18 21L18 23L19 23L19 21ZM20 21L20 22L21 22L21 21ZM0 0L0 7L7 7L7 0ZM1 1L1 6L6 6L6 1ZM2 2L2 5L5 5L5 2ZM18 0L18 7L25 7L25 0ZM19 1L19 6L24 6L24 1ZM20 2L20 5L23 5L23 2ZM0 18L0 25L7 25L7 18ZM1 19L1 24L6 24L6 19ZM2 20L2 23L5 23L5 20Z" fill="#000000"/></g></g></svg>
