<?xml version="1.0" encoding="UTF-8"?>
<svg xmlns="http://www.w3.org/2000/svg" version="1.1" width="300" height="300" viewBox="0 0 300 300"><rect x="0" y="0" width="300" height="300" fill="#ffffff"/><g transform="scale(12)"><g transform="translate(0,0)"><path fill-rule="evenodd" d="M10 0L10 1L8 1L8 3L9 3L9 4L8 4L8 8L6 8L6 9L8 9L8 11L7 11L7 10L6 10L6 11L5 11L5 10L4 10L4 11L3 11L3 12L1 12L1 11L2 11L2 10L3 10L3 9L4 9L4 8L3 8L3 9L2 9L2 8L0 8L0 9L2 9L2 10L1 10L1 11L0 11L0 12L1 12L1 14L0 14L0 15L1 15L1 16L0 16L0 17L5 17L5 16L6 16L6 17L8 17L8 19L10 19L10 18L11 18L11 17L10 17L10 16L9 16L9 17L8 17L8 15L9 15L9 14L10 14L10 15L11 15L11 16L13 16L13 17L12 17L12 19L11 19L11 21L8 21L8 22L9 22L9 23L8 23L8 25L9 25L9 23L10 23L10 25L13 25L13 24L14 24L14 23L15 23L15 22L16 22L16 25L19 25L19 24L20 24L20 25L22 25L22 23L23 23L23 22L20 22L20 21L22 21L22 20L24 20L24 19L25 19L25 18L23 18L23 19L22 19L22 18L21 18L21 17L23 17L23 16L22 16L22 15L23 15L23 14L24 14L24 15L25 15L25 14L24 14L24 13L25 13L25 12L23 12L23 13L21 13L21 12L22 12L22 11L23 11L23 9L24 9L24 11L25 11L25 9L24 9L24 8L22 8L22 9L21 9L21 8L18 8L18 9L17 9L17 3L15 3L15 2L17 2L17 1L15 1L15 0L13 0L13 1L15 1L15 2L14 2L14 3L13 3L13 4L12 4L12 7L11 7L11 4L10 4L10 3L9 3L9 2L11 2L11 0ZM13 4L13 8L14 8L14 10L15 10L15 12L12 12L12 10L11 10L11 8L10 8L10 5L9 5L9 8L8 8L8 9L10 9L10 10L9 10L9 11L8 11L8 12L9 12L9 13L5 13L5 12L3 12L3 13L5 13L5 14L4 14L4 15L2 15L2 14L1 14L1 15L2 15L2 16L5 16L5 14L7 14L7 15L6 15L6 16L7 16L7 15L8 15L8 14L9 14L9 13L10 13L10 14L11 14L11 13L13 13L13 14L12 14L12 15L13 15L13 14L14 14L14 13L15 13L15 12L16 12L16 11L18 11L18 12L19 12L19 13L20 13L20 14L17 14L17 13L16 13L16 14L15 14L15 15L14 15L14 17L13 17L13 19L12 19L12 21L14 21L14 17L16 17L16 16L19 16L19 15L20 15L20 14L21 14L21 15L22 15L22 14L21 14L21 13L20 13L20 12L21 12L21 11L22 11L22 10L21 10L21 9L19 9L19 10L20 10L20 11L18 11L18 10L15 10L15 7L16 7L16 6L15 6L15 5L16 5L16 4L15 4L15 5L14 5L14 4ZM14 6L14 7L15 7L15 6ZM6 11L6 12L7 12L7 11ZM9 11L9 12L10 12L10 13L11 13L11 11ZM16 14L16 15L15 15L15 16L16 16L16 15L17 15L17 14ZM17 17L17 20L20 20L20 17ZM18 18L18 19L19 19L19 18ZM15 20L15 21L16 21L16 20ZM17 21L17 23L18 23L18 24L19 24L19 21ZM10 22L10 23L11 23L11 24L13 24L13 23L14 23L14 22L13 22L13 23L12 23L12 22ZM24 22L24 23L25 23L25 22ZM23 24L23 25L25 25L25 24ZM0 0L0 7L7 7L7 0ZM1 1L1 6L6 6L6 1ZM2 2L2 5L5 5L5 2ZM18 0L18 7L25 7L25 0ZM19 1L19 6L24 6L24 1ZM20 2L20 5L23 5L23 2ZM0 18L0 25L7 25L7 18ZM1 19L1 24L6 24L6 19ZM2 20L2 23L5 23L5 20Z" fill="#000000"/></g></g></svg>
