<?xml version="1.0" encoding="UTF-8"?>
<svg xmlns="http://www.w3.org/2000/svg" version="1.1" width="300" height="300" viewBox="0 0 300 300"><rect x="0" y="0" width="300" height="300" fill="#ffffff"/><g transform="scale(12)"><g transform="translate(0,0)"><path fill-rule="evenodd" d="M10 0L10 2L11 2L11 0ZM12 0L12 1L13 1L13 0ZM16 0L16 1L14 1L14 2L16 2L16 3L17 3L17 2L16 2L16 1L17 1L17 0ZM8 1L8 2L9 2L9 1ZM12 2L12 4L13 4L13 5L11 5L11 6L10 6L10 4L11 4L11 3L8 3L8 4L9 4L9 5L8 5L8 7L9 7L9 8L6 8L6 9L5 9L5 8L0 8L0 12L1 12L1 10L3 10L3 9L5 9L5 11L3 11L3 12L2 12L2 13L0 13L0 17L1 17L1 14L2 14L2 15L3 15L3 16L2 16L2 17L5 17L5 15L3 15L3 14L6 14L6 15L7 15L7 16L6 16L6 17L8 17L8 19L9 19L9 18L12 18L12 19L14 19L14 20L8 20L8 25L16 25L16 24L17 24L17 25L19 25L19 24L20 24L20 25L21 25L21 24L22 24L22 25L25 25L25 21L23 21L23 20L24 20L24 19L25 19L25 17L24 17L24 18L22 18L22 19L21 19L21 16L22 16L22 17L23 17L23 16L25 16L25 10L24 10L24 8L23 8L23 9L22 9L22 8L21 8L21 10L20 10L20 8L19 8L19 10L18 10L18 11L17 11L17 9L18 9L18 8L17 8L17 9L16 9L16 7L17 7L17 4L16 4L16 5L15 5L15 6L14 6L14 8L12 8L12 7L13 7L13 5L14 5L14 4L15 4L15 3L13 3L13 2ZM9 6L9 7L10 7L10 6ZM11 6L11 7L12 7L12 6ZM15 6L15 7L16 7L16 6ZM10 8L10 9L9 9L9 11L8 11L8 12L7 12L7 11L5 11L5 13L6 13L6 14L7 14L7 15L8 15L8 17L9 17L9 16L10 16L10 15L11 15L11 17L12 17L12 18L15 18L15 19L16 19L16 18L15 18L15 17L12 17L12 15L13 15L13 16L15 16L15 14L16 14L16 16L17 16L17 14L18 14L18 15L19 15L19 16L20 16L20 14L21 14L21 12L19 12L19 13L17 13L17 14L16 14L16 13L15 13L15 12L17 12L17 11L15 11L15 10L16 10L16 9L15 9L15 10L14 10L14 9L13 9L13 12L12 12L12 9L11 9L11 8ZM6 9L6 10L7 10L7 9ZM10 9L10 11L11 11L11 9ZM19 10L19 11L20 11L20 10ZM23 10L23 11L22 11L22 12L24 12L24 10ZM3 12L3 13L4 13L4 12ZM6 12L6 13L7 13L7 14L8 14L8 13L7 13L7 12ZM9 12L9 14L10 14L10 13L11 13L11 14L12 14L12 13L11 13L11 12ZM13 12L13 13L14 13L14 12ZM19 13L19 14L20 14L20 13ZM22 13L22 16L23 16L23 14L24 14L24 13ZM17 17L17 20L20 20L20 17ZM18 18L18 19L19 19L19 18ZM22 19L22 20L21 20L21 21L19 21L19 22L17 22L17 23L20 23L20 24L21 24L21 23L22 23L22 24L24 24L24 22L23 22L23 21L22 21L22 20L23 20L23 19ZM12 21L12 22L9 22L9 24L11 24L11 23L12 23L12 24L16 24L16 23L15 23L15 21L14 21L14 22L13 22L13 21ZM0 0L0 7L7 7L7 0ZM1 1L1 6L6 6L6 1ZM2 2L2 5L5 5L5 2ZM18 0L18 7L25 7L25 0ZM19 1L19 6L24 6L24 1ZM20 2L20 5L23 5L23 2ZM0 18L0 25L7 25L7 18ZM1 19L1 24L6 24L6 19ZM2 20L2 23L5 23L5 20Z" fill="#000000"/></g></g></svg>
