<?xml version="1.0" encoding="UTF-8"?>
<svg xmlns="http://www.w3.org/2000/svg" version="1.1" width="300" height="300" viewBox="0 0 300 300"><rect x="0" y="0" width="300" height="300" fill="#ffffff"/><g transform="scale(12)"><g transform="translate(0,0)"><path fill-rule="evenodd" d="M8 0L8 1L10 1L10 0ZM14 0L14 1L11 1L11 3L9 3L9 2L8 2L8 5L9 5L9 6L8 6L8 7L9 7L9 6L10 6L10 7L11 7L11 8L12 8L12 7L13 7L13 6L14 6L14 8L13 8L13 9L14 9L14 10L13 10L13 12L11 12L11 11L12 11L12 10L11 10L11 9L9 9L9 8L8 8L8 9L7 9L7 8L6 8L6 9L7 9L7 10L6 10L6 11L9 11L9 10L10 10L10 12L9 12L9 13L8 13L8 14L6 14L6 15L8 15L8 14L9 14L9 15L10 15L10 16L11 16L11 17L12 17L12 18L14 18L14 19L15 19L15 18L14 18L14 17L12 17L12 16L11 16L11 14L13 14L13 15L14 15L14 16L16 16L16 21L15 21L15 22L14 22L14 23L13 23L13 24L12 24L12 22L11 22L11 23L10 23L10 24L9 24L9 22L10 22L10 21L11 21L11 20L12 20L12 21L13 21L13 19L11 19L11 20L10 20L10 17L8 17L8 18L9 18L9 20L10 20L10 21L8 21L8 25L11 25L11 24L12 24L12 25L13 25L13 24L14 24L14 25L16 25L16 23L17 23L17 25L20 25L20 24L21 24L21 22L20 22L20 24L18 24L18 23L19 23L19 21L22 21L22 20L21 20L21 18L22 18L22 19L23 19L23 20L24 20L24 19L25 19L25 18L23 18L23 17L25 17L25 15L24 15L24 13L25 13L25 12L23 12L23 11L24 11L24 9L25 9L25 8L24 8L24 9L23 9L23 8L20 8L20 9L19 9L19 10L20 10L20 9L21 9L21 10L22 10L22 12L21 12L21 11L20 11L20 12L21 12L21 13L19 13L19 12L18 12L18 10L17 10L17 9L18 9L18 8L16 8L16 9L15 9L15 6L14 6L14 5L15 5L15 1L16 1L16 5L17 5L17 0ZM11 3L11 4L10 4L10 6L11 6L11 7L12 7L12 5L11 5L11 4L14 4L14 3ZM16 6L16 7L17 7L17 6ZM0 8L0 12L1 12L1 9L4 9L4 8ZM8 9L8 10L9 10L9 9ZM3 10L3 11L2 11L2 13L1 13L1 15L0 15L0 16L1 16L1 15L3 15L3 16L4 16L4 17L5 17L5 15L3 15L3 14L2 14L2 13L3 13L3 11L5 11L5 10ZM15 10L15 11L14 11L14 12L13 12L13 14L14 14L14 12L15 12L15 15L16 15L16 16L17 16L17 15L16 15L16 13L17 13L17 12L15 12L15 11L17 11L17 10ZM6 12L6 13L7 13L7 12ZM10 12L10 14L11 14L11 12ZM4 13L4 14L5 14L5 13ZM21 13L21 15L22 15L22 16L23 16L23 15L22 15L22 14L23 14L23 13ZM19 15L19 16L20 16L20 15ZM6 16L6 17L7 17L7 16ZM17 17L17 20L20 20L20 17ZM18 18L18 19L19 19L19 18ZM15 22L15 23L14 23L14 24L15 24L15 23L16 23L16 22ZM23 22L23 23L22 23L22 25L25 25L25 24L23 24L23 23L24 23L24 22ZM0 0L0 7L7 7L7 0ZM1 1L1 6L6 6L6 1ZM2 2L2 5L5 5L5 2ZM18 0L18 7L25 7L25 0ZM19 1L19 6L24 6L24 1ZM20 2L20 5L23 5L23 2ZM0 18L0 25L7 25L7 18ZM1 19L1 24L6 24L6 19ZM2 20L2 23L5 23L5 20Z" fill="#000000"/></g></g></svg>
