<?xml version="1.0" encoding="UTF-8"?>
<svg xmlns="http://www.w3.org/2000/svg" version="1.1" width="300" height="300" viewBox="0 0 300 300"><rect x="0" y="0" width="300" height="300" fill="#ffffff"/><g transform="scale(12)"><g transform="translate(0,0)"><path fill-rule="evenodd" d="M8 0L8 1L11 1L11 3L10 3L10 2L9 2L9 3L10 3L10 5L9 5L9 6L8 6L8 8L9 8L9 9L10 9L10 10L6 10L6 11L7 11L7 12L6 12L6 13L5 13L5 11L4 11L4 10L5 10L5 8L3 8L3 9L2 9L2 8L0 8L0 11L1 11L1 9L2 9L2 10L3 10L3 12L2 12L2 13L0 13L0 17L1 17L1 15L2 15L2 17L3 17L3 15L4 15L4 14L3 14L3 15L2 15L2 13L5 13L5 14L6 14L6 15L8 15L8 13L7 13L7 12L9 12L9 13L10 13L10 14L12 14L12 15L16 15L16 16L15 16L15 17L16 17L16 20L15 20L15 21L14 21L14 23L15 23L15 25L17 25L17 24L16 24L16 23L18 23L18 25L19 25L19 24L20 24L20 25L21 25L21 24L20 24L20 23L22 23L22 24L24 24L24 25L25 25L25 21L24 21L24 20L25 20L25 17L24 17L24 16L25 16L25 10L24 10L24 9L25 9L25 8L24 8L24 9L23 9L23 10L21 10L21 9L19 9L19 8L18 8L18 9L19 9L19 10L17 10L17 11L16 11L16 9L17 9L17 8L14 8L14 7L15 7L15 6L14 6L14 7L13 7L13 4L14 4L14 5L15 5L15 4L16 4L16 5L17 5L17 2L16 2L16 3L15 3L15 4L14 4L14 1L15 1L15 0L14 0L14 1L12 1L12 0ZM12 2L12 3L13 3L13 2ZM10 5L10 6L9 6L9 7L10 7L10 9L11 9L11 8L13 8L13 9L12 9L12 11L13 11L13 13L12 13L12 12L11 12L11 10L10 10L10 11L9 11L9 12L11 12L11 13L12 13L12 14L14 14L14 13L15 13L15 14L16 14L16 13L17 13L17 14L18 14L18 15L19 15L19 16L21 16L21 17L22 17L22 15L19 15L19 14L20 14L20 13L18 13L18 11L17 11L17 12L16 12L16 13L15 13L15 11L14 11L14 10L15 10L15 9L14 9L14 8L13 8L13 7L12 7L12 6L11 6L11 5ZM10 6L10 7L11 7L11 6ZM16 6L16 7L17 7L17 6ZM6 8L6 9L7 9L7 8ZM13 9L13 10L14 10L14 9ZM19 10L19 11L21 11L21 12L22 12L22 13L21 13L21 14L24 14L24 12L22 12L22 11L21 11L21 10ZM6 13L6 14L7 14L7 13ZM9 15L9 16L10 16L10 15ZM4 16L4 17L5 17L5 16ZM6 16L6 17L8 17L8 18L9 18L9 20L8 20L8 22L10 22L10 23L11 23L11 25L12 25L12 24L13 24L13 25L14 25L14 24L13 24L13 22L12 22L12 21L13 21L13 20L14 20L14 19L15 19L15 18L14 18L14 16L13 16L13 19L12 19L12 18L10 18L10 17L8 17L8 16ZM11 16L11 17L12 17L12 16ZM17 17L17 20L20 20L20 17ZM18 18L18 19L19 19L19 18ZM21 18L21 22L22 22L22 21L23 21L23 20L24 20L24 18ZM11 19L11 21L10 21L10 20L9 20L9 21L10 21L10 22L11 22L11 21L12 21L12 19ZM15 21L15 22L17 22L17 21ZM19 21L19 22L18 22L18 23L20 23L20 21ZM8 23L8 25L9 25L9 23ZM0 0L0 7L7 7L7 0ZM1 1L1 6L6 6L6 1ZM2 2L2 5L5 5L5 2ZM18 0L18 7L25 7L25 0ZM19 1L19 6L24 6L24 1ZM20 2L20 5L23 5L23 2ZM0 18L0 25L7 25L7 18ZM1 19L1 24L6 24L6 19ZM2 20L2 23L5 23L5 20Z" fill="#000000"/></g></g></svg>
