<?xml version="1.0" encoding="UTF-8"?>
<svg xmlns="http://www.w3.org/2000/svg" version="1.1" width="300" height="300" viewBox="0 0 300 300"><rect x="0" y="0" width="300" height="300" fill="#ffffff"/><g transform="scale(12)"><g transform="translate(0,0)"><path fill-rule="evenodd" d="M9 0L9 1L11 1L11 2L9 2L9 3L8 3L8 5L9 5L9 6L8 6L8 7L9 7L9 9L8 9L8 8L5 8L5 9L2 9L2 8L0 8L0 17L1 17L1 13L2 13L2 14L3 14L3 16L2 16L2 17L3 17L3 16L5 16L5 14L6 14L6 15L7 15L7 16L6 16L6 17L8 17L8 20L10 20L10 22L9 22L9 23L8 23L8 25L9 25L9 23L10 23L10 22L11 22L11 19L12 19L12 18L11 18L11 17L10 17L10 18L9 18L9 17L8 17L8 16L13 16L13 17L14 17L14 16L13 16L13 14L12 14L12 15L11 15L11 13L14 13L14 12L13 12L13 11L14 11L14 10L15 10L15 12L16 12L16 14L15 14L15 15L16 15L16 16L15 16L15 17L16 17L16 20L15 20L15 21L14 21L14 20L13 20L13 21L14 21L14 22L15 22L15 25L17 25L17 24L18 24L18 25L19 25L19 23L17 23L17 22L19 22L19 21L20 21L20 22L24 22L24 25L25 25L25 21L24 21L24 20L25 20L25 17L24 17L24 20L22 20L22 21L21 21L21 18L22 18L22 17L23 17L23 16L25 16L25 10L24 10L24 9L23 9L23 10L21 10L21 9L22 9L22 8L20 8L20 9L19 9L19 10L18 10L18 11L17 11L17 12L16 12L16 10L15 10L15 6L14 6L14 10L13 10L13 11L12 11L12 12L11 12L11 11L10 11L10 10L11 10L11 8L12 8L12 7L13 7L13 5L14 5L14 4L13 4L13 3L12 3L12 2L13 2L13 1L14 1L14 2L15 2L15 1L16 1L16 3L15 3L15 5L16 5L16 7L17 7L17 1L16 1L16 0L15 0L15 1L14 1L14 0L13 0L13 1L12 1L12 0ZM9 3L9 5L10 5L10 3ZM11 4L11 7L10 7L10 6L9 6L9 7L10 7L10 8L11 8L11 7L12 7L12 4ZM16 8L16 9L17 9L17 8ZM1 9L1 10L2 10L2 9ZM5 9L5 11L6 11L6 12L7 12L7 13L6 13L6 14L8 14L8 15L10 15L10 13L9 13L9 12L10 12L10 11L9 11L9 10L10 10L10 9L9 9L9 10L8 10L8 11L6 11L6 10L7 10L7 9ZM19 10L19 11L20 11L20 10ZM23 10L23 11L21 11L21 12L22 12L22 13L20 13L20 14L19 14L19 13L18 13L18 12L17 12L17 14L16 14L16 15L17 15L17 14L18 14L18 15L19 15L19 16L21 16L21 17L22 17L22 15L23 15L23 14L24 14L24 10ZM2 11L2 13L5 13L5 12L3 12L3 11ZM8 11L8 12L9 12L9 11ZM8 13L8 14L9 14L9 13ZM20 14L20 15L22 15L22 14ZM17 17L17 20L20 20L20 17ZM10 18L10 19L11 19L11 18ZM13 18L13 19L15 19L15 18ZM18 18L18 19L19 19L19 18ZM15 21L15 22L17 22L17 21ZM11 23L11 24L10 24L10 25L14 25L14 24L12 24L12 23ZM20 24L20 25L21 25L21 24ZM0 0L0 7L7 7L7 0ZM1 1L1 6L6 6L6 1ZM2 2L2 5L5 5L5 2ZM18 0L18 7L25 7L25 0ZM19 1L19 6L24 6L24 1ZM20 2L20 5L23 5L23 2ZM0 18L0 25L7 25L7 18ZM1 19L1 24L6 24L6 19ZM2 20L2 23L5 23L5 20Z" fill="#000000"/></g></g></svg>
