<?xml version="1.0" encoding="UTF-8"?>
<svg xmlns="http://www.w3.org/2000/svg" version="1.1" width="300" height="300" viewBox="0 0 300 300"><rect x="0" y="0" width="300" height="300" fill="#ffffff"/><g transform="scale(10.345)"><g transform="translate(0,0)"><path fill-rule="evenodd" d="M9 0L9 1L10 1L10 2L8 2L8 3L9 3L9 4L10 4L10 5L9 5L9 6L8 6L8 8L4 8L4 9L3 9L3 8L0 8L0 9L3 9L3 10L2 10L2 11L1 11L1 10L0 10L0 11L1 11L1 12L0 12L0 17L1 17L1 16L2 16L2 19L1 19L1 18L0 18L0 19L1 19L1 20L0 20L0 21L1 21L1 20L2 20L2 19L3 19L3 21L4 21L4 20L6 20L6 21L7 21L7 20L8 20L8 19L7 19L7 18L9 18L9 17L10 17L10 19L9 19L9 20L10 20L10 21L8 21L8 25L10 25L10 26L12 26L12 24L14 24L14 26L13 26L13 27L14 27L14 26L17 26L17 28L16 28L16 27L15 27L15 28L16 28L16 29L17 29L17 28L19 28L19 29L21 29L21 28L20 28L20 27L19 27L19 26L17 26L17 25L15 25L15 24L16 24L16 23L17 23L17 24L18 24L18 23L19 23L19 22L18 22L18 21L19 21L19 19L17 19L17 20L16 20L16 19L15 19L15 20L16 20L16 21L15 21L15 22L14 22L14 21L13 21L13 20L12 20L12 19L11 19L11 18L12 18L12 16L14 16L14 18L13 18L13 19L14 19L14 18L22 18L22 19L21 19L21 20L20 20L20 25L23 25L23 26L22 26L22 28L26 28L26 29L29 29L29 28L28 28L28 27L29 27L29 24L28 24L28 23L29 23L29 22L28 22L28 21L26 21L26 19L29 19L29 18L28 18L28 17L29 17L29 16L28 16L28 15L29 15L29 13L28 13L28 15L27 15L27 18L26 18L26 14L23 14L23 12L22 12L22 14L23 14L23 15L21 15L21 12L20 12L20 11L19 11L19 10L21 10L21 11L24 11L24 12L25 12L25 13L26 13L26 11L27 11L27 12L29 12L29 9L27 9L27 8L26 8L26 9L25 9L25 10L23 10L23 8L21 8L21 6L20 6L20 5L19 5L19 4L21 4L21 3L19 3L19 2L20 2L20 1L21 1L21 0L18 0L18 1L17 1L17 0L16 0L16 1L15 1L15 0L12 0L12 1L10 1L10 0ZM13 1L13 2L14 2L14 1ZM18 1L18 2L17 2L17 3L18 3L18 2L19 2L19 1ZM11 2L11 3L12 3L12 4L11 4L11 5L10 5L10 6L9 6L9 7L10 7L10 6L11 6L11 8L12 8L12 10L10 10L10 8L9 8L9 9L6 9L6 10L8 10L8 11L5 11L5 12L4 12L4 11L2 11L2 12L4 12L4 14L8 14L8 16L7 16L7 15L6 15L6 16L7 16L7 17L5 17L5 16L4 16L4 17L3 17L3 18L4 18L4 17L5 17L5 18L7 18L7 17L8 17L8 16L9 16L9 15L11 15L11 16L12 16L12 15L11 15L11 13L12 13L12 12L13 12L13 13L14 13L14 14L13 14L13 15L14 15L14 14L15 14L15 15L16 15L16 14L15 14L15 12L16 12L16 10L14 10L14 8L12 8L12 6L13 6L13 7L14 7L14 6L15 6L15 7L16 7L16 8L17 8L17 9L18 9L18 10L17 10L17 11L18 11L18 10L19 10L19 8L20 8L20 6L19 6L19 5L18 5L18 4L15 4L15 5L14 5L14 4L13 4L13 3L12 3L12 2ZM13 5L13 6L14 6L14 5ZM15 5L15 6L16 6L16 7L17 7L17 8L18 8L18 7L19 7L19 6L18 6L18 7L17 7L17 5ZM4 9L4 10L5 10L5 9ZM26 9L26 10L25 10L25 11L26 11L26 10L27 10L27 11L28 11L28 10L27 10L27 9ZM9 10L9 11L8 11L8 13L9 13L9 14L10 14L10 13L9 13L9 11L10 11L10 10ZM13 10L13 11L14 11L14 10ZM11 11L11 12L12 12L12 11ZM6 12L6 13L7 13L7 12ZM17 12L17 13L20 13L20 12ZM1 13L1 15L2 15L2 16L3 16L3 15L2 15L2 14L3 14L3 13ZM17 14L17 15L18 15L18 16L17 16L17 17L19 17L19 15L20 15L20 16L21 16L21 17L22 17L22 16L21 16L21 15L20 15L20 14L19 14L19 15L18 15L18 14ZM24 15L24 16L23 16L23 19L22 19L22 20L24 20L24 19L26 19L26 18L25 18L25 15ZM15 16L15 17L16 17L16 16ZM6 19L6 20L7 20L7 19ZM10 19L10 20L11 20L11 21L12 21L12 20L11 20L11 19ZM21 21L21 24L24 24L24 21ZM13 22L13 23L14 23L14 22ZM15 22L15 23L16 23L16 22ZM17 22L17 23L18 23L18 22ZM22 22L22 23L23 23L23 22ZM25 22L25 23L26 23L26 25L24 25L24 26L26 26L26 28L27 28L27 27L28 27L28 26L27 26L27 23L26 23L26 22ZM10 23L10 24L12 24L12 23ZM8 26L8 29L9 29L9 26ZM11 27L11 28L10 28L10 29L11 29L11 28L12 28L12 29L13 29L13 28L12 28L12 27ZM0 0L0 7L7 7L7 0ZM1 1L1 6L6 6L6 1ZM2 2L2 5L5 5L5 2ZM22 0L22 7L29 7L29 0ZM23 1L23 6L28 6L28 1ZM24 2L24 5L27 5L27 2ZM0 22L0 29L7 29L7 22ZM1 23L1 28L6 28L6 23ZM2 24L2 27L5 27L5 24Z" fill="#000000"/></g></g></svg>
