<?xml version="1.0" encoding="UTF-8"?>
<svg xmlns="http://www.w3.org/2000/svg" version="1.1" width="300" height="300" viewBox="0 0 300 300"><rect x="0" y="0" width="300" height="300" fill="#ffffff"/><g transform="scale(12)"><g transform="translate(0,0)"><path fill-rule="evenodd" d="M8 0L8 2L10 2L10 4L8 4L8 9L7 9L7 8L5 8L5 10L4 10L4 9L3 9L3 8L0 8L0 11L1 11L1 12L2 12L2 11L3 11L3 12L5 12L5 13L3 13L3 14L0 14L0 15L2 15L2 16L0 16L0 17L2 17L2 16L5 16L5 17L8 17L8 18L9 18L9 17L8 17L8 16L10 16L10 15L8 15L8 14L6 14L6 13L7 13L7 12L8 12L8 11L9 11L9 13L10 13L10 11L9 11L9 10L11 10L11 11L12 11L12 10L11 10L11 8L13 8L13 10L14 10L14 9L16 9L16 10L15 10L15 13L16 13L16 14L13 14L13 13L14 13L14 11L13 11L13 12L11 12L11 13L12 13L12 15L11 15L11 16L13 16L13 18L15 18L15 17L16 17L16 20L15 20L15 21L16 21L16 22L13 22L13 21L14 21L14 19L13 19L13 20L9 20L9 19L8 19L8 20L9 20L9 21L10 21L10 22L11 22L11 21L12 21L12 23L10 23L10 24L9 24L9 22L8 22L8 25L11 25L11 24L13 24L13 25L17 25L17 24L18 24L18 25L21 25L21 23L25 23L25 22L24 22L24 21L25 21L25 18L24 18L24 19L23 19L23 17L24 17L24 15L25 15L25 14L24 14L24 15L23 15L23 14L21 14L21 15L20 15L20 13L22 13L22 12L21 12L21 11L22 11L22 10L23 10L23 11L25 11L25 8L23 8L23 9L22 9L22 10L21 10L21 11L20 11L20 9L21 9L21 8L17 8L17 5L16 5L16 4L15 4L15 3L16 3L16 2L15 2L15 3L14 3L14 2L13 2L13 0L11 0L11 1L9 1L9 0ZM14 0L14 1L16 1L16 0ZM11 1L11 2L12 2L12 1ZM11 3L11 4L12 4L12 6L11 6L11 5L9 5L9 8L10 8L10 6L11 6L11 7L12 7L12 6L13 6L13 8L16 8L16 9L17 9L17 10L16 10L16 13L17 13L17 15L15 15L15 16L17 16L17 15L18 15L18 16L20 16L20 15L19 15L19 14L18 14L18 12L19 12L19 11L18 11L18 12L17 12L17 10L18 10L18 9L17 9L17 8L16 8L16 5L15 5L15 4L14 4L14 3ZM13 4L13 5L14 5L14 4ZM14 6L14 7L15 7L15 6ZM6 9L6 10L7 10L7 9ZM8 9L8 10L9 10L9 9ZM1 10L1 11L2 11L2 10ZM3 10L3 11L4 11L4 10ZM6 11L6 12L7 12L7 11ZM24 12L24 13L25 13L25 12ZM4 14L4 15L5 15L5 16L8 16L8 15L6 15L6 14ZM13 15L13 16L14 16L14 15ZM21 15L21 18L22 18L22 17L23 17L23 15ZM10 17L10 18L11 18L11 19L12 19L12 18L11 18L11 17ZM17 17L17 20L20 20L20 17ZM18 18L18 19L19 19L19 18ZM21 19L21 21L18 21L18 24L19 24L19 22L23 22L23 19ZM16 22L16 23L17 23L17 22ZM13 23L13 24L14 24L14 23ZM24 24L24 25L25 25L25 24ZM0 0L0 7L7 7L7 0ZM1 1L1 6L6 6L6 1ZM2 2L2 5L5 5L5 2ZM18 0L18 7L25 7L25 0ZM19 1L19 6L24 6L24 1ZM20 2L20 5L23 5L23 2ZM0 18L0 25L7 25L7 18ZM1 19L1 24L6 24L6 19ZM2 20L2 23L5 23L5 20Z" fill="#000000"/></g></g></svg>
