<?xml version="1.0" encoding="UTF-8"?>
<svg xmlns="http://www.w3.org/2000/svg" version="1.1" width="300" height="300" viewBox="0 0 300 300"><rect x="0" y="0" width="300" height="300" fill="#ffffff"/><g transform="scale(10.345)"><g transform="translate(0,0)"><path fill-rule="evenodd" d="M8 0L8 2L9 2L9 3L10 3L10 2L9 2L9 1L11 1L11 2L12 2L12 0ZM13 0L13 1L15 1L15 2L16 2L16 0ZM19 0L19 1L20 1L20 2L19 2L19 3L18 3L18 2L17 2L17 3L15 3L15 5L13 5L13 3L14 3L14 2L13 2L13 3L11 3L11 5L9 5L9 4L8 4L8 11L10 11L10 12L6 12L6 11L7 11L7 10L6 10L6 11L5 11L5 10L4 10L4 9L3 9L3 8L0 8L0 13L1 13L1 14L0 14L0 17L1 17L1 18L0 18L0 19L2 19L2 18L4 18L4 20L0 20L0 21L4 21L4 20L6 20L6 21L8 21L8 22L9 22L9 20L6 20L6 19L8 19L8 18L4 18L4 17L5 17L5 15L7 15L7 14L6 14L6 13L10 13L10 14L11 14L11 15L10 15L10 16L11 16L11 17L10 17L10 18L9 18L9 19L11 19L11 20L10 20L10 21L11 21L11 20L13 20L13 22L15 22L15 23L19 23L19 25L21 25L21 26L20 26L20 27L23 27L23 26L22 26L22 25L24 25L24 28L25 28L25 29L27 29L27 28L26 28L26 26L27 26L27 27L29 27L29 24L28 24L28 23L29 23L29 22L28 22L28 23L27 23L27 22L25 22L25 20L22 20L22 17L23 17L23 18L24 18L24 19L25 19L25 18L24 18L24 16L25 16L25 15L29 15L29 13L28 13L28 12L29 12L29 8L27 8L27 9L28 9L28 10L24 10L24 11L22 11L22 10L23 10L23 9L25 9L25 8L20 8L20 7L21 7L21 6L20 6L20 7L19 7L19 6L18 6L18 4L19 4L19 5L20 5L20 4L19 4L19 3L21 3L21 1L20 1L20 0ZM17 3L17 4L18 4L18 3ZM11 5L11 7L10 7L10 6L9 6L9 7L10 7L10 9L9 9L9 10L11 10L11 11L12 11L12 9L11 9L11 8L13 8L13 7L14 7L14 9L13 9L13 10L15 10L15 11L16 11L16 9L15 9L15 8L18 8L18 9L17 9L17 10L20 10L20 8L19 8L19 7L18 7L18 6L17 6L17 7L16 7L16 5L15 5L15 7L14 7L14 6L13 6L13 7L12 7L12 5ZM5 8L5 9L7 9L7 8ZM2 9L2 10L1 10L1 13L2 13L2 14L3 14L3 13L4 13L4 12L5 12L5 11L4 11L4 10L3 10L3 9ZM2 10L2 12L3 12L3 10ZM13 11L13 12L11 12L11 14L12 14L12 15L11 15L11 16L13 16L13 15L14 15L14 17L13 17L13 18L16 18L16 17L15 17L15 16L16 16L16 15L17 15L17 18L20 18L20 19L17 19L17 20L18 20L18 21L17 21L17 22L18 22L18 21L19 21L19 22L20 22L20 21L19 21L19 20L21 20L21 18L20 18L20 17L22 17L22 16L23 16L23 15L24 15L24 14L26 14L26 13L27 13L27 12L28 12L28 11L24 11L24 14L23 14L23 15L21 15L21 16L20 16L20 17L18 17L18 15L19 15L19 12L22 12L22 11L19 11L19 12L18 12L18 11L17 11L17 12L18 12L18 14L17 14L17 13L16 13L16 12L15 12L15 14L13 14L13 12L14 12L14 11ZM20 13L20 14L22 14L22 13ZM15 14L15 15L16 15L16 14ZM1 15L1 17L4 17L4 15ZM8 15L8 17L9 17L9 15ZM6 16L6 17L7 17L7 16ZM28 16L28 17L29 17L29 16ZM11 17L11 19L12 19L12 17ZM26 18L26 19L27 19L27 21L28 21L28 19L29 19L29 18L28 18L28 19L27 19L27 18ZM13 19L13 20L14 20L14 19ZM15 19L15 22L16 22L16 19ZM21 21L21 24L24 24L24 21ZM11 22L11 23L12 23L12 22ZM22 22L22 23L23 23L23 22ZM8 23L8 24L9 24L9 26L8 26L8 29L9 29L9 26L10 26L10 28L13 28L13 29L15 29L15 27L16 27L16 29L18 29L18 28L19 28L19 26L18 26L18 24L17 24L17 25L16 25L16 24L15 24L15 25L16 25L16 26L13 26L13 25L14 25L14 23L13 23L13 24L11 24L11 25L12 25L12 27L11 27L11 26L10 26L10 23ZM25 23L25 24L27 24L27 23ZM25 25L25 26L26 26L26 25ZM27 25L27 26L28 26L28 25ZM16 26L16 27L17 27L17 28L18 28L18 27L17 27L17 26ZM13 27L13 28L14 28L14 27ZM20 28L20 29L21 29L21 28ZM22 28L22 29L23 29L23 28ZM28 28L28 29L29 29L29 28ZM0 0L0 7L7 7L7 0ZM1 1L1 6L6 6L6 1ZM2 2L2 5L5 5L5 2ZM22 0L22 7L29 7L29 0ZM23 1L23 6L28 6L28 1ZM24 2L24 5L27 5L27 2ZM0 22L0 29L7 29L7 22ZM1 23L1 28L6 28L6 23ZM2 24L2 27L5 27L5 24Z" fill="#000000"/></g></g></svg>
