<?xml version="1.0" encoding="UTF-8"?>
<svg xmlns="http://www.w3.org/2000/svg" version="1.1" width="300" height="300" viewBox="0 0 300 300"><rect x="0" y="0" width="300" height="300" fill="#ffffff"/><g transform="scale(12)"><g transform="translate(0,0)"><path fill-rule="evenodd" d="M8 0L8 2L10 2L10 4L8 4L8 9L7 9L7 8L5 8L5 9L7 9L7 10L6 10L6 11L7 11L7 12L5 12L5 10L4 10L4 9L3 9L3 8L0 8L0 10L1 10L1 9L2 9L2 10L3 10L3 11L2 11L2 12L1 12L1 11L0 11L0 13L2 13L2 12L3 12L3 11L4 11L4 12L5 12L5 13L3 13L3 14L0 14L0 15L2 15L2 16L0 16L0 17L3 17L3 15L5 15L5 13L7 13L7 14L6 14L6 15L7 15L7 16L6 16L6 17L8 17L8 18L9 18L9 17L8 17L8 15L7 15L7 14L9 14L9 15L10 15L10 16L11 16L11 17L12 17L12 18L10 18L10 19L12 19L12 20L9 20L9 19L8 19L8 20L9 20L9 22L8 22L8 25L10 25L10 24L12 24L12 25L14 25L14 24L15 24L15 25L17 25L17 24L18 24L18 25L20 25L20 23L22 23L22 22L19 22L19 24L18 24L18 21L21 21L21 19L23 19L23 23L25 23L25 22L24 22L24 20L25 20L25 18L24 18L24 19L23 19L23 17L24 17L24 15L25 15L25 14L24 14L24 15L23 15L23 14L21 14L21 15L20 15L20 13L22 13L22 12L21 12L21 11L22 11L22 10L23 10L23 11L25 11L25 8L23 8L23 9L22 9L22 10L21 10L21 11L20 11L20 9L21 9L21 8L15 8L15 6L14 6L14 8L13 8L13 6L12 6L12 4L11 4L11 3L14 3L14 5L16 5L16 7L17 7L17 5L16 5L16 4L15 4L15 2L13 2L13 0L11 0L11 1L9 1L9 0ZM14 0L14 1L16 1L16 3L17 3L17 1L16 1L16 0ZM11 1L11 2L12 2L12 1ZM9 5L9 8L10 8L10 6L11 6L11 7L12 7L12 6L11 6L11 5ZM11 8L11 10L9 10L9 11L8 11L8 13L9 13L9 14L12 14L12 15L13 15L13 16L14 16L14 17L13 17L13 18L14 18L14 17L15 17L15 19L13 19L13 20L14 20L14 21L13 21L13 22L14 22L14 23L13 23L13 24L14 24L14 23L15 23L15 22L16 22L16 23L17 23L17 22L16 22L16 21L15 21L15 20L16 20L16 17L15 17L15 16L17 16L17 15L18 15L18 16L20 16L20 15L19 15L19 14L18 14L18 12L19 12L19 11L18 11L18 12L17 12L17 10L18 10L18 9L17 9L17 10L16 10L16 9L15 9L15 8L14 8L14 10L13 10L13 9L12 9L12 8ZM11 10L11 11L12 11L12 12L11 12L11 13L12 13L12 14L13 14L13 15L17 15L17 13L16 13L16 10L15 10L15 12L14 12L14 13L16 13L16 14L13 14L13 11L12 11L12 10ZM9 11L9 13L10 13L10 11ZM24 12L24 13L25 13L25 12ZM21 15L21 18L22 18L22 17L23 17L23 15ZM4 16L4 17L5 17L5 16ZM17 17L17 20L20 20L20 17ZM18 18L18 19L19 19L19 18ZM11 21L11 22L10 22L10 23L11 23L11 22L12 22L12 21ZM14 21L14 22L15 22L15 21ZM24 24L24 25L25 25L25 24ZM0 0L0 7L7 7L7 0ZM1 1L1 6L6 6L6 1ZM2 2L2 5L5 5L5 2ZM18 0L18 7L25 7L25 0ZM19 1L19 6L24 6L24 1ZM20 2L20 5L23 5L23 2ZM0 18L0 25L7 25L7 18ZM1 19L1 24L6 24L6 19ZM2 20L2 23L5 23L5 20Z" fill="#000000"/></g></g></svg>
