<?xml version="1.0" encoding="UTF-8"?>
<svg xmlns="http://www.w3.org/2000/svg" version="1.1" width="300" height="300" viewBox="0 0 300 300"><rect x="0" y="0" width="300" height="300" fill="#ffffff"/><g transform="scale(12)"><g transform="translate(0,0)"><path fill-rule="evenodd" d="M8 0L8 1L9 1L9 2L10 2L10 3L11 3L11 1L13 1L13 0L11 0L11 1L9 1L9 0ZM14 0L14 2L12 2L12 4L11 4L11 5L10 5L10 4L9 4L9 5L10 5L10 8L9 8L9 6L8 6L8 8L9 8L9 10L10 10L10 11L8 11L8 10L6 10L6 11L4 11L4 10L2 10L2 8L0 8L0 9L1 9L1 10L2 10L2 11L1 11L1 12L0 12L0 17L1 17L1 15L2 15L2 16L3 16L3 17L4 17L4 13L7 13L7 14L5 14L5 15L8 15L8 16L9 16L9 17L8 17L8 18L10 18L10 16L12 16L12 17L11 17L11 19L10 19L10 20L8 20L8 22L10 22L10 23L8 23L8 25L9 25L9 24L10 24L10 23L13 23L13 22L14 22L14 24L15 24L15 25L17 25L17 24L16 24L16 23L18 23L18 25L21 25L21 22L22 22L22 24L24 24L24 25L25 25L25 21L21 21L21 19L23 19L23 20L25 20L25 17L24 17L24 16L25 16L25 10L24 10L24 9L25 9L25 8L24 8L24 9L23 9L23 10L21 10L21 9L19 9L19 8L18 8L18 9L19 9L19 10L17 10L17 11L16 11L16 9L17 9L17 6L16 6L16 7L15 7L15 4L14 4L14 3L15 3L15 0ZM16 1L16 5L17 5L17 1ZM12 4L12 5L11 5L11 7L12 7L12 9L10 9L10 10L12 10L12 11L13 11L13 13L11 13L11 12L10 12L10 15L11 15L11 14L13 14L13 13L14 13L14 10L15 10L15 9L16 9L16 8L15 8L15 7L14 7L14 4ZM12 5L12 7L13 7L13 8L14 8L14 9L12 9L12 10L14 10L14 9L15 9L15 8L14 8L14 7L13 7L13 5ZM3 8L3 9L5 9L5 8ZM6 8L6 9L7 9L7 8ZM19 10L19 11L21 11L21 12L22 12L22 13L21 13L21 14L24 14L24 12L22 12L22 11L21 11L21 10ZM2 11L2 12L3 12L3 13L1 13L1 14L3 14L3 13L4 13L4 12L3 12L3 11ZM6 11L6 12L7 12L7 13L8 13L8 12L7 12L7 11ZM17 11L17 12L16 12L16 13L15 13L15 14L14 14L14 15L12 15L12 16L13 16L13 18L12 18L12 20L10 20L10 22L11 22L11 21L12 21L12 22L13 22L13 21L14 21L14 20L16 20L16 17L15 17L15 16L16 16L16 15L15 15L15 14L16 14L16 13L17 13L17 14L18 14L18 15L19 15L19 16L21 16L21 18L23 18L23 19L24 19L24 18L23 18L23 17L22 17L22 15L19 15L19 14L20 14L20 13L18 13L18 11ZM8 14L8 15L9 15L9 14ZM14 15L14 16L15 16L15 15ZM5 16L5 17L7 17L7 16ZM14 17L14 19L13 19L13 20L12 20L12 21L13 21L13 20L14 20L14 19L15 19L15 17ZM17 17L17 20L20 20L20 17ZM18 18L18 19L19 19L19 18ZM15 21L15 22L17 22L17 21ZM19 21L19 22L18 22L18 23L20 23L20 21ZM12 24L12 25L13 25L13 24ZM0 0L0 7L7 7L7 0ZM1 1L1 6L6 6L6 1ZM2 2L2 5L5 5L5 2ZM18 0L18 7L25 7L25 0ZM19 1L19 6L24 6L24 1ZM20 2L20 5L23 5L23 2ZM0 18L0 25L7 25L7 18ZM1 19L1 24L6 24L6 19ZM2 20L2 23L5 23L5 20Z" fill="#000000"/></g></g></svg>
