<?xml version="1.0" encoding="UTF-8"?>
<svg xmlns="http://www.w3.org/2000/svg" version="1.1" width="300" height="300" viewBox="0 0 300 300"><rect x="0" y="0" width="300" height="300" fill="#ffffff"/><g transform="scale(12)"><g transform="translate(0,0)"><path fill-rule="evenodd" d="M8 0L8 1L9 1L9 2L10 2L10 3L11 3L11 1L13 1L13 2L12 2L12 4L11 4L11 5L10 5L10 4L9 4L9 5L10 5L10 8L9 8L9 6L8 6L8 8L9 8L9 10L6 10L6 11L7 11L7 12L6 12L6 13L7 13L7 12L8 12L8 14L5 14L5 12L4 12L4 13L3 13L3 14L4 14L4 15L3 15L3 16L2 16L2 17L3 17L3 16L5 16L5 15L7 15L7 16L6 16L6 17L8 17L8 18L10 18L10 19L9 19L9 20L8 20L8 22L9 22L9 23L8 23L8 25L10 25L10 24L9 24L9 23L11 23L11 21L10 21L10 19L12 19L12 21L14 21L14 24L13 24L13 25L17 25L17 24L16 24L16 23L18 23L18 25L21 25L21 24L20 24L20 23L21 23L21 22L22 22L22 24L24 24L24 25L25 25L25 20L24 20L24 19L25 19L25 17L24 17L24 16L25 16L25 10L24 10L24 9L25 9L25 8L24 8L24 9L23 9L23 10L21 10L21 9L19 9L19 8L18 8L18 9L19 9L19 10L17 10L17 11L16 11L16 10L15 10L15 9L17 9L17 8L15 8L15 6L14 6L14 5L17 5L17 3L16 3L16 2L17 2L17 0L16 0L16 2L15 2L15 0L11 0L11 1L9 1L9 0ZM14 2L14 3L13 3L13 4L12 4L12 5L11 5L11 7L12 7L12 9L10 9L10 10L9 10L9 11L10 11L10 10L12 10L12 11L13 11L13 10L12 10L12 9L13 9L13 7L14 7L14 6L13 6L13 7L12 7L12 5L14 5L14 4L15 4L15 2ZM16 6L16 7L17 7L17 6ZM0 8L0 10L5 10L5 8L3 8L3 9L2 9L2 8ZM6 8L6 9L7 9L7 8ZM14 8L14 9L15 9L15 8ZM14 10L14 13L15 13L15 14L14 14L14 15L12 15L12 16L11 16L11 15L10 15L10 18L11 18L11 17L14 17L14 16L16 16L16 15L15 15L15 14L16 14L16 13L17 13L17 14L18 14L18 15L19 15L19 16L21 16L21 18L23 18L23 19L21 19L21 21L24 21L24 20L23 20L23 19L24 19L24 18L23 18L23 17L22 17L22 15L19 15L19 14L20 14L20 13L18 13L18 11L17 11L17 12L16 12L16 13L15 13L15 10ZM19 10L19 11L21 11L21 12L22 12L22 13L21 13L21 14L24 14L24 12L22 12L22 11L21 11L21 10ZM0 11L0 12L1 12L1 13L0 13L0 17L1 17L1 15L2 15L2 12L1 12L1 11ZM10 12L10 13L9 13L9 14L8 14L8 17L9 17L9 14L13 14L13 13L11 13L11 12ZM15 17L15 18L12 18L12 19L13 19L13 20L14 20L14 19L15 19L15 20L16 20L16 17ZM17 17L17 20L20 20L20 17ZM18 18L18 19L19 19L19 18ZM9 21L9 22L10 22L10 21ZM15 21L15 22L17 22L17 21ZM19 21L19 22L18 22L18 23L20 23L20 21ZM12 22L12 23L13 23L13 22ZM0 0L0 7L7 7L7 0ZM1 1L1 6L6 6L6 1ZM2 2L2 5L5 5L5 2ZM18 0L18 7L25 7L25 0ZM19 1L19 6L24 6L24 1ZM20 2L20 5L23 5L23 2ZM0 18L0 25L7 25L7 18ZM1 19L1 24L6 24L6 19ZM2 20L2 23L5 23L5 20Z" fill="#000000"/></g></g></svg>
