<?xml version="1.0" encoding="UTF-8"?>
<svg xmlns="http://www.w3.org/2000/svg" version="1.1" width="300" height="300" viewBox="0 0 300 300"><rect x="0" y="0" width="300" height="300" fill="#ffffff"/><g transform="scale(12)"><g transform="translate(0,0)"><path fill-rule="evenodd" d="M10 0L10 1L9 1L9 2L8 2L8 3L9 3L9 5L10 5L10 7L11 7L11 9L12 9L12 11L11 11L11 10L10 10L10 9L9 9L9 6L8 6L8 8L4 8L4 9L9 9L9 10L10 10L10 11L9 11L9 12L6 12L6 11L8 11L8 10L3 10L3 8L0 8L0 10L2 10L2 12L1 12L1 14L0 14L0 15L1 15L1 16L0 16L0 17L1 17L1 16L2 16L2 17L3 17L3 16L2 16L2 15L3 15L3 14L2 14L2 13L3 13L3 11L4 11L4 16L5 16L5 17L7 17L7 16L8 16L8 14L10 14L10 15L9 15L9 17L8 17L8 21L9 21L9 22L8 22L8 25L9 25L9 22L10 22L10 24L11 24L11 22L10 22L10 21L9 21L9 17L10 17L10 19L11 19L11 21L12 21L12 22L14 22L14 23L12 23L12 25L14 25L14 24L15 24L15 22L17 22L17 21L19 21L19 22L20 22L20 23L19 23L19 24L17 24L17 23L16 23L16 25L19 25L19 24L20 24L20 25L22 25L22 23L23 23L23 25L25 25L25 24L24 24L24 23L25 23L25 22L24 22L24 23L23 23L23 22L22 22L22 19L23 19L23 21L24 21L24 19L25 19L25 18L24 18L24 17L22 17L22 15L25 15L25 14L24 14L24 13L25 13L25 12L24 12L24 11L25 11L25 9L24 9L24 11L23 11L23 14L22 14L22 13L21 13L21 12L22 12L22 11L20 11L20 13L21 13L21 14L22 14L22 15L19 15L19 16L16 16L16 15L18 15L18 14L19 14L19 12L14 12L14 11L13 11L13 10L15 10L15 9L14 9L14 7L15 7L15 8L16 8L16 11L17 11L17 10L18 10L18 11L19 11L19 8L16 8L16 7L17 7L17 5L16 5L16 4L17 4L17 1L16 1L16 0L14 0L14 1L13 1L13 2L14 2L14 1L15 1L15 2L16 2L16 4L15 4L15 3L14 3L14 4L12 4L12 5L10 5L10 3L9 3L9 2L10 2L10 1L11 1L11 0ZM11 2L11 3L12 3L12 2ZM13 5L13 7L12 7L12 6L11 6L11 7L12 7L12 8L13 8L13 7L14 7L14 5ZM15 6L15 7L16 7L16 6ZM22 8L22 9L21 9L21 10L23 10L23 8ZM5 12L5 16L7 16L7 15L6 15L6 14L8 14L8 13L6 13L6 12ZM9 12L9 13L10 13L10 12ZM11 12L11 15L10 15L10 16L11 16L11 19L13 19L13 18L14 18L14 22L15 22L15 21L16 21L16 20L15 20L15 17L16 17L16 16L15 16L15 15L16 15L16 13L14 13L14 14L12 14L12 13L13 13L13 12ZM1 14L1 15L2 15L2 14ZM14 14L14 15L11 15L11 16L13 16L13 17L12 17L12 18L13 18L13 17L14 17L14 15L15 15L15 14ZM17 17L17 20L20 20L20 17ZM18 18L18 19L19 19L19 18ZM21 18L21 19L22 19L22 18ZM20 21L20 22L21 22L21 23L22 23L22 22L21 22L21 21ZM0 0L0 7L7 7L7 0ZM1 1L1 6L6 6L6 1ZM2 2L2 5L5 5L5 2ZM18 0L18 7L25 7L25 0ZM19 1L19 6L24 6L24 1ZM20 2L20 5L23 5L23 2ZM0 18L0 25L7 25L7 18ZM1 19L1 24L6 24L6 19ZM2 20L2 23L5 23L5 20Z" fill="#000000"/></g></g></svg>
