<?xml version="1.0" encoding="UTF-8"?>
<svg xmlns="http://www.w3.org/2000/svg" version="1.1" width="300" height="300" viewBox="0 0 300 300"><rect x="0" y="0" width="300" height="300" fill="#ffffff"/><g transform="scale(12)"><g transform="translate(0,0)"><path fill-rule="evenodd" d="M9 0L9 1L10 1L10 2L8 2L8 3L9 3L9 4L10 4L10 5L9 5L9 6L8 6L8 8L4 8L4 9L9 9L9 8L10 8L10 10L9 10L9 11L10 11L10 10L13 10L13 11L12 11L12 12L11 12L11 14L9 14L9 12L8 12L8 14L6 14L6 13L7 13L7 12L5 12L5 11L8 11L8 10L3 10L3 11L2 11L2 10L1 10L1 12L0 12L0 13L1 13L1 14L0 14L0 15L1 15L1 16L0 16L0 17L1 17L1 16L2 16L2 17L5 17L5 14L6 14L6 15L7 15L7 16L6 16L6 17L7 17L7 16L8 16L8 14L9 14L9 15L11 15L11 14L12 14L12 15L13 15L13 17L11 17L11 18L10 18L10 19L9 19L9 17L10 17L10 16L9 16L9 17L8 17L8 21L9 21L9 22L8 22L8 25L10 25L10 24L11 24L11 25L13 25L13 24L15 24L15 22L17 22L17 21L19 21L19 22L20 22L20 23L21 23L21 25L22 25L22 22L20 22L20 21L22 21L22 19L25 19L25 18L24 18L24 17L22 17L22 15L25 15L25 14L24 14L24 13L25 13L25 12L24 12L24 11L25 11L25 9L24 9L24 11L23 11L23 14L22 14L22 13L21 13L21 12L22 12L22 11L20 11L20 13L21 13L21 14L22 14L22 15L19 15L19 16L16 16L16 15L18 15L18 14L19 14L19 12L17 12L17 13L15 13L15 14L14 14L14 15L13 15L13 12L14 12L14 11L15 11L15 10L18 10L18 11L19 11L19 8L16 8L16 7L17 7L17 5L15 5L15 4L17 4L17 3L15 3L15 2L17 2L17 1L15 1L15 2L14 2L14 3L13 3L13 4L14 4L14 5L13 5L13 6L12 6L12 5L11 5L11 4L12 4L12 3L11 3L11 2L13 2L13 0L12 0L12 1L11 1L11 0ZM10 5L10 6L9 6L9 7L10 7L10 6L11 6L11 7L12 7L12 6L11 6L11 5ZM14 5L14 6L13 6L13 7L14 7L14 6L15 6L15 7L16 7L16 6L15 6L15 5ZM0 8L0 9L3 9L3 8ZM11 8L11 9L12 9L12 8ZM13 8L13 9L14 9L14 10L15 10L15 9L16 9L16 8ZM22 8L22 9L21 9L21 10L23 10L23 8ZM1 12L1 13L2 13L2 14L1 14L1 15L2 15L2 16L3 16L3 13L5 13L5 12L3 12L3 13L2 13L2 12ZM15 14L15 15L14 15L14 16L15 16L15 17L14 17L14 18L11 18L11 19L12 19L12 20L13 20L13 21L16 21L16 20L15 20L15 19L14 19L14 18L15 18L15 17L16 17L16 16L15 16L15 15L16 15L16 14ZM17 17L17 20L20 20L20 17ZM18 18L18 19L19 19L19 18ZM21 18L21 19L22 19L22 18ZM13 19L13 20L14 20L14 19ZM9 20L9 21L10 21L10 23L9 23L9 24L10 24L10 23L12 23L12 24L13 24L13 23L12 23L12 22L11 22L11 20ZM23 20L23 21L24 21L24 20ZM24 22L24 23L23 23L23 25L25 25L25 24L24 24L24 23L25 23L25 22ZM16 23L16 25L19 25L19 24L17 24L17 23ZM0 0L0 7L7 7L7 0ZM1 1L1 6L6 6L6 1ZM2 2L2 5L5 5L5 2ZM18 0L18 7L25 7L25 0ZM19 1L19 6L24 6L24 1ZM20 2L20 5L23 5L23 2ZM0 18L0 25L7 25L7 18ZM1 19L1 24L6 24L6 19ZM2 20L2 23L5 23L5 20Z" fill="#000000"/></g></g></svg>
