<?xml version="1.0" encoding="UTF-8"?>
<svg xmlns="http://www.w3.org/2000/svg" version="1.1" width="300" height="300" viewBox="0 0 300 300"><rect x="0" y="0" width="300" height="300" fill="#ffffff"/><g transform="scale(12)"><g transform="translate(0,0)"><path fill-rule="evenodd" d="M8 0L8 4L9 4L9 5L8 5L8 7L9 7L9 6L10 6L10 9L11 9L11 8L12 8L12 9L13 9L13 10L14 10L14 9L13 9L13 8L12 8L12 7L13 7L13 6L14 6L14 7L15 7L15 8L16 8L16 9L15 9L15 14L14 14L14 13L13 13L13 11L12 11L12 12L11 12L11 13L10 13L10 14L8 14L8 10L9 10L9 12L10 12L10 11L11 11L11 10L9 10L9 9L8 9L8 10L6 10L6 9L7 9L7 8L4 8L4 9L2 9L2 8L0 8L0 11L1 11L1 12L0 12L0 14L1 14L1 13L2 13L2 14L3 14L3 15L2 15L2 16L0 16L0 17L3 17L3 15L4 15L4 17L5 17L5 15L7 15L7 16L6 16L6 17L8 17L8 18L9 18L9 19L8 19L8 21L9 21L9 23L8 23L8 25L9 25L9 24L11 24L11 25L13 25L13 24L12 24L12 21L13 21L13 20L12 20L12 19L14 19L14 17L13 17L13 18L12 18L12 17L11 17L11 16L13 16L13 15L12 15L12 14L14 14L14 16L15 16L15 17L16 17L16 21L18 21L18 23L17 23L17 22L15 22L15 21L14 21L14 22L13 22L13 23L14 23L14 24L16 24L16 23L17 23L17 24L19 24L19 25L20 25L20 24L23 24L23 25L25 25L25 24L24 24L24 22L25 22L25 21L23 21L23 20L25 20L25 19L23 19L23 14L21 14L21 13L20 13L20 12L17 12L17 11L16 11L16 10L17 10L17 8L16 8L16 7L17 7L17 6L16 6L16 7L15 7L15 5L17 5L17 0L14 0L14 1L16 1L16 2L15 2L15 3L16 3L16 4L14 4L14 3L13 3L13 1L11 1L11 2L12 2L12 5L13 5L13 6L12 6L12 7L11 7L11 3L10 3L10 2L9 2L9 0ZM19 8L19 9L20 9L20 10L18 10L18 11L20 11L20 10L21 10L21 12L22 12L22 13L24 13L24 14L25 14L25 12L24 12L24 9L25 9L25 8L21 8L21 9L20 9L20 8ZM1 9L1 10L2 10L2 13L3 13L3 12L4 12L4 15L5 15L5 13L6 13L6 14L7 14L7 15L8 15L8 14L7 14L7 13L6 13L6 12L7 12L7 11L6 11L6 10L5 10L5 9L4 9L4 11L3 11L3 10L2 10L2 9ZM21 9L21 10L22 10L22 11L23 11L23 10L22 10L22 9ZM5 11L5 12L6 12L6 11ZM16 12L16 13L17 13L17 15L15 15L15 16L19 16L19 15L20 15L20 13L17 13L17 12ZM11 13L11 14L10 14L10 16L11 16L11 14L12 14L12 13ZM8 16L8 17L9 17L9 18L10 18L10 19L9 19L9 20L10 20L10 19L11 19L11 18L10 18L10 17L9 17L9 16ZM17 17L17 20L20 20L20 17ZM21 17L21 18L22 18L22 17ZM24 17L24 18L25 18L25 17ZM18 18L18 19L19 19L19 18ZM21 21L21 22L20 22L20 23L19 23L19 24L20 24L20 23L21 23L21 22L23 22L23 21ZM10 22L10 23L11 23L11 22ZM0 0L0 7L7 7L7 0ZM1 1L1 6L6 6L6 1ZM2 2L2 5L5 5L5 2ZM18 0L18 7L25 7L25 0ZM19 1L19 6L24 6L24 1ZM20 2L20 5L23 5L23 2ZM0 18L0 25L7 25L7 18ZM1 19L1 24L6 24L6 19ZM2 20L2 23L5 23L5 20Z" fill="#000000"/></g></g></svg>
