<?xml version="1.0" encoding="UTF-8"?>
<svg xmlns="http://www.w3.org/2000/svg" version="1.1" width="300" height="300" viewBox="0 0 300 300"><rect x="0" y="0" width="300" height="300" fill="#ffffff"/><g transform="scale(12)"><g transform="translate(0,0)"><path fill-rule="evenodd" d="M9 0L9 1L11 1L11 2L9 2L9 3L8 3L8 5L9 5L9 6L8 6L8 7L9 7L9 9L8 9L8 8L5 8L5 9L3 9L3 10L4 10L4 11L3 11L3 13L2 13L2 10L1 10L1 9L2 9L2 8L0 8L0 12L1 12L1 13L0 13L0 17L1 17L1 14L2 14L2 15L4 15L4 16L3 16L3 17L4 17L4 16L5 16L5 17L8 17L8 20L9 20L9 23L8 23L8 25L13 25L13 24L11 24L11 22L12 22L12 23L13 23L13 22L12 22L12 21L14 21L14 22L15 22L15 23L14 23L14 24L15 24L15 25L18 25L18 24L17 24L17 23L18 23L18 22L19 22L19 23L20 23L20 24L19 24L19 25L20 25L20 24L21 24L21 25L23 25L23 24L21 24L21 23L20 23L20 22L21 22L21 19L23 19L23 16L25 16L25 10L24 10L24 9L23 9L23 10L21 10L21 9L22 9L22 8L20 8L20 9L19 9L19 11L18 11L18 10L16 10L16 7L17 7L17 3L16 3L16 2L14 2L14 3L13 3L13 4L12 4L12 2L13 2L13 1L12 1L12 0ZM14 0L14 1L15 1L15 0ZM9 3L9 5L10 5L10 3ZM14 3L14 5L15 5L15 7L14 7L14 6L13 6L13 5L12 5L12 4L11 4L11 7L10 7L10 6L9 6L9 7L10 7L10 8L11 8L11 10L10 10L10 9L9 9L9 10L10 10L10 11L9 11L9 12L8 12L8 13L6 13L6 14L8 14L8 13L9 13L9 15L10 15L10 16L14 16L14 15L15 15L15 14L14 14L14 13L15 13L15 12L17 12L17 14L19 14L19 15L20 15L20 16L21 16L21 18L22 18L22 15L23 15L23 14L24 14L24 10L23 10L23 11L21 11L21 10L20 10L20 11L19 11L19 12L20 12L20 14L19 14L19 13L18 13L18 12L17 12L17 11L15 11L15 10L14 10L14 9L15 9L15 7L16 7L16 4L15 4L15 3ZM12 6L12 9L14 9L14 8L13 8L13 6ZM6 9L6 10L5 10L5 11L4 11L4 12L7 12L7 11L6 11L6 10L7 10L7 9ZM11 10L11 11L10 11L10 12L9 12L9 13L10 13L10 15L11 15L11 12L12 12L12 15L13 15L13 12L12 12L12 11L13 11L13 10ZM21 12L21 13L22 13L22 12ZM3 13L3 14L5 14L5 13ZM20 14L20 15L22 15L22 14ZM5 15L5 16L8 16L8 17L9 17L9 16L8 16L8 15ZM10 17L10 18L9 18L9 20L11 20L11 19L10 19L10 18L11 18L11 17ZM12 17L12 20L15 20L15 19L16 19L16 18L15 18L15 17L14 17L14 18L15 18L15 19L13 19L13 17ZM17 17L17 20L20 20L20 17ZM24 17L24 19L25 19L25 17ZM18 18L18 19L19 19L19 18ZM22 20L22 21L23 21L23 22L24 22L24 25L25 25L25 21L23 21L23 20ZM15 21L15 22L16 22L16 23L15 23L15 24L16 24L16 23L17 23L17 22L18 22L18 21L17 21L17 22L16 22L16 21ZM19 21L19 22L20 22L20 21ZM0 0L0 7L7 7L7 0ZM1 1L1 6L6 6L6 1ZM2 2L2 5L5 5L5 2ZM18 0L18 7L25 7L25 0ZM19 1L19 6L24 6L24 1ZM20 2L20 5L23 5L23 2ZM0 18L0 25L7 25L7 18ZM1 19L1 24L6 24L6 19ZM2 20L2 23L5 23L5 20Z" fill="#000000"/></g></g></svg>
