<?xml version="1.0" encoding="UTF-8"?>
<svg xmlns="http://www.w3.org/2000/svg" version="1.1" width="300" height="300" viewBox="0 0 300 300"><rect x="0" y="0" width="300" height="300" fill="#ffffff"/><g transform="scale(12)"><g transform="translate(0,0)"><path fill-rule="evenodd" d="M8 0L8 2L10 2L10 4L8 4L8 10L11 10L11 11L12 11L12 12L11 12L11 14L10 14L10 16L9 16L9 17L8 17L8 16L6 16L6 15L7 15L7 14L5 14L5 13L10 13L10 11L9 11L9 12L8 12L8 11L7 11L7 10L6 10L6 11L5 11L5 10L4 10L4 9L3 9L3 8L0 8L0 9L1 9L1 10L0 10L0 11L2 11L2 9L3 9L3 10L4 10L4 12L3 12L3 13L1 13L1 12L0 12L0 13L1 13L1 14L0 14L0 15L3 15L3 17L5 17L5 16L6 16L6 17L8 17L8 18L11 18L11 19L8 19L8 20L9 20L9 22L8 22L8 25L11 25L11 24L12 24L12 25L13 25L13 24L12 24L12 23L14 23L14 24L15 24L15 25L18 25L18 24L19 24L19 25L20 25L20 24L21 24L21 25L23 25L23 24L21 24L21 22L22 22L22 21L21 21L21 19L23 19L23 23L25 23L25 22L24 22L24 20L25 20L25 18L24 18L24 19L23 19L23 17L24 17L24 15L25 15L25 14L24 14L24 15L23 15L23 14L21 14L21 15L20 15L20 12L18 12L18 11L17 11L17 9L18 9L18 10L20 10L20 11L22 11L22 10L23 10L23 11L25 11L25 8L23 8L23 9L22 9L22 10L20 10L20 9L21 9L21 8L17 8L17 5L16 5L16 8L15 8L15 6L14 6L14 8L15 8L15 11L17 11L17 12L16 12L16 13L15 13L15 12L14 12L14 13L15 13L15 14L13 14L13 11L12 11L12 10L11 10L11 8L12 8L12 9L13 9L13 10L14 10L14 9L13 9L13 6L12 6L12 4L11 4L11 3L13 3L13 5L15 5L15 2L13 2L13 0L11 0L11 1L9 1L9 0ZM14 0L14 1L15 1L15 0ZM11 1L11 2L12 2L12 1ZM16 1L16 4L17 4L17 1ZM9 5L9 8L10 8L10 6L11 6L11 7L12 7L12 6L11 6L11 5ZM5 8L5 9L7 9L7 8ZM16 8L16 9L17 9L17 8ZM6 11L6 12L7 12L7 11ZM17 12L17 15L16 15L16 16L17 16L17 15L18 15L18 16L19 16L19 15L18 15L18 12ZM21 12L21 13L22 13L22 12ZM24 12L24 13L25 13L25 12ZM3 14L3 15L4 15L4 16L5 16L5 15L4 15L4 14ZM11 15L11 16L10 16L10 17L12 17L12 15ZM13 15L13 17L14 17L14 18L12 18L12 19L11 19L11 20L13 20L13 22L14 22L14 23L15 23L15 24L16 24L16 23L15 23L15 22L17 22L17 24L18 24L18 23L19 23L19 24L20 24L20 22L21 22L21 21L15 21L15 19L16 19L16 17L15 17L15 15ZM21 15L21 18L22 18L22 17L23 17L23 15ZM0 16L0 17L2 17L2 16ZM17 17L17 20L20 20L20 17ZM14 18L14 19L15 19L15 18ZM18 18L18 19L19 19L19 18ZM10 21L10 22L9 22L9 24L11 24L11 21ZM14 21L14 22L15 22L15 21ZM24 24L24 25L25 25L25 24ZM0 0L0 7L7 7L7 0ZM1 1L1 6L6 6L6 1ZM2 2L2 5L5 5L5 2ZM18 0L18 7L25 7L25 0ZM19 1L19 6L24 6L24 1ZM20 2L20 5L23 5L23 2ZM0 18L0 25L7 25L7 18ZM1 19L1 24L6 24L6 19ZM2 20L2 23L5 23L5 20Z" fill="#000000"/></g></g></svg>
