<?xml version="1.0" encoding="UTF-8"?>
<svg xmlns="http://www.w3.org/2000/svg" version="1.1" width="300" height="300" viewBox="0 0 300 300"><rect x="0" y="0" width="300" height="300" fill="#ffffff"/><g transform="scale(10.345)"><g transform="translate(0,0)"><path fill-rule="evenodd" d="M10 0L10 1L9 1L9 2L8 2L8 3L9 3L9 5L10 5L10 7L11 7L11 8L12 8L12 9L11 9L11 10L10 10L10 9L9 9L9 6L8 6L8 8L4 8L4 9L3 9L3 8L0 8L0 10L1 10L1 12L0 12L0 14L1 14L1 15L2 15L2 14L3 14L3 16L5 16L5 15L4 15L4 14L3 14L3 13L4 13L4 11L3 11L3 10L4 10L4 9L7 9L7 10L5 10L5 11L9 11L9 12L5 12L5 14L6 14L6 15L7 15L7 16L6 16L6 17L1 17L1 16L0 16L0 17L1 17L1 18L0 18L0 19L1 19L1 20L0 20L0 21L1 21L1 20L2 20L2 21L3 21L3 20L6 20L6 21L7 21L7 20L9 20L9 18L10 18L10 19L12 19L12 20L11 20L11 21L8 21L8 25L9 25L9 26L8 26L8 29L9 29L9 27L10 27L10 28L11 28L11 29L12 29L12 28L14 28L14 29L15 29L15 28L18 28L18 27L19 27L19 29L21 29L21 28L22 28L22 29L24 29L24 28L25 28L25 26L28 26L28 27L27 27L27 28L26 28L26 29L29 29L29 28L28 28L28 27L29 27L29 22L28 22L28 21L27 21L27 22L26 22L26 19L29 19L29 18L28 18L28 17L29 17L29 16L28 16L28 15L29 15L29 13L28 13L28 15L27 15L27 13L26 13L26 11L27 11L27 12L29 12L29 9L27 9L27 8L26 8L26 9L25 9L25 10L24 10L24 9L23 9L23 8L20 8L20 7L21 7L21 5L20 5L20 4L21 4L21 1L20 1L20 0L17 0L17 2L18 2L18 5L17 5L17 4L16 4L16 5L14 5L14 3L12 3L12 2L11 2L11 3L12 3L12 5L10 5L10 3L9 3L9 2L10 2L10 1L11 1L11 0ZM14 0L14 1L13 1L13 2L14 2L14 1L15 1L15 0ZM18 1L18 2L19 2L19 1ZM15 2L15 3L16 3L16 2ZM13 5L13 7L12 7L12 6L11 6L11 7L12 7L12 8L13 8L13 9L14 9L14 10L13 10L13 11L14 11L14 10L15 10L15 11L16 11L16 12L15 12L15 14L14 14L14 12L12 12L12 11L11 11L11 12L12 12L12 14L10 14L10 12L9 12L9 13L6 13L6 14L7 14L7 15L8 15L8 16L7 16L7 17L6 17L6 18L4 18L4 19L6 19L6 20L7 20L7 19L8 19L8 18L9 18L9 16L10 16L10 15L12 15L12 16L11 16L11 17L10 17L10 18L11 18L11 17L12 17L12 16L13 16L13 17L14 17L14 18L13 18L13 19L14 19L14 18L15 18L15 20L16 20L16 19L18 19L18 18L19 18L19 20L18 20L18 21L19 21L19 20L20 20L20 16L19 16L19 15L20 15L20 13L22 13L22 12L21 12L21 11L23 11L23 14L25 14L25 15L26 15L26 17L27 17L27 15L26 15L26 14L25 14L25 11L26 11L26 10L27 10L27 11L28 11L28 10L27 10L27 9L26 9L26 10L25 10L25 11L23 11L23 10L22 10L22 9L21 9L21 11L20 11L20 8L18 8L18 9L17 9L17 8L15 8L15 7L16 7L16 6L17 6L17 7L18 7L18 6L17 6L17 5L16 5L16 6L15 6L15 7L14 7L14 5ZM19 6L19 7L20 7L20 6ZM1 9L1 10L3 10L3 9ZM8 9L8 10L9 10L9 11L10 11L10 10L9 10L9 9ZM16 9L16 10L17 10L17 12L16 12L16 15L17 15L17 17L16 17L16 18L18 18L18 15L19 15L19 14L18 14L18 15L17 15L17 13L18 13L18 12L19 12L19 10L17 10L17 9ZM2 11L2 12L3 12L3 11ZM8 14L8 15L10 15L10 14ZM13 14L13 15L14 15L14 14ZM21 14L21 15L22 15L22 16L23 16L23 17L22 17L22 18L21 18L21 20L22 20L22 18L25 18L25 19L24 19L24 20L25 20L25 19L26 19L26 18L25 18L25 16L24 16L24 15L22 15L22 14ZM7 17L7 18L6 18L6 19L7 19L7 18L8 18L8 17ZM1 18L1 19L3 19L3 18ZM12 20L12 22L11 22L11 23L12 23L12 24L11 24L11 25L10 25L10 27L11 27L11 28L12 28L12 27L11 27L11 25L12 25L12 24L13 24L13 25L14 25L14 26L13 26L13 27L14 27L14 26L15 26L15 27L16 27L16 25L15 25L15 23L16 23L16 24L17 24L17 23L16 23L16 21L15 21L15 22L14 22L14 20ZM21 21L21 24L24 24L24 21ZM13 22L13 23L14 23L14 22ZM22 22L22 23L23 23L23 22ZM9 23L9 24L10 24L10 23ZM18 23L18 24L19 24L19 25L18 25L18 26L17 26L17 27L18 27L18 26L19 26L19 27L20 27L20 26L21 26L21 27L23 27L23 25L20 25L20 23ZM26 23L26 24L25 24L25 25L26 25L26 24L27 24L27 25L28 25L28 23ZM0 0L0 7L7 7L7 0ZM1 1L1 6L6 6L6 1ZM2 2L2 5L5 5L5 2ZM22 0L22 7L29 7L29 0ZM23 1L23 6L28 6L28 1ZM24 2L24 5L27 5L27 2ZM0 22L0 29L7 29L7 22ZM1 23L1 28L6 28L6 23ZM2 24L2 27L5 27L5 24Z" fill="#000000"/></g></g></svg>
