<?xml version="1.0" encoding="UTF-8"?>
<svg xmlns="http://www.w3.org/2000/svg" version="1.1" width="300" height="300" viewBox="0 0 300 300"><rect x="0" y="0" width="300" height="300" fill="#ffffff"/><g transform="scale(10.345)"><g transform="translate(0,0)"><path fill-rule="evenodd" d="M8 0L8 2L9 2L9 3L10 3L10 2L9 2L9 1L11 1L11 2L12 2L12 0ZM13 0L13 4L12 4L12 3L11 3L11 5L9 5L9 4L8 4L8 9L10 9L10 7L11 7L11 5L14 5L14 8L16 8L16 9L14 9L14 11L16 11L16 13L15 13L15 12L14 12L14 13L13 13L13 11L12 11L12 9L11 9L11 10L9 10L9 11L8 11L8 10L6 10L6 9L7 9L7 8L5 8L5 9L4 9L4 10L3 10L3 13L2 13L2 12L0 12L0 13L2 13L2 14L3 14L3 13L4 13L4 16L6 16L6 17L4 17L4 18L6 18L6 19L8 19L8 20L9 20L9 21L8 21L8 22L9 22L9 21L10 21L10 24L9 24L9 23L8 23L8 24L9 24L9 26L8 26L8 29L9 29L9 28L11 28L11 29L13 29L13 28L11 28L11 27L12 27L12 26L13 26L13 27L14 27L14 26L15 26L15 29L16 29L16 25L17 25L17 26L18 26L18 28L20 28L20 29L21 29L21 28L22 28L22 29L26 29L26 27L25 27L25 26L27 26L27 27L29 27L29 24L28 24L28 23L29 23L29 21L28 21L28 20L27 20L27 21L26 21L26 20L25 20L25 19L26 19L26 18L28 18L28 19L29 19L29 16L28 16L28 17L26 17L26 18L24 18L24 16L25 16L25 14L24 14L24 12L22 12L22 10L24 10L24 11L25 11L25 12L26 12L26 11L27 11L27 10L28 10L28 11L29 11L29 8L27 8L27 10L24 10L24 9L25 9L25 8L20 8L20 7L21 7L21 5L20 5L20 7L19 7L19 4L20 4L20 3L21 3L21 2L19 2L19 0L18 0L18 2L17 2L17 1L16 1L16 2L15 2L15 3L14 3L14 0ZM16 2L16 3L15 3L15 7L16 7L16 5L17 5L17 9L16 9L16 11L17 11L17 14L16 14L16 15L17 15L17 17L18 17L18 18L16 18L16 20L17 20L17 25L18 25L18 26L20 26L20 27L21 27L21 25L19 25L19 24L20 24L20 20L18 20L18 19L19 19L19 16L20 16L20 17L21 17L21 20L24 20L24 18L23 18L23 19L22 19L22 15L24 15L24 14L22 14L22 12L21 12L21 16L20 16L20 15L19 15L19 14L18 14L18 13L19 13L19 12L20 12L20 11L21 11L21 10L22 10L22 9L21 9L21 10L20 10L20 11L19 11L19 10L18 10L18 9L19 9L19 8L18 8L18 5L17 5L17 4L16 4L16 3L17 3L17 2ZM18 2L18 3L19 3L19 2ZM9 6L9 7L10 7L10 6ZM12 6L12 7L13 7L13 6ZM0 8L0 9L3 9L3 8ZM1 10L1 11L2 11L2 10ZM4 10L4 11L5 11L5 12L4 12L4 13L5 13L5 15L6 15L6 16L7 16L7 15L10 15L10 17L9 17L9 19L10 19L10 21L12 21L12 19L10 19L10 18L11 18L11 15L10 15L10 14L9 14L9 12L10 12L10 11L9 11L9 12L8 12L8 11L6 11L6 10ZM17 10L17 11L18 11L18 10ZM5 12L5 13L7 13L7 14L6 14L6 15L7 15L7 14L8 14L8 12ZM11 12L11 13L12 13L12 17L13 17L13 18L14 18L14 19L13 19L13 22L12 22L12 23L11 23L11 25L10 25L10 26L11 26L11 25L12 25L12 24L13 24L13 26L14 26L14 25L16 25L16 24L14 24L14 23L15 23L15 17L16 17L16 16L14 16L14 15L15 15L15 13L14 13L14 15L13 15L13 13L12 13L12 12ZM28 12L28 13L27 13L27 14L28 14L28 15L29 15L29 12ZM2 15L2 16L1 16L1 17L2 17L2 16L3 16L3 15ZM18 15L18 16L19 16L19 15ZM6 17L6 18L8 18L8 17ZM0 18L0 19L2 19L2 20L0 20L0 21L2 21L2 20L3 20L3 21L5 21L5 19L2 19L2 18ZM6 20L6 21L7 21L7 20ZM18 21L18 23L19 23L19 21ZM21 21L21 24L24 24L24 21ZM27 21L27 22L25 22L25 24L26 24L26 25L27 25L27 23L28 23L28 21ZM13 22L13 23L14 23L14 22ZM22 22L22 23L23 23L23 22ZM22 25L22 28L23 28L23 27L24 27L24 28L25 28L25 27L24 27L24 25ZM28 28L28 29L29 29L29 28ZM0 0L0 7L7 7L7 0ZM1 1L1 6L6 6L6 1ZM2 2L2 5L5 5L5 2ZM22 0L22 7L29 7L29 0ZM23 1L23 6L28 6L28 1ZM24 2L24 5L27 5L27 2ZM0 22L0 29L7 29L7 22ZM1 23L1 28L6 28L6 23ZM2 24L2 27L5 27L5 24Z" fill="#000000"/></g></g></svg>
