<?xml version="1.0" encoding="UTF-8"?>
<svg xmlns="http://www.w3.org/2000/svg" version="1.1" width="300" height="300" viewBox="0 0 300 300"><rect x="0" y="0" width="300" height="300" fill="#ffffff"/><g transform="scale(12)"><g transform="translate(0,0)"><path fill-rule="evenodd" d="M8 0L8 1L10 1L10 0ZM14 0L14 1L13 1L13 2L11 2L11 4L10 4L10 3L9 3L9 2L8 2L8 5L9 5L9 6L8 6L8 7L9 7L9 8L8 8L8 9L9 9L9 10L6 10L6 9L7 9L7 8L6 8L6 9L5 9L5 10L4 10L4 11L5 11L5 13L4 13L4 12L3 12L3 11L2 11L2 10L1 10L1 11L0 11L0 13L1 13L1 12L2 12L2 14L1 14L1 15L0 15L0 16L1 16L1 15L4 15L4 16L2 16L2 17L4 17L4 16L6 16L6 17L8 17L8 18L10 18L10 20L9 20L9 21L8 21L8 25L13 25L13 24L14 24L14 25L16 25L16 23L17 23L17 25L20 25L20 24L18 24L18 23L19 23L19 21L21 21L21 22L20 22L20 23L22 23L22 25L25 25L25 24L23 24L23 23L24 23L24 22L25 22L25 18L23 18L23 20L24 20L24 21L23 21L23 22L22 22L22 20L21 20L21 19L22 19L22 18L21 18L21 17L25 17L25 15L24 15L24 13L25 13L25 12L23 12L23 11L24 11L24 9L25 9L25 8L24 8L24 9L23 9L23 8L20 8L20 9L19 9L19 10L20 10L20 9L21 9L21 10L22 10L22 12L21 12L21 11L20 11L20 12L21 12L21 13L19 13L19 12L18 12L18 10L17 10L17 9L18 9L18 8L15 8L15 10L14 10L14 11L11 11L11 13L10 13L10 12L9 12L9 10L10 10L10 9L9 9L9 8L10 8L10 7L11 7L11 8L12 8L12 7L13 7L13 6L14 6L14 7L15 7L15 6L14 6L14 5L15 5L15 3L14 3L14 1L16 1L16 3L17 3L17 0ZM12 3L12 5L10 5L10 6L9 6L9 7L10 7L10 6L11 6L11 7L12 7L12 5L14 5L14 3ZM16 4L16 7L17 7L17 4ZM0 8L0 9L4 9L4 8ZM15 10L15 11L14 11L14 12L13 12L13 13L12 13L12 14L11 14L11 16L12 16L12 17L10 17L10 18L11 18L11 19L12 19L12 20L11 20L11 22L9 22L9 24L10 24L10 23L11 23L11 22L14 22L14 21L13 21L13 20L15 20L15 21L16 21L16 16L17 16L17 15L16 15L16 13L17 13L17 12L16 12L16 13L15 13L15 15L16 15L16 16L14 16L14 15L13 15L13 13L14 13L14 12L15 12L15 11L17 11L17 10ZM6 11L6 12L8 12L8 13L9 13L9 12L8 12L8 11ZM6 13L6 14L4 14L4 15L6 15L6 16L7 16L7 15L6 15L6 14L7 14L7 13ZM21 13L21 15L22 15L22 16L23 16L23 15L22 15L22 14L23 14L23 13ZM8 14L8 17L9 17L9 16L10 16L10 15L9 15L9 14ZM19 15L19 16L20 16L20 15ZM12 17L12 18L14 18L14 17ZM17 17L17 20L20 20L20 17ZM18 18L18 19L19 19L19 18ZM15 22L15 23L14 23L14 24L15 24L15 23L16 23L16 22ZM12 23L12 24L13 24L13 23ZM0 0L0 7L7 7L7 0ZM1 1L1 6L6 6L6 1ZM2 2L2 5L5 5L5 2ZM18 0L18 7L25 7L25 0ZM19 1L19 6L24 6L24 1ZM20 2L20 5L23 5L23 2ZM0 18L0 25L7 25L7 18ZM1 19L1 24L6 24L6 19ZM2 20L2 23L5 23L5 20Z" fill="#000000"/></g></g></svg>
