<?xml version="1.0" encoding="UTF-8"?>
<svg xmlns="http://www.w3.org/2000/svg" version="1.1" width="300" height="300" viewBox="0 0 300 300"><rect x="0" y="0" width="300" height="300" fill="#ffffff"/><g transform="scale(12)"><g transform="translate(0,0)"><path fill-rule="evenodd" d="M11 0L11 1L10 1L10 3L9 3L9 1L8 1L8 3L9 3L9 4L8 4L8 8L6 8L6 9L4 9L4 8L3 8L3 10L2 10L2 8L0 8L0 9L1 9L1 10L0 10L0 12L1 12L1 13L2 13L2 11L3 11L3 13L4 13L4 11L5 11L5 10L6 10L6 11L7 11L7 12L6 12L6 13L5 13L5 15L4 15L4 16L5 16L5 15L7 15L7 14L8 14L8 13L9 13L9 16L11 16L11 17L8 17L8 16L6 16L6 17L8 17L8 19L9 19L9 21L8 21L8 22L9 22L9 23L8 23L8 25L11 25L11 24L9 24L9 23L10 23L10 22L11 22L11 18L12 18L12 19L13 19L13 18L14 18L14 19L15 19L15 20L12 20L12 22L13 22L13 21L15 21L15 22L14 22L14 23L12 23L12 25L14 25L14 24L15 24L15 22L16 22L16 25L22 25L22 22L23 22L23 21L22 21L22 20L25 20L25 18L23 18L23 16L22 16L22 15L23 15L23 14L24 14L24 15L25 15L25 14L24 14L24 13L25 13L25 12L23 12L23 13L21 13L21 12L22 12L22 11L23 11L23 9L24 9L24 11L25 11L25 9L24 9L24 8L22 8L22 9L21 9L21 8L18 8L18 9L17 9L17 4L15 4L15 3L14 3L14 4L13 4L13 5L12 5L12 3L13 3L13 1L14 1L14 2L16 2L16 3L17 3L17 2L16 2L16 0L13 0L13 1L12 1L12 0ZM10 3L10 5L9 5L9 8L8 8L8 9L6 9L6 10L7 10L7 11L12 11L12 12L11 12L11 13L10 13L10 12L9 12L9 13L10 13L10 14L12 14L12 15L11 15L11 16L12 16L12 15L14 15L14 16L13 16L13 17L14 17L14 16L15 16L15 17L16 17L16 16L19 16L19 15L20 15L20 14L21 14L21 15L22 15L22 14L21 14L21 13L20 13L20 12L21 12L21 11L22 11L22 10L21 10L21 9L19 9L19 10L20 10L20 11L18 11L18 10L17 10L17 11L16 11L16 8L15 8L15 11L14 11L14 10L13 10L13 11L12 11L12 8L14 8L14 6L13 6L13 7L12 7L12 5L11 5L11 3ZM10 5L10 8L11 8L11 5ZM15 6L15 7L16 7L16 6ZM9 9L9 10L10 10L10 9ZM13 11L13 13L12 13L12 14L14 14L14 11ZM17 11L17 12L15 12L15 13L17 13L17 14L16 14L16 15L15 15L15 16L16 16L16 15L17 15L17 14L20 14L20 13L19 13L19 12L18 12L18 11ZM7 12L7 13L6 13L6 14L7 14L7 13L8 13L8 12ZM0 14L0 15L1 15L1 16L0 16L0 17L2 17L2 16L3 16L3 14L2 14L2 15L1 15L1 14ZM17 17L17 20L20 20L20 17ZM9 18L9 19L10 19L10 18ZM18 18L18 19L19 19L19 18ZM15 20L15 21L16 21L16 20ZM17 21L17 23L18 23L18 24L19 24L19 21ZM20 21L20 22L21 22L21 21ZM24 22L24 23L25 23L25 22ZM20 23L20 24L21 24L21 23ZM23 24L23 25L25 25L25 24ZM0 0L0 7L7 7L7 0ZM1 1L1 6L6 6L6 1ZM2 2L2 5L5 5L5 2ZM18 0L18 7L25 7L25 0ZM19 1L19 6L24 6L24 1ZM20 2L20 5L23 5L23 2ZM0 18L0 25L7 25L7 18ZM1 19L1 24L6 24L6 19ZM2 20L2 23L5 23L5 20Z" fill="#000000"/></g></g></svg>
