<?xml version="1.0" encoding="UTF-8"?>
<svg xmlns="http://www.w3.org/2000/svg" version="1.1" width="300" height="300" viewBox="0 0 300 300"><rect x="0" y="0" width="300" height="300" fill="#ffffff"/><g transform="scale(12)"><g transform="translate(0,0)"><path fill-rule="evenodd" d="M8 0L8 2L10 2L10 4L8 4L8 10L6 10L6 9L7 9L7 8L5 8L5 10L3 10L3 11L1 11L1 10L0 10L0 11L1 11L1 12L0 12L0 13L1 13L1 12L3 12L3 11L5 11L5 12L4 12L4 13L5 13L5 12L6 12L6 13L7 13L7 14L4 14L4 16L0 16L0 17L7 17L7 16L5 16L5 15L7 15L7 14L9 14L9 15L11 15L11 16L13 16L13 18L14 18L14 17L16 17L16 20L15 20L15 21L16 21L16 22L13 22L13 21L14 21L14 19L13 19L13 20L11 20L11 21L10 21L10 19L12 19L12 18L10 18L10 17L9 17L9 16L8 16L8 18L9 18L9 19L8 19L8 20L9 20L9 21L10 21L10 22L11 22L11 21L12 21L12 23L10 23L10 24L13 24L13 25L17 25L17 24L18 24L18 25L20 25L20 24L18 24L18 21L21 21L21 22L19 22L19 23L25 23L25 22L24 22L24 21L25 21L25 20L24 20L24 19L25 19L25 18L24 18L24 19L23 19L23 17L24 17L24 15L25 15L25 14L24 14L24 15L23 15L23 14L21 14L21 15L20 15L20 13L22 13L22 12L21 12L21 11L22 11L22 10L23 10L23 11L25 11L25 8L23 8L23 9L22 9L22 10L21 10L21 11L20 11L20 9L21 9L21 8L15 8L15 5L16 5L16 7L17 7L17 5L16 5L16 3L15 3L15 1L16 1L16 0L15 0L15 1L14 1L14 0L11 0L11 1L9 1L9 0ZM11 1L11 2L12 2L12 1ZM13 1L13 2L14 2L14 1ZM11 3L11 4L12 4L12 6L11 6L11 5L9 5L9 8L10 8L10 6L11 6L11 7L12 7L12 6L13 6L13 8L11 8L11 10L9 10L9 11L10 11L10 13L9 13L9 12L8 12L8 11L6 11L6 10L5 10L5 11L6 11L6 12L8 12L8 13L9 13L9 14L11 14L11 15L12 15L12 13L11 13L11 12L14 12L14 14L16 14L16 13L17 13L17 15L13 15L13 16L17 16L17 15L18 15L18 16L20 16L20 15L19 15L19 14L18 14L18 12L19 12L19 11L18 11L18 12L17 12L17 10L18 10L18 9L17 9L17 10L16 10L16 9L15 9L15 8L14 8L14 6L13 6L13 5L14 5L14 3ZM0 8L0 9L3 9L3 8ZM13 8L13 9L14 9L14 12L15 12L15 13L16 13L16 10L15 10L15 9L14 9L14 8ZM11 10L11 11L12 11L12 10ZM24 12L24 13L25 13L25 12ZM2 13L2 14L0 14L0 15L3 15L3 13ZM21 15L21 21L22 21L22 22L23 22L23 21L24 21L24 20L23 20L23 19L22 19L22 17L23 17L23 15ZM17 17L17 20L20 20L20 17ZM18 18L18 19L19 19L19 18ZM8 22L8 25L9 25L9 22ZM16 22L16 23L17 23L17 22ZM13 23L13 24L14 24L14 23ZM24 24L24 25L25 25L25 24ZM0 0L0 7L7 7L7 0ZM1 1L1 6L6 6L6 1ZM2 2L2 5L5 5L5 2ZM18 0L18 7L25 7L25 0ZM19 1L19 6L24 6L24 1ZM20 2L20 5L23 5L23 2ZM0 18L0 25L7 25L7 18ZM1 19L1 24L6 24L6 19ZM2 20L2 23L5 23L5 20Z" fill="#000000"/></g></g></svg>
