<?xml version="1.0" encoding="UTF-8"?>
<svg xmlns="http://www.w3.org/2000/svg" version="1.1" width="300" height="300" viewBox="0 0 300 300"><rect x="0" y="0" width="300" height="300" fill="#ffffff"/><g transform="scale(12)"><g transform="translate(0,0)"><path fill-rule="evenodd" d="M9 0L9 1L11 1L11 2L9 2L9 3L8 3L8 5L9 5L9 6L8 6L8 7L9 7L9 9L10 9L10 10L8 10L8 8L5 8L5 9L2 9L2 8L0 8L0 11L2 11L2 12L3 12L3 10L5 10L5 11L4 11L4 12L6 12L6 13L3 13L3 14L4 14L4 15L2 15L2 16L3 16L3 17L4 17L4 16L5 16L5 17L8 17L8 20L9 20L9 22L10 22L10 23L8 23L8 25L9 25L9 24L11 24L11 25L14 25L14 24L12 24L12 23L11 23L11 22L10 22L10 21L13 21L13 23L15 23L15 25L17 25L17 24L18 24L18 25L19 25L19 23L17 23L17 22L19 22L19 21L20 21L20 22L21 22L21 16L19 16L19 15L18 15L18 14L17 14L17 12L18 12L18 13L19 13L19 14L20 14L20 15L22 15L22 19L23 19L23 16L25 16L25 10L24 10L24 9L23 9L23 10L21 10L21 9L22 9L22 8L20 8L20 9L19 9L19 10L18 10L18 11L17 11L17 10L15 10L15 9L14 9L14 8L13 8L13 6L14 6L14 7L15 7L15 8L17 8L17 3L16 3L16 2L14 2L14 3L15 3L15 5L14 5L14 4L12 4L12 2L13 2L13 1L16 1L16 0L13 0L13 1L12 1L12 0ZM9 3L9 5L10 5L10 3ZM11 4L11 7L10 7L10 6L9 6L9 7L10 7L10 8L11 8L11 10L10 10L10 11L9 11L9 12L8 12L8 10L7 10L7 9L6 9L6 10L7 10L7 11L6 11L6 12L8 12L8 13L6 13L6 14L5 14L5 15L6 15L6 16L7 16L7 15L6 15L6 14L8 14L8 15L9 15L9 14L10 14L10 16L8 16L8 17L10 17L10 16L11 16L11 18L10 18L10 19L11 19L11 20L13 20L13 21L14 21L14 19L11 19L11 18L15 18L15 20L16 20L16 17L14 17L14 16L16 16L16 15L17 15L17 14L16 14L16 11L15 11L15 10L14 10L14 9L12 9L12 6L13 6L13 5L12 5L12 4ZM15 5L15 7L16 7L16 5ZM1 9L1 10L2 10L2 9ZM11 10L11 11L10 11L10 12L9 12L9 13L8 13L8 14L9 14L9 13L10 13L10 14L11 14L11 12L12 12L12 14L13 14L13 15L14 15L14 14L15 14L15 15L16 15L16 14L15 14L15 13L14 13L14 12L12 12L12 11L13 11L13 10ZM19 10L19 11L20 11L20 10ZM23 10L23 11L21 11L21 12L22 12L22 13L20 13L20 14L22 14L22 15L23 15L23 14L24 14L24 10ZM0 13L0 17L1 17L1 13ZM13 13L13 14L14 14L14 13ZM12 16L12 17L13 17L13 16ZM17 17L17 20L20 20L20 17ZM24 17L24 19L25 19L25 17ZM18 18L18 19L19 19L19 18ZM22 20L22 22L24 22L24 25L25 25L25 21L23 21L23 20ZM15 21L15 22L17 22L17 21ZM20 23L20 25L21 25L21 23ZM0 0L0 7L7 7L7 0ZM1 1L1 6L6 6L6 1ZM2 2L2 5L5 5L5 2ZM18 0L18 7L25 7L25 0ZM19 1L19 6L24 6L24 1ZM20 2L20 5L23 5L23 2ZM0 18L0 25L7 25L7 18ZM1 19L1 24L6 24L6 19ZM2 20L2 23L5 23L5 20Z" fill="#000000"/></g></g></svg>
