<?xml version="1.0" encoding="UTF-8"?>
<svg xmlns="http://www.w3.org/2000/svg" version="1.1" width="300" height="300" viewBox="0 0 300 300"><rect x="0" y="0" width="300" height="300" fill="#ffffff"/><g transform="scale(12)"><g transform="translate(0,0)"><path fill-rule="evenodd" d="M8 0L8 2L9 2L9 3L10 3L10 5L12 5L12 4L13 4L13 6L12 6L12 7L11 7L11 6L10 6L10 8L9 8L9 4L8 4L8 10L6 10L6 9L7 9L7 8L5 8L5 10L4 10L4 11L5 11L5 12L6 12L6 13L5 13L5 14L4 14L4 12L3 12L3 13L1 13L1 14L0 14L0 15L3 15L3 14L4 14L4 15L7 15L7 16L6 16L6 17L8 17L8 18L10 18L10 17L9 17L9 16L11 16L11 17L12 17L12 18L11 18L11 19L8 19L8 20L9 20L9 22L8 22L8 25L12 25L12 23L14 23L14 24L13 24L13 25L14 25L14 24L15 24L15 25L17 25L17 24L18 24L18 25L21 25L21 24L18 24L18 21L21 21L21 15L23 15L23 17L22 17L22 19L23 19L23 20L25 20L25 18L24 18L24 19L23 19L23 17L24 17L24 15L25 15L25 14L24 14L24 15L23 15L23 14L21 14L21 15L20 15L20 13L22 13L22 12L21 12L21 11L22 11L22 10L23 10L23 11L25 11L25 8L23 8L23 9L22 9L22 10L21 10L21 11L20 11L20 9L21 9L21 8L15 8L15 6L14 6L14 4L15 4L15 5L16 5L16 7L17 7L17 5L16 5L16 4L17 4L17 3L16 3L16 2L15 2L15 3L14 3L14 2L13 2L13 1L12 1L12 0L10 0L10 1L12 1L12 4L11 4L11 2L9 2L9 0ZM14 0L14 1L16 1L16 0ZM13 3L13 4L14 4L14 3ZM15 3L15 4L16 4L16 3ZM13 6L13 8L14 8L14 10L16 10L16 13L14 13L14 12L15 12L15 11L13 11L13 10L12 10L12 8L11 8L11 9L10 9L10 10L8 10L8 11L6 11L6 10L5 10L5 11L6 11L6 12L7 12L7 13L6 13L6 14L8 14L8 15L10 15L10 14L12 14L12 15L13 15L13 16L12 16L12 17L13 17L13 18L12 18L12 19L11 19L11 20L10 20L10 21L11 21L11 22L10 22L10 24L11 24L11 22L12 22L12 21L13 21L13 22L14 22L14 23L15 23L15 22L16 22L16 23L17 23L17 22L16 22L16 21L15 21L15 20L16 20L16 17L15 17L15 16L17 16L17 15L18 15L18 16L20 16L20 15L19 15L19 14L18 14L18 12L19 12L19 11L18 11L18 12L17 12L17 10L18 10L18 9L17 9L17 10L16 10L16 9L15 9L15 8L14 8L14 6ZM0 8L0 12L1 12L1 11L2 11L2 10L3 10L3 8ZM11 10L11 11L12 11L12 10ZM8 11L8 12L9 12L9 13L10 13L10 11ZM11 12L11 13L12 13L12 14L13 14L13 15L17 15L17 13L16 13L16 14L13 14L13 12ZM24 12L24 13L25 13L25 12ZM0 16L0 17L3 17L3 16ZM4 16L4 17L5 17L5 16ZM13 16L13 17L14 17L14 20L13 20L13 21L14 21L14 22L15 22L15 21L14 21L14 20L15 20L15 17L14 17L14 16ZM17 17L17 20L20 20L20 17ZM18 18L18 19L19 19L19 18ZM23 21L23 22L19 22L19 23L25 23L25 22L24 22L24 21ZM24 24L24 25L25 25L25 24ZM0 0L0 7L7 7L7 0ZM1 1L1 6L6 6L6 1ZM2 2L2 5L5 5L5 2ZM18 0L18 7L25 7L25 0ZM19 1L19 6L24 6L24 1ZM20 2L20 5L23 5L23 2ZM0 18L0 25L7 25L7 18ZM1 19L1 24L6 24L6 19ZM2 20L2 23L5 23L5 20Z" fill="#000000"/></g></g></svg>
