<?xml version="1.0" encoding="UTF-8"?>
<svg xmlns="http://www.w3.org/2000/svg" version="1.1" width="300" height="300" viewBox="0 0 300 300"><rect x="0" y="0" width="300" height="300" fill="#ffffff"/><g transform="scale(12)"><g transform="translate(0,0)"><path fill-rule="evenodd" d="M9 0L9 1L11 1L11 2L9 2L9 3L8 3L8 5L9 5L9 6L8 6L8 7L9 7L9 9L8 9L8 8L5 8L5 9L3 9L3 10L0 10L0 12L2 12L2 13L0 13L0 17L1 17L1 14L2 14L2 13L3 13L3 11L4 11L4 10L5 10L5 9L8 9L8 10L6 10L6 11L10 11L10 12L9 12L9 13L10 13L10 14L11 14L11 12L12 12L12 11L13 11L13 10L11 10L11 8L10 8L10 7L11 7L11 4L12 4L12 5L13 5L13 4L15 4L15 5L17 5L17 4L15 4L15 3L17 3L17 1L16 1L16 0L14 0L14 1L12 1L12 0ZM15 1L15 2L12 2L12 4L13 4L13 3L15 3L15 2L16 2L16 1ZM9 3L9 5L10 5L10 3ZM9 6L9 7L10 7L10 6ZM12 6L12 9L13 9L13 6ZM14 6L14 7L15 7L15 8L14 8L14 9L17 9L17 8L16 8L16 7L17 7L17 6L16 6L16 7L15 7L15 6ZM0 8L0 9L2 9L2 8ZM20 8L20 9L19 9L19 10L18 10L18 11L17 11L17 10L15 10L15 11L17 11L17 12L15 12L15 13L16 13L16 14L15 14L15 15L16 15L16 16L14 16L14 18L12 18L12 19L11 19L11 17L10 17L10 19L11 19L11 20L10 20L10 21L12 21L12 23L13 23L13 20L12 20L12 19L14 19L14 18L15 18L15 17L16 17L16 20L14 20L14 24L12 24L12 25L14 25L14 24L15 24L15 25L17 25L17 24L18 24L18 25L19 25L19 23L17 23L17 22L19 22L19 21L20 21L20 22L21 22L21 16L19 16L19 15L18 15L18 14L17 14L17 12L18 12L18 13L19 13L19 14L20 14L20 15L22 15L22 19L23 19L23 16L25 16L25 10L24 10L24 9L23 9L23 10L21 10L21 9L22 9L22 8ZM9 9L9 10L10 10L10 11L11 11L11 10L10 10L10 9ZM19 10L19 11L20 11L20 10ZM23 10L23 11L21 11L21 12L22 12L22 13L20 13L20 14L22 14L22 15L23 15L23 14L24 14L24 10ZM5 12L5 13L4 13L4 14L3 14L3 15L2 15L2 16L3 16L3 17L8 17L8 20L9 20L9 16L10 16L10 15L9 15L9 16L3 16L3 15L4 15L4 14L5 14L5 13L7 13L7 14L6 14L6 15L8 15L8 13L7 13L7 12ZM13 12L13 13L12 13L12 14L13 14L13 13L14 13L14 12ZM16 14L16 15L17 15L17 14ZM12 15L12 17L13 17L13 15ZM17 17L17 20L20 20L20 17ZM24 17L24 20L25 20L25 17ZM18 18L18 19L19 19L19 18ZM22 20L22 22L24 22L24 25L25 25L25 21L23 21L23 20ZM15 21L15 22L17 22L17 21ZM10 22L10 23L8 23L8 25L10 25L10 24L11 24L11 22ZM20 24L20 25L21 25L21 24ZM0 0L0 7L7 7L7 0ZM1 1L1 6L6 6L6 1ZM2 2L2 5L5 5L5 2ZM18 0L18 7L25 7L25 0ZM19 1L19 6L24 6L24 1ZM20 2L20 5L23 5L23 2ZM0 18L0 25L7 25L7 18ZM1 19L1 24L6 24L6 19ZM2 20L2 23L5 23L5 20Z" fill="#000000"/></g></g></svg>
