<?xml version="1.0" encoding="UTF-8"?>
<svg xmlns="http://www.w3.org/2000/svg" version="1.1" width="300" height="300" viewBox="0 0 300 300"><rect x="0" y="0" width="300" height="300" fill="#ffffff"/><g transform="scale(12)"><g transform="translate(0,0)"><path fill-rule="evenodd" d="M8 0L8 2L9 2L9 3L10 3L10 4L8 4L8 10L5 10L5 9L7 9L7 8L5 8L5 9L3 9L3 8L0 8L0 9L2 9L2 10L1 10L1 11L0 11L0 13L3 13L3 14L0 14L0 15L2 15L2 16L0 16L0 17L2 17L2 16L3 16L3 15L4 15L4 14L5 14L5 12L6 12L6 13L7 13L7 12L6 12L6 11L9 11L9 12L8 12L8 14L6 14L6 15L7 15L7 16L4 16L4 17L7 17L7 16L8 16L8 14L9 14L9 17L8 17L8 18L9 18L9 19L8 19L8 20L10 20L10 21L9 21L9 22L8 22L8 25L9 25L9 22L11 22L11 23L10 23L10 24L11 24L11 25L13 25L13 24L11 24L11 23L14 23L14 25L17 25L17 24L18 24L18 25L21 25L21 24L18 24L18 21L21 21L21 15L23 15L23 17L22 17L22 19L23 19L23 20L25 20L25 18L24 18L24 19L23 19L23 17L24 17L24 15L25 15L25 14L24 14L24 15L23 15L23 14L21 14L21 15L20 15L20 13L22 13L22 12L21 12L21 11L22 11L22 10L23 10L23 11L25 11L25 8L23 8L23 9L22 9L22 10L21 10L21 11L20 11L20 9L21 9L21 8L16 8L16 10L15 10L15 13L16 13L16 14L15 14L15 15L17 15L17 16L15 16L15 17L14 17L14 16L13 16L13 15L14 15L14 14L13 14L13 13L14 13L14 12L13 12L13 10L14 10L14 8L15 8L15 5L16 5L16 4L17 4L17 3L16 3L16 2L17 2L17 1L16 1L16 0L15 0L15 1L16 1L16 2L12 2L12 4L11 4L11 1L12 1L12 0ZM13 0L13 1L14 1L14 0ZM9 1L9 2L10 2L10 1ZM13 3L13 4L12 4L12 5L11 5L11 8L14 8L14 5L13 5L13 4L14 4L14 3ZM15 3L15 4L16 4L16 3ZM9 5L9 8L10 8L10 5ZM12 5L12 7L13 7L13 5ZM16 6L16 7L17 7L17 6ZM10 9L10 10L9 10L9 11L10 11L10 13L9 13L9 14L10 14L10 18L12 18L12 19L10 19L10 20L14 20L14 21L13 21L13 22L16 22L16 23L17 23L17 22L16 22L16 21L15 21L15 20L16 20L16 17L15 17L15 19L14 19L14 17L13 17L13 16L12 16L12 15L11 15L11 14L12 14L12 13L13 13L13 12L12 12L12 11L11 11L11 10L12 10L12 9ZM17 9L17 10L18 10L18 9ZM3 10L3 11L2 11L2 12L3 12L3 13L4 13L4 12L5 12L5 10ZM16 11L16 12L17 12L17 15L18 15L18 16L20 16L20 15L19 15L19 14L18 14L18 12L19 12L19 11L18 11L18 12L17 12L17 11ZM11 12L11 13L12 13L12 12ZM24 12L24 13L25 13L25 12ZM11 16L11 17L12 17L12 18L13 18L13 17L12 17L12 16ZM17 17L17 20L20 20L20 17ZM18 18L18 19L19 19L19 18ZM11 21L11 22L12 22L12 21ZM23 21L23 22L22 22L22 23L25 23L25 22L24 22L24 21ZM19 22L19 23L21 23L21 22ZM24 24L24 25L25 25L25 24ZM0 0L0 7L7 7L7 0ZM1 1L1 6L6 6L6 1ZM2 2L2 5L5 5L5 2ZM18 0L18 7L25 7L25 0ZM19 1L19 6L24 6L24 1ZM20 2L20 5L23 5L23 2ZM0 18L0 25L7 25L7 18ZM1 19L1 24L6 24L6 19ZM2 20L2 23L5 23L5 20Z" fill="#000000"/></g></g></svg>
