<?xml version="1.0" encoding="UTF-8"?>
<svg xmlns="http://www.w3.org/2000/svg" version="1.1" width="300" height="300" viewBox="0 0 300 300"><rect x="0" y="0" width="300" height="300" fill="#ffffff"/><g transform="scale(12)"><g transform="translate(0,0)"><path fill-rule="evenodd" d="M9 0L9 1L11 1L11 2L9 2L9 3L8 3L8 5L9 5L9 6L8 6L8 7L9 7L9 9L8 9L8 8L5 8L5 9L4 9L4 10L3 10L3 9L2 9L2 8L0 8L0 11L1 11L1 12L0 12L0 17L1 17L1 12L2 12L2 13L3 13L3 14L6 14L6 15L7 15L7 14L6 14L6 13L7 13L7 12L6 12L6 13L4 13L4 12L2 12L2 11L1 11L1 10L3 10L3 11L7 11L7 10L5 10L5 9L8 9L8 10L9 10L9 11L8 11L8 12L9 12L9 13L8 13L8 14L11 14L11 12L12 12L12 14L13 14L13 12L12 12L12 11L13 11L13 10L11 10L11 8L10 8L10 7L11 7L11 4L12 4L12 5L13 5L13 4L15 4L15 3L16 3L16 5L17 5L17 1L16 1L16 2L15 2L15 3L13 3L13 4L12 4L12 2L14 2L14 0L13 0L13 1L12 1L12 0ZM9 3L9 5L10 5L10 3ZM9 6L9 7L10 7L10 6ZM12 6L12 9L13 9L13 6ZM14 6L14 7L15 7L15 6ZM16 6L16 7L17 7L17 6ZM14 8L14 9L15 9L15 10L14 10L14 11L17 11L17 12L15 12L15 15L16 15L16 14L17 14L17 16L13 16L13 15L12 15L12 16L9 16L9 17L8 17L8 16L6 16L6 17L8 17L8 20L9 20L9 21L10 21L10 23L8 23L8 25L11 25L11 24L12 24L12 25L13 25L13 24L12 24L12 23L11 23L11 22L12 22L12 21L14 21L14 22L13 22L13 23L14 23L14 22L15 22L15 23L16 23L16 24L15 24L15 25L18 25L18 24L17 24L17 23L18 23L18 22L19 22L19 23L20 23L20 24L19 24L19 25L20 25L20 24L21 24L21 25L23 25L23 24L21 24L21 23L23 23L23 22L24 22L24 25L25 25L25 21L23 21L23 20L22 20L22 21L21 21L21 16L20 16L20 15L22 15L22 19L23 19L23 16L25 16L25 10L24 10L24 9L23 9L23 10L21 10L21 9L22 9L22 8L20 8L20 9L19 9L19 11L18 11L18 10L16 10L16 9L15 9L15 8ZM9 9L9 10L10 10L10 11L9 11L9 12L10 12L10 11L11 11L11 10L10 10L10 9ZM20 10L20 11L19 11L19 12L20 12L20 14L19 14L19 13L18 13L18 12L17 12L17 14L19 14L19 15L20 15L20 14L22 14L22 15L23 15L23 14L24 14L24 10L23 10L23 11L21 11L21 10ZM21 12L21 13L22 13L22 12ZM2 15L2 17L5 17L5 15ZM10 17L10 18L9 18L9 19L10 19L10 18L11 18L11 17ZM12 17L12 18L13 18L13 17ZM14 17L14 19L11 19L11 20L10 20L10 21L11 21L11 20L14 20L14 19L15 19L15 17ZM17 17L17 20L20 20L20 17ZM24 17L24 19L25 19L25 17ZM18 18L18 19L19 19L19 18ZM15 21L15 22L16 22L16 23L17 23L17 22L18 22L18 21L17 21L17 22L16 22L16 21ZM19 21L19 22L20 22L20 23L21 23L21 22L20 22L20 21ZM10 23L10 24L11 24L11 23ZM0 0L0 7L7 7L7 0ZM1 1L1 6L6 6L6 1ZM2 2L2 5L5 5L5 2ZM18 0L18 7L25 7L25 0ZM19 1L19 6L24 6L24 1ZM20 2L20 5L23 5L23 2ZM0 18L0 25L7 25L7 18ZM1 19L1 24L6 24L6 19ZM2 20L2 23L5 23L5 20Z" fill="#000000"/></g></g></svg>
