<?xml version="1.0" encoding="UTF-8"?>
<svg xmlns="http://www.w3.org/2000/svg" version="1.1" width="300" height="300" viewBox="0 0 300 300"><rect x="0" y="0" width="300" height="300" fill="#ffffff"/><g transform="scale(12)"><g transform="translate(0,0)"><path fill-rule="evenodd" d="M9 0L9 1L11 1L11 2L9 2L9 3L8 3L8 5L9 5L9 6L8 6L8 7L9 7L9 9L10 9L10 10L9 10L9 11L8 11L8 8L5 8L5 9L4 9L4 10L5 10L5 11L4 11L4 12L6 12L6 13L3 13L3 10L2 10L2 12L1 12L1 13L0 13L0 17L1 17L1 13L2 13L2 15L3 15L3 14L6 14L6 15L5 15L5 16L2 16L2 17L8 17L8 20L9 20L9 22L10 22L10 23L11 23L11 22L10 22L10 19L11 19L11 21L12 21L12 22L13 22L13 23L12 23L12 24L11 24L11 25L14 25L14 23L15 23L15 25L17 25L17 24L18 24L18 25L19 25L19 24L20 24L20 25L21 25L21 23L17 23L17 22L19 22L19 21L20 21L20 22L21 22L21 16L19 16L19 15L18 15L18 14L17 14L17 12L18 12L18 13L19 13L19 14L20 14L20 15L22 15L22 19L23 19L23 16L25 16L25 10L24 10L24 9L23 9L23 10L21 10L21 9L22 9L22 8L20 8L20 9L19 9L19 10L18 10L18 11L16 11L16 10L15 10L15 6L14 6L14 5L16 5L16 7L17 7L17 3L15 3L15 1L16 1L16 2L17 2L17 1L16 1L16 0L13 0L13 1L12 1L12 0ZM13 1L13 2L12 2L12 4L11 4L11 7L10 7L10 6L9 6L9 7L10 7L10 8L11 8L11 10L10 10L10 11L9 11L9 12L10 12L10 11L11 11L11 10L13 10L13 11L12 11L12 12L11 12L11 19L12 19L12 21L14 21L14 22L17 22L17 21L15 21L15 20L16 20L16 17L14 17L14 16L13 16L13 17L12 17L12 15L13 15L13 14L12 14L12 13L13 13L13 12L15 12L15 13L14 13L14 14L16 14L16 15L15 15L15 16L16 16L16 15L17 15L17 14L16 14L16 12L15 12L15 10L13 10L13 9L14 9L14 6L13 6L13 5L14 5L14 4L15 4L15 3L14 3L14 1ZM9 3L9 5L10 5L10 3ZM12 4L12 5L13 5L13 4ZM12 6L12 9L13 9L13 6ZM0 8L0 10L1 10L1 9L2 9L2 8ZM6 9L6 10L7 10L7 9ZM19 10L19 11L20 11L20 10ZM23 10L23 11L21 11L21 12L22 12L22 13L20 13L20 14L22 14L22 15L23 15L23 14L24 14L24 10ZM6 11L6 12L7 12L7 13L6 13L6 14L9 14L9 15L8 15L8 17L9 17L9 18L10 18L10 14L9 14L9 13L8 13L8 11ZM6 15L6 16L7 16L7 15ZM17 17L17 20L20 20L20 17ZM24 17L24 20L22 20L22 21L23 21L23 22L24 22L24 25L25 25L25 17ZM12 18L12 19L14 19L14 20L15 20L15 18ZM18 18L18 19L19 19L19 18ZM8 23L8 25L9 25L9 23ZM0 0L0 7L7 7L7 0ZM1 1L1 6L6 6L6 1ZM2 2L2 5L5 5L5 2ZM18 0L18 7L25 7L25 0ZM19 1L19 6L24 6L24 1ZM20 2L20 5L23 5L23 2ZM0 18L0 25L7 25L7 18ZM1 19L1 24L6 24L6 19ZM2 20L2 23L5 23L5 20Z" fill="#000000"/></g></g></svg>
