<?xml version="1.0" encoding="UTF-8"?>
<svg xmlns="http://www.w3.org/2000/svg" version="1.1" width="300" height="300" viewBox="0 0 300 300"><rect x="0" y="0" width="300" height="300" fill="#ffffff"/><g transform="scale(12)"><g transform="translate(0,0)"><path fill-rule="evenodd" d="M9 0L9 1L8 1L8 2L9 2L9 3L8 3L8 4L9 4L9 5L8 5L8 7L9 7L9 8L6 8L6 9L5 9L5 8L0 8L0 10L3 10L3 9L5 9L5 10L4 10L4 11L0 11L0 12L4 12L4 11L5 11L5 12L6 12L6 13L5 13L5 14L4 14L4 13L3 13L3 14L2 14L2 17L3 17L3 16L6 16L6 17L7 17L7 16L6 16L6 15L8 15L8 12L6 12L6 11L7 11L7 10L6 10L6 9L8 9L8 11L9 11L9 14L10 14L10 15L9 15L9 17L8 17L8 19L9 19L9 20L8 20L8 25L11 25L11 24L12 24L12 25L15 25L15 24L17 24L17 25L20 25L20 23L19 23L19 24L18 24L18 23L15 23L15 24L13 24L13 23L11 23L11 22L12 22L12 21L14 21L14 20L15 20L15 21L17 21L17 22L21 22L21 24L22 24L22 25L25 25L25 22L24 22L24 24L22 24L22 22L21 22L21 20L22 20L22 21L23 21L23 20L22 20L22 19L21 19L21 18L22 18L22 17L23 17L23 16L25 16L25 10L24 10L24 8L23 8L23 9L22 9L22 8L21 8L21 10L20 10L20 8L19 8L19 9L18 9L18 8L17 8L17 6L16 6L16 5L17 5L17 4L16 4L16 5L14 5L14 4L15 4L15 3L16 3L16 1L17 1L17 0L16 0L16 1L15 1L15 2L14 2L14 3L13 3L13 1L12 1L12 0L11 0L11 1L12 1L12 3L11 3L11 2L10 2L10 0ZM9 3L9 4L10 4L10 3ZM12 4L12 5L9 5L9 7L10 7L10 8L9 8L9 10L10 10L10 11L11 11L11 12L10 12L10 14L11 14L11 16L10 16L10 17L12 17L12 18L10 18L10 20L12 20L12 18L13 18L13 20L14 20L14 19L16 19L16 16L17 16L17 15L18 15L18 14L21 14L21 12L20 12L20 10L18 10L18 9L17 9L17 8L16 8L16 9L14 9L14 11L13 11L13 9L12 9L12 8L15 8L15 7L16 7L16 6L15 6L15 7L14 7L14 6L13 6L13 7L12 7L12 5L13 5L13 4ZM10 6L10 7L11 7L11 6ZM10 8L10 9L11 9L11 10L12 10L12 9L11 9L11 8ZM16 9L16 10L15 10L15 12L13 12L13 13L16 13L16 10L17 10L17 11L18 11L18 10L17 10L17 9ZM23 10L23 11L22 11L22 12L24 12L24 10ZM17 12L17 13L19 13L19 12ZM0 13L0 17L1 17L1 13ZM6 13L6 14L5 14L5 15L6 15L6 14L7 14L7 13ZM11 13L11 14L12 14L12 13ZM22 13L22 16L21 16L21 15L19 15L19 16L21 16L21 17L22 17L22 16L23 16L23 14L24 14L24 13ZM15 14L15 15L14 15L14 16L13 16L13 15L12 15L12 17L13 17L13 18L15 18L15 15L16 15L16 14ZM17 17L17 20L20 20L20 17ZM24 17L24 18L23 18L23 19L24 19L24 21L25 21L25 17ZM18 18L18 19L19 19L19 18ZM9 21L9 24L10 24L10 21ZM0 0L0 7L7 7L7 0ZM1 1L1 6L6 6L6 1ZM2 2L2 5L5 5L5 2ZM18 0L18 7L25 7L25 0ZM19 1L19 6L24 6L24 1ZM20 2L20 5L23 5L23 2ZM0 18L0 25L7 25L7 18ZM1 19L1 24L6 24L6 19ZM2 20L2 23L5 23L5 20Z" fill="#000000"/></g></g></svg>
