<?xml version="1.0" encoding="UTF-8"?>
<svg xmlns="http://www.w3.org/2000/svg" version="1.1" width="300" height="300" viewBox="0 0 300 300"><rect x="0" y="0" width="300" height="300" fill="#ffffff"/><g transform="scale(10.345)"><g transform="translate(0,0)"><path fill-rule="evenodd" d="M10 0L10 1L9 1L9 2L8 2L8 3L9 3L9 5L10 5L10 7L11 7L11 8L12 8L12 9L11 9L11 10L10 10L10 9L9 9L9 6L8 6L8 8L4 8L4 9L3 9L3 8L0 8L0 12L1 12L1 11L2 11L2 13L0 13L0 14L1 14L1 16L2 16L2 17L3 17L3 18L2 18L2 19L1 19L1 18L0 18L0 19L1 19L1 20L0 20L0 21L1 21L1 20L4 20L4 18L6 18L6 19L5 19L5 21L8 21L8 25L9 25L9 26L8 26L8 29L12 29L12 28L14 28L14 29L18 29L18 28L19 28L19 29L21 29L21 28L22 28L22 29L23 29L23 28L26 28L26 29L29 29L29 28L28 28L28 27L29 27L29 24L28 24L28 25L27 25L27 26L28 26L28 27L27 27L27 28L26 28L26 27L25 27L25 26L26 26L26 23L29 23L29 22L28 22L28 21L27 21L27 22L26 22L26 15L27 15L27 19L29 19L29 18L28 18L28 17L29 17L29 16L28 16L28 15L29 15L29 13L28 13L28 15L27 15L27 14L26 14L26 11L27 11L27 12L29 12L29 9L27 9L27 8L26 8L26 9L25 9L25 10L23 10L23 8L19 8L19 6L20 6L20 7L21 7L21 6L20 6L20 5L21 5L21 4L20 4L20 3L21 3L21 2L20 2L20 0L19 0L19 2L20 2L20 3L18 3L18 4L19 4L19 5L17 5L17 3L16 3L16 2L15 2L15 3L16 3L16 5L14 5L14 3L12 3L12 2L11 2L11 3L12 3L12 5L10 5L10 3L9 3L9 2L10 2L10 1L11 1L11 0ZM14 0L14 1L13 1L13 2L14 2L14 1L15 1L15 0ZM13 5L13 7L12 7L12 6L11 6L11 7L12 7L12 8L13 8L13 9L14 9L14 10L13 10L13 11L14 11L14 10L15 10L15 9L16 9L16 8L17 8L17 7L18 7L18 6L17 6L17 7L16 7L16 6L15 6L15 7L14 7L14 5ZM15 7L15 8L16 8L16 7ZM18 8L18 9L19 9L19 11L18 11L18 13L16 13L16 14L14 14L14 12L12 12L12 11L11 11L11 12L12 12L12 14L9 14L9 15L8 15L8 16L7 16L7 15L6 15L6 14L7 14L7 13L10 13L10 12L9 12L9 11L10 11L10 10L9 10L9 11L8 11L8 9L5 9L5 11L6 11L6 12L5 12L5 15L2 15L2 16L4 16L4 17L6 17L6 18L7 18L7 17L8 17L8 18L11 18L11 17L12 17L12 16L13 16L13 17L14 17L14 18L13 18L13 19L14 19L14 18L15 18L15 19L16 19L16 20L17 20L17 19L18 19L18 18L19 18L19 20L18 20L18 21L19 21L19 20L20 20L20 17L19 17L19 16L21 16L21 17L22 17L22 16L21 16L21 15L23 15L23 14L25 14L25 12L24 12L24 11L21 11L21 10L20 10L20 9L19 9L19 8ZM1 9L1 10L2 10L2 11L3 11L3 10L2 10L2 9ZM26 9L26 10L25 10L25 11L26 11L26 10L27 10L27 11L28 11L28 10L27 10L27 9ZM6 10L6 11L7 11L7 10ZM15 11L15 12L16 12L16 11ZM19 11L19 12L20 12L20 14L21 14L21 12L20 12L20 11ZM3 12L3 13L2 13L2 14L3 14L3 13L4 13L4 12ZM6 12L6 13L7 13L7 12ZM22 12L22 14L23 14L23 12ZM18 13L18 15L17 15L17 16L16 16L16 15L15 15L15 17L16 17L16 19L17 19L17 18L18 18L18 16L19 16L19 13ZM13 14L13 15L14 15L14 14ZM5 15L5 16L6 16L6 17L7 17L7 16L6 16L6 15ZM9 15L9 17L10 17L10 16L12 16L12 15ZM24 15L24 16L23 16L23 19L22 19L22 18L21 18L21 19L22 19L22 20L24 20L24 19L25 19L25 15ZM6 19L6 20L7 20L7 19ZM8 19L8 21L9 21L9 22L10 22L10 21L11 21L11 20L12 20L12 22L11 22L11 23L12 23L12 24L11 24L11 25L10 25L10 23L9 23L9 25L10 25L10 28L12 28L12 27L11 27L11 25L12 25L12 24L13 24L13 25L14 25L14 26L13 26L13 27L14 27L14 26L15 26L15 28L16 28L16 25L17 25L17 22L16 22L16 21L15 21L15 22L14 22L14 20L12 20L12 19L11 19L11 20L9 20L9 19ZM21 21L21 24L24 24L24 21ZM13 22L13 23L14 23L14 22ZM18 22L18 23L19 23L19 24L18 24L18 26L17 26L17 27L18 27L18 26L19 26L19 27L20 27L20 26L22 26L22 28L23 28L23 25L20 25L20 23L19 23L19 22ZM22 22L22 23L23 23L23 22ZM24 25L24 26L25 26L25 25ZM0 0L0 7L7 7L7 0ZM1 1L1 6L6 6L6 1ZM2 2L2 5L5 5L5 2ZM22 0L22 7L29 7L29 0ZM23 1L23 6L28 6L28 1ZM24 2L24 5L27 5L27 2ZM0 22L0 29L7 29L7 22ZM1 23L1 28L6 28L6 23ZM2 24L2 27L5 27L5 24Z" fill="#000000"/></g></g></svg>
