<?xml version="1.0" encoding="UTF-8"?>
<svg xmlns="http://www.w3.org/2000/svg" version="1.1" width="300" height="300" viewBox="0 0 300 300"><rect x="0" y="0" width="300" height="300" fill="#ffffff"/><g transform="scale(12)"><g transform="translate(0,0)"><path fill-rule="evenodd" d="M9 0L9 1L10 1L10 2L8 2L8 3L9 3L9 4L10 4L10 5L9 5L9 6L8 6L8 8L4 8L4 10L3 10L3 11L5 11L5 12L6 12L6 13L5 13L5 14L6 14L6 15L7 15L7 16L6 16L6 17L8 17L8 21L9 21L9 19L10 19L10 17L11 17L11 18L14 18L14 19L11 19L11 20L14 20L14 19L15 19L15 20L16 20L16 21L20 21L20 23L18 23L18 24L17 24L17 22L14 22L14 21L10 21L10 22L12 22L12 23L11 23L11 25L13 25L13 24L14 24L14 23L15 23L15 25L19 25L19 24L20 24L20 25L22 25L22 23L23 23L23 25L25 25L25 24L24 24L24 23L25 23L25 22L24 22L24 23L23 23L23 22L22 22L22 19L25 19L25 18L24 18L24 17L23 17L23 18L22 18L22 15L25 15L25 14L24 14L24 13L25 13L25 12L24 12L24 11L25 11L25 9L24 9L24 11L23 11L23 14L22 14L22 13L21 13L21 12L22 12L22 11L18 11L18 9L19 9L19 8L16 8L16 7L17 7L17 5L15 5L15 4L17 4L17 3L15 3L15 2L16 2L16 1L15 1L15 0L12 0L12 1L11 1L11 0ZM14 1L14 2L11 2L11 3L12 3L12 4L11 4L11 5L10 5L10 6L9 6L9 7L10 7L10 6L11 6L11 7L12 7L12 6L13 6L13 7L14 7L14 6L15 6L15 7L16 7L16 6L15 6L15 5L14 5L14 4L13 4L13 3L14 3L14 2L15 2L15 1ZM11 5L11 6L12 6L12 5ZM13 5L13 6L14 6L14 5ZM0 8L0 9L1 9L1 10L0 10L0 13L1 13L1 14L0 14L0 15L1 15L1 16L0 16L0 17L1 17L1 16L3 16L3 17L5 17L5 16L4 16L4 14L3 14L3 13L4 13L4 12L1 12L1 10L2 10L2 9L3 9L3 8ZM9 8L9 9L8 9L8 10L7 10L7 9L5 9L5 10L7 10L7 11L6 11L6 12L7 12L7 11L8 11L8 10L10 10L10 11L9 11L9 12L8 12L8 13L6 13L6 14L7 14L7 15L9 15L9 13L10 13L10 16L11 16L11 17L13 17L13 15L12 15L12 14L11 14L11 13L12 13L12 12L13 12L13 13L15 13L15 14L14 14L14 16L19 16L19 15L18 15L18 14L17 14L17 13L16 13L16 12L17 12L17 11L16 11L16 10L15 10L15 11L14 11L14 12L13 12L13 10L10 10L10 8ZM11 8L11 9L12 9L12 8ZM13 8L13 9L16 9L16 8ZM22 8L22 9L21 9L21 10L23 10L23 8ZM11 11L11 12L12 12L12 11ZM15 11L15 12L16 12L16 11ZM19 12L19 13L20 13L20 14L21 14L21 15L20 15L20 16L21 16L21 15L22 15L22 14L21 14L21 13L20 13L20 12ZM1 14L1 15L3 15L3 14ZM16 14L16 15L17 15L17 14ZM14 17L14 18L16 18L16 17ZM17 17L17 20L20 20L20 17ZM18 18L18 19L19 19L19 18ZM23 20L23 21L24 21L24 20ZM8 22L8 25L9 25L9 24L10 24L10 23L9 23L9 22ZM21 22L21 23L20 23L20 24L21 24L21 23L22 23L22 22ZM12 23L12 24L13 24L13 23ZM0 0L0 7L7 7L7 0ZM1 1L1 6L6 6L6 1ZM2 2L2 5L5 5L5 2ZM18 0L18 7L25 7L25 0ZM19 1L19 6L24 6L24 1ZM20 2L20 5L23 5L23 2ZM0 18L0 25L7 25L7 18ZM1 19L1 24L6 24L6 19ZM2 20L2 23L5 23L5 20Z" fill="#000000"/></g></g></svg>
