<?xml version="1.0" encoding="UTF-8"?>
<svg xmlns="http://www.w3.org/2000/svg" version="1.1" width="300" height="300" viewBox="0 0 300 300"><rect x="0" y="0" width="300" height="300" fill="#ffffff"/><g transform="scale(12)"><g transform="translate(0,0)"><path fill-rule="evenodd" d="M8 0L8 4L10 4L10 3L11 3L11 4L12 4L12 2L11 2L11 0ZM12 0L12 1L13 1L13 0ZM14 0L14 1L16 1L16 2L14 2L14 3L13 3L13 4L14 4L14 5L11 5L11 6L10 6L10 7L9 7L9 5L8 5L8 7L9 7L9 8L10 8L10 7L11 7L11 6L12 6L12 8L11 8L11 9L7 9L7 8L4 8L4 9L3 9L3 10L1 10L1 11L0 11L0 14L2 14L2 16L0 16L0 17L3 17L3 15L4 15L4 14L5 14L5 15L11 15L11 14L9 14L9 11L7 11L7 10L11 10L11 11L10 11L10 13L11 13L11 12L12 12L12 13L13 13L13 15L12 15L12 16L11 16L11 17L12 17L12 18L11 18L11 20L9 20L9 19L8 19L8 21L9 21L9 23L8 23L8 25L10 25L10 24L11 24L11 25L13 25L13 24L11 24L11 23L12 23L12 21L13 21L13 23L14 23L14 21L13 21L13 18L16 18L16 19L14 19L14 20L16 20L16 21L15 21L15 22L16 22L16 23L15 23L15 25L16 25L16 23L18 23L18 24L17 24L17 25L20 25L20 24L19 24L19 21L23 21L23 22L22 22L22 23L21 23L21 25L25 25L25 24L24 24L24 22L25 22L25 21L23 21L23 18L22 18L22 19L21 19L21 17L23 17L23 14L21 14L21 12L22 12L22 13L24 13L24 14L25 14L25 12L24 12L24 9L25 9L25 8L21 8L21 9L20 9L20 8L19 8L19 9L18 9L18 11L17 11L17 9L15 9L15 8L17 8L17 3L16 3L16 2L17 2L17 0ZM9 2L9 3L10 3L10 2ZM15 3L15 4L16 4L16 3ZM14 5L14 6L13 6L13 8L12 8L12 9L11 9L11 10L12 10L12 9L14 9L14 8L15 8L15 7L16 7L16 5ZM14 6L14 7L15 7L15 6ZM0 8L0 9L2 9L2 8ZM5 9L5 11L4 11L4 10L3 10L3 11L4 11L4 12L3 12L3 13L2 13L2 12L1 12L1 13L2 13L2 14L4 14L4 13L6 13L6 14L7 14L7 13L8 13L8 12L7 12L7 11L6 11L6 10L7 10L7 9ZM19 9L19 12L20 12L20 9ZM21 9L21 10L22 10L22 11L23 11L23 10L22 10L22 9ZM13 10L13 11L12 11L12 12L13 12L13 13L16 13L16 14L18 14L18 15L17 15L17 16L19 16L19 15L20 15L20 16L21 16L21 15L20 15L20 14L19 14L19 13L17 13L17 12L15 12L15 10ZM5 11L5 12L6 12L6 13L7 13L7 12L6 12L6 11ZM13 15L13 17L15 17L15 16L16 16L16 15L15 15L15 16L14 16L14 15ZM4 16L4 17L5 17L5 16ZM6 16L6 17L8 17L8 18L10 18L10 17L9 17L9 16ZM17 17L17 20L20 20L20 17ZM24 17L24 18L25 18L25 17ZM18 18L18 19L19 19L19 18ZM11 20L11 21L12 21L12 20ZM16 21L16 22L17 22L17 21ZM0 0L0 7L7 7L7 0ZM1 1L1 6L6 6L6 1ZM2 2L2 5L5 5L5 2ZM18 0L18 7L25 7L25 0ZM19 1L19 6L24 6L24 1ZM20 2L20 5L23 5L23 2ZM0 18L0 25L7 25L7 18ZM1 19L1 24L6 24L6 19ZM2 20L2 23L5 23L5 20Z" fill="#000000"/></g></g></svg>
