<?xml version="1.0" encoding="UTF-8"?>
<svg xmlns="http://www.w3.org/2000/svg" version="1.1" width="300" height="300" viewBox="0 0 300 300"><rect x="0" y="0" width="300" height="300" fill="#ffffff"/><g transform="scale(12)"><g transform="translate(0,0)"><path fill-rule="evenodd" d="M10 0L10 2L11 2L11 0ZM12 0L12 1L13 1L13 0ZM14 0L14 1L15 1L15 3L14 3L14 4L13 4L13 2L12 2L12 4L13 4L13 5L11 5L11 6L10 6L10 4L11 4L11 3L8 3L8 4L9 4L9 5L8 5L8 7L9 7L9 8L6 8L6 9L7 9L7 10L4 10L4 9L5 9L5 8L0 8L0 9L3 9L3 10L0 10L0 11L3 11L3 12L4 12L4 13L3 13L3 14L4 14L4 15L2 15L2 17L4 17L4 15L5 15L5 14L6 14L6 15L7 15L7 16L5 16L5 17L7 17L7 16L8 16L8 15L11 15L11 17L13 17L13 16L12 16L12 15L11 15L11 14L6 14L6 13L7 13L7 12L6 12L6 11L7 11L7 10L8 10L8 12L9 12L9 13L11 13L11 12L9 12L9 10L8 10L8 9L10 9L10 11L11 11L11 9L12 9L12 11L13 11L13 10L14 10L14 9L15 9L15 11L14 11L14 13L13 13L13 12L12 12L12 13L13 13L13 14L14 14L14 15L15 15L15 16L14 16L14 18L12 18L12 20L10 20L10 19L11 19L11 18L9 18L9 17L10 17L10 16L9 16L9 17L8 17L8 19L9 19L9 20L8 20L8 25L11 25L11 24L9 24L9 23L10 23L10 22L9 22L9 20L10 20L10 21L13 21L13 19L14 19L14 18L16 18L16 19L15 19L15 20L14 20L14 21L15 21L15 23L14 23L14 25L16 25L16 24L17 24L17 25L20 25L20 24L22 24L22 25L25 25L25 21L23 21L23 20L24 20L24 19L25 19L25 17L24 17L24 18L23 18L23 20L22 20L22 19L21 19L21 18L22 18L22 17L23 17L23 16L25 16L25 10L24 10L24 8L23 8L23 9L22 9L22 8L21 8L21 10L20 10L20 8L19 8L19 10L18 10L18 11L17 11L17 9L18 9L18 8L17 8L17 4L16 4L16 2L17 2L17 0ZM8 1L8 2L9 2L9 1ZM14 4L14 5L15 5L15 4ZM9 6L9 7L10 7L10 6ZM11 6L11 7L12 7L12 8L13 8L13 9L14 9L14 8L16 8L16 6L15 6L15 7L14 7L14 6L13 6L13 7L12 7L12 6ZM10 8L10 9L11 9L11 8ZM3 10L3 11L4 11L4 12L5 12L5 11L4 11L4 10ZM19 10L19 11L20 11L20 10ZM23 10L23 11L22 11L22 12L24 12L24 10ZM15 11L15 12L17 12L17 11ZM19 12L19 13L17 13L17 14L16 14L16 16L17 16L17 14L18 14L18 15L19 15L19 16L20 16L20 14L21 14L21 12ZM0 13L0 17L1 17L1 14L2 14L2 13ZM4 13L4 14L5 14L5 13ZM14 13L14 14L15 14L15 13ZM19 13L19 14L20 14L20 13ZM22 13L22 16L21 16L21 17L22 17L22 16L23 16L23 14L24 14L24 13ZM17 17L17 20L20 20L20 17ZM18 18L18 19L19 19L19 18ZM21 20L21 21L19 21L19 22L17 22L17 23L19 23L19 24L20 24L20 23L22 23L22 24L24 24L24 22L23 22L23 21L22 21L22 20ZM21 21L21 22L22 22L22 21ZM12 22L12 23L13 23L13 22ZM15 23L15 24L16 24L16 23ZM0 0L0 7L7 7L7 0ZM1 1L1 6L6 6L6 1ZM2 2L2 5L5 5L5 2ZM18 0L18 7L25 7L25 0ZM19 1L19 6L24 6L24 1ZM20 2L20 5L23 5L23 2ZM0 18L0 25L7 25L7 18ZM1 19L1 24L6 24L6 19ZM2 20L2 23L5 23L5 20Z" fill="#000000"/></g></g></svg>
