<?xml version="1.0" encoding="UTF-8"?>
<svg xmlns="http://www.w3.org/2000/svg" version="1.1" width="300" height="300" viewBox="0 0 300 300"><rect x="0" y="0" width="300" height="300" fill="#ffffff"/><g transform="scale(12)"><g transform="translate(0,0)"><path fill-rule="evenodd" d="M8 0L8 2L10 2L10 4L8 4L8 11L7 11L7 10L6 10L6 9L7 9L7 8L5 8L5 9L3 9L3 8L0 8L0 12L1 12L1 13L2 13L2 14L0 14L0 15L2 15L2 16L0 16L0 17L2 17L2 16L3 16L3 17L4 17L4 15L7 15L7 16L6 16L6 17L7 17L7 16L8 16L8 18L9 18L9 19L8 19L8 20L9 20L9 22L8 22L8 25L10 25L10 24L11 24L11 25L12 25L12 24L13 24L13 25L14 25L14 24L13 24L13 23L15 23L15 22L16 22L16 25L17 25L17 24L18 24L18 25L19 25L19 23L20 23L20 25L21 25L21 23L22 23L22 21L21 21L21 16L20 16L20 15L19 15L19 13L22 13L22 12L21 12L21 11L22 11L22 10L23 10L23 11L25 11L25 8L23 8L23 9L22 9L22 10L21 10L21 11L20 11L20 9L21 9L21 8L16 8L16 7L17 7L17 6L16 6L16 7L15 7L15 5L16 5L16 3L17 3L17 2L15 2L15 3L14 3L14 2L13 2L13 3L12 3L12 2L11 2L11 1L16 1L16 0L10 0L10 1L9 1L9 0ZM11 3L11 4L12 4L12 5L9 5L9 8L10 8L10 6L11 6L11 8L14 8L14 9L13 9L13 11L12 11L12 13L11 13L11 10L12 10L12 9L11 9L11 10L9 10L9 11L10 11L10 13L9 13L9 12L8 12L8 13L5 13L5 12L7 12L7 11L6 11L6 10L4 10L4 12L3 12L3 14L2 14L2 15L3 15L3 14L8 14L8 13L9 13L9 14L10 14L10 15L8 15L8 16L9 16L9 18L12 18L12 16L11 16L11 17L10 17L10 15L11 15L11 14L12 14L12 15L13 15L13 16L14 16L14 18L13 18L13 19L9 19L9 20L11 20L11 22L12 22L12 20L13 20L13 22L15 22L15 21L14 21L14 20L16 20L16 18L15 18L15 17L16 17L16 16L17 16L17 15L16 15L16 16L14 16L14 15L13 15L13 14L15 14L15 12L17 12L17 13L16 13L16 14L18 14L18 11L19 11L19 12L20 12L20 11L19 11L19 9L17 9L17 11L15 11L15 10L16 10L16 9L15 9L15 8L14 8L14 6L13 6L13 7L12 7L12 5L13 5L13 4L14 4L14 3L13 3L13 4L12 4L12 3ZM1 9L1 10L2 10L2 11L1 11L1 12L2 12L2 11L3 11L3 10L2 10L2 9ZM14 9L14 10L15 10L15 9ZM14 11L14 12L13 12L13 13L12 13L12 14L13 14L13 13L14 13L14 12L15 12L15 11ZM24 12L24 13L25 13L25 12ZM21 14L21 15L23 15L23 17L24 17L24 15L25 15L25 14L24 14L24 15L23 15L23 14ZM18 15L18 16L19 16L19 15ZM17 17L17 20L20 20L20 17ZM18 18L18 19L19 19L19 18ZM22 18L22 19L23 19L23 20L24 20L24 19L25 19L25 18L24 18L24 19L23 19L23 18ZM16 21L16 22L17 22L17 21ZM18 21L18 23L19 23L19 21ZM23 21L23 23L25 23L25 22L24 22L24 21ZM9 23L9 24L10 24L10 23ZM11 23L11 24L12 24L12 23ZM24 24L24 25L25 25L25 24ZM0 0L0 7L7 7L7 0ZM1 1L1 6L6 6L6 1ZM2 2L2 5L5 5L5 2ZM18 0L18 7L25 7L25 0ZM19 1L19 6L24 6L24 1ZM20 2L20 5L23 5L23 2ZM0 18L0 25L7 25L7 18ZM1 19L1 24L6 24L6 19ZM2 20L2 23L5 23L5 20Z" fill="#000000"/></g></g></svg>
