<?xml version="1.0" encoding="UTF-8"?>
<svg xmlns="http://www.w3.org/2000/svg" version="1.1" width="300" height="300" viewBox="0 0 300 300"><rect x="0" y="0" width="300" height="300" fill="#ffffff"/><g transform="scale(12)"><g transform="translate(0,0)"><path fill-rule="evenodd" d="M9 0L9 1L8 1L8 3L9 3L9 4L8 4L8 8L6 8L6 9L7 9L7 10L5 10L5 9L4 9L4 8L3 8L3 9L4 9L4 10L5 10L5 11L2 11L2 10L1 10L1 11L0 11L0 12L1 12L1 13L2 13L2 15L1 15L1 14L0 14L0 15L1 15L1 16L0 16L0 17L4 17L4 16L5 16L5 17L8 17L8 19L9 19L9 17L8 17L8 16L6 16L6 15L7 15L7 14L9 14L9 16L10 16L10 17L11 17L11 16L12 16L12 21L11 21L11 18L10 18L10 20L9 20L9 21L8 21L8 22L10 22L10 23L11 23L11 25L13 25L13 24L14 24L14 23L15 23L15 25L19 25L19 24L20 24L20 25L22 25L22 23L23 23L23 22L22 22L22 23L21 23L21 21L22 21L22 20L23 20L23 19L25 19L25 18L22 18L22 17L23 17L23 16L22 16L22 15L23 15L23 14L24 14L24 15L25 15L25 14L24 14L24 13L25 13L25 12L23 12L23 13L21 13L21 12L22 12L22 11L23 11L23 9L24 9L24 11L25 11L25 9L24 9L24 8L22 8L22 9L21 9L21 8L18 8L18 9L15 9L15 6L16 6L16 8L17 8L17 4L16 4L16 3L17 3L17 2L16 2L16 1L15 1L15 2L14 2L14 3L13 3L13 6L12 6L12 9L11 9L11 8L10 8L10 7L11 7L11 6L10 6L10 5L9 5L9 4L12 4L12 2L13 2L13 1L14 1L14 0L12 0L12 1L11 1L11 0ZM9 1L9 2L11 2L11 1ZM15 2L15 3L16 3L16 2ZM15 4L15 5L16 5L16 4ZM9 6L9 7L10 7L10 6ZM13 6L13 11L14 11L14 10L15 10L15 11L16 11L16 12L11 12L11 11L12 11L12 10L11 10L11 11L8 11L8 10L10 10L10 8L8 8L8 10L7 10L7 11L6 11L6 12L5 12L5 14L7 14L7 13L14 13L14 14L12 14L12 16L13 16L13 17L14 17L14 16L13 16L13 15L15 15L15 16L19 16L19 15L16 15L16 12L18 12L18 11L19 11L19 10L20 10L20 12L19 12L19 14L20 14L20 16L21 16L21 15L22 15L22 14L21 14L21 13L20 13L20 12L21 12L21 11L22 11L22 10L21 10L21 9L18 9L18 11L17 11L17 10L15 10L15 9L14 9L14 6ZM0 8L0 9L2 9L2 8ZM7 11L7 12L6 12L6 13L7 13L7 12L8 12L8 11ZM2 12L2 13L3 13L3 14L4 14L4 12ZM10 14L10 15L11 15L11 14ZM2 15L2 16L3 16L3 15ZM15 17L15 18L16 18L16 17ZM17 17L17 20L20 20L20 17ZM13 18L13 21L14 21L14 20L15 20L15 22L16 22L16 23L19 23L19 22L20 22L20 21L16 21L16 20L15 20L15 19L14 19L14 18ZM18 18L18 19L19 19L19 18ZM10 21L10 22L11 22L11 23L14 23L14 22L11 22L11 21ZM24 22L24 23L25 23L25 22ZM8 23L8 25L9 25L9 23ZM20 23L20 24L21 24L21 23ZM23 24L23 25L25 25L25 24ZM0 0L0 7L7 7L7 0ZM1 1L1 6L6 6L6 1ZM2 2L2 5L5 5L5 2ZM18 0L18 7L25 7L25 0ZM19 1L19 6L24 6L24 1ZM20 2L20 5L23 5L23 2ZM0 18L0 25L7 25L7 18ZM1 19L1 24L6 24L6 19ZM2 20L2 23L5 23L5 20Z" fill="#000000"/></g></g></svg>
