<?xml version="1.0" encoding="UTF-8"?>
<svg xmlns="http://www.w3.org/2000/svg" version="1.1" width="300" height="300" viewBox="0 0 300 300"><rect x="0" y="0" width="300" height="300" fill="#ffffff"/><g transform="scale(12)"><g transform="translate(0,0)"><path fill-rule="evenodd" d="M8 0L8 4L9 4L9 5L8 5L8 7L9 7L9 8L10 8L10 7L11 7L11 6L10 6L10 7L9 7L9 5L10 5L10 4L9 4L9 3L10 3L10 2L11 2L11 3L12 3L12 2L14 2L14 3L13 3L13 5L12 5L12 4L11 4L11 5L12 5L12 7L13 7L13 6L14 6L14 7L15 7L15 8L17 8L17 3L16 3L16 2L14 2L14 0L13 0L13 1L12 1L12 0L10 0L10 2L9 2L9 0ZM15 0L15 1L17 1L17 0ZM11 1L11 2L12 2L12 1ZM14 3L14 4L16 4L16 3ZM15 5L15 7L16 7L16 5ZM0 8L0 12L2 12L2 11L4 11L4 12L3 12L3 13L7 13L7 14L2 14L2 13L0 13L0 14L2 14L2 16L0 16L0 17L2 17L2 16L3 16L3 17L8 17L8 18L10 18L10 19L8 19L8 21L9 21L9 23L8 23L8 25L13 25L13 22L15 22L15 23L14 23L14 24L15 24L15 23L16 23L16 22L17 22L17 23L19 23L19 22L21 22L21 21L22 21L22 23L20 23L20 24L17 24L17 25L25 25L25 24L24 24L24 22L25 22L25 21L24 21L24 20L25 20L25 19L24 19L24 20L23 20L23 18L22 18L22 19L21 19L21 17L23 17L23 14L21 14L21 12L22 12L22 13L24 13L24 14L25 14L25 12L24 12L24 9L25 9L25 8L21 8L21 9L20 9L20 8L19 8L19 9L20 9L20 11L19 11L19 12L16 12L16 13L13 13L13 12L12 12L12 9L13 9L13 8L12 8L12 9L11 9L11 11L10 11L10 13L9 13L9 14L8 14L8 11L9 11L9 10L10 10L10 9L8 9L8 10L5 10L5 9L7 9L7 8L4 8L4 9L3 9L3 10L1 10L1 9L2 9L2 8ZM14 9L14 11L18 11L18 10L17 10L17 9ZM21 9L21 10L22 10L22 11L23 11L23 10L22 10L22 9ZM4 10L4 11L5 11L5 10ZM6 11L6 12L7 12L7 11ZM11 12L11 13L10 13L10 14L9 14L9 15L10 15L10 17L11 17L11 16L12 16L12 15L13 15L13 17L12 17L12 18L13 18L13 19L12 19L12 20L11 20L11 19L10 19L10 21L12 21L12 22L13 22L13 21L15 21L15 22L16 22L16 20L15 20L15 19L16 19L16 16L14 16L14 15L15 15L15 14L12 14L12 15L10 15L10 14L11 14L11 13L12 13L12 12ZM17 13L17 16L20 16L20 13ZM7 14L7 15L5 15L5 16L8 16L8 14ZM18 14L18 15L19 15L19 14ZM3 15L3 16L4 16L4 15ZM17 17L17 20L20 20L20 17ZM24 17L24 18L25 18L25 17ZM18 18L18 19L19 19L19 18ZM12 20L12 21L13 21L13 20ZM9 23L9 24L11 24L11 23ZM0 0L0 7L7 7L7 0ZM1 1L1 6L6 6L6 1ZM2 2L2 5L5 5L5 2ZM18 0L18 7L25 7L25 0ZM19 1L19 6L24 6L24 1ZM20 2L20 5L23 5L23 2ZM0 18L0 25L7 25L7 18ZM1 19L1 24L6 24L6 19ZM2 20L2 23L5 23L5 20Z" fill="#000000"/></g></g></svg>
