<?xml version="1.0" encoding="UTF-8"?>
<svg xmlns="http://www.w3.org/2000/svg" version="1.1" width="300" height="300" viewBox="0 0 300 300"><rect x="0" y="0" width="300" height="300" fill="#ffffff"/><g transform="scale(12)"><g transform="translate(0,0)"><path fill-rule="evenodd" d="M11 0L11 1L9 1L9 2L11 2L11 1L13 1L13 2L12 2L12 4L13 4L13 2L15 2L15 3L16 3L16 4L15 4L15 5L14 5L14 7L15 7L15 8L14 8L14 9L13 9L13 8L12 8L12 7L13 7L13 5L11 5L11 6L10 6L10 8L9 8L9 9L8 9L8 8L5 8L5 9L2 9L2 8L0 8L0 10L3 10L3 11L4 11L4 12L3 12L3 13L1 13L1 12L0 12L0 17L1 17L1 14L4 14L4 15L5 15L5 16L3 16L3 15L2 15L2 17L5 17L5 16L6 16L6 17L7 17L7 16L6 16L6 15L8 15L8 16L9 16L9 14L8 14L8 13L10 13L10 11L11 11L11 13L12 13L12 12L13 12L13 13L14 13L14 14L15 14L15 15L14 15L14 16L13 16L13 15L12 15L12 17L14 17L14 16L16 16L16 17L15 17L15 18L13 18L13 19L15 19L15 18L16 18L16 20L14 20L14 21L15 21L15 22L20 22L20 21L21 21L21 15L22 15L22 17L23 17L23 16L25 16L25 10L24 10L24 9L23 9L23 10L21 10L21 9L22 9L22 8L20 8L20 9L18 9L18 10L17 10L17 11L18 11L18 10L20 10L20 12L18 12L18 13L22 13L22 12L21 12L21 11L23 11L23 10L24 10L24 14L23 14L23 15L22 15L22 14L21 14L21 15L20 15L20 16L19 16L19 14L18 14L18 15L16 15L16 13L17 13L17 12L15 12L15 11L16 11L16 10L15 10L15 9L17 9L17 8L16 8L16 7L17 7L17 3L16 3L16 2L17 2L17 1L16 1L16 0L14 0L14 1L13 1L13 0ZM15 1L15 2L16 2L16 1ZM8 3L8 5L10 5L10 4L9 4L9 3ZM15 5L15 7L16 7L16 5ZM8 6L8 7L9 7L9 6ZM11 6L11 7L12 7L12 6ZM10 8L10 10L9 10L9 11L10 11L10 10L11 10L11 11L12 11L12 9L11 9L11 8ZM6 9L6 10L4 10L4 11L5 11L5 12L4 12L4 14L7 14L7 13L8 13L8 12L7 12L7 11L8 11L8 9ZM6 10L6 11L7 11L7 10ZM13 10L13 12L14 12L14 13L15 13L15 12L14 12L14 11L15 11L15 10ZM5 12L5 13L7 13L7 12ZM10 16L10 17L8 17L8 20L10 20L10 24L9 24L9 23L8 23L8 25L10 25L10 24L11 24L11 25L14 25L14 24L13 24L13 23L12 23L12 24L11 24L11 20L12 20L12 21L13 21L13 20L12 20L12 18L10 18L10 17L11 17L11 16ZM17 17L17 20L20 20L20 17ZM24 17L24 19L23 19L23 18L22 18L22 19L23 19L23 20L22 20L22 22L21 22L21 23L19 23L19 24L18 24L18 23L16 23L16 25L17 25L17 24L18 24L18 25L21 25L21 23L22 23L22 22L24 22L24 25L25 25L25 21L23 21L23 20L24 20L24 19L25 19L25 17ZM18 18L18 19L19 19L19 18ZM0 0L0 7L7 7L7 0ZM1 1L1 6L6 6L6 1ZM2 2L2 5L5 5L5 2ZM18 0L18 7L25 7L25 0ZM19 1L19 6L24 6L24 1ZM20 2L20 5L23 5L23 2ZM0 18L0 25L7 25L7 18ZM1 19L1 24L6 24L6 19ZM2 20L2 23L5 23L5 20Z" fill="#000000"/></g></g></svg>
