<?xml version="1.0" encoding="UTF-8"?>
<svg xmlns="http://www.w3.org/2000/svg" version="1.1" width="300" height="300" viewBox="0 0 300 300"><rect x="0" y="0" width="300" height="300" fill="#ffffff"/><g transform="scale(12)"><g transform="translate(0,0)"><path fill-rule="evenodd" d="M8 0L8 1L9 1L9 2L8 2L8 5L10 5L10 9L11 9L11 10L8 10L8 9L9 9L9 8L8 8L8 9L7 9L7 8L6 8L6 9L7 9L7 10L5 10L5 9L4 9L4 8L0 8L0 9L3 9L3 10L5 10L5 11L4 11L4 12L3 12L3 13L4 13L4 14L1 14L1 15L0 15L0 16L1 16L1 15L3 15L3 16L2 16L2 17L3 17L3 16L4 16L4 15L5 15L5 14L6 14L6 15L7 15L7 16L6 16L6 17L8 17L8 18L9 18L9 19L10 19L10 20L9 20L9 21L8 21L8 25L10 25L10 24L9 24L9 23L12 23L12 24L11 24L11 25L15 25L15 24L14 24L14 21L15 21L15 20L14 20L14 21L10 21L10 20L12 20L12 19L13 19L13 18L14 18L14 16L13 16L13 13L15 13L15 14L16 14L16 15L17 15L17 16L15 16L15 18L16 18L16 21L17 21L17 25L20 25L20 24L19 24L19 22L20 22L20 23L22 23L22 25L25 25L25 24L23 24L23 23L24 23L24 22L25 22L25 18L23 18L23 17L25 17L25 15L24 15L24 13L25 13L25 12L23 12L23 11L24 11L24 9L25 9L25 8L24 8L24 9L23 9L23 8L20 8L20 9L18 9L18 8L17 8L17 6L16 6L16 8L14 8L14 10L13 10L13 11L12 11L12 9L11 9L11 8L12 8L12 7L13 7L13 6L14 6L14 7L15 7L15 6L14 6L14 5L17 5L17 3L15 3L15 1L14 1L14 0L13 0L13 1L12 1L12 0L11 0L11 2L10 2L10 1L9 1L9 0ZM16 0L16 2L17 2L17 0ZM9 2L9 4L10 4L10 5L11 5L11 7L12 7L12 4L10 4L10 2ZM11 2L11 3L12 3L12 2ZM13 4L13 5L14 5L14 4ZM8 6L8 7L9 7L9 6ZM15 9L15 11L14 11L14 12L16 12L16 14L17 14L17 15L19 15L19 16L21 16L21 15L22 15L22 16L23 16L23 15L22 15L22 14L23 14L23 13L21 13L21 12L22 12L22 10L21 10L21 9L20 9L20 10L19 10L19 11L21 11L21 12L19 12L19 14L17 14L17 12L18 12L18 9L17 9L17 10L16 10L16 9ZM1 10L1 11L0 11L0 13L1 13L1 12L2 12L2 10ZM7 10L7 11L6 11L6 12L7 12L7 13L6 13L6 14L7 14L7 15L8 15L8 14L9 14L9 12L7 12L7 11L8 11L8 10ZM11 11L11 13L10 13L10 14L11 14L11 16L10 16L10 15L9 15L9 16L10 16L10 17L9 17L9 18L10 18L10 19L12 19L12 18L11 18L11 16L12 16L12 17L13 17L13 16L12 16L12 11ZM16 11L16 12L17 12L17 11ZM4 12L4 13L5 13L5 12ZM7 13L7 14L8 14L8 13ZM20 13L20 14L19 14L19 15L20 15L20 14L21 14L21 13ZM17 17L17 20L20 20L20 17ZM21 17L21 20L22 20L22 23L23 23L23 20L24 20L24 19L23 19L23 18L22 18L22 17ZM18 18L18 19L19 19L19 18ZM15 22L15 23L16 23L16 22ZM0 0L0 7L7 7L7 0ZM1 1L1 6L6 6L6 1ZM2 2L2 5L5 5L5 2ZM18 0L18 7L25 7L25 0ZM19 1L19 6L24 6L24 1ZM20 2L20 5L23 5L23 2ZM0 18L0 25L7 25L7 18ZM1 19L1 24L6 24L6 19ZM2 20L2 23L5 23L5 20Z" fill="#000000"/></g></g></svg>
