<?xml version="1.0" encoding="UTF-8"?>
<svg xmlns="http://www.w3.org/2000/svg" version="1.1" width="300" height="300" viewBox="0 0 300 300"><rect x="0" y="0" width="300" height="300" fill="#ffffff"/><g transform="scale(10.345)"><g transform="translate(0,0)"><path fill-rule="evenodd" d="M8 0L8 1L10 1L10 0ZM15 0L15 1L14 1L14 2L11 2L11 4L10 4L10 3L9 3L9 2L8 2L8 5L9 5L9 6L8 6L8 7L9 7L9 8L8 8L8 9L7 9L7 8L6 8L6 9L5 9L5 10L4 10L4 8L0 8L0 11L1 11L1 13L4 13L4 14L1 14L1 15L0 15L0 17L1 17L1 18L0 18L0 19L1 19L1 18L3 18L3 19L2 19L2 20L1 20L1 21L3 21L3 19L5 19L5 21L8 21L8 22L9 22L9 24L10 24L10 25L8 25L8 29L9 29L9 26L10 26L10 27L11 27L11 28L12 28L12 29L13 29L13 28L12 28L12 26L13 26L13 27L14 27L14 29L15 29L15 28L17 28L17 29L21 29L21 28L22 28L22 27L24 27L24 25L26 25L26 27L27 27L27 28L26 28L26 29L28 29L28 27L29 27L29 25L28 25L28 24L29 24L29 23L28 23L28 21L27 21L27 20L28 20L28 19L26 19L26 21L27 21L27 22L26 22L26 23L25 23L25 19L24 19L24 20L20 20L20 19L19 19L19 18L21 18L21 19L22 19L22 18L21 18L21 16L23 16L23 18L24 18L24 17L25 17L25 18L27 18L27 17L28 17L28 18L29 18L29 17L28 17L28 15L29 15L29 12L26 12L26 11L27 11L27 10L29 10L29 8L28 8L28 9L27 9L27 8L24 8L24 9L22 9L22 8L21 8L21 5L17 5L17 6L16 6L16 7L17 7L17 8L16 8L16 9L15 9L15 5L14 5L14 4L13 4L13 5L12 5L12 3L16 3L16 4L17 4L17 3L16 3L16 1L17 1L17 2L18 2L18 3L19 3L19 2L18 2L18 1L19 1L19 0ZM20 0L20 2L21 2L21 0ZM20 3L20 4L21 4L21 3ZM10 5L10 6L9 6L9 7L10 7L10 8L9 8L9 9L8 9L8 10L7 10L7 9L6 9L6 10L5 10L5 11L4 11L4 12L7 12L7 11L8 11L8 12L10 12L10 13L11 13L11 11L14 11L14 10L15 10L15 9L13 9L13 7L14 7L14 5L13 5L13 7L12 7L12 5ZM10 6L10 7L11 7L11 8L12 8L12 7L11 7L11 6ZM17 6L17 7L18 7L18 8L17 8L17 10L16 10L16 12L12 12L12 14L11 14L11 16L12 16L12 17L10 17L10 18L8 18L8 17L6 17L6 16L7 16L7 15L6 15L6 14L7 14L7 13L5 13L5 16L4 16L4 17L5 17L5 19L6 19L6 20L9 20L9 19L11 19L11 20L12 20L12 19L11 19L11 18L12 18L12 17L14 17L14 18L13 18L13 20L14 20L14 21L15 21L15 20L16 20L16 19L18 19L18 21L17 21L17 22L18 22L18 23L16 23L16 22L14 22L14 23L11 23L11 22L12 22L12 21L11 21L11 22L10 22L10 24L11 24L11 25L10 25L10 26L11 26L11 25L12 25L12 24L13 24L13 26L14 26L14 27L16 27L16 25L18 25L18 26L17 26L17 28L21 28L21 26L20 26L20 27L19 27L19 25L20 25L20 20L19 20L19 19L18 19L18 18L19 18L19 17L20 17L20 15L23 15L23 16L24 16L24 15L25 15L25 16L26 16L26 17L27 17L27 15L28 15L28 14L26 14L26 13L25 13L25 12L22 12L22 13L23 13L23 14L21 14L21 11L20 11L20 9L21 9L21 8L20 8L20 6L19 6L19 7L18 7L18 6ZM18 8L18 10L17 10L17 11L18 11L18 12L19 12L19 13L17 13L17 14L18 14L18 16L17 16L17 15L15 15L15 14L14 14L14 13L13 13L13 14L12 14L12 16L14 16L14 15L15 15L15 16L17 16L17 18L18 18L18 17L19 17L19 15L20 15L20 14L19 14L19 13L20 13L20 11L18 11L18 10L19 10L19 9L20 9L20 8ZM1 9L1 11L2 11L2 9ZM9 9L9 10L8 10L8 11L9 11L9 10L10 10L10 9ZM25 9L25 10L22 10L22 11L26 11L26 10L27 10L27 9ZM6 10L6 11L7 11L7 10ZM8 13L8 16L10 16L10 15L9 15L9 13ZM13 14L13 15L14 15L14 14ZM23 14L23 15L24 15L24 14ZM1 16L1 17L2 17L2 16ZM6 18L6 19L8 19L8 18ZM15 18L15 19L16 19L16 18ZM18 21L18 22L19 22L19 21ZM21 21L21 24L24 24L24 21ZM22 22L22 23L23 23L23 22ZM15 23L15 24L14 24L14 26L15 26L15 24L16 24L16 23ZM26 23L26 24L27 24L27 23ZM22 25L22 26L23 26L23 25ZM27 25L27 27L28 27L28 25ZM23 28L23 29L25 29L25 28ZM0 0L0 7L7 7L7 0ZM1 1L1 6L6 6L6 1ZM2 2L2 5L5 5L5 2ZM22 0L22 7L29 7L29 0ZM23 1L23 6L28 6L28 1ZM24 2L24 5L27 5L27 2ZM0 22L0 29L7 29L7 22ZM1 23L1 28L6 28L6 23ZM2 24L2 27L5 27L5 24Z" fill="#000000"/></g></g></svg>
