<?xml version="1.0" encoding="UTF-8"?>
<svg xmlns="http://www.w3.org/2000/svg" version="1.1" width="300" height="300" viewBox="0 0 300 300"><rect x="0" y="0" width="300" height="300" fill="#ffffff"/><g transform="scale(10.345)"><g transform="translate(0,0)"><path fill-rule="evenodd" d="M10 0L10 1L9 1L9 2L8 2L8 3L9 3L9 5L10 5L10 7L11 7L11 8L12 8L12 9L11 9L11 10L10 10L10 9L9 9L9 6L8 6L8 8L4 8L4 9L3 9L3 8L0 8L0 9L3 9L3 12L4 12L4 10L5 10L5 11L8 11L8 12L5 12L5 13L4 13L4 14L6 14L6 15L7 15L7 16L5 16L5 15L4 15L4 16L1 16L1 15L3 15L3 13L2 13L2 12L0 12L0 13L2 13L2 14L0 14L0 17L2 17L2 19L1 19L1 18L0 18L0 19L1 19L1 20L0 20L0 21L1 21L1 20L2 20L2 19L3 19L3 20L5 20L5 21L7 21L7 20L6 20L6 19L7 19L7 18L6 18L6 19L4 19L4 18L3 18L3 17L7 17L7 16L8 16L8 20L9 20L9 21L8 21L8 25L11 25L11 27L12 27L12 28L11 28L11 29L12 29L12 28L14 28L14 29L15 29L15 28L16 28L16 29L18 29L18 27L19 27L19 26L20 26L20 28L19 28L19 29L21 29L21 28L22 28L22 29L23 29L23 28L26 28L26 29L29 29L29 28L28 28L28 27L29 27L29 24L28 24L28 25L27 25L27 26L28 26L28 27L27 27L27 28L26 28L26 23L25 23L25 21L26 21L26 19L29 19L29 18L28 18L28 17L29 17L29 16L28 16L28 15L29 15L29 13L28 13L28 15L27 15L27 14L26 14L26 11L27 11L27 12L29 12L29 9L27 9L27 8L26 8L26 9L25 9L25 10L23 10L23 8L20 8L20 7L21 7L21 5L20 5L20 4L18 4L18 5L17 5L17 3L16 3L16 2L15 2L15 3L16 3L16 5L14 5L14 3L12 3L12 2L11 2L11 3L12 3L12 5L10 5L10 3L9 3L9 2L10 2L10 1L11 1L11 0ZM14 0L14 1L13 1L13 2L14 2L14 1L15 1L15 0ZM19 0L19 1L17 1L17 2L18 2L18 3L20 3L20 0ZM13 5L13 7L12 7L12 6L11 6L11 7L12 7L12 8L13 8L13 9L14 9L14 10L13 10L13 11L14 11L14 10L15 10L15 9L16 9L16 8L17 8L17 7L18 7L18 10L19 10L19 11L20 11L20 12L21 12L21 14L20 14L20 13L19 13L19 12L18 12L18 13L16 13L16 14L14 14L14 12L12 12L12 11L11 11L11 12L12 12L12 14L10 14L10 12L9 12L9 13L8 13L8 16L9 16L9 18L10 18L10 17L12 17L12 16L13 16L13 17L14 17L14 18L13 18L13 19L14 19L14 18L15 18L15 19L16 19L16 20L15 20L15 22L14 22L14 20L12 20L12 19L10 19L10 20L12 20L12 22L11 22L11 21L9 21L9 23L10 23L10 24L11 24L11 25L12 25L12 24L13 24L13 25L14 25L14 26L13 26L13 27L14 27L14 26L15 26L15 27L18 27L18 26L19 26L19 25L20 25L20 23L18 23L18 22L16 22L16 20L17 20L17 19L18 19L18 18L19 18L19 19L20 19L20 20L18 20L18 21L20 21L20 20L21 20L21 19L22 19L22 20L24 20L24 19L26 19L26 18L27 18L27 15L26 15L26 17L25 17L25 15L24 15L24 16L23 16L23 19L22 19L22 18L20 18L20 17L22 17L22 16L21 16L21 15L23 15L23 14L25 14L25 12L24 12L24 11L20 11L20 8L19 8L19 7L20 7L20 6L19 6L19 5L18 5L18 6L17 6L17 7L16 7L16 6L15 6L15 7L14 7L14 5ZM18 6L18 7L19 7L19 6ZM15 7L15 8L16 8L16 7ZM5 9L5 10L8 10L8 11L10 11L10 10L8 10L8 9ZM26 9L26 10L25 10L25 11L26 11L26 10L27 10L27 11L28 11L28 10L27 10L27 9ZM0 10L0 11L2 11L2 10ZM15 11L15 12L16 12L16 11ZM22 12L22 14L23 14L23 12ZM6 13L6 14L7 14L7 13ZM13 14L13 15L14 15L14 14ZM16 14L16 15L17 15L17 17L16 17L16 18L18 18L18 15L19 15L19 14L18 14L18 15L17 15L17 14ZM9 15L9 16L12 16L12 15ZM21 21L21 24L24 24L24 21ZM27 21L27 23L29 23L29 22L28 22L28 21ZM10 22L10 23L11 23L11 24L12 24L12 23L11 23L11 22ZM13 22L13 23L14 23L14 22ZM22 22L22 23L23 23L23 22ZM17 23L17 24L15 24L15 25L16 25L16 26L17 26L17 25L18 25L18 23ZM21 25L21 26L22 26L22 28L23 28L23 25ZM24 25L24 26L25 26L25 25ZM8 26L8 29L9 29L9 28L10 28L10 27L9 27L9 26ZM0 0L0 7L7 7L7 0ZM1 1L1 6L6 6L6 1ZM2 2L2 5L5 5L5 2ZM22 0L22 7L29 7L29 0ZM23 1L23 6L28 6L28 1ZM24 2L24 5L27 5L27 2ZM0 22L0 29L7 29L7 22ZM1 23L1 28L6 28L6 23ZM2 24L2 27L5 27L5 24Z" fill="#000000"/></g></g></svg>
