<?xml version="1.0" encoding="UTF-8"?>
<svg xmlns="http://www.w3.org/2000/svg" version="1.1" width="300" height="300" viewBox="0 0 300 300"><rect x="0" y="0" width="300" height="300" fill="#ffffff"/><g transform="scale(12)"><g transform="translate(0,0)"><path fill-rule="evenodd" d="M9 0L9 1L8 1L8 3L9 3L9 4L8 4L8 8L6 8L6 9L7 9L7 10L6 10L6 11L5 11L5 12L4 12L4 10L5 10L5 9L4 9L4 8L3 8L3 9L4 9L4 10L2 10L2 11L3 11L3 12L2 12L2 13L1 13L1 12L0 12L0 13L1 13L1 14L0 14L0 15L1 15L1 16L0 16L0 17L2 17L2 15L3 15L3 17L8 17L8 19L9 19L9 20L10 20L10 19L11 19L11 17L13 17L13 18L12 18L12 19L13 19L13 18L14 18L14 15L13 15L13 13L15 13L15 12L16 12L16 13L17 13L17 14L16 14L16 15L15 15L15 16L16 16L16 21L15 21L15 19L14 19L14 20L13 20L13 21L12 21L12 20L11 20L11 21L10 21L10 22L9 22L9 21L8 21L8 22L9 22L9 23L8 23L8 25L11 25L11 23L10 23L10 22L11 22L11 21L12 21L12 22L14 22L14 23L12 23L12 25L14 25L14 23L15 23L15 24L16 24L16 25L17 25L17 23L18 23L18 24L20 24L20 23L21 23L21 24L22 24L22 25L25 25L25 24L22 24L22 23L23 23L23 22L22 22L22 23L21 23L21 22L20 22L20 21L22 21L22 20L23 20L23 21L24 21L24 20L23 20L23 19L25 19L25 18L22 18L22 17L23 17L23 16L22 16L22 15L23 15L23 14L24 14L24 15L25 15L25 14L24 14L24 13L25 13L25 12L23 12L23 13L21 13L21 14L20 14L20 13L19 13L19 12L22 12L22 11L23 11L23 9L24 9L24 11L25 11L25 9L24 9L24 8L22 8L22 9L21 9L21 8L18 8L18 9L17 9L17 4L15 4L15 2L16 2L16 3L17 3L17 1L15 1L15 0L12 0L12 1L11 1L11 2L9 2L9 1L10 1L10 0ZM13 1L13 3L12 3L12 4L9 4L9 5L10 5L10 6L9 6L9 7L10 7L10 8L8 8L8 12L9 12L9 13L8 13L8 14L7 14L7 13L6 13L6 12L7 12L7 11L6 11L6 12L5 12L5 13L4 13L4 12L3 12L3 13L2 13L2 14L1 14L1 15L2 15L2 14L3 14L3 15L4 15L4 14L7 14L7 15L5 15L5 16L8 16L8 14L9 14L9 16L12 16L12 14L11 14L11 15L10 15L10 14L9 14L9 13L12 13L12 12L13 12L13 9L14 9L14 6L15 6L15 10L14 10L14 11L16 11L16 6L15 6L15 5L14 5L14 6L13 6L13 3L14 3L14 1ZM11 5L11 6L10 6L10 7L11 7L11 6L12 6L12 8L13 8L13 6L12 6L12 5ZM0 8L0 10L1 10L1 9L2 9L2 8ZM10 8L10 10L9 10L9 11L11 11L11 10L12 10L12 9L11 9L11 8ZM19 9L19 10L18 10L18 12L19 12L19 11L20 11L20 10L21 10L21 11L22 11L22 10L21 10L21 9ZM17 14L17 16L20 16L20 14L19 14L19 15L18 15L18 14ZM21 14L21 15L22 15L22 14ZM9 17L9 19L10 19L10 17ZM17 17L17 20L20 20L20 17ZM18 18L18 19L19 19L19 18ZM16 21L16 22L15 22L15 23L17 23L17 21ZM18 21L18 23L20 23L20 22L19 22L19 21ZM24 22L24 23L25 23L25 22ZM9 23L9 24L10 24L10 23ZM0 0L0 7L7 7L7 0ZM1 1L1 6L6 6L6 1ZM2 2L2 5L5 5L5 2ZM18 0L18 7L25 7L25 0ZM19 1L19 6L24 6L24 1ZM20 2L20 5L23 5L23 2ZM0 18L0 25L7 25L7 18ZM1 19L1 24L6 24L6 19ZM2 20L2 23L5 23L5 20Z" fill="#000000"/></g></g></svg>
