<?xml version="1.0" encoding="UTF-8"?>
<svg xmlns="http://www.w3.org/2000/svg" version="1.1" width="300" height="300" viewBox="0 0 300 300"><rect x="0" y="0" width="300" height="300" fill="#ffffff"/><g transform="scale(12)"><g transform="translate(0,0)"><path fill-rule="evenodd" d="M8 0L8 2L9 2L9 3L10 3L10 4L8 4L8 11L7 11L7 10L6 10L6 11L7 11L7 12L6 12L6 13L7 13L7 14L6 14L6 15L5 15L5 13L4 13L4 12L5 12L5 11L4 11L4 12L3 12L3 10L5 10L5 9L7 9L7 8L5 8L5 9L3 9L3 8L0 8L0 10L1 10L1 11L2 11L2 12L1 12L1 13L2 13L2 14L0 14L0 15L2 15L2 16L0 16L0 17L2 17L2 16L3 16L3 17L8 17L8 18L10 18L10 20L9 20L9 19L8 19L8 20L9 20L9 21L10 21L10 20L12 20L12 22L11 22L11 23L10 23L10 22L8 22L8 25L9 25L9 23L10 23L10 24L11 24L11 23L12 23L12 25L14 25L14 24L13 24L13 23L15 23L15 22L16 22L16 25L17 25L17 24L18 24L18 25L19 25L19 24L20 24L20 25L21 25L21 24L20 24L20 23L25 23L25 22L24 22L24 21L22 21L22 22L21 22L21 16L20 16L20 15L23 15L23 17L24 17L24 15L25 15L25 14L24 14L24 15L23 15L23 14L19 14L19 13L22 13L22 12L21 12L21 11L22 11L22 10L23 10L23 11L25 11L25 8L23 8L23 9L22 9L22 10L21 10L21 11L20 11L20 9L21 9L21 8L17 8L17 9L16 9L16 7L17 7L17 5L16 5L16 3L17 3L17 2L15 2L15 1L16 1L16 0L15 0L15 1L14 1L14 0L13 0L13 1L14 1L14 2L13 2L13 3L14 3L14 4L13 4L13 5L12 5L12 3L11 3L11 1L12 1L12 0ZM9 1L9 2L10 2L10 1ZM14 2L14 3L15 3L15 2ZM9 5L9 8L10 8L10 5ZM11 5L11 8L14 8L14 10L16 10L16 9L15 9L15 7L16 7L16 5L14 5L14 6L13 6L13 7L12 7L12 5ZM14 6L14 7L15 7L15 6ZM1 9L1 10L3 10L3 9ZM10 9L10 10L9 10L9 11L8 11L8 12L7 12L7 13L8 13L8 14L7 14L7 15L6 15L6 16L8 16L8 17L10 17L10 18L12 18L12 19L13 19L13 22L15 22L15 21L14 21L14 19L15 19L15 20L16 20L16 18L15 18L15 17L16 17L16 16L17 16L17 15L16 15L16 16L14 16L14 15L13 15L13 14L15 14L15 12L17 12L17 13L16 13L16 14L18 14L18 11L19 11L19 12L20 12L20 11L19 11L19 9L17 9L17 11L11 11L11 10L12 10L12 9ZM9 11L9 12L8 12L8 13L10 13L10 11ZM2 12L2 13L3 13L3 12ZM12 12L12 14L11 14L11 15L10 15L10 17L11 17L11 16L12 16L12 18L13 18L13 19L14 19L14 16L12 16L12 14L13 14L13 13L14 13L14 12ZM24 12L24 13L25 13L25 12ZM2 14L2 15L3 15L3 16L4 16L4 14ZM18 15L18 16L19 16L19 15ZM17 17L17 20L20 20L20 17ZM18 18L18 19L19 19L19 18ZM22 18L22 19L23 19L23 20L25 20L25 18L24 18L24 19L23 19L23 18ZM16 21L16 22L17 22L17 21ZM18 21L18 23L19 23L19 21ZM24 24L24 25L25 25L25 24ZM0 0L0 7L7 7L7 0ZM1 1L1 6L6 6L6 1ZM2 2L2 5L5 5L5 2ZM18 0L18 7L25 7L25 0ZM19 1L19 6L24 6L24 1ZM20 2L20 5L23 5L23 2ZM0 18L0 25L7 25L7 18ZM1 19L1 24L6 24L6 19ZM2 20L2 23L5 23L5 20Z" fill="#000000"/></g></g></svg>
