<?xml version="1.0" encoding="UTF-8"?>
<svg xmlns="http://www.w3.org/2000/svg" version="1.1" width="300" height="300" viewBox="0 0 300 300"><rect x="0" y="0" width="300" height="300" fill="#ffffff"/><g transform="scale(12)"><g transform="translate(0,0)"><path fill-rule="evenodd" d="M9 0L9 1L11 1L11 2L9 2L9 3L8 3L8 5L9 5L9 6L8 6L8 7L9 7L9 9L8 9L8 8L5 8L5 9L4 9L4 10L1 10L1 11L0 11L0 17L1 17L1 14L2 14L2 15L3 15L3 14L4 14L4 16L2 16L2 17L4 17L4 16L5 16L5 13L3 13L3 14L2 14L2 13L1 13L1 12L6 12L6 13L7 13L7 14L6 14L6 15L7 15L7 16L6 16L6 17L7 17L7 16L9 16L9 17L8 17L8 20L9 20L9 22L10 22L10 23L8 23L8 25L12 25L12 24L13 24L13 23L12 23L12 24L10 24L10 23L11 23L11 22L10 22L10 20L11 20L11 21L12 21L12 22L13 22L13 21L14 21L14 22L15 22L15 23L16 23L16 24L14 24L14 25L18 25L18 24L17 24L17 23L18 23L18 22L19 22L19 23L20 23L20 24L19 24L19 25L20 25L20 24L21 24L21 25L23 25L23 24L21 24L21 23L20 23L20 22L22 22L22 23L23 23L23 22L24 22L24 25L25 25L25 21L23 21L23 20L22 20L22 21L21 21L21 16L20 16L20 15L22 15L22 17L23 17L23 16L25 16L25 10L24 10L24 9L23 9L23 10L21 10L21 9L22 9L22 8L20 8L20 9L19 9L19 11L18 11L18 10L16 10L16 7L17 7L17 3L16 3L16 2L15 2L15 4L14 4L14 3L13 3L13 4L12 4L12 2L13 2L13 1L15 1L15 0L13 0L13 1L12 1L12 0ZM16 0L16 1L17 1L17 0ZM9 3L9 5L10 5L10 3ZM11 4L11 7L10 7L10 6L9 6L9 7L10 7L10 8L11 8L11 10L10 10L10 9L9 9L9 10L10 10L10 11L8 11L8 10L7 10L7 9L5 9L5 10L4 10L4 11L5 11L5 10L7 10L7 11L6 11L6 12L7 12L7 13L9 13L9 14L7 14L7 15L9 15L9 16L10 16L10 17L9 17L9 20L10 20L10 18L11 18L11 19L12 19L12 20L14 20L14 21L15 21L15 22L16 22L16 23L17 23L17 22L18 22L18 21L17 21L17 22L16 22L16 21L15 21L15 19L16 19L16 18L15 18L15 19L14 19L14 17L12 17L12 15L13 15L13 16L17 16L17 14L19 14L19 15L20 15L20 14L22 14L22 15L23 15L23 14L24 14L24 10L23 10L23 11L21 11L21 10L20 10L20 11L19 11L19 12L20 12L20 14L19 14L19 13L18 13L18 12L17 12L17 14L16 14L16 15L14 15L14 14L15 14L15 12L16 12L16 11L15 11L15 9L12 9L12 6L13 6L13 8L14 8L14 4L13 4L13 5L12 5L12 4ZM15 4L15 7L16 7L16 4ZM0 8L0 9L2 9L2 8ZM11 10L11 11L10 11L10 12L9 12L9 13L10 13L10 14L11 14L11 12L12 12L12 11L14 11L14 12L15 12L15 11L14 11L14 10ZM21 12L21 13L22 13L22 12ZM12 13L12 14L13 14L13 13ZM17 17L17 20L20 20L20 17ZM24 17L24 20L25 20L25 17ZM12 18L12 19L13 19L13 18ZM18 18L18 19L19 19L19 18ZM22 18L22 19L23 19L23 18ZM19 21L19 22L20 22L20 21ZM0 0L0 7L7 7L7 0ZM1 1L1 6L6 6L6 1ZM2 2L2 5L5 5L5 2ZM18 0L18 7L25 7L25 0ZM19 1L19 6L24 6L24 1ZM20 2L20 5L23 5L23 2ZM0 18L0 25L7 25L7 18ZM1 19L1 24L6 24L6 19ZM2 20L2 23L5 23L5 20Z" fill="#000000"/></g></g></svg>
