<?xml version="1.0" encoding="UTF-8"?>
<svg xmlns="http://www.w3.org/2000/svg" version="1.1" width="300" height="300" viewBox="0 0 300 300"><rect x="0" y="0" width="300" height="300" fill="#ffffff"/><g transform="scale(10.345)"><g transform="translate(0,0)"><path fill-rule="evenodd" d="M8 0L8 2L10 2L10 4L8 4L8 10L11 10L11 11L12 11L12 10L11 10L11 8L13 8L13 10L15 10L15 11L16 11L16 12L15 12L15 13L16 13L16 14L13 14L13 13L14 13L14 11L13 11L13 12L11 12L11 13L12 13L12 15L9 15L9 14L10 14L10 11L8 11L8 12L6 12L6 13L4 13L4 14L5 14L5 15L4 15L4 17L5 17L5 15L7 15L7 16L6 16L6 17L7 17L7 18L3 18L3 19L2 19L2 18L0 18L0 19L2 19L2 20L0 20L0 21L4 21L4 20L6 20L6 21L7 21L7 20L6 20L6 19L7 19L7 18L8 18L8 19L9 19L9 20L8 20L8 22L9 22L9 23L8 23L8 24L9 24L9 25L10 25L10 27L12 27L12 26L11 26L11 24L13 24L13 26L15 26L15 27L20 27L20 25L21 25L21 26L22 26L22 27L23 27L23 26L22 26L22 25L25 25L25 22L26 22L26 23L27 23L27 22L26 22L26 21L25 21L25 19L24 19L24 16L23 16L23 15L22 15L22 14L24 14L24 15L25 15L25 14L24 14L24 12L25 12L25 11L28 11L28 12L27 12L27 14L26 14L26 15L29 15L29 13L28 13L28 12L29 12L29 8L27 8L27 9L28 9L28 10L24 10L24 9L25 9L25 8L20 8L20 7L21 7L21 5L20 5L20 4L19 4L19 3L20 3L20 2L21 2L21 1L20 1L20 0L19 0L19 1L20 1L20 2L19 2L19 3L18 3L18 0L15 0L15 1L13 1L13 0L11 0L11 1L9 1L9 0ZM11 1L11 2L12 2L12 1ZM15 1L15 2L16 2L16 1ZM13 2L13 3L11 3L11 4L12 4L12 6L11 6L11 5L9 5L9 8L10 8L10 6L11 6L11 7L12 7L12 6L13 6L13 8L14 8L14 6L15 6L15 7L16 7L16 6L17 6L17 9L16 9L16 8L15 8L15 10L16 10L16 11L17 11L17 12L18 12L18 13L17 13L17 14L18 14L18 15L17 15L17 16L18 16L18 17L17 17L17 18L18 18L18 19L17 19L17 20L18 20L18 21L17 21L17 22L16 22L16 20L15 20L15 18L16 18L16 17L15 17L15 18L13 18L13 16L14 16L14 15L13 15L13 16L11 16L11 17L10 17L10 18L9 18L9 19L10 19L10 18L12 18L12 19L11 19L11 20L10 20L10 21L9 21L9 22L10 22L10 23L12 23L12 21L11 21L11 20L13 20L13 19L14 19L14 21L13 21L13 22L16 22L16 23L15 23L15 24L18 24L18 26L19 26L19 24L18 24L18 21L19 21L19 20L18 20L18 19L19 19L19 18L20 18L20 20L23 20L23 19L21 19L21 18L22 18L22 17L21 17L21 18L20 18L20 16L22 16L22 15L19 15L19 14L20 14L20 12L21 12L21 11L22 11L22 12L23 12L23 11L24 11L24 10L23 10L23 11L22 11L22 9L21 9L21 10L20 10L20 8L19 8L19 7L20 7L20 5L18 5L18 3L15 3L15 4L16 4L16 6L15 6L15 5L13 5L13 4L14 4L14 2ZM18 6L18 7L19 7L19 6ZM0 8L0 13L1 13L1 14L0 14L0 17L1 17L1 15L2 15L2 16L3 16L3 15L2 15L2 13L3 13L3 12L5 12L5 10L6 10L6 11L7 11L7 10L6 10L6 9L7 9L7 8L5 8L5 10L4 10L4 9L3 9L3 8ZM18 8L18 9L19 9L19 8ZM2 9L2 11L1 11L1 13L2 13L2 11L4 11L4 10L3 10L3 9ZM17 10L17 11L20 11L20 10ZM6 13L6 14L7 14L7 15L8 15L8 16L7 16L7 17L8 17L8 16L9 16L9 15L8 15L8 14L9 14L9 13ZM15 15L15 16L16 16L16 15ZM28 16L28 17L29 17L29 16ZM26 18L26 19L27 19L27 21L28 21L28 19L29 19L29 18L28 18L28 19L27 19L27 18ZM10 21L10 22L11 22L11 21ZM21 21L21 24L24 24L24 21ZM22 22L22 23L23 23L23 22ZM28 22L28 24L27 24L27 25L28 25L28 26L27 26L27 27L29 27L29 22ZM13 23L13 24L14 24L14 23ZM15 25L15 26L16 26L16 25ZM8 26L8 29L10 29L10 28L9 28L9 26ZM24 26L24 28L23 28L23 29L24 29L24 28L25 28L25 29L27 29L27 28L25 28L25 26ZM13 27L13 28L11 28L11 29L14 29L14 27ZM15 28L15 29L16 29L16 28ZM17 28L17 29L18 29L18 28ZM20 28L20 29L22 29L22 28ZM28 28L28 29L29 29L29 28ZM0 0L0 7L7 7L7 0ZM1 1L1 6L6 6L6 1ZM2 2L2 5L5 5L5 2ZM22 0L22 7L29 7L29 0ZM23 1L23 6L28 6L28 1ZM24 2L24 5L27 5L27 2ZM0 22L0 29L7 29L7 22ZM1 23L1 28L6 28L6 23ZM2 24L2 27L5 27L5 24Z" fill="#000000"/></g></g></svg>
