<?xml version="1.0" encoding="UTF-8"?>
<svg xmlns="http://www.w3.org/2000/svg" version="1.1" width="300" height="300" viewBox="0 0 300 300"><rect x="0" y="0" width="300" height="300" fill="#ffffff"/><g transform="scale(12)"><g transform="translate(0,0)"><path fill-rule="evenodd" d="M9 0L9 3L8 3L8 5L9 5L9 6L8 6L8 7L9 7L9 9L10 9L10 10L9 10L9 11L8 11L8 12L6 12L6 11L7 11L7 10L4 10L4 9L2 9L2 8L0 8L0 9L2 9L2 10L1 10L1 11L0 11L0 17L1 17L1 12L2 12L2 10L3 10L3 11L4 11L4 12L3 12L3 14L2 14L2 15L3 15L3 14L4 14L4 16L2 16L2 17L4 17L4 16L5 16L5 17L7 17L7 16L9 16L9 17L8 17L8 20L9 20L9 21L10 21L10 22L9 22L9 23L8 23L8 25L10 25L10 24L11 24L11 25L13 25L13 22L12 22L12 21L15 21L15 22L20 22L20 21L21 21L21 15L22 15L22 17L23 17L23 16L25 16L25 10L24 10L24 9L23 9L23 10L21 10L21 9L22 9L22 8L20 8L20 9L18 9L18 10L17 10L17 11L18 11L18 10L20 10L20 12L18 12L18 13L22 13L22 12L21 12L21 11L23 11L23 10L24 10L24 14L23 14L23 15L22 15L22 14L20 14L20 15L19 15L19 14L18 14L18 15L16 15L16 13L17 13L17 12L15 12L15 11L16 11L16 9L17 9L17 6L16 6L16 7L15 7L15 4L16 4L16 5L17 5L17 3L16 3L16 2L17 2L17 1L16 1L16 2L14 2L14 0L13 0L13 2L12 2L12 4L11 4L11 3L10 3L10 2L11 2L11 1L10 1L10 0ZM13 2L13 3L14 3L14 4L12 4L12 5L11 5L11 4L10 4L10 3L9 3L9 5L11 5L11 7L10 7L10 6L9 6L9 7L10 7L10 8L12 8L12 5L14 5L14 4L15 4L15 3L14 3L14 2ZM13 6L13 8L15 8L15 7L14 7L14 6ZM5 8L5 9L8 9L8 8ZM12 9L12 10L10 10L10 11L9 11L9 12L8 12L8 14L7 14L7 13L6 13L6 12L4 12L4 14L5 14L5 15L6 15L6 16L7 16L7 15L10 15L10 14L9 14L9 12L10 12L10 11L11 11L11 12L13 12L13 13L12 13L12 14L11 14L11 17L9 17L9 18L10 18L10 19L9 19L9 20L11 20L11 17L12 17L12 18L14 18L14 19L13 19L13 20L14 20L14 19L15 19L15 20L16 20L16 18L14 18L14 17L12 17L12 15L13 15L13 16L14 16L14 15L15 15L15 14L14 14L14 13L15 13L15 12L14 12L14 11L15 11L15 10L14 10L14 9ZM12 10L12 11L13 11L13 10ZM6 14L6 15L7 15L7 14ZM13 14L13 15L14 15L14 14ZM15 16L15 17L16 17L16 16ZM17 17L17 20L20 20L20 17ZM24 17L24 19L25 19L25 17ZM18 18L18 19L19 19L19 18ZM22 18L22 19L23 19L23 18ZM22 20L22 22L21 22L21 23L19 23L19 24L18 24L18 23L16 23L16 25L17 25L17 24L18 24L18 25L21 25L21 23L22 23L22 22L24 22L24 25L25 25L25 21L24 21L24 20ZM10 22L10 23L9 23L9 24L10 24L10 23L11 23L11 24L12 24L12 22ZM14 24L14 25L15 25L15 24ZM0 0L0 7L7 7L7 0ZM1 1L1 6L6 6L6 1ZM2 2L2 5L5 5L5 2ZM18 0L18 7L25 7L25 0ZM19 1L19 6L24 6L24 1ZM20 2L20 5L23 5L23 2ZM0 18L0 25L7 25L7 18ZM1 19L1 24L6 24L6 19ZM2 20L2 23L5 23L5 20Z" fill="#000000"/></g></g></svg>
