<?xml version="1.0" encoding="UTF-8"?>
<svg xmlns="http://www.w3.org/2000/svg" version="1.1" width="300" height="300" viewBox="0 0 300 300"><rect x="0" y="0" width="300" height="300" fill="#ffffff"/><g transform="scale(12)"><g transform="translate(0,0)"><path fill-rule="evenodd" d="M8 0L8 2L10 2L10 4L8 4L8 9L9 9L9 10L8 10L8 11L9 11L9 13L10 13L10 11L9 11L9 10L11 10L11 11L13 11L13 5L12 5L12 8L11 8L11 6L10 6L10 8L9 8L9 5L11 5L11 1L13 1L13 2L12 2L12 4L14 4L14 5L15 5L15 4L16 4L16 3L17 3L17 1L16 1L16 2L15 2L15 3L14 3L14 0L10 0L10 1L9 1L9 0ZM16 5L16 7L17 7L17 5ZM14 6L14 7L15 7L15 6ZM0 8L0 10L2 10L2 11L1 11L1 12L2 12L2 13L3 13L3 14L0 14L0 15L2 15L2 16L0 16L0 17L8 17L8 18L9 18L9 19L8 19L8 20L9 20L9 21L10 21L10 22L11 22L11 23L9 23L9 22L8 22L8 25L10 25L10 24L11 24L11 25L13 25L13 24L11 24L11 23L12 23L12 21L13 21L13 23L14 23L14 24L15 24L15 22L16 22L16 25L17 25L17 24L18 24L18 25L19 25L19 24L20 24L20 25L21 25L21 16L20 16L20 14L19 14L19 13L22 13L22 12L21 12L21 11L22 11L22 10L23 10L23 11L25 11L25 8L23 8L23 9L22 9L22 10L21 10L21 11L20 11L20 9L21 9L21 8L15 8L15 9L14 9L14 10L15 10L15 11L14 11L14 12L15 12L15 14L13 14L13 12L12 12L12 13L11 13L11 15L12 15L12 14L13 14L13 15L14 15L14 16L16 16L16 17L14 17L14 19L15 19L15 18L16 18L16 20L15 20L15 21L13 21L13 20L9 20L9 19L13 19L13 16L10 16L10 14L8 14L8 15L7 15L7 14L6 14L6 13L7 13L7 12L5 12L5 14L6 14L6 15L7 15L7 16L4 16L4 13L3 13L3 12L4 12L4 10L5 10L5 9L7 9L7 8L5 8L5 9L4 9L4 10L3 10L3 8ZM17 9L17 11L15 11L15 12L17 12L17 13L16 13L16 14L18 14L18 11L19 11L19 12L20 12L20 11L19 11L19 9ZM6 10L6 11L7 11L7 10ZM2 11L2 12L3 12L3 11ZM24 12L24 13L25 13L25 12ZM21 14L21 15L23 15L23 17L24 17L24 15L25 15L25 14L24 14L24 15L23 15L23 14ZM16 15L16 16L17 16L17 15ZM18 15L18 16L19 16L19 15ZM9 17L9 18L11 18L11 17ZM17 17L17 20L20 20L20 17ZM18 18L18 19L19 19L19 18ZM22 18L22 19L23 19L23 20L24 20L24 19L25 19L25 18L24 18L24 19L23 19L23 18ZM16 21L16 22L17 22L17 21ZM18 21L18 23L19 23L19 21ZM23 21L23 22L22 22L22 23L25 23L25 22L24 22L24 21ZM24 24L24 25L25 25L25 24ZM0 0L0 7L7 7L7 0ZM1 1L1 6L6 6L6 1ZM2 2L2 5L5 5L5 2ZM18 0L18 7L25 7L25 0ZM19 1L19 6L24 6L24 1ZM20 2L20 5L23 5L23 2ZM0 18L0 25L7 25L7 18ZM1 19L1 24L6 24L6 19ZM2 20L2 23L5 23L5 20Z" fill="#000000"/></g></g></svg>
