<?xml version="1.0" encoding="UTF-8"?>
<svg xmlns="http://www.w3.org/2000/svg" version="1.1" width="300" height="300" viewBox="0 0 300 300"><rect x="0" y="0" width="300" height="300" fill="#ffffff"/><g transform="scale(10.345)"><g transform="translate(0,0)"><path fill-rule="evenodd" d="M8 0L8 2L10 2L10 4L8 4L8 10L5 10L5 9L7 9L7 8L5 8L5 9L3 9L3 8L0 8L0 10L4 10L4 11L2 11L2 12L4 12L4 11L5 11L5 12L6 12L6 13L4 13L4 14L5 14L5 16L4 16L4 15L2 15L2 16L3 16L3 17L1 17L1 14L0 14L0 17L1 17L1 18L0 18L0 19L2 19L2 20L0 20L0 21L4 21L4 20L5 20L5 21L8 21L8 22L9 22L9 23L8 23L8 24L10 24L10 26L8 26L8 29L9 29L9 27L10 27L10 28L11 28L11 29L14 29L14 27L13 27L13 28L11 28L11 27L12 27L12 26L11 26L11 24L13 24L13 26L15 26L15 27L16 27L16 28L15 28L15 29L17 29L17 27L18 27L18 28L20 28L20 29L22 29L22 28L21 28L21 26L22 26L22 25L25 25L25 23L27 23L27 22L26 22L26 21L25 21L25 19L27 19L27 21L28 21L28 19L29 19L29 18L28 18L28 19L27 19L27 18L26 18L26 17L25 17L25 19L24 19L24 16L23 16L23 15L22 15L22 14L24 14L24 15L25 15L25 14L24 14L24 12L25 12L25 11L28 11L28 12L27 12L27 14L26 14L26 15L29 15L29 13L28 13L28 12L29 12L29 8L27 8L27 9L28 9L28 10L24 10L24 9L25 9L25 8L20 8L20 7L21 7L21 5L20 5L20 7L19 7L19 6L18 6L18 7L19 7L19 8L18 8L18 9L19 9L19 10L17 10L17 11L20 11L20 10L21 10L21 9L22 9L22 11L21 11L21 12L20 12L20 13L19 13L19 14L18 14L18 16L19 16L19 15L22 15L22 16L20 16L20 17L19 17L19 18L18 18L18 17L16 17L16 15L17 15L17 12L16 12L16 13L15 13L15 14L13 14L13 13L14 13L14 11L13 11L13 12L11 12L11 13L12 13L12 15L10 15L10 11L9 11L9 10L11 10L11 11L12 11L12 10L11 10L11 8L13 8L13 10L15 10L15 11L16 11L16 10L15 10L15 8L16 8L16 9L17 9L17 6L16 6L16 4L15 4L15 3L17 3L17 4L18 4L18 5L19 5L19 3L20 3L20 2L21 2L21 1L20 1L20 2L19 2L19 3L18 3L18 0L15 0L15 1L13 1L13 0L11 0L11 1L9 1L9 0ZM11 1L11 2L12 2L12 1ZM15 1L15 2L16 2L16 1ZM13 2L13 3L11 3L11 4L12 4L12 6L11 6L11 5L9 5L9 8L10 8L10 6L11 6L11 7L12 7L12 6L13 6L13 8L14 8L14 6L15 6L15 7L16 7L16 6L15 6L15 5L13 5L13 4L14 4L14 2ZM19 8L19 9L20 9L20 8ZM23 10L23 11L22 11L22 12L23 12L23 11L24 11L24 10ZM6 11L6 12L7 12L7 13L6 13L6 14L8 14L8 15L9 15L9 16L7 16L7 15L6 15L6 16L7 16L7 17L3 17L3 20L4 20L4 18L5 18L5 20L8 20L8 21L9 21L9 22L10 22L10 21L11 21L11 23L12 23L12 21L11 21L11 20L13 20L13 19L14 19L14 21L13 21L13 22L15 22L15 20L17 20L17 22L19 22L19 23L20 23L20 22L19 22L19 19L17 19L17 18L16 18L16 19L15 19L15 18L13 18L13 16L14 16L14 15L13 15L13 16L11 16L11 17L9 17L9 16L10 16L10 15L9 15L9 14L8 14L8 13L9 13L9 11ZM2 13L2 14L3 14L3 13ZM28 16L28 17L29 17L29 16ZM7 17L7 18L6 18L6 19L7 19L7 18L8 18L8 20L9 20L9 21L10 21L10 20L11 20L11 19L12 19L12 18L11 18L11 19L10 19L10 20L9 20L9 18L8 18L8 17ZM21 17L21 18L20 18L20 20L23 20L23 19L21 19L21 18L22 18L22 17ZM21 21L21 24L24 24L24 21ZM22 22L22 23L23 23L23 22ZM28 22L28 24L27 24L27 25L26 25L26 27L29 27L29 22ZM13 23L13 24L14 24L14 23ZM15 23L15 25L16 25L16 24L17 24L17 26L18 26L18 27L20 27L20 26L21 26L21 25L20 25L20 26L18 26L18 25L19 25L19 24L18 24L18 23ZM27 25L27 26L28 26L28 25ZM24 26L24 28L23 28L23 29L24 29L24 28L25 28L25 29L27 29L27 28L25 28L25 26ZM28 28L28 29L29 29L29 28ZM0 0L0 7L7 7L7 0ZM1 1L1 6L6 6L6 1ZM2 2L2 5L5 5L5 2ZM22 0L22 7L29 7L29 0ZM23 1L23 6L28 6L28 1ZM24 2L24 5L27 5L27 2ZM0 22L0 29L7 29L7 22ZM1 23L1 28L6 28L6 23ZM2 24L2 27L5 27L5 24Z" fill="#000000"/></g></g></svg>
