<?xml version="1.0" encoding="UTF-8"?>
<svg xmlns="http://www.w3.org/2000/svg" version="1.1" width="300" height="300" viewBox="0 0 300 300"><rect x="0" y="0" width="300" height="300" fill="#ffffff"/><g transform="scale(12)"><g transform="translate(0,0)"><path fill-rule="evenodd" d="M9 0L9 1L11 1L11 2L9 2L9 3L8 3L8 5L9 5L9 6L8 6L8 7L9 7L9 9L8 9L8 8L5 8L5 9L4 9L4 10L3 10L3 11L2 11L2 12L1 12L1 11L0 11L0 17L1 17L1 14L2 14L2 16L3 16L3 17L8 17L8 20L9 20L9 18L10 18L10 16L11 16L11 15L10 15L10 14L12 14L12 13L13 13L13 12L12 12L12 13L11 13L11 11L10 11L10 10L12 10L12 11L13 11L13 10L12 10L12 9L14 9L14 10L15 10L15 11L14 11L14 12L15 12L15 13L14 13L14 14L13 14L13 15L12 15L12 17L11 17L11 19L10 19L10 22L9 22L9 23L8 23L8 25L9 25L9 23L10 23L10 24L11 24L11 25L13 25L13 23L14 23L14 24L15 24L15 22L20 22L20 21L21 21L21 15L22 15L22 17L23 17L23 16L25 16L25 10L24 10L24 9L23 9L23 10L21 10L21 9L22 9L22 8L20 8L20 9L18 9L18 10L17 10L17 11L18 11L18 10L20 10L20 12L18 12L18 13L22 13L22 12L21 12L21 11L23 11L23 10L24 10L24 14L23 14L23 15L22 15L22 14L18 14L18 15L16 15L16 13L17 13L17 12L15 12L15 11L16 11L16 8L17 8L17 3L16 3L16 2L17 2L17 1L16 1L16 2L15 2L15 1L14 1L14 0L13 0L13 1L12 1L12 0ZM13 1L13 2L12 2L12 3L14 3L14 4L13 4L13 5L12 5L12 4L11 4L11 7L10 7L10 6L9 6L9 7L10 7L10 8L12 8L12 6L13 6L13 8L15 8L15 7L16 7L16 3L14 3L14 1ZM9 3L9 5L10 5L10 3ZM14 4L14 5L13 5L13 6L14 6L14 7L15 7L15 6L14 6L14 5L15 5L15 4ZM0 8L0 9L2 9L2 8ZM6 9L6 10L4 10L4 12L5 12L5 13L4 13L4 14L3 14L3 13L2 13L2 14L3 14L3 16L7 16L7 15L6 15L6 14L7 14L7 13L8 13L8 11L9 11L9 12L10 12L10 11L9 11L9 10L10 10L10 9L9 9L9 10L7 10L7 9ZM6 10L6 11L7 11L7 10ZM6 12L6 13L5 13L5 14L4 14L4 15L5 15L5 14L6 14L6 13L7 13L7 12ZM9 13L9 14L10 14L10 13ZM8 15L8 17L9 17L9 15ZM13 15L13 16L14 16L14 17L12 17L12 20L11 20L11 21L12 21L12 22L10 22L10 23L11 23L11 24L12 24L12 23L13 23L13 22L14 22L14 21L13 21L13 20L16 20L16 18L15 18L15 17L16 17L16 16L14 16L14 15ZM19 15L19 16L20 16L20 15ZM17 17L17 20L20 20L20 17ZM24 17L24 20L22 20L22 23L23 23L23 22L24 22L24 25L25 25L25 21L24 21L24 20L25 20L25 17ZM13 18L13 19L15 19L15 18ZM18 18L18 19L19 19L19 18ZM22 18L22 19L23 19L23 18ZM16 23L16 25L17 25L17 24L18 24L18 25L20 25L20 24L18 24L18 23ZM0 0L0 7L7 7L7 0ZM1 1L1 6L6 6L6 1ZM2 2L2 5L5 5L5 2ZM18 0L18 7L25 7L25 0ZM19 1L19 6L24 6L24 1ZM20 2L20 5L23 5L23 2ZM0 18L0 25L7 25L7 18ZM1 19L1 24L6 24L6 19ZM2 20L2 23L5 23L5 20Z" fill="#000000"/></g></g></svg>
