<?xml version="1.0" encoding="UTF-8"?>
<svg xmlns="http://www.w3.org/2000/svg" version="1.1" width="300" height="300" viewBox="0 0 300 300"><rect x="0" y="0" width="300" height="300" fill="#ffffff"/><g transform="scale(12)"><g transform="translate(0,0)"><path fill-rule="evenodd" d="M8 0L8 2L9 2L9 3L10 3L10 4L8 4L8 9L7 9L7 8L5 8L5 10L4 10L4 12L3 12L3 8L0 8L0 10L1 10L1 9L2 9L2 11L1 11L1 12L0 12L0 13L2 13L2 14L0 14L0 15L3 15L3 16L0 16L0 17L4 17L4 15L8 15L8 18L9 18L9 19L8 19L8 20L9 20L9 22L8 22L8 25L9 25L9 24L10 24L10 25L14 25L14 24L10 24L10 21L11 21L11 20L12 20L12 22L11 22L11 23L12 23L12 22L13 22L13 23L15 23L15 22L16 22L16 25L17 25L17 24L18 24L18 25L19 25L19 23L21 23L21 22L22 22L22 23L25 23L25 20L23 20L23 21L24 21L24 22L22 22L22 21L21 21L21 16L20 16L20 14L19 14L19 13L22 13L22 12L21 12L21 11L22 11L22 10L23 10L23 11L25 11L25 8L23 8L23 9L22 9L22 10L21 10L21 11L20 11L20 9L21 9L21 8L16 8L16 7L17 7L17 6L16 6L16 7L15 7L15 5L16 5L16 4L15 4L15 3L17 3L17 1L16 1L16 0L13 0L13 2L12 2L12 3L14 3L14 4L13 4L13 5L12 5L12 4L11 4L11 2L9 2L9 0ZM10 0L10 1L12 1L12 0ZM15 1L15 2L14 2L14 3L15 3L15 2L16 2L16 1ZM14 4L14 5L13 5L13 7L12 7L12 5L9 5L9 8L10 8L10 10L7 10L7 9L6 9L6 10L5 10L5 12L4 12L4 14L3 14L3 15L4 15L4 14L5 14L5 12L7 12L7 13L6 13L6 14L7 14L7 13L8 13L8 15L9 15L9 16L12 16L12 15L10 15L10 14L12 14L12 13L13 13L13 14L15 14L15 13L14 13L14 12L17 12L17 13L16 13L16 14L18 14L18 11L19 11L19 12L20 12L20 11L19 11L19 9L17 9L17 11L15 11L15 10L16 10L16 9L15 9L15 8L14 8L14 5L15 5L15 4ZM10 6L10 8L11 8L11 9L12 9L12 10L11 10L11 12L9 12L9 14L10 14L10 13L12 13L12 11L14 11L14 8L11 8L11 6ZM6 10L6 11L7 11L7 12L8 12L8 11L7 11L7 10ZM2 12L2 13L3 13L3 12ZM24 12L24 13L25 13L25 12ZM21 14L21 15L23 15L23 17L24 17L24 15L25 15L25 14L24 14L24 15L23 15L23 14ZM13 15L13 16L14 16L14 17L13 17L13 20L14 20L14 22L15 22L15 20L16 20L16 18L15 18L15 17L16 17L16 16L17 16L17 15L16 15L16 16L15 16L15 15ZM18 15L18 16L19 16L19 15ZM5 16L5 17L7 17L7 16ZM11 17L11 18L10 18L10 20L11 20L11 18L12 18L12 17ZM17 17L17 20L20 20L20 17ZM14 18L14 20L15 20L15 18ZM18 18L18 19L19 19L19 18ZM22 18L22 19L23 19L23 18ZM24 18L24 19L25 19L25 18ZM16 21L16 22L17 22L17 21ZM18 21L18 23L19 23L19 21ZM20 24L20 25L21 25L21 24ZM24 24L24 25L25 25L25 24ZM0 0L0 7L7 7L7 0ZM1 1L1 6L6 6L6 1ZM2 2L2 5L5 5L5 2ZM18 0L18 7L25 7L25 0ZM19 1L19 6L24 6L24 1ZM20 2L20 5L23 5L23 2ZM0 18L0 25L7 25L7 18ZM1 19L1 24L6 24L6 19ZM2 20L2 23L5 23L5 20Z" fill="#000000"/></g></g></svg>
