<?xml version="1.0" encoding="UTF-8"?>
<svg xmlns="http://www.w3.org/2000/svg" version="1.1" width="300" height="300" viewBox="0 0 300 300"><rect x="0" y="0" width="300" height="300" fill="#ffffff"/><g transform="scale(12)"><g transform="translate(0,0)"><path fill-rule="evenodd" d="M8 0L8 4L10 4L10 3L11 3L11 4L12 4L12 2L11 2L11 1L10 1L10 0ZM12 0L12 1L14 1L14 2L15 2L15 3L14 3L14 4L13 4L13 5L12 5L12 7L11 7L11 6L10 6L10 7L9 7L9 5L8 5L8 7L9 7L9 8L10 8L10 7L11 7L11 9L7 9L7 8L4 8L4 10L1 10L1 11L2 11L2 12L1 12L1 13L0 13L0 14L1 14L1 13L2 13L2 12L3 12L3 13L4 13L4 14L5 14L5 15L2 15L2 16L0 16L0 17L2 17L2 16L3 16L3 17L8 17L8 18L9 18L9 19L8 19L8 21L10 21L10 22L9 22L9 23L8 23L8 25L10 25L10 24L12 24L12 25L13 25L13 24L12 24L12 22L11 22L11 21L10 21L10 20L9 20L9 19L11 19L11 20L12 20L12 21L13 21L13 22L16 22L16 23L14 23L14 25L16 25L16 23L18 23L18 24L17 24L17 25L19 25L19 21L23 21L23 23L22 23L22 22L21 22L21 23L20 23L20 25L25 25L25 24L24 24L24 22L25 22L25 21L24 21L24 20L23 20L23 18L22 18L22 19L21 19L21 17L23 17L23 14L21 14L21 12L22 12L22 13L24 13L24 14L25 14L25 12L24 12L24 9L25 9L25 8L21 8L21 9L20 9L20 8L19 8L19 9L18 9L18 11L17 11L17 2L15 2L15 1L14 1L14 0ZM16 0L16 1L17 1L17 0ZM9 2L9 3L10 3L10 2ZM15 3L15 8L14 8L14 6L13 6L13 8L14 8L14 9L15 9L15 10L16 10L16 3ZM0 8L0 9L2 9L2 8ZM5 9L5 10L4 10L4 13L5 13L5 10L7 10L7 11L6 11L6 12L7 12L7 13L6 13L6 14L8 14L8 15L5 15L5 16L10 16L10 17L9 17L9 18L13 18L13 19L12 19L12 20L14 20L14 21L16 21L16 22L17 22L17 21L16 21L16 20L15 20L15 19L16 19L16 18L14 18L14 17L15 17L15 16L16 16L16 15L14 15L14 14L13 14L13 12L14 12L14 13L16 13L16 14L18 14L18 15L17 15L17 16L19 16L19 13L17 13L17 12L15 12L15 11L14 11L14 10L13 10L13 9L11 9L11 10L7 10L7 9ZM19 9L19 12L20 12L20 9ZM21 9L21 10L22 10L22 11L23 11L23 10L22 10L22 9ZM11 10L11 11L10 11L10 13L9 13L9 14L10 14L10 16L11 16L11 17L14 17L14 16L11 16L11 15L13 15L13 14L10 14L10 13L11 13L11 12L13 12L13 10ZM7 11L7 12L9 12L9 11ZM20 15L20 16L21 16L21 15ZM17 17L17 20L20 20L20 17ZM24 17L24 18L25 18L25 17ZM18 18L18 19L19 19L19 18ZM9 23L9 24L10 24L10 23ZM0 0L0 7L7 7L7 0ZM1 1L1 6L6 6L6 1ZM2 2L2 5L5 5L5 2ZM18 0L18 7L25 7L25 0ZM19 1L19 6L24 6L24 1ZM20 2L20 5L23 5L23 2ZM0 18L0 25L7 25L7 18ZM1 19L1 24L6 24L6 19ZM2 20L2 23L5 23L5 20Z" fill="#000000"/></g></g></svg>
