<?xml version="1.0" encoding="UTF-8"?>
<svg xmlns="http://www.w3.org/2000/svg" version="1.1" width="300" height="300" viewBox="0 0 300 300"><rect x="0" y="0" width="300" height="300" fill="#ffffff"/><g transform="scale(12)"><g transform="translate(0,0)"><path fill-rule="evenodd" d="M12 0L12 2L11 2L11 1L10 1L10 2L11 2L11 3L8 3L8 4L9 4L9 5L8 5L8 7L9 7L9 8L6 8L6 9L8 9L8 12L5 12L5 11L7 11L7 10L5 10L5 8L0 8L0 11L1 11L1 12L0 12L0 17L1 17L1 14L2 14L2 15L4 15L4 16L3 16L3 17L4 17L4 16L5 16L5 15L7 15L7 14L5 14L5 15L4 15L4 14L2 14L2 13L8 13L8 12L9 12L9 13L11 13L11 14L8 14L8 16L6 16L6 17L8 17L8 19L11 19L11 18L12 18L12 17L11 17L11 16L12 16L12 15L13 15L13 14L14 14L14 13L16 13L16 10L17 10L17 11L18 11L18 10L20 10L20 12L21 12L21 14L18 14L18 15L17 15L17 16L16 16L16 19L15 19L15 20L13 20L13 19L12 19L12 21L11 21L11 20L8 20L8 25L9 25L9 23L10 23L10 25L15 25L15 24L17 24L17 25L20 25L20 24L18 24L18 23L15 23L15 24L13 24L13 23L14 23L14 22L12 22L12 21L17 21L17 22L21 22L21 24L22 24L22 25L25 25L25 21L24 21L24 20L25 20L25 17L24 17L24 18L23 18L23 20L22 20L22 19L21 19L21 18L22 18L22 17L23 17L23 16L25 16L25 10L24 10L24 8L23 8L23 9L22 9L22 8L21 8L21 10L20 10L20 8L19 8L19 9L18 9L18 8L17 8L17 9L16 9L16 10L15 10L15 6L16 6L16 7L17 7L17 6L16 6L16 5L17 5L17 4L16 4L16 2L17 2L17 0L16 0L16 1L15 1L15 0ZM8 1L8 2L9 2L9 1ZM13 1L13 3L11 3L11 4L10 4L10 6L9 6L9 7L10 7L10 6L11 6L11 8L10 8L10 9L9 9L9 12L11 12L11 13L12 13L12 14L11 14L11 15L12 15L12 14L13 14L13 12L14 12L14 11L15 11L15 10L14 10L14 9L12 9L12 6L13 6L13 8L14 8L14 5L16 5L16 4L13 4L13 3L14 3L14 2L15 2L15 1ZM11 4L11 5L12 5L12 4ZM10 9L10 11L11 11L11 12L13 12L13 11L14 11L14 10L13 10L13 11L11 11L11 10L12 10L12 9ZM17 9L17 10L18 10L18 9ZM1 10L1 11L2 11L2 12L4 12L4 11L3 11L3 10ZM23 10L23 11L22 11L22 12L24 12L24 10ZM17 12L17 13L19 13L19 12ZM22 13L22 16L21 16L21 15L19 15L19 16L21 16L21 17L22 17L22 16L23 16L23 14L24 14L24 13ZM15 14L15 15L16 15L16 14ZM8 16L8 17L9 17L9 18L10 18L10 17L9 17L9 16ZM13 16L13 17L14 17L14 16ZM17 17L17 20L20 20L20 17ZM18 18L18 19L19 19L19 18ZM21 20L21 21L22 21L22 24L24 24L24 22L23 22L23 21L22 21L22 20ZM9 21L9 22L11 22L11 24L12 24L12 22L11 22L11 21ZM0 0L0 7L7 7L7 0ZM1 1L1 6L6 6L6 1ZM2 2L2 5L5 5L5 2ZM18 0L18 7L25 7L25 0ZM19 1L19 6L24 6L24 1ZM20 2L20 5L23 5L23 2ZM0 18L0 25L7 25L7 18ZM1 19L1 24L6 24L6 19ZM2 20L2 23L5 23L5 20Z" fill="#000000"/></g></g></svg>
