<?xml version="1.0" encoding="UTF-8"?>
<svg xmlns="http://www.w3.org/2000/svg" version="1.1" width="300" height="300" viewBox="0 0 300 300"><rect x="0" y="0" width="300" height="300" fill="#ffffff"/><g transform="scale(12)"><g transform="translate(0,0)"><path fill-rule="evenodd" d="M12 0L12 1L13 1L13 2L15 2L15 3L12 3L12 4L11 4L11 3L8 3L8 4L9 4L9 5L8 5L8 7L9 7L9 8L6 8L6 9L5 9L5 8L0 8L0 11L1 11L1 13L0 13L0 17L1 17L1 13L2 13L2 14L4 14L4 15L3 15L3 16L2 16L2 17L3 17L3 16L4 16L4 15L5 15L5 17L8 17L8 19L9 19L9 20L8 20L8 25L9 25L9 24L12 24L12 25L15 25L15 24L17 24L17 25L19 25L19 24L20 24L20 23L19 23L19 24L18 24L18 23L15 23L15 24L12 24L12 23L10 23L10 22L12 22L12 21L14 21L14 20L13 20L13 18L14 18L14 17L15 17L15 15L16 15L16 14L15 14L15 13L16 13L16 10L17 10L17 11L18 11L18 10L20 10L20 12L21 12L21 14L18 14L18 15L17 15L17 16L16 16L16 19L15 19L15 21L17 21L17 22L21 22L21 24L22 24L22 25L25 25L25 21L24 21L24 20L25 20L25 17L24 17L24 18L23 18L23 20L22 20L22 19L21 19L21 18L22 18L22 17L23 17L23 16L25 16L25 10L24 10L24 8L23 8L23 9L22 9L22 8L21 8L21 10L20 10L20 8L19 8L19 9L18 9L18 8L12 8L12 7L13 7L13 6L12 6L12 7L11 7L11 6L10 6L10 4L11 4L11 5L12 5L12 4L14 4L14 7L15 7L15 6L16 6L16 7L17 7L17 4L16 4L16 2L17 2L17 0L16 0L16 1L14 1L14 0ZM8 1L8 2L9 2L9 1ZM10 1L10 2L11 2L11 1ZM15 4L15 5L16 5L16 4ZM9 6L9 7L10 7L10 6ZM10 8L10 9L8 9L8 10L9 10L9 12L8 12L8 11L6 11L6 10L7 10L7 9L6 9L6 10L4 10L4 11L3 11L3 12L2 12L2 13L3 13L3 12L4 12L4 13L6 13L6 14L7 14L7 15L6 15L6 16L7 16L7 15L8 15L8 16L9 16L9 18L10 18L10 15L11 15L11 17L12 17L12 18L11 18L11 19L10 19L10 20L12 20L12 18L13 18L13 17L12 17L12 15L13 15L13 16L14 16L14 15L15 15L15 14L14 14L14 13L12 13L12 12L14 12L14 11L12 11L12 10L13 10L13 9L12 9L12 8ZM10 9L10 11L11 11L11 10L12 10L12 9ZM14 9L14 10L16 10L16 9ZM17 9L17 10L18 10L18 9ZM1 10L1 11L2 11L2 10ZM23 10L23 11L22 11L22 12L24 12L24 10ZM6 12L6 13L7 13L7 14L8 14L8 15L9 15L9 13L11 13L11 14L12 14L12 13L11 13L11 12L9 12L9 13L7 13L7 12ZM17 12L17 13L19 13L19 12ZM22 13L22 16L21 16L21 15L19 15L19 16L21 16L21 17L22 17L22 16L23 16L23 14L24 14L24 13ZM13 14L13 15L14 15L14 14ZM17 17L17 20L20 20L20 17ZM18 18L18 19L19 19L19 18ZM21 20L21 22L23 22L23 23L22 23L22 24L24 24L24 22L23 22L23 21L22 21L22 20ZM9 21L9 22L10 22L10 21ZM0 0L0 7L7 7L7 0ZM1 1L1 6L6 6L6 1ZM2 2L2 5L5 5L5 2ZM18 0L18 7L25 7L25 0ZM19 1L19 6L24 6L24 1ZM20 2L20 5L23 5L23 2ZM0 18L0 25L7 25L7 18ZM1 19L1 24L6 24L6 19ZM2 20L2 23L5 23L5 20Z" fill="#000000"/></g></g></svg>
