<?xml version="1.0" encoding="UTF-8"?>
<svg xmlns="http://www.w3.org/2000/svg" version="1.1" width="300" height="300" viewBox="0 0 300 300"><rect x="0" y="0" width="300" height="300" fill="#ffffff"/><g transform="scale(10.345)"><g transform="translate(0,0)"><path fill-rule="evenodd" d="M9 0L9 1L10 1L10 2L8 2L8 3L9 3L9 4L10 4L10 5L9 5L9 6L8 6L8 8L4 8L4 9L3 9L3 8L0 8L0 9L3 9L3 10L4 10L4 9L8 9L8 10L9 10L9 11L7 11L7 10L5 10L5 11L7 11L7 12L5 12L5 14L6 14L6 15L7 15L7 16L6 16L6 17L9 17L9 16L8 16L8 15L7 15L7 14L10 14L10 13L9 13L9 11L10 11L10 10L12 10L12 8L14 8L14 10L13 10L13 11L14 11L14 10L16 10L16 9L17 9L17 10L18 10L18 11L17 11L17 12L16 12L16 11L15 11L15 14L14 14L14 13L13 13L13 12L12 12L12 11L11 11L11 12L12 12L12 13L11 13L11 15L12 15L12 16L10 16L10 19L11 19L11 20L10 20L10 21L11 21L11 23L10 23L10 22L9 22L9 21L8 21L8 20L9 20L9 19L8 19L8 18L6 18L6 19L8 19L8 20L5 20L5 19L4 19L4 18L3 18L3 19L1 19L1 18L2 18L2 17L3 17L3 16L5 16L5 15L4 15L4 14L3 14L3 16L0 16L0 17L1 17L1 18L0 18L0 19L1 19L1 20L0 20L0 21L1 21L1 20L3 20L3 21L4 21L4 20L5 20L5 21L8 21L8 25L9 25L9 26L8 26L8 29L9 29L9 28L10 28L10 29L11 29L11 28L12 28L12 29L13 29L13 28L12 28L12 27L11 27L11 26L12 26L12 24L14 24L14 26L13 26L13 27L14 27L14 26L16 26L16 27L15 27L15 28L16 28L16 29L17 29L17 28L19 28L19 29L23 29L23 28L26 28L26 29L29 29L29 28L28 28L28 27L29 27L29 22L28 22L28 21L27 21L27 24L28 24L28 25L27 25L27 26L28 26L28 27L27 27L27 28L26 28L26 22L25 22L25 21L26 21L26 19L29 19L29 18L28 18L28 17L29 17L29 16L28 16L28 15L29 15L29 13L28 13L28 15L27 15L27 14L26 14L26 11L27 11L27 12L29 12L29 9L27 9L27 8L26 8L26 9L25 9L25 10L23 10L23 8L21 8L21 5L19 5L19 4L20 4L20 3L21 3L21 1L17 1L17 0L16 0L16 1L14 1L14 0L12 0L12 1L10 1L10 0ZM13 1L13 2L14 2L14 1ZM11 2L11 3L12 3L12 4L11 4L11 5L10 5L10 6L9 6L9 7L10 7L10 6L11 6L11 8L12 8L12 6L13 6L13 7L14 7L14 6L15 6L15 8L16 8L16 6L17 6L17 7L18 7L18 6L19 6L19 7L20 7L20 6L19 6L19 5L18 5L18 6L17 6L17 3L18 3L18 2L17 2L17 3L16 3L16 2L15 2L15 3L16 3L16 4L15 4L15 5L14 5L14 4L13 4L13 3L12 3L12 2ZM19 2L19 3L20 3L20 2ZM13 5L13 6L14 6L14 5ZM9 8L9 10L10 10L10 8ZM18 9L18 10L19 10L19 11L18 11L18 12L17 12L17 13L18 13L18 14L19 14L19 15L20 15L20 16L21 16L21 17L22 17L22 16L21 16L21 15L23 15L23 14L25 14L25 12L24 12L24 11L21 11L21 10L19 10L19 9ZM26 9L26 10L25 10L25 11L26 11L26 10L27 10L27 11L28 11L28 10L27 10L27 9ZM0 10L0 14L2 14L2 13L1 13L1 12L3 12L3 13L4 13L4 12L3 12L3 11L2 11L2 10ZM19 11L19 12L21 12L21 11ZM7 12L7 13L6 13L6 14L7 14L7 13L8 13L8 12ZM22 12L22 14L23 14L23 12ZM19 13L19 14L20 14L20 15L21 15L21 13ZM13 14L13 15L14 15L14 14ZM15 14L15 17L17 17L17 18L14 18L14 16L12 16L12 18L11 18L11 19L12 19L12 20L11 20L11 21L12 21L12 20L13 20L13 21L14 21L14 22L13 22L13 23L14 23L14 22L15 22L15 23L16 23L16 24L17 24L17 25L19 25L19 26L17 26L17 27L20 27L20 28L22 28L22 26L23 26L23 25L20 25L20 22L19 22L19 21L20 21L20 20L19 20L19 19L20 19L20 18L19 18L19 16L17 16L17 15L16 15L16 14ZM24 15L24 16L23 16L23 19L22 19L22 18L21 18L21 19L22 19L22 20L24 20L24 19L26 19L26 18L25 18L25 15ZM26 15L26 17L27 17L27 15ZM13 18L13 19L14 19L14 18ZM18 18L18 19L17 19L17 20L16 20L16 19L15 19L15 20L16 20L16 21L15 21L15 22L16 22L16 23L17 23L17 24L19 24L19 23L18 23L18 22L17 22L17 20L18 20L18 19L19 19L19 18ZM3 19L3 20L4 20L4 19ZM21 21L21 24L24 24L24 21ZM22 22L22 23L23 23L23 22ZM9 23L9 25L10 25L10 26L9 26L9 27L10 27L10 26L11 26L11 24L12 24L12 23L11 23L11 24L10 24L10 23ZM24 25L24 26L25 26L25 25ZM20 26L20 27L21 27L21 26ZM0 0L0 7L7 7L7 0ZM1 1L1 6L6 6L6 1ZM2 2L2 5L5 5L5 2ZM22 0L22 7L29 7L29 0ZM23 1L23 6L28 6L28 1ZM24 2L24 5L27 5L27 2ZM0 22L0 29L7 29L7 22ZM1 23L1 28L6 28L6 23ZM2 24L2 27L5 27L5 24Z" fill="#000000"/></g></g></svg>
