<?xml version="1.0" encoding="UTF-8"?>
<svg xmlns="http://www.w3.org/2000/svg" version="1.1" width="300" height="300" viewBox="0 0 300 300"><rect x="0" y="0" width="300" height="300" fill="#ffffff"/><g transform="scale(12)"><g transform="translate(0,0)"><path fill-rule="evenodd" d="M8 0L8 2L9 2L9 3L10 3L10 2L11 2L11 4L10 4L10 5L9 5L9 4L8 4L8 10L6 10L6 9L7 9L7 8L5 8L5 9L4 9L4 10L3 10L3 8L0 8L0 10L1 10L1 11L0 11L0 13L1 13L1 14L0 14L0 15L2 15L2 13L3 13L3 12L5 12L5 11L4 11L4 10L6 10L6 11L8 11L8 12L6 12L6 13L8 13L8 14L6 14L6 15L7 15L7 16L5 16L5 15L4 15L4 14L3 14L3 16L0 16L0 17L4 17L4 16L5 16L5 17L7 17L7 16L9 16L9 17L8 17L8 18L9 18L9 19L8 19L8 20L9 20L9 21L10 21L10 22L8 22L8 25L9 25L9 24L10 24L10 25L13 25L13 24L11 24L11 23L14 23L14 22L15 22L15 24L14 24L14 25L17 25L17 24L18 24L18 25L21 25L21 23L25 23L25 22L24 22L24 21L23 21L23 22L22 22L22 21L21 21L21 15L23 15L23 17L24 17L24 15L25 15L25 14L24 14L24 15L23 15L23 14L21 14L21 15L20 15L20 13L22 13L22 12L21 12L21 11L22 11L22 10L23 10L23 11L25 11L25 8L23 8L23 9L22 9L22 10L21 10L21 11L20 11L20 9L21 9L21 8L15 8L15 6L14 6L14 5L15 5L15 3L14 3L14 2L13 2L13 4L14 4L14 5L12 5L12 7L13 7L13 6L14 6L14 8L15 8L15 9L14 9L14 12L15 12L15 14L14 14L14 13L13 13L13 12L12 12L12 11L13 11L13 8L11 8L11 10L9 10L9 9L10 9L10 7L11 7L11 4L12 4L12 2L11 2L11 0ZM14 0L14 1L15 1L15 0ZM9 1L9 2L10 2L10 1ZM16 2L16 4L17 4L17 2ZM16 5L16 7L17 7L17 5ZM9 6L9 7L10 7L10 6ZM1 9L1 10L2 10L2 9ZM17 9L17 10L18 10L18 9ZM8 10L8 11L9 11L9 12L10 12L10 11L9 11L9 10ZM15 11L15 12L16 12L16 13L17 13L17 15L13 15L13 14L12 14L12 15L11 15L11 14L10 14L10 13L9 13L9 14L8 14L8 15L9 15L9 16L10 16L10 17L9 17L9 18L10 18L10 17L11 17L11 16L12 16L12 17L14 17L14 18L15 18L15 20L14 20L14 19L12 19L12 20L10 20L10 19L9 19L9 20L10 20L10 21L12 21L12 20L13 20L13 22L14 22L14 21L15 21L15 22L16 22L16 23L17 23L17 22L16 22L16 21L15 21L15 20L16 20L16 17L15 17L15 16L17 16L17 15L18 15L18 16L20 16L20 15L19 15L19 14L18 14L18 12L19 12L19 11L18 11L18 12L17 12L17 11ZM1 12L1 13L2 13L2 12ZM11 12L11 13L12 13L12 12ZM24 12L24 13L25 13L25 12ZM10 15L10 16L11 16L11 15ZM12 15L12 16L13 16L13 15ZM17 17L17 20L20 20L20 17ZM18 18L18 19L19 19L19 18ZM22 18L22 19L23 19L23 18ZM24 18L24 20L25 20L25 18ZM18 21L18 24L20 24L20 23L19 23L19 22L21 22L21 21ZM10 22L10 23L11 23L11 22ZM24 24L24 25L25 25L25 24ZM0 0L0 7L7 7L7 0ZM1 1L1 6L6 6L6 1ZM2 2L2 5L5 5L5 2ZM18 0L18 7L25 7L25 0ZM19 1L19 6L24 6L24 1ZM20 2L20 5L23 5L23 2ZM0 18L0 25L7 25L7 18ZM1 19L1 24L6 24L6 19ZM2 20L2 23L5 23L5 20Z" fill="#000000"/></g></g></svg>
