<?xml version="1.0" encoding="UTF-8"?>
<svg xmlns="http://www.w3.org/2000/svg" version="1.1" width="300" height="300" viewBox="0 0 300 300"><rect x="0" y="0" width="300" height="300" fill="#ffffff"/><g transform="scale(12)"><g transform="translate(0,0)"><path fill-rule="evenodd" d="M8 0L8 1L9 1L9 0ZM11 0L11 1L10 1L10 3L9 3L9 2L8 2L8 5L9 5L9 6L8 6L8 7L9 7L9 8L8 8L8 10L5 10L5 11L7 11L7 12L3 12L3 11L4 11L4 10L3 10L3 9L4 9L4 8L0 8L0 10L1 10L1 13L2 13L2 14L1 14L1 15L0 15L0 16L1 16L1 15L2 15L2 17L5 17L5 15L8 15L8 16L6 16L6 17L8 17L8 18L9 18L9 20L10 20L10 21L8 21L8 25L9 25L9 23L10 23L10 24L11 24L11 25L16 25L16 24L15 24L15 23L12 23L12 21L11 21L11 18L14 18L14 22L16 22L16 21L18 21L18 24L20 24L20 25L22 25L22 24L23 24L23 25L25 25L25 24L23 24L23 23L24 23L24 22L25 22L25 18L23 18L23 17L25 17L25 15L24 15L24 13L25 13L25 12L23 12L23 11L24 11L24 9L25 9L25 8L24 8L24 9L23 9L23 8L20 8L20 9L19 9L19 10L18 10L18 11L17 11L17 9L18 9L18 8L17 8L17 9L16 9L16 8L15 8L15 6L14 6L14 5L17 5L17 3L15 3L15 0L14 0L14 1L12 1L12 0ZM16 0L16 2L17 2L17 0ZM11 2L11 3L10 3L10 6L9 6L9 7L10 7L10 8L9 8L9 9L10 9L10 10L9 10L9 12L8 12L8 15L9 15L9 17L10 17L10 18L11 18L11 16L12 16L12 17L14 17L14 18L16 18L16 16L17 16L17 14L14 14L14 13L15 13L15 12L16 12L16 13L17 13L17 12L16 12L16 9L14 9L14 6L13 6L13 9L12 9L12 3L13 3L13 2ZM10 6L10 7L11 7L11 6ZM16 6L16 7L17 7L17 6ZM6 8L6 9L7 9L7 8ZM1 9L1 10L2 10L2 9ZM11 9L11 12L12 12L12 9ZM13 9L13 10L14 10L14 11L13 11L13 13L12 13L12 16L13 16L13 15L14 15L14 14L13 14L13 13L14 13L14 12L15 12L15 10L14 10L14 9ZM20 9L20 10L21 10L21 11L20 11L20 12L19 12L19 11L18 11L18 12L19 12L19 13L20 13L20 12L22 12L22 10L21 10L21 9ZM9 12L9 13L10 13L10 14L9 14L9 15L10 15L10 16L11 16L11 13L10 13L10 12ZM4 13L4 14L2 14L2 15L3 15L3 16L4 16L4 15L5 15L5 13ZM6 13L6 14L7 14L7 13ZM21 13L21 15L22 15L22 16L23 16L23 15L22 15L22 14L23 14L23 13ZM18 14L18 15L19 15L19 14ZM15 15L15 16L16 16L16 15ZM17 17L17 20L20 20L20 17ZM21 17L21 20L22 20L22 21L23 21L23 18L22 18L22 17ZM18 18L18 19L19 19L19 18ZM12 19L12 20L13 20L13 19ZM15 20L15 21L16 21L16 20ZM10 21L10 23L11 23L11 21ZM19 21L19 22L21 22L21 24L22 24L22 23L23 23L23 22L21 22L21 21ZM0 0L0 7L7 7L7 0ZM1 1L1 6L6 6L6 1ZM2 2L2 5L5 5L5 2ZM18 0L18 7L25 7L25 0ZM19 1L19 6L24 6L24 1ZM20 2L20 5L23 5L23 2ZM0 18L0 25L7 25L7 18ZM1 19L1 24L6 24L6 19ZM2 20L2 23L5 23L5 20Z" fill="#000000"/></g></g></svg>
