<?xml version="1.0" encoding="UTF-8"?>
<svg xmlns="http://www.w3.org/2000/svg" version="1.1" width="300" height="300" viewBox="0 0 300 300"><rect x="0" y="0" width="300" height="300" fill="#ffffff"/><g transform="scale(12)"><g transform="translate(0,0)"><path fill-rule="evenodd" d="M8 0L8 1L10 1L10 4L9 4L9 2L8 2L8 5L10 5L10 8L8 8L8 9L10 9L10 8L12 8L12 9L11 9L11 10L10 10L10 12L9 12L9 11L8 11L8 12L9 12L9 13L10 13L10 12L11 12L11 11L12 11L12 9L13 9L13 10L14 10L14 11L13 11L13 12L12 12L12 13L14 13L14 14L12 14L12 15L14 15L14 16L13 16L13 17L12 17L12 16L10 16L10 15L11 15L11 14L9 14L9 16L10 16L10 17L8 17L8 18L9 18L9 21L8 21L8 25L10 25L10 24L9 24L9 23L10 23L10 22L11 22L11 24L12 24L12 21L11 21L11 20L13 20L13 19L14 19L14 18L16 18L16 21L17 21L17 25L19 25L19 22L20 22L20 23L22 23L22 25L25 25L25 24L23 24L23 23L24 23L24 22L23 22L23 23L22 23L22 20L21 20L21 17L22 17L22 18L23 18L23 20L24 20L24 19L25 19L25 18L23 18L23 17L25 17L25 15L24 15L24 13L25 13L25 12L23 12L23 11L24 11L24 9L25 9L25 8L24 8L24 9L23 9L23 8L20 8L20 9L18 9L18 8L16 8L16 7L17 7L17 4L15 4L15 1L14 1L14 2L13 2L13 1L12 1L12 0ZM16 0L16 1L17 1L17 0ZM11 2L11 4L10 4L10 5L11 5L11 7L12 7L12 8L13 8L13 9L14 9L14 8L15 8L15 12L16 12L16 14L14 14L14 15L15 15L15 16L14 16L14 17L15 17L15 16L17 16L17 15L19 15L19 16L20 16L20 15L22 15L22 16L23 16L23 15L22 15L22 14L23 14L23 13L21 13L21 12L22 12L22 10L21 10L21 9L20 9L20 10L19 10L19 11L21 11L21 12L19 12L19 14L17 14L17 12L18 12L18 9L17 9L17 10L16 10L16 8L15 8L15 7L16 7L16 5L15 5L15 7L14 7L14 4L13 4L13 5L12 5L12 3L13 3L13 2ZM16 2L16 3L17 3L17 2ZM8 6L8 7L9 7L9 6ZM12 6L12 7L13 7L13 6ZM0 8L0 9L4 9L4 8ZM6 8L6 9L5 9L5 10L2 10L2 11L1 11L1 10L0 10L0 12L2 12L2 13L3 13L3 14L4 14L4 17L7 17L7 16L6 16L6 15L8 15L8 13L7 13L7 12L6 12L6 13L4 13L4 11L7 11L7 10L6 10L6 9L7 9L7 8ZM2 11L2 12L3 12L3 11ZM16 11L16 12L17 12L17 11ZM6 13L6 14L5 14L5 15L6 15L6 14L7 14L7 13ZM20 13L20 14L21 14L21 13ZM1 14L1 15L0 15L0 16L1 16L1 15L2 15L2 17L3 17L3 15L2 15L2 14ZM16 14L16 15L17 15L17 14ZM17 17L17 20L20 20L20 17ZM11 18L11 19L13 19L13 18ZM18 18L18 19L19 19L19 18ZM14 20L14 21L13 21L13 22L14 22L14 23L13 23L13 25L15 25L15 24L14 24L14 23L16 23L16 22L14 22L14 21L15 21L15 20ZM0 0L0 7L7 7L7 0ZM1 1L1 6L6 6L6 1ZM2 2L2 5L5 5L5 2ZM18 0L18 7L25 7L25 0ZM19 1L19 6L24 6L24 1ZM20 2L20 5L23 5L23 2ZM0 18L0 25L7 25L7 18ZM1 19L1 24L6 24L6 19ZM2 20L2 23L5 23L5 20Z" fill="#000000"/></g></g></svg>
