<?xml version="1.0" encoding="UTF-8"?>
<svg xmlns="http://www.w3.org/2000/svg" version="1.1" width="300" height="300" viewBox="0 0 300 300"><rect x="0" y="0" width="300" height="300" fill="#ffffff"/><g transform="scale(12)"><g transform="translate(0,0)"><path fill-rule="evenodd" d="M11 0L11 1L12 1L12 0ZM13 0L13 1L15 1L15 2L14 2L14 3L12 3L12 4L11 4L11 2L9 2L9 1L8 1L8 2L9 2L9 3L8 3L8 4L9 4L9 5L8 5L8 7L9 7L9 8L6 8L6 9L9 9L9 10L8 10L8 11L9 11L9 13L10 13L10 11L9 11L9 10L12 10L12 9L13 9L13 11L11 11L11 14L12 14L12 13L13 13L13 15L12 15L12 17L11 17L11 18L9 18L9 17L8 17L8 19L9 19L9 20L8 20L8 25L11 25L11 24L12 24L12 25L13 25L13 24L12 24L12 23L11 23L11 24L9 24L9 23L10 23L10 22L9 22L9 21L10 21L10 19L11 19L11 18L12 18L12 20L11 20L11 22L12 22L12 21L14 21L14 20L15 20L15 23L16 23L16 24L14 24L14 25L16 25L16 24L17 24L17 25L20 25L20 23L17 23L17 22L19 22L19 21L21 21L21 22L23 22L23 20L22 20L22 19L21 19L21 18L22 18L22 17L23 17L23 16L25 16L25 10L24 10L24 8L23 8L23 9L22 9L22 8L21 8L21 10L20 10L20 8L19 8L19 10L18 10L18 11L17 11L17 12L16 12L16 10L17 10L17 9L18 9L18 8L15 8L15 6L16 6L16 7L17 7L17 6L16 6L16 5L17 5L17 4L16 4L16 5L15 5L15 6L14 6L14 8L12 8L12 7L13 7L13 5L12 5L12 4L15 4L15 3L16 3L16 2L17 2L17 0L16 0L16 1L15 1L15 0ZM9 3L9 4L10 4L10 6L9 6L9 7L10 7L10 6L11 6L11 7L12 7L12 5L11 5L11 4L10 4L10 3ZM0 8L0 11L1 11L1 12L0 12L0 17L1 17L1 12L2 12L2 11L3 11L3 9L4 9L4 10L5 10L5 8ZM9 8L9 9L10 9L10 8ZM1 9L1 11L2 11L2 9ZM14 9L14 10L16 10L16 9ZM6 10L6 11L5 11L5 12L4 12L4 13L5 13L5 15L7 15L7 16L6 16L6 17L7 17L7 16L9 16L9 15L10 15L10 16L11 16L11 15L10 15L10 14L9 14L9 15L7 15L7 14L6 14L6 13L7 13L7 12L6 12L6 11L7 11L7 10ZM19 10L19 11L20 11L20 10ZM23 10L23 11L22 11L22 12L24 12L24 10ZM13 11L13 12L15 12L15 11ZM5 12L5 13L6 13L6 12ZM19 12L19 13L17 13L17 14L16 14L16 16L17 16L17 14L18 14L18 15L19 15L19 16L20 16L20 14L21 14L21 12ZM2 13L2 14L3 14L3 13ZM14 13L14 15L13 15L13 16L14 16L14 15L15 15L15 13ZM19 13L19 14L20 14L20 13ZM22 13L22 16L21 16L21 17L22 17L22 16L23 16L23 14L24 14L24 13ZM2 15L2 17L3 17L3 16L4 16L4 17L5 17L5 16L4 16L4 15ZM12 17L12 18L13 18L13 20L14 20L14 19L16 19L16 18L15 18L15 17ZM17 17L17 20L20 20L20 17ZM24 17L24 18L23 18L23 19L24 19L24 21L25 21L25 17ZM18 18L18 19L19 19L19 18ZM21 20L21 21L22 21L22 20ZM24 22L24 24L22 24L22 23L21 23L21 24L22 24L22 25L25 25L25 22ZM0 0L0 7L7 7L7 0ZM1 1L1 6L6 6L6 1ZM2 2L2 5L5 5L5 2ZM18 0L18 7L25 7L25 0ZM19 1L19 6L24 6L24 1ZM20 2L20 5L23 5L23 2ZM0 18L0 25L7 25L7 18ZM1 19L1 24L6 24L6 19ZM2 20L2 23L5 23L5 20Z" fill="#000000"/></g></g></svg>
