<?xml version="1.0" encoding="UTF-8"?>
<svg xmlns="http://www.w3.org/2000/svg" version="1.1" width="300" height="300" viewBox="0 0 300 300"><rect x="0" y="0" width="300" height="300" fill="#ffffff"/><g transform="scale(10.345)"><g transform="translate(0,0)"><path fill-rule="evenodd" d="M9 0L9 1L8 1L8 3L9 3L9 4L8 4L8 8L6 8L6 9L8 9L8 8L10 8L10 10L5 10L5 9L4 9L4 8L3 8L3 9L2 9L2 8L0 8L0 11L1 11L1 13L0 13L0 15L1 15L1 16L0 16L0 17L1 17L1 18L0 18L0 19L1 19L1 18L2 18L2 19L3 19L3 20L5 20L5 19L8 19L8 20L6 20L6 21L8 21L8 23L9 23L9 22L10 22L10 21L11 21L11 23L10 23L10 24L9 24L9 25L8 25L8 26L10 26L10 27L11 27L11 28L10 28L10 29L11 29L11 28L12 28L12 29L14 29L14 28L12 28L12 24L14 24L14 25L13 25L13 27L15 27L15 29L16 29L16 27L17 27L17 29L18 29L18 26L20 26L20 25L22 25L22 26L21 26L21 27L19 27L19 28L20 28L20 29L21 29L21 28L22 28L22 29L24 29L24 28L25 28L25 29L28 29L28 27L29 27L29 26L28 26L28 25L27 25L27 24L29 24L29 23L28 23L28 21L27 21L27 20L24 20L24 19L25 19L25 18L27 18L27 19L28 19L28 20L29 20L29 18L28 18L28 15L29 15L29 14L28 14L28 15L27 15L27 17L25 17L25 18L24 18L24 17L23 17L23 18L22 18L22 19L21 19L21 18L20 18L20 25L18 25L18 24L19 24L19 22L18 22L18 24L17 24L17 23L16 23L16 24L17 24L17 26L16 26L16 27L15 27L15 26L14 26L14 25L15 25L15 23L14 23L14 21L16 21L16 22L17 22L17 20L18 20L18 19L19 19L19 17L18 17L18 15L19 15L19 16L20 16L20 17L22 17L22 15L23 15L23 14L22 14L22 13L23 13L23 12L24 12L24 11L25 11L25 13L26 13L26 12L29 12L29 11L27 11L27 10L29 10L29 9L28 9L28 8L26 8L26 9L25 9L25 8L22 8L22 11L20 11L20 10L21 10L21 9L20 9L20 8L21 8L21 6L20 6L20 5L19 5L19 4L20 4L20 3L21 3L21 1L20 1L20 0L19 0L19 1L20 1L20 3L18 3L18 2L17 2L17 1L15 1L15 2L16 2L16 3L14 3L14 4L13 4L13 6L12 6L12 5L11 5L11 6L10 6L10 5L9 5L9 4L12 4L12 3L13 3L13 2L14 2L14 1L13 1L13 0L12 0L12 1L11 1L11 2L9 2L9 1L10 1L10 0ZM16 3L16 6L15 6L15 8L16 8L16 6L17 6L17 7L18 7L18 8L17 8L17 9L18 9L18 10L17 10L17 11L16 11L16 9L15 9L15 10L14 10L14 11L16 11L16 12L14 12L14 14L13 14L13 15L14 15L14 16L12 16L12 14L9 14L9 13L12 13L12 12L13 12L13 8L14 8L14 6L13 6L13 8L12 8L12 6L11 6L11 7L10 7L10 6L9 6L9 7L10 7L10 8L11 8L11 9L12 9L12 10L11 10L11 11L6 11L6 12L5 12L5 11L3 11L3 10L2 10L2 12L3 12L3 13L1 13L1 14L3 14L3 13L4 13L4 15L2 15L2 16L3 16L3 18L4 18L4 19L5 19L5 18L8 18L8 19L10 19L10 20L9 20L9 21L10 21L10 20L11 20L11 19L12 19L12 20L14 20L14 19L17 19L17 18L18 18L18 17L17 17L17 18L16 18L16 16L17 16L17 15L16 15L16 14L17 14L17 13L20 13L20 12L19 12L19 11L18 11L18 10L20 10L20 9L18 9L18 8L20 8L20 6L19 6L19 5L17 5L17 4L18 4L18 3ZM18 6L18 7L19 7L19 6ZM24 9L24 10L25 10L25 9ZM26 9L26 10L27 10L27 9ZM6 12L6 13L5 13L5 14L6 14L6 15L4 15L4 18L5 18L5 16L6 16L6 17L8 17L8 16L6 16L6 15L7 15L7 14L8 14L8 13L9 13L9 12L8 12L8 13L7 13L7 12ZM16 12L16 13L17 13L17 12ZM21 12L21 13L22 13L22 12ZM6 13L6 14L7 14L7 13ZM19 14L19 15L20 15L20 16L21 16L21 15L22 15L22 14ZM24 14L24 16L26 16L26 14ZM9 15L9 17L10 17L10 15ZM11 16L11 17L12 17L12 16ZM14 17L14 18L13 18L13 19L14 19L14 18L15 18L15 17ZM10 18L10 19L11 19L11 18ZM0 20L0 21L1 21L1 20ZM21 21L21 24L24 24L24 21ZM22 22L22 23L23 23L23 22ZM10 24L10 25L11 25L11 24ZM25 24L25 28L27 28L27 27L28 27L28 26L27 26L27 27L26 27L26 24ZM22 26L22 28L23 28L23 27L24 27L24 26ZM8 27L8 29L9 29L9 27ZM0 0L0 7L7 7L7 0ZM1 1L1 6L6 6L6 1ZM2 2L2 5L5 5L5 2ZM22 0L22 7L29 7L29 0ZM23 1L23 6L28 6L28 1ZM24 2L24 5L27 5L27 2ZM0 22L0 29L7 29L7 22ZM1 23L1 28L6 28L6 23ZM2 24L2 27L5 27L5 24Z" fill="#000000"/></g></g></svg>
