<?xml version="1.0" encoding="UTF-8"?>
<svg xmlns="http://www.w3.org/2000/svg" version="1.1" width="300" height="300" viewBox="0 0 300 300"><rect x="0" y="0" width="300" height="300" fill="#ffffff"/><g transform="scale(10.345)"><g transform="translate(0,0)"><path fill-rule="evenodd" d="M8 0L8 1L10 1L10 0ZM15 0L15 1L14 1L14 2L11 2L11 4L10 4L10 3L9 3L9 2L8 2L8 5L9 5L9 6L8 6L8 7L9 7L9 8L8 8L8 9L7 9L7 8L6 8L6 9L5 9L5 10L6 10L6 11L7 11L7 12L5 12L5 11L4 11L4 10L3 10L3 9L4 9L4 8L0 8L0 10L1 10L1 9L2 9L2 10L3 10L3 12L4 12L4 13L2 13L2 12L1 12L1 11L0 11L0 14L1 14L1 16L0 16L0 17L2 17L2 14L5 14L5 15L7 15L7 16L5 16L5 17L4 17L4 15L3 15L3 17L4 17L4 18L2 18L2 20L1 20L1 21L2 21L2 20L3 20L3 21L8 21L8 22L9 22L9 23L10 23L10 24L9 24L9 25L8 25L8 29L10 29L10 27L11 27L11 28L12 28L12 29L13 29L13 28L12 28L12 26L13 26L13 27L14 27L14 29L16 29L16 28L17 28L17 26L18 26L18 27L20 27L20 28L18 28L18 29L25 29L25 28L22 28L22 25L23 25L23 27L24 27L24 25L26 25L26 26L25 26L25 27L27 27L27 28L26 28L26 29L28 29L28 27L29 27L29 25L28 25L28 24L29 24L29 23L28 23L28 21L27 21L27 20L28 20L28 19L26 19L26 21L25 21L25 19L24 19L24 20L18 20L18 17L19 17L19 16L20 16L20 13L19 13L19 16L18 16L18 17L17 17L17 18L16 18L16 16L17 16L17 14L18 14L18 12L17 12L17 14L16 14L16 15L15 15L15 14L14 14L14 13L13 13L13 14L12 14L12 12L16 12L16 10L17 10L17 11L18 11L18 10L21 10L21 14L23 14L23 15L21 15L21 16L23 16L23 18L24 18L24 17L26 17L26 16L25 16L25 15L24 15L24 14L23 14L23 13L22 13L22 12L25 12L25 13L26 13L26 14L28 14L28 15L27 15L27 17L28 17L28 18L29 18L29 17L28 17L28 15L29 15L29 12L26 12L26 11L27 11L27 10L29 10L29 8L28 8L28 9L27 9L27 8L24 8L24 9L22 9L22 8L21 8L21 6L20 6L20 2L21 2L21 1L20 1L20 0L18 0L18 1L17 1L17 0ZM16 1L16 3L12 3L12 5L10 5L10 6L9 6L9 7L10 7L10 8L9 8L9 9L8 9L8 11L9 11L9 12L7 12L7 13L5 13L5 14L7 14L7 15L9 15L9 16L7 16L7 17L5 17L5 18L8 18L8 19L4 19L4 20L8 20L8 21L11 21L11 22L10 22L10 23L11 23L11 25L10 25L10 26L11 26L11 25L12 25L12 24L13 24L13 26L14 26L14 27L16 27L16 26L14 26L14 24L15 24L15 23L16 23L16 24L18 24L18 26L19 26L19 25L20 25L20 23L16 23L16 20L17 20L17 19L15 19L15 15L14 15L14 14L13 14L13 15L14 15L14 16L12 16L12 14L10 14L10 13L11 13L11 11L14 11L14 10L15 10L15 9L16 9L16 8L17 8L17 7L18 7L18 6L19 6L19 7L20 7L20 6L19 6L19 2L20 2L20 1L18 1L18 2L17 2L17 1ZM16 3L16 4L18 4L18 3ZM13 4L13 5L12 5L12 7L11 7L11 6L10 6L10 7L11 7L11 8L12 8L12 7L13 7L13 9L15 9L15 5L14 5L14 4ZM13 5L13 7L14 7L14 5ZM17 5L17 6L16 6L16 7L17 7L17 6L18 6L18 5ZM20 8L20 9L21 9L21 8ZM6 9L6 10L7 10L7 9ZM9 9L9 10L10 10L10 9ZM25 9L25 10L22 10L22 11L26 11L26 10L27 10L27 9ZM19 11L19 12L20 12L20 11ZM9 12L9 13L10 13L10 12ZM9 14L9 15L10 15L10 17L12 17L12 18L10 18L10 19L12 19L12 20L11 20L11 21L12 21L12 22L11 22L11 23L14 23L14 22L15 22L15 21L14 21L14 20L13 20L13 18L14 18L14 17L12 17L12 16L11 16L11 15L10 15L10 14ZM23 15L23 16L24 16L24 15ZM8 17L8 18L9 18L9 17ZM20 17L20 19L22 19L22 18L21 18L21 17ZM0 18L0 19L1 19L1 18ZM17 21L17 22L18 22L18 21ZM21 21L21 24L24 24L24 21ZM26 21L26 22L27 22L27 21ZM22 22L22 23L23 23L23 22ZM26 23L26 24L27 24L27 23ZM27 25L27 27L28 27L28 25ZM20 26L20 27L21 27L21 26ZM0 0L0 7L7 7L7 0ZM1 1L1 6L6 6L6 1ZM2 2L2 5L5 5L5 2ZM22 0L22 7L29 7L29 0ZM23 1L23 6L28 6L28 1ZM24 2L24 5L27 5L27 2ZM0 22L0 29L7 29L7 22ZM1 23L1 28L6 28L6 23ZM2 24L2 27L5 27L5 24Z" fill="#000000"/></g></g></svg>
