<?xml version="1.0" encoding="UTF-8"?>
<svg xmlns="http://www.w3.org/2000/svg" version="1.1" width="300" height="300" viewBox="0 0 300 300"><rect x="0" y="0" width="300" height="300" fill="#ffffff"/><g transform="scale(12)"><g transform="translate(0,0)"><path fill-rule="evenodd" d="M9 0L9 1L8 1L8 2L9 2L9 3L8 3L8 4L10 4L10 7L11 7L11 8L6 8L6 9L8 9L8 11L7 11L7 10L5 10L5 8L0 8L0 9L1 9L1 10L0 10L0 17L1 17L1 14L2 14L2 13L1 13L1 12L2 12L2 10L3 10L3 9L4 9L4 11L3 11L3 15L2 15L2 16L4 16L4 17L5 17L5 16L6 16L6 17L8 17L8 19L9 19L9 20L8 20L8 25L11 25L11 22L10 22L10 21L11 21L11 20L10 20L10 19L9 19L9 17L10 17L10 18L11 18L11 17L14 17L14 16L13 16L13 14L14 14L14 13L16 13L16 10L17 10L17 11L18 11L18 10L20 10L20 12L21 12L21 15L20 15L20 16L19 16L19 14L18 14L18 15L17 15L17 16L16 16L16 19L15 19L15 20L14 20L14 21L13 21L13 20L12 20L12 21L13 21L13 23L12 23L12 25L13 25L13 23L14 23L14 21L17 21L17 22L21 22L21 24L22 24L22 25L25 25L25 21L24 21L24 20L25 20L25 17L24 17L24 18L23 18L23 19L24 19L24 20L22 20L22 19L21 19L21 18L22 18L22 17L23 17L23 16L25 16L25 10L24 10L24 8L23 8L23 9L22 9L22 8L21 8L21 10L20 10L20 8L19 8L19 9L18 9L18 8L17 8L17 4L16 4L16 2L17 2L17 0L15 0L15 1L14 1L14 0L13 0L13 1L11 1L11 2L10 2L10 0ZM12 2L12 3L13 3L13 4L14 4L14 5L13 5L13 7L12 7L12 4L11 4L11 3L10 3L10 4L11 4L11 7L12 7L12 8L11 8L11 9L10 9L10 11L11 11L11 12L10 12L10 13L8 13L8 12L9 12L9 11L8 11L8 12L7 12L7 11L5 11L5 12L7 12L7 13L6 13L6 14L9 14L9 15L8 15L8 16L12 16L12 14L13 14L13 13L14 13L14 11L15 11L15 10L14 10L14 6L15 6L15 7L16 7L16 6L15 6L15 4L14 4L14 3L15 3L15 2ZM8 5L8 7L9 7L9 5ZM15 8L15 9L17 9L17 10L18 10L18 9L17 9L17 8ZM13 10L13 11L12 11L12 13L13 13L13 11L14 11L14 10ZM23 10L23 11L22 11L22 12L24 12L24 10ZM17 12L17 13L19 13L19 12ZM10 13L10 15L11 15L11 13ZM22 13L22 16L21 16L21 17L22 17L22 16L23 16L23 14L24 14L24 13ZM4 14L4 16L5 16L5 14ZM15 14L15 15L16 15L16 14ZM6 15L6 16L7 16L7 15ZM17 17L17 20L20 20L20 17ZM12 18L12 19L13 19L13 18ZM18 18L18 19L19 19L19 18ZM9 20L9 21L10 21L10 20ZM21 20L21 22L22 22L22 24L24 24L24 22L23 22L23 21L22 21L22 20ZM9 23L9 24L10 24L10 23ZM15 23L15 24L14 24L14 25L15 25L15 24L17 24L17 25L19 25L19 24L20 24L20 23L19 23L19 24L18 24L18 23ZM0 0L0 7L7 7L7 0ZM1 1L1 6L6 6L6 1ZM2 2L2 5L5 5L5 2ZM18 0L18 7L25 7L25 0ZM19 1L19 6L24 6L24 1ZM20 2L20 5L23 5L23 2ZM0 18L0 25L7 25L7 18ZM1 19L1 24L6 24L6 19ZM2 20L2 23L5 23L5 20Z" fill="#000000"/></g></g></svg>
