<?xml version="1.0" encoding="UTF-8"?>
<svg xmlns="http://www.w3.org/2000/svg" version="1.1" width="300" height="300" viewBox="0 0 300 300"><rect x="0" y="0" width="300" height="300" fill="#ffffff"/><g transform="scale(12)"><g transform="translate(0,0)"><path fill-rule="evenodd" d="M9 0L9 3L8 3L8 5L10 5L10 8L9 8L9 10L8 10L8 8L5 8L5 9L4 9L4 10L3 10L3 9L2 9L2 8L0 8L0 9L1 9L1 10L0 10L0 11L1 11L1 13L0 13L0 17L1 17L1 14L4 14L4 16L5 16L5 15L7 15L7 14L4 14L4 13L7 13L7 12L6 12L6 11L8 11L8 12L9 12L9 14L10 14L10 11L11 11L11 9L13 9L13 5L12 5L12 8L11 8L11 5L10 5L10 4L9 4L9 3L10 3L10 0ZM11 0L11 1L12 1L12 0ZM13 0L13 1L14 1L14 2L15 2L15 3L16 3L16 4L15 4L15 5L17 5L17 3L16 3L16 2L17 2L17 1L16 1L16 0ZM15 1L15 2L16 2L16 1ZM12 2L12 4L13 4L13 2ZM8 6L8 7L9 7L9 6ZM14 6L14 10L12 10L12 12L11 12L11 13L12 13L12 12L13 12L13 14L14 14L14 12L13 12L13 11L14 11L14 10L15 10L15 11L16 11L16 10L15 10L15 9L16 9L16 8L17 8L17 6L16 6L16 8L15 8L15 6ZM10 8L10 9L11 9L11 8ZM20 8L20 9L18 9L18 10L17 10L17 11L18 11L18 10L20 10L20 12L18 12L18 13L22 13L22 12L21 12L21 11L23 11L23 10L24 10L24 14L23 14L23 15L22 15L22 14L20 14L20 15L19 15L19 14L18 14L18 15L16 15L16 13L17 13L17 12L15 12L15 15L14 15L14 17L15 17L15 18L13 18L13 19L14 19L14 21L15 21L15 22L14 22L14 25L15 25L15 22L20 22L20 21L21 21L21 23L19 23L19 24L18 24L18 23L16 23L16 25L17 25L17 24L18 24L18 25L19 25L19 24L20 24L20 25L21 25L21 23L23 23L23 22L24 22L24 25L25 25L25 21L24 21L24 19L25 19L25 17L24 17L24 19L23 19L23 18L22 18L22 19L23 19L23 20L22 20L22 21L21 21L21 15L22 15L22 17L23 17L23 16L25 16L25 10L24 10L24 9L23 9L23 10L21 10L21 9L22 9L22 8ZM6 9L6 10L4 10L4 11L3 11L3 10L1 10L1 11L3 11L3 13L4 13L4 11L6 11L6 10L7 10L7 9ZM9 10L9 11L10 11L10 10ZM2 15L2 17L3 17L3 15ZM8 15L8 16L9 16L9 17L8 17L8 20L9 20L9 23L8 23L8 25L9 25L9 23L10 23L10 25L13 25L13 22L12 22L12 24L11 24L11 23L10 23L10 20L12 20L12 18L11 18L11 19L10 19L10 20L9 20L9 18L10 18L10 16L9 16L9 15ZM12 15L12 17L13 17L13 15ZM6 16L6 17L7 17L7 16ZM15 16L15 17L16 17L16 16ZM17 17L17 20L20 20L20 17ZM15 18L15 20L16 20L16 18ZM18 18L18 19L19 19L19 18ZM0 0L0 7L7 7L7 0ZM1 1L1 6L6 6L6 1ZM2 2L2 5L5 5L5 2ZM18 0L18 7L25 7L25 0ZM19 1L19 6L24 6L24 1ZM20 2L20 5L23 5L23 2ZM0 18L0 25L7 25L7 18ZM1 19L1 24L6 24L6 19ZM2 20L2 23L5 23L5 20Z" fill="#000000"/></g></g></svg>
