<?xml version="1.0" encoding="UTF-8"?>
<svg xmlns="http://www.w3.org/2000/svg" version="1.1" width="300" height="300" viewBox="0 0 300 300"><rect x="0" y="0" width="300" height="300" fill="#ffffff"/><g transform="scale(12)"><g transform="translate(0,0)"><path fill-rule="evenodd" d="M8 0L8 4L10 4L10 5L8 5L8 7L9 7L9 8L13 8L13 9L14 9L14 10L15 10L15 12L17 12L17 13L19 13L19 15L20 15L20 14L21 14L21 16L17 16L17 15L18 15L18 14L16 14L16 13L14 13L14 12L13 12L13 10L11 10L11 11L10 11L10 13L9 13L9 14L8 14L8 11L9 11L9 10L10 10L10 9L9 9L9 10L8 10L8 11L7 11L7 10L5 10L5 11L4 11L4 9L7 9L7 8L4 8L4 9L3 9L3 10L0 10L0 11L2 11L2 12L3 12L3 11L4 11L4 13L0 13L0 14L2 14L2 16L0 16L0 17L8 17L8 18L10 18L10 17L11 17L11 15L12 15L12 14L10 14L10 13L11 13L11 12L13 12L13 14L15 14L15 15L14 15L14 16L13 16L13 17L14 17L14 18L11 18L11 19L10 19L10 21L9 21L9 19L8 19L8 21L9 21L9 23L8 23L8 25L9 25L9 23L10 23L10 22L11 22L11 24L12 24L12 25L14 25L14 24L12 24L12 23L13 23L13 22L16 22L16 23L15 23L15 25L16 25L16 23L18 23L18 24L17 24L17 25L20 25L20 24L19 24L19 21L23 21L23 22L21 22L21 25L25 25L25 24L24 24L24 22L25 22L25 21L24 21L24 20L25 20L25 19L24 19L24 20L23 20L23 18L22 18L22 19L21 19L21 17L23 17L23 14L21 14L21 12L22 12L22 13L24 13L24 14L25 14L25 12L24 12L24 9L25 9L25 8L21 8L21 9L20 9L20 8L19 8L19 9L18 9L18 11L17 11L17 9L16 9L16 10L15 10L15 9L14 9L14 8L15 8L15 5L14 5L14 4L15 4L15 3L16 3L16 5L17 5L17 2L14 2L14 0L13 0L13 2L14 2L14 4L13 4L13 5L12 5L12 7L11 7L11 6L10 6L10 5L11 5L11 4L10 4L10 2L9 2L9 0ZM16 0L16 1L17 1L17 0ZM13 5L13 8L14 8L14 5ZM9 6L9 7L10 7L10 6ZM16 6L16 8L17 8L17 6ZM0 8L0 9L2 9L2 8ZM19 9L19 12L20 12L20 9ZM21 9L21 10L22 10L22 11L23 11L23 10L22 10L22 9ZM6 11L6 12L5 12L5 13L6 13L6 14L7 14L7 15L6 15L6 16L10 16L10 14L9 14L9 15L8 15L8 14L7 14L7 13L6 13L6 12L7 12L7 11ZM4 14L4 15L5 15L5 14ZM15 15L15 16L14 16L14 17L15 17L15 16L16 16L16 15ZM17 17L17 20L20 20L20 17ZM24 17L24 18L25 18L25 17ZM15 18L15 19L13 19L13 21L11 21L11 22L13 22L13 21L14 21L14 20L15 20L15 21L16 21L16 22L17 22L17 21L16 21L16 20L15 20L15 19L16 19L16 18ZM18 18L18 19L19 19L19 18ZM0 0L0 7L7 7L7 0ZM1 1L1 6L6 6L6 1ZM2 2L2 5L5 5L5 2ZM18 0L18 7L25 7L25 0ZM19 1L19 6L24 6L24 1ZM20 2L20 5L23 5L23 2ZM0 18L0 25L7 25L7 18ZM1 19L1 24L6 24L6 19ZM2 20L2 23L5 23L5 20Z" fill="#000000"/></g></g></svg>
