<?xml version="1.0" encoding="UTF-8"?>
<svg xmlns="http://www.w3.org/2000/svg" version="1.1" width="300" height="300" viewBox="0 0 300 300"><rect x="0" y="0" width="300" height="300" fill="#ffffff"/><g transform="scale(12)"><g transform="translate(0,0)"><path fill-rule="evenodd" d="M9 0L9 1L11 1L11 2L9 2L9 3L8 3L8 5L9 5L9 6L8 6L8 7L9 7L9 9L10 9L10 10L6 10L6 9L8 9L8 8L5 8L5 9L2 9L2 8L0 8L0 9L1 9L1 10L2 10L2 11L1 11L1 13L0 13L0 17L1 17L1 13L2 13L2 14L4 14L4 15L5 15L5 16L6 16L6 17L7 17L7 16L8 16L8 20L9 20L9 23L8 23L8 25L11 25L11 22L12 22L12 25L13 25L13 23L14 23L14 24L15 24L15 23L14 23L14 22L12 22L12 21L15 21L15 22L20 22L20 21L21 21L21 15L22 15L22 17L23 17L23 16L25 16L25 10L24 10L24 9L23 9L23 10L21 10L21 9L22 9L22 8L20 8L20 9L18 9L18 10L17 10L17 11L18 11L18 10L20 10L20 12L18 12L18 13L22 13L22 12L21 12L21 11L23 11L23 10L24 10L24 14L23 14L23 15L22 15L22 14L18 14L18 15L16 15L16 13L17 13L17 12L15 12L15 11L16 11L16 9L17 9L17 8L12 8L12 9L11 9L11 8L10 8L10 7L11 7L11 4L12 4L12 5L13 5L13 6L12 6L12 7L13 7L13 6L14 6L14 7L15 7L15 5L14 5L14 3L15 3L15 4L16 4L16 5L17 5L17 1L16 1L16 3L15 3L15 0L14 0L14 1L12 1L12 0ZM12 2L12 3L14 3L14 2ZM9 3L9 5L10 5L10 3ZM9 6L9 7L10 7L10 6ZM16 6L16 7L17 7L17 6ZM12 9L12 10L10 10L10 11L9 11L9 12L7 12L7 11L6 11L6 12L7 12L7 13L6 13L6 14L5 14L5 15L6 15L6 16L7 16L7 15L6 15L6 14L8 14L8 16L10 16L10 18L9 18L9 19L11 19L11 20L10 20L10 21L11 21L11 20L12 20L12 19L13 19L13 20L16 20L16 18L15 18L15 17L16 17L16 16L15 16L15 15L14 15L14 14L15 14L15 12L14 12L14 11L15 11L15 10L14 10L14 9ZM4 10L4 11L2 11L2 12L5 12L5 10ZM12 10L12 11L13 11L13 10ZM10 11L10 12L9 12L9 13L8 13L8 14L9 14L9 15L11 15L11 19L12 19L12 17L14 17L14 16L12 16L12 15L13 15L13 14L14 14L14 13L13 13L13 12L11 12L11 11ZM12 13L12 14L11 14L11 15L12 15L12 14L13 14L13 13ZM19 15L19 16L20 16L20 15ZM3 16L3 17L4 17L4 16ZM17 17L17 20L20 20L20 17ZM24 17L24 20L22 20L22 22L21 22L21 23L19 23L19 24L18 24L18 23L16 23L16 25L17 25L17 24L18 24L18 25L19 25L19 24L20 24L20 25L21 25L21 23L23 23L23 22L24 22L24 25L25 25L25 21L24 21L24 20L25 20L25 17ZM13 18L13 19L15 19L15 18ZM18 18L18 19L19 19L19 18ZM22 18L22 19L23 19L23 18ZM9 23L9 24L10 24L10 23ZM0 0L0 7L7 7L7 0ZM1 1L1 6L6 6L6 1ZM2 2L2 5L5 5L5 2ZM18 0L18 7L25 7L25 0ZM19 1L19 6L24 6L24 1ZM20 2L20 5L23 5L23 2ZM0 18L0 25L7 25L7 18ZM1 19L1 24L6 24L6 19ZM2 20L2 23L5 23L5 20Z" fill="#000000"/></g></g></svg>
