<?xml version="1.0" encoding="UTF-8"?>
<svg xmlns="http://www.w3.org/2000/svg" version="1.1" width="300" height="300" viewBox="0 0 300 300"><rect x="0" y="0" width="300" height="300" fill="#ffffff"/><g transform="scale(12)"><g transform="translate(0,0)"><path fill-rule="evenodd" d="M9 0L9 1L8 1L8 2L9 2L9 3L8 3L8 4L10 4L10 7L11 7L11 4L12 4L12 5L13 5L13 6L12 6L12 9L16 9L16 10L15 10L15 11L14 11L14 12L12 12L12 11L13 11L13 10L11 10L11 11L10 11L10 9L11 9L11 8L6 8L6 9L5 9L5 8L0 8L0 9L3 9L3 12L2 12L2 13L4 13L4 15L5 15L5 13L7 13L7 14L6 14L6 15L7 15L7 16L6 16L6 17L8 17L8 19L11 19L11 21L10 21L10 20L8 20L8 25L10 25L10 24L11 24L11 23L10 23L10 24L9 24L9 22L12 22L12 21L13 21L13 22L14 22L14 24L13 24L13 23L12 23L12 25L15 25L15 24L17 24L17 25L20 25L20 24L22 24L22 25L25 25L25 21L23 21L23 20L22 20L22 19L21 19L21 18L22 18L22 17L23 17L23 16L25 16L25 10L24 10L24 8L23 8L23 9L22 9L22 8L21 8L21 10L20 10L20 8L19 8L19 9L18 9L18 8L15 8L15 6L16 6L16 7L17 7L17 4L16 4L16 5L15 5L15 6L14 6L14 4L15 4L15 3L16 3L16 1L17 1L17 0L16 0L16 1L14 1L14 3L13 3L13 4L12 4L12 2L13 2L13 1L11 1L11 2L10 2L10 0ZM10 3L10 4L11 4L11 3ZM8 5L8 7L9 7L9 5ZM13 6L13 8L14 8L14 6ZM6 9L6 10L7 10L7 11L5 11L5 10L4 10L4 13L5 13L5 12L7 12L7 13L8 13L8 9ZM17 9L17 10L16 10L16 13L15 13L15 14L14 14L14 13L13 13L13 14L12 14L12 13L11 13L11 12L10 12L10 13L9 13L9 14L7 14L7 15L8 15L8 17L9 17L9 16L10 16L10 15L11 15L11 17L12 17L12 18L11 18L11 19L12 19L12 20L15 20L15 19L16 19L16 16L17 16L17 15L18 15L18 14L21 14L21 12L20 12L20 10L18 10L18 9ZM17 10L17 11L18 11L18 10ZM23 10L23 11L22 11L22 12L24 12L24 10ZM0 11L0 12L1 12L1 11ZM17 12L17 13L19 13L19 12ZM0 13L0 17L1 17L1 13ZM10 13L10 14L11 14L11 13ZM22 13L22 16L21 16L21 15L19 15L19 16L21 16L21 17L22 17L22 16L23 16L23 14L24 14L24 13ZM13 14L13 15L14 15L14 14ZM15 14L15 15L16 15L16 14ZM2 15L2 16L3 16L3 17L4 17L4 16L3 16L3 15ZM12 16L12 17L14 17L14 16ZM17 17L17 20L20 20L20 17ZM24 17L24 18L23 18L23 19L25 19L25 17ZM12 18L12 19L13 19L13 18ZM18 18L18 19L19 19L19 18ZM21 20L21 22L17 22L17 21L14 21L14 22L15 22L15 23L18 23L18 24L19 24L19 23L22 23L22 24L24 24L24 22L23 22L23 21L22 21L22 20ZM0 0L0 7L7 7L7 0ZM1 1L1 6L6 6L6 1ZM2 2L2 5L5 5L5 2ZM18 0L18 7L25 7L25 0ZM19 1L19 6L24 6L24 1ZM20 2L20 5L23 5L23 2ZM0 18L0 25L7 25L7 18ZM1 19L1 24L6 24L6 19ZM2 20L2 23L5 23L5 20Z" fill="#000000"/></g></g></svg>
