<?xml version="1.0" encoding="UTF-8"?>
<svg xmlns="http://www.w3.org/2000/svg" version="1.1" width="300" height="300" viewBox="0 0 300 300"><rect x="0" y="0" width="300" height="300" fill="#ffffff"/><g transform="scale(12)"><g transform="translate(0,0)"><path fill-rule="evenodd" d="M9 0L9 1L10 1L10 2L8 2L8 3L9 3L9 4L10 4L10 5L9 5L9 6L8 6L8 8L4 8L4 9L3 9L3 8L0 8L0 10L2 10L2 11L0 11L0 12L2 12L2 13L1 13L1 14L0 14L0 15L1 15L1 16L0 16L0 17L1 17L1 16L3 16L3 17L5 17L5 16L3 16L3 14L5 14L5 15L7 15L7 14L9 14L9 12L6 12L6 11L7 11L7 10L6 10L6 9L8 9L8 11L10 11L10 10L12 10L12 8L13 8L13 9L14 9L14 8L16 8L16 11L15 11L15 12L16 12L16 13L17 13L17 14L16 14L16 15L17 15L17 14L18 14L18 15L19 15L19 16L15 16L15 14L14 14L14 15L13 15L13 13L14 13L14 11L13 11L13 12L12 12L12 11L11 11L11 12L12 12L12 13L11 13L11 15L12 15L12 16L11 16L11 17L10 17L10 16L9 16L9 15L8 15L8 21L9 21L9 22L8 22L8 25L9 25L9 22L10 22L10 20L9 20L9 18L10 18L10 19L11 19L11 20L12 20L12 21L11 21L11 23L12 23L12 24L10 24L10 25L12 25L12 24L14 24L14 25L19 25L19 23L18 23L18 24L17 24L17 22L14 22L14 21L13 21L13 20L12 20L12 19L11 19L11 18L12 18L12 16L14 16L14 17L16 17L16 18L15 18L15 20L16 20L16 21L20 21L20 25L22 25L22 23L23 23L23 25L25 25L25 24L24 24L24 23L25 23L25 22L24 22L24 23L23 23L23 22L22 22L22 23L21 23L21 21L22 21L22 19L25 19L25 18L24 18L24 17L23 17L23 18L22 18L22 15L25 15L25 14L24 14L24 13L25 13L25 12L24 12L24 11L25 11L25 9L24 9L24 11L23 11L23 14L22 14L22 13L21 13L21 12L22 12L22 11L18 11L18 9L19 9L19 8L17 8L17 6L16 6L16 4L15 4L15 2L16 2L16 3L17 3L17 1L16 1L16 0L15 0L15 2L14 2L14 1L13 1L13 0L12 0L12 1L10 1L10 0ZM11 2L11 3L12 3L12 4L11 4L11 5L10 5L10 6L9 6L9 7L10 7L10 6L11 6L11 8L12 8L12 6L13 6L13 7L14 7L14 6L15 6L15 7L16 7L16 6L15 6L15 5L14 5L14 2L13 2L13 3L12 3L12 2ZM13 5L13 6L14 6L14 5ZM9 8L9 10L10 10L10 8ZM22 8L22 9L21 9L21 10L23 10L23 8ZM2 9L2 10L3 10L3 11L2 11L2 12L3 12L3 13L4 13L4 12L5 12L5 14L7 14L7 13L6 13L6 12L5 12L5 11L4 11L4 10L5 10L5 9L4 9L4 10L3 10L3 9ZM16 11L16 12L17 12L17 11ZM19 12L19 13L20 13L20 14L21 14L21 15L20 15L20 16L21 16L21 15L22 15L22 14L21 14L21 13L20 13L20 12ZM1 14L1 15L2 15L2 14ZM6 16L6 17L7 17L7 16ZM17 17L17 20L20 20L20 17ZM13 18L13 19L14 19L14 18ZM18 18L18 19L19 19L19 18ZM23 20L23 21L25 21L25 20ZM13 22L13 23L14 23L14 22ZM0 0L0 7L7 7L7 0ZM1 1L1 6L6 6L6 1ZM2 2L2 5L5 5L5 2ZM18 0L18 7L25 7L25 0ZM19 1L19 6L24 6L24 1ZM20 2L20 5L23 5L23 2ZM0 18L0 25L7 25L7 18ZM1 19L1 24L6 24L6 19ZM2 20L2 23L5 23L5 20Z" fill="#000000"/></g></g></svg>
