<?xml version="1.0" encoding="UTF-8"?>
<svg xmlns="http://www.w3.org/2000/svg" version="1.1" width="300" height="300" viewBox="0 0 300 300"><rect x="0" y="0" width="300" height="300" fill="#ffffff"/><g transform="scale(12)"><g transform="translate(0,0)"><path fill-rule="evenodd" d="M8 0L8 1L11 1L11 3L10 3L10 2L9 2L9 3L10 3L10 5L9 5L9 6L8 6L8 8L9 8L9 9L10 9L10 10L8 10L8 12L6 12L6 11L7 11L7 10L6 10L6 9L7 9L7 8L6 8L6 9L5 9L5 8L3 8L3 10L0 10L0 12L1 12L1 13L0 13L0 17L1 17L1 15L2 15L2 14L3 14L3 13L4 13L4 14L5 14L5 13L4 13L4 12L3 12L3 11L5 11L5 12L6 12L6 13L8 13L8 12L9 12L9 13L10 13L10 15L11 15L11 14L12 14L12 15L14 15L14 14L15 14L15 16L16 16L16 17L15 17L15 18L16 18L16 20L15 20L15 19L14 19L14 16L13 16L13 19L12 19L12 18L10 18L10 19L9 19L9 20L8 20L8 22L9 22L9 23L8 23L8 25L9 25L9 23L11 23L11 24L10 24L10 25L12 25L12 24L13 24L13 22L12 22L12 21L13 21L13 20L15 20L15 21L14 21L14 23L15 23L15 22L17 22L17 23L18 23L18 22L20 22L20 23L19 23L19 24L18 24L18 25L21 25L21 24L20 24L20 23L22 23L22 24L24 24L24 25L25 25L25 21L24 21L24 20L25 20L25 17L24 17L24 16L25 16L25 10L24 10L24 9L25 9L25 8L24 8L24 9L23 9L23 10L21 10L21 9L19 9L19 8L18 8L18 10L21 10L21 11L20 11L20 12L18 12L18 11L16 11L16 9L17 9L17 8L16 8L16 9L15 9L15 8L14 8L14 7L15 7L15 6L14 6L14 5L13 5L13 4L14 4L14 2L15 2L15 3L16 3L16 7L17 7L17 1L16 1L16 2L15 2L15 1L14 1L14 0L13 0L13 1L12 1L12 0ZM13 1L13 2L12 2L12 3L13 3L13 2L14 2L14 1ZM10 5L10 6L9 6L9 7L10 7L10 9L11 9L11 8L13 8L13 9L12 9L12 11L13 11L13 13L12 13L12 12L11 12L11 10L10 10L10 11L9 11L9 12L11 12L11 13L12 13L12 14L13 14L13 13L15 13L15 12L16 12L16 11L14 11L14 10L13 10L13 9L14 9L14 8L13 8L13 7L14 7L14 6L13 6L13 7L12 7L12 6L11 6L11 5ZM10 6L10 7L11 7L11 6ZM0 8L0 9L2 9L2 8ZM4 9L4 10L5 10L5 9ZM21 11L21 12L22 12L22 13L21 13L21 14L19 14L19 13L18 13L18 12L17 12L17 13L16 13L16 14L17 14L17 15L18 15L18 14L19 14L19 16L21 16L21 21L20 21L20 22L21 22L21 21L23 21L23 20L24 20L24 18L23 18L23 19L22 19L22 15L21 15L21 14L24 14L24 12L22 12L22 11ZM6 14L6 15L9 15L9 14ZM4 15L4 16L2 16L2 17L4 17L4 16L5 16L5 17L7 17L7 16L5 16L5 15ZM9 16L9 17L8 17L8 18L9 18L9 17L12 17L12 16ZM17 17L17 20L20 20L20 17ZM18 18L18 19L19 19L19 18ZM11 19L11 20L9 20L9 22L11 22L11 21L12 21L12 19ZM22 22L22 23L23 23L23 22ZM16 24L16 25L17 25L17 24ZM0 0L0 7L7 7L7 0ZM1 1L1 6L6 6L6 1ZM2 2L2 5L5 5L5 2ZM18 0L18 7L25 7L25 0ZM19 1L19 6L24 6L24 1ZM20 2L20 5L23 5L23 2ZM0 18L0 25L7 25L7 18ZM1 19L1 24L6 24L6 19ZM2 20L2 23L5 23L5 20Z" fill="#000000"/></g></g></svg>
