<?xml version="1.0" encoding="UTF-8"?>
<svg xmlns="http://www.w3.org/2000/svg" version="1.1" width="300" height="300" viewBox="0 0 300 300"><rect x="0" y="0" width="300" height="300" fill="#ffffff"/><g transform="scale(12)"><g transform="translate(0,0)"><path fill-rule="evenodd" d="M8 0L8 4L9 4L9 5L8 5L8 7L9 7L9 6L10 6L10 9L11 9L11 10L9 10L9 12L10 12L10 11L13 11L13 10L14 10L14 12L17 12L17 13L19 13L19 16L17 16L17 15L18 15L18 14L16 14L16 13L15 13L15 14L14 14L14 13L13 13L13 12L11 12L11 13L8 13L8 14L11 14L11 15L10 15L10 17L11 17L11 18L10 18L10 19L11 19L11 20L10 20L10 23L8 23L8 25L10 25L10 23L12 23L12 25L13 25L13 22L16 22L16 23L15 23L15 25L16 25L16 23L18 23L18 24L17 24L17 25L19 25L19 21L23 21L23 22L21 22L21 23L20 23L20 25L25 25L25 24L24 24L24 22L25 22L25 21L24 21L24 20L25 20L25 19L23 19L23 18L22 18L22 19L21 19L21 17L23 17L23 14L21 14L21 12L22 12L22 13L24 13L24 14L25 14L25 12L24 12L24 9L25 9L25 8L21 8L21 9L20 9L20 8L19 8L19 9L18 9L18 11L17 11L17 0L14 0L14 1L16 1L16 2L15 2L15 3L13 3L13 4L14 4L14 8L15 8L15 5L16 5L16 9L13 9L13 10L12 10L12 9L11 9L11 5L12 5L12 2L11 2L11 1L12 1L12 0L11 0L11 1L10 1L10 2L9 2L9 0ZM10 4L10 5L11 5L11 4ZM12 6L12 8L13 8L13 6ZM0 8L0 9L1 9L1 10L0 10L0 14L1 14L1 12L4 12L4 14L3 14L3 13L2 13L2 15L3 15L3 16L4 16L4 17L5 17L5 16L4 16L4 15L5 15L5 14L6 14L6 15L7 15L7 14L6 14L6 13L7 13L7 12L6 12L6 11L8 11L8 9L7 9L7 8L4 8L4 9L5 9L5 10L4 10L4 11L2 11L2 10L3 10L3 9L2 9L2 8ZM6 9L6 10L7 10L7 9ZM19 9L19 12L20 12L20 9ZM21 9L21 10L22 10L22 11L23 11L23 10L22 10L22 9ZM4 11L4 12L5 12L5 13L6 13L6 12L5 12L5 11ZM12 13L12 14L13 14L13 15L12 15L12 16L13 16L13 17L12 17L12 18L13 18L13 19L12 19L12 20L11 20L11 21L12 21L12 22L13 22L13 21L14 21L14 20L15 20L15 21L16 21L16 22L17 22L17 21L16 21L16 20L15 20L15 19L16 19L16 18L13 18L13 17L14 17L14 16L16 16L16 15L14 15L14 14L13 14L13 13ZM20 14L20 16L21 16L21 14ZM0 16L0 17L2 17L2 16ZM6 16L6 17L8 17L8 18L9 18L9 16ZM17 17L17 20L20 20L20 17ZM24 17L24 18L25 18L25 17ZM18 18L18 19L19 19L19 18ZM8 19L8 21L9 21L9 19ZM12 20L12 21L13 21L13 20ZM0 0L0 7L7 7L7 0ZM1 1L1 6L6 6L6 1ZM2 2L2 5L5 5L5 2ZM18 0L18 7L25 7L25 0ZM19 1L19 6L24 6L24 1ZM20 2L20 5L23 5L23 2ZM0 18L0 25L7 25L7 18ZM1 19L1 24L6 24L6 19ZM2 20L2 23L5 23L5 20Z" fill="#000000"/></g></g></svg>
