<?xml version="1.0" encoding="UTF-8"?>
<svg xmlns="http://www.w3.org/2000/svg" version="1.1" width="300" height="300" viewBox="0 0 300 300"><rect x="0" y="0" width="300" height="300" fill="#ffffff"/><g transform="scale(10.345)"><g transform="translate(0,0)"><path fill-rule="evenodd" d="M10 0L10 1L8 1L8 3L9 3L9 4L8 4L8 8L6 8L6 9L4 9L4 8L3 8L3 10L2 10L2 8L0 8L0 9L1 9L1 10L0 10L0 14L1 14L1 15L0 15L0 16L1 16L1 18L0 18L0 19L1 19L1 18L2 18L2 21L3 21L3 19L5 19L5 20L4 20L4 21L7 21L7 20L8 20L8 23L9 23L9 24L10 24L10 26L12 26L12 28L10 28L10 27L8 27L8 29L9 29L9 28L10 28L10 29L12 29L12 28L13 28L13 29L16 29L16 28L15 28L15 27L13 27L13 24L12 24L12 25L11 25L11 24L10 24L10 23L11 23L11 22L12 22L12 21L11 21L11 20L10 20L10 21L11 21L11 22L10 22L10 23L9 23L9 20L8 20L8 17L9 17L9 19L12 19L12 20L13 20L13 18L14 18L14 20L16 20L16 21L14 21L14 22L17 22L17 23L20 23L20 25L19 25L19 26L18 26L18 25L17 25L17 24L16 24L16 23L14 23L14 24L15 24L15 26L16 26L16 25L17 25L17 28L20 28L20 29L21 29L21 28L22 28L22 29L23 29L23 28L25 28L25 29L28 29L28 27L29 27L29 26L28 26L28 25L29 25L29 24L27 24L27 23L28 23L28 21L27 21L27 20L25 20L25 19L24 19L24 20L23 20L23 18L24 18L24 17L21 17L21 16L24 16L24 15L25 15L25 16L26 16L26 14L24 14L24 15L21 15L21 16L20 16L20 15L19 15L19 16L20 16L20 17L19 17L19 18L18 18L18 19L17 19L17 20L16 20L16 19L15 19L15 18L17 18L17 17L14 17L14 16L12 16L12 12L14 12L14 13L13 13L13 15L15 15L15 16L18 16L18 15L17 15L17 14L19 14L19 13L17 13L17 12L14 12L14 11L15 11L15 10L16 10L16 11L17 11L17 10L18 10L18 11L19 11L19 12L20 12L20 10L21 10L21 11L22 11L22 10L23 10L23 12L22 12L22 13L23 13L23 12L25 12L25 13L26 13L26 12L29 12L29 11L27 11L27 10L29 10L29 9L28 9L28 8L26 8L26 9L25 9L25 8L22 8L22 9L21 9L21 5L20 5L20 4L21 4L21 2L20 2L20 3L18 3L18 1L19 1L19 0L18 0L18 1L17 1L17 2L16 2L16 1L15 1L15 2L16 2L16 3L15 3L15 4L14 4L14 3L12 3L12 7L11 7L11 4L10 4L10 3L9 3L9 2L11 2L11 0ZM13 1L13 2L14 2L14 1ZM16 3L16 4L15 4L15 5L14 5L14 4L13 4L13 7L12 7L12 8L13 8L13 9L14 9L14 10L15 10L15 9L14 9L14 8L15 8L15 7L16 7L16 6L17 6L17 7L18 7L18 5L16 5L16 4L17 4L17 3ZM9 5L9 8L8 8L8 9L6 9L6 10L7 10L7 11L6 11L6 12L7 12L7 13L6 13L6 14L5 14L5 13L3 13L3 12L5 12L5 10L4 10L4 11L2 11L2 10L1 10L1 12L2 12L2 15L1 15L1 16L2 16L2 15L4 15L4 16L7 16L7 15L8 15L8 16L9 16L9 17L10 17L10 18L12 18L12 16L11 16L11 13L10 13L10 12L9 12L9 11L11 11L11 8L10 8L10 5ZM15 5L15 6L14 6L14 7L13 7L13 8L14 8L14 7L15 7L15 6L16 6L16 5ZM19 6L19 9L18 9L18 8L17 8L17 9L18 9L18 10L19 10L19 9L20 9L20 6ZM8 9L8 11L7 11L7 12L8 12L8 11L9 11L9 10L10 10L10 9ZM23 9L23 10L25 10L25 9ZM26 9L26 10L27 10L27 9ZM7 13L7 14L6 14L6 15L7 15L7 14L8 14L8 15L9 15L9 16L10 16L10 17L11 17L11 16L10 16L10 15L9 15L9 14L10 14L10 13L9 13L9 14L8 14L8 13ZM16 13L16 14L15 14L15 15L16 15L16 14L17 14L17 13ZM20 13L20 14L21 14L21 13ZM4 14L4 15L5 15L5 14ZM28 14L28 15L27 15L27 18L26 18L26 17L25 17L25 18L26 18L26 19L28 19L28 20L29 20L29 18L28 18L28 15L29 15L29 14ZM2 17L2 18L5 18L5 19L6 19L6 20L7 20L7 19L6 19L6 18L7 18L7 17ZM20 17L20 18L19 18L19 19L22 19L22 18L21 18L21 17ZM0 20L0 21L1 21L1 20ZM18 20L18 21L20 21L20 20ZM21 21L21 24L24 24L24 21ZM25 21L25 23L26 23L26 22L27 22L27 21ZM22 22L22 23L23 23L23 22ZM26 24L26 26L27 26L27 27L26 27L26 28L27 28L27 27L28 27L28 26L27 26L27 24ZM8 25L8 26L9 26L9 25ZM20 25L20 26L19 26L19 27L20 27L20 28L21 28L21 26L22 26L22 25ZM24 25L24 26L23 26L23 27L22 27L22 28L23 28L23 27L24 27L24 26L25 26L25 25ZM0 0L0 7L7 7L7 0ZM1 1L1 6L6 6L6 1ZM2 2L2 5L5 5L5 2ZM22 0L22 7L29 7L29 0ZM23 1L23 6L28 6L28 1ZM24 2L24 5L27 5L27 2ZM0 22L0 29L7 29L7 22ZM1 23L1 28L6 28L6 23ZM2 24L2 27L5 27L5 24Z" fill="#000000"/></g></g></svg>
