<?xml version="1.0" encoding="UTF-8"?>
<svg xmlns="http://www.w3.org/2000/svg" version="1.1" width="300" height="300" viewBox="0 0 300 300"><rect x="0" y="0" width="300" height="300" fill="#ffffff"/><g transform="scale(12)"><g transform="translate(0,0)"><path fill-rule="evenodd" d="M8 0L8 4L9 4L9 5L8 5L8 7L9 7L9 6L10 6L10 9L11 9L11 8L12 8L12 9L13 9L13 10L9 10L9 9L8 9L8 11L7 11L7 10L6 10L6 11L5 11L5 10L4 10L4 9L7 9L7 8L4 8L4 9L3 9L3 10L2 10L2 8L0 8L0 9L1 9L1 10L0 10L0 11L2 11L2 12L1 12L1 13L0 13L0 14L1 14L1 13L4 13L4 11L5 11L5 12L6 12L6 13L5 13L5 14L4 14L4 16L3 16L3 15L2 15L2 16L0 16L0 17L2 17L2 16L3 16L3 17L4 17L4 16L5 16L5 14L6 14L6 15L7 15L7 14L6 14L6 13L7 13L7 12L8 12L8 11L9 11L9 12L10 12L10 11L12 11L12 12L13 12L13 13L14 13L14 14L15 14L15 15L14 15L14 16L13 16L13 15L12 15L12 14L11 14L11 13L8 13L8 14L9 14L9 15L8 15L8 16L6 16L6 17L8 17L8 18L9 18L9 19L8 19L8 21L9 21L9 22L10 22L10 24L9 24L9 23L8 23L8 25L10 25L10 24L13 24L13 25L14 25L14 24L13 24L13 23L12 23L12 22L10 22L10 21L9 21L9 19L11 19L11 21L13 21L13 22L16 22L16 23L15 23L15 25L16 25L16 23L18 23L18 24L17 24L17 25L20 25L20 24L19 24L19 21L21 21L21 22L22 22L22 21L23 21L23 23L21 23L21 25L25 25L25 24L24 24L24 22L25 22L25 21L24 21L24 20L25 20L25 19L23 19L23 18L22 18L22 19L21 19L21 17L23 17L23 14L21 14L21 12L22 12L22 13L24 13L24 14L25 14L25 12L24 12L24 9L25 9L25 8L21 8L21 9L20 9L20 8L19 8L19 9L18 9L18 11L17 11L17 9L16 9L16 8L17 8L17 6L16 6L16 7L15 7L15 5L14 5L14 4L16 4L16 5L17 5L17 4L16 4L16 2L17 2L17 0L16 0L16 2L15 2L15 1L14 1L14 0L13 0L13 1L12 1L12 2L11 2L11 3L10 3L10 2L9 2L9 0ZM13 1L13 3L11 3L11 4L10 4L10 5L11 5L11 7L12 7L12 8L14 8L14 9L15 9L15 10L13 10L13 12L14 12L14 13L16 13L16 14L18 14L18 15L17 15L17 16L19 16L19 15L20 15L20 16L21 16L21 15L20 15L20 14L19 14L19 13L17 13L17 12L14 12L14 11L15 11L15 10L16 10L16 9L15 9L15 8L14 8L14 5L13 5L13 4L14 4L14 1ZM12 6L12 7L13 7L13 6ZM19 9L19 12L20 12L20 9ZM21 9L21 10L22 10L22 11L23 11L23 10L22 10L22 9ZM3 10L3 11L4 11L4 10ZM6 11L6 12L7 12L7 11ZM9 15L9 18L14 18L14 17L15 17L15 16L16 16L16 15L15 15L15 16L14 16L14 17L11 17L11 16L12 16L12 15ZM17 17L17 20L20 20L20 17ZM24 17L24 18L25 18L25 17ZM15 18L15 19L12 19L12 20L13 20L13 21L14 21L14 20L15 20L15 21L16 21L16 22L17 22L17 21L16 21L16 20L15 20L15 19L16 19L16 18ZM18 18L18 19L19 19L19 18ZM0 0L0 7L7 7L7 0ZM1 1L1 6L6 6L6 1ZM2 2L2 5L5 5L5 2ZM18 0L18 7L25 7L25 0ZM19 1L19 6L24 6L24 1ZM20 2L20 5L23 5L23 2ZM0 18L0 25L7 25L7 18ZM1 19L1 24L6 24L6 19ZM2 20L2 23L5 23L5 20Z" fill="#000000"/></g></g></svg>
