<?xml version="1.0" encoding="UTF-8"?>
<svg xmlns="http://www.w3.org/2000/svg" version="1.1" width="300" height="300" viewBox="0 0 300 300"><rect x="0" y="0" width="300" height="300" fill="#ffffff"/><g transform="scale(12)"><g transform="translate(0,0)"><path fill-rule="evenodd" d="M8 0L8 2L9 2L9 3L10 3L10 4L8 4L8 9L7 9L7 8L5 8L5 10L2 10L2 9L3 9L3 8L0 8L0 9L1 9L1 10L2 10L2 11L0 11L0 12L1 12L1 13L2 13L2 14L0 14L0 15L2 15L2 16L0 16L0 17L2 17L2 16L4 16L4 15L2 15L2 14L4 14L4 13L5 13L5 17L7 17L7 16L9 16L9 14L10 14L10 13L11 13L11 12L12 12L12 14L11 14L11 15L12 15L12 14L13 14L13 15L15 15L15 16L16 16L16 17L15 17L15 18L16 18L16 20L15 20L15 19L14 19L14 18L13 18L13 17L14 17L14 16L11 16L11 17L10 17L10 19L8 19L8 20L10 20L10 22L11 22L11 23L13 23L13 22L14 22L14 25L15 25L15 22L16 22L16 25L17 25L17 24L18 24L18 25L19 25L19 23L21 23L21 16L18 16L18 15L19 15L19 13L22 13L22 12L21 12L21 11L22 11L22 10L23 10L23 11L25 11L25 8L23 8L23 9L22 9L22 10L21 10L21 11L20 11L20 9L21 9L21 8L15 8L15 6L14 6L14 8L13 8L13 5L12 5L12 4L13 4L13 3L14 3L14 5L16 5L16 7L17 7L17 5L16 5L16 4L15 4L15 2L13 2L13 1L12 1L12 0L11 0L11 1L12 1L12 2L10 2L10 0ZM14 0L14 1L16 1L16 0ZM12 2L12 3L11 3L11 4L12 4L12 3L13 3L13 2ZM16 2L16 3L17 3L17 2ZM9 5L9 8L10 8L10 9L9 9L9 10L8 10L8 12L7 12L7 11L6 11L6 10L7 10L7 9L6 9L6 10L5 10L5 13L6 13L6 14L7 14L7 15L6 15L6 16L7 16L7 15L8 15L8 14L9 14L9 12L10 12L10 11L11 11L11 10L12 10L12 9L11 9L11 7L12 7L12 5L11 5L11 7L10 7L10 5ZM14 8L14 9L13 9L13 12L14 12L14 14L15 14L15 12L17 12L17 13L16 13L16 14L18 14L18 11L19 11L19 12L20 12L20 11L19 11L19 9L17 9L17 11L15 11L15 12L14 12L14 9L15 9L15 10L16 10L16 9L15 9L15 8ZM9 10L9 11L10 11L10 10ZM3 12L3 13L4 13L4 12ZM6 12L6 13L7 13L7 14L8 14L8 13L7 13L7 12ZM24 12L24 13L25 13L25 12ZM20 14L20 15L23 15L23 17L24 17L24 15L25 15L25 14L24 14L24 15L23 15L23 14ZM16 15L16 16L17 16L17 15ZM8 17L8 18L9 18L9 17ZM11 17L11 18L12 18L12 19L13 19L13 20L14 20L14 22L15 22L15 20L14 20L14 19L13 19L13 18L12 18L12 17ZM17 17L17 20L20 20L20 17ZM18 18L18 19L19 19L19 18ZM22 18L22 19L23 19L23 18ZM24 18L24 19L25 19L25 18ZM23 20L23 21L22 21L22 23L25 23L25 20ZM11 21L11 22L12 22L12 21ZM16 21L16 22L17 22L17 21ZM18 21L18 23L19 23L19 21ZM23 21L23 22L24 22L24 21ZM8 22L8 25L13 25L13 24L10 24L10 23L9 23L9 22ZM20 24L20 25L21 25L21 24ZM24 24L24 25L25 25L25 24ZM0 0L0 7L7 7L7 0ZM1 1L1 6L6 6L6 1ZM2 2L2 5L5 5L5 2ZM18 0L18 7L25 7L25 0ZM19 1L19 6L24 6L24 1ZM20 2L20 5L23 5L23 2ZM0 18L0 25L7 25L7 18ZM1 19L1 24L6 24L6 19ZM2 20L2 23L5 23L5 20Z" fill="#000000"/></g></g></svg>
