<?xml version="1.0" encoding="UTF-8"?>
<svg xmlns="http://www.w3.org/2000/svg" version="1.1" width="300" height="300" viewBox="0 0 300 300"><rect x="0" y="0" width="300" height="300" fill="#ffffff"/><g transform="scale(12)"><g transform="translate(0,0)"><path fill-rule="evenodd" d="M9 0L9 1L8 1L8 2L9 2L9 3L8 3L8 4L10 4L10 7L11 7L11 4L12 4L12 7L13 7L13 6L14 6L14 7L15 7L15 6L16 6L16 7L17 7L17 4L15 4L15 3L16 3L16 1L17 1L17 0L14 0L14 4L15 4L15 6L14 6L14 5L13 5L13 3L12 3L12 2L13 2L13 1L11 1L11 2L10 2L10 0ZM10 3L10 4L11 4L11 3ZM8 5L8 7L9 7L9 5ZM0 8L0 11L2 11L2 14L3 14L3 16L2 16L2 17L3 17L3 16L4 16L4 17L7 17L7 16L8 16L8 15L9 15L9 16L10 16L10 18L9 18L9 17L8 17L8 19L10 19L10 21L11 21L11 19L10 19L10 18L11 18L11 13L13 13L13 11L12 11L12 12L11 12L11 11L10 11L10 9L13 9L13 10L14 10L14 9L15 9L15 12L14 12L14 13L16 13L16 10L17 10L17 11L18 11L18 10L20 10L20 12L21 12L21 14L18 14L18 15L17 15L17 16L16 16L16 19L15 19L15 18L14 18L14 17L15 17L15 15L16 15L16 14L15 14L15 15L14 15L14 17L13 17L13 18L14 18L14 20L13 20L13 19L12 19L12 21L14 21L14 20L15 20L15 21L17 21L17 22L21 22L21 24L22 24L22 25L25 25L25 21L24 21L24 20L25 20L25 17L24 17L24 18L23 18L23 19L24 19L24 20L22 20L22 19L21 19L21 18L22 18L22 17L23 17L23 16L25 16L25 10L24 10L24 8L23 8L23 9L22 9L22 8L21 8L21 10L20 10L20 8L19 8L19 9L18 9L18 8L14 8L14 9L13 9L13 8L6 8L6 9L8 9L8 11L7 11L7 10L5 10L5 8ZM2 9L2 10L3 10L3 9ZM17 9L17 10L18 10L18 9ZM4 10L4 11L3 11L3 12L4 12L4 13L5 13L5 14L4 14L4 15L6 15L6 16L7 16L7 15L6 15L6 14L8 14L8 13L9 13L9 14L10 14L10 13L11 13L11 12L10 12L10 13L9 13L9 12L7 12L7 11L5 11L5 10ZM23 10L23 11L22 11L22 12L24 12L24 10ZM4 11L4 12L5 12L5 13L7 13L7 12L5 12L5 11ZM0 12L0 17L1 17L1 12ZM17 12L17 13L19 13L19 12ZM22 13L22 16L21 16L21 15L20 15L20 16L21 16L21 17L22 17L22 16L23 16L23 14L24 14L24 13ZM12 14L12 15L13 15L13 14ZM17 17L17 20L20 20L20 17ZM18 18L18 19L19 19L19 18ZM8 20L8 25L10 25L10 22L9 22L9 20ZM21 20L21 21L22 21L22 20ZM12 22L12 24L13 24L13 22ZM22 22L22 24L24 24L24 22ZM15 23L15 24L14 24L14 25L15 25L15 24L17 24L17 25L19 25L19 24L20 24L20 23L19 23L19 24L18 24L18 23ZM0 0L0 7L7 7L7 0ZM1 1L1 6L6 6L6 1ZM2 2L2 5L5 5L5 2ZM18 0L18 7L25 7L25 0ZM19 1L19 6L24 6L24 1ZM20 2L20 5L23 5L23 2ZM0 18L0 25L7 25L7 18ZM1 19L1 24L6 24L6 19ZM2 20L2 23L5 23L5 20Z" fill="#000000"/></g></g></svg>
