<?xml version="1.0" encoding="UTF-8"?>
<svg xmlns="http://www.w3.org/2000/svg" version="1.1" width="300" height="300" viewBox="0 0 300 300"><rect x="0" y="0" width="300" height="300" fill="#ffffff"/><g transform="scale(12)"><g transform="translate(0,0)"><path fill-rule="evenodd" d="M8 0L8 4L10 4L10 3L11 3L11 4L12 4L12 2L11 2L11 0ZM12 0L12 1L14 1L14 3L13 3L13 4L14 4L14 5L11 5L11 6L10 6L10 7L9 7L9 5L8 5L8 7L9 7L9 8L10 8L10 7L11 7L11 6L12 6L12 8L11 8L11 9L9 9L9 10L8 10L8 11L7 11L7 10L6 10L6 9L7 9L7 8L4 8L4 9L2 9L2 8L0 8L0 11L1 11L1 12L0 12L0 14L1 14L1 12L3 12L3 13L2 13L2 14L3 14L3 15L2 15L2 16L0 16L0 17L2 17L2 16L3 16L3 17L5 17L5 16L6 16L6 17L8 17L8 18L10 18L10 19L8 19L8 21L9 21L9 23L8 23L8 25L13 25L13 23L14 23L14 21L13 21L13 22L12 22L12 19L13 19L13 18L16 18L16 19L15 19L15 20L16 20L16 21L15 21L15 22L16 22L16 23L15 23L15 25L16 25L16 23L18 23L18 24L17 24L17 25L25 25L25 24L24 24L24 22L25 22L25 21L23 21L23 18L22 18L22 19L21 19L21 17L23 17L23 14L21 14L21 12L22 12L22 13L24 13L24 14L25 14L25 12L24 12L24 9L25 9L25 8L21 8L21 9L20 9L20 8L19 8L19 9L18 9L18 11L17 11L17 6L16 6L16 9L14 9L14 10L15 10L15 11L14 11L14 12L17 12L17 13L19 13L19 16L17 16L17 15L18 15L18 14L16 14L16 13L15 13L15 14L14 14L14 13L13 13L13 12L12 12L12 11L13 11L13 9L12 9L12 8L13 8L13 6L14 6L14 7L15 7L15 5L17 5L17 0L15 0L15 1L14 1L14 0ZM15 1L15 2L16 2L16 1ZM9 2L9 3L10 3L10 2ZM15 3L15 4L16 4L16 3ZM4 9L4 10L5 10L5 9ZM11 9L11 10L9 10L9 11L8 11L8 13L6 13L6 12L7 12L7 11L6 11L6 12L5 12L5 11L3 11L3 12L5 12L5 14L4 14L4 13L3 13L3 14L4 14L4 15L3 15L3 16L4 16L4 15L6 15L6 16L9 16L9 17L10 17L10 18L12 18L12 17L10 17L10 16L12 16L12 15L13 15L13 17L14 17L14 16L16 16L16 15L14 15L14 14L13 14L13 13L12 13L12 12L11 12L11 13L10 13L10 11L11 11L11 10L12 10L12 9ZM19 9L19 12L20 12L20 9ZM21 9L21 10L22 10L22 11L23 11L23 10L22 10L22 9ZM1 10L1 11L2 11L2 10ZM9 13L9 14L6 14L6 15L9 15L9 16L10 16L10 13ZM20 15L20 16L21 16L21 15ZM17 17L17 20L20 20L20 17ZM24 17L24 18L25 18L25 17ZM18 18L18 19L19 19L19 18ZM9 20L9 21L10 21L10 23L9 23L9 24L12 24L12 23L11 23L11 21L10 21L10 20ZM16 21L16 22L17 22L17 21ZM19 21L19 24L21 24L21 21ZM22 21L22 23L23 23L23 21ZM0 0L0 7L7 7L7 0ZM1 1L1 6L6 6L6 1ZM2 2L2 5L5 5L5 2ZM18 0L18 7L25 7L25 0ZM19 1L19 6L24 6L24 1ZM20 2L20 5L23 5L23 2ZM0 18L0 25L7 25L7 18ZM1 19L1 24L6 24L6 19ZM2 20L2 23L5 23L5 20Z" fill="#000000"/></g></g></svg>
