<?xml version="1.0" encoding="UTF-8"?>
<svg xmlns="http://www.w3.org/2000/svg" version="1.1" width="300" height="300" viewBox="0 0 300 300"><rect x="0" y="0" width="300" height="300" fill="#ffffff"/><g transform="scale(10.345)"><g transform="translate(0,0)"><path fill-rule="evenodd" d="M9 0L9 1L10 1L10 2L8 2L8 3L9 3L9 4L10 4L10 5L9 5L9 6L8 6L8 8L4 8L4 9L3 9L3 8L0 8L0 9L3 9L3 10L5 10L5 9L7 9L7 10L6 10L6 11L3 11L3 14L5 14L5 15L2 15L2 17L1 17L1 14L2 14L2 13L0 13L0 17L1 17L1 18L0 18L0 19L1 19L1 20L0 20L0 21L1 21L1 20L2 20L2 21L3 21L3 20L4 20L4 21L8 21L8 25L9 25L9 26L8 26L8 29L11 29L11 28L12 28L12 29L13 29L13 28L12 28L12 27L11 27L11 26L12 26L12 24L14 24L14 26L13 26L13 27L14 27L14 26L18 26L18 27L15 27L15 29L17 29L17 28L18 28L18 27L19 27L19 29L21 29L21 28L22 28L22 29L23 29L23 28L26 28L26 29L29 29L29 28L28 28L28 27L29 27L29 24L28 24L28 23L29 23L29 22L28 22L28 21L27 21L27 22L26 22L26 23L25 23L25 21L26 21L26 19L29 19L29 18L28 18L28 17L29 17L29 16L28 16L28 15L29 15L29 13L28 13L28 15L27 15L27 14L26 14L26 11L27 11L27 12L29 12L29 9L27 9L27 8L26 8L26 9L25 9L25 10L23 10L23 8L20 8L20 7L21 7L21 6L20 6L20 5L19 5L19 4L20 4L20 3L21 3L21 1L19 1L19 0L16 0L16 1L15 1L15 0L12 0L12 1L10 1L10 0ZM13 1L13 2L14 2L14 1ZM18 1L18 2L15 2L15 3L16 3L16 4L15 4L15 5L14 5L14 4L13 4L13 3L12 3L12 2L11 2L11 3L12 3L12 4L11 4L11 5L10 5L10 6L9 6L9 7L10 7L10 6L11 6L11 8L12 8L12 10L10 10L10 8L9 8L9 9L8 9L8 10L7 10L7 11L6 11L6 12L7 12L7 13L5 13L5 12L4 12L4 13L5 13L5 14L7 14L7 13L8 13L8 14L11 14L11 13L12 13L12 12L13 12L13 13L14 13L14 14L13 14L13 15L14 15L14 14L15 14L15 15L16 15L16 16L17 16L17 17L19 17L19 15L20 15L20 16L21 16L21 17L22 17L22 16L21 16L21 15L23 15L23 14L25 14L25 12L24 12L24 11L21 11L21 10L19 10L19 8L17 8L17 7L18 7L18 6L19 6L19 7L20 7L20 6L19 6L19 5L18 5L18 4L17 4L17 3L18 3L18 2L19 2L19 1ZM13 5L13 6L12 6L12 8L14 8L14 10L13 10L13 11L14 11L14 10L17 10L17 11L15 11L15 12L18 12L18 10L17 10L17 9L15 9L15 6L16 6L16 7L17 7L17 6L18 6L18 5L17 5L17 6L16 6L16 5L15 5L15 6L14 6L14 5ZM13 6L13 7L14 7L14 6ZM26 9L26 10L25 10L25 11L26 11L26 10L27 10L27 11L28 11L28 10L27 10L27 9ZM1 10L1 12L2 12L2 10ZM9 10L9 11L7 11L7 12L9 12L9 11L10 11L10 10ZM11 11L11 12L12 12L12 11ZM22 12L22 14L23 14L23 12ZM15 13L15 14L16 14L16 15L17 15L17 16L18 16L18 15L17 15L17 14L18 14L18 13ZM19 13L19 14L21 14L21 13ZM6 15L6 16L7 16L7 17L6 17L6 18L5 18L5 17L4 17L4 16L3 16L3 19L5 19L5 20L8 20L8 19L9 19L9 20L11 20L11 21L12 21L12 20L13 20L13 21L14 21L14 22L13 22L13 23L14 23L14 22L15 22L15 23L16 23L16 24L15 24L15 25L16 25L16 24L17 24L17 23L18 23L18 22L19 22L19 25L18 25L18 26L19 26L19 27L20 27L20 28L21 28L21 27L22 27L22 26L23 26L23 25L20 25L20 20L21 20L21 19L22 19L22 20L24 20L24 19L26 19L26 18L27 18L27 15L26 15L26 18L25 18L25 15L24 15L24 16L23 16L23 19L22 19L22 18L21 18L21 19L20 19L20 18L19 18L19 19L18 19L18 20L15 20L15 19L16 19L16 18L14 18L14 16L12 16L12 15L11 15L11 16L12 16L12 18L11 18L11 19L10 19L10 18L9 18L9 16L10 16L10 15L9 15L9 16L8 16L8 15ZM1 18L1 19L2 19L2 18ZM6 18L6 19L7 19L7 18ZM13 18L13 19L14 19L14 18ZM11 19L11 20L12 20L12 19ZM15 21L15 22L18 22L18 21ZM21 21L21 24L24 24L24 21ZM22 22L22 23L23 23L23 22ZM11 23L11 24L9 24L9 25L10 25L10 26L11 26L11 24L12 24L12 23ZM26 23L26 25L24 25L24 26L27 26L27 27L26 27L26 28L27 28L27 27L28 27L28 26L27 26L27 23ZM20 26L20 27L21 27L21 26ZM10 27L10 28L11 28L11 27ZM0 0L0 7L7 7L7 0ZM1 1L1 6L6 6L6 1ZM2 2L2 5L5 5L5 2ZM22 0L22 7L29 7L29 0ZM23 1L23 6L28 6L28 1ZM24 2L24 5L27 5L27 2ZM0 22L0 29L7 29L7 22ZM1 23L1 28L6 28L6 23ZM2 24L2 27L5 27L5 24Z" fill="#000000"/></g></g></svg>
