<?xml version="1.0" encoding="UTF-8"?>
<svg xmlns="http://www.w3.org/2000/svg" version="1.1" width="300" height="300" viewBox="0 0 300 300"><rect x="0" y="0" width="300" height="300" fill="#ffffff"/><g transform="scale(12)"><g transform="translate(0,0)"><path fill-rule="evenodd" d="M9 0L9 1L8 1L8 2L9 2L9 3L8 3L8 4L10 4L10 7L11 7L11 4L12 4L12 5L13 5L13 4L15 4L15 3L16 3L16 2L17 2L17 0L16 0L16 1L15 1L15 2L14 2L14 0L13 0L13 1L11 1L11 2L10 2L10 0ZM12 2L12 4L13 4L13 3L14 3L14 2ZM10 3L10 4L11 4L11 3ZM16 4L16 5L15 5L15 6L14 6L14 8L13 8L13 6L12 6L12 9L14 9L14 10L11 10L11 11L10 11L10 9L11 9L11 8L6 8L6 9L8 9L8 10L6 10L6 11L8 11L8 13L7 13L7 12L5 12L5 11L4 11L4 10L5 10L5 8L0 8L0 9L1 9L1 11L0 11L0 17L1 17L1 12L2 12L2 13L4 13L4 15L3 15L3 14L2 14L2 15L3 15L3 16L2 16L2 17L3 17L3 16L5 16L5 17L8 17L8 19L9 19L9 20L8 20L8 25L9 25L9 22L10 22L10 23L11 23L11 22L12 22L12 23L13 23L13 22L12 22L12 21L17 21L17 22L21 22L21 24L22 24L22 25L25 25L25 21L23 21L23 20L22 20L22 19L21 19L21 18L22 18L22 17L23 17L23 16L25 16L25 10L24 10L24 8L23 8L23 9L22 9L22 8L21 8L21 10L20 10L20 8L19 8L19 9L18 9L18 8L17 8L17 6L16 6L16 5L17 5L17 4ZM8 5L8 7L9 7L9 5ZM15 6L15 8L16 8L16 6ZM3 9L3 10L4 10L4 9ZM15 9L15 10L14 10L14 11L12 11L12 12L14 12L14 13L13 13L13 15L12 15L12 13L11 13L11 12L10 12L10 13L11 13L11 15L10 15L10 14L9 14L9 13L8 13L8 14L7 14L7 13L5 13L5 16L7 16L7 15L8 15L8 17L9 17L9 16L10 16L10 18L9 18L9 19L10 19L10 20L12 20L12 19L13 19L13 20L15 20L15 19L16 19L16 16L17 16L17 15L18 15L18 14L21 14L21 12L20 12L20 10L18 10L18 9L17 9L17 10L16 10L16 9ZM15 10L15 11L14 11L14 12L15 12L15 13L16 13L16 10ZM17 10L17 11L18 11L18 10ZM23 10L23 11L22 11L22 12L24 12L24 10ZM2 11L2 12L3 12L3 11ZM17 12L17 13L19 13L19 12ZM22 13L22 16L21 16L21 15L19 15L19 16L21 16L21 17L22 17L22 16L23 16L23 14L24 14L24 13ZM6 14L6 15L7 15L7 14ZM8 14L8 15L9 15L9 14ZM15 14L15 15L16 15L16 14ZM11 16L11 18L10 18L10 19L11 19L11 18L12 18L12 17L14 17L14 18L15 18L15 16ZM17 17L17 20L20 20L20 17ZM24 17L24 18L23 18L23 19L25 19L25 17ZM18 18L18 19L19 19L19 18ZM21 20L21 21L22 21L22 24L24 24L24 22L23 22L23 21L22 21L22 20ZM14 23L14 24L13 24L13 25L15 25L15 24L17 24L17 25L19 25L19 24L20 24L20 23L19 23L19 24L18 24L18 23ZM10 24L10 25L11 25L11 24ZM0 0L0 7L7 7L7 0ZM1 1L1 6L6 6L6 1ZM2 2L2 5L5 5L5 2ZM18 0L18 7L25 7L25 0ZM19 1L19 6L24 6L24 1ZM20 2L20 5L23 5L23 2ZM0 18L0 25L7 25L7 18ZM1 19L1 24L6 24L6 19ZM2 20L2 23L5 23L5 20Z" fill="#000000"/></g></g></svg>
