<?xml version="1.0" encoding="UTF-8"?>
<svg xmlns="http://www.w3.org/2000/svg" version="1.1" width="300" height="300" viewBox="0 0 300 300"><rect x="0" y="0" width="300" height="300" fill="#ffffff"/><g transform="scale(10.345)"><g transform="translate(0,0)"><path fill-rule="evenodd" d="M9 0L9 1L8 1L8 2L9 2L9 3L8 3L8 4L10 4L10 7L11 7L11 4L12 4L12 5L13 5L13 6L12 6L12 9L13 9L13 8L14 8L14 9L16 9L16 10L15 10L15 11L14 11L14 12L15 12L15 13L12 13L12 11L13 11L13 10L11 10L11 11L10 11L10 9L11 9L11 8L6 8L6 9L5 9L5 8L0 8L0 13L1 13L1 14L0 14L0 15L1 15L1 14L2 14L2 15L3 15L3 16L4 16L4 17L3 17L3 18L2 18L2 16L1 16L1 17L0 17L0 21L1 21L1 18L2 18L2 19L3 19L3 18L4 18L4 19L8 19L8 20L9 20L9 19L10 19L10 18L11 18L11 21L8 21L8 23L11 23L11 21L12 21L12 22L13 22L13 23L12 23L12 25L13 25L13 24L14 24L14 25L16 25L16 26L15 26L15 27L14 27L14 28L15 28L15 29L18 29L18 28L15 28L15 27L16 27L16 26L18 26L18 27L19 27L19 26L20 26L20 25L24 25L24 26L21 26L21 27L20 27L20 28L19 28L19 29L20 29L20 28L21 28L21 29L23 29L23 27L25 27L25 26L26 26L26 25L27 25L27 28L28 28L28 26L29 26L29 25L28 25L28 24L29 24L29 23L28 23L28 24L25 24L25 21L27 21L27 22L26 22L26 23L27 23L27 22L28 22L28 21L29 21L29 20L24 20L24 19L23 19L23 20L22 20L22 18L25 18L25 17L27 17L27 18L26 18L26 19L27 19L27 18L28 18L28 17L27 17L27 16L28 16L28 14L29 14L29 11L28 11L28 10L29 10L29 9L28 9L28 8L27 8L27 12L25 12L25 13L22 13L22 12L21 12L21 10L23 10L23 12L24 12L24 11L25 11L25 9L26 9L26 8L25 8L25 9L24 9L24 8L23 8L23 9L22 9L22 8L20 8L20 7L21 7L21 4L20 4L20 3L19 3L19 1L21 1L21 0L19 0L19 1L17 1L17 0L15 0L15 1L17 1L17 2L16 2L16 3L17 3L17 4L18 4L18 5L20 5L20 7L19 7L19 6L18 6L18 7L19 7L19 8L20 8L20 9L18 9L18 8L14 8L14 7L15 7L15 6L16 6L16 7L17 7L17 6L16 6L16 4L12 4L12 2L13 2L13 1L11 1L11 2L10 2L10 0ZM14 2L14 3L15 3L15 2ZM17 2L17 3L18 3L18 4L19 4L19 3L18 3L18 2ZM10 3L10 4L11 4L11 3ZM8 5L8 7L9 7L9 5ZM13 6L13 7L14 7L14 6ZM1 9L1 11L4 11L4 10L5 10L5 12L7 12L7 13L6 13L6 14L7 14L7 13L8 13L8 15L9 15L9 16L7 16L7 15L6 15L6 16L5 16L5 15L4 15L4 16L5 16L5 17L4 17L4 18L8 18L8 17L9 17L9 18L10 18L10 17L11 17L11 18L13 18L13 19L12 19L12 21L15 21L15 22L16 22L16 21L17 21L17 20L18 20L18 21L19 21L19 20L21 20L21 19L20 19L20 18L19 18L19 17L21 17L21 15L20 15L20 14L19 14L19 16L18 16L18 13L17 13L17 12L19 12L19 13L21 13L21 14L22 14L22 13L21 13L21 12L20 12L20 10L18 10L18 9L17 9L17 11L16 11L16 13L15 13L15 14L16 14L16 13L17 13L17 16L16 16L16 15L14 15L14 16L13 16L13 17L12 17L12 15L13 15L13 14L12 14L12 13L11 13L11 12L10 12L10 13L11 13L11 14L10 14L10 15L9 15L9 12L8 12L8 11L6 11L6 10L7 10L7 9L6 9L6 10L5 10L5 9L4 9L4 10L2 10L2 9ZM8 9L8 10L9 10L9 9ZM1 12L1 13L2 13L2 14L3 14L3 13L4 13L4 12L3 12L3 13L2 13L2 12ZM25 13L25 14L26 14L26 15L25 15L25 16L24 16L24 15L23 15L23 16L22 16L22 17L25 17L25 16L27 16L27 14L28 14L28 13ZM10 15L10 16L9 16L9 17L10 17L10 16L11 16L11 15ZM6 16L6 17L7 17L7 16ZM14 16L14 17L16 17L16 18L15 18L15 19L14 19L14 20L15 20L15 21L16 21L16 19L19 19L19 18L17 18L17 17L18 17L18 16L17 16L17 17L16 17L16 16ZM3 20L3 21L5 21L5 20ZM6 20L6 21L7 21L7 20ZM21 21L21 24L24 24L24 21ZM17 22L17 23L14 23L14 24L18 24L18 25L20 25L20 24L18 24L18 22ZM22 22L22 23L23 23L23 22ZM8 24L8 29L10 29L10 28L11 28L11 29L12 29L12 27L13 27L13 26L11 26L11 27L10 27L10 28L9 28L9 26L10 26L10 25L11 25L11 24ZM0 0L0 7L7 7L7 0ZM1 1L1 6L6 6L6 1ZM2 2L2 5L5 5L5 2ZM22 0L22 7L29 7L29 0ZM23 1L23 6L28 6L28 1ZM24 2L24 5L27 5L27 2ZM0 22L0 29L7 29L7 22ZM1 23L1 28L6 28L6 23ZM2 24L2 27L5 27L5 24Z" fill="#000000"/></g></g></svg>
