<?xml version="1.0" encoding="UTF-8"?>
<svg xmlns="http://www.w3.org/2000/svg" version="1.1" width="300" height="300" viewBox="0 0 300 300"><rect x="0" y="0" width="300" height="300" fill="#ffffff"/><g transform="scale(12)"><g transform="translate(0,0)"><path fill-rule="evenodd" d="M8 0L8 4L10 4L10 5L8 5L8 7L9 7L9 8L10 8L10 9L9 9L9 12L10 12L10 11L11 11L11 12L13 12L13 14L10 14L10 13L8 13L8 11L7 11L7 10L4 10L4 9L7 9L7 8L4 8L4 9L3 9L3 10L2 10L2 8L0 8L0 10L1 10L1 11L0 11L0 14L1 14L1 13L2 13L2 14L3 14L3 15L2 15L2 16L0 16L0 17L2 17L2 16L3 16L3 15L4 15L4 17L5 17L5 15L4 15L4 14L6 14L6 15L8 15L8 14L9 14L9 15L10 15L10 18L9 18L9 16L6 16L6 17L8 17L8 18L9 18L9 19L8 19L8 21L9 21L9 22L10 22L10 24L9 24L9 23L8 23L8 25L10 25L10 24L11 24L11 23L13 23L13 22L16 22L16 23L15 23L15 25L16 25L16 23L18 23L18 24L17 24L17 25L25 25L25 24L24 24L24 22L23 22L23 23L22 23L22 22L21 22L21 23L20 23L20 24L19 24L19 21L23 21L23 20L24 20L24 21L25 21L25 20L24 20L24 19L23 19L23 18L22 18L22 19L21 19L21 17L23 17L23 14L21 14L21 12L22 12L22 13L24 13L24 14L25 14L25 12L24 12L24 9L25 9L25 8L21 8L21 9L20 9L20 8L19 8L19 9L18 9L18 11L17 11L17 6L16 6L16 7L15 7L15 6L14 6L14 5L15 5L15 4L16 4L16 5L17 5L17 4L16 4L16 3L17 3L17 2L16 2L16 3L15 3L15 2L14 2L14 1L15 1L15 0L13 0L13 1L12 1L12 2L11 2L11 3L12 3L12 2L14 2L14 5L12 5L12 7L11 7L11 6L10 6L10 5L11 5L11 4L10 4L10 2L9 2L9 0ZM16 0L16 1L17 1L17 0ZM9 6L9 7L10 7L10 6ZM13 6L13 8L14 8L14 9L12 9L12 8L11 8L11 9L10 9L10 10L13 10L13 12L14 12L14 13L16 13L16 14L18 14L18 15L17 15L17 16L21 16L21 15L20 15L20 14L19 14L19 13L17 13L17 12L15 12L15 11L14 11L14 9L15 9L15 10L16 10L16 8L14 8L14 6ZM19 9L19 12L20 12L20 9ZM21 9L21 10L22 10L22 11L23 11L23 10L22 10L22 9ZM2 11L2 12L4 12L4 13L3 13L3 14L4 14L4 13L6 13L6 14L7 14L7 13L6 13L6 12L7 12L7 11L6 11L6 12L4 12L4 11ZM13 14L13 15L12 15L12 16L11 16L11 18L10 18L10 19L9 19L9 20L11 20L11 18L12 18L12 20L13 20L13 21L11 21L11 22L13 22L13 21L14 21L14 20L15 20L15 21L16 21L16 22L17 22L17 21L16 21L16 20L15 20L15 19L16 19L16 18L15 18L15 19L14 19L14 17L15 17L15 16L16 16L16 15L15 15L15 14ZM14 15L14 16L12 16L12 17L14 17L14 16L15 16L15 15ZM17 17L17 20L20 20L20 17ZM24 17L24 18L25 18L25 17ZM18 18L18 19L19 19L19 18ZM12 24L12 25L14 25L14 24ZM0 0L0 7L7 7L7 0ZM1 1L1 6L6 6L6 1ZM2 2L2 5L5 5L5 2ZM18 0L18 7L25 7L25 0ZM19 1L19 6L24 6L24 1ZM20 2L20 5L23 5L23 2ZM0 18L0 25L7 25L7 18ZM1 19L1 24L6 24L6 19ZM2 20L2 23L5 23L5 20Z" fill="#000000"/></g></g></svg>
