<?xml version="1.0" encoding="UTF-8"?>
<svg xmlns="http://www.w3.org/2000/svg" version="1.1" width="300" height="300" viewBox="0 0 300 300"><rect x="0" y="0" width="300" height="300" fill="#ffffff"/><g transform="scale(12)"><g transform="translate(0,0)"><path fill-rule="evenodd" d="M10 0L10 2L11 2L11 0ZM12 0L12 1L13 1L13 2L12 2L12 4L13 4L13 5L11 5L11 6L10 6L10 4L11 4L11 3L8 3L8 4L9 4L9 5L8 5L8 7L9 7L9 8L6 8L6 9L8 9L8 10L6 10L6 11L7 11L7 12L6 12L6 13L5 13L5 12L4 12L4 11L5 11L5 8L0 8L0 11L1 11L1 12L0 12L0 17L1 17L1 13L2 13L2 16L3 16L3 17L4 17L4 16L5 16L5 17L7 17L7 16L6 16L6 15L8 15L8 16L10 16L10 17L11 17L11 18L12 18L12 17L14 17L14 16L13 16L13 15L12 15L12 17L11 17L11 16L10 16L10 14L9 14L9 15L8 15L8 12L9 12L9 13L11 13L11 14L12 14L12 13L11 13L11 12L13 12L13 13L16 13L16 10L17 10L17 11L18 11L18 10L20 10L20 12L21 12L21 16L19 16L19 15L20 15L20 14L18 14L18 15L17 15L17 16L16 16L16 19L15 19L15 20L11 20L11 19L10 19L10 20L8 20L8 25L10 25L10 24L11 24L11 22L12 22L12 21L13 21L13 23L14 23L14 24L13 24L13 25L15 25L15 24L17 24L17 25L20 25L20 24L22 24L22 25L25 25L25 21L23 21L23 20L24 20L24 19L25 19L25 17L24 17L24 18L23 18L23 20L22 20L22 19L21 19L21 18L22 18L22 17L23 17L23 16L25 16L25 10L24 10L24 8L23 8L23 9L22 9L22 8L21 8L21 10L20 10L20 8L19 8L19 9L18 9L18 8L17 8L17 9L16 9L16 7L17 7L17 3L13 3L13 2L16 2L16 1L17 1L17 0L16 0L16 1L15 1L15 0L14 0L14 1L13 1L13 0ZM8 1L8 2L9 2L9 1ZM14 4L14 5L13 5L13 7L12 7L12 6L11 6L11 7L12 7L12 8L14 8L14 6L15 6L15 7L16 7L16 6L15 6L15 5L16 5L16 4ZM9 6L9 7L10 7L10 6ZM10 8L10 9L9 9L9 10L8 10L8 11L9 11L9 12L11 12L11 11L12 11L12 9L11 9L11 8ZM1 9L1 11L4 11L4 9L3 9L3 10L2 10L2 9ZM10 9L10 11L11 11L11 9ZM14 9L14 10L16 10L16 9ZM17 9L17 10L18 10L18 9ZM23 10L23 11L22 11L22 12L24 12L24 10ZM13 11L13 12L15 12L15 11ZM2 12L2 13L3 13L3 14L4 14L4 15L3 15L3 16L4 16L4 15L6 15L6 14L7 14L7 13L6 13L6 14L5 14L5 13L4 13L4 12ZM17 12L17 13L19 13L19 12ZM22 13L22 16L21 16L21 17L22 17L22 16L23 16L23 14L24 14L24 13ZM14 14L14 15L16 15L16 14ZM8 17L8 19L9 19L9 17ZM17 17L17 20L20 20L20 17ZM18 18L18 19L19 19L19 18ZM10 20L10 21L11 21L11 20ZM21 20L21 21L22 21L22 22L23 22L23 23L22 23L22 24L24 24L24 22L23 22L23 21L22 21L22 20ZM14 21L14 23L18 23L18 24L20 24L20 23L21 23L21 22L17 22L17 21ZM9 23L9 24L10 24L10 23ZM0 0L0 7L7 7L7 0ZM1 1L1 6L6 6L6 1ZM2 2L2 5L5 5L5 2ZM18 0L18 7L25 7L25 0ZM19 1L19 6L24 6L24 1ZM20 2L20 5L23 5L23 2ZM0 18L0 25L7 25L7 18ZM1 19L1 24L6 24L6 19ZM2 20L2 23L5 23L5 20Z" fill="#000000"/></g></g></svg>
