<?xml version="1.0" encoding="UTF-8"?>
<svg xmlns="http://www.w3.org/2000/svg" version="1.1" width="300" height="300" viewBox="0 0 300 300"><rect x="0" y="0" width="300" height="300" fill="#ffffff"/><g transform="scale(10.345)"><g transform="translate(0,0)"><path fill-rule="evenodd" d="M9 0L9 1L8 1L8 2L9 2L9 3L8 3L8 4L10 4L10 7L11 7L11 4L12 4L12 5L13 5L13 6L12 6L12 9L13 9L13 8L14 8L14 9L15 9L15 10L17 10L17 9L18 9L18 10L20 10L20 11L21 11L21 10L23 10L23 12L24 12L24 11L25 11L25 9L26 9L26 8L25 8L25 9L24 9L24 8L23 8L23 9L22 9L22 8L21 8L21 9L18 9L18 8L19 8L19 5L20 5L20 7L21 7L21 3L20 3L20 2L21 2L21 0L15 0L15 1L18 1L18 3L17 3L17 2L16 2L16 4L12 4L12 2L13 2L13 1L11 1L11 2L10 2L10 0ZM19 1L19 2L20 2L20 1ZM14 2L14 3L15 3L15 2ZM10 3L10 4L11 4L11 3ZM18 3L18 4L16 4L16 5L19 5L19 4L20 4L20 3ZM8 5L8 7L9 7L9 5ZM13 6L13 7L14 7L14 8L15 8L15 7L16 7L16 9L17 9L17 8L18 8L18 6L17 6L17 7L16 7L16 6L15 6L15 7L14 7L14 6ZM0 8L0 10L1 10L1 9L2 9L2 10L3 10L3 9L4 9L4 10L5 10L5 11L7 11L7 12L6 12L6 13L4 13L4 11L0 11L0 12L1 12L1 13L0 13L0 16L2 16L2 15L3 15L3 17L4 17L4 16L5 16L5 15L3 15L3 14L6 14L6 15L7 15L7 16L6 16L6 17L8 17L8 18L6 18L6 19L4 19L4 18L3 18L3 19L2 19L2 21L8 21L8 23L9 23L9 21L10 21L10 23L11 23L11 21L12 21L12 22L13 22L13 23L12 23L12 25L13 25L13 24L14 24L14 25L16 25L16 26L15 26L15 27L14 27L14 28L15 28L15 27L16 27L16 28L17 28L17 29L18 29L18 28L17 28L17 27L16 27L16 26L17 26L17 25L18 25L18 27L19 27L19 25L18 25L18 24L17 24L17 23L19 23L19 24L20 24L20 25L24 25L24 26L20 26L20 28L19 28L19 29L20 29L20 28L21 28L21 29L23 29L23 28L22 28L22 27L27 27L27 28L28 28L28 26L29 26L29 25L28 25L28 24L25 24L25 23L27 23L27 22L28 22L28 21L29 21L29 20L24 20L24 19L23 19L23 20L22 20L22 18L25 18L25 19L27 19L27 18L28 18L28 17L27 17L27 16L28 16L28 14L29 14L29 11L28 11L28 10L29 10L29 9L28 9L28 8L27 8L27 12L25 12L25 13L22 13L22 12L19 12L19 13L18 13L18 12L17 12L17 11L16 11L16 12L17 12L17 13L18 13L18 14L20 14L20 15L19 15L19 16L17 16L17 14L16 14L16 13L12 13L12 11L13 11L13 10L11 10L11 11L10 11L10 9L11 9L11 8L6 8L6 9L7 9L7 10L5 10L5 8ZM7 10L7 11L8 11L8 12L7 12L7 13L6 13L6 14L8 14L8 13L9 13L9 14L10 14L10 13L11 13L11 15L10 15L10 17L9 17L9 18L10 18L10 19L8 19L8 20L10 20L10 19L11 19L11 18L13 18L13 19L12 19L12 21L15 21L15 22L16 22L16 21L17 21L17 22L20 22L20 20L21 20L21 19L20 19L20 18L19 18L19 20L18 20L18 17L17 17L17 16L16 16L16 17L14 17L14 16L15 16L15 15L14 15L14 16L13 16L13 17L12 17L12 15L13 15L13 14L12 14L12 13L11 13L11 12L10 12L10 13L9 13L9 10ZM14 11L14 12L15 12L15 11ZM2 12L2 14L3 14L3 12ZM21 13L21 14L22 14L22 13ZM25 13L25 14L26 14L26 15L25 15L25 16L24 16L24 15L23 15L23 16L22 16L22 17L25 17L25 18L27 18L27 17L25 17L25 16L27 16L27 14L28 14L28 13ZM19 16L19 17L21 17L21 16ZM0 17L0 21L1 21L1 17ZM10 17L10 18L11 18L11 17ZM16 17L16 18L15 18L15 19L14 19L14 20L17 20L17 21L18 21L18 20L17 20L17 19L16 19L16 18L17 18L17 17ZM3 19L3 20L4 20L4 19ZM6 19L6 20L7 20L7 19ZM21 21L21 24L24 24L24 21ZM25 21L25 22L27 22L27 21ZM22 22L22 23L23 23L23 22ZM14 23L14 24L16 24L16 25L17 25L17 24L16 24L16 23ZM8 24L8 29L12 29L12 27L13 27L13 26L11 26L11 28L9 28L9 24ZM25 25L25 26L27 26L27 25ZM0 0L0 7L7 7L7 0ZM1 1L1 6L6 6L6 1ZM2 2L2 5L5 5L5 2ZM22 0L22 7L29 7L29 0ZM23 1L23 6L28 6L28 1ZM24 2L24 5L27 5L27 2ZM0 22L0 29L7 29L7 22ZM1 23L1 28L6 28L6 23ZM2 24L2 27L5 27L5 24Z" fill="#000000"/></g></g></svg>
