<?xml version="1.0" encoding="UTF-8"?>
<svg xmlns="http://www.w3.org/2000/svg" version="1.1" width="300" height="300" viewBox="0 0 300 300"><rect x="0" y="0" width="300" height="300" fill="#ffffff"/><g transform="scale(12)"><g transform="translate(0,0)"><path fill-rule="evenodd" d="M9 0L9 1L8 1L8 2L9 2L9 3L8 3L8 4L10 4L10 7L11 7L11 4L12 4L12 7L13 7L13 5L14 5L14 4L15 4L15 2L17 2L17 0L16 0L16 1L15 1L15 0L14 0L14 1L11 1L11 2L10 2L10 0ZM14 1L14 2L12 2L12 3L14 3L14 2L15 2L15 1ZM10 3L10 4L11 4L11 3ZM16 4L16 5L15 5L15 6L14 6L14 7L15 7L15 8L6 8L6 9L5 9L5 8L0 8L0 9L2 9L2 10L0 10L0 17L1 17L1 14L2 14L2 11L5 11L5 12L3 12L3 14L4 14L4 15L2 15L2 16L4 16L4 17L5 17L5 14L4 14L4 13L5 13L5 12L6 12L6 13L7 13L7 14L6 14L6 15L7 15L7 14L8 14L8 13L10 13L10 14L9 14L9 16L6 16L6 17L8 17L8 19L10 19L10 18L12 18L12 17L10 17L10 16L11 16L11 15L10 15L10 14L12 14L12 15L13 15L13 14L15 14L15 15L14 15L14 16L13 16L13 17L14 17L14 16L15 16L15 15L16 15L16 14L15 14L15 13L16 13L16 10L17 10L17 11L18 11L18 10L20 10L20 12L21 12L21 16L19 16L19 15L20 15L20 14L18 14L18 15L17 15L17 16L16 16L16 19L15 19L15 20L13 20L13 19L12 19L12 21L11 21L11 20L10 20L10 21L11 21L11 22L12 22L12 24L11 24L11 23L10 23L10 22L9 22L9 20L8 20L8 25L9 25L9 23L10 23L10 24L11 24L11 25L15 25L15 24L17 24L17 25L19 25L19 24L18 24L18 23L15 23L15 22L12 22L12 21L17 21L17 22L21 22L21 20L22 20L22 21L23 21L23 22L24 22L24 24L22 24L22 23L21 23L21 24L20 24L20 25L21 25L21 24L22 24L22 25L25 25L25 21L24 21L24 20L25 20L25 17L24 17L24 18L23 18L23 19L24 19L24 20L22 20L22 19L21 19L21 18L22 18L22 17L23 17L23 16L25 16L25 10L24 10L24 8L23 8L23 9L22 9L22 8L21 8L21 10L20 10L20 8L19 8L19 9L18 9L18 8L17 8L17 9L16 9L16 7L17 7L17 4ZM8 5L8 7L9 7L9 5ZM15 6L15 7L16 7L16 6ZM3 9L3 10L4 10L4 9ZM6 9L6 10L5 10L5 11L6 11L6 12L7 12L7 13L8 13L8 12L7 12L7 11L9 11L9 10L8 10L8 9ZM10 9L10 11L12 11L12 12L14 12L14 11L15 11L15 10L16 10L16 9L12 9L12 10L11 10L11 9ZM17 9L17 10L18 10L18 9ZM6 10L6 11L7 11L7 10ZM23 10L23 11L22 11L22 12L24 12L24 10ZM10 12L10 13L11 13L11 12ZM17 12L17 13L19 13L19 12ZM12 13L12 14L13 14L13 13ZM22 13L22 16L21 16L21 17L22 17L22 16L23 16L23 14L24 14L24 13ZM9 17L9 18L10 18L10 17ZM17 17L17 20L20 20L20 17ZM18 18L18 19L19 19L19 18ZM13 23L13 24L14 24L14 23ZM0 0L0 7L7 7L7 0ZM1 1L1 6L6 6L6 1ZM2 2L2 5L5 5L5 2ZM18 0L18 7L25 7L25 0ZM19 1L19 6L24 6L24 1ZM20 2L20 5L23 5L23 2ZM0 18L0 25L7 25L7 18ZM1 19L1 24L6 24L6 19ZM2 20L2 23L5 23L5 20Z" fill="#000000"/></g></g></svg>
