<?xml version="1.0" encoding="UTF-8"?>
<svg xmlns="http://www.w3.org/2000/svg" version="1.1" width="300" height="300" viewBox="0 0 300 300"><rect x="0" y="0" width="300" height="300" fill="#ffffff"/><g transform="scale(12)"><g transform="translate(0,0)"><path fill-rule="evenodd" d="M10 0L10 1L9 1L9 2L8 2L8 3L9 3L9 5L10 5L10 7L11 7L11 8L12 8L12 9L11 9L11 10L10 10L10 9L9 9L9 6L8 6L8 8L4 8L4 9L3 9L3 8L0 8L0 10L1 10L1 9L3 9L3 10L2 10L2 11L3 11L3 12L5 12L5 10L6 10L6 11L7 11L7 10L8 10L8 9L9 9L9 10L10 10L10 11L9 11L9 12L10 12L10 13L8 13L8 12L6 12L6 13L7 13L7 14L6 14L6 15L5 15L5 14L4 14L4 13L2 13L2 12L1 12L1 11L0 11L0 13L2 13L2 15L1 15L1 14L0 14L0 15L1 15L1 16L0 16L0 17L1 17L1 16L2 16L2 15L5 15L5 16L4 16L4 17L7 17L7 16L8 16L8 21L9 21L9 22L8 22L8 25L9 25L9 24L11 24L11 25L13 25L13 24L15 24L15 25L22 25L22 23L23 23L23 25L25 25L25 24L24 24L24 23L25 23L25 22L24 22L24 23L23 23L23 21L24 21L24 19L25 19L25 18L24 18L24 17L23 17L23 21L22 21L22 19L21 19L21 18L22 18L22 15L25 15L25 14L24 14L24 13L25 13L25 12L24 12L24 11L25 11L25 9L24 9L24 11L23 11L23 14L22 14L22 13L21 13L21 12L22 12L22 11L18 11L18 9L19 9L19 8L17 8L17 9L15 9L15 10L14 10L14 9L13 9L13 8L14 8L14 7L15 7L15 6L16 6L16 7L17 7L17 5L15 5L15 4L16 4L16 3L17 3L17 1L15 1L15 0L13 0L13 1L14 1L14 3L13 3L13 4L12 4L12 5L10 5L10 3L9 3L9 2L10 2L10 1L11 1L11 0ZM11 2L11 3L12 3L12 2ZM15 2L15 3L16 3L16 2ZM13 5L13 7L14 7L14 6L15 6L15 5ZM11 6L11 7L12 7L12 6ZM22 8L22 9L21 9L21 10L23 10L23 8ZM6 9L6 10L7 10L7 9ZM3 10L3 11L4 11L4 10ZM11 10L11 12L13 12L13 15L14 15L14 13L15 13L15 16L21 16L21 15L22 15L22 14L21 14L21 13L20 13L20 12L19 12L19 13L20 13L20 15L18 15L18 14L17 14L17 13L16 13L16 12L17 12L17 11L16 11L16 10L15 10L15 11L16 11L16 12L13 12L13 11L14 11L14 10ZM7 14L7 15L6 15L6 16L7 16L7 15L10 15L10 14ZM11 14L11 15L12 15L12 14ZM16 14L16 15L17 15L17 14ZM10 16L10 17L9 17L9 18L10 18L10 17L11 17L11 16ZM14 17L14 18L11 18L11 19L14 19L14 20L13 20L13 21L15 21L15 22L17 22L17 24L18 24L18 23L20 23L20 24L21 24L21 23L20 23L20 21L16 21L16 20L15 20L15 19L14 19L14 18L16 18L16 17ZM17 17L17 20L20 20L20 17ZM18 18L18 19L19 19L19 18ZM10 20L10 21L12 21L12 20ZM9 22L9 23L10 23L10 22ZM11 22L11 23L12 23L12 24L13 24L13 23L12 23L12 22ZM0 0L0 7L7 7L7 0ZM1 1L1 6L6 6L6 1ZM2 2L2 5L5 5L5 2ZM18 0L18 7L25 7L25 0ZM19 1L19 6L24 6L24 1ZM20 2L20 5L23 5L23 2ZM0 18L0 25L7 25L7 18ZM1 19L1 24L6 24L6 19ZM2 20L2 23L5 23L5 20Z" fill="#000000"/></g></g></svg>
