<?xml version="1.0" encoding="UTF-8"?>
<svg xmlns="http://www.w3.org/2000/svg" version="1.1" width="300" height="300" viewBox="0 0 300 300"><rect x="0" y="0" width="300" height="300" fill="#ffffff"/><g transform="scale(12)"><g transform="translate(0,0)"><path fill-rule="evenodd" d="M8 0L8 2L10 2L10 4L8 4L8 9L7 9L7 8L5 8L5 9L4 9L4 10L3 10L3 8L0 8L0 12L1 12L1 14L0 14L0 15L3 15L3 16L4 16L4 15L5 15L5 14L4 14L4 13L3 13L3 12L6 12L6 13L7 13L7 14L6 14L6 15L7 15L7 16L5 16L5 17L7 17L7 16L8 16L8 18L9 18L9 17L10 17L10 16L12 16L12 18L10 18L10 19L11 19L11 20L9 20L9 19L8 19L8 20L9 20L9 21L10 21L10 22L8 22L8 25L12 25L12 24L13 24L13 25L14 25L14 24L13 24L13 23L15 23L15 22L16 22L16 25L17 25L17 24L18 24L18 25L19 25L19 24L20 24L20 25L21 25L21 19L22 19L22 18L21 18L21 16L18 16L18 15L19 15L19 13L22 13L22 12L21 12L21 11L22 11L22 10L23 10L23 11L25 11L25 8L23 8L23 9L22 9L22 10L21 10L21 11L20 11L20 9L21 9L21 8L17 8L17 9L16 9L16 7L17 7L17 5L16 5L16 4L17 4L17 3L16 3L16 2L17 2L17 1L16 1L16 0L15 0L15 1L16 1L16 2L14 2L14 0L10 0L10 1L9 1L9 0ZM11 1L11 2L12 2L12 3L11 3L11 4L12 4L12 5L9 5L9 8L10 8L10 6L11 6L11 10L9 10L9 9L8 9L8 11L6 11L6 12L8 12L8 11L10 11L10 14L12 14L12 15L13 15L13 18L15 18L15 19L12 19L12 21L11 21L11 22L10 22L10 23L9 23L9 24L12 24L12 23L13 23L13 22L14 22L14 21L15 21L15 20L16 20L16 18L15 18L15 17L16 17L16 16L17 16L17 15L16 15L16 16L15 16L15 15L13 15L13 14L12 14L12 12L14 12L14 14L15 14L15 12L17 12L17 13L16 13L16 14L18 14L18 11L19 11L19 12L20 12L20 11L19 11L19 9L17 9L17 11L15 11L15 12L14 12L14 9L15 9L15 10L16 10L16 9L15 9L15 8L14 8L14 5L13 5L13 4L14 4L14 3L13 3L13 1ZM12 3L12 4L13 4L13 3ZM15 3L15 4L16 4L16 3ZM12 5L12 7L13 7L13 5ZM15 5L15 7L16 7L16 5ZM12 8L12 10L11 10L11 11L13 11L13 9L14 9L14 8ZM1 9L1 12L3 12L3 10L2 10L2 9ZM5 9L5 10L7 10L7 9ZM24 12L24 13L25 13L25 12ZM2 13L2 14L3 14L3 13ZM8 13L8 14L7 14L7 15L8 15L8 16L10 16L10 15L9 15L9 13ZM20 14L20 15L23 15L23 17L24 17L24 15L25 15L25 14L24 14L24 15L23 15L23 14ZM0 16L0 17L2 17L2 16ZM14 16L14 17L15 17L15 16ZM17 17L17 20L20 20L20 17ZM18 18L18 19L19 19L19 18ZM24 18L24 19L23 19L23 20L24 20L24 19L25 19L25 18ZM13 20L13 21L12 21L12 22L11 22L11 23L12 23L12 22L13 22L13 21L14 21L14 20ZM16 21L16 22L17 22L17 21ZM18 21L18 23L19 23L19 21ZM23 21L23 23L25 23L25 22L24 22L24 21ZM24 24L24 25L25 25L25 24ZM0 0L0 7L7 7L7 0ZM1 1L1 6L6 6L6 1ZM2 2L2 5L5 5L5 2ZM18 0L18 7L25 7L25 0ZM19 1L19 6L24 6L24 1ZM20 2L20 5L23 5L23 2ZM0 18L0 25L7 25L7 18ZM1 19L1 24L6 24L6 19ZM2 20L2 23L5 23L5 20Z" fill="#000000"/></g></g></svg>
