<?xml version="1.0" encoding="UTF-8"?>
<svg xmlns="http://www.w3.org/2000/svg" version="1.1" width="300" height="300" viewBox="0 0 300 300"><rect x="0" y="0" width="300" height="300" fill="#ffffff"/><g transform="scale(12)"><g transform="translate(0,0)"><path fill-rule="evenodd" d="M9 0L9 1L8 1L8 2L9 2L9 3L8 3L8 4L10 4L10 7L11 7L11 8L6 8L6 9L7 9L7 10L6 10L6 11L5 11L5 10L4 10L4 9L5 9L5 8L0 8L0 17L1 17L1 14L2 14L2 13L3 13L3 14L4 14L4 15L2 15L2 17L7 17L7 16L8 16L8 19L11 19L11 18L12 18L12 19L13 19L13 18L12 18L12 17L14 17L14 16L15 16L15 15L16 15L16 14L15 14L15 15L14 15L14 16L13 16L13 14L12 14L12 13L16 13L16 10L17 10L17 11L18 11L18 10L20 10L20 12L21 12L21 16L19 16L19 14L18 14L18 15L17 15L17 16L16 16L16 19L15 19L15 20L14 20L14 21L13 21L13 20L12 20L12 21L11 21L11 22L12 22L12 21L13 21L13 23L12 23L12 25L15 25L15 24L17 24L17 25L20 25L20 24L18 24L18 23L15 23L15 24L13 24L13 23L14 23L14 21L17 21L17 22L21 22L21 20L22 20L22 21L23 21L23 22L22 22L22 23L21 23L21 24L22 24L22 25L25 25L25 21L24 21L24 20L25 20L25 17L24 17L24 18L22 18L22 17L23 17L23 16L25 16L25 10L24 10L24 8L23 8L23 9L22 9L22 8L21 8L21 10L20 10L20 8L19 8L19 9L18 9L18 8L17 8L17 6L16 6L16 5L17 5L17 4L16 4L16 5L15 5L15 6L14 6L14 8L13 8L13 9L14 9L14 11L15 11L15 12L13 12L13 11L12 11L12 13L10 13L10 12L11 12L11 11L10 11L10 9L11 9L11 10L12 10L12 9L11 9L11 8L12 8L12 7L13 7L13 5L14 5L14 4L15 4L15 3L16 3L16 2L17 2L17 0L16 0L16 1L15 1L15 2L14 2L14 0L13 0L13 1L11 1L11 2L10 2L10 0ZM12 2L12 3L14 3L14 2ZM10 3L10 4L11 4L11 7L12 7L12 4L11 4L11 3ZM8 5L8 7L9 7L9 5ZM15 6L15 9L17 9L17 10L18 10L18 9L17 9L17 8L16 8L16 6ZM1 9L1 11L2 11L2 12L3 12L3 13L4 13L4 14L9 14L9 15L10 15L10 14L9 14L9 13L8 13L8 12L9 12L9 11L6 11L6 12L5 12L5 13L4 13L4 12L3 12L3 11L4 11L4 10L3 10L3 11L2 11L2 9ZM8 9L8 10L9 10L9 9ZM23 10L23 11L22 11L22 12L24 12L24 10ZM6 12L6 13L7 13L7 12ZM17 12L17 13L19 13L19 12ZM22 13L22 16L21 16L21 17L22 17L22 16L23 16L23 14L24 14L24 13ZM11 14L11 16L12 16L12 14ZM4 15L4 16L5 16L5 15ZM6 15L6 16L7 16L7 15ZM9 16L9 18L10 18L10 16ZM17 17L17 20L20 20L20 17ZM18 18L18 19L19 19L19 18ZM22 19L22 20L24 20L24 19ZM8 20L8 25L11 25L11 23L10 23L10 24L9 24L9 22L10 22L10 21L9 21L9 20ZM23 22L23 23L22 23L22 24L24 24L24 22ZM0 0L0 7L7 7L7 0ZM1 1L1 6L6 6L6 1ZM2 2L2 5L5 5L5 2ZM18 0L18 7L25 7L25 0ZM19 1L19 6L24 6L24 1ZM20 2L20 5L23 5L23 2ZM0 18L0 25L7 25L7 18ZM1 19L1 24L6 24L6 19ZM2 20L2 23L5 23L5 20Z" fill="#000000"/></g></g></svg>
