<?xml version="1.0" encoding="UTF-8"?>
<svg xmlns="http://www.w3.org/2000/svg" version="1.1" width="300" height="300" viewBox="0 0 300 300"><rect x="0" y="0" width="300" height="300" fill="#ffffff"/><g transform="scale(12)"><g transform="translate(0,0)"><path fill-rule="evenodd" d="M10 0L10 2L11 2L11 0ZM12 0L12 1L13 1L13 0ZM15 0L15 2L14 2L14 10L13 10L13 9L12 9L12 7L13 7L13 5L11 5L11 6L10 6L10 4L11 4L11 3L8 3L8 4L9 4L9 5L8 5L8 7L9 7L9 8L6 8L6 9L7 9L7 10L6 10L6 11L7 11L7 10L8 10L8 12L6 12L6 13L9 13L9 15L7 15L7 14L6 14L6 15L7 15L7 16L5 16L5 15L3 15L3 14L5 14L5 13L3 13L3 14L2 14L2 16L4 16L4 17L7 17L7 16L9 16L9 17L8 17L8 19L9 19L9 20L8 20L8 25L11 25L11 21L10 21L10 19L9 19L9 17L10 17L10 18L11 18L11 17L12 17L12 18L13 18L13 16L12 16L12 15L13 15L13 14L14 14L14 13L16 13L16 10L17 10L17 11L18 11L18 10L20 10L20 12L21 12L21 14L18 14L18 15L17 15L17 16L16 16L16 19L15 19L15 18L14 18L14 21L17 21L17 22L21 22L21 23L19 23L19 24L18 24L18 23L15 23L15 24L17 24L17 25L20 25L20 24L22 24L22 25L25 25L25 21L23 21L23 20L25 20L25 17L24 17L24 18L22 18L22 17L23 17L23 16L25 16L25 10L24 10L24 8L23 8L23 9L22 9L22 8L21 8L21 10L20 10L20 8L19 8L19 9L18 9L18 8L17 8L17 9L16 9L16 8L15 8L15 6L16 6L16 7L17 7L17 6L16 6L16 5L17 5L17 4L15 4L15 3L16 3L16 1L17 1L17 0ZM8 1L8 2L9 2L9 1ZM12 2L12 4L13 4L13 2ZM9 6L9 7L10 7L10 6ZM11 6L11 7L12 7L12 6ZM0 8L0 9L2 9L2 10L0 10L0 12L1 12L1 13L0 13L0 17L1 17L1 13L2 13L2 12L4 12L4 9L5 9L5 8ZM10 8L10 9L9 9L9 12L11 12L11 13L10 13L10 15L9 15L9 16L11 16L11 14L13 14L13 13L14 13L14 11L15 11L15 10L14 10L14 11L13 11L13 10L12 10L12 9L11 9L11 8ZM10 9L10 11L11 11L11 9ZM17 9L17 10L18 10L18 9ZM2 10L2 11L1 11L1 12L2 12L2 11L3 11L3 10ZM23 10L23 11L22 11L22 12L24 12L24 10ZM12 11L12 13L13 13L13 11ZM17 12L17 13L19 13L19 12ZM22 13L22 16L21 16L21 15L19 15L19 16L21 16L21 17L22 17L22 16L23 16L23 14L24 14L24 13ZM15 14L15 15L16 15L16 14ZM14 16L14 17L15 17L15 16ZM17 17L17 20L20 20L20 17ZM18 18L18 19L19 19L19 18ZM11 19L11 20L13 20L13 19ZM22 19L22 20L21 20L21 21L22 21L22 22L23 22L23 23L22 23L22 24L24 24L24 22L23 22L23 21L22 21L22 20L23 20L23 19ZM9 21L9 22L10 22L10 21ZM12 22L12 25L14 25L14 24L13 24L13 23L14 23L14 22ZM9 23L9 24L10 24L10 23ZM0 0L0 7L7 7L7 0ZM1 1L1 6L6 6L6 1ZM2 2L2 5L5 5L5 2ZM18 0L18 7L25 7L25 0ZM19 1L19 6L24 6L24 1ZM20 2L20 5L23 5L23 2ZM0 18L0 25L7 25L7 18ZM1 19L1 24L6 24L6 19ZM2 20L2 23L5 23L5 20Z" fill="#000000"/></g></g></svg>
