<?xml version="1.0" encoding="UTF-8"?>
<svg xmlns="http://www.w3.org/2000/svg" version="1.1" width="300" height="300" viewBox="0 0 300 300"><rect x="0" y="0" width="300" height="300" fill="#ffffff"/><g transform="scale(12)"><g transform="translate(0,0)"><path fill-rule="evenodd" d="M8 0L8 1L9 1L9 2L10 2L10 3L11 3L11 1L13 1L13 0L11 0L11 1L9 1L9 0ZM14 0L14 1L16 1L16 2L15 2L15 3L16 3L16 4L13 4L13 3L14 3L14 2L12 2L12 4L11 4L11 5L10 5L10 4L9 4L9 5L10 5L10 8L9 8L9 6L8 6L8 8L9 8L9 10L8 10L8 9L7 9L7 8L6 8L6 9L5 9L5 8L3 8L3 9L2 9L2 8L0 8L0 9L2 9L2 10L1 10L1 11L0 11L0 17L1 17L1 15L2 15L2 17L3 17L3 16L5 16L5 15L7 15L7 16L6 16L6 17L8 17L8 18L10 18L10 20L8 20L8 22L9 22L9 23L8 23L8 25L10 25L10 24L11 24L11 23L10 23L10 20L11 20L11 19L12 19L12 21L14 21L14 24L13 24L13 25L15 25L15 22L17 22L17 23L18 23L18 22L20 22L20 24L18 24L18 25L21 25L21 22L20 22L20 21L21 21L21 19L22 19L22 18L24 18L24 19L23 19L23 23L22 23L22 24L24 24L24 25L25 25L25 17L24 17L24 16L25 16L25 10L24 10L24 9L25 9L25 8L24 8L24 9L23 9L23 10L21 10L21 9L19 9L19 8L18 8L18 10L21 10L21 11L20 11L20 12L18 12L18 11L16 11L16 10L15 10L15 9L16 9L16 7L17 7L17 6L16 6L16 7L15 7L15 6L14 6L14 5L17 5L17 1L16 1L16 0ZM12 4L12 5L11 5L11 7L12 7L12 9L10 9L10 10L9 10L9 11L8 11L8 10L7 10L7 9L6 9L6 10L7 10L7 11L5 11L5 12L4 12L4 13L3 13L3 12L1 12L1 14L2 14L2 13L3 13L3 14L4 14L4 15L5 15L5 14L7 14L7 13L5 13L5 12L9 12L9 11L10 11L10 10L12 10L12 11L13 11L13 12L14 12L14 13L11 13L11 12L10 12L10 13L9 13L9 14L8 14L8 17L10 17L10 18L11 18L11 17L14 17L14 18L12 18L12 19L13 19L13 20L14 20L14 19L15 19L15 20L16 20L16 18L15 18L15 17L16 17L16 16L15 16L15 12L16 12L16 11L15 11L15 12L14 12L14 9L13 9L13 7L14 7L14 6L13 6L13 7L12 7L12 5L13 5L13 4ZM3 9L3 11L4 11L4 9ZM12 9L12 10L13 10L13 9ZM21 11L21 12L22 12L22 13L21 13L21 14L19 14L19 13L18 13L18 12L17 12L17 13L16 13L16 14L17 14L17 15L18 15L18 14L19 14L19 16L21 16L21 18L22 18L22 15L21 15L21 14L24 14L24 12L22 12L22 11ZM10 14L10 15L9 15L9 16L10 16L10 17L11 17L11 16L12 16L12 15L14 15L14 14ZM14 16L14 17L15 17L15 16ZM17 17L17 20L20 20L20 17ZM18 18L18 19L19 19L19 18ZM12 22L12 23L13 23L13 22ZM9 23L9 24L10 24L10 23ZM16 24L16 25L17 25L17 24ZM0 0L0 7L7 7L7 0ZM1 1L1 6L6 6L6 1ZM2 2L2 5L5 5L5 2ZM18 0L18 7L25 7L25 0ZM19 1L19 6L24 6L24 1ZM20 2L20 5L23 5L23 2ZM0 18L0 25L7 25L7 18ZM1 19L1 24L6 24L6 19ZM2 20L2 23L5 23L5 20Z" fill="#000000"/></g></g></svg>
