<?xml version="1.0" encoding="UTF-8"?>
<svg xmlns="http://www.w3.org/2000/svg" version="1.1" width="300" height="300" viewBox="0 0 300 300"><rect x="0" y="0" width="300" height="300" fill="#ffffff"/><g transform="scale(12)"><g transform="translate(0,0)"><path fill-rule="evenodd" d="M8 0L8 1L10 1L10 0ZM11 0L11 3L10 3L10 4L9 4L9 2L8 2L8 5L10 5L10 4L11 4L11 3L13 3L13 4L12 4L12 5L13 5L13 6L12 6L12 7L13 7L13 6L14 6L14 9L13 9L13 8L12 8L12 9L11 9L11 8L10 8L10 9L11 9L11 10L9 10L9 8L8 8L8 9L7 9L7 8L6 8L6 9L4 9L4 8L0 8L0 9L1 9L1 10L0 10L0 12L1 12L1 15L0 15L0 16L1 16L1 15L3 15L3 16L2 16L2 17L8 17L8 18L10 18L10 20L9 20L9 21L8 21L8 25L10 25L10 24L11 24L11 23L12 23L12 24L13 24L13 25L16 25L16 23L17 23L17 25L19 25L19 24L18 24L18 23L19 23L19 21L22 21L22 20L21 20L21 19L24 19L24 20L23 20L23 22L20 22L20 23L22 23L22 25L25 25L25 24L23 24L23 23L24 23L24 22L25 22L25 18L23 18L23 17L25 17L25 15L24 15L24 13L25 13L25 12L23 12L23 11L24 11L24 9L25 9L25 8L24 8L24 9L23 9L23 8L20 8L20 9L19 9L19 10L20 10L20 9L21 9L21 10L22 10L22 12L21 12L21 11L20 11L20 12L21 12L21 13L19 13L19 12L18 12L18 10L17 10L17 9L18 9L18 8L17 8L17 9L16 9L16 8L15 8L15 6L14 6L14 5L17 5L17 3L15 3L15 0L14 0L14 1L12 1L12 0ZM16 0L16 2L17 2L17 0ZM8 6L8 7L9 7L9 6ZM10 6L10 7L11 7L11 6ZM16 6L16 7L17 7L17 6ZM2 9L2 10L3 10L3 9ZM6 9L6 10L7 10L7 11L5 11L5 10L4 10L4 11L5 11L5 12L7 12L7 13L6 13L6 14L5 14L5 13L3 13L3 15L5 15L5 16L8 16L8 17L10 17L10 16L11 16L11 15L12 15L12 17L13 17L13 16L14 16L14 18L13 18L13 20L12 20L12 18L11 18L11 20L12 20L12 22L13 22L13 23L14 23L14 24L15 24L15 23L16 23L16 22L15 22L15 21L16 21L16 16L17 16L17 15L16 15L16 14L14 14L14 13L15 13L15 12L16 12L16 13L17 13L17 12L16 12L16 9L14 9L14 10L13 10L13 9L12 9L12 10L13 10L13 11L11 11L11 13L10 13L10 14L9 14L9 10L7 10L7 9ZM14 10L14 11L13 11L13 12L12 12L12 15L14 15L14 14L13 14L13 13L14 13L14 12L15 12L15 10ZM2 11L2 12L3 12L3 11ZM7 11L7 12L8 12L8 11ZM21 13L21 15L22 15L22 16L23 16L23 15L22 15L22 14L23 14L23 13ZM6 14L6 15L7 15L7 14ZM10 14L10 15L11 15L11 14ZM15 15L15 16L16 16L16 15ZM19 15L19 16L20 16L20 15ZM17 17L17 20L20 20L20 17ZM21 17L21 18L22 18L22 17ZM14 18L14 21L13 21L13 22L14 22L14 23L15 23L15 22L14 22L14 21L15 21L15 18ZM18 18L18 19L19 19L19 18ZM9 21L9 24L10 24L10 23L11 23L11 22L10 22L10 21ZM20 24L20 25L21 25L21 24ZM0 0L0 7L7 7L7 0ZM1 1L1 6L6 6L6 1ZM2 2L2 5L5 5L5 2ZM18 0L18 7L25 7L25 0ZM19 1L19 6L24 6L24 1ZM20 2L20 5L23 5L23 2ZM0 18L0 25L7 25L7 18ZM1 19L1 24L6 24L6 19ZM2 20L2 23L5 23L5 20Z" fill="#000000"/></g></g></svg>
