<?xml version="1.0" encoding="UTF-8"?>
<svg xmlns="http://www.w3.org/2000/svg" version="1.1" width="300" height="300" viewBox="0 0 300 300"><rect x="0" y="0" width="300" height="300" fill="#ffffff"/><g transform="scale(12)"><g transform="translate(0,0)"><path fill-rule="evenodd" d="M9 0L9 1L8 1L8 3L9 3L9 4L8 4L8 8L6 8L6 9L5 9L5 11L7 11L7 10L6 10L6 9L8 9L8 12L9 12L9 11L11 11L11 10L12 10L12 12L15 12L15 14L16 14L16 15L13 15L13 16L12 16L12 14L14 14L14 13L10 13L10 14L9 14L9 13L8 13L8 15L10 15L10 16L12 16L12 18L13 18L13 19L14 19L14 18L15 18L15 20L14 20L14 21L11 21L11 20L12 20L12 19L11 19L11 18L10 18L10 17L9 17L9 16L5 16L5 15L4 15L4 16L3 16L3 15L1 15L1 14L3 14L3 13L4 13L4 14L6 14L6 15L7 15L7 14L6 14L6 13L7 13L7 12L6 12L6 13L5 13L5 12L3 12L3 13L1 13L1 11L2 11L2 8L0 8L0 9L1 9L1 11L0 11L0 13L1 13L1 14L0 14L0 15L1 15L1 16L0 16L0 17L2 17L2 16L3 16L3 17L8 17L8 19L10 19L10 20L9 20L9 21L8 21L8 22L9 22L9 23L8 23L8 25L11 25L11 22L14 22L14 21L15 21L15 22L16 22L16 25L22 25L22 23L23 23L23 22L22 22L22 20L23 20L23 21L24 21L24 20L25 20L25 18L23 18L23 19L21 19L21 18L22 18L22 17L23 17L23 16L22 16L22 15L23 15L23 14L24 14L24 15L25 15L25 14L24 14L24 13L25 13L25 12L23 12L23 13L21 13L21 12L22 12L22 11L23 11L23 9L24 9L24 11L25 11L25 9L24 9L24 8L22 8L22 9L21 9L21 8L18 8L18 9L17 9L17 4L16 4L16 5L15 5L15 4L13 4L13 6L12 6L12 5L11 5L11 6L10 6L10 5L9 5L9 4L12 4L12 3L13 3L13 0L12 0L12 1L11 1L11 2L9 2L9 1L10 1L10 0ZM14 0L14 1L15 1L15 2L14 2L14 3L16 3L16 2L17 2L17 1L15 1L15 0ZM9 6L9 7L10 7L10 8L8 8L8 9L9 9L9 10L10 10L10 8L11 8L11 9L12 9L12 10L14 10L14 11L16 11L16 10L15 10L15 9L14 9L14 8L15 8L15 7L16 7L16 6L15 6L15 7L14 7L14 6L13 6L13 9L12 9L12 6L11 6L11 7L10 7L10 6ZM3 8L3 9L4 9L4 8ZM19 9L19 10L20 10L20 11L18 11L18 10L17 10L17 11L18 11L18 12L19 12L19 13L20 13L20 14L17 14L17 13L16 13L16 14L17 14L17 15L16 15L16 16L14 16L14 17L13 17L13 18L14 18L14 17L16 17L16 16L19 16L19 15L20 15L20 14L21 14L21 15L22 15L22 14L21 14L21 13L20 13L20 12L21 12L21 11L22 11L22 10L21 10L21 9ZM3 10L3 11L4 11L4 10ZM17 17L17 20L20 20L20 17ZM18 18L18 19L19 19L19 18ZM23 19L23 20L24 20L24 19ZM15 20L15 21L16 21L16 20ZM10 21L10 22L11 22L11 21ZM17 21L17 23L18 23L18 24L19 24L19 21ZM20 21L20 22L21 22L21 21ZM24 22L24 23L25 23L25 22ZM9 23L9 24L10 24L10 23ZM13 23L13 24L12 24L12 25L13 25L13 24L14 24L14 23ZM23 24L23 25L25 25L25 24ZM0 0L0 7L7 7L7 0ZM1 1L1 6L6 6L6 1ZM2 2L2 5L5 5L5 2ZM18 0L18 7L25 7L25 0ZM19 1L19 6L24 6L24 1ZM20 2L20 5L23 5L23 2ZM0 18L0 25L7 25L7 18ZM1 19L1 24L6 24L6 19ZM2 20L2 23L5 23L5 20Z" fill="#000000"/></g></g></svg>
