<?xml version="1.0" encoding="UTF-8"?>
<svg xmlns="http://www.w3.org/2000/svg" version="1.1" width="300" height="300" viewBox="0 0 300 300"><rect x="0" y="0" width="300" height="300" fill="#ffffff"/><g transform="scale(12)"><g transform="translate(0,0)"><path fill-rule="evenodd" d="M8 0L8 2L10 2L10 4L8 4L8 10L6 10L6 11L3 11L3 12L2 12L2 13L1 13L1 14L0 14L0 15L3 15L3 17L5 17L5 16L4 16L4 15L3 15L3 12L4 12L4 14L6 14L6 15L7 15L7 14L6 14L6 13L8 13L8 11L9 11L9 14L8 14L8 15L9 15L9 16L6 16L6 17L8 17L8 18L9 18L9 19L8 19L8 20L10 20L10 23L9 23L9 22L8 22L8 25L9 25L9 24L11 24L11 25L14 25L14 24L11 24L11 23L12 23L12 22L13 22L13 21L14 21L14 20L15 20L15 22L16 22L16 25L17 25L17 24L18 24L18 25L21 25L21 24L19 24L19 23L21 23L21 19L22 19L22 18L21 18L21 16L18 16L18 15L20 15L20 14L19 14L19 13L22 13L22 12L21 12L21 11L22 11L22 10L23 10L23 11L25 11L25 8L23 8L23 9L22 9L22 10L21 10L21 11L20 11L20 9L21 9L21 8L17 8L17 9L16 9L16 10L13 10L13 11L17 11L17 9L19 9L19 11L18 11L18 14L16 14L16 13L17 13L17 12L15 12L15 16L16 16L16 17L15 17L15 18L10 18L10 11L9 11L9 10L11 10L11 11L12 11L12 10L11 10L11 8L13 8L13 6L12 6L12 4L11 4L11 3L14 3L14 5L16 5L16 7L17 7L17 5L16 5L16 4L15 4L15 3L17 3L17 1L16 1L16 0L15 0L15 1L16 1L16 2L15 2L15 3L14 3L14 0L11 0L11 1L9 1L9 0ZM11 1L11 2L12 2L12 1ZM9 5L9 8L10 8L10 6L11 6L11 7L12 7L12 6L11 6L11 5ZM14 6L14 7L15 7L15 6ZM0 8L0 9L1 9L1 10L0 10L0 11L1 11L1 10L2 10L2 9L3 9L3 10L5 10L5 9L7 9L7 8L5 8L5 9L3 9L3 8ZM14 8L14 9L15 9L15 8ZM6 11L6 12L5 12L5 13L6 13L6 12L7 12L7 11ZM19 11L19 12L20 12L20 11ZM11 12L11 13L12 13L12 15L11 15L11 16L12 16L12 17L14 17L14 16L13 16L13 15L14 15L14 14L13 14L13 13L14 13L14 12ZM24 12L24 13L25 13L25 12ZM21 14L21 15L23 15L23 17L24 17L24 15L25 15L25 14L24 14L24 15L23 15L23 14ZM16 15L16 16L17 16L17 15ZM0 16L0 17L2 17L2 16ZM17 17L17 20L20 20L20 17ZM15 18L15 20L16 20L16 18ZM18 18L18 19L19 19L19 18ZM24 18L24 19L23 19L23 21L22 21L22 23L25 23L25 22L24 22L24 19L25 19L25 18ZM10 19L10 20L11 20L11 22L12 22L12 19ZM13 19L13 20L14 20L14 19ZM16 21L16 22L17 22L17 21ZM18 21L18 23L19 23L19 21ZM24 24L24 25L25 25L25 24ZM0 0L0 7L7 7L7 0ZM1 1L1 6L6 6L6 1ZM2 2L2 5L5 5L5 2ZM18 0L18 7L25 7L25 0ZM19 1L19 6L24 6L24 1ZM20 2L20 5L23 5L23 2ZM0 18L0 25L7 25L7 18ZM1 19L1 24L6 24L6 19ZM2 20L2 23L5 23L5 20Z" fill="#000000"/></g></g></svg>
