<?xml version="1.0" encoding="UTF-8"?>
<svg xmlns="http://www.w3.org/2000/svg" version="1.1" width="300" height="300" viewBox="0 0 300 300"><rect x="0" y="0" width="300" height="300" fill="#ffffff"/><g transform="scale(12)"><g transform="translate(0,0)"><path fill-rule="evenodd" d="M8 0L8 2L9 2L9 3L10 3L10 2L9 2L9 1L11 1L11 2L12 2L12 0ZM13 0L13 1L14 1L14 2L13 2L13 3L14 3L14 5L13 5L13 4L12 4L12 3L11 3L11 5L9 5L9 4L8 4L8 9L10 9L10 7L11 7L11 9L12 9L12 10L6 10L6 11L4 11L4 10L5 10L5 9L7 9L7 8L5 8L5 9L3 9L3 8L0 8L0 9L1 9L1 10L0 10L0 11L1 11L1 13L2 13L2 14L0 14L0 15L2 15L2 16L0 16L0 17L4 17L4 16L3 16L3 15L5 15L5 17L7 17L7 16L6 16L6 15L8 15L8 18L9 18L9 19L8 19L8 20L9 20L9 19L12 19L12 20L10 20L10 21L9 21L9 22L8 22L8 25L10 25L10 23L9 23L9 22L10 22L10 21L12 21L12 22L11 22L11 23L12 23L12 22L14 22L14 23L15 23L15 25L17 25L17 24L18 24L18 25L21 25L21 24L18 24L18 21L21 21L21 19L22 19L22 18L21 18L21 15L23 15L23 17L24 17L24 15L25 15L25 14L24 14L24 15L23 15L23 14L21 14L21 15L20 15L20 13L22 13L22 12L21 12L21 11L22 11L22 10L23 10L23 11L25 11L25 8L23 8L23 9L22 9L22 10L21 10L21 11L20 11L20 9L21 9L21 8L15 8L15 5L16 5L16 7L17 7L17 5L16 5L16 3L15 3L15 1L16 1L16 0L15 0L15 1L14 1L14 0ZM11 5L11 7L12 7L12 6L13 6L13 8L12 8L12 9L13 9L13 10L12 10L12 11L11 11L11 12L14 12L14 14L16 14L16 13L17 13L17 15L11 15L11 14L12 14L12 13L11 13L11 14L10 14L10 13L9 13L9 12L10 12L10 11L9 11L9 12L8 12L8 13L9 13L9 14L8 14L8 15L9 15L9 18L12 18L12 16L13 16L13 18L15 18L15 19L13 19L13 20L14 20L14 22L16 22L16 23L17 23L17 22L16 22L16 21L15 21L15 20L16 20L16 17L14 17L14 16L17 16L17 15L18 15L18 16L20 16L20 15L19 15L19 14L18 14L18 12L19 12L19 11L18 11L18 12L17 12L17 10L18 10L18 9L17 9L17 10L16 10L16 9L15 9L15 8L14 8L14 6L13 6L13 5ZM9 6L9 7L10 7L10 6ZM13 8L13 9L14 9L14 12L15 12L15 13L16 13L16 10L15 10L15 9L14 9L14 8ZM2 9L2 11L3 11L3 9ZM6 11L6 12L7 12L7 11ZM2 12L2 13L5 13L5 12ZM24 12L24 13L25 13L25 12ZM6 13L6 14L5 14L5 15L6 15L6 14L7 14L7 13ZM2 14L2 15L3 15L3 14ZM9 14L9 15L10 15L10 16L11 16L11 15L10 15L10 14ZM17 17L17 20L20 20L20 17ZM18 18L18 19L19 19L19 18ZM24 18L24 19L25 19L25 18ZM22 21L22 23L25 23L25 22L24 22L24 21ZM19 22L19 23L21 23L21 22ZM11 24L11 25L14 25L14 24ZM24 24L24 25L25 25L25 24ZM0 0L0 7L7 7L7 0ZM1 1L1 6L6 6L6 1ZM2 2L2 5L5 5L5 2ZM18 0L18 7L25 7L25 0ZM19 1L19 6L24 6L24 1ZM20 2L20 5L23 5L23 2ZM0 18L0 25L7 25L7 18ZM1 19L1 24L6 24L6 19ZM2 20L2 23L5 23L5 20Z" fill="#000000"/></g></g></svg>
