<?xml version="1.0" encoding="UTF-8"?>
<svg xmlns="http://www.w3.org/2000/svg" version="1.1" width="300" height="300" viewBox="0 0 300 300"><rect x="0" y="0" width="300" height="300" fill="#ffffff"/><g transform="scale(12)"><g transform="translate(0,0)"><path fill-rule="evenodd" d="M8 0L8 4L10 4L10 3L11 3L11 4L12 4L12 2L11 2L11 0ZM12 0L12 1L13 1L13 0ZM14 0L14 1L15 1L15 0ZM16 0L16 2L15 2L15 3L14 3L14 5L11 5L11 6L10 6L10 7L9 7L9 5L8 5L8 7L9 7L9 8L10 8L10 7L11 7L11 6L12 6L12 8L11 8L11 9L8 9L8 10L6 10L6 9L7 9L7 8L4 8L4 10L3 10L3 9L2 9L2 8L0 8L0 9L1 9L1 10L3 10L3 11L1 11L1 12L2 12L2 13L0 13L0 14L3 14L3 15L2 15L2 16L0 16L0 17L2 17L2 16L3 16L3 17L4 17L4 16L5 16L5 17L7 17L7 16L8 16L8 18L9 18L9 17L11 17L11 16L10 16L10 15L8 15L8 14L9 14L9 13L8 13L8 14L6 14L6 13L7 13L7 12L9 12L9 11L8 11L8 10L11 10L11 11L10 11L10 13L11 13L11 12L12 12L12 13L14 13L14 14L15 14L15 15L16 15L16 16L15 16L15 17L14 17L14 16L13 16L13 18L11 18L11 19L12 19L12 20L10 20L10 19L8 19L8 21L9 21L9 20L10 20L10 23L11 23L11 24L9 24L9 23L8 23L8 25L14 25L14 24L13 24L13 22L16 22L16 23L15 23L15 25L16 25L16 23L18 23L18 24L17 24L17 25L19 25L19 21L23 21L23 22L21 22L21 23L20 23L20 25L25 25L25 24L24 24L24 22L25 22L25 21L23 21L23 19L22 19L22 18L21 18L21 17L23 17L23 14L21 14L21 12L22 12L22 13L24 13L24 14L25 14L25 12L24 12L24 9L25 9L25 8L21 8L21 9L20 9L20 8L19 8L19 9L18 9L18 11L17 11L17 9L16 9L16 7L17 7L17 0ZM9 2L9 3L10 3L10 2ZM15 4L15 7L16 7L16 4ZM13 6L13 8L14 8L14 11L13 11L13 12L14 12L14 13L16 13L16 14L18 14L18 15L17 15L17 16L19 16L19 13L17 13L17 12L14 12L14 11L15 11L15 10L16 10L16 9L15 9L15 8L14 8L14 6ZM11 9L11 10L12 10L12 9ZM19 9L19 12L20 12L20 9ZM21 9L21 10L22 10L22 11L23 11L23 10L22 10L22 9ZM4 10L4 11L5 11L5 12L7 12L7 11L5 11L5 10ZM3 12L3 14L4 14L4 12ZM11 14L11 15L12 15L12 14ZM20 14L20 16L21 16L21 14ZM3 15L3 16L4 16L4 15ZM5 15L5 16L7 16L7 15ZM17 17L17 20L20 20L20 17ZM24 17L24 18L25 18L25 17ZM13 18L13 21L11 21L11 22L13 22L13 21L14 21L14 19L16 19L16 18ZM18 18L18 19L19 19L19 18ZM24 19L24 20L25 20L25 19ZM15 20L15 21L16 21L16 22L17 22L17 21L16 21L16 20ZM0 0L0 7L7 7L7 0ZM1 1L1 6L6 6L6 1ZM2 2L2 5L5 5L5 2ZM18 0L18 7L25 7L25 0ZM19 1L19 6L24 6L24 1ZM20 2L20 5L23 5L23 2ZM0 18L0 25L7 25L7 18ZM1 19L1 24L6 24L6 19ZM2 20L2 23L5 23L5 20Z" fill="#000000"/></g></g></svg>
