<?xml version="1.0" encoding="UTF-8"?>
<svg xmlns="http://www.w3.org/2000/svg" version="1.1" width="300" height="300" viewBox="0 0 300 300"><rect x="0" y="0" width="300" height="300" fill="#ffffff"/><g transform="scale(12)"><g transform="translate(0,0)"><path fill-rule="evenodd" d="M9 0L9 1L8 1L8 2L9 2L9 3L8 3L8 4L10 4L10 7L11 7L11 4L12 4L12 5L13 5L13 4L16 4L16 5L15 5L15 6L14 6L14 8L13 8L13 6L12 6L12 9L13 9L13 10L11 10L11 11L10 11L10 9L11 9L11 8L6 8L6 9L5 9L5 8L0 8L0 9L2 9L2 12L3 12L3 11L4 11L4 9L5 9L5 11L8 11L8 10L9 10L9 13L10 13L10 14L8 14L8 16L9 16L9 17L8 17L8 19L9 19L9 18L10 18L10 20L8 20L8 25L11 25L11 24L10 24L10 23L11 23L11 21L12 21L12 22L13 22L13 23L12 23L12 25L13 25L13 24L14 24L14 25L16 25L16 24L17 24L17 23L18 23L18 22L19 22L19 23L20 23L20 25L22 25L22 23L23 23L23 22L24 22L24 24L23 24L23 25L25 25L25 17L24 17L24 18L22 18L22 17L23 17L23 16L25 16L25 10L24 10L24 8L23 8L23 9L22 9L22 8L21 8L21 12L20 12L20 13L19 13L19 11L20 11L20 8L19 8L19 11L18 11L18 10L17 10L17 9L18 9L18 8L15 8L15 6L16 6L16 7L17 7L17 6L16 6L16 5L17 5L17 2L16 2L16 1L17 1L17 0L16 0L16 1L15 1L15 3L13 3L13 4L12 4L12 2L13 2L13 1L14 1L14 0L13 0L13 1L11 1L11 2L10 2L10 0ZM10 3L10 4L11 4L11 3ZM8 5L8 7L9 7L9 5ZM6 9L6 10L8 10L8 9ZM14 9L14 11L12 11L12 13L11 13L11 12L10 12L10 13L11 13L11 15L9 15L9 16L10 16L10 17L11 17L11 18L13 18L13 19L12 19L12 21L15 21L15 20L16 20L16 17L14 17L14 16L17 16L17 15L14 15L14 16L13 16L13 17L12 17L12 15L13 15L13 14L12 14L12 13L14 13L14 14L16 14L16 13L17 13L17 14L19 14L19 15L20 15L20 14L21 14L21 13L20 13L20 14L19 14L19 13L17 13L17 11L16 11L16 13L15 13L15 12L14 12L14 11L15 11L15 10L16 10L16 9ZM23 10L23 11L22 11L22 12L24 12L24 10ZM0 12L0 17L1 17L1 14L2 14L2 15L3 15L3 16L2 16L2 17L4 17L4 15L5 15L5 14L6 14L6 15L7 15L7 14L6 14L6 13L7 13L7 12L6 12L6 13L5 13L5 12L4 12L4 13L3 13L3 14L2 14L2 13L1 13L1 12ZM22 13L22 16L21 16L21 17L22 17L22 16L23 16L23 14L24 14L24 13ZM3 14L3 15L4 15L4 14ZM5 16L5 17L7 17L7 16ZM17 17L17 20L20 20L20 17ZM18 18L18 19L19 19L19 18ZM14 19L14 20L15 20L15 19ZM22 19L22 20L21 20L21 21L19 21L19 22L20 22L20 23L22 23L22 22L23 22L23 21L22 21L22 20L24 20L24 19ZM10 20L10 21L11 21L11 20ZM16 21L16 23L17 23L17 22L18 22L18 21ZM9 22L9 23L10 23L10 22ZM14 23L14 24L15 24L15 23ZM0 0L0 7L7 7L7 0ZM1 1L1 6L6 6L6 1ZM2 2L2 5L5 5L5 2ZM18 0L18 7L25 7L25 0ZM19 1L19 6L24 6L24 1ZM20 2L20 5L23 5L23 2ZM0 18L0 25L7 25L7 18ZM1 19L1 24L6 24L6 19ZM2 20L2 23L5 23L5 20Z" fill="#000000"/></g></g></svg>
