<?xml version="1.0" encoding="UTF-8"?>
<svg xmlns="http://www.w3.org/2000/svg" version="1.1" width="300" height="300" viewBox="0 0 300 300"><rect x="0" y="0" width="300" height="300" fill="#ffffff"/><g transform="scale(10.345)"><g transform="translate(0,0)"><path fill-rule="evenodd" d="M9 0L9 1L8 1L8 2L9 2L9 3L8 3L8 4L10 4L10 7L11 7L11 4L12 4L12 5L13 5L13 6L12 6L12 9L13 9L13 8L14 8L14 9L15 9L15 10L17 10L17 9L18 9L18 11L19 11L19 10L21 10L21 11L20 11L20 12L21 12L21 13L18 13L18 12L17 12L17 11L16 11L16 12L17 12L17 15L18 15L18 16L14 16L14 15L16 15L16 13L12 13L12 11L13 11L13 10L11 10L11 11L10 11L10 9L11 9L11 8L6 8L6 9L5 9L5 8L0 8L0 10L1 10L1 11L0 11L0 12L2 12L2 10L4 10L4 12L3 12L3 13L4 13L4 14L5 14L5 15L4 15L4 16L3 16L3 14L2 14L2 16L1 16L1 15L0 15L0 21L1 21L1 17L2 17L2 20L3 20L3 19L9 19L9 20L4 20L4 21L8 21L8 23L10 23L10 25L9 25L9 24L8 24L8 29L9 29L9 26L10 26L10 25L11 25L11 22L9 22L9 21L12 21L12 22L13 22L13 23L12 23L12 25L13 25L13 24L14 24L14 25L16 25L16 26L15 26L15 27L14 27L14 28L15 28L15 29L16 29L16 27L17 27L17 25L18 25L18 24L20 24L20 25L19 25L19 26L18 26L18 28L17 28L17 29L18 29L18 28L19 28L19 29L20 29L20 28L21 28L21 29L24 29L24 28L22 28L22 27L25 27L25 28L26 28L26 27L27 27L27 28L28 28L28 26L29 26L29 25L28 25L28 24L27 24L27 25L26 25L26 27L25 27L25 26L22 26L22 27L21 27L21 26L20 26L20 25L25 25L25 22L26 22L26 21L27 21L27 22L28 22L28 21L29 21L29 20L25 20L25 19L26 19L26 18L28 18L28 17L27 17L27 16L28 16L28 14L29 14L29 11L28 11L28 10L29 10L29 9L28 9L28 8L27 8L27 12L25 12L25 9L26 9L26 8L25 8L25 9L24 9L24 8L23 8L23 9L22 9L22 8L21 8L21 9L18 9L18 8L19 8L19 5L20 5L20 7L21 7L21 3L20 3L20 2L19 2L19 1L21 1L21 0L19 0L19 1L17 1L17 0L15 0L15 1L17 1L17 2L16 2L16 4L12 4L12 2L13 2L13 1L11 1L11 2L10 2L10 0ZM14 2L14 3L15 3L15 2ZM17 2L17 3L18 3L18 4L20 4L20 3L19 3L19 2ZM10 3L10 4L11 4L11 3ZM16 4L16 5L17 5L17 7L16 7L16 6L15 6L15 7L14 7L14 6L13 6L13 7L14 7L14 8L15 8L15 7L16 7L16 9L17 9L17 8L18 8L18 5L17 5L17 4ZM8 5L8 7L9 7L9 5ZM1 9L1 10L2 10L2 9ZM6 9L6 10L7 10L7 9ZM8 9L8 12L7 12L7 11L5 11L5 12L4 12L4 13L5 13L5 14L7 14L7 15L6 15L6 16L4 16L4 17L3 17L3 16L2 16L2 17L3 17L3 18L4 18L4 17L5 17L5 18L7 18L7 17L8 17L8 18L13 18L13 19L12 19L12 21L15 21L15 22L16 22L16 21L17 21L17 24L18 24L18 21L17 21L17 20L21 20L21 19L20 19L20 18L19 18L19 19L18 19L18 18L17 18L17 19L16 19L16 21L15 21L15 20L14 20L14 19L15 19L15 18L16 18L16 17L14 17L14 16L13 16L13 17L12 17L12 15L13 15L13 14L12 14L12 13L11 13L11 12L10 12L10 13L11 13L11 15L10 15L10 16L11 16L11 17L8 17L8 16L7 16L7 15L9 15L9 13L8 13L8 12L9 12L9 9ZM21 9L21 10L22 10L22 9ZM23 9L23 10L24 10L24 9ZM14 11L14 12L15 12L15 11ZM6 12L6 13L7 13L7 12ZM22 12L22 13L25 13L25 15L24 15L24 16L23 16L23 14L22 14L22 16L21 16L21 15L20 15L20 14L18 14L18 15L19 15L19 16L18 16L18 17L21 17L21 18L22 18L22 20L24 20L24 19L23 19L23 18L22 18L22 17L25 17L25 18L26 18L26 17L25 17L25 16L27 16L27 15L26 15L26 14L28 14L28 13L25 13L25 12ZM0 13L0 14L1 14L1 13ZM6 16L6 17L7 17L7 16ZM10 19L10 20L11 20L11 19ZM21 21L21 24L24 24L24 21ZM22 22L22 23L23 23L23 22ZM14 23L14 24L16 24L16 23ZM11 26L11 28L10 28L10 29L12 29L12 27L13 27L13 26ZM19 26L19 28L20 28L20 26ZM0 0L0 7L7 7L7 0ZM1 1L1 6L6 6L6 1ZM2 2L2 5L5 5L5 2ZM22 0L22 7L29 7L29 0ZM23 1L23 6L28 6L28 1ZM24 2L24 5L27 5L27 2ZM0 22L0 29L7 29L7 22ZM1 23L1 28L6 28L6 23ZM2 24L2 27L5 27L5 24Z" fill="#000000"/></g></g></svg>
