<?xml version="1.0" encoding="UTF-8"?>
<svg xmlns="http://www.w3.org/2000/svg" version="1.1" width="300" height="300" viewBox="0 0 300 300"><rect x="0" y="0" width="300" height="300" fill="#ffffff"/><g transform="scale(12)"><g transform="translate(0,0)"><path fill-rule="evenodd" d="M9 0L9 1L10 1L10 2L8 2L8 3L9 3L9 4L10 4L10 5L9 5L9 6L8 6L8 8L4 8L4 9L3 9L3 8L0 8L0 12L1 12L1 11L2 11L2 14L3 14L3 13L4 13L4 16L5 16L5 17L8 17L8 21L9 21L9 22L8 22L8 25L9 25L9 22L14 22L14 23L13 23L13 24L12 24L12 25L13 25L13 24L14 24L14 23L15 23L15 25L19 25L19 24L20 24L20 25L22 25L22 23L23 23L23 25L25 25L25 24L24 24L24 23L25 23L25 22L24 22L24 23L23 23L23 22L22 22L22 23L21 23L21 21L22 21L22 19L21 19L21 18L22 18L22 15L25 15L25 14L24 14L24 13L25 13L25 12L24 12L24 11L25 11L25 9L24 9L24 11L23 11L23 14L22 14L22 13L21 13L21 12L22 12L22 11L18 11L18 9L19 9L19 8L17 8L17 9L15 9L15 10L14 10L14 11L13 11L13 8L14 8L14 7L15 7L15 6L16 6L16 7L17 7L17 5L15 5L15 3L13 3L13 4L14 4L14 5L15 5L15 6L14 6L14 7L13 7L13 5L11 5L11 3L12 3L12 1L13 1L13 2L16 2L16 3L17 3L17 2L16 2L16 1L13 1L13 0L12 0L12 1L11 1L11 0ZM10 5L10 6L9 6L9 7L10 7L10 6L11 6L11 7L12 7L12 8L11 8L11 9L12 9L12 8L13 8L13 7L12 7L12 6L11 6L11 5ZM9 8L9 9L8 9L8 11L6 11L6 10L7 10L7 9L5 9L5 10L2 10L2 9L1 9L1 10L2 10L2 11L3 11L3 12L4 12L4 13L5 13L5 16L7 16L7 15L6 15L6 14L7 14L7 13L6 13L6 12L8 12L8 13L9 13L9 14L10 14L10 15L8 15L8 17L9 17L9 16L10 16L10 17L12 17L12 16L13 16L13 19L12 19L12 18L11 18L11 19L10 19L10 18L9 18L9 19L10 19L10 20L9 20L9 21L11 21L11 19L12 19L12 20L13 20L13 19L15 19L15 18L16 18L16 17L15 17L15 16L19 16L19 15L18 15L18 14L17 14L17 13L16 13L16 12L17 12L17 11L16 11L16 10L15 10L15 11L14 11L14 12L12 12L12 10L10 10L10 8ZM22 8L22 9L21 9L21 10L23 10L23 8ZM9 10L9 11L10 11L10 10ZM5 11L5 12L6 12L6 11ZM15 11L15 12L16 12L16 11ZM19 12L19 13L20 13L20 16L21 16L21 15L22 15L22 14L21 14L21 13L20 13L20 12ZM11 13L11 14L14 14L14 15L13 15L13 16L15 16L15 14L14 14L14 13ZM0 14L0 15L1 15L1 16L0 16L0 17L1 17L1 16L2 16L2 17L3 17L3 15L1 15L1 14ZM16 14L16 15L17 15L17 14ZM10 15L10 16L12 16L12 15ZM17 17L17 20L20 20L20 17ZM23 17L23 19L25 19L25 18L24 18L24 17ZM18 18L18 19L19 19L19 18ZM15 20L15 21L14 21L14 22L17 22L17 24L18 24L18 23L20 23L20 24L21 24L21 23L20 23L20 21L16 21L16 20ZM23 20L23 21L24 21L24 20ZM10 24L10 25L11 25L11 24ZM0 0L0 7L7 7L7 0ZM1 1L1 6L6 6L6 1ZM2 2L2 5L5 5L5 2ZM18 0L18 7L25 7L25 0ZM19 1L19 6L24 6L24 1ZM20 2L20 5L23 5L23 2ZM0 18L0 25L7 25L7 18ZM1 19L1 24L6 24L6 19ZM2 20L2 23L5 23L5 20Z" fill="#000000"/></g></g></svg>
