<?xml version="1.0" encoding="UTF-8"?>
<svg xmlns="http://www.w3.org/2000/svg" version="1.1" width="300" height="300" viewBox="0 0 300 300"><rect x="0" y="0" width="300" height="300" fill="#ffffff"/><g transform="scale(12)"><g transform="translate(0,0)"><path fill-rule="evenodd" d="M9 0L9 1L10 1L10 2L8 2L8 3L9 3L9 4L10 4L10 5L9 5L9 6L8 6L8 8L4 8L4 10L3 10L3 11L2 11L2 9L3 9L3 8L0 8L0 10L1 10L1 12L0 12L0 13L1 13L1 12L3 12L3 14L4 14L4 15L5 15L5 16L3 16L3 15L1 15L1 14L0 14L0 15L1 15L1 16L0 16L0 17L1 17L1 16L3 16L3 17L5 17L5 16L6 16L6 17L8 17L8 21L9 21L9 22L8 22L8 25L9 25L9 24L10 24L10 23L12 23L12 24L11 24L11 25L12 25L12 24L14 24L14 25L22 25L22 23L23 23L23 25L25 25L25 24L24 24L24 23L25 23L25 22L24 22L24 23L23 23L23 22L21 22L21 21L22 21L22 19L21 19L21 18L22 18L22 15L25 15L25 14L24 14L24 13L25 13L25 12L24 12L24 11L25 11L25 9L24 9L24 11L23 11L23 14L22 14L22 13L21 13L21 12L22 12L22 11L18 11L18 9L19 9L19 8L16 8L16 7L17 7L17 5L16 5L16 4L15 4L15 3L17 3L17 1L16 1L16 0L15 0L15 3L14 3L14 4L13 4L13 6L12 6L12 8L11 8L11 6L10 6L10 5L11 5L11 4L12 4L12 3L13 3L13 0L12 0L12 1L10 1L10 0ZM11 2L11 3L12 3L12 2ZM14 5L14 6L13 6L13 7L14 7L14 10L13 10L13 8L12 8L12 10L10 10L10 8L9 8L9 10L10 10L10 11L8 11L8 12L7 12L7 11L5 11L5 10L4 10L4 11L3 11L3 12L4 12L4 14L5 14L5 15L6 15L6 16L7 16L7 15L8 15L8 17L9 17L9 21L10 21L10 22L9 22L9 23L10 23L10 22L11 22L11 21L12 21L12 20L13 20L13 21L14 21L14 22L13 22L13 23L14 23L14 22L17 22L17 24L18 24L18 23L20 23L20 21L16 21L16 20L15 20L15 18L16 18L16 17L14 17L14 16L12 16L12 15L10 15L10 14L11 14L11 13L12 13L12 12L13 12L13 11L14 11L14 10L15 10L15 11L16 11L16 12L14 12L14 13L13 13L13 15L14 15L14 13L15 13L15 16L19 16L19 15L18 15L18 14L17 14L17 13L16 13L16 12L17 12L17 11L16 11L16 8L15 8L15 7L16 7L16 6L15 6L15 5ZM9 6L9 7L10 7L10 6ZM14 6L14 7L15 7L15 6ZM22 8L22 9L21 9L21 10L23 10L23 8ZM6 9L6 10L8 10L8 9ZM4 11L4 12L5 12L5 11ZM11 11L11 12L12 12L12 11ZM6 12L6 13L5 13L5 14L6 14L6 15L7 15L7 14L6 14L6 13L7 13L7 12ZM19 12L19 13L20 13L20 14L21 14L21 15L22 15L22 14L21 14L21 13L20 13L20 12ZM8 13L8 14L10 14L10 13ZM16 14L16 15L17 15L17 14ZM11 16L11 17L10 17L10 19L11 19L11 20L12 20L12 19L11 19L11 18L12 18L12 16ZM17 17L17 20L20 20L20 17ZM23 17L23 19L25 19L25 18L24 18L24 17ZM13 18L13 19L14 19L14 18ZM18 18L18 19L19 19L19 18ZM23 20L23 21L25 21L25 20ZM0 0L0 7L7 7L7 0ZM1 1L1 6L6 6L6 1ZM2 2L2 5L5 5L5 2ZM18 0L18 7L25 7L25 0ZM19 1L19 6L24 6L24 1ZM20 2L20 5L23 5L23 2ZM0 18L0 25L7 25L7 18ZM1 19L1 24L6 24L6 19ZM2 20L2 23L5 23L5 20Z" fill="#000000"/></g></g></svg>
