<?xml version="1.0" encoding="UTF-8"?>
<svg xmlns="http://www.w3.org/2000/svg" version="1.1" width="300" height="300" viewBox="0 0 300 300"><rect x="0" y="0" width="300" height="300" fill="#ffffff"/><g transform="scale(12)"><g transform="translate(0,0)"><path fill-rule="evenodd" d="M10 0L10 2L11 2L11 0ZM12 0L12 1L13 1L13 0ZM16 0L16 1L15 1L15 2L14 2L14 3L13 3L13 2L12 2L12 4L14 4L14 7L15 7L15 8L13 8L13 9L12 9L12 7L13 7L13 5L11 5L11 6L10 6L10 4L11 4L11 3L8 3L8 4L9 4L9 5L8 5L8 7L9 7L9 8L6 8L6 9L7 9L7 10L6 10L6 11L7 11L7 10L8 10L8 11L9 11L9 9L10 9L10 11L11 11L11 9L12 9L12 10L14 10L14 9L16 9L16 10L15 10L15 11L14 11L14 12L13 12L13 11L12 11L12 13L13 13L13 14L10 14L10 13L11 13L11 12L9 12L9 15L10 15L10 16L8 16L8 15L7 15L7 14L8 14L8 12L6 12L6 13L7 13L7 14L5 14L5 11L3 11L3 12L4 12L4 15L5 15L5 16L6 16L6 17L7 17L7 16L8 16L8 19L9 19L9 20L8 20L8 25L9 25L9 24L10 24L10 23L11 23L11 25L12 25L12 23L13 23L13 22L11 22L11 17L12 17L12 18L13 18L13 19L12 19L12 21L13 21L13 20L14 20L14 21L17 21L17 22L22 22L22 21L23 21L23 22L24 22L24 24L22 24L22 23L21 23L21 24L22 24L22 25L25 25L25 17L24 17L24 18L22 18L22 17L23 17L23 16L25 16L25 10L24 10L24 8L23 8L23 9L22 9L22 8L21 8L21 10L20 10L20 8L19 8L19 9L18 9L18 8L16 8L16 7L17 7L17 6L16 6L16 5L17 5L17 3L15 3L15 2L16 2L16 1L17 1L17 0ZM8 1L8 2L9 2L9 1ZM15 4L15 5L16 5L16 4ZM9 6L9 7L10 7L10 6ZM11 6L11 7L12 7L12 6ZM15 6L15 7L16 7L16 6ZM0 8L0 9L1 9L1 10L2 10L2 9L3 9L3 10L5 10L5 8ZM10 8L10 9L11 9L11 8ZM17 9L17 10L16 10L16 13L14 13L14 15L12 15L12 17L14 17L14 18L15 18L15 19L14 19L14 20L15 20L15 19L16 19L16 16L17 16L17 15L18 15L18 14L19 14L19 15L20 15L20 16L21 16L21 17L22 17L22 16L23 16L23 14L24 14L24 13L22 13L22 16L21 16L21 12L20 12L20 10L18 10L18 9ZM17 10L17 11L18 11L18 10ZM23 10L23 11L22 11L22 12L24 12L24 10ZM1 11L1 12L0 12L0 17L1 17L1 12L2 12L2 11ZM17 12L17 13L19 13L19 12ZM2 13L2 15L3 15L3 13ZM15 14L15 15L14 15L14 16L15 16L15 15L16 15L16 14ZM6 15L6 16L7 16L7 15ZM2 16L2 17L4 17L4 16ZM17 17L17 20L20 20L20 17ZM9 18L9 19L10 19L10 18ZM18 18L18 19L19 19L19 18ZM22 19L22 20L21 20L21 21L22 21L22 20L23 20L23 19ZM9 21L9 23L10 23L10 21ZM14 23L14 24L17 24L17 25L20 25L20 23L19 23L19 24L18 24L18 23ZM0 0L0 7L7 7L7 0ZM1 1L1 6L6 6L6 1ZM2 2L2 5L5 5L5 2ZM18 0L18 7L25 7L25 0ZM19 1L19 6L24 6L24 1ZM20 2L20 5L23 5L23 2ZM0 18L0 25L7 25L7 18ZM1 19L1 24L6 24L6 19ZM2 20L2 23L5 23L5 20Z" fill="#000000"/></g></g></svg>
