<?xml version="1.0" encoding="UTF-8"?>
<svg xmlns="http://www.w3.org/2000/svg" version="1.1" width="300" height="300" viewBox="0 0 300 300"><rect x="0" y="0" width="300" height="300" fill="#ffffff"/><g transform="scale(12)"><g transform="translate(0,0)"><path fill-rule="evenodd" d="M8 0L8 1L10 1L10 0ZM15 0L15 1L14 1L14 2L11 2L11 4L10 4L10 3L9 3L9 2L8 2L8 5L9 5L9 6L8 6L8 7L9 7L9 8L8 8L8 10L6 10L6 11L8 11L8 12L9 12L9 14L8 14L8 13L7 13L7 12L6 12L6 13L7 13L7 14L5 14L5 15L3 15L3 13L2 13L2 12L3 12L3 10L4 10L4 11L5 11L5 10L4 10L4 8L0 8L0 9L3 9L3 10L2 10L2 12L1 12L1 13L2 13L2 14L1 14L1 15L0 15L0 16L1 16L1 15L2 15L2 17L4 17L4 16L5 16L5 15L7 15L7 16L6 16L6 17L8 17L8 18L9 18L9 21L8 21L8 25L11 25L11 24L9 24L9 23L10 23L10 22L11 22L11 23L14 23L14 20L15 20L15 18L16 18L16 21L17 21L17 25L19 25L19 22L20 22L20 23L21 23L21 22L22 22L22 20L21 20L21 19L23 19L23 23L22 23L22 25L25 25L25 24L23 24L23 23L24 23L24 22L25 22L25 21L24 21L24 20L25 20L25 18L23 18L23 17L25 17L25 15L24 15L24 13L25 13L25 12L23 12L23 11L24 11L24 9L25 9L25 8L24 8L24 9L23 9L23 8L20 8L20 9L18 9L18 8L17 8L17 9L15 9L15 4L16 4L16 7L17 7L17 2L15 2L15 1L17 1L17 0ZM12 3L12 5L10 5L10 6L9 6L9 7L10 7L10 8L9 8L9 9L10 9L10 10L9 10L9 12L10 12L10 13L11 13L11 11L13 11L13 8L14 8L14 5L13 5L13 4L14 4L14 3ZM12 5L12 7L11 7L11 6L10 6L10 7L11 7L11 8L12 8L12 7L13 7L13 5ZM6 8L6 9L7 9L7 8ZM14 9L14 10L15 10L15 11L14 11L14 12L12 12L12 14L11 14L11 16L12 16L12 17L11 17L11 18L12 18L12 17L13 17L13 20L14 20L14 18L15 18L15 16L17 16L17 15L19 15L19 14L20 14L20 13L21 13L21 15L20 15L20 16L21 16L21 15L22 15L22 16L23 16L23 15L22 15L22 14L23 14L23 13L21 13L21 12L22 12L22 10L21 10L21 9L20 9L20 10L19 10L19 11L21 11L21 12L19 12L19 14L17 14L17 12L18 12L18 9L17 9L17 10L15 10L15 9ZM0 10L0 11L1 11L1 10ZM16 11L16 12L14 12L14 14L12 14L12 16L13 16L13 15L14 15L14 16L15 16L15 15L14 15L14 14L16 14L16 15L17 15L17 14L16 14L16 12L17 12L17 11ZM4 12L4 13L5 13L5 12ZM7 14L7 15L8 15L8 16L10 16L10 15L8 15L8 14ZM17 17L17 20L20 20L20 17ZM21 17L21 18L22 18L22 17ZM18 18L18 19L19 19L19 18ZM10 19L10 20L12 20L12 19ZM9 21L9 22L10 22L10 21ZM11 21L11 22L12 22L12 21ZM15 22L15 23L16 23L16 22ZM12 24L12 25L13 25L13 24ZM14 24L14 25L15 25L15 24ZM20 24L20 25L21 25L21 24ZM0 0L0 7L7 7L7 0ZM1 1L1 6L6 6L6 1ZM2 2L2 5L5 5L5 2ZM18 0L18 7L25 7L25 0ZM19 1L19 6L24 6L24 1ZM20 2L20 5L23 5L23 2ZM0 18L0 25L7 25L7 18ZM1 19L1 24L6 24L6 19ZM2 20L2 23L5 23L5 20Z" fill="#000000"/></g></g></svg>
