<?xml version="1.0" encoding="UTF-8"?>
<svg xmlns="http://www.w3.org/2000/svg" version="1.1" width="300" height="300" viewBox="0 0 300 300"><rect x="0" y="0" width="300" height="300" fill="#ffffff"/><g transform="scale(12)"><g transform="translate(0,0)"><path fill-rule="evenodd" d="M8 0L8 4L10 4L10 3L11 3L11 4L12 4L12 2L11 2L11 0ZM12 0L12 1L14 1L14 0ZM16 0L16 2L15 2L15 3L14 3L14 5L11 5L11 6L10 6L10 7L9 7L9 5L8 5L8 7L9 7L9 8L10 8L10 7L11 7L11 6L12 6L12 8L11 8L11 9L8 9L8 10L5 10L5 11L7 11L7 12L6 12L6 13L7 13L7 12L8 12L8 11L9 11L9 10L11 10L11 11L10 11L10 13L11 13L11 12L12 12L12 13L13 13L13 14L14 14L14 16L13 16L13 18L11 18L11 15L12 15L12 14L11 14L11 15L10 15L10 16L9 16L9 13L8 13L8 15L7 15L7 14L5 14L5 13L3 13L3 12L4 12L4 11L3 11L3 10L4 10L4 9L7 9L7 8L4 8L4 9L2 9L2 8L0 8L0 10L1 10L1 11L2 11L2 13L3 13L3 14L2 14L2 15L3 15L3 17L4 17L4 16L5 16L5 17L8 17L8 18L11 18L11 19L10 19L10 21L9 21L9 19L8 19L8 21L9 21L9 23L8 23L8 25L9 25L9 23L10 23L10 21L13 21L13 22L11 22L11 25L14 25L14 24L13 24L13 22L16 22L16 23L15 23L15 25L16 25L16 23L18 23L18 24L17 24L17 25L19 25L19 21L23 21L23 23L21 23L21 24L20 24L20 25L25 25L25 24L24 24L24 22L25 22L25 21L23 21L23 19L22 19L22 18L21 18L21 17L23 17L23 14L21 14L21 12L22 12L22 13L24 13L24 14L25 14L25 12L24 12L24 9L25 9L25 8L21 8L21 9L20 9L20 8L19 8L19 9L18 9L18 11L17 11L17 9L16 9L16 8L15 8L15 3L16 3L16 5L17 5L17 0ZM9 2L9 3L10 3L10 2ZM13 6L13 8L14 8L14 9L13 9L13 10L14 10L14 9L15 9L15 10L16 10L16 9L15 9L15 8L14 8L14 6ZM16 6L16 7L17 7L17 6ZM1 9L1 10L2 10L2 9ZM11 9L11 10L12 10L12 9ZM19 9L19 12L20 12L20 9ZM21 9L21 10L22 10L22 11L23 11L23 10L22 10L22 9ZM13 11L13 12L14 12L14 13L16 13L16 14L18 14L18 15L17 15L17 16L20 16L20 15L21 15L21 14L20 14L20 15L19 15L19 13L17 13L17 12L15 12L15 11ZM0 12L0 14L1 14L1 12ZM4 14L4 15L5 15L5 16L7 16L7 15L5 15L5 14ZM15 15L15 16L14 16L14 17L15 17L15 16L16 16L16 15ZM0 16L0 17L2 17L2 16ZM17 17L17 20L20 20L20 17ZM24 17L24 18L25 18L25 17ZM13 18L13 21L14 21L14 18ZM15 18L15 19L16 19L16 18ZM18 18L18 19L19 19L19 18ZM11 19L11 20L12 20L12 19ZM24 19L24 20L25 20L25 19ZM15 20L15 21L16 21L16 22L17 22L17 21L16 21L16 20ZM0 0L0 7L7 7L7 0ZM1 1L1 6L6 6L6 1ZM2 2L2 5L5 5L5 2ZM18 0L18 7L25 7L25 0ZM19 1L19 6L24 6L24 1ZM20 2L20 5L23 5L23 2ZM0 18L0 25L7 25L7 18ZM1 19L1 24L6 24L6 19ZM2 20L2 23L5 23L5 20Z" fill="#000000"/></g></g></svg>
