<?xml version="1.0" encoding="UTF-8"?>
<svg xmlns="http://www.w3.org/2000/svg" version="1.1" width="300" height="300" viewBox="0 0 300 300"><rect x="0" y="0" width="300" height="300" fill="#ffffff"/><g transform="scale(12)"><g transform="translate(0,0)"><path fill-rule="evenodd" d="M8 0L8 4L9 4L9 5L8 5L8 7L9 7L9 6L10 6L10 9L11 9L11 8L12 8L12 9L13 9L13 10L15 10L15 11L14 11L14 12L12 12L12 10L9 10L9 9L8 9L8 11L7 11L7 10L6 10L6 11L7 11L7 12L6 12L6 13L7 13L7 14L6 14L6 15L8 15L8 16L6 16L6 17L8 17L8 18L9 18L9 19L8 19L8 21L9 21L9 23L8 23L8 25L10 25L10 24L11 24L11 25L14 25L14 24L11 24L11 23L13 23L13 22L16 22L16 23L15 23L15 25L16 25L16 23L18 23L18 24L17 24L17 25L19 25L19 21L21 21L21 22L22 22L22 21L23 21L23 23L20 23L20 25L25 25L25 24L24 24L24 22L25 22L25 21L24 21L24 19L22 19L22 18L21 18L21 17L23 17L23 14L21 14L21 12L22 12L22 13L24 13L24 14L25 14L25 12L24 12L24 9L25 9L25 8L21 8L21 9L20 9L20 8L19 8L19 9L18 9L18 11L17 11L17 6L16 6L16 7L15 7L15 5L13 5L13 4L12 4L12 5L13 5L13 6L12 6L12 7L11 7L11 3L10 3L10 2L9 2L9 0ZM14 0L14 1L11 1L11 2L12 2L12 3L13 3L13 2L14 2L14 4L16 4L16 5L17 5L17 4L16 4L16 3L17 3L17 2L16 2L16 3L15 3L15 0ZM16 0L16 1L17 1L17 0ZM13 6L13 8L14 8L14 9L15 9L15 10L16 10L16 8L14 8L14 6ZM0 8L0 11L1 11L1 13L0 13L0 14L4 14L4 13L5 13L5 9L7 9L7 8L4 8L4 9L3 9L3 10L2 10L2 8ZM19 9L19 12L20 12L20 9ZM21 9L21 10L22 10L22 11L23 11L23 10L22 10L22 9ZM3 10L3 11L4 11L4 10ZM10 11L10 12L9 12L9 13L8 13L8 12L7 12L7 13L8 13L8 14L9 14L9 13L11 13L11 14L12 14L12 15L13 15L13 16L11 16L11 15L9 15L9 16L8 16L8 17L9 17L9 18L13 18L13 19L12 19L12 20L11 20L11 19L10 19L10 20L9 20L9 21L10 21L10 22L13 22L13 21L14 21L14 20L15 20L15 21L16 21L16 22L17 22L17 21L16 21L16 20L15 20L15 19L16 19L16 18L14 18L14 17L15 17L15 16L16 16L16 15L15 15L15 13L16 13L16 14L18 14L18 15L17 15L17 16L20 16L20 15L21 15L21 14L20 14L20 15L19 15L19 13L17 13L17 12L14 12L14 15L13 15L13 13L11 13L11 11ZM2 12L2 13L3 13L3 12ZM4 15L4 16L5 16L5 15ZM14 15L14 16L13 16L13 17L14 17L14 16L15 16L15 15ZM0 16L0 17L3 17L3 16ZM9 16L9 17L10 17L10 16ZM17 17L17 20L20 20L20 17ZM24 17L24 18L25 18L25 17ZM18 18L18 19L19 19L19 18ZM10 20L10 21L11 21L11 20ZM12 20L12 21L13 21L13 20ZM9 23L9 24L10 24L10 23ZM0 0L0 7L7 7L7 0ZM1 1L1 6L6 6L6 1ZM2 2L2 5L5 5L5 2ZM18 0L18 7L25 7L25 0ZM19 1L19 6L24 6L24 1ZM20 2L20 5L23 5L23 2ZM0 18L0 25L7 25L7 18ZM1 19L1 24L6 24L6 19ZM2 20L2 23L5 23L5 20Z" fill="#000000"/></g></g></svg>
