<?xml version="1.0" encoding="UTF-8"?>
<svg xmlns="http://www.w3.org/2000/svg" version="1.1" width="300" height="300" viewBox="0 0 300 300"><rect x="0" y="0" width="300" height="300" fill="#ffffff"/><g transform="scale(12)"><g transform="translate(0,0)"><path fill-rule="evenodd" d="M8 0L8 1L9 1L9 2L10 2L10 3L11 3L11 1L13 1L13 2L12 2L12 4L11 4L11 5L10 5L10 4L9 4L9 5L10 5L10 8L9 8L9 6L8 6L8 8L9 8L9 10L8 10L8 9L7 9L7 8L6 8L6 9L5 9L5 8L3 8L3 9L4 9L4 10L2 10L2 8L0 8L0 10L2 10L2 11L0 11L0 12L2 12L2 13L0 13L0 17L1 17L1 15L2 15L2 14L3 14L3 15L4 15L4 16L3 16L3 17L4 17L4 16L5 16L5 17L8 17L8 18L9 18L9 19L10 19L10 21L9 21L9 20L8 20L8 22L9 22L9 23L8 23L8 25L10 25L10 21L11 21L11 23L13 23L13 22L12 22L12 21L13 21L13 20L14 20L14 24L15 24L15 25L17 25L17 24L16 24L16 23L18 23L18 25L21 25L21 24L19 24L19 23L18 23L18 22L19 22L19 21L20 21L20 23L21 23L21 19L22 19L22 18L24 18L24 19L23 19L23 20L24 20L24 19L25 19L25 17L24 17L24 16L25 16L25 10L24 10L24 9L25 9L25 8L24 8L24 9L23 9L23 10L21 10L21 9L19 9L19 8L18 8L18 9L19 9L19 10L17 10L17 11L18 11L18 13L20 13L20 14L19 14L19 15L18 15L18 14L17 14L17 12L16 12L16 9L17 9L17 8L16 8L16 9L15 9L15 8L14 8L14 7L15 7L15 6L14 6L14 5L12 5L12 4L14 4L14 3L15 3L15 4L16 4L16 5L17 5L17 3L16 3L16 2L14 2L14 1L15 1L15 0L11 0L11 1L9 1L9 0ZM11 5L11 7L12 7L12 8L13 8L13 9L14 9L14 8L13 8L13 7L14 7L14 6L13 6L13 7L12 7L12 5ZM16 6L16 7L17 7L17 6ZM6 9L6 10L7 10L7 9ZM10 9L10 10L9 10L9 11L8 11L8 13L6 13L6 12L7 12L7 11L4 11L4 12L3 12L3 13L6 13L6 14L4 14L4 15L5 15L5 16L7 16L7 15L6 15L6 14L8 14L8 15L9 15L9 18L12 18L12 19L11 19L11 21L12 21L12 19L14 19L14 20L16 20L16 17L15 17L15 16L16 16L16 15L15 15L15 14L14 14L14 15L12 15L12 14L13 14L13 13L14 13L14 12L15 12L15 13L16 13L16 12L15 12L15 11L14 11L14 10L12 10L12 9ZM10 10L10 11L9 11L9 13L10 13L10 12L11 12L11 14L12 14L12 13L13 13L13 12L12 12L12 10ZM19 10L19 11L21 11L21 12L22 12L22 13L21 13L21 14L24 14L24 12L22 12L22 11L21 11L21 10ZM9 14L9 15L10 15L10 14ZM14 15L14 16L10 16L10 17L13 17L13 18L14 18L14 19L15 19L15 18L14 18L14 16L15 16L15 15ZM19 15L19 16L21 16L21 18L22 18L22 15ZM17 17L17 20L20 20L20 17ZM18 18L18 19L19 19L19 18ZM15 21L15 22L17 22L17 21ZM22 21L22 22L23 22L23 23L22 23L22 24L24 24L24 25L25 25L25 21ZM12 24L12 25L13 25L13 24ZM0 0L0 7L7 7L7 0ZM1 1L1 6L6 6L6 1ZM2 2L2 5L5 5L5 2ZM18 0L18 7L25 7L25 0ZM19 1L19 6L24 6L24 1ZM20 2L20 5L23 5L23 2ZM0 18L0 25L7 25L7 18ZM1 19L1 24L6 24L6 19ZM2 20L2 23L5 23L5 20Z" fill="#000000"/></g></g></svg>
