<?xml version="1.0" encoding="UTF-8"?>
<svg xmlns="http://www.w3.org/2000/svg" version="1.1" width="300" height="300" viewBox="0 0 300 300"><rect x="0" y="0" width="300" height="300" fill="#ffffff"/><g transform="scale(12)"><g transform="translate(0,0)"><path fill-rule="evenodd" d="M9 0L9 1L11 1L11 2L9 2L9 3L8 3L8 5L9 5L9 6L8 6L8 7L9 7L9 9L8 9L8 8L5 8L5 9L8 9L8 10L9 10L9 11L7 11L7 10L6 10L6 11L5 11L5 10L4 10L4 9L2 9L2 8L0 8L0 9L2 9L2 10L1 10L1 11L0 11L0 17L1 17L1 13L2 13L2 12L1 12L1 11L3 11L3 13L4 13L4 12L6 12L6 13L5 13L5 14L4 14L4 15L3 15L3 14L2 14L2 17L3 17L3 16L4 16L4 17L5 17L5 16L4 16L4 15L7 15L7 14L6 14L6 13L10 13L10 15L9 15L9 14L8 14L8 15L9 15L9 16L6 16L6 17L8 17L8 20L9 20L9 22L10 22L10 23L8 23L8 25L10 25L10 23L11 23L11 22L10 22L10 21L12 21L12 25L13 25L13 21L15 21L15 22L14 22L14 23L15 23L15 22L20 22L20 21L21 21L21 22L24 22L24 25L25 25L25 21L23 21L23 20L22 20L22 21L21 21L21 19L22 19L22 18L21 18L21 15L22 15L22 17L23 17L23 16L25 16L25 10L24 10L24 9L23 9L23 10L21 10L21 9L22 9L22 8L20 8L20 9L18 9L18 10L17 10L17 11L18 11L18 10L20 10L20 12L18 12L18 13L22 13L22 12L21 12L21 11L23 11L23 10L24 10L24 14L23 14L23 15L22 15L22 14L21 14L21 15L20 15L20 16L19 16L19 14L18 14L18 15L16 15L16 13L17 13L17 12L15 12L15 16L13 16L13 15L12 15L12 17L14 17L14 19L15 19L15 18L16 18L16 20L12 20L12 19L13 19L13 18L12 18L12 19L10 19L10 20L9 20L9 18L10 18L10 17L11 17L11 16L10 16L10 15L11 15L11 12L12 12L12 11L13 11L13 10L15 10L15 11L16 11L16 9L17 9L17 8L16 8L16 7L17 7L17 3L16 3L16 2L17 2L17 1L16 1L16 2L15 2L15 0L13 0L13 1L12 1L12 0ZM13 1L13 2L12 2L12 4L11 4L11 7L10 7L10 6L9 6L9 7L10 7L10 8L11 8L11 10L10 10L10 9L9 9L9 10L10 10L10 11L9 11L9 12L10 12L10 11L11 11L11 10L13 10L13 9L12 9L12 6L13 6L13 8L15 8L15 7L16 7L16 4L15 4L15 2L14 2L14 1ZM9 3L9 5L10 5L10 3ZM13 3L13 4L12 4L12 5L13 5L13 4L14 4L14 3ZM14 5L14 7L15 7L15 5ZM6 11L6 12L7 12L7 11ZM12 13L12 14L13 14L13 13ZM15 16L15 17L16 17L16 16ZM17 17L17 20L20 20L20 17ZM24 17L24 20L25 20L25 17ZM18 18L18 19L19 19L19 18ZM16 23L16 25L17 25L17 24L18 24L18 25L20 25L20 23L19 23L19 24L18 24L18 23ZM0 0L0 7L7 7L7 0ZM1 1L1 6L6 6L6 1ZM2 2L2 5L5 5L5 2ZM18 0L18 7L25 7L25 0ZM19 1L19 6L24 6L24 1ZM20 2L20 5L23 5L23 2ZM0 18L0 25L7 25L7 18ZM1 19L1 24L6 24L6 19ZM2 20L2 23L5 23L5 20Z" fill="#000000"/></g></g></svg>
