<?xml version="1.0" encoding="UTF-8"?>
<svg xmlns="http://www.w3.org/2000/svg" version="1.1" width="300" height="300" viewBox="0 0 300 300"><rect x="0" y="0" width="300" height="300" fill="#ffffff"/><g transform="scale(12)"><g transform="translate(0,0)"><path fill-rule="evenodd" d="M8 0L8 4L9 4L9 5L8 5L8 7L9 7L9 6L10 6L10 9L11 9L11 8L12 8L12 9L13 9L13 10L15 10L15 11L14 11L14 12L15 12L15 11L18 11L18 10L17 10L17 9L13 9L13 8L12 8L12 7L13 7L13 6L14 6L14 7L15 7L15 8L17 8L17 0L13 0L13 1L11 1L11 2L12 2L12 5L13 5L13 6L12 6L12 7L11 7L11 3L10 3L10 2L9 2L9 0ZM13 1L13 3L15 3L15 4L16 4L16 3L15 3L15 2L16 2L16 1L15 1L15 2L14 2L14 1ZM13 4L13 5L14 5L14 4ZM15 5L15 7L16 7L16 5ZM0 8L0 9L1 9L1 10L0 10L0 12L1 12L1 10L2 10L2 11L3 11L3 10L4 10L4 11L5 11L5 14L4 14L4 15L7 15L7 14L6 14L6 13L7 13L7 12L8 12L8 10L9 10L9 12L10 12L10 11L11 11L11 10L9 10L9 9L7 9L7 8L4 8L4 9L3 9L3 10L2 10L2 8ZM19 8L19 9L20 9L20 11L19 11L19 12L16 12L16 14L14 14L14 13L13 13L13 11L12 11L12 12L11 12L11 13L8 13L8 16L5 16L5 17L8 17L8 18L10 18L10 20L9 20L9 19L8 19L8 21L10 21L10 22L9 22L9 23L8 23L8 25L10 25L10 22L11 22L11 25L13 25L13 24L12 24L12 23L14 23L14 24L15 24L15 23L16 23L16 22L17 22L17 23L19 23L19 24L17 24L17 25L20 25L20 23L19 23L19 22L21 22L21 25L25 25L25 24L24 24L24 22L25 22L25 21L23 21L23 20L25 20L25 19L22 19L22 18L21 18L21 17L23 17L23 14L21 14L21 12L22 12L22 13L24 13L24 14L25 14L25 12L24 12L24 9L25 9L25 8L21 8L21 9L20 9L20 8ZM4 9L4 10L7 10L7 9ZM21 9L21 10L22 10L22 11L23 11L23 10L22 10L22 9ZM6 11L6 12L7 12L7 11ZM0 13L0 14L3 14L3 13ZM11 13L11 14L9 14L9 16L8 16L8 17L9 17L9 16L11 16L11 17L12 17L12 19L13 19L13 20L11 20L11 21L12 21L12 22L13 22L13 20L14 20L14 21L15 21L15 22L16 22L16 20L15 20L15 19L16 19L16 16L15 16L15 15L13 15L13 17L12 17L12 16L11 16L11 14L12 14L12 13ZM17 13L17 16L20 16L20 13ZM18 14L18 15L19 15L19 14ZM2 15L2 16L0 16L0 17L2 17L2 16L3 16L3 17L4 17L4 16L3 16L3 15ZM14 16L14 17L13 17L13 18L15 18L15 16ZM17 17L17 20L20 20L20 17ZM24 17L24 18L25 18L25 17ZM18 18L18 19L19 19L19 18ZM21 21L21 22L23 22L23 21ZM0 0L0 7L7 7L7 0ZM1 1L1 6L6 6L6 1ZM2 2L2 5L5 5L5 2ZM18 0L18 7L25 7L25 0ZM19 1L19 6L24 6L24 1ZM20 2L20 5L23 5L23 2ZM0 18L0 25L7 25L7 18ZM1 19L1 24L6 24L6 19ZM2 20L2 23L5 23L5 20Z" fill="#000000"/></g></g></svg>
