<?xml version="1.0" encoding="UTF-8"?>
<svg xmlns="http://www.w3.org/2000/svg" version="1.1" width="300" height="300" viewBox="0 0 300 300"><rect x="0" y="0" width="300" height="300" fill="#ffffff"/><g transform="scale(12)"><g transform="translate(0,0)"><path fill-rule="evenodd" d="M9 0L9 1L11 1L11 2L9 2L9 3L8 3L8 5L9 5L9 6L8 6L8 7L9 7L9 9L10 9L10 10L8 10L8 8L5 8L5 9L2 9L2 8L0 8L0 11L2 11L2 12L1 12L1 13L0 13L0 17L1 17L1 14L2 14L2 12L3 12L3 11L2 11L2 10L5 10L5 11L4 11L4 13L5 13L5 14L6 14L6 15L7 15L7 16L4 16L4 14L3 14L3 16L2 16L2 17L8 17L8 20L9 20L9 21L10 21L10 22L9 22L9 23L8 23L8 25L9 25L9 23L10 23L10 24L11 24L11 25L12 25L12 24L11 24L11 23L10 23L10 22L11 22L11 21L13 21L13 20L12 20L12 19L15 19L15 18L16 18L16 20L14 20L14 22L13 22L13 23L14 23L14 24L13 24L13 25L14 25L14 24L15 24L15 22L20 22L20 21L21 21L21 19L22 19L22 18L21 18L21 16L19 16L19 14L18 14L18 15L16 15L16 13L17 13L17 12L15 12L15 11L16 11L16 10L15 10L15 11L14 11L14 10L13 10L13 11L12 11L12 12L11 12L11 11L10 11L10 10L11 10L11 9L13 9L13 8L10 8L10 7L11 7L11 4L12 4L12 7L13 7L13 3L12 3L12 2L13 2L13 1L12 1L12 0ZM14 0L14 1L16 1L16 2L15 2L15 3L16 3L16 4L15 4L15 5L14 5L14 9L15 9L15 5L16 5L16 8L17 8L17 3L16 3L16 2L17 2L17 1L16 1L16 0ZM9 3L9 5L10 5L10 3ZM9 6L9 7L10 7L10 6ZM20 8L20 9L18 9L18 10L17 10L17 11L18 11L18 10L20 10L20 12L18 12L18 13L22 13L22 12L21 12L21 11L23 11L23 10L24 10L24 14L23 14L23 15L22 15L22 14L21 14L21 15L22 15L22 17L23 17L23 16L25 16L25 10L24 10L24 9L23 9L23 10L21 10L21 9L22 9L22 8ZM1 9L1 10L2 10L2 9ZM6 9L6 10L7 10L7 11L6 11L6 12L8 12L8 13L6 13L6 14L7 14L7 15L8 15L8 13L9 13L9 14L10 14L10 13L9 13L9 12L10 12L10 11L9 11L9 12L8 12L8 10L7 10L7 9ZM13 11L13 12L14 12L14 14L13 14L13 13L11 13L11 15L12 15L12 14L13 14L13 16L14 16L14 17L11 17L11 18L10 18L10 17L9 17L9 19L10 19L10 21L11 21L11 18L15 18L15 17L16 17L16 16L14 16L14 15L15 15L15 12L14 12L14 11ZM9 15L9 16L10 16L10 15ZM17 17L17 20L20 20L20 17ZM24 17L24 20L22 20L22 23L23 23L23 22L24 22L24 25L25 25L25 21L24 21L24 20L25 20L25 17ZM18 18L18 19L19 19L19 18ZM16 23L16 25L17 25L17 24L18 24L18 25L20 25L20 23L19 23L19 24L18 24L18 23ZM0 0L0 7L7 7L7 0ZM1 1L1 6L6 6L6 1ZM2 2L2 5L5 5L5 2ZM18 0L18 7L25 7L25 0ZM19 1L19 6L24 6L24 1ZM20 2L20 5L23 5L23 2ZM0 18L0 25L7 25L7 18ZM1 19L1 24L6 24L6 19ZM2 20L2 23L5 23L5 20Z" fill="#000000"/></g></g></svg>
