<?xml version="1.0" encoding="UTF-8"?>
<svg xmlns="http://www.w3.org/2000/svg" version="1.1" width="300" height="300" viewBox="0 0 300 300"><rect x="0" y="0" width="300" height="300" fill="#ffffff"/><g transform="scale(12)"><g transform="translate(0,0)"><path fill-rule="evenodd" d="M8 0L8 1L10 1L10 0ZM16 0L16 2L17 2L17 0ZM8 2L8 5L9 5L9 6L8 6L8 7L9 7L9 8L8 8L8 9L9 9L9 10L10 10L10 9L9 9L9 8L10 8L10 7L11 7L11 8L12 8L12 7L13 7L13 5L12 5L12 3L13 3L13 4L15 4L15 5L17 5L17 4L15 4L15 2L11 2L11 4L10 4L10 3L9 3L9 2ZM10 5L10 6L9 6L9 7L10 7L10 6L11 6L11 7L12 7L12 5ZM14 6L14 7L15 7L15 6ZM16 6L16 8L17 8L17 9L15 9L15 8L14 8L14 9L13 9L13 10L14 10L14 11L11 11L11 13L10 13L10 12L8 12L8 11L7 11L7 10L6 10L6 9L7 9L7 8L6 8L6 9L4 9L4 8L0 8L0 10L1 10L1 11L0 11L0 12L1 12L1 13L2 13L2 14L1 14L1 15L0 15L0 16L1 16L1 15L3 15L3 13L4 13L4 14L5 14L5 15L7 15L7 16L6 16L6 17L8 17L8 18L9 18L9 17L10 17L10 16L11 16L11 17L12 17L12 18L11 18L11 19L9 19L9 21L8 21L8 25L9 25L9 24L10 24L10 25L11 25L11 23L14 23L14 22L15 22L15 23L16 23L16 22L15 22L15 21L14 21L14 20L13 20L13 18L14 18L14 17L12 17L12 16L14 16L14 15L15 15L15 14L16 14L16 15L17 15L17 16L15 16L15 18L16 18L16 21L17 21L17 25L20 25L20 24L21 24L21 23L22 23L22 25L25 25L25 24L23 24L23 23L24 23L24 22L25 22L25 21L24 21L24 19L25 19L25 18L23 18L23 17L25 17L25 15L24 15L24 13L25 13L25 12L23 12L23 11L24 11L24 9L25 9L25 8L24 8L24 9L23 9L23 8L20 8L20 9L18 9L18 8L17 8L17 6ZM1 9L1 10L2 10L2 11L1 11L1 12L3 12L3 10L2 10L2 9ZM14 9L14 10L15 10L15 11L14 11L14 12L12 12L12 14L11 14L11 16L12 16L12 14L13 14L13 15L14 15L14 14L13 14L13 13L15 13L15 12L16 12L16 14L17 14L17 15L19 15L19 16L20 16L20 15L22 15L22 16L23 16L23 15L22 15L22 14L23 14L23 13L21 13L21 12L22 12L22 10L21 10L21 9L20 9L20 10L19 10L19 11L21 11L21 12L19 12L19 14L17 14L17 12L18 12L18 9L17 9L17 10L15 10L15 9ZM4 10L4 12L5 12L5 13L6 13L6 14L9 14L9 15L10 15L10 13L6 13L6 12L7 12L7 11L6 11L6 10ZM16 11L16 12L17 12L17 11ZM20 13L20 14L19 14L19 15L20 15L20 14L21 14L21 13ZM3 16L3 17L5 17L5 16ZM8 16L8 17L9 17L9 16ZM17 17L17 20L20 20L20 17ZM21 17L21 18L22 18L22 17ZM18 18L18 19L19 19L19 18ZM11 19L11 20L10 20L10 21L9 21L9 22L10 22L10 23L11 23L11 22L12 22L12 21L11 21L11 20L12 20L12 19ZM21 19L21 20L22 20L22 22L23 22L23 19ZM19 22L19 24L20 24L20 22ZM12 24L12 25L13 25L13 24ZM14 24L14 25L15 25L15 24ZM0 0L0 7L7 7L7 0ZM1 1L1 6L6 6L6 1ZM2 2L2 5L5 5L5 2ZM18 0L18 7L25 7L25 0ZM19 1L19 6L24 6L24 1ZM20 2L20 5L23 5L23 2ZM0 18L0 25L7 25L7 18ZM1 19L1 24L6 24L6 19ZM2 20L2 23L5 23L5 20Z" fill="#000000"/></g></g></svg>
