<?xml version="1.0" encoding="UTF-8"?>
<svg xmlns="http://www.w3.org/2000/svg" version="1.1" width="300" height="300" viewBox="0 0 300 300"><rect x="0" y="0" width="300" height="300" fill="#ffffff"/><g transform="scale(12)"><g transform="translate(0,0)"><path fill-rule="evenodd" d="M8 0L8 1L9 1L9 2L8 2L8 5L9 5L9 4L11 4L11 2L12 2L12 5L13 5L13 4L15 4L15 5L17 5L17 0L16 0L16 4L15 4L15 2L12 2L12 1L13 1L13 0L12 0L12 1L9 1L9 0ZM14 0L14 1L15 1L15 0ZM10 5L10 10L9 10L9 11L8 11L8 10L6 10L6 9L7 9L7 8L6 8L6 9L4 9L4 8L0 8L0 11L1 11L1 15L0 15L0 16L1 16L1 15L3 15L3 17L4 17L4 16L5 16L5 17L8 17L8 18L9 18L9 21L8 21L8 25L9 25L9 24L12 24L12 23L13 23L13 25L16 25L16 23L17 23L17 25L20 25L20 24L21 24L21 22L20 22L20 23L19 23L19 21L22 21L22 20L21 20L21 19L25 19L25 18L23 18L23 17L25 17L25 15L24 15L24 13L25 13L25 12L23 12L23 11L24 11L24 9L25 9L25 8L24 8L24 9L23 9L23 8L20 8L20 9L19 9L19 10L20 10L20 9L21 9L21 10L22 10L22 12L21 12L21 11L20 11L20 12L21 12L21 13L19 13L19 12L18 12L18 10L17 10L17 9L18 9L18 8L14 8L14 9L13 9L13 10L12 10L12 8L13 8L13 6L12 6L12 8L11 8L11 5ZM8 6L8 7L9 7L9 6ZM14 6L14 7L15 7L15 6ZM16 6L16 7L17 7L17 6ZM8 8L8 9L9 9L9 8ZM1 9L1 11L2 11L2 14L3 14L3 15L5 15L5 16L7 16L7 15L6 15L6 14L8 14L8 15L11 15L11 16L10 16L10 17L11 17L11 16L12 16L12 15L13 15L13 17L14 17L14 18L13 18L13 19L12 19L12 18L10 18L10 19L12 19L12 22L13 22L13 23L16 23L16 22L15 22L15 21L16 21L16 16L17 16L17 15L16 15L16 13L15 13L15 12L16 12L16 11L17 11L17 10L16 10L16 9L14 9L14 10L13 10L13 11L11 11L11 13L10 13L10 14L8 14L8 13L9 13L9 12L8 12L8 11L6 11L6 12L5 12L5 10L4 10L4 11L2 11L2 10L3 10L3 9ZM14 10L14 11L13 11L13 12L12 12L12 14L13 14L13 15L14 15L14 14L15 14L15 13L14 13L14 11L15 11L15 10ZM6 12L6 13L3 13L3 14L6 14L6 13L8 13L8 12ZM13 13L13 14L14 14L14 13ZM21 13L21 15L22 15L22 16L23 16L23 15L22 15L22 14L23 14L23 13ZM15 15L15 16L16 16L16 15ZM19 15L19 16L20 16L20 15ZM8 16L8 17L9 17L9 16ZM17 17L17 20L20 20L20 17ZM21 17L21 18L22 18L22 17ZM14 18L14 21L15 21L15 18ZM18 18L18 19L19 19L19 18ZM23 20L23 22L22 22L22 25L25 25L25 24L23 24L23 23L24 23L24 22L25 22L25 20ZM9 21L9 23L11 23L11 21ZM18 23L18 24L19 24L19 23ZM0 0L0 7L7 7L7 0ZM1 1L1 6L6 6L6 1ZM2 2L2 5L5 5L5 2ZM18 0L18 7L25 7L25 0ZM19 1L19 6L24 6L24 1ZM20 2L20 5L23 5L23 2ZM0 18L0 25L7 25L7 18ZM1 19L1 24L6 24L6 19ZM2 20L2 23L5 23L5 20Z" fill="#000000"/></g></g></svg>
