<?xml version="1.0" encoding="UTF-8"?>
<svg xmlns="http://www.w3.org/2000/svg" version="1.1" width="300" height="300" viewBox="0 0 300 300"><rect x="0" y="0" width="300" height="300" fill="#ffffff"/><g transform="scale(12)"><g transform="translate(0,0)"><path fill-rule="evenodd" d="M8 0L8 4L9 4L9 5L8 5L8 7L9 7L9 6L10 6L10 9L14 9L14 10L13 10L13 11L12 11L12 10L9 10L9 9L7 9L7 8L4 8L4 9L5 9L5 10L4 10L4 11L3 11L3 9L2 9L2 8L0 8L0 9L2 9L2 10L0 10L0 12L1 12L1 11L3 11L3 12L2 12L2 13L5 13L5 14L4 14L4 16L0 16L0 17L4 17L4 16L6 16L6 17L7 17L7 16L8 16L8 18L9 18L9 19L8 19L8 21L9 21L9 19L11 19L11 20L10 20L10 22L9 22L9 23L8 23L8 25L10 25L10 24L12 24L12 25L14 25L14 24L13 24L13 23L15 23L15 25L16 25L16 23L18 23L18 24L17 24L17 25L19 25L19 21L21 21L21 23L20 23L20 25L25 25L25 24L24 24L24 22L25 22L25 21L24 21L24 20L25 20L25 19L22 19L22 18L21 18L21 17L23 17L23 14L21 14L21 12L22 12L22 13L24 13L24 14L25 14L25 12L24 12L24 9L25 9L25 8L21 8L21 9L20 9L20 8L19 8L19 9L18 9L18 11L17 11L17 9L16 9L16 7L17 7L17 4L16 4L16 2L17 2L17 0L16 0L16 2L15 2L15 0L14 0L14 4L13 4L13 6L12 6L12 7L13 7L13 6L14 6L14 8L11 8L11 5L10 5L10 4L12 4L12 2L10 2L10 1L11 1L11 0L10 0L10 1L9 1L9 0ZM14 4L14 6L15 6L15 7L16 7L16 4ZM14 8L14 9L15 9L15 10L16 10L16 9L15 9L15 8ZM6 9L6 10L5 10L5 13L6 13L6 14L5 14L5 15L6 15L6 16L7 16L7 15L6 15L6 14L8 14L8 15L9 15L9 14L8 14L8 13L11 13L11 14L10 14L10 15L11 15L11 14L13 14L13 17L12 17L12 16L11 16L11 17L10 17L10 18L12 18L12 19L13 19L13 20L14 20L14 22L15 22L15 23L16 23L16 22L17 22L17 21L16 21L16 20L15 20L15 19L16 19L16 18L13 18L13 17L14 17L14 16L16 16L16 15L14 15L14 14L13 14L13 13L11 13L11 12L12 12L12 11L10 11L10 12L7 12L7 11L9 11L9 10L7 10L7 9ZM19 9L19 12L20 12L20 9ZM21 9L21 10L22 10L22 11L23 11L23 10L22 10L22 9ZM6 10L6 11L7 11L7 10ZM13 11L13 12L14 12L14 13L16 13L16 14L18 14L18 15L17 15L17 16L20 16L20 15L21 15L21 14L20 14L20 15L19 15L19 13L17 13L17 12L15 12L15 11ZM6 12L6 13L7 13L7 12ZM0 13L0 14L1 14L1 13ZM17 17L17 20L20 20L20 17ZM24 17L24 18L25 18L25 17ZM18 18L18 19L19 19L19 18ZM11 21L11 22L13 22L13 21ZM15 21L15 22L16 22L16 21ZM22 21L22 23L23 23L23 21ZM9 23L9 24L10 24L10 23ZM0 0L0 7L7 7L7 0ZM1 1L1 6L6 6L6 1ZM2 2L2 5L5 5L5 2ZM18 0L18 7L25 7L25 0ZM19 1L19 6L24 6L24 1ZM20 2L20 5L23 5L23 2ZM0 18L0 25L7 25L7 18ZM1 19L1 24L6 24L6 19ZM2 20L2 23L5 23L5 20Z" fill="#000000"/></g></g></svg>
