<?xml version="1.0" encoding="UTF-8"?>
<svg xmlns="http://www.w3.org/2000/svg" version="1.1" width="300" height="300" viewBox="0 0 300 300"><rect x="0" y="0" width="300" height="300" fill="#ffffff"/><g transform="scale(12)"><g transform="translate(0,0)"><path fill-rule="evenodd" d="M8 0L8 4L10 4L10 3L11 3L11 4L12 4L12 2L11 2L11 0ZM12 0L12 1L13 1L13 2L14 2L14 3L13 3L13 5L11 5L11 6L10 6L10 7L9 7L9 5L8 5L8 7L9 7L9 8L10 8L10 7L11 7L11 6L12 6L12 8L11 8L11 9L9 9L9 10L8 10L8 9L7 9L7 8L4 8L4 10L3 10L3 9L2 9L2 8L0 8L0 10L1 10L1 9L2 9L2 11L1 11L1 12L0 12L0 14L2 14L2 16L0 16L0 17L2 17L2 16L3 16L3 15L4 15L4 16L5 16L5 17L8 17L8 18L10 18L10 17L12 17L12 18L11 18L11 20L12 20L12 21L13 21L13 22L16 22L16 23L14 23L14 24L13 24L13 23L12 23L12 24L11 24L11 25L12 25L12 24L13 24L13 25L16 25L16 23L18 23L18 24L17 24L17 25L25 25L25 24L24 24L24 22L25 22L25 20L23 20L23 19L22 19L22 18L21 18L21 17L23 17L23 14L21 14L21 12L22 12L22 13L24 13L24 14L25 14L25 12L24 12L24 9L25 9L25 8L21 8L21 9L20 9L20 8L19 8L19 9L18 9L18 11L17 11L17 9L12 9L12 8L13 8L13 5L14 5L14 7L15 7L15 5L16 5L16 7L17 7L17 0L15 0L15 1L16 1L16 2L14 2L14 0ZM9 2L9 3L10 3L10 2ZM14 4L14 5L15 5L15 4ZM6 9L6 10L5 10L5 11L4 11L4 12L3 12L3 13L2 13L2 12L1 12L1 13L2 13L2 14L3 14L3 13L4 13L4 15L5 15L5 14L7 14L7 13L6 13L6 12L8 12L8 17L10 17L10 16L12 16L12 17L13 17L13 18L14 18L14 17L13 17L13 16L16 16L16 15L13 15L13 13L14 13L14 14L15 14L15 13L16 13L16 14L18 14L18 15L17 15L17 16L19 16L19 15L20 15L20 16L21 16L21 14L19 14L19 13L17 13L17 12L14 12L14 11L15 11L15 10L13 10L13 11L12 11L12 12L11 12L11 13L10 13L10 11L11 11L11 10L12 10L12 9L11 9L11 10L9 10L9 12L8 12L8 10L7 10L7 9ZM19 9L19 12L20 12L20 9ZM21 9L21 10L22 10L22 11L23 11L23 10L22 10L22 9ZM6 10L6 11L5 11L5 12L4 12L4 13L5 13L5 12L6 12L6 11L7 11L7 10ZM12 12L12 13L13 13L13 12ZM9 13L9 16L10 16L10 13ZM6 15L6 16L7 16L7 15ZM12 15L12 16L13 16L13 15ZM17 17L17 20L20 20L20 17ZM24 17L24 18L25 18L25 17ZM15 18L15 19L14 19L14 21L16 21L16 22L17 22L17 21L16 21L16 20L15 20L15 19L16 19L16 18ZM18 18L18 19L19 19L19 18ZM8 19L8 21L9 21L9 20L10 20L10 19ZM12 19L12 20L13 20L13 19ZM10 21L10 23L8 23L8 25L10 25L10 23L11 23L11 21ZM19 21L19 24L21 24L21 23L22 23L22 22L23 22L23 21L22 21L22 22L21 22L21 21ZM0 0L0 7L7 7L7 0ZM1 1L1 6L6 6L6 1ZM2 2L2 5L5 5L5 2ZM18 0L18 7L25 7L25 0ZM19 1L19 6L24 6L24 1ZM20 2L20 5L23 5L23 2ZM0 18L0 25L7 25L7 18ZM1 19L1 24L6 24L6 19ZM2 20L2 23L5 23L5 20Z" fill="#000000"/></g></g></svg>
