<?xml version="1.0" encoding="UTF-8"?>
<svg xmlns="http://www.w3.org/2000/svg" version="1.1" width="300" height="300" viewBox="0 0 300 300"><rect x="0" y="0" width="300" height="300" fill="#ffffff"/><g transform="scale(12)"><g transform="translate(0,0)"><path fill-rule="evenodd" d="M10 0L10 2L11 2L11 0ZM12 0L12 1L13 1L13 2L12 2L12 4L13 4L13 5L11 5L11 6L10 6L10 4L11 4L11 3L8 3L8 4L9 4L9 5L8 5L8 7L9 7L9 8L6 8L6 9L5 9L5 8L0 8L0 11L1 11L1 10L2 10L2 11L3 11L3 10L4 10L4 12L3 12L3 13L2 13L2 12L0 12L0 17L1 17L1 14L4 14L4 15L2 15L2 16L6 16L6 17L8 17L8 19L10 19L10 17L12 17L12 18L15 18L15 15L16 15L16 14L14 14L14 13L16 13L16 10L17 10L17 11L18 11L18 10L20 10L20 12L21 12L21 16L19 16L19 15L20 15L20 14L18 14L18 15L17 15L17 16L16 16L16 19L14 19L14 20L13 20L13 19L12 19L12 21L17 21L17 22L21 22L21 20L22 20L22 21L23 21L23 22L24 22L24 24L22 24L22 23L20 23L20 24L22 24L22 25L25 25L25 20L24 20L24 19L25 19L25 17L24 17L24 18L22 18L22 17L23 17L23 16L25 16L25 10L24 10L24 8L23 8L23 9L22 9L22 8L21 8L21 10L20 10L20 8L19 8L19 9L18 9L18 8L17 8L17 9L16 9L16 7L17 7L17 4L16 4L16 5L15 5L15 6L14 6L14 8L13 8L13 9L12 9L12 7L13 7L13 5L14 5L14 4L15 4L15 3L17 3L17 2L16 2L16 1L17 1L17 0L16 0L16 1L15 1L15 0L14 0L14 1L13 1L13 0ZM8 1L8 2L9 2L9 1ZM13 2L13 3L15 3L15 2ZM9 6L9 7L10 7L10 6ZM11 6L11 7L12 7L12 6ZM15 6L15 7L16 7L16 6ZM10 8L10 9L9 9L9 12L11 12L11 13L6 13L6 12L8 12L8 11L6 11L6 12L4 12L4 13L6 13L6 14L5 14L5 15L6 15L6 16L8 16L8 17L10 17L10 16L11 16L11 15L10 15L10 16L9 16L9 14L13 14L13 15L12 15L12 17L13 17L13 16L14 16L14 14L13 14L13 13L12 13L12 11L13 11L13 12L15 12L15 11L14 11L14 10L16 10L16 9L14 9L14 10L12 10L12 9L11 9L11 8ZM6 9L6 10L7 10L7 9ZM10 9L10 11L11 11L11 9ZM17 9L17 10L18 10L18 9ZM23 10L23 11L22 11L22 12L24 12L24 10ZM17 12L17 13L19 13L19 12ZM22 13L22 16L21 16L21 17L22 17L22 16L23 16L23 14L24 14L24 13ZM6 14L6 15L8 15L8 14ZM17 17L17 20L20 20L20 17ZM18 18L18 19L19 19L19 18ZM22 19L22 20L23 20L23 19ZM8 20L8 25L9 25L9 24L10 24L10 25L13 25L13 24L12 24L12 23L13 23L13 22L11 22L11 20ZM9 21L9 22L10 22L10 23L11 23L11 22L10 22L10 21ZM14 23L14 24L17 24L17 25L19 25L19 24L18 24L18 23ZM0 0L0 7L7 7L7 0ZM1 1L1 6L6 6L6 1ZM2 2L2 5L5 5L5 2ZM18 0L18 7L25 7L25 0ZM19 1L19 6L24 6L24 1ZM20 2L20 5L23 5L23 2ZM0 18L0 25L7 25L7 18ZM1 19L1 24L6 24L6 19ZM2 20L2 23L5 23L5 20Z" fill="#000000"/></g></g></svg>
