<?xml version="1.0" encoding="UTF-8"?>
<svg xmlns="http://www.w3.org/2000/svg" version="1.1" width="300" height="300" viewBox="0 0 300 300"><rect x="0" y="0" width="300" height="300" fill="#ffffff"/><g transform="scale(12)"><g transform="translate(0,0)"><path fill-rule="evenodd" d="M9 0L9 2L8 2L8 3L9 3L9 5L10 5L10 7L11 7L11 6L12 6L12 7L13 7L13 8L15 8L15 6L16 6L16 7L17 7L17 5L15 5L15 2L16 2L16 3L17 3L17 2L16 2L16 1L15 1L15 2L14 2L14 3L13 3L13 5L11 5L11 4L10 4L10 3L9 3L9 2L10 2L10 1L11 1L11 3L12 3L12 1L11 1L11 0ZM14 5L14 6L13 6L13 7L14 7L14 6L15 6L15 5ZM8 6L8 8L4 8L4 10L3 10L3 8L0 8L0 11L1 11L1 12L0 12L0 13L2 13L2 11L4 11L4 10L5 10L5 12L4 12L4 14L2 14L2 15L1 15L1 14L0 14L0 15L1 15L1 16L0 16L0 17L1 17L1 16L2 16L2 15L4 15L4 17L7 17L7 16L9 16L9 17L8 17L8 21L9 21L9 22L8 22L8 25L11 25L11 24L12 24L12 25L19 25L19 23L18 23L18 24L17 24L17 22L15 22L15 21L11 21L11 22L12 22L12 23L9 23L9 22L10 22L10 21L9 21L9 20L10 20L10 19L11 19L11 20L14 20L14 18L13 18L13 17L11 17L11 16L12 16L12 15L13 15L13 16L15 16L15 17L16 17L16 18L15 18L15 20L16 20L16 21L20 21L20 25L22 25L22 23L23 23L23 25L25 25L25 24L24 24L24 23L25 23L25 22L24 22L24 23L23 23L23 22L22 22L22 15L25 15L25 14L24 14L24 13L25 13L25 12L24 12L24 11L25 11L25 9L24 9L24 11L23 11L23 14L22 14L22 13L21 13L21 12L22 12L22 11L18 11L18 9L19 9L19 8L17 8L17 9L15 9L15 10L13 10L13 9L11 9L11 10L10 10L10 9L9 9L9 6ZM22 8L22 9L21 9L21 10L23 10L23 8ZM6 9L6 10L7 10L7 11L6 11L6 12L5 12L5 13L6 13L6 14L5 14L5 15L6 15L6 16L7 16L7 15L9 15L9 14L8 14L8 13L10 13L10 12L9 12L9 11L10 11L10 10L7 10L7 9ZM11 10L11 11L12 11L12 12L11 12L11 13L12 13L12 12L13 12L13 13L14 13L14 14L13 14L13 15L14 15L14 14L15 14L15 16L21 16L21 15L22 15L22 14L21 14L21 13L20 13L20 12L19 12L19 13L20 13L20 15L18 15L18 14L17 14L17 13L16 13L16 12L17 12L17 11L16 11L16 10L15 10L15 11L16 11L16 12L13 12L13 10ZM6 12L6 13L7 13L7 12ZM6 14L6 15L7 15L7 14ZM11 14L11 15L10 15L10 16L11 16L11 15L12 15L12 14ZM16 14L16 15L17 15L17 14ZM9 17L9 19L10 19L10 17ZM17 17L17 20L20 20L20 17ZM23 17L23 21L24 21L24 20L25 20L25 18L24 18L24 17ZM11 18L11 19L13 19L13 18ZM18 18L18 19L19 19L19 18ZM13 22L13 23L12 23L12 24L13 24L13 23L14 23L14 24L15 24L15 22ZM0 0L0 7L7 7L7 0ZM1 1L1 6L6 6L6 1ZM2 2L2 5L5 5L5 2ZM18 0L18 7L25 7L25 0ZM19 1L19 6L24 6L24 1ZM20 2L20 5L23 5L23 2ZM0 18L0 25L7 25L7 18ZM1 19L1 24L6 24L6 19ZM2 20L2 23L5 23L5 20Z" fill="#000000"/></g></g></svg>
