<?xml version="1.0" encoding="UTF-8"?>
<svg xmlns="http://www.w3.org/2000/svg" version="1.1" width="300" height="300" viewBox="0 0 300 300"><rect x="0" y="0" width="300" height="300" fill="#ffffff"/><g transform="scale(12)"><g transform="translate(0,0)"><path fill-rule="evenodd" d="M9 0L9 1L11 1L11 2L9 2L9 3L8 3L8 5L9 5L9 6L8 6L8 7L9 7L9 9L8 9L8 8L5 8L5 9L3 9L3 12L2 12L2 13L4 13L4 10L5 10L5 9L8 9L8 11L10 11L10 12L9 12L9 14L8 14L8 15L9 15L9 16L6 16L6 15L7 15L7 14L6 14L6 13L8 13L8 12L5 12L5 14L3 14L3 15L2 15L2 16L3 16L3 17L4 17L4 15L5 15L5 17L8 17L8 20L9 20L9 22L10 22L10 23L8 23L8 25L9 25L9 24L10 24L10 25L14 25L14 24L15 24L15 23L14 23L14 24L10 24L10 23L11 23L11 21L10 21L10 20L12 20L12 21L13 21L13 20L12 20L12 18L11 18L11 17L10 17L10 15L11 15L11 12L12 12L12 14L13 14L13 12L12 12L12 11L14 11L14 13L15 13L15 15L14 15L14 17L15 17L15 18L14 18L14 19L15 19L15 18L16 18L16 20L14 20L14 22L20 22L20 21L21 21L21 22L24 22L24 25L25 25L25 21L23 21L23 20L22 20L22 21L21 21L21 16L19 16L19 14L18 14L18 15L16 15L16 13L17 13L17 12L15 12L15 11L16 11L16 10L15 10L15 9L17 9L17 8L15 8L15 6L14 6L14 10L11 10L11 8L10 8L10 7L11 7L11 4L12 4L12 5L13 5L13 4L12 4L12 2L14 2L14 0L13 0L13 1L12 1L12 0ZM15 0L15 1L16 1L16 2L15 2L15 3L16 3L16 4L15 4L15 5L17 5L17 3L16 3L16 2L17 2L17 1L16 1L16 0ZM9 3L9 5L10 5L10 3ZM9 6L9 7L10 7L10 6ZM12 6L12 9L13 9L13 6ZM16 6L16 7L17 7L17 6ZM0 8L0 10L1 10L1 9L2 9L2 8ZM20 8L20 9L18 9L18 10L17 10L17 11L18 11L18 10L20 10L20 12L18 12L18 13L22 13L22 12L21 12L21 11L23 11L23 10L24 10L24 14L23 14L23 15L22 15L22 14L21 14L21 15L22 15L22 17L23 17L23 16L25 16L25 10L24 10L24 9L23 9L23 10L21 10L21 9L22 9L22 8ZM9 9L9 10L10 10L10 11L11 11L11 10L10 10L10 9ZM6 10L6 11L7 11L7 10ZM0 11L0 12L1 12L1 11ZM0 13L0 17L1 17L1 13ZM5 14L5 15L6 15L6 14ZM9 14L9 15L10 15L10 14ZM12 16L12 17L13 17L13 16ZM15 16L15 17L16 17L16 16ZM9 17L9 18L10 18L10 19L9 19L9 20L10 20L10 19L11 19L11 18L10 18L10 17ZM17 17L17 20L20 20L20 17ZM24 17L24 19L25 19L25 17ZM18 18L18 19L19 19L19 18ZM12 22L12 23L13 23L13 22ZM16 23L16 25L17 25L17 24L18 24L18 25L19 25L19 24L18 24L18 23ZM20 23L20 25L21 25L21 23ZM0 0L0 7L7 7L7 0ZM1 1L1 6L6 6L6 1ZM2 2L2 5L5 5L5 2ZM18 0L18 7L25 7L25 0ZM19 1L19 6L24 6L24 1ZM20 2L20 5L23 5L23 2ZM0 18L0 25L7 25L7 18ZM1 19L1 24L6 24L6 19ZM2 20L2 23L5 23L5 20Z" fill="#000000"/></g></g></svg>
