<?xml version="1.0" encoding="UTF-8"?>
<svg xmlns="http://www.w3.org/2000/svg" version="1.1" width="300" height="300" viewBox="0 0 300 300"><rect x="0" y="0" width="300" height="300" fill="#ffffff"/><g transform="scale(12)"><g transform="translate(0,0)"><path fill-rule="evenodd" d="M8 0L8 1L10 1L10 3L9 3L9 2L8 2L8 5L9 5L9 6L8 6L8 7L9 7L9 8L8 8L8 10L5 10L5 9L4 9L4 8L0 8L0 9L1 9L1 10L0 10L0 11L2 11L2 12L1 12L1 15L0 15L0 16L1 16L1 15L2 15L2 12L3 12L3 11L4 11L4 13L3 13L3 15L5 15L5 14L6 14L6 15L7 15L7 14L9 14L9 15L8 15L8 16L9 16L9 15L10 15L10 16L11 16L11 17L8 17L8 18L9 18L9 21L8 21L8 25L9 25L9 24L10 24L10 25L11 25L11 24L10 24L10 23L9 23L9 21L10 21L10 20L11 20L11 19L10 19L10 18L11 18L11 17L12 17L12 19L14 19L14 20L12 20L12 21L15 21L15 18L16 18L16 21L17 21L17 25L20 25L20 23L22 23L22 25L25 25L25 24L23 24L23 23L24 23L24 22L25 22L25 18L23 18L23 17L25 17L25 15L24 15L24 13L25 13L25 12L23 12L23 11L24 11L24 9L25 9L25 8L24 8L24 9L23 9L23 8L20 8L20 9L18 9L18 8L17 8L17 9L15 9L15 8L16 8L16 7L17 7L17 6L16 6L16 7L15 7L15 6L14 6L14 5L15 5L15 4L16 4L16 5L17 5L17 4L16 4L16 3L17 3L17 0L15 0L15 1L16 1L16 3L14 3L14 2L13 2L13 1L11 1L11 0ZM11 2L11 3L10 3L10 6L9 6L9 7L10 7L10 8L9 8L9 9L10 9L10 10L8 10L8 11L6 11L6 12L8 12L8 13L9 13L9 14L10 14L10 13L11 13L11 10L12 10L12 12L13 12L13 14L14 14L14 15L13 15L13 16L12 16L12 14L11 14L11 16L12 16L12 17L13 17L13 18L15 18L15 16L17 16L17 15L19 15L19 16L21 16L21 15L22 15L22 16L23 16L23 15L22 15L22 14L23 14L23 13L21 13L21 12L22 12L22 10L21 10L21 9L20 9L20 10L19 10L19 11L21 11L21 12L19 12L19 14L17 14L17 12L18 12L18 9L17 9L17 10L15 10L15 9L14 9L14 12L13 12L13 9L12 9L12 8L15 8L15 7L14 7L14 6L13 6L13 5L14 5L14 3L12 3L12 2ZM11 4L11 5L13 5L13 4ZM10 6L10 7L11 7L11 8L12 8L12 7L13 7L13 6L12 6L12 7L11 7L11 6ZM6 8L6 9L7 9L7 8ZM2 9L2 10L4 10L4 11L5 11L5 10L4 10L4 9ZM16 11L16 12L14 12L14 14L16 14L16 15L17 15L17 14L16 14L16 12L17 12L17 11ZM9 12L9 13L10 13L10 12ZM4 13L4 14L5 14L5 13ZM6 13L6 14L7 14L7 13ZM20 13L20 14L21 14L21 13ZM14 15L14 16L15 16L15 15ZM2 16L2 17L4 17L4 16ZM5 16L5 17L7 17L7 16ZM17 17L17 20L20 20L20 17ZM21 17L21 20L22 20L22 21L21 21L21 22L22 22L22 23L23 23L23 19L22 19L22 17ZM18 18L18 19L19 19L19 18ZM11 22L11 23L12 23L12 22ZM15 22L15 23L16 23L16 22ZM19 22L19 23L20 23L20 22ZM13 23L13 24L12 24L12 25L14 25L14 23ZM0 0L0 7L7 7L7 0ZM1 1L1 6L6 6L6 1ZM2 2L2 5L5 5L5 2ZM18 0L18 7L25 7L25 0ZM19 1L19 6L24 6L24 1ZM20 2L20 5L23 5L23 2ZM0 18L0 25L7 25L7 18ZM1 19L1 24L6 24L6 19ZM2 20L2 23L5 23L5 20Z" fill="#000000"/></g></g></svg>
