<?xml version="1.0" encoding="UTF-8"?>
<svg xmlns="http://www.w3.org/2000/svg" version="1.1" width="300" height="300" viewBox="0 0 300 300"><rect x="0" y="0" width="300" height="300" fill="#ffffff"/><g transform="scale(12)"><g transform="translate(0,0)"><path fill-rule="evenodd" d="M8 0L8 1L9 1L9 2L10 2L10 3L11 3L11 5L10 5L10 4L9 4L9 5L10 5L10 8L9 8L9 6L8 6L8 8L9 8L9 10L10 10L10 11L9 11L9 12L8 12L8 13L7 13L7 12L6 12L6 13L5 13L5 15L7 15L7 14L8 14L8 15L10 15L10 16L8 16L8 18L9 18L9 19L11 19L11 20L12 20L12 21L14 21L14 25L15 25L15 22L17 22L17 23L18 23L18 22L20 22L20 24L18 24L18 25L21 25L21 23L22 23L22 24L24 24L24 25L25 25L25 21L24 21L24 20L25 20L25 17L24 17L24 16L25 16L25 10L24 10L24 9L25 9L25 8L24 8L24 9L23 9L23 10L21 10L21 9L19 9L19 8L18 8L18 10L21 10L21 11L20 11L20 12L18 12L18 11L16 11L16 10L15 10L15 9L16 9L16 7L17 7L17 1L16 1L16 0L15 0L15 1L16 1L16 2L15 2L15 3L16 3L16 4L13 4L13 3L14 3L14 2L13 2L13 1L14 1L14 0L10 0L10 1L9 1L9 0ZM11 1L11 3L13 3L13 2L12 2L12 1ZM12 4L12 6L11 6L11 9L10 9L10 10L12 10L12 11L11 11L11 12L10 12L10 13L9 13L9 14L10 14L10 15L11 15L11 16L12 16L12 15L13 15L13 17L12 17L12 18L13 18L13 19L14 19L14 17L16 17L16 16L14 16L14 15L13 15L13 13L11 13L11 12L14 12L14 13L15 13L15 12L16 12L16 11L15 11L15 10L14 10L14 11L13 11L13 7L14 7L14 8L15 8L15 7L16 7L16 5L13 5L13 4ZM12 6L12 7L13 7L13 6ZM14 6L14 7L15 7L15 6ZM0 8L0 10L1 10L1 11L0 11L0 17L1 17L1 15L2 15L2 14L1 14L1 12L2 12L2 13L3 13L3 12L5 12L5 11L4 11L4 10L6 10L6 11L8 11L8 10L6 10L6 9L7 9L7 8L6 8L6 9L5 9L5 8L3 8L3 9L2 9L2 8ZM1 9L1 10L2 10L2 9ZM21 11L21 12L22 12L22 13L21 13L21 14L19 14L19 13L18 13L18 12L17 12L17 13L16 13L16 14L17 14L17 15L18 15L18 14L19 14L19 16L21 16L21 21L20 21L20 22L21 22L21 21L23 21L23 19L24 19L24 18L22 18L22 15L21 15L21 14L24 14L24 12L22 12L22 11ZM6 13L6 14L7 14L7 13ZM3 14L3 16L2 16L2 17L7 17L7 16L4 16L4 14ZM9 17L9 18L10 18L10 17ZM17 17L17 20L20 20L20 17ZM15 18L15 20L16 20L16 18ZM18 18L18 19L19 19L19 18ZM8 20L8 22L9 22L9 23L8 23L8 25L10 25L10 24L11 24L11 25L13 25L13 22L11 22L11 21L10 21L10 22L9 22L9 20ZM10 22L10 23L11 23L11 22ZM22 22L22 23L23 23L23 22ZM16 24L16 25L17 25L17 24ZM0 0L0 7L7 7L7 0ZM1 1L1 6L6 6L6 1ZM2 2L2 5L5 5L5 2ZM18 0L18 7L25 7L25 0ZM19 1L19 6L24 6L24 1ZM20 2L20 5L23 5L23 2ZM0 18L0 25L7 25L7 18ZM1 19L1 24L6 24L6 19ZM2 20L2 23L5 23L5 20Z" fill="#000000"/></g></g></svg>
