<?xml version="1.0" encoding="UTF-8"?>
<svg xmlns="http://www.w3.org/2000/svg" version="1.1" width="300" height="300" viewBox="0 0 300 300"><rect x="0" y="0" width="300" height="300" fill="#ffffff"/><g transform="scale(10.345)"><g transform="translate(0,0)"><path fill-rule="evenodd" d="M8 0L8 2L9 2L9 3L10 3L10 2L9 2L9 1L11 1L11 2L12 2L12 0ZM13 0L13 1L15 1L15 2L16 2L16 0ZM18 0L18 1L20 1L20 4L19 4L19 2L17 2L17 3L15 3L15 5L13 5L13 3L14 3L14 2L13 2L13 3L11 3L11 5L9 5L9 4L8 4L8 10L4 10L4 9L3 9L3 8L0 8L0 11L1 11L1 9L2 9L2 12L1 12L1 13L0 13L0 15L1 15L1 16L2 16L2 17L1 17L1 18L0 18L0 19L2 19L2 18L3 18L3 21L5 21L5 20L4 20L4 19L5 19L5 17L3 17L3 15L5 15L5 16L6 16L6 17L7 17L7 18L6 18L6 19L7 19L7 20L6 20L6 21L7 21L7 20L8 20L8 17L7 17L7 16L9 16L9 17L10 17L10 19L11 19L11 20L13 20L13 22L15 22L15 24L16 24L16 26L13 26L13 25L14 25L14 23L13 23L13 24L10 24L10 25L9 25L9 26L8 26L8 29L11 29L11 28L13 28L13 29L15 29L15 27L16 27L16 26L17 26L17 27L19 27L19 26L18 26L18 24L19 24L19 25L20 25L20 26L21 26L21 28L20 28L20 29L24 29L24 28L25 28L25 29L27 29L27 28L25 28L25 27L29 27L29 24L28 24L28 23L29 23L29 22L28 22L28 23L27 23L27 22L26 22L26 23L27 23L27 25L28 25L28 26L26 26L26 25L25 25L25 19L27 19L27 21L28 21L28 19L29 19L29 18L28 18L28 19L27 19L27 18L26 18L26 17L25 17L25 19L24 19L24 16L23 16L23 15L22 15L22 14L24 14L24 15L25 15L25 14L24 14L24 12L25 12L25 11L28 11L28 12L27 12L27 15L29 15L29 13L28 13L28 12L29 12L29 8L27 8L27 9L28 9L28 10L24 10L24 9L25 9L25 8L21 8L21 5L20 5L20 4L21 4L21 1L20 1L20 0ZM17 3L17 4L18 4L18 5L19 5L19 8L18 8L18 6L17 6L17 7L16 7L16 5L15 5L15 7L14 7L14 6L13 6L13 7L12 7L12 5L11 5L11 7L10 7L10 6L9 6L9 7L10 7L10 9L9 9L9 10L8 10L8 11L4 11L4 10L3 10L3 11L4 11L4 12L2 12L2 13L1 13L1 14L3 14L3 13L6 13L6 14L5 14L5 15L6 15L6 16L7 16L7 15L8 15L8 13L9 13L9 15L11 15L11 16L10 16L10 17L11 17L11 19L12 19L12 17L11 17L11 16L13 16L13 15L14 15L14 17L13 17L13 18L16 18L16 17L15 17L15 16L16 16L16 15L17 15L17 18L20 18L20 19L17 19L17 20L18 20L18 21L17 21L17 22L16 22L16 20L15 20L15 22L16 22L16 24L18 24L18 22L19 22L19 21L20 21L20 20L23 20L23 19L21 19L21 18L22 18L22 17L21 17L21 18L20 18L20 17L18 17L18 16L22 16L22 15L21 15L21 14L20 14L20 12L18 12L18 11L17 11L17 12L18 12L18 13L16 13L16 12L15 12L15 14L13 14L13 12L14 12L14 11L13 11L13 12L11 12L11 14L10 14L10 13L9 13L9 12L10 12L10 11L9 11L9 10L11 10L11 11L12 11L12 9L11 9L11 8L13 8L13 7L14 7L14 9L13 9L13 10L15 10L15 11L16 11L16 9L15 9L15 8L18 8L18 9L17 9L17 10L20 10L20 9L19 9L19 8L20 8L20 5L19 5L19 4L18 4L18 3ZM5 8L5 9L7 9L7 8ZM21 9L21 11L22 11L22 12L23 12L23 11L24 11L24 10L23 10L23 11L22 11L22 9ZM8 11L8 12L6 12L6 13L8 13L8 12L9 12L9 11ZM18 13L18 15L20 15L20 14L19 14L19 13ZM6 14L6 15L7 15L7 14ZM11 14L11 15L12 15L12 14ZM15 14L15 15L16 15L16 14ZM28 16L28 17L29 17L29 16ZM13 19L13 20L14 20L14 19ZM0 20L0 21L2 21L2 20ZM8 21L8 22L9 22L9 23L8 23L8 24L9 24L9 23L10 23L10 22L11 22L11 23L12 23L12 22L11 22L11 21ZM21 21L21 24L24 24L24 21ZM22 22L22 23L23 23L23 22ZM11 25L11 26L9 26L9 27L12 27L12 25ZM22 25L22 26L23 26L23 27L22 27L22 28L24 28L24 26L25 26L25 25ZM13 27L13 28L14 28L14 27ZM16 28L16 29L18 29L18 28ZM28 28L28 29L29 29L29 28ZM0 0L0 7L7 7L7 0ZM1 1L1 6L6 6L6 1ZM2 2L2 5L5 5L5 2ZM22 0L22 7L29 7L29 0ZM23 1L23 6L28 6L28 1ZM24 2L24 5L27 5L27 2ZM0 22L0 29L7 29L7 22ZM1 23L1 28L6 28L6 23ZM2 24L2 27L5 27L5 24Z" fill="#000000"/></g></g></svg>
