<?xml version="1.0" encoding="UTF-8"?>
<svg xmlns="http://www.w3.org/2000/svg" version="1.1" width="300" height="300" viewBox="0 0 300 300"><rect x="0" y="0" width="300" height="300" fill="#ffffff"/><g transform="scale(12)"><g transform="translate(0,0)"><path fill-rule="evenodd" d="M8 0L8 1L9 1L9 2L8 2L8 5L9 5L9 4L11 4L11 5L10 5L10 10L9 10L9 11L8 11L8 13L7 13L7 12L6 12L6 13L5 13L5 11L7 11L7 10L6 10L6 9L7 9L7 8L6 8L6 9L4 9L4 8L0 8L0 9L2 9L2 10L3 10L3 11L4 11L4 12L2 12L2 11L1 11L1 10L0 10L0 13L2 13L2 14L1 14L1 15L0 15L0 16L1 16L1 15L2 15L2 16L3 16L3 17L4 17L4 16L3 16L3 15L5 15L5 14L6 14L6 15L7 15L7 14L8 14L8 13L11 13L11 14L10 14L10 15L9 15L9 16L10 16L10 17L12 17L12 19L11 19L11 18L10 18L10 19L9 19L9 20L10 20L10 24L11 24L11 23L12 23L12 25L13 25L13 24L14 24L14 25L15 25L15 23L16 23L16 22L14 22L14 23L12 23L12 22L11 22L11 21L12 21L12 19L14 19L14 20L13 20L13 21L15 21L15 19L14 19L14 18L13 18L13 17L12 17L12 16L13 16L13 15L14 15L14 14L16 14L16 15L17 15L17 16L15 16L15 18L16 18L16 21L17 21L17 25L19 25L19 22L20 22L20 23L22 23L22 25L25 25L25 24L23 24L23 23L24 23L24 22L25 22L25 18L23 18L23 17L25 17L25 15L24 15L24 13L25 13L25 12L23 12L23 11L24 11L24 9L25 9L25 8L24 8L24 9L23 9L23 8L20 8L20 9L18 9L18 8L17 8L17 9L15 9L15 8L16 8L16 7L17 7L17 4L16 4L16 7L15 7L15 6L14 6L14 5L15 5L15 3L16 3L16 2L17 2L17 0L15 0L15 1L14 1L14 0L12 0L12 1L11 1L11 0L10 0L10 1L9 1L9 0ZM13 1L13 2L11 2L11 4L12 4L12 3L13 3L13 4L14 4L14 3L15 3L15 2L16 2L16 1L15 1L15 2L14 2L14 1ZM13 2L13 3L14 3L14 2ZM12 5L12 6L11 6L11 8L12 8L12 9L11 9L11 10L12 10L12 11L14 11L14 13L13 13L13 12L11 12L11 13L13 13L13 14L14 14L14 13L15 13L15 12L16 12L16 14L17 14L17 15L19 15L19 16L21 16L21 15L22 15L22 16L23 16L23 15L22 15L22 14L23 14L23 13L21 13L21 12L22 12L22 10L21 10L21 9L20 9L20 10L19 10L19 11L21 11L21 12L19 12L19 14L17 14L17 12L18 12L18 9L17 9L17 10L14 10L14 9L13 9L13 8L15 8L15 7L14 7L14 6L13 6L13 5ZM8 6L8 7L9 7L9 6ZM12 6L12 8L13 8L13 6ZM8 8L8 9L9 9L9 8ZM12 9L12 10L13 10L13 9ZM4 10L4 11L5 11L5 10ZM16 11L16 12L17 12L17 11ZM3 13L3 14L5 14L5 13ZM6 13L6 14L7 14L7 13ZM20 13L20 14L19 14L19 15L20 15L20 14L21 14L21 13ZM11 14L11 15L10 15L10 16L12 16L12 14ZM6 16L6 17L7 17L7 16ZM8 17L8 18L9 18L9 17ZM17 17L17 20L20 20L20 17ZM21 17L21 20L22 20L22 22L23 22L23 21L24 21L24 19L22 19L22 17ZM18 18L18 19L19 19L19 18ZM8 21L8 25L9 25L9 21ZM0 0L0 7L7 7L7 0ZM1 1L1 6L6 6L6 1ZM2 2L2 5L5 5L5 2ZM18 0L18 7L25 7L25 0ZM19 1L19 6L24 6L24 1ZM20 2L20 5L23 5L23 2ZM0 18L0 25L7 25L7 18ZM1 19L1 24L6 24L6 19ZM2 20L2 23L5 23L5 20Z" fill="#000000"/></g></g></svg>
