<?xml version="1.0" encoding="UTF-8"?>
<svg xmlns="http://www.w3.org/2000/svg" version="1.1" width="300" height="300" viewBox="0 0 300 300"><rect x="0" y="0" width="300" height="300" fill="#ffffff"/><g transform="scale(12)"><g transform="translate(0,0)"><path fill-rule="evenodd" d="M14 0L14 5L13 5L13 6L12 6L12 7L11 7L11 5L10 5L10 4L11 4L11 3L10 3L10 2L11 2L11 1L10 1L10 2L9 2L9 1L8 1L8 2L9 2L9 3L8 3L8 4L9 4L9 5L8 5L8 7L9 7L9 8L6 8L6 9L5 9L5 8L0 8L0 10L1 10L1 9L3 9L3 10L2 10L2 11L0 11L0 12L1 12L1 13L0 13L0 17L1 17L1 13L3 13L3 15L2 15L2 17L4 17L4 16L3 16L3 15L7 15L7 14L6 14L6 13L8 13L8 15L9 15L9 14L10 14L10 17L9 17L9 16L8 16L8 19L10 19L10 21L9 21L9 20L8 20L8 25L10 25L10 24L13 24L13 23L11 23L11 21L14 21L14 20L15 20L15 21L17 21L17 22L21 22L21 24L22 24L22 25L25 25L25 21L24 21L24 19L25 19L25 17L24 17L24 18L22 18L22 17L23 17L23 16L25 16L25 10L24 10L24 8L23 8L23 9L22 9L22 8L21 8L21 10L20 10L20 8L19 8L19 9L18 9L18 8L17 8L17 9L15 9L15 6L16 6L16 7L17 7L17 3L15 3L15 2L16 2L16 1L17 1L17 0ZM12 2L12 4L13 4L13 2ZM14 5L14 6L13 6L13 7L12 7L12 8L10 8L10 9L9 9L9 11L8 11L8 12L11 12L11 13L10 13L10 14L11 14L11 15L12 15L12 16L13 16L13 17L10 17L10 19L12 19L12 20L14 20L14 19L16 19L16 16L17 16L17 15L18 15L18 14L19 14L19 15L20 15L20 16L21 16L21 17L22 17L22 16L23 16L23 14L24 14L24 13L22 13L22 16L21 16L21 15L20 15L20 14L21 14L21 12L20 12L20 10L18 10L18 9L17 9L17 10L16 10L16 13L14 13L14 12L15 12L15 9L14 9L14 6L15 6L15 5ZM9 6L9 7L10 7L10 6ZM6 9L6 10L7 10L7 9ZM13 9L13 10L14 10L14 9ZM10 10L10 11L11 11L11 10ZM17 10L17 11L18 11L18 10ZM23 10L23 11L22 11L22 12L24 12L24 10ZM2 11L2 12L3 12L3 13L4 13L4 14L5 14L5 13L6 13L6 12L7 12L7 11L6 11L6 12L4 12L4 11ZM12 11L12 13L13 13L13 14L12 14L12 15L16 15L16 14L14 14L14 13L13 13L13 11ZM17 12L17 13L19 13L19 12ZM5 16L5 17L7 17L7 16ZM14 16L14 17L15 17L15 16ZM17 17L17 20L20 20L20 17ZM18 18L18 19L19 19L19 18ZM21 18L21 19L22 19L22 20L21 20L21 21L22 21L22 24L24 24L24 22L23 22L23 21L22 21L22 20L23 20L23 19L22 19L22 18ZM9 22L9 23L10 23L10 22ZM15 23L15 24L14 24L14 25L15 25L15 24L17 24L17 25L20 25L20 23L19 23L19 24L18 24L18 23ZM0 0L0 7L7 7L7 0ZM1 1L1 6L6 6L6 1ZM2 2L2 5L5 5L5 2ZM18 0L18 7L25 7L25 0ZM19 1L19 6L24 6L24 1ZM20 2L20 5L23 5L23 2ZM0 18L0 25L7 25L7 18ZM1 19L1 24L6 24L6 19ZM2 20L2 23L5 23L5 20Z" fill="#000000"/></g></g></svg>
