<?xml version="1.0" encoding="UTF-8"?>
<svg xmlns="http://www.w3.org/2000/svg" version="1.1" width="300" height="300" viewBox="0 0 300 300"><rect x="0" y="0" width="300" height="300" fill="#ffffff"/><g transform="scale(10.345)"><g transform="translate(0,0)"><path fill-rule="evenodd" d="M8 0L8 1L10 1L10 0ZM15 0L15 1L14 1L14 2L11 2L11 4L10 4L10 3L9 3L9 2L8 2L8 5L9 5L9 6L8 6L8 7L9 7L9 8L8 8L8 9L7 9L7 8L6 8L6 9L7 9L7 10L5 10L5 9L4 9L4 8L0 8L0 9L1 9L1 13L0 13L0 14L1 14L1 16L2 16L2 17L3 17L3 15L4 15L4 16L6 16L6 17L7 17L7 16L6 16L6 15L8 15L8 16L10 16L10 17L9 17L9 18L5 18L5 17L4 17L4 18L3 18L3 19L2 19L2 20L1 20L1 21L2 21L2 20L3 20L3 21L5 21L5 19L8 19L8 20L6 20L6 21L8 21L8 22L10 22L10 23L14 23L14 22L16 22L16 24L14 24L14 26L13 26L13 24L12 24L12 25L8 25L8 29L11 29L11 28L12 28L12 29L13 29L13 28L12 28L12 26L13 26L13 27L14 27L14 29L16 29L16 28L17 28L17 29L21 29L21 28L22 28L22 29L25 29L25 28L22 28L22 27L24 27L24 25L25 25L25 27L26 27L26 26L27 26L27 25L28 25L28 27L27 27L27 28L26 28L26 29L28 29L28 27L29 27L29 25L28 25L28 24L29 24L29 23L28 23L28 21L27 21L27 20L28 20L28 19L26 19L26 21L25 21L25 19L24 19L24 20L20 20L20 25L16 25L16 24L17 24L17 23L18 23L18 22L19 22L19 20L18 20L18 19L16 19L16 18L15 18L15 19L16 19L16 20L15 20L15 21L14 21L14 20L13 20L13 18L14 18L14 17L12 17L12 16L14 16L14 15L15 15L15 16L17 16L17 17L19 17L19 18L20 18L20 19L22 19L22 18L21 18L21 16L23 16L23 18L24 18L24 17L25 17L25 18L26 18L26 16L25 16L25 15L24 15L24 14L23 14L23 13L22 13L22 12L25 12L25 13L26 13L26 15L27 15L27 17L28 17L28 18L29 18L29 17L28 17L28 15L29 15L29 12L26 12L26 11L27 11L27 10L29 10L29 8L28 8L28 9L27 9L27 8L24 8L24 9L22 9L22 8L21 8L21 5L19 5L19 4L20 4L20 3L21 3L21 0L20 0L20 3L19 3L19 4L17 4L17 3L16 3L16 1L17 1L17 2L19 2L19 0L18 0L18 1L17 1L17 0ZM12 3L12 5L10 5L10 6L9 6L9 7L10 7L10 8L9 8L9 9L8 9L8 11L9 11L9 12L8 12L8 15L10 15L10 16L12 16L12 14L13 14L13 15L14 15L14 14L15 14L15 15L17 15L17 16L18 16L18 15L19 15L19 14L21 14L21 15L20 15L20 16L19 16L19 17L20 17L20 16L21 16L21 15L23 15L23 16L24 16L24 15L23 15L23 14L21 14L21 11L20 11L20 9L21 9L21 8L20 8L20 6L19 6L19 5L18 5L18 6L17 6L17 4L16 4L16 3ZM13 4L13 5L12 5L12 7L11 7L11 6L10 6L10 7L11 7L11 8L12 8L12 7L13 7L13 9L15 9L15 10L14 10L14 11L11 11L11 13L10 13L10 12L9 12L9 13L10 13L10 14L12 14L12 12L16 12L16 10L17 10L17 11L18 11L18 12L17 12L17 14L18 14L18 13L20 13L20 11L18 11L18 10L19 10L19 9L20 9L20 8L18 8L18 7L19 7L19 6L18 6L18 7L17 7L17 6L16 6L16 7L17 7L17 8L16 8L16 9L15 9L15 5L14 5L14 4ZM13 5L13 7L14 7L14 5ZM17 8L17 10L18 10L18 8ZM3 9L3 10L4 10L4 9ZM9 9L9 10L10 10L10 9ZM25 9L25 10L22 10L22 11L26 11L26 10L27 10L27 9ZM2 11L2 13L3 13L3 14L2 14L2 15L3 15L3 14L4 14L4 15L5 15L5 13L6 13L6 14L7 14L7 13L6 13L6 12L7 12L7 11L5 11L5 12L3 12L3 11ZM13 13L13 14L14 14L14 13ZM27 14L27 15L28 15L28 14ZM10 17L10 18L9 18L9 21L10 21L10 22L12 22L12 21L11 21L11 20L12 20L12 19L11 19L11 18L12 18L12 17ZM0 18L0 19L1 19L1 18ZM4 18L4 19L3 19L3 20L4 20L4 19L5 19L5 18ZM10 19L10 20L11 20L11 19ZM17 20L17 21L18 21L18 20ZM21 21L21 24L24 24L24 21ZM26 21L26 24L27 24L27 21ZM22 22L22 23L23 23L23 22ZM15 25L15 26L14 26L14 27L17 27L17 28L21 28L21 26L20 26L20 27L18 27L18 26L16 26L16 25ZM22 25L22 26L23 26L23 25ZM9 26L9 28L10 28L10 26ZM0 0L0 7L7 7L7 0ZM1 1L1 6L6 6L6 1ZM2 2L2 5L5 5L5 2ZM22 0L22 7L29 7L29 0ZM23 1L23 6L28 6L28 1ZM24 2L24 5L27 5L27 2ZM0 22L0 29L7 29L7 22ZM1 23L1 28L6 28L6 23ZM2 24L2 27L5 27L5 24Z" fill="#000000"/></g></g></svg>
