<?xml version="1.0" encoding="UTF-8"?>
<svg xmlns="http://www.w3.org/2000/svg" version="1.1" width="300" height="300" viewBox="0 0 300 300"><rect x="0" y="0" width="300" height="300" fill="#ffffff"/><g transform="scale(12)"><g transform="translate(0,0)"><path fill-rule="evenodd" d="M8 0L8 2L9 2L9 3L10 3L10 4L8 4L8 9L7 9L7 8L5 8L5 9L4 9L4 10L3 10L3 8L0 8L0 9L1 9L1 10L0 10L0 12L1 12L1 14L0 14L0 15L2 15L2 16L0 16L0 17L2 17L2 16L3 16L3 15L4 15L4 12L6 12L6 13L7 13L7 12L8 12L8 16L4 16L4 17L8 17L8 18L9 18L9 17L8 17L8 16L10 16L10 15L11 15L11 16L12 16L12 18L10 18L10 20L9 20L9 19L8 19L8 20L9 20L9 22L8 22L8 25L10 25L10 24L11 24L11 25L14 25L14 24L13 24L13 23L15 23L15 22L16 22L16 25L17 25L17 24L18 24L18 25L20 25L20 24L19 24L19 23L25 23L25 22L24 22L24 21L23 21L23 22L22 22L22 21L21 21L21 16L18 16L18 15L23 15L23 17L24 17L24 15L25 15L25 14L24 14L24 15L23 15L23 14L19 14L19 13L22 13L22 12L21 12L21 11L22 11L22 10L23 10L23 11L25 11L25 8L23 8L23 9L22 9L22 10L21 10L21 11L20 11L20 9L21 9L21 8L15 8L15 9L16 9L16 10L13 10L13 9L14 9L14 8L13 8L13 6L14 6L14 7L15 7L15 5L16 5L16 7L17 7L17 5L16 5L16 4L17 4L17 3L16 3L16 4L15 4L15 3L14 3L14 2L12 2L12 4L11 4L11 1L12 1L12 0ZM14 0L14 1L16 1L16 0ZM9 1L9 2L10 2L10 1ZM13 3L13 4L12 4L12 5L11 5L11 8L12 8L12 9L10 9L10 10L9 10L9 9L8 9L8 11L10 11L10 13L9 13L9 14L12 14L12 13L11 13L11 10L12 10L12 11L13 11L13 12L14 12L14 13L13 13L13 16L14 16L14 18L15 18L15 19L13 19L13 18L12 18L12 19L11 19L11 20L10 20L10 22L9 22L9 24L10 24L10 23L11 23L11 22L12 22L12 23L13 23L13 22L15 22L15 21L14 21L14 20L16 20L16 18L15 18L15 17L16 17L16 16L17 16L17 15L16 15L16 16L14 16L14 13L15 13L15 12L17 12L17 13L16 13L16 14L18 14L18 11L19 11L19 12L20 12L20 11L19 11L19 9L17 9L17 11L15 11L15 12L14 12L14 11L13 11L13 10L12 10L12 9L13 9L13 8L12 8L12 5L14 5L14 3ZM9 5L9 8L10 8L10 5ZM6 9L6 10L4 10L4 11L6 11L6 12L7 12L7 11L6 11L6 10L7 10L7 9ZM2 11L2 13L3 13L3 11ZM24 12L24 13L25 13L25 12ZM2 14L2 15L3 15L3 14ZM6 14L6 15L7 15L7 14ZM17 17L17 20L20 20L20 17ZM18 18L18 19L19 19L19 18ZM24 18L24 19L23 19L23 20L25 20L25 18ZM11 20L11 21L12 21L12 22L13 22L13 20ZM16 21L16 22L17 22L17 21ZM18 21L18 23L19 23L19 21ZM24 24L24 25L25 25L25 24ZM0 0L0 7L7 7L7 0ZM1 1L1 6L6 6L6 1ZM2 2L2 5L5 5L5 2ZM18 0L18 7L25 7L25 0ZM19 1L19 6L24 6L24 1ZM20 2L20 5L23 5L23 2ZM0 18L0 25L7 25L7 18ZM1 19L1 24L6 24L6 19ZM2 20L2 23L5 23L5 20Z" fill="#000000"/></g></g></svg>
