<?xml version="1.0" encoding="UTF-8"?>
<svg xmlns="http://www.w3.org/2000/svg" version="1.1" width="300" height="300" viewBox="0 0 300 300"><rect x="0" y="0" width="300" height="300" fill="#ffffff"/><g transform="scale(12)"><g transform="translate(0,0)"><path fill-rule="evenodd" d="M8 0L8 1L10 1L10 2L9 2L9 3L10 3L10 4L11 4L11 6L10 6L10 5L9 5L9 6L8 6L8 8L9 8L9 9L10 9L10 10L9 10L9 11L10 11L10 10L11 10L11 12L6 12L6 11L8 11L8 10L6 10L6 9L7 9L7 8L6 8L6 9L5 9L5 8L3 8L3 9L4 9L4 10L5 10L5 11L3 11L3 10L1 10L1 9L2 9L2 8L0 8L0 11L1 11L1 13L0 13L0 17L1 17L1 15L2 15L2 14L3 14L3 15L4 15L4 13L2 13L2 12L5 12L5 14L6 14L6 15L5 15L5 16L2 16L2 17L8 17L8 18L11 18L11 19L10 19L10 21L9 21L9 20L8 20L8 22L10 22L10 23L8 23L8 25L12 25L12 24L11 24L11 23L13 23L13 22L10 22L10 21L11 21L11 19L12 19L12 21L13 21L13 20L15 20L15 21L14 21L14 23L15 23L15 22L17 22L17 23L18 23L18 22L20 22L20 24L18 24L18 25L21 25L21 23L22 23L22 24L24 24L24 25L25 25L25 21L24 21L24 20L23 20L23 23L22 23L22 22L20 22L20 21L21 21L21 16L19 16L19 14L21 14L21 15L22 15L22 18L24 18L24 19L25 19L25 17L24 17L24 16L25 16L25 10L24 10L24 9L25 9L25 8L24 8L24 9L23 9L23 10L21 10L21 9L19 9L19 8L18 8L18 10L21 10L21 11L20 11L20 12L18 12L18 11L16 11L16 10L15 10L15 8L14 8L14 7L15 7L15 5L17 5L17 1L16 1L16 0L14 0L14 1L16 1L16 2L15 2L15 3L16 3L16 4L14 4L14 5L13 5L13 6L12 6L12 4L13 4L13 3L14 3L14 2L13 2L13 1L12 1L12 0ZM11 1L11 2L10 2L10 3L11 3L11 4L12 4L12 3L11 3L11 2L12 2L12 1ZM9 6L9 7L10 7L10 9L11 9L11 10L12 10L12 11L13 11L13 12L14 12L14 14L13 14L13 13L12 13L12 12L11 12L11 15L9 15L9 17L12 17L12 19L13 19L13 17L14 17L14 18L15 18L15 20L16 20L16 18L15 18L15 17L16 17L16 16L15 16L15 12L16 12L16 11L15 11L15 10L14 10L14 9L11 9L11 8L13 8L13 7L14 7L14 6L13 6L13 7L12 7L12 6L11 6L11 7L10 7L10 6ZM16 6L16 9L17 9L17 6ZM14 11L14 12L15 12L15 11ZM21 11L21 12L22 12L22 13L21 13L21 14L24 14L24 12L22 12L22 11ZM17 12L17 13L16 13L16 14L17 14L17 15L18 15L18 14L19 14L19 13L18 13L18 12ZM6 13L6 14L7 14L7 15L6 15L6 16L7 16L7 15L8 15L8 14L10 14L10 13L8 13L8 14L7 14L7 13ZM11 15L11 16L12 16L12 17L13 17L13 15ZM17 17L17 20L20 20L20 17ZM18 18L18 19L19 19L19 18ZM13 24L13 25L14 25L14 24ZM16 24L16 25L17 25L17 24ZM0 0L0 7L7 7L7 0ZM1 1L1 6L6 6L6 1ZM2 2L2 5L5 5L5 2ZM18 0L18 7L25 7L25 0ZM19 1L19 6L24 6L24 1ZM20 2L20 5L23 5L23 2ZM0 18L0 25L7 25L7 18ZM1 19L1 24L6 24L6 19ZM2 20L2 23L5 23L5 20Z" fill="#000000"/></g></g></svg>
