<?xml version="1.0" encoding="UTF-8"?>
<svg xmlns="http://www.w3.org/2000/svg" version="1.1" width="300" height="300" viewBox="0 0 300 300"><rect x="0" y="0" width="300" height="300" fill="#ffffff"/><g transform="scale(12)"><g transform="translate(0,0)"><path fill-rule="evenodd" d="M8 0L8 4L9 4L9 5L8 5L8 7L9 7L9 6L10 6L10 9L13 9L13 10L9 10L9 9L7 9L7 8L4 8L4 9L2 9L2 8L0 8L0 14L1 14L1 13L4 13L4 11L3 11L3 10L5 10L5 9L7 9L7 10L6 10L6 11L7 11L7 12L6 12L6 13L7 13L7 14L6 14L6 15L5 15L5 14L4 14L4 15L5 15L5 17L8 17L8 18L9 18L9 19L8 19L8 21L9 21L9 22L10 22L10 23L8 23L8 25L9 25L9 24L10 24L10 23L11 23L11 24L12 24L12 25L14 25L14 24L12 24L12 23L14 23L14 22L16 22L16 23L15 23L15 25L16 25L16 23L18 23L18 24L17 24L17 25L25 25L25 24L24 24L24 22L25 22L25 21L24 21L24 19L21 19L21 17L23 17L23 14L21 14L21 12L22 12L22 13L24 13L24 14L25 14L25 12L24 12L24 9L25 9L25 8L21 8L21 9L20 9L20 8L19 8L19 9L18 9L18 11L17 11L17 2L15 2L15 0L13 0L13 1L11 1L11 2L12 2L12 3L13 3L13 2L14 2L14 4L12 4L12 5L14 5L14 7L15 7L15 5L14 5L14 4L15 4L15 3L16 3L16 10L15 10L15 9L14 9L14 8L11 8L11 3L10 3L10 2L9 2L9 0ZM16 0L16 1L17 1L17 0ZM12 6L12 7L13 7L13 6ZM19 9L19 12L20 12L20 9ZM21 9L21 10L22 10L22 11L23 11L23 10L22 10L22 9ZM7 10L7 11L8 11L8 12L7 12L7 13L11 13L11 14L7 14L7 15L6 15L6 16L9 16L9 15L10 15L10 16L11 16L11 14L12 14L12 16L13 16L13 17L10 17L10 18L13 18L13 19L10 19L10 20L9 20L9 21L10 21L10 20L11 20L11 22L14 22L14 21L16 21L16 22L17 22L17 21L16 21L16 20L15 20L15 19L16 19L16 18L13 18L13 17L14 17L14 16L16 16L16 15L14 15L14 14L13 14L13 13L12 13L12 12L14 12L14 13L16 13L16 14L18 14L18 15L17 15L17 16L20 16L20 15L21 15L21 14L19 14L19 13L17 13L17 12L14 12L14 11L15 11L15 10L13 10L13 11L12 11L12 12L11 12L11 11L10 11L10 12L9 12L9 11L8 11L8 10ZM0 16L0 17L2 17L2 16ZM3 16L3 17L4 17L4 16ZM17 17L17 20L20 20L20 17ZM24 17L24 18L25 18L25 17ZM18 18L18 19L19 19L19 18ZM12 20L12 21L14 21L14 20ZM19 21L19 24L20 24L20 23L21 23L21 22L22 22L22 23L23 23L23 21ZM0 0L0 7L7 7L7 0ZM1 1L1 6L6 6L6 1ZM2 2L2 5L5 5L5 2ZM18 0L18 7L25 7L25 0ZM19 1L19 6L24 6L24 1ZM20 2L20 5L23 5L23 2ZM0 18L0 25L7 25L7 18ZM1 19L1 24L6 24L6 19ZM2 20L2 23L5 23L5 20Z" fill="#000000"/></g></g></svg>
