<?xml version="1.0" encoding="UTF-8"?>
<svg xmlns="http://www.w3.org/2000/svg" version="1.1" width="300" height="300" viewBox="0 0 300 300"><rect x="0" y="0" width="300" height="300" fill="#ffffff"/><g transform="scale(12)"><g transform="translate(0,0)"><path fill-rule="evenodd" d="M9 0L9 1L8 1L8 2L9 2L9 3L8 3L8 4L10 4L10 7L11 7L11 4L12 4L12 5L13 5L13 6L12 6L12 9L13 9L13 8L14 8L14 9L16 9L16 10L15 10L15 11L14 11L14 12L15 12L15 13L12 13L12 11L13 11L13 10L11 10L11 11L10 11L10 9L11 9L11 8L6 8L6 9L5 9L5 8L0 8L0 9L2 9L2 10L1 10L1 12L2 12L2 10L4 10L4 9L5 9L5 12L4 12L4 11L3 11L3 12L4 12L4 14L3 14L3 13L0 13L0 17L1 17L1 14L3 14L3 16L4 16L4 17L5 17L5 16L6 16L6 17L7 17L7 16L9 16L9 15L7 15L7 14L9 14L9 13L10 13L10 14L11 14L11 13L12 13L12 14L13 14L13 15L12 15L12 17L13 17L13 16L14 16L14 17L15 17L15 18L16 18L16 19L14 19L14 20L15 20L15 21L12 21L12 19L13 19L13 18L11 18L11 15L10 15L10 19L11 19L11 20L10 20L10 21L9 21L9 20L8 20L8 25L10 25L10 24L11 24L11 23L10 23L10 24L9 24L9 22L10 22L10 21L12 21L12 22L13 22L13 23L12 23L12 25L13 25L13 24L14 24L14 25L16 25L16 24L17 24L17 25L19 25L19 23L17 23L17 22L19 22L19 21L21 21L21 20L22 20L22 21L23 21L23 22L24 22L24 24L22 24L22 22L21 22L21 24L22 24L22 25L25 25L25 20L24 20L24 21L23 21L23 20L22 20L22 19L25 19L25 17L24 17L24 18L22 18L22 17L23 17L23 16L25 16L25 10L24 10L24 8L23 8L23 9L22 9L22 8L21 8L21 10L20 10L20 8L19 8L19 10L18 10L18 11L16 11L16 10L17 10L17 9L18 9L18 8L17 8L17 4L16 4L16 5L14 5L14 4L12 4L12 2L14 2L14 3L17 3L17 0L16 0L16 1L14 1L14 0L13 0L13 1L11 1L11 2L10 2L10 0ZM10 3L10 4L11 4L11 3ZM8 5L8 7L9 7L9 5ZM13 6L13 7L14 7L14 8L15 8L15 7L16 7L16 6L15 6L15 7L14 7L14 6ZM16 8L16 9L17 9L17 8ZM6 9L6 10L9 10L9 9ZM19 10L19 11L20 11L20 10ZM23 10L23 11L22 11L22 12L24 12L24 10ZM6 11L6 12L7 12L7 11ZM8 11L8 13L9 13L9 11ZM10 12L10 13L11 13L11 12ZM16 12L16 13L15 13L15 14L16 14L16 16L17 16L17 14L18 14L18 15L19 15L19 16L20 16L20 14L21 14L21 12L19 12L19 13L17 13L17 12ZM5 13L5 14L4 14L4 16L5 16L5 14L7 14L7 13ZM16 13L16 14L17 14L17 13ZM19 13L19 14L20 14L20 13ZM22 13L22 16L21 16L21 17L22 17L22 16L23 16L23 14L24 14L24 13ZM6 15L6 16L7 16L7 15ZM14 15L14 16L15 16L15 15ZM8 17L8 19L9 19L9 17ZM17 17L17 20L20 20L20 17ZM18 18L18 19L19 19L19 18ZM21 18L21 19L22 19L22 18ZM14 23L14 24L16 24L16 23ZM0 0L0 7L7 7L7 0ZM1 1L1 6L6 6L6 1ZM2 2L2 5L5 5L5 2ZM18 0L18 7L25 7L25 0ZM19 1L19 6L24 6L24 1ZM20 2L20 5L23 5L23 2ZM0 18L0 25L7 25L7 18ZM1 19L1 24L6 24L6 19ZM2 20L2 23L5 23L5 20Z" fill="#000000"/></g></g></svg>
