<?xml version="1.0" encoding="UTF-8"?>
<svg xmlns="http://www.w3.org/2000/svg" version="1.1" width="300" height="300" viewBox="0 0 300 300"><rect x="0" y="0" width="300" height="300" fill="#ffffff"/><g transform="scale(10.345)"><g transform="translate(0,0)"><path fill-rule="evenodd" d="M9 0L9 1L10 1L10 2L8 2L8 3L9 3L9 4L10 4L10 5L9 5L9 6L8 6L8 8L4 8L4 9L5 9L5 10L3 10L3 11L4 11L4 12L2 12L2 9L3 9L3 8L0 8L0 10L1 10L1 11L0 11L0 13L5 13L5 16L6 16L6 17L7 17L7 18L5 18L5 19L1 19L1 18L4 18L4 16L2 16L2 15L3 15L3 14L1 14L1 16L2 16L2 17L1 17L1 18L0 18L0 19L1 19L1 20L0 20L0 21L1 21L1 20L2 20L2 21L5 21L5 20L6 20L6 21L7 21L7 20L8 20L8 25L9 25L9 26L8 26L8 29L9 29L9 27L10 27L10 28L12 28L12 29L13 29L13 28L12 28L12 27L11 27L11 26L12 26L12 24L14 24L14 26L13 26L13 27L14 27L14 26L18 26L18 27L17 27L17 28L16 28L16 29L17 29L17 28L18 28L18 27L19 27L19 29L21 29L21 28L20 28L20 27L21 27L21 26L20 26L20 27L19 27L19 26L18 26L18 25L19 25L19 24L18 24L18 22L17 22L17 20L19 20L19 18L22 18L22 19L20 19L20 21L19 21L19 22L20 22L20 25L23 25L23 26L22 26L22 27L23 27L23 28L22 28L22 29L23 29L23 28L26 28L26 29L29 29L29 28L28 28L28 27L29 27L29 22L28 22L28 21L26 21L26 19L29 19L29 18L28 18L28 17L29 17L29 16L28 16L28 15L29 15L29 13L28 13L28 15L27 15L27 18L26 18L26 19L24 19L24 20L22 20L22 19L23 19L23 16L24 16L24 15L25 15L25 17L26 17L26 11L27 11L27 12L29 12L29 9L27 9L27 8L26 8L26 9L25 9L25 10L23 10L23 8L20 8L20 7L21 7L21 6L20 6L20 5L19 5L19 6L18 6L18 7L17 7L17 6L16 6L16 5L15 5L15 4L16 4L16 3L17 3L17 4L19 4L19 3L20 3L20 1L19 1L19 0L18 0L18 1L15 1L15 2L14 2L14 3L13 3L13 0L12 0L12 1L10 1L10 0ZM18 1L18 2L17 2L17 3L19 3L19 1ZM11 2L11 3L12 3L12 4L11 4L11 5L10 5L10 6L9 6L9 7L10 7L10 6L11 6L11 8L12 8L12 10L10 10L10 8L9 8L9 9L8 9L8 10L7 10L7 9L6 9L6 10L7 10L7 11L6 11L6 12L5 12L5 13L6 13L6 14L7 14L7 15L6 15L6 16L7 16L7 17L8 17L8 16L12 16L12 18L11 18L11 17L10 17L10 19L9 19L9 18L7 18L7 19L6 19L6 20L7 20L7 19L8 19L8 20L10 20L10 19L12 19L12 20L11 20L11 21L10 21L10 22L9 22L9 23L10 23L10 24L9 24L9 25L10 25L10 26L11 26L11 24L12 24L12 23L10 23L10 22L11 22L11 21L12 21L12 20L13 20L13 21L14 21L14 22L13 22L13 23L14 23L14 22L15 22L15 23L16 23L16 24L17 24L17 23L16 23L16 22L15 22L15 21L16 21L16 20L17 20L17 19L18 19L18 18L19 18L19 17L20 17L20 16L15 16L15 17L18 17L18 18L14 18L14 16L12 16L12 15L11 15L11 13L12 13L12 12L13 12L13 13L14 13L14 14L13 14L13 15L14 15L14 14L15 14L15 15L18 15L18 13L21 13L21 15L23 15L23 14L25 14L25 12L24 12L24 11L21 11L21 9L20 9L20 8L19 8L19 7L20 7L20 6L19 6L19 7L18 7L18 8L17 8L17 7L16 7L16 6L15 6L15 5L14 5L14 6L13 6L13 3L12 3L12 2ZM15 2L15 3L16 3L16 2ZM12 6L12 8L14 8L14 9L15 9L15 10L16 10L16 11L15 11L15 12L16 12L16 13L15 13L15 14L17 14L17 12L21 12L21 11L19 11L19 10L18 10L18 9L17 9L17 8L16 8L16 7L15 7L15 6L14 6L14 7L13 7L13 6ZM26 9L26 10L25 10L25 11L26 11L26 10L27 10L27 11L28 11L28 10L27 10L27 9ZM9 10L9 11L7 11L7 12L6 12L6 13L7 13L7 12L9 12L9 11L10 11L10 10ZM13 10L13 11L14 11L14 10ZM17 10L17 11L18 11L18 10ZM11 11L11 12L12 12L12 11ZM22 12L22 14L23 14L23 12ZM8 13L8 14L10 14L10 13ZM19 14L19 15L20 15L20 14ZM21 16L21 17L22 17L22 16ZM13 18L13 19L14 19L14 18ZM15 19L15 20L16 20L16 19ZM21 21L21 24L24 24L24 21ZM22 22L22 23L23 23L23 22ZM25 22L25 23L26 23L26 25L24 25L24 26L25 26L25 27L26 27L26 28L27 28L27 27L28 27L28 26L27 26L27 23L26 23L26 22ZM26 26L26 27L27 27L27 26ZM0 0L0 7L7 7L7 0ZM1 1L1 6L6 6L6 1ZM2 2L2 5L5 5L5 2ZM22 0L22 7L29 7L29 0ZM23 1L23 6L28 6L28 1ZM24 2L24 5L27 5L27 2ZM0 22L0 29L7 29L7 22ZM1 23L1 28L6 28L6 23ZM2 24L2 27L5 27L5 24Z" fill="#000000"/></g></g></svg>
