<?xml version="1.0" encoding="UTF-8"?>
<svg xmlns="http://www.w3.org/2000/svg" version="1.1" width="300" height="300" viewBox="0 0 300 300"><rect x="0" y="0" width="300" height="300" fill="#ffffff"/><g transform="scale(12)"><g transform="translate(0,0)"><path fill-rule="evenodd" d="M12 0L12 1L13 1L13 2L12 2L12 3L8 3L8 4L9 4L9 5L8 5L8 7L9 7L9 8L6 8L6 9L5 9L5 8L0 8L0 10L1 10L1 11L0 11L0 12L1 12L1 13L0 13L0 17L1 17L1 14L2 14L2 16L3 16L3 17L4 17L4 16L5 16L5 17L7 17L7 16L6 16L6 15L8 15L8 16L9 16L9 15L10 15L10 18L9 18L9 17L8 17L8 19L10 19L10 20L13 20L13 21L14 21L14 22L15 22L15 23L16 23L16 24L13 24L13 23L12 23L12 25L16 25L16 24L17 24L17 25L20 25L20 24L22 24L22 25L25 25L25 21L24 21L24 20L25 20L25 17L24 17L24 18L22 18L22 17L23 17L23 16L25 16L25 10L24 10L24 8L23 8L23 9L22 9L22 8L21 8L21 10L20 10L20 8L19 8L19 10L18 10L18 11L16 11L16 10L17 10L17 9L18 9L18 8L17 8L17 9L16 9L16 7L17 7L17 4L16 4L16 5L15 5L15 6L14 6L14 7L15 7L15 8L13 8L13 6L12 6L12 7L11 7L11 6L10 6L10 4L11 4L11 5L12 5L12 4L13 4L13 5L14 5L14 4L15 4L15 3L16 3L16 2L17 2L17 0L16 0L16 1L15 1L15 3L13 3L13 2L14 2L14 1L13 1L13 0ZM8 1L8 2L9 2L9 1ZM10 1L10 2L11 2L11 1ZM9 6L9 7L10 7L10 6ZM15 6L15 7L16 7L16 6ZM10 8L10 9L6 9L6 10L5 10L5 9L2 9L2 12L4 12L4 11L5 11L5 13L6 13L6 14L5 14L5 15L6 15L6 14L7 14L7 13L6 13L6 12L8 12L8 10L9 10L9 12L11 12L11 13L9 13L9 14L10 14L10 15L11 15L11 17L12 17L12 18L10 18L10 19L12 19L12 18L13 18L13 20L15 20L15 19L16 19L16 18L15 18L15 15L12 15L12 14L14 14L14 13L12 13L12 12L14 12L14 11L15 11L15 12L16 12L16 11L15 11L15 10L16 10L16 9L13 9L13 8ZM10 9L10 11L11 11L11 10L12 10L12 9ZM3 10L3 11L4 11L4 10ZM6 10L6 11L7 11L7 10ZM19 10L19 11L20 11L20 10ZM23 10L23 11L22 11L22 12L24 12L24 10ZM19 12L19 13L17 13L17 14L16 14L16 13L15 13L15 14L16 14L16 16L17 16L17 14L18 14L18 15L19 15L19 16L20 16L20 14L21 14L21 12ZM2 13L2 14L4 14L4 13ZM11 13L11 14L12 14L12 13ZM19 13L19 14L20 14L20 13ZM22 13L22 16L21 16L21 17L22 17L22 16L23 16L23 14L24 14L24 13ZM12 16L12 17L14 17L14 16ZM17 17L17 20L20 20L20 17ZM18 18L18 19L19 19L19 18ZM21 18L21 19L22 19L22 20L21 20L21 21L19 21L19 22L17 22L17 23L19 23L19 24L20 24L20 23L21 23L21 22L22 22L22 24L24 24L24 22L23 22L23 21L22 21L22 20L23 20L23 19L22 19L22 18ZM8 20L8 25L10 25L10 22L9 22L9 20ZM11 21L11 22L12 22L12 21ZM0 0L0 7L7 7L7 0ZM1 1L1 6L6 6L6 1ZM2 2L2 5L5 5L5 2ZM18 0L18 7L25 7L25 0ZM19 1L19 6L24 6L24 1ZM20 2L20 5L23 5L23 2ZM0 18L0 25L7 25L7 18ZM1 19L1 24L6 24L6 19ZM2 20L2 23L5 23L5 20Z" fill="#000000"/></g></g></svg>
