<?xml version="1.0" encoding="UTF-8"?>
<svg xmlns="http://www.w3.org/2000/svg" version="1.1" width="300" height="300" viewBox="0 0 300 300"><rect x="0" y="0" width="300" height="300" fill="#ffffff"/><g transform="scale(14.286)"><g transform="translate(0,0)"><path fill-rule="evenodd" d="M8 0L8 2L10 2L10 3L9 3L9 4L8 4L8 9L7 9L7 8L5 8L5 9L4 9L4 10L3 10L3 8L0 8L0 9L2 9L2 10L0 10L0 11L2 11L2 10L3 10L3 12L2 12L2 13L3 13L3 12L4 12L4 13L7 13L7 12L5 12L5 10L6 10L6 11L7 11L7 10L8 10L8 12L9 12L9 13L8 13L8 14L9 14L9 15L8 15L8 16L10 16L10 15L12 15L12 16L11 16L11 17L10 17L10 19L11 19L11 20L12 20L12 21L14 21L14 19L15 19L15 21L17 21L17 19L21 19L21 18L20 18L20 17L21 17L21 16L20 16L20 15L21 15L21 14L20 14L20 15L19 15L19 18L17 18L17 17L18 17L18 16L17 16L17 15L18 15L18 14L19 14L19 13L20 13L20 11L21 11L21 10L20 10L20 11L19 11L19 10L18 10L18 9L17 9L17 8L12 8L12 9L11 9L11 8L9 8L9 4L10 4L10 5L11 5L11 6L10 6L10 7L11 7L11 6L12 6L12 7L13 7L13 6L12 6L12 3L13 3L13 2L12 2L12 1L11 1L11 0ZM11 2L11 3L12 3L12 2ZM19 8L19 9L21 9L21 8ZM6 9L6 10L7 10L7 9ZM8 9L8 10L9 10L9 9ZM10 9L10 10L11 10L11 11L9 11L9 12L10 12L10 13L9 13L9 14L12 14L12 13L11 13L11 12L13 12L13 11L12 11L12 10L13 10L13 9L12 9L12 10L11 10L11 9ZM15 9L15 10L14 10L14 13L13 13L13 15L14 15L14 17L16 17L16 16L15 16L15 15L14 15L14 14L18 14L18 13L19 13L19 11L17 11L17 12L16 12L16 10L17 10L17 9ZM15 12L15 13L16 13L16 12ZM12 16L12 17L13 17L13 16ZM8 18L8 21L10 21L10 20L9 20L9 18ZM13 18L13 19L12 19L12 20L13 20L13 19L14 19L14 18ZM20 20L20 21L21 21L21 20ZM0 0L0 7L7 7L7 0ZM1 1L1 6L6 6L6 1ZM2 2L2 5L5 5L5 2ZM14 0L14 7L21 7L21 0ZM15 1L15 6L20 6L20 1ZM16 2L16 5L19 5L19 2ZM0 14L0 21L7 21L7 14ZM1 15L1 20L6 20L6 15ZM2 16L2 19L5 19L5 16Z" fill="#000000"/></g></g></svg>
