<?xml version="1.0" encoding="UTF-8"?>
<svg xmlns="http://www.w3.org/2000/svg" version="1.1" width="300" height="300" viewBox="0 0 300 300"><rect x="0" y="0" width="300" height="300" fill="#ffffff"/><g transform="scale(12)"><g transform="translate(0,0)"><path fill-rule="evenodd" d="M8 0L8 1L10 1L10 0ZM13 0L13 1L14 1L14 2L11 2L11 4L10 4L10 3L9 3L9 2L8 2L8 5L9 5L9 6L8 6L8 7L9 7L9 8L8 8L8 10L6 10L6 9L7 9L7 8L6 8L6 9L5 9L5 10L4 10L4 8L0 8L0 13L1 13L1 15L0 15L0 16L1 16L1 15L2 15L2 17L3 17L3 15L4 15L4 14L3 14L3 10L4 10L4 11L5 11L5 12L4 12L4 13L5 13L5 12L6 12L6 13L7 13L7 12L9 12L9 13L8 13L8 14L9 14L9 16L8 16L8 18L10 18L10 17L12 17L12 18L13 18L13 19L15 19L15 18L16 18L16 21L17 21L17 25L19 25L19 22L20 22L20 23L21 23L21 22L22 22L22 20L21 20L21 17L22 17L22 19L23 19L23 23L22 23L22 25L25 25L25 24L23 24L23 23L24 23L24 22L25 22L25 20L24 20L24 19L25 19L25 18L23 18L23 17L25 17L25 15L24 15L24 13L25 13L25 12L23 12L23 11L24 11L24 9L25 9L25 8L24 8L24 9L23 9L23 8L20 8L20 9L18 9L18 8L16 8L16 9L15 9L15 8L13 8L13 6L14 6L14 7L15 7L15 6L14 6L14 5L15 5L15 4L16 4L16 5L17 5L17 4L16 4L16 3L17 3L17 2L15 2L15 1L17 1L17 0L15 0L15 1L14 1L14 0ZM14 2L14 3L13 3L13 4L12 4L12 5L10 5L10 6L9 6L9 7L10 7L10 8L9 8L9 9L10 9L10 10L9 10L9 12L10 12L10 13L12 13L12 12L13 12L13 11L14 11L14 10L13 10L13 8L11 8L11 7L12 7L12 6L13 6L13 5L14 5L14 3L15 3L15 2ZM10 6L10 7L11 7L11 6ZM16 6L16 7L17 7L17 6ZM1 9L1 13L2 13L2 9ZM17 9L17 10L15 10L15 12L14 12L14 13L13 13L13 14L14 14L14 15L12 15L12 14L11 14L11 15L12 15L12 16L13 16L13 17L14 17L14 18L15 18L15 16L17 16L17 15L19 15L19 16L21 16L21 15L22 15L22 16L23 16L23 15L22 15L22 14L23 14L23 13L21 13L21 12L22 12L22 10L21 10L21 9L20 9L20 10L19 10L19 11L21 11L21 12L19 12L19 14L17 14L17 12L18 12L18 9ZM5 10L5 11L6 11L6 12L7 12L7 11L6 11L6 10ZM11 10L11 11L13 11L13 10ZM16 11L16 12L15 12L15 13L14 13L14 14L16 14L16 15L17 15L17 14L16 14L16 12L17 12L17 11ZM20 13L20 14L19 14L19 15L20 15L20 14L21 14L21 13ZM2 14L2 15L3 15L3 14ZM6 14L6 15L5 15L5 16L6 16L6 17L7 17L7 16L6 16L6 15L7 15L7 14ZM9 16L9 17L10 17L10 16ZM17 17L17 20L20 20L20 17ZM18 18L18 19L19 19L19 18ZM9 19L9 21L8 21L8 25L9 25L9 24L10 24L10 25L13 25L13 24L14 24L14 25L15 25L15 23L16 23L16 22L14 22L14 23L13 23L13 22L11 22L11 23L13 23L13 24L10 24L10 23L9 23L9 21L12 21L12 20L11 20L11 19ZM13 20L13 21L15 21L15 20ZM20 24L20 25L21 25L21 24ZM0 0L0 7L7 7L7 0ZM1 1L1 6L6 6L6 1ZM2 2L2 5L5 5L5 2ZM18 0L18 7L25 7L25 0ZM19 1L19 6L24 6L24 1ZM20 2L20 5L23 5L23 2ZM0 18L0 25L7 25L7 18ZM1 19L1 24L6 24L6 19ZM2 20L2 23L5 23L5 20Z" fill="#000000"/></g></g></svg>
