<?xml version="1.0" encoding="UTF-8"?>
<svg xmlns="http://www.w3.org/2000/svg" version="1.1" width="300" height="300" viewBox="0 0 300 300"><rect x="0" y="0" width="300" height="300" fill="#ffffff"/><g transform="scale(12)"><g transform="translate(0,0)"><path fill-rule="evenodd" d="M9 0L9 1L10 1L10 2L8 2L8 3L9 3L9 4L10 4L10 5L9 5L9 6L8 6L8 8L4 8L4 9L3 9L3 8L0 8L0 10L1 10L1 9L3 9L3 10L4 10L4 11L2 11L2 12L1 12L1 14L0 14L0 15L1 15L1 16L0 16L0 17L1 17L1 16L2 16L2 15L3 15L3 17L4 17L4 15L7 15L7 14L6 14L6 13L8 13L8 14L9 14L9 13L8 13L8 12L9 12L9 11L10 11L10 10L13 10L13 8L15 8L15 6L16 6L16 8L17 8L17 9L15 9L15 10L14 10L14 11L13 11L13 12L12 12L12 11L11 11L11 12L12 12L12 13L11 13L11 14L14 14L14 15L13 15L13 16L15 16L15 14L16 14L16 15L19 15L19 12L20 12L20 11L21 11L21 12L22 12L22 11L21 11L21 10L23 10L23 8L22 8L22 9L21 9L21 10L19 10L19 8L17 8L17 6L16 6L16 5L15 5L15 6L14 6L14 7L13 7L13 6L12 6L12 5L11 5L11 2L12 2L12 3L13 3L13 4L15 4L15 2L16 2L16 3L17 3L17 0L14 0L14 1L13 1L13 0L12 0L12 1L11 1L11 0ZM14 1L14 2L13 2L13 3L14 3L14 2L15 2L15 1ZM10 5L10 6L9 6L9 7L10 7L10 6L11 6L11 8L12 8L12 6L11 6L11 5ZM9 8L9 9L4 9L4 10L7 10L7 11L6 11L6 12L8 12L8 11L9 11L9 10L10 10L10 8ZM24 9L24 11L23 11L23 14L22 14L22 13L21 13L21 14L22 14L22 15L20 15L20 16L16 16L16 21L15 21L15 19L13 19L13 20L12 20L12 19L11 19L11 18L13 18L13 17L11 17L11 18L10 18L10 19L9 19L9 17L8 17L8 21L10 21L10 22L8 22L8 25L10 25L10 24L9 24L9 23L10 23L10 22L12 22L12 23L11 23L11 24L12 24L12 25L13 25L13 24L14 24L14 23L15 23L15 24L16 24L16 25L17 25L17 24L22 24L22 25L25 25L25 24L24 24L24 23L25 23L25 22L24 22L24 23L23 23L23 24L22 24L22 23L21 23L21 22L22 22L22 15L25 15L25 14L24 14L24 13L25 13L25 12L24 12L24 11L25 11L25 9ZM15 10L15 11L14 11L14 12L13 12L13 13L14 13L14 14L15 14L15 13L16 13L16 12L19 12L19 10L18 10L18 11L17 11L17 10ZM4 11L4 12L3 12L3 13L2 13L2 14L1 14L1 15L2 15L2 14L5 14L5 11ZM15 11L15 12L16 12L16 11ZM8 15L8 16L11 16L11 15ZM6 16L6 17L7 17L7 16ZM17 17L17 20L20 20L20 17ZM23 17L23 19L25 19L25 18L24 18L24 17ZM18 18L18 19L19 19L19 18ZM10 19L10 20L11 20L11 21L12 21L12 20L11 20L11 19ZM23 20L23 21L24 21L24 20ZM14 21L14 22L13 22L13 23L14 23L14 22L15 22L15 23L16 23L16 22L17 22L17 21L16 21L16 22L15 22L15 21ZM18 21L18 23L19 23L19 21ZM20 21L20 22L21 22L21 21ZM0 0L0 7L7 7L7 0ZM1 1L1 6L6 6L6 1ZM2 2L2 5L5 5L5 2ZM18 0L18 7L25 7L25 0ZM19 1L19 6L24 6L24 1ZM20 2L20 5L23 5L23 2ZM0 18L0 25L7 25L7 18ZM1 19L1 24L6 24L6 19ZM2 20L2 23L5 23L5 20Z" fill="#000000"/></g></g></svg>
