<?xml version="1.0" encoding="UTF-8"?>
<svg xmlns="http://www.w3.org/2000/svg" version="1.1" width="300" height="300" viewBox="0 0 300 300"><rect x="0" y="0" width="300" height="300" fill="#ffffff"/><g transform="scale(10.345)"><g transform="translate(0,0)"><path fill-rule="evenodd" d="M8 0L8 2L10 2L10 4L8 4L8 10L5 10L5 9L7 9L7 8L5 8L5 9L4 9L4 10L3 10L3 8L0 8L0 9L2 9L2 10L0 10L0 12L1 12L1 13L0 13L0 14L2 14L2 12L1 12L1 11L2 11L2 10L3 10L3 12L4 12L4 10L5 10L5 13L4 13L4 14L3 14L3 15L1 15L1 16L0 16L0 17L1 17L1 16L2 16L2 17L3 17L3 15L4 15L4 16L5 16L5 17L4 17L4 19L5 19L5 20L0 20L0 21L7 21L7 20L8 20L8 22L9 22L9 21L10 21L10 25L9 25L9 26L8 26L8 29L9 29L9 27L10 27L10 29L14 29L14 27L13 27L13 28L11 28L11 27L12 27L12 26L11 26L11 27L10 27L10 25L11 25L11 24L13 24L13 26L15 26L15 27L16 27L16 26L17 26L17 25L18 25L18 26L19 26L19 25L20 25L20 27L18 27L18 28L15 28L15 29L18 29L18 28L20 28L20 29L21 29L21 28L20 28L20 27L23 27L23 26L22 26L22 25L25 25L25 22L26 22L26 21L25 21L25 19L24 19L24 16L23 16L23 15L22 15L22 14L24 14L24 15L25 15L25 14L24 14L24 12L25 12L25 11L28 11L28 12L27 12L27 15L29 15L29 13L28 13L28 12L29 12L29 8L27 8L27 9L28 9L28 10L24 10L24 9L25 9L25 8L21 8L21 9L20 9L20 7L21 7L21 5L20 5L20 3L21 3L21 2L17 2L17 1L19 1L19 0L15 0L15 1L13 1L13 0L11 0L11 1L9 1L9 0ZM20 0L20 1L21 1L21 0ZM11 1L11 2L12 2L12 1ZM15 1L15 2L16 2L16 1ZM13 2L13 3L11 3L11 4L12 4L12 6L11 6L11 5L9 5L9 8L10 8L10 6L11 6L11 7L12 7L12 6L13 6L13 8L11 8L11 10L9 10L9 11L8 11L8 14L7 14L7 13L6 13L6 14L7 14L7 15L6 15L6 16L7 16L7 15L8 15L8 14L9 14L9 11L10 11L10 14L11 14L11 15L12 15L12 13L11 13L11 12L13 12L13 11L14 11L14 13L13 13L13 14L16 14L16 12L18 12L18 13L17 13L17 15L15 15L15 18L13 18L13 16L14 16L14 15L13 15L13 16L10 16L10 19L11 19L11 20L10 20L10 21L11 21L11 23L12 23L12 21L11 21L11 20L13 20L13 19L14 19L14 21L13 21L13 22L16 22L16 21L17 21L17 22L20 22L20 20L23 20L23 19L21 19L21 18L22 18L22 17L21 17L21 18L20 18L20 16L19 16L19 15L18 15L18 13L19 13L19 14L20 14L20 13L19 13L19 12L21 12L21 11L22 11L22 12L23 12L23 11L24 11L24 10L23 10L23 11L22 11L22 9L21 9L21 10L20 10L20 9L19 9L19 8L18 8L18 6L19 6L19 7L20 7L20 5L19 5L19 4L18 4L18 3L15 3L15 4L16 4L16 6L15 6L15 5L13 5L13 4L14 4L14 2ZM17 4L17 6L16 6L16 7L15 7L15 6L14 6L14 8L13 8L13 10L15 10L15 11L16 11L16 10L15 10L15 8L16 8L16 9L18 9L18 10L17 10L17 11L18 11L18 12L19 12L19 11L20 11L20 10L19 10L19 9L18 9L18 8L17 8L17 6L18 6L18 4ZM11 10L11 11L12 11L12 10ZM18 10L18 11L19 11L19 10ZM6 11L6 12L7 12L7 11ZM4 14L4 15L5 15L5 14ZM21 15L21 16L22 16L22 15ZM16 16L16 18L15 18L15 21L16 21L16 18L17 18L17 19L18 19L18 20L17 20L17 21L18 21L18 20L19 20L19 19L20 19L20 18L19 18L19 17L18 17L18 16ZM28 16L28 17L29 17L29 16ZM6 17L6 18L7 18L7 19L6 19L6 20L7 20L7 19L8 19L8 20L9 20L9 17ZM0 18L0 19L3 19L3 18ZM11 18L11 19L12 19L12 18ZM26 18L26 19L27 19L27 21L28 21L28 19L29 19L29 18L28 18L28 19L27 19L27 18ZM21 21L21 24L24 24L24 21ZM22 22L22 23L23 23L23 22ZM28 22L28 24L27 24L27 25L28 25L28 26L27 26L27 27L29 27L29 22ZM8 23L8 24L9 24L9 23ZM13 23L13 24L14 24L14 23ZM17 23L17 24L18 24L18 25L19 25L19 24L18 24L18 23ZM15 24L15 26L16 26L16 24ZM24 26L24 28L22 28L22 29L24 29L24 28L25 28L25 29L27 29L27 28L25 28L25 27L26 27L26 26ZM28 28L28 29L29 29L29 28ZM0 0L0 7L7 7L7 0ZM1 1L1 6L6 6L6 1ZM2 2L2 5L5 5L5 2ZM22 0L22 7L29 7L29 0ZM23 1L23 6L28 6L28 1ZM24 2L24 5L27 5L27 2ZM0 22L0 29L7 29L7 22ZM1 23L1 28L6 28L6 23ZM2 24L2 27L5 27L5 24Z" fill="#000000"/></g></g></svg>
