<?xml version="1.0" encoding="UTF-8"?>
<svg xmlns="http://www.w3.org/2000/svg" version="1.1" width="300" height="300" viewBox="0 0 300 300"><rect x="0" y="0" width="300" height="300" fill="#ffffff"/><g transform="scale(12)"><g transform="translate(0,0)"><path fill-rule="evenodd" d="M8 0L8 4L9 4L9 5L8 5L8 7L9 7L9 6L10 6L10 9L11 9L11 8L12 8L12 9L14 9L14 10L13 10L13 11L12 11L12 12L11 12L11 13L9 13L9 12L10 12L10 11L11 11L11 10L9 10L9 12L8 12L8 13L7 13L7 12L5 12L5 13L3 13L3 12L4 12L4 11L5 11L5 10L6 10L6 11L8 11L8 10L6 10L6 9L7 9L7 8L4 8L4 9L5 9L5 10L3 10L3 9L2 9L2 8L0 8L0 9L1 9L1 10L0 10L0 14L1 14L1 10L3 10L3 11L2 11L2 14L3 14L3 15L2 15L2 16L0 16L0 17L2 17L2 16L3 16L3 17L7 17L7 16L8 16L8 18L9 18L9 17L11 17L11 16L12 16L12 17L14 17L14 18L13 18L13 19L12 19L12 20L9 20L9 19L8 19L8 21L9 21L9 23L8 23L8 25L10 25L10 22L11 22L11 24L12 24L12 25L14 25L14 23L15 23L15 25L16 25L16 23L18 23L18 24L17 24L17 25L20 25L20 23L19 23L19 21L21 21L21 22L22 22L22 21L23 21L23 23L21 23L21 25L25 25L25 24L24 24L24 22L25 22L25 19L21 19L21 17L23 17L23 14L21 14L21 12L22 12L22 13L24 13L24 14L25 14L25 12L24 12L24 9L25 9L25 8L21 8L21 9L20 9L20 8L19 8L19 9L18 9L18 11L17 11L17 9L16 9L16 10L15 10L15 9L14 9L14 8L15 8L15 4L16 4L16 7L17 7L17 0L16 0L16 2L15 2L15 0L14 0L14 2L15 2L15 3L14 3L14 4L13 4L13 1L11 1L11 2L12 2L12 5L13 5L13 6L12 6L12 7L11 7L11 3L10 3L10 2L9 2L9 0ZM13 6L13 7L12 7L12 8L14 8L14 6ZM19 9L19 12L20 12L20 9ZM21 9L21 10L22 10L22 11L23 11L23 10L22 10L22 9ZM13 11L13 12L12 12L12 13L11 13L11 14L12 14L12 13L13 13L13 12L14 12L14 13L16 13L16 14L18 14L18 15L17 15L17 16L21 16L21 15L19 15L19 13L17 13L17 12L15 12L15 11ZM5 13L5 14L4 14L4 16L5 16L5 15L6 15L6 16L7 16L7 15L6 15L6 14L7 14L7 13ZM8 13L8 14L9 14L9 15L8 15L8 16L11 16L11 15L10 15L10 14L9 14L9 13ZM13 14L13 15L12 15L12 16L14 16L14 17L15 17L15 16L16 16L16 15L15 15L15 14ZM14 15L14 16L15 16L15 15ZM17 17L17 20L20 20L20 17ZM24 17L24 18L25 18L25 17ZM10 18L10 19L11 19L11 18ZM15 18L15 19L13 19L13 20L12 20L12 21L11 21L11 22L12 22L12 21L13 21L13 22L14 22L14 21L13 21L13 20L15 20L15 21L16 21L16 22L15 22L15 23L16 23L16 22L17 22L17 21L16 21L16 20L15 20L15 19L16 19L16 18ZM18 18L18 19L19 19L19 18ZM12 23L12 24L13 24L13 23ZM0 0L0 7L7 7L7 0ZM1 1L1 6L6 6L6 1ZM2 2L2 5L5 5L5 2ZM18 0L18 7L25 7L25 0ZM19 1L19 6L24 6L24 1ZM20 2L20 5L23 5L23 2ZM0 18L0 25L7 25L7 18ZM1 19L1 24L6 24L6 19ZM2 20L2 23L5 23L5 20Z" fill="#000000"/></g></g></svg>
