<?xml version="1.0" encoding="UTF-8"?>
<svg xmlns="http://www.w3.org/2000/svg" version="1.1" width="300" height="300" viewBox="0 0 300 300"><rect x="0" y="0" width="300" height="300" fill="#ffffff"/><g transform="scale(10.345)"><g transform="translate(0,0)"><path fill-rule="evenodd" d="M10 0L10 1L8 1L8 3L9 3L9 4L8 4L8 8L6 8L6 9L5 9L5 10L4 10L4 8L3 8L3 9L2 9L2 8L0 8L0 9L2 9L2 11L3 11L3 12L6 12L6 13L7 13L7 14L3 14L3 13L2 13L2 12L1 12L1 11L0 11L0 12L1 12L1 13L0 13L0 17L1 17L1 14L2 14L2 15L5 15L5 16L3 16L3 17L2 17L2 19L3 19L3 21L8 21L8 23L9 23L9 22L10 22L10 23L11 23L11 22L12 22L12 21L11 21L11 20L8 20L8 17L9 17L9 16L10 16L10 17L11 17L11 16L12 16L12 18L11 18L11 19L12 19L12 20L13 20L13 18L14 18L14 20L15 20L15 18L16 18L16 20L17 20L17 21L14 21L14 22L16 22L16 23L14 23L14 24L15 24L15 26L16 26L16 25L17 25L17 24L16 24L16 23L18 23L18 24L19 24L19 23L20 23L20 26L21 26L21 28L20 28L20 29L21 29L21 28L22 28L22 27L23 27L23 28L25 28L25 29L28 29L28 27L29 27L29 26L28 26L28 25L29 25L29 23L28 23L28 21L27 21L27 20L25 20L25 19L28 19L28 20L29 20L29 18L28 18L28 15L29 15L29 14L28 14L28 15L27 15L27 14L24 14L24 15L21 15L21 11L22 11L22 10L23 10L23 12L22 12L22 13L23 13L23 12L25 12L25 13L26 13L26 12L29 12L29 11L27 11L27 10L29 10L29 9L28 9L28 8L26 8L26 9L25 9L25 8L22 8L22 9L20 9L20 8L21 8L21 5L20 5L20 3L19 3L19 0L18 0L18 1L16 1L16 2L14 2L14 3L12 3L12 7L11 7L11 4L10 4L10 3L9 3L9 2L11 2L11 0ZM14 0L14 1L15 1L15 0ZM20 1L20 2L21 2L21 1ZM16 2L16 3L14 3L14 4L13 4L13 7L12 7L12 8L13 8L13 9L14 9L14 10L15 10L15 11L14 11L14 12L12 12L12 16L14 16L14 17L15 17L15 16L16 16L16 17L17 17L17 19L18 19L18 21L17 21L17 22L19 22L19 21L20 21L20 20L21 20L21 19L22 19L22 18L21 18L21 17L24 17L24 18L23 18L23 20L24 20L24 19L25 19L25 17L27 17L27 15L26 15L26 16L25 16L25 15L24 15L24 16L21 16L21 15L20 15L20 12L18 12L18 11L19 11L19 8L18 8L18 10L17 10L17 11L16 11L16 10L15 10L15 9L17 9L17 8L16 8L16 6L17 6L17 7L18 7L18 4L17 4L17 2ZM9 5L9 8L8 8L8 9L6 9L6 10L7 10L7 11L6 11L6 12L7 12L7 13L8 13L8 12L9 12L9 14L8 14L8 15L6 15L6 16L5 16L5 17L3 17L3 18L4 18L4 20L7 20L7 19L5 19L5 18L7 18L7 17L8 17L8 15L10 15L10 16L11 16L11 15L10 15L10 14L11 14L11 13L10 13L10 12L9 12L9 11L11 11L11 8L10 8L10 5ZM15 5L15 6L14 6L14 7L13 7L13 8L14 8L14 9L15 9L15 8L14 8L14 7L15 7L15 6L16 6L16 5ZM19 6L19 7L20 7L20 6ZM8 9L8 11L9 11L9 10L10 10L10 9ZM23 9L23 10L25 10L25 9ZM26 9L26 10L27 10L27 9ZM20 10L20 11L21 11L21 10ZM15 11L15 12L14 12L14 13L13 13L13 15L15 15L15 14L16 14L16 16L17 16L17 17L19 17L19 18L18 18L18 19L19 19L19 18L20 18L20 16L18 16L18 15L19 15L19 13L17 13L17 12L16 12L16 11ZM15 12L15 13L16 13L16 14L17 14L17 13L16 13L16 12ZM6 16L6 17L7 17L7 16ZM0 18L0 19L1 19L1 18ZM0 20L0 21L1 21L1 20ZM21 21L21 24L24 24L24 21ZM26 21L26 22L25 22L25 23L27 23L27 24L26 24L26 28L27 28L27 27L28 27L28 26L27 26L27 25L28 25L28 23L27 23L27 21ZM22 22L22 23L23 23L23 22ZM9 24L9 25L8 25L8 26L10 26L10 29L12 29L12 28L13 28L13 29L15 29L15 28L16 28L16 27L13 27L13 24L12 24L12 25L11 25L11 26L10 26L10 24ZM21 25L21 26L22 26L22 25ZM24 25L24 26L23 26L23 27L24 27L24 26L25 26L25 25ZM11 26L11 28L12 28L12 26ZM17 26L17 28L18 28L18 27L19 27L19 26ZM8 27L8 29L9 29L9 27ZM0 0L0 7L7 7L7 0ZM1 1L1 6L6 6L6 1ZM2 2L2 5L5 5L5 2ZM22 0L22 7L29 7L29 0ZM23 1L23 6L28 6L28 1ZM24 2L24 5L27 5L27 2ZM0 22L0 29L7 29L7 22ZM1 23L1 28L6 28L6 23ZM2 24L2 27L5 27L5 24Z" fill="#000000"/></g></g></svg>
