<?xml version="1.0" encoding="UTF-8"?>
<svg xmlns="http://www.w3.org/2000/svg" version="1.1" width="300" height="300" viewBox="0 0 300 300"><rect x="0" y="0" width="300" height="300" fill="#ffffff"/><g transform="scale(10.345)"><g transform="translate(0,0)"><path fill-rule="evenodd" d="M9 0L9 1L10 1L10 2L8 2L8 3L9 3L9 4L10 4L10 5L9 5L9 6L8 6L8 8L4 8L4 9L3 9L3 8L0 8L0 9L1 9L1 10L0 10L0 12L1 12L1 10L3 10L3 12L4 12L4 13L5 13L5 14L6 14L6 15L8 15L8 14L9 14L9 11L10 11L10 10L12 10L12 8L14 8L14 9L17 9L17 8L18 8L18 7L19 7L19 10L18 10L18 11L17 11L17 10L16 10L16 11L15 11L15 14L14 14L14 13L13 13L13 12L12 12L12 11L11 11L11 12L12 12L12 13L11 13L11 14L10 14L10 15L12 15L12 16L10 16L10 17L9 17L9 18L8 18L8 16L6 16L6 17L5 17L5 15L4 15L4 17L3 17L3 16L2 16L2 15L3 15L3 14L2 14L2 13L0 13L0 16L1 16L1 17L2 17L2 18L5 18L5 19L7 19L7 20L6 20L6 21L8 21L8 25L9 25L9 26L8 26L8 29L9 29L9 27L10 27L10 28L12 28L12 29L13 29L13 28L12 28L12 27L11 27L11 26L12 26L12 24L14 24L14 26L13 26L13 27L14 27L14 26L18 26L18 27L16 27L16 29L17 29L17 28L18 28L18 27L19 27L19 26L18 26L18 25L17 25L17 24L19 24L19 22L20 22L20 27L21 27L21 28L19 28L19 29L24 29L24 28L25 28L25 26L28 26L28 27L27 27L27 28L26 28L26 29L29 29L29 28L28 28L28 27L29 27L29 22L28 22L28 21L27 21L27 24L26 24L26 23L25 23L25 21L26 21L26 19L29 19L29 18L28 18L28 17L29 17L29 16L28 16L28 15L29 15L29 13L28 13L28 15L27 15L27 18L23 18L23 20L20 20L20 19L21 19L21 18L20 18L20 19L19 19L19 17L17 17L17 16L20 16L20 17L23 17L23 16L22 16L22 15L24 15L24 16L25 16L25 17L26 17L26 11L27 11L27 12L29 12L29 9L27 9L27 8L26 8L26 9L25 9L25 10L24 10L24 9L23 9L23 8L20 8L20 7L21 7L21 6L20 6L20 5L19 5L19 4L20 4L20 3L21 3L21 1L15 1L15 0L12 0L12 1L10 1L10 0ZM13 1L13 3L12 3L12 2L11 2L11 3L12 3L12 4L11 4L11 5L10 5L10 6L9 6L9 7L10 7L10 6L11 6L11 8L12 8L12 6L13 6L13 7L14 7L14 6L13 6L13 3L15 3L15 2L14 2L14 1ZM17 2L17 3L16 3L16 4L15 4L15 5L16 5L16 6L15 6L15 8L16 8L16 6L17 6L17 7L18 7L18 6L17 6L17 5L18 5L18 4L17 4L17 3L20 3L20 2ZM19 6L19 7L20 7L20 6ZM9 8L9 9L8 9L8 10L7 10L7 9L5 9L5 11L4 11L4 12L7 12L7 13L6 13L6 14L8 14L8 10L10 10L10 8ZM21 9L21 10L19 10L19 11L18 11L18 12L17 12L17 13L18 13L18 14L15 14L15 15L16 15L16 16L17 16L17 15L18 15L18 14L19 14L19 15L20 15L20 16L21 16L21 15L22 15L22 14L21 14L21 15L20 15L20 14L19 14L19 13L20 13L20 12L21 12L21 13L22 13L22 12L21 12L21 11L23 11L23 14L25 14L25 11L26 11L26 10L27 10L27 11L28 11L28 10L27 10L27 9L26 9L26 10L25 10L25 11L23 11L23 10L22 10L22 9ZM6 10L6 11L7 11L7 10ZM13 10L13 11L14 11L14 10ZM1 14L1 15L2 15L2 14ZM13 14L13 15L14 15L14 14ZM12 16L12 18L11 18L11 17L10 17L10 18L11 18L11 19L12 19L12 20L10 20L10 19L8 19L8 18L7 18L7 17L6 17L6 18L7 18L7 19L8 19L8 20L10 20L10 21L9 21L9 25L10 25L10 26L11 26L11 25L10 25L10 24L12 24L12 23L11 23L11 21L12 21L12 20L13 20L13 21L14 21L14 22L13 22L13 23L14 23L14 22L15 22L15 23L18 23L18 22L19 22L19 19L18 19L18 20L17 20L17 18L14 18L14 16ZM0 18L0 19L1 19L1 20L0 20L0 21L1 21L1 20L2 20L2 19L1 19L1 18ZM13 18L13 19L14 19L14 18ZM3 19L3 21L4 21L4 19ZM15 19L15 20L16 20L16 21L15 21L15 22L17 22L17 20L16 20L16 19ZM24 19L24 20L25 20L25 19ZM21 21L21 24L24 24L24 21ZM22 22L22 23L23 23L23 22ZM25 24L25 25L26 25L26 24ZM21 25L21 27L22 27L22 28L23 28L23 27L22 27L22 26L23 26L23 25ZM0 0L0 7L7 7L7 0ZM1 1L1 6L6 6L6 1ZM2 2L2 5L5 5L5 2ZM22 0L22 7L29 7L29 0ZM23 1L23 6L28 6L28 1ZM24 2L24 5L27 5L27 2ZM0 22L0 29L7 29L7 22ZM1 23L1 28L6 28L6 23ZM2 24L2 27L5 27L5 24Z" fill="#000000"/></g></g></svg>
