<?xml version="1.0" encoding="UTF-8"?>
<svg xmlns="http://www.w3.org/2000/svg" version="1.1" width="300" height="300" viewBox="0 0 300 300"><rect x="0" y="0" width="300" height="300" fill="#ffffff"/><g transform="scale(12)"><g transform="translate(0,0)"><path fill-rule="evenodd" d="M8 0L8 1L9 1L9 2L10 2L10 3L11 3L11 1L13 1L13 2L12 2L12 4L11 4L11 5L10 5L10 4L9 4L9 5L10 5L10 8L9 8L9 6L8 6L8 8L9 8L9 10L8 10L8 9L7 9L7 8L6 8L6 9L7 9L7 10L5 10L5 8L3 8L3 9L2 9L2 8L0 8L0 9L1 9L1 10L0 10L0 11L1 11L1 13L0 13L0 17L1 17L1 15L3 15L3 14L4 14L4 16L2 16L2 17L5 17L5 16L6 16L6 17L7 17L7 16L6 16L6 15L7 15L7 14L8 14L8 13L10 13L10 12L12 12L12 13L13 13L13 14L15 14L15 15L14 15L14 16L15 16L15 17L16 17L16 20L14 20L14 19L15 19L15 18L13 18L13 19L12 19L12 17L13 17L13 16L12 16L12 15L11 15L11 14L10 14L10 15L9 15L9 17L8 17L8 18L9 18L9 19L12 19L12 21L13 21L13 22L11 22L11 23L12 23L12 24L11 24L11 25L12 25L12 24L13 24L13 25L14 25L14 24L15 24L15 25L17 25L17 24L16 24L16 23L18 23L18 25L21 25L21 23L22 23L22 24L24 24L24 25L25 25L25 21L22 21L22 22L21 22L21 16L19 16L19 15L22 15L22 18L24 18L24 19L23 19L23 20L24 20L24 19L25 19L25 17L24 17L24 16L25 16L25 10L24 10L24 9L25 9L25 8L24 8L24 9L23 9L23 10L21 10L21 9L19 9L19 8L18 8L18 9L19 9L19 10L15 10L15 9L17 9L17 6L16 6L16 8L15 8L15 9L14 9L14 11L15 11L15 13L14 13L14 12L13 12L13 11L12 11L12 10L13 10L13 8L14 8L14 7L15 7L15 6L14 6L14 7L13 7L13 5L12 5L12 4L13 4L13 3L16 3L16 4L14 4L14 5L17 5L17 3L16 3L16 2L17 2L17 1L16 1L16 0L14 0L14 1L13 1L13 0L11 0L11 1L9 1L9 0ZM14 1L14 2L16 2L16 1ZM11 5L11 7L12 7L12 8L13 8L13 7L12 7L12 5ZM3 9L3 11L2 11L2 12L3 12L3 13L4 13L4 12L3 12L3 11L5 11L5 10L4 10L4 9ZM10 9L10 10L9 10L9 11L10 11L10 10L12 10L12 9ZM7 10L7 11L6 11L6 12L5 12L5 15L6 15L6 14L7 14L7 13L8 13L8 10ZM19 10L19 11L21 11L21 12L22 12L22 13L21 13L21 14L24 14L24 12L22 12L22 11L21 11L21 10ZM17 11L17 12L16 12L16 13L15 13L15 14L16 14L16 13L17 13L17 14L18 14L18 15L19 15L19 14L20 14L20 13L18 13L18 11ZM6 12L6 13L7 13L7 12ZM15 15L15 16L16 16L16 15ZM10 16L10 17L11 17L11 16ZM17 17L17 20L20 20L20 17ZM18 18L18 19L19 19L19 18ZM8 20L8 22L9 22L9 23L8 23L8 25L9 25L9 24L10 24L10 21L9 21L9 20ZM15 21L15 22L17 22L17 21ZM19 21L19 22L18 22L18 23L20 23L20 21ZM13 22L13 24L14 24L14 22ZM22 22L22 23L23 23L23 22ZM0 0L0 7L7 7L7 0ZM1 1L1 6L6 6L6 1ZM2 2L2 5L5 5L5 2ZM18 0L18 7L25 7L25 0ZM19 1L19 6L24 6L24 1ZM20 2L20 5L23 5L23 2ZM0 18L0 25L7 25L7 18ZM1 19L1 24L6 24L6 19ZM2 20L2 23L5 23L5 20Z" fill="#000000"/></g></g></svg>
