<?xml version="1.0" encoding="UTF-8"?>
<svg xmlns="http://www.w3.org/2000/svg" version="1.1" width="300" height="300" viewBox="0 0 300 300"><rect x="0" y="0" width="300" height="300" fill="#ffffff"/><g transform="scale(12)"><g transform="translate(0,0)"><path fill-rule="evenodd" d="M12 0L12 1L13 1L13 0ZM14 0L14 3L12 3L12 2L11 2L11 1L10 1L10 2L11 2L11 3L8 3L8 4L9 4L9 5L8 5L8 7L9 7L9 8L6 8L6 9L5 9L5 8L0 8L0 9L2 9L2 10L1 10L1 12L0 12L0 17L1 17L1 14L3 14L3 15L2 15L2 17L3 17L3 15L4 15L4 14L5 14L5 15L8 15L8 16L4 16L4 17L8 17L8 19L10 19L10 17L9 17L9 15L8 15L8 13L9 13L9 14L10 14L10 13L11 13L11 14L12 14L12 16L11 16L11 15L10 15L10 16L11 16L11 18L12 18L12 19L13 19L13 18L12 18L12 17L15 17L15 18L16 18L16 19L14 19L14 20L12 20L12 21L11 21L11 22L10 22L10 23L11 23L11 22L12 22L12 21L14 21L14 22L13 22L13 23L12 23L12 25L16 25L16 24L17 24L17 25L19 25L19 24L20 24L20 23L17 23L17 22L19 22L19 21L21 21L21 24L22 24L22 25L25 25L25 21L24 21L24 20L25 20L25 17L24 17L24 18L22 18L22 17L23 17L23 16L25 16L25 10L24 10L24 8L23 8L23 9L22 9L22 8L21 8L21 10L20 10L20 8L19 8L19 10L18 10L18 11L17 11L17 12L13 12L13 14L12 14L12 13L11 13L11 12L12 12L12 11L11 11L11 10L12 10L12 9L15 9L15 8L16 8L16 7L17 7L17 2L16 2L16 1L17 1L17 0L16 0L16 1L15 1L15 0ZM8 1L8 2L9 2L9 1ZM11 3L11 4L10 4L10 6L9 6L9 7L10 7L10 6L11 6L11 8L10 8L10 9L9 9L9 12L11 12L11 11L10 11L10 9L12 9L12 6L13 6L13 8L15 8L15 7L16 7L16 6L15 6L15 5L16 5L16 4L15 4L15 3L14 3L14 4L12 4L12 3ZM11 4L11 5L12 5L12 4ZM14 6L14 7L15 7L15 6ZM17 8L17 9L16 9L16 10L15 10L15 11L16 11L16 10L17 10L17 9L18 9L18 8ZM6 9L6 10L5 10L5 11L6 11L6 12L7 12L7 13L5 13L5 14L7 14L7 13L8 13L8 10L7 10L7 9ZM2 10L2 12L1 12L1 13L4 13L4 10ZM6 10L6 11L7 11L7 10ZM13 10L13 11L14 11L14 10ZM19 10L19 11L20 11L20 10ZM23 10L23 11L22 11L22 12L24 12L24 10ZM19 12L19 13L17 13L17 14L16 14L16 13L14 13L14 14L13 14L13 16L15 16L15 14L16 14L16 16L17 16L17 14L18 14L18 15L19 15L19 16L20 16L20 14L21 14L21 12ZM19 13L19 14L20 14L20 13ZM22 13L22 16L21 16L21 17L22 17L22 16L23 16L23 14L24 14L24 13ZM17 17L17 20L20 20L20 17ZM18 18L18 19L19 19L19 18ZM21 18L21 19L22 19L22 20L21 20L21 21L22 21L22 22L23 22L23 23L22 23L22 24L24 24L24 22L23 22L23 21L22 21L22 20L23 20L23 19L22 19L22 18ZM8 20L8 25L11 25L11 24L9 24L9 21L10 21L10 20ZM14 22L14 23L13 23L13 24L16 24L16 23L15 23L15 22ZM0 0L0 7L7 7L7 0ZM1 1L1 6L6 6L6 1ZM2 2L2 5L5 5L5 2ZM18 0L18 7L25 7L25 0ZM19 1L19 6L24 6L24 1ZM20 2L20 5L23 5L23 2ZM0 18L0 25L7 25L7 18ZM1 19L1 24L6 24L6 19ZM2 20L2 23L5 23L5 20Z" fill="#000000"/></g></g></svg>
