<?xml version="1.0" encoding="UTF-8"?>
<svg xmlns="http://www.w3.org/2000/svg" version="1.1" width="300" height="300" viewBox="0 0 300 300"><rect x="0" y="0" width="300" height="300" fill="#ffffff"/><g transform="scale(10.345)"><g transform="translate(0,0)"><path fill-rule="evenodd" d="M8 0L8 1L9 1L9 2L8 2L8 5L9 5L9 4L11 4L11 5L10 5L10 10L9 10L9 8L8 8L8 9L7 9L7 8L6 8L6 9L4 9L4 8L0 8L0 9L1 9L1 10L4 10L4 11L5 11L5 10L6 10L6 11L7 11L7 12L5 12L5 13L3 13L3 12L0 12L0 13L1 13L1 14L0 14L0 17L1 17L1 18L0 18L0 19L1 19L1 18L2 18L2 19L4 19L4 18L5 18L5 20L6 20L6 21L8 21L8 22L9 22L9 25L8 25L8 29L9 29L9 27L11 27L11 26L12 26L12 28L10 28L10 29L12 29L12 28L14 28L14 27L15 27L15 26L14 26L14 25L13 25L13 26L12 26L12 24L15 24L15 25L16 25L16 26L18 26L18 25L16 25L16 24L17 24L17 21L15 21L15 20L16 20L16 18L15 18L15 17L16 17L16 16L17 16L17 18L18 18L18 19L17 19L17 20L18 20L18 21L19 21L19 20L18 20L18 19L19 19L19 18L20 18L20 25L19 25L19 27L21 27L21 28L17 28L17 29L22 29L22 27L24 27L24 25L26 25L26 26L25 26L25 27L26 27L26 26L27 26L27 25L28 25L28 27L27 27L27 28L26 28L26 29L28 29L28 27L29 27L29 25L28 25L28 24L26 24L26 22L25 22L25 19L26 19L26 21L27 21L27 23L28 23L28 21L27 21L27 20L28 20L28 19L27 19L27 18L26 18L26 16L25 16L25 15L24 15L24 14L23 14L23 13L22 13L22 12L25 12L25 13L26 13L26 15L27 15L27 17L28 17L28 18L29 18L29 17L28 17L28 15L29 15L29 12L26 12L26 11L27 11L27 10L29 10L29 8L28 8L28 9L27 9L27 8L24 8L24 9L22 9L22 8L21 8L21 5L19 5L19 4L20 4L20 2L21 2L21 1L20 1L20 0L18 0L18 1L16 1L16 0L12 0L12 1L11 1L11 0L10 0L10 1L9 1L9 0ZM14 1L14 2L11 2L11 4L12 4L12 3L13 3L13 5L12 5L12 6L11 6L11 8L12 8L12 6L13 6L13 8L14 8L14 9L15 9L15 7L16 7L16 6L15 6L15 5L16 5L16 4L19 4L19 2L20 2L20 1L18 1L18 2L17 2L17 3L16 3L16 1ZM14 3L14 5L13 5L13 6L14 6L14 7L15 7L15 6L14 6L14 5L15 5L15 4L16 4L16 3ZM8 6L8 7L9 7L9 6ZM17 6L17 7L18 7L18 8L17 8L17 9L16 9L16 10L14 10L14 11L11 11L11 13L9 13L9 11L8 11L8 10L7 10L7 9L6 9L6 10L7 10L7 11L8 11L8 13L9 13L9 15L8 15L8 14L7 14L7 13L6 13L6 14L4 14L4 15L5 15L5 16L3 16L3 13L2 13L2 15L1 15L1 16L3 16L3 18L4 18L4 17L5 17L5 18L8 18L8 17L9 17L9 19L6 19L6 20L8 20L8 21L9 21L9 22L10 22L10 23L14 23L14 22L15 22L15 24L16 24L16 22L15 22L15 21L13 21L13 18L14 18L14 15L17 15L17 16L20 16L20 15L23 15L23 16L21 16L21 18L22 18L22 19L21 19L21 20L24 20L24 19L25 19L25 17L24 17L24 18L23 18L23 16L24 16L24 15L23 15L23 14L21 14L21 12L18 12L18 11L21 11L21 10L20 10L20 9L19 9L19 10L18 10L18 11L17 11L17 12L16 12L16 10L17 10L17 9L18 9L18 8L19 8L19 7L20 7L20 6L19 6L19 7L18 7L18 6ZM11 9L11 10L12 10L12 9ZM25 9L25 10L22 10L22 11L26 11L26 10L27 10L27 9ZM12 12L12 13L11 13L11 16L12 16L12 17L13 17L13 16L12 16L12 14L13 14L13 15L14 15L14 14L15 14L15 13L16 13L16 14L17 14L17 15L18 15L18 14L19 14L19 15L20 15L20 14L19 14L19 13L16 13L16 12L14 12L14 14L13 14L13 12ZM6 14L6 15L7 15L7 14ZM27 14L27 15L28 15L28 14ZM6 16L6 17L7 17L7 16ZM9 16L9 17L10 17L10 18L11 18L11 17L10 17L10 16ZM18 17L18 18L19 18L19 17ZM9 19L9 20L10 20L10 22L11 22L11 20L12 20L12 19ZM1 20L1 21L2 21L2 20ZM3 20L3 21L4 21L4 20ZM21 21L21 24L24 24L24 21ZM18 22L18 24L19 24L19 22ZM22 22L22 23L23 23L23 22ZM10 24L10 25L9 25L9 26L10 26L10 25L11 25L11 24ZM20 25L20 26L21 26L21 27L22 27L22 26L23 26L23 25L22 25L22 26L21 26L21 25ZM13 26L13 27L14 27L14 26ZM15 28L15 29L16 29L16 28ZM23 28L23 29L25 29L25 28ZM0 0L0 7L7 7L7 0ZM1 1L1 6L6 6L6 1ZM2 2L2 5L5 5L5 2ZM22 0L22 7L29 7L29 0ZM23 1L23 6L28 6L28 1ZM24 2L24 5L27 5L27 2ZM0 22L0 29L7 29L7 22ZM1 23L1 28L6 28L6 23ZM2 24L2 27L5 27L5 24Z" fill="#000000"/></g></g></svg>
