<?xml version="1.0" encoding="UTF-8"?>
<svg xmlns="http://www.w3.org/2000/svg" version="1.1" width="300" height="300" viewBox="0 0 300 300"><rect x="0" y="0" width="300" height="300" fill="#ffffff"/><g transform="scale(12)"><g transform="translate(0,0)"><path fill-rule="evenodd" d="M10 0L10 1L8 1L8 3L9 3L9 4L8 4L8 8L6 8L6 9L7 9L7 10L6 10L6 11L5 11L5 9L4 9L4 8L3 8L3 9L2 9L2 8L0 8L0 9L2 9L2 10L3 10L3 9L4 9L4 11L2 11L2 12L1 12L1 13L2 13L2 12L4 12L4 14L3 14L3 15L1 15L1 14L0 14L0 15L1 15L1 16L0 16L0 17L2 17L2 16L3 16L3 17L5 17L5 16L6 16L6 17L7 17L7 16L8 16L8 15L9 15L9 16L10 16L10 15L11 15L11 16L12 16L12 18L11 18L11 17L8 17L8 19L9 19L9 21L8 21L8 22L10 22L10 23L8 23L8 25L11 25L11 22L12 22L12 21L11 21L11 19L12 19L12 20L13 20L13 17L14 17L14 19L15 19L15 20L16 20L16 21L20 21L20 22L19 22L19 23L16 23L16 22L15 22L15 23L14 23L14 24L15 24L15 25L19 25L19 24L21 24L21 25L22 25L22 22L21 22L21 21L22 21L22 20L24 20L24 21L25 21L25 18L23 18L23 19L22 19L22 17L23 17L23 16L22 16L22 15L23 15L23 14L24 14L24 15L25 15L25 14L24 14L24 13L25 13L25 12L23 12L23 13L21 13L21 12L22 12L22 11L23 11L23 9L24 9L24 11L25 11L25 9L24 9L24 8L22 8L22 9L21 9L21 8L18 8L18 9L17 9L17 8L16 8L16 7L17 7L17 4L16 4L16 3L17 3L17 2L16 2L16 1L15 1L15 0L13 0L13 2L16 2L16 3L12 3L12 7L11 7L11 4L10 4L10 3L9 3L9 2L11 2L11 0ZM14 4L14 5L13 5L13 7L12 7L12 8L13 8L13 9L14 9L14 12L12 12L12 16L13 16L13 14L14 14L14 15L15 15L15 16L14 16L14 17L15 17L15 18L16 18L16 17L15 17L15 16L19 16L19 15L22 15L22 14L21 14L21 13L20 13L20 12L21 12L21 11L22 11L22 10L21 10L21 9L18 9L18 11L17 11L17 10L15 10L15 9L14 9L14 8L15 8L15 7L16 7L16 6L15 6L15 5L16 5L16 4ZM9 5L9 8L8 8L8 9L10 9L10 10L9 10L9 11L11 11L11 8L10 8L10 5ZM14 6L14 7L15 7L15 6ZM7 10L7 11L6 11L6 12L5 12L5 13L6 13L6 14L4 14L4 16L5 16L5 15L6 15L6 16L7 16L7 15L8 15L8 14L11 14L11 13L10 13L10 12L9 12L9 13L6 13L6 12L8 12L8 10ZM19 10L19 11L18 11L18 12L16 12L16 11L15 11L15 12L16 12L16 15L19 15L19 12L20 12L20 10ZM14 13L14 14L15 14L15 13ZM6 14L6 15L7 15L7 14ZM17 17L17 20L20 20L20 17ZM9 18L9 19L11 19L11 18ZM18 18L18 19L19 19L19 18ZM24 22L24 23L25 23L25 22ZM12 24L12 25L13 25L13 24ZM23 24L23 25L25 25L25 24ZM0 0L0 7L7 7L7 0ZM1 1L1 6L6 6L6 1ZM2 2L2 5L5 5L5 2ZM18 0L18 7L25 7L25 0ZM19 1L19 6L24 6L24 1ZM20 2L20 5L23 5L23 2ZM0 18L0 25L7 25L7 18ZM1 19L1 24L6 24L6 19ZM2 20L2 23L5 23L5 20Z" fill="#000000"/></g></g></svg>
