<?xml version="1.0" encoding="UTF-8"?>
<svg xmlns="http://www.w3.org/2000/svg" version="1.1" width="300" height="300" viewBox="0 0 300 300"><rect x="0" y="0" width="300" height="300" fill="#ffffff"/><g transform="scale(12)"><g transform="translate(0,0)"><path fill-rule="evenodd" d="M8 0L8 2L10 2L10 4L8 4L8 9L9 9L9 10L6 10L6 9L7 9L7 8L5 8L5 10L4 10L4 9L3 9L3 8L0 8L0 10L1 10L1 11L0 11L0 13L1 13L1 14L0 14L0 15L2 15L2 16L0 16L0 17L2 17L2 16L4 16L4 17L8 17L8 18L10 18L10 19L8 19L8 20L10 20L10 21L9 21L9 22L8 22L8 25L11 25L11 24L13 24L13 25L15 25L15 22L16 22L16 25L17 25L17 24L18 24L18 25L19 25L19 24L20 24L20 25L21 25L21 24L20 24L20 23L22 23L22 22L21 22L21 16L20 16L20 15L23 15L23 17L24 17L24 15L25 15L25 14L24 14L24 15L23 15L23 14L19 14L19 13L22 13L22 12L21 12L21 11L22 11L22 10L23 10L23 11L25 11L25 8L23 8L23 9L22 9L22 10L21 10L21 11L20 11L20 9L21 9L21 8L16 8L16 7L17 7L17 5L16 5L16 4L17 4L17 3L16 3L16 2L17 2L17 1L16 1L16 0L15 0L15 1L16 1L16 2L15 2L15 3L14 3L14 0L11 0L11 1L9 1L9 0ZM11 1L11 2L12 2L12 1ZM11 3L11 4L12 4L12 6L11 6L11 5L9 5L9 8L10 8L10 6L11 6L11 7L12 7L12 6L13 6L13 8L11 8L11 10L9 10L9 11L10 11L10 18L12 18L12 19L11 19L11 20L13 20L13 19L14 19L14 21L13 21L13 22L15 22L15 20L16 20L16 18L13 18L13 16L14 16L14 15L13 15L13 16L11 16L11 15L12 15L12 13L11 13L11 12L13 12L13 11L14 11L14 13L13 13L13 14L15 14L15 12L17 12L17 13L16 13L16 14L18 14L18 11L19 11L19 12L20 12L20 11L19 11L19 9L17 9L17 11L15 11L15 10L16 10L16 8L15 8L15 7L16 7L16 5L14 5L14 3ZM15 3L15 4L16 4L16 3ZM14 6L14 7L15 7L15 6ZM13 8L13 10L14 10L14 9L15 9L15 8ZM2 9L2 12L3 12L3 14L4 14L4 16L8 16L8 17L9 17L9 16L8 16L8 14L7 14L7 13L4 13L4 12L5 12L5 11L4 11L4 10L3 10L3 9ZM11 10L11 11L12 11L12 10ZM3 11L3 12L4 12L4 11ZM6 11L6 12L7 12L7 11ZM8 12L8 13L9 13L9 12ZM24 12L24 13L25 13L25 12ZM5 14L5 15L7 15L7 14ZM16 15L16 16L15 16L15 17L16 17L16 16L17 16L17 15ZM18 15L18 16L19 16L19 15ZM17 17L17 20L20 20L20 17ZM18 18L18 19L19 19L19 18ZM24 18L24 19L23 19L23 23L25 23L25 22L24 22L24 21L25 21L25 18ZM10 21L10 22L9 22L9 24L11 24L11 23L12 23L12 21ZM16 21L16 22L17 22L17 21ZM18 21L18 23L19 23L19 21ZM10 22L10 23L11 23L11 22ZM13 23L13 24L14 24L14 23ZM24 24L24 25L25 25L25 24ZM0 0L0 7L7 7L7 0ZM1 1L1 6L6 6L6 1ZM2 2L2 5L5 5L5 2ZM18 0L18 7L25 7L25 0ZM19 1L19 6L24 6L24 1ZM20 2L20 5L23 5L23 2ZM0 18L0 25L7 25L7 18ZM1 19L1 24L6 24L6 19ZM2 20L2 23L5 23L5 20Z" fill="#000000"/></g></g></svg>
