<?xml version="1.0" encoding="UTF-8"?>
<svg xmlns="http://www.w3.org/2000/svg" version="1.1" width="300" height="300" viewBox="0 0 300 300"><rect x="0" y="0" width="300" height="300" fill="#ffffff"/><g transform="scale(12)"><g transform="translate(0,0)"><path fill-rule="evenodd" d="M8 0L8 1L11 1L11 3L10 3L10 2L9 2L9 3L10 3L10 5L9 5L9 6L8 6L8 8L9 8L9 9L8 9L8 10L9 10L9 11L10 11L10 10L11 10L11 12L8 12L8 11L7 11L7 10L6 10L6 11L5 11L5 10L4 10L4 9L5 9L5 8L3 8L3 9L2 9L2 8L0 8L0 9L1 9L1 10L0 10L0 11L2 11L2 12L3 12L3 11L4 11L4 12L5 12L5 13L3 13L3 14L5 14L5 15L2 15L2 14L1 14L1 13L0 13L0 17L1 17L1 15L2 15L2 16L6 16L6 17L8 17L8 18L9 18L9 19L10 19L10 18L11 18L11 21L10 21L10 20L8 20L8 22L10 22L10 23L8 23L8 25L11 25L11 23L12 23L12 25L13 25L13 23L12 23L12 21L13 21L13 20L15 20L15 21L14 21L14 23L15 23L15 25L17 25L17 24L16 24L16 23L18 23L18 25L21 25L21 23L22 23L22 24L24 24L24 25L25 25L25 21L24 21L24 20L25 20L25 17L24 17L24 16L25 16L25 10L24 10L24 9L25 9L25 8L24 8L24 9L23 9L23 10L21 10L21 9L19 9L19 8L18 8L18 9L19 9L19 10L17 10L17 11L18 11L18 13L20 13L20 14L19 14L19 15L18 15L18 14L17 14L17 12L15 12L15 11L16 11L16 8L17 8L17 6L16 6L16 8L14 8L14 7L15 7L15 6L14 6L14 7L13 7L13 6L12 6L12 5L14 5L14 2L15 2L15 0L14 0L14 1L12 1L12 0ZM16 1L16 3L17 3L17 1ZM12 2L12 3L13 3L13 2ZM16 4L16 5L17 5L17 4ZM10 5L10 6L9 6L9 7L10 7L10 9L9 9L9 10L10 10L10 9L12 9L12 10L13 10L13 13L12 13L12 12L11 12L11 13L12 13L12 14L8 14L8 13L6 13L6 14L8 14L8 15L6 15L6 16L8 16L8 17L9 17L9 18L10 18L10 17L11 17L11 18L12 18L12 20L13 20L13 18L14 18L14 19L15 19L15 20L16 20L16 17L15 17L15 16L16 16L16 15L15 15L15 16L14 16L14 13L15 13L15 12L14 12L14 8L13 8L13 7L12 7L12 6L11 6L11 5ZM10 6L10 7L11 7L11 6ZM6 8L6 9L7 9L7 8ZM12 8L12 9L13 9L13 8ZM2 10L2 11L3 11L3 10ZM19 10L19 11L21 11L21 12L22 12L22 13L21 13L21 14L24 14L24 12L22 12L22 11L21 11L21 10ZM6 11L6 12L7 12L7 11ZM12 14L12 15L13 15L13 14ZM8 15L8 16L9 16L9 17L10 17L10 15ZM19 15L19 16L21 16L21 22L22 22L22 23L23 23L23 22L22 22L22 21L23 21L23 20L24 20L24 18L22 18L22 15ZM12 16L12 17L14 17L14 18L15 18L15 17L14 17L14 16ZM17 17L17 20L20 20L20 17ZM18 18L18 19L19 19L19 18ZM15 21L15 22L17 22L17 21ZM19 21L19 22L18 22L18 23L19 23L19 24L20 24L20 21ZM0 0L0 7L7 7L7 0ZM1 1L1 6L6 6L6 1ZM2 2L2 5L5 5L5 2ZM18 0L18 7L25 7L25 0ZM19 1L19 6L24 6L24 1ZM20 2L20 5L23 5L23 2ZM0 18L0 25L7 25L7 18ZM1 19L1 24L6 24L6 19ZM2 20L2 23L5 23L5 20Z" fill="#000000"/></g></g></svg>
