<?xml version="1.0" encoding="UTF-8"?>
<svg xmlns="http://www.w3.org/2000/svg" version="1.1" width="300" height="300" viewBox="0 0 300 300"><rect x="0" y="0" width="300" height="300" fill="#ffffff"/><g transform="scale(10.345)"><g transform="translate(0,0)"><path fill-rule="evenodd" d="M8 0L8 2L9 2L9 3L10 3L10 2L9 2L9 1L11 1L11 2L12 2L12 0ZM14 0L14 2L13 2L13 3L11 3L11 5L9 5L9 4L8 4L8 9L7 9L7 8L5 8L5 9L3 9L3 8L0 8L0 11L1 11L1 9L2 9L2 10L5 10L5 9L7 9L7 10L6 10L6 11L5 11L5 12L3 12L3 11L2 11L2 14L1 14L1 13L0 13L0 16L2 16L2 18L0 18L0 19L5 19L5 20L6 20L6 21L7 21L7 20L6 20L6 19L7 19L7 18L8 18L8 16L9 16L9 17L10 17L10 20L13 20L13 22L15 22L15 23L16 23L16 22L17 22L17 23L19 23L19 26L20 26L20 27L18 27L18 28L17 28L17 27L16 27L16 26L17 26L17 25L18 25L18 24L15 24L15 25L16 25L16 26L13 26L13 25L14 25L14 23L13 23L13 24L10 24L10 23L12 23L12 22L11 22L11 21L10 21L10 23L8 23L8 24L9 24L9 26L8 26L8 29L10 29L10 28L9 28L9 27L10 27L10 25L12 25L12 27L11 27L11 28L13 28L13 29L15 29L15 27L16 27L16 29L18 29L18 28L20 28L20 29L22 29L22 28L20 28L20 27L21 27L21 26L22 26L22 27L23 27L23 26L22 26L22 25L24 25L24 28L25 28L25 29L27 29L27 28L26 28L26 26L27 26L27 27L29 27L29 24L28 24L28 23L29 23L29 22L28 22L28 23L27 23L27 22L26 22L26 21L25 21L25 20L22 20L22 19L21 19L21 16L19 16L19 15L20 15L20 14L21 14L21 15L23 15L23 16L22 16L22 17L23 17L23 18L24 18L24 19L27 19L27 21L28 21L28 19L29 19L29 18L28 18L28 19L27 19L27 18L24 18L24 16L25 16L25 14L24 14L24 11L28 11L28 12L27 12L27 15L29 15L29 13L28 13L28 12L29 12L29 8L27 8L27 9L28 9L28 10L24 10L24 11L22 11L22 10L23 10L23 9L25 9L25 8L20 8L20 10L19 10L19 9L18 9L18 8L19 8L19 6L18 6L18 8L16 8L16 7L17 7L17 5L19 5L19 3L21 3L21 2L17 2L17 1L18 1L18 0L17 0L17 1L16 1L16 0ZM19 0L19 1L20 1L20 0ZM15 1L15 2L14 2L14 3L13 3L13 5L14 5L14 4L15 4L15 3L16 3L16 5L15 5L15 7L14 7L14 6L13 6L13 7L12 7L12 5L11 5L11 7L10 7L10 6L9 6L9 7L10 7L10 9L8 9L8 11L9 11L9 12L8 12L8 13L5 13L5 15L2 15L2 16L5 16L5 17L6 17L6 18L7 18L7 17L6 17L6 16L8 16L8 13L9 13L9 14L10 14L10 15L11 15L11 16L13 16L13 15L14 15L14 17L13 17L13 18L16 18L16 19L15 19L15 22L16 22L16 20L18 20L18 21L17 21L17 22L20 22L20 20L19 20L19 18L20 18L20 17L19 17L19 16L18 16L18 15L17 15L17 16L18 16L18 19L17 19L17 18L16 18L16 15L15 15L15 14L13 14L13 12L14 12L14 11L13 11L13 12L11 12L11 14L10 14L10 13L9 13L9 12L10 12L10 11L9 11L9 10L11 10L11 11L12 11L12 9L11 9L11 8L13 8L13 7L14 7L14 9L13 9L13 10L16 10L16 9L15 9L15 7L16 7L16 5L17 5L17 4L18 4L18 3L17 3L17 2L16 2L16 1ZM20 4L20 7L21 7L21 4ZM17 9L17 10L18 10L18 11L17 11L17 12L18 12L18 14L20 14L20 11L19 11L19 10L18 10L18 9ZM6 11L6 12L7 12L7 11ZM21 11L21 12L22 12L22 11ZM15 12L15 13L16 13L16 14L17 14L17 13L16 13L16 12ZM3 13L3 14L4 14L4 13ZM21 13L21 14L22 14L22 13ZM6 14L6 15L7 15L7 14ZM11 14L11 15L12 15L12 14ZM23 14L23 15L24 15L24 14ZM28 16L28 17L29 17L29 16ZM11 17L11 19L12 19L12 17ZM13 19L13 20L14 20L14 19ZM0 20L0 21L2 21L2 20ZM3 20L3 21L4 21L4 20ZM8 20L8 22L9 22L9 20ZM21 21L21 24L24 24L24 21ZM22 22L22 23L23 23L23 22ZM25 22L25 24L27 24L27 26L28 26L28 24L27 24L27 23L26 23L26 22ZM20 25L20 26L21 26L21 25ZM25 25L25 26L26 26L26 25ZM13 27L13 28L14 28L14 27ZM28 28L28 29L29 29L29 28ZM0 0L0 7L7 7L7 0ZM1 1L1 6L6 6L6 1ZM2 2L2 5L5 5L5 2ZM22 0L22 7L29 7L29 0ZM23 1L23 6L28 6L28 1ZM24 2L24 5L27 5L27 2ZM0 22L0 29L7 29L7 22ZM1 23L1 28L6 28L6 23ZM2 24L2 27L5 27L5 24Z" fill="#000000"/></g></g></svg>
