<?xml version="1.0" encoding="UTF-8"?>
<svg xmlns="http://www.w3.org/2000/svg" version="1.1" width="300" height="300" viewBox="0 0 300 300"><rect x="0" y="0" width="300" height="300" fill="#ffffff"/><g transform="scale(10.345)"><g transform="translate(0,0)"><path fill-rule="evenodd" d="M8 0L8 1L10 1L10 0ZM15 0L15 1L14 1L14 2L11 2L11 4L10 4L10 3L9 3L9 2L8 2L8 5L9 5L9 6L8 6L8 7L9 7L9 8L8 8L8 9L7 9L7 8L6 8L6 9L7 9L7 10L6 10L6 11L4 11L4 10L5 10L5 9L4 9L4 8L0 8L0 10L1 10L1 11L2 11L2 12L0 12L0 13L1 13L1 14L3 14L3 16L2 16L2 15L0 15L0 17L1 17L1 16L2 16L2 19L3 19L3 20L1 20L1 21L4 21L4 19L5 19L5 21L8 21L8 22L9 22L9 21L10 21L10 22L11 22L11 23L14 23L14 22L16 22L16 24L14 24L14 26L13 26L13 24L12 24L12 25L11 25L11 24L10 24L10 23L9 23L9 25L8 25L8 29L10 29L10 28L12 28L12 29L13 29L13 28L12 28L12 26L13 26L13 27L14 27L14 29L16 29L16 27L17 27L17 26L18 26L18 28L17 28L17 29L21 29L21 28L22 28L22 29L25 29L25 28L23 28L23 27L24 27L24 25L25 25L25 27L26 27L26 26L27 26L27 25L28 25L28 27L27 27L27 28L26 28L26 29L28 29L28 27L29 27L29 25L28 25L28 24L29 24L29 23L28 23L28 21L27 21L27 20L28 20L28 19L27 19L27 18L26 18L26 16L25 16L25 15L26 15L26 14L28 14L28 15L27 15L27 17L28 17L28 18L29 18L29 17L28 17L28 15L29 15L29 12L26 12L26 11L27 11L27 10L29 10L29 8L28 8L28 9L27 9L27 8L24 8L24 9L22 9L22 8L21 8L21 9L20 9L20 8L18 8L18 7L19 7L19 6L20 6L20 7L21 7L21 6L20 6L20 5L19 5L19 6L18 6L18 7L17 7L17 6L16 6L16 7L17 7L17 8L16 8L16 9L15 9L15 5L14 5L14 4L13 4L13 5L12 5L12 3L16 3L16 4L17 4L17 5L18 5L18 4L19 4L19 2L18 2L18 1L19 1L19 0L18 0L18 1L17 1L17 0ZM20 0L20 2L21 2L21 0ZM16 1L16 3L18 3L18 2L17 2L17 1ZM20 3L20 4L21 4L21 3ZM10 5L10 6L9 6L9 7L10 7L10 8L9 8L9 9L10 9L10 10L9 10L9 11L8 11L8 10L7 10L7 11L6 11L6 12L7 12L7 13L6 13L6 14L7 14L7 15L4 15L4 17L5 17L5 19L6 19L6 20L8 20L8 18L9 18L9 17L8 17L8 16L7 16L7 15L9 15L9 16L12 16L12 17L11 17L11 18L12 18L12 17L14 17L14 18L13 18L13 20L14 20L14 21L17 21L17 22L19 22L19 24L18 24L18 23L17 23L17 24L16 24L16 25L15 25L15 26L14 26L14 27L16 27L16 25L18 25L18 26L19 26L19 25L20 25L20 22L19 22L19 21L18 21L18 20L17 20L17 19L18 19L18 18L19 18L19 20L24 20L24 19L25 19L25 22L26 22L26 24L27 24L27 21L26 21L26 18L25 18L25 17L24 17L24 18L23 18L23 16L24 16L24 15L25 15L25 12L22 12L22 13L23 13L23 14L21 14L21 12L20 12L20 9L19 9L19 10L18 10L18 8L17 8L17 10L16 10L16 12L12 12L12 14L11 14L11 15L9 15L9 12L10 12L10 13L11 13L11 11L14 11L14 10L15 10L15 9L13 9L13 7L14 7L14 5L13 5L13 7L12 7L12 5ZM10 6L10 7L11 7L11 8L12 8L12 7L11 7L11 6ZM2 9L2 11L3 11L3 12L4 12L4 13L3 13L3 14L4 14L4 13L5 13L5 12L4 12L4 11L3 11L3 10L4 10L4 9ZM25 9L25 10L22 10L22 11L26 11L26 10L27 10L27 9ZM7 11L7 12L8 12L8 11ZM18 11L18 12L19 12L19 13L20 13L20 12L19 12L19 11ZM7 13L7 14L8 14L8 13ZM13 13L13 14L12 14L12 16L14 16L14 15L15 15L15 17L16 17L16 15L15 15L15 14L14 14L14 13ZM13 14L13 15L14 15L14 14ZM19 14L19 15L18 15L18 16L17 16L17 17L19 17L19 18L21 18L21 19L22 19L22 18L21 18L21 16L23 16L23 15L24 15L24 14L23 14L23 15L21 15L21 14ZM19 15L19 17L20 17L20 15ZM5 16L5 17L7 17L7 16ZM0 18L0 19L1 19L1 18ZM3 18L3 19L4 19L4 18ZM6 18L6 19L7 19L7 18ZM15 18L15 20L16 20L16 18ZM9 19L9 20L10 20L10 19ZM11 19L11 20L12 20L12 19ZM11 21L11 22L12 22L12 21ZM21 21L21 24L24 24L24 21ZM22 22L22 23L23 23L23 22ZM22 25L22 26L21 26L21 27L19 27L19 28L21 28L21 27L22 27L22 26L23 26L23 25ZM9 26L9 28L10 28L10 26ZM0 0L0 7L7 7L7 0ZM1 1L1 6L6 6L6 1ZM2 2L2 5L5 5L5 2ZM22 0L22 7L29 7L29 0ZM23 1L23 6L28 6L28 1ZM24 2L24 5L27 5L27 2ZM0 22L0 29L7 29L7 22ZM1 23L1 28L6 28L6 23ZM2 24L2 27L5 27L5 24Z" fill="#000000"/></g></g></svg>
