<?xml version="1.0" encoding="UTF-8"?>
<svg xmlns="http://www.w3.org/2000/svg" version="1.1" width="300" height="300" viewBox="0 0 300 300"><rect x="0" y="0" width="300" height="300" fill="#ffffff"/><g transform="scale(12)"><g transform="translate(0,0)"><path fill-rule="evenodd" d="M10 0L10 1L8 1L8 3L9 3L9 4L8 4L8 8L6 8L6 9L5 9L5 10L3 10L3 9L4 9L4 8L3 8L3 9L2 9L2 8L0 8L0 11L2 11L2 10L3 10L3 11L4 11L4 12L6 12L6 13L7 13L7 12L6 12L6 11L7 11L7 10L8 10L8 11L9 11L9 12L8 12L8 13L9 13L9 15L8 15L8 14L6 14L6 15L5 15L5 14L4 14L4 15L3 15L3 14L2 14L2 15L1 15L1 14L0 14L0 15L1 15L1 16L0 16L0 17L3 17L3 16L4 16L4 15L5 15L5 17L7 17L7 16L8 16L8 19L9 19L9 21L8 21L8 22L9 22L9 23L8 23L8 25L10 25L10 24L11 24L11 22L12 22L12 23L13 23L13 24L12 24L12 25L19 25L19 24L20 24L20 25L22 25L22 23L23 23L23 22L22 22L22 20L25 20L25 18L22 18L22 19L21 19L21 17L23 17L23 16L22 16L22 15L23 15L23 14L24 14L24 15L25 15L25 14L24 14L24 13L25 13L25 12L23 12L23 13L21 13L21 12L22 12L22 11L23 11L23 9L24 9L24 11L25 11L25 9L24 9L24 8L22 8L22 9L21 9L21 8L18 8L18 9L15 9L15 6L16 6L16 8L17 8L17 4L16 4L16 5L15 5L15 3L13 3L13 6L12 6L12 7L13 7L13 6L14 6L14 9L12 9L12 8L11 8L11 5L10 5L10 3L9 3L9 2L11 2L11 3L12 3L12 2L14 2L14 1L11 1L11 0ZM15 1L15 2L16 2L16 3L17 3L17 1ZM9 5L9 8L8 8L8 10L9 10L9 11L11 11L11 13L10 13L10 12L9 12L9 13L10 13L10 15L9 15L9 17L10 17L10 15L11 15L11 13L12 13L12 12L13 12L13 13L14 13L14 14L13 14L13 15L12 15L12 16L13 16L13 15L14 15L14 14L15 14L15 16L14 16L14 17L15 17L15 18L16 18L16 17L15 17L15 16L19 16L19 15L16 15L16 12L18 12L18 11L19 11L19 10L20 10L20 12L19 12L19 14L20 14L20 16L21 16L21 15L22 15L22 14L21 14L21 13L20 13L20 12L21 12L21 11L22 11L22 10L21 10L21 9L18 9L18 11L17 11L17 10L15 10L15 9L14 9L14 12L13 12L13 10L11 10L11 8L10 8L10 5ZM14 5L14 6L15 6L15 5ZM6 9L6 10L7 10L7 9ZM9 9L9 10L10 10L10 9ZM15 11L15 12L16 12L16 11ZM0 12L0 13L1 13L1 12ZM6 15L6 16L7 16L7 15ZM11 17L11 20L12 20L12 21L13 21L13 23L15 23L15 22L16 22L16 23L19 23L19 22L20 22L20 21L16 21L16 20L15 20L15 21L14 21L14 18L12 18L12 17ZM17 17L17 20L20 20L20 17ZM18 18L18 19L19 19L19 18ZM9 21L9 22L11 22L11 21ZM21 22L21 23L20 23L20 24L21 24L21 23L22 23L22 22ZM24 22L24 23L25 23L25 22ZM9 23L9 24L10 24L10 23ZM23 24L23 25L25 25L25 24ZM0 0L0 7L7 7L7 0ZM1 1L1 6L6 6L6 1ZM2 2L2 5L5 5L5 2ZM18 0L18 7L25 7L25 0ZM19 1L19 6L24 6L24 1ZM20 2L20 5L23 5L23 2ZM0 18L0 25L7 25L7 18ZM1 19L1 24L6 24L6 19ZM2 20L2 23L5 23L5 20Z" fill="#000000"/></g></g></svg>
