<?xml version="1.0" encoding="UTF-8"?>
<svg xmlns="http://www.w3.org/2000/svg" version="1.1" width="300" height="300" viewBox="0 0 300 300"><rect x="0" y="0" width="300" height="300" fill="#ffffff"/><g transform="scale(12)"><g transform="translate(0,0)"><path fill-rule="evenodd" d="M8 0L8 1L9 1L9 2L8 2L8 5L9 5L9 4L11 4L11 5L10 5L10 10L9 10L9 8L8 8L8 9L7 9L7 8L6 8L6 9L5 9L5 10L4 10L4 8L0 8L0 9L1 9L1 10L0 10L0 13L1 13L1 15L0 15L0 16L1 16L1 15L2 15L2 17L8 17L8 18L9 18L9 16L12 16L12 17L13 17L13 18L14 18L14 17L13 17L13 16L12 16L12 14L13 14L13 12L14 12L14 13L15 13L15 14L16 14L16 15L17 15L17 16L15 16L15 18L16 18L16 21L17 21L17 25L19 25L19 22L20 22L20 23L21 23L21 22L22 22L22 25L25 25L25 24L23 24L23 23L24 23L24 22L25 22L25 21L24 21L24 20L25 20L25 18L23 18L23 17L25 17L25 15L24 15L24 13L25 13L25 12L23 12L23 11L24 11L24 9L25 9L25 8L24 8L24 9L23 9L23 8L20 8L20 9L18 9L18 8L17 8L17 9L15 9L15 4L16 4L16 7L17 7L17 4L16 4L16 3L17 3L17 0L15 0L15 1L16 1L16 3L14 3L14 0L12 0L12 1L11 1L11 0L10 0L10 1L9 1L9 0ZM11 2L11 4L12 4L12 3L13 3L13 5L12 5L12 6L11 6L11 8L12 8L12 6L13 6L13 8L14 8L14 6L13 6L13 5L14 5L14 3L13 3L13 2ZM8 6L8 7L9 7L9 6ZM6 9L6 10L5 10L5 11L4 11L4 12L7 12L7 11L8 11L8 12L9 12L9 11L8 11L8 10L7 10L7 9ZM11 9L11 10L12 10L12 9ZM13 9L13 11L11 11L11 13L9 13L9 14L8 14L8 13L6 13L6 14L7 14L7 15L6 15L6 16L7 16L7 15L9 15L9 14L10 14L10 15L11 15L11 13L12 13L12 12L13 12L13 11L15 11L15 12L16 12L16 14L17 14L17 15L20 15L20 16L21 16L21 15L22 15L22 16L23 16L23 15L22 15L22 14L23 14L23 13L21 13L21 12L22 12L22 10L21 10L21 9L20 9L20 10L19 10L19 11L21 11L21 12L19 12L19 14L17 14L17 12L18 12L18 9L17 9L17 10L14 10L14 9ZM1 10L1 13L2 13L2 15L3 15L3 16L5 16L5 15L4 15L4 14L5 14L5 13L3 13L3 12L2 12L2 10ZM6 10L6 11L7 11L7 10ZM16 11L16 12L17 12L17 11ZM20 13L20 15L21 15L21 13ZM10 17L10 20L9 20L9 21L8 21L8 25L9 25L9 22L11 22L11 21L10 21L10 20L12 20L12 19L11 19L11 17ZM17 17L17 20L20 20L20 17ZM18 18L18 19L19 19L19 18ZM22 18L22 19L21 19L21 20L22 20L22 22L23 22L23 20L24 20L24 19L23 19L23 18ZM13 20L13 21L15 21L15 20ZM13 22L13 23L10 23L10 24L11 24L11 25L13 25L13 24L15 24L15 23L16 23L16 22L15 22L15 23L14 23L14 22ZM20 24L20 25L21 25L21 24ZM0 0L0 7L7 7L7 0ZM1 1L1 6L6 6L6 1ZM2 2L2 5L5 5L5 2ZM18 0L18 7L25 7L25 0ZM19 1L19 6L24 6L24 1ZM20 2L20 5L23 5L23 2ZM0 18L0 25L7 25L7 18ZM1 19L1 24L6 24L6 19ZM2 20L2 23L5 23L5 20Z" fill="#000000"/></g></g></svg>
