<?xml version="1.0" encoding="UTF-8"?>
<svg xmlns="http://www.w3.org/2000/svg" version="1.1" width="300" height="300" viewBox="0 0 300 300"><rect x="0" y="0" width="300" height="300" fill="#ffffff"/><g transform="scale(10.345)"><g transform="translate(0,0)"><path fill-rule="evenodd" d="M8 0L8 1L11 1L11 3L10 3L10 2L9 2L9 3L10 3L10 5L9 5L9 6L8 6L8 8L9 8L9 9L10 9L10 10L8 10L8 9L7 9L7 8L6 8L6 9L7 9L7 10L5 10L5 12L3 12L3 13L4 13L4 14L2 14L2 13L1 13L1 12L2 12L2 11L3 11L3 10L4 10L4 9L5 9L5 8L3 8L3 10L2 10L2 8L0 8L0 10L2 10L2 11L0 11L0 13L1 13L1 14L0 14L0 15L1 15L1 16L2 16L2 17L0 17L0 21L5 21L5 20L6 20L6 21L8 21L8 22L10 22L10 23L9 23L9 24L8 24L8 26L9 26L9 27L8 27L8 29L9 29L9 27L10 27L10 28L12 28L12 27L14 27L14 26L15 26L15 27L17 27L17 25L18 25L18 27L19 27L19 26L20 26L20 28L19 28L19 29L21 29L21 27L22 27L22 28L23 28L23 29L24 29L24 28L23 28L23 27L25 27L25 23L27 23L27 25L26 25L26 26L27 26L27 27L26 27L26 29L27 29L27 27L28 27L28 28L29 28L29 23L27 23L27 21L28 21L28 22L29 22L29 21L28 21L28 19L29 19L29 17L28 17L28 19L27 19L27 18L25 18L25 17L26 17L26 16L27 16L27 15L28 15L28 16L29 16L29 13L28 13L28 12L27 12L27 13L26 13L26 14L25 14L25 13L24 13L24 12L23 12L23 11L20 11L20 12L19 12L19 11L17 11L17 12L16 12L16 11L15 11L15 9L17 9L17 10L19 10L19 9L17 9L17 8L15 8L15 5L16 5L16 3L15 3L15 2L16 2L16 0L13 0L13 1L12 1L12 0ZM18 0L18 1L17 1L17 2L19 2L19 3L20 3L20 4L17 4L17 6L16 6L16 7L17 7L17 6L18 6L18 7L19 7L19 8L20 8L20 7L21 7L21 6L20 6L20 7L19 7L19 5L21 5L21 3L20 3L20 2L21 2L21 1L20 1L20 0ZM12 2L12 4L14 4L14 5L15 5L15 4L14 4L14 3L13 3L13 2ZM10 5L10 6L9 6L9 7L10 7L10 9L11 9L11 10L10 10L10 11L9 11L9 12L7 12L7 11L8 11L8 10L7 10L7 11L6 11L6 12L7 12L7 13L5 13L5 14L8 14L8 13L9 13L9 15L10 15L10 13L9 13L9 12L11 12L11 16L10 16L10 19L9 19L9 18L8 18L8 17L9 17L9 16L8 16L8 17L6 17L6 18L5 18L5 16L4 16L4 17L3 17L3 18L2 18L2 19L3 19L3 18L5 18L5 19L4 19L4 20L5 20L5 19L6 19L6 20L7 20L7 19L6 19L6 18L8 18L8 19L9 19L9 21L10 21L10 20L11 20L11 19L12 19L12 21L11 21L11 22L12 22L12 23L13 23L13 22L12 22L12 21L13 21L13 19L12 19L12 18L16 18L16 19L14 19L14 25L15 25L15 26L16 26L16 25L17 25L17 23L16 23L16 25L15 25L15 22L18 22L18 23L20 23L20 22L18 22L18 21L19 21L19 20L20 20L20 19L21 19L21 20L23 20L23 19L21 19L21 18L24 18L24 20L25 20L25 21L26 21L26 20L25 20L25 18L24 18L24 17L25 17L25 16L26 16L26 15L27 15L27 14L26 14L26 15L25 15L25 16L24 16L24 15L23 15L23 14L22 14L22 15L21 15L21 12L20 12L20 15L17 15L17 16L18 16L18 17L19 17L19 18L20 18L20 19L17 19L17 17L15 17L15 16L13 16L13 17L12 17L12 18L11 18L11 16L12 16L12 15L14 15L14 14L17 14L17 13L16 13L16 12L15 12L15 13L13 13L13 12L14 12L14 9L12 9L12 6L13 6L13 8L14 8L14 6L13 6L13 5L12 5L12 6L11 6L11 5ZM10 6L10 7L11 7L11 6ZM22 8L22 9L23 9L23 10L24 10L24 11L25 11L25 9L23 9L23 8ZM28 8L28 9L29 9L29 8ZM26 9L26 11L28 11L28 10L27 10L27 9ZM12 10L12 11L13 11L13 10ZM18 12L18 13L19 13L19 12ZM12 13L12 14L13 14L13 13ZM6 15L6 16L7 16L7 15ZM20 15L20 16L19 16L19 17L20 17L20 18L21 18L21 17L22 17L22 16L21 16L21 15ZM23 16L23 17L24 17L24 16ZM15 20L15 21L17 21L17 20ZM21 21L21 24L24 24L24 21ZM22 22L22 23L23 23L23 22ZM9 24L9 25L10 25L10 26L13 26L13 25L11 25L11 24ZM18 24L18 25L19 25L19 24ZM20 25L20 26L21 26L21 25ZM22 25L22 26L24 26L24 25ZM27 25L27 26L28 26L28 25ZM14 28L14 29L15 29L15 28ZM17 28L17 29L18 29L18 28ZM0 0L0 7L7 7L7 0ZM1 1L1 6L6 6L6 1ZM2 2L2 5L5 5L5 2ZM22 0L22 7L29 7L29 0ZM23 1L23 6L28 6L28 1ZM24 2L24 5L27 5L27 2ZM0 22L0 29L7 29L7 22ZM1 23L1 28L6 28L6 23ZM2 24L2 27L5 27L5 24Z" fill="#000000"/></g></g></svg>
