<?xml version="1.0" encoding="UTF-8"?>
<svg xmlns="http://www.w3.org/2000/svg" version="1.1" width="300" height="300" viewBox="0 0 300 300"><rect x="0" y="0" width="300" height="300" fill="#ffffff"/><g transform="scale(12)"><g transform="translate(0,0)"><path fill-rule="evenodd" d="M9 0L9 1L8 1L8 2L9 2L9 3L8 3L8 4L10 4L10 7L11 7L11 4L12 4L12 5L14 5L14 7L15 7L15 11L17 11L17 12L14 12L14 14L13 14L13 12L12 12L12 11L13 11L13 10L11 10L11 11L10 11L10 9L11 9L11 8L6 8L6 9L5 9L5 8L0 8L0 9L1 9L1 10L0 10L0 12L1 12L1 13L0 13L0 17L1 17L1 14L2 14L2 16L3 16L3 14L4 14L4 15L5 15L5 16L6 16L6 17L8 17L8 19L9 19L9 20L8 20L8 25L9 25L9 23L10 23L10 24L11 24L11 25L13 25L13 24L12 24L12 23L13 23L13 22L14 22L14 21L15 21L15 23L14 23L14 25L16 25L16 24L17 24L17 25L20 25L20 24L22 24L22 25L25 25L25 21L23 21L23 20L22 20L22 18L21 18L21 16L22 16L22 17L23 17L23 16L25 16L25 10L24 10L24 8L23 8L23 9L22 9L22 8L21 8L21 10L20 10L20 8L19 8L19 10L18 10L18 11L17 11L17 9L18 9L18 8L17 8L17 4L15 4L15 2L16 2L16 3L17 3L17 2L16 2L16 1L17 1L17 0L15 0L15 2L14 2L14 4L12 4L12 2L13 2L13 1L14 1L14 0L13 0L13 1L11 1L11 2L10 2L10 0ZM10 3L10 4L11 4L11 3ZM14 4L14 5L15 5L15 4ZM8 5L8 7L9 7L9 5ZM12 6L12 9L14 9L14 8L13 8L13 6ZM15 6L15 7L16 7L16 6ZM2 9L2 10L1 10L1 12L3 12L3 11L6 11L6 12L7 12L7 13L5 13L5 12L4 12L4 13L5 13L5 15L6 15L6 16L8 16L8 17L9 17L9 18L11 18L11 20L9 20L9 21L10 21L10 22L11 22L11 23L12 23L12 22L13 22L13 21L14 21L14 20L15 20L15 19L16 19L16 18L15 18L15 17L14 17L14 15L15 15L15 14L14 14L14 15L13 15L13 14L12 14L12 13L11 13L11 12L10 12L10 13L11 13L11 14L8 14L8 15L6 15L6 14L7 14L7 13L9 13L9 12L7 12L7 11L6 11L6 10L8 10L8 11L9 11L9 9L6 9L6 10L4 10L4 9ZM2 10L2 11L3 11L3 10ZM19 10L19 11L20 11L20 10ZM23 10L23 11L22 11L22 12L24 12L24 10ZM19 12L19 13L17 13L17 14L16 14L16 16L17 16L17 14L18 14L18 15L19 15L19 16L20 16L20 14L21 14L21 12ZM2 13L2 14L3 14L3 13ZM19 13L19 14L20 14L20 13ZM22 13L22 16L23 16L23 14L24 14L24 13ZM12 16L12 17L13 17L13 18L12 18L12 19L13 19L13 18L14 18L14 17L13 17L13 16ZM17 17L17 20L20 20L20 17ZM24 17L24 18L23 18L23 19L25 19L25 17ZM18 18L18 19L19 19L19 18ZM12 20L12 21L13 21L13 20ZM21 20L21 21L19 21L19 22L17 22L17 23L21 23L21 21L22 21L22 22L23 22L23 23L22 23L22 24L24 24L24 22L23 22L23 21L22 21L22 20ZM15 23L15 24L16 24L16 23ZM0 0L0 7L7 7L7 0ZM1 1L1 6L6 6L6 1ZM2 2L2 5L5 5L5 2ZM18 0L18 7L25 7L25 0ZM19 1L19 6L24 6L24 1ZM20 2L20 5L23 5L23 2ZM0 18L0 25L7 25L7 18ZM1 19L1 24L6 24L6 19ZM2 20L2 23L5 23L5 20Z" fill="#000000"/></g></g></svg>
