<?xml version="1.0" encoding="UTF-8"?>
<svg xmlns="http://www.w3.org/2000/svg" version="1.1" width="300" height="300" viewBox="0 0 300 300"><rect x="0" y="0" width="300" height="300" fill="#ffffff"/><g transform="scale(12)"><g transform="translate(0,0)"><path fill-rule="evenodd" d="M10 0L10 1L8 1L8 3L9 3L9 4L8 4L8 8L6 8L6 9L5 9L5 11L4 11L4 10L3 10L3 9L4 9L4 8L3 8L3 9L2 9L2 8L0 8L0 10L1 10L1 9L2 9L2 12L1 12L1 11L0 11L0 12L1 12L1 13L2 13L2 12L3 12L3 11L4 11L4 12L5 12L5 15L4 15L4 14L2 14L2 15L1 15L1 14L0 14L0 15L1 15L1 16L0 16L0 17L4 17L4 16L6 16L6 17L7 17L7 16L9 16L9 17L8 17L8 19L9 19L9 21L8 21L8 22L9 22L9 21L11 21L11 22L10 22L10 23L8 23L8 25L11 25L11 22L12 22L12 21L11 21L11 19L12 19L12 20L13 20L13 18L14 18L14 20L16 20L16 21L20 21L20 22L19 22L19 23L16 23L16 22L15 22L15 23L14 23L14 24L15 24L15 25L19 25L19 23L20 23L20 24L21 24L21 25L22 25L22 23L23 23L23 22L22 22L22 23L21 23L21 21L22 21L22 20L24 20L24 21L25 21L25 18L22 18L22 19L21 19L21 17L23 17L23 16L22 16L22 15L23 15L23 14L24 14L24 15L25 15L25 14L24 14L24 13L25 13L25 12L23 12L23 13L21 13L21 12L22 12L22 11L23 11L23 9L24 9L24 11L25 11L25 9L24 9L24 8L22 8L22 9L21 9L21 8L18 8L18 9L15 9L15 6L16 6L16 7L17 7L17 6L16 6L16 5L17 5L17 4L16 4L16 3L17 3L17 2L16 2L16 1L15 1L15 2L14 2L14 1L13 1L13 2L14 2L14 3L12 3L12 7L11 7L11 4L10 4L10 3L9 3L9 2L11 2L11 0ZM15 2L15 3L16 3L16 2ZM14 4L14 6L13 6L13 7L12 7L12 8L13 8L13 9L14 9L14 11L16 11L16 12L12 12L12 16L11 16L11 15L9 15L9 16L11 16L11 18L12 18L12 16L13 16L13 15L14 15L14 17L15 17L15 18L16 18L16 17L15 17L15 16L19 16L19 15L22 15L22 14L21 14L21 13L20 13L20 12L21 12L21 11L22 11L22 10L21 10L21 9L18 9L18 11L17 11L17 10L15 10L15 9L14 9L14 6L15 6L15 5L16 5L16 4ZM9 5L9 8L8 8L8 10L7 10L7 9L6 9L6 10L7 10L7 11L5 11L5 12L7 12L7 13L6 13L6 14L7 14L7 13L9 13L9 14L11 14L11 13L10 13L10 12L8 12L8 11L11 11L11 8L10 8L10 5ZM9 9L9 10L10 10L10 9ZM19 10L19 11L18 11L18 12L16 12L16 15L19 15L19 12L20 12L20 10ZM13 13L13 14L14 14L14 13ZM3 15L3 16L4 16L4 15ZM6 15L6 16L7 16L7 15ZM17 17L17 20L20 20L20 17ZM9 18L9 19L10 19L10 18ZM18 18L18 19L19 19L19 18ZM24 22L24 23L25 23L25 22ZM12 24L12 25L13 25L13 24ZM23 24L23 25L25 25L25 24ZM0 0L0 7L7 7L7 0ZM1 1L1 6L6 6L6 1ZM2 2L2 5L5 5L5 2ZM18 0L18 7L25 7L25 0ZM19 1L19 6L24 6L24 1ZM20 2L20 5L23 5L23 2ZM0 18L0 25L7 25L7 18ZM1 19L1 24L6 24L6 19ZM2 20L2 23L5 23L5 20Z" fill="#000000"/></g></g></svg>
