<?xml version="1.0" encoding="UTF-8"?>
<svg xmlns="http://www.w3.org/2000/svg" version="1.1" width="300" height="300" viewBox="0 0 300 300"><rect x="0" y="0" width="300" height="300" fill="#ffffff"/><g transform="scale(10.345)"><g transform="translate(0,0)"><path fill-rule="evenodd" d="M9 0L9 1L8 1L8 3L9 3L9 4L8 4L8 8L6 8L6 9L5 9L5 10L4 10L4 12L3 12L3 13L2 13L2 12L1 12L1 11L2 11L2 10L3 10L3 9L4 9L4 8L3 8L3 9L2 9L2 8L0 8L0 9L1 9L1 10L0 10L0 13L1 13L1 14L0 14L0 17L1 17L1 14L3 14L3 15L2 15L2 18L3 18L3 19L4 19L4 20L2 20L2 21L4 21L4 20L5 20L5 19L8 19L8 20L6 20L6 21L8 21L8 23L9 23L9 24L10 24L10 25L8 25L8 26L9 26L9 27L8 27L8 29L9 29L9 27L11 27L11 28L10 28L10 29L11 29L11 28L12 28L12 29L14 29L14 28L12 28L12 24L14 24L14 25L13 25L13 27L15 27L15 29L16 29L16 28L20 28L20 29L21 29L21 28L20 28L20 27L21 27L21 26L20 26L20 25L22 25L22 29L23 29L23 28L25 28L25 29L28 29L28 27L29 27L29 26L28 26L28 25L29 25L29 23L28 23L28 21L27 21L27 20L25 20L25 19L28 19L28 20L29 20L29 18L28 18L28 15L29 15L29 14L28 14L28 15L27 15L27 17L25 17L25 19L24 19L24 20L23 20L23 18L24 18L24 17L21 17L21 16L24 16L24 15L25 15L25 16L26 16L26 15L25 15L25 14L26 14L26 12L29 12L29 11L27 11L27 10L29 10L29 9L28 9L28 8L26 8L26 9L25 9L25 8L22 8L22 9L21 9L21 10L19 10L19 11L18 11L18 7L19 7L19 6L20 6L20 7L21 7L21 5L20 5L20 4L21 4L21 2L20 2L20 3L18 3L18 1L19 1L19 0L18 0L18 1L17 1L17 0L16 0L16 1L14 1L14 0L12 0L12 1L11 1L11 2L9 2L9 1L10 1L10 0ZM16 1L16 2L14 2L14 3L16 3L16 4L15 4L15 8L14 8L14 6L13 6L13 3L12 3L12 4L9 4L9 5L10 5L10 6L9 6L9 7L10 7L10 8L8 8L8 9L6 9L6 10L7 10L7 11L6 11L6 12L7 12L7 13L6 13L6 14L8 14L8 13L9 13L9 14L10 14L10 15L6 15L6 16L8 16L8 17L5 17L5 12L4 12L4 16L3 16L3 18L4 18L4 17L5 17L5 18L8 18L8 17L9 17L9 19L10 19L10 15L11 15L11 16L12 16L12 17L11 17L11 19L12 19L12 20L13 20L13 21L14 21L14 22L15 22L15 23L14 23L14 24L15 24L15 23L16 23L16 24L17 24L17 25L16 25L16 26L15 26L15 27L16 27L16 26L17 26L17 25L18 25L18 26L19 26L19 27L20 27L20 26L19 26L19 25L20 25L20 23L18 23L18 22L17 22L17 23L16 23L16 22L15 22L15 21L17 21L17 19L18 19L18 21L19 21L19 22L20 22L20 18L21 18L21 19L22 19L22 18L21 18L21 17L20 17L20 16L21 16L21 15L24 15L24 14L25 14L25 12L23 12L23 10L25 10L25 9L23 9L23 10L22 10L22 11L19 11L19 12L18 12L18 11L17 11L17 9L16 9L16 10L14 10L14 9L15 9L15 8L17 8L17 7L18 7L18 6L17 6L17 5L16 5L16 4L17 4L17 3L16 3L16 2L17 2L17 1ZM11 5L11 6L10 6L10 7L11 7L11 6L12 6L12 8L13 8L13 6L12 6L12 5ZM16 6L16 7L17 7L17 6ZM10 8L10 10L8 10L8 11L7 11L7 12L8 12L8 11L11 11L11 10L12 10L12 9L11 9L11 8ZM26 9L26 10L27 10L27 9ZM14 11L14 12L16 12L16 13L15 13L15 14L16 14L16 13L17 13L17 16L20 16L20 15L21 15L21 12L19 12L19 13L20 13L20 15L19 15L19 14L18 14L18 13L17 13L17 11ZM12 12L12 13L10 13L10 14L12 14L12 16L13 16L13 17L15 17L15 18L16 18L16 19L17 19L17 17L15 17L15 16L16 16L16 15L13 15L13 12ZM22 12L22 13L23 13L23 12ZM19 17L19 18L20 18L20 17ZM0 18L0 19L1 19L1 18ZM13 18L13 20L14 20L14 21L15 21L15 20L14 20L14 18ZM0 20L0 21L1 21L1 20ZM9 21L9 23L10 23L10 24L11 24L11 22L10 22L10 21ZM21 21L21 24L24 24L24 21ZM25 21L25 23L27 23L27 21ZM22 22L22 23L23 23L23 22ZM26 24L26 25L24 25L24 26L23 26L23 27L24 27L24 26L26 26L26 28L27 28L27 27L28 27L28 26L26 26L26 25L28 25L28 24ZM0 0L0 7L7 7L7 0ZM1 1L1 6L6 6L6 1ZM2 2L2 5L5 5L5 2ZM22 0L22 7L29 7L29 0ZM23 1L23 6L28 6L28 1ZM24 2L24 5L27 5L27 2ZM0 22L0 29L7 29L7 22ZM1 23L1 28L6 28L6 23ZM2 24L2 27L5 27L5 24Z" fill="#000000"/></g></g></svg>
