<?xml version="1.0" encoding="UTF-8"?>
<svg xmlns="http://www.w3.org/2000/svg" version="1.1" width="300" height="300" viewBox="0 0 300 300"><rect x="0" y="0" width="300" height="300" fill="#ffffff"/><g transform="scale(12)"><g transform="translate(0,0)"><path fill-rule="evenodd" d="M8 0L8 1L11 1L11 3L10 3L10 2L9 2L9 3L10 3L10 5L9 5L9 6L8 6L8 8L9 8L9 9L8 9L8 10L6 10L6 11L5 11L5 8L3 8L3 9L4 9L4 11L5 11L5 12L6 12L6 13L7 13L7 12L8 12L8 13L9 13L9 15L10 15L10 16L9 16L9 17L8 17L8 16L6 16L6 15L8 15L8 14L5 14L5 13L3 13L3 10L2 10L2 11L1 11L1 12L2 12L2 13L0 13L0 17L1 17L1 15L2 15L2 17L3 17L3 16L5 16L5 17L8 17L8 18L9 18L9 17L10 17L10 16L11 16L11 18L10 18L10 19L9 19L9 20L8 20L8 22L9 22L9 23L8 23L8 25L9 25L9 23L11 23L11 24L10 24L10 25L14 25L14 22L17 22L17 23L18 23L18 22L20 22L20 23L22 23L22 24L24 24L24 25L25 25L25 20L23 20L23 23L22 23L22 22L20 22L20 21L21 21L21 19L23 19L23 18L24 18L24 19L25 19L25 17L24 17L24 16L25 16L25 10L24 10L24 9L25 9L25 8L24 8L24 9L23 9L23 10L21 10L21 9L19 9L19 8L18 8L18 10L21 10L21 11L20 11L20 12L18 12L18 11L16 11L16 10L15 10L15 5L17 5L17 4L15 4L15 5L14 5L14 7L13 7L13 6L12 6L12 5L13 5L13 4L12 4L12 2L13 2L13 3L16 3L16 2L17 2L17 1L16 1L16 0L15 0L15 1L14 1L14 0L13 0L13 1L12 1L12 0ZM13 1L13 2L14 2L14 1ZM15 1L15 2L16 2L16 1ZM10 5L10 6L9 6L9 7L10 7L10 9L9 9L9 10L10 10L10 11L9 11L9 12L11 12L11 16L12 16L12 15L13 15L13 17L12 17L12 18L11 18L11 19L10 19L10 20L9 20L9 21L10 21L10 22L12 22L12 23L13 23L13 22L12 22L12 21L13 21L13 19L12 19L12 18L15 18L15 19L14 19L14 21L15 21L15 20L16 20L16 18L15 18L15 17L16 17L16 16L14 16L14 14L12 14L12 13L13 13L13 12L14 12L14 13L15 13L15 12L16 12L16 11L15 11L15 12L14 12L14 9L12 9L12 6L11 6L11 5ZM10 6L10 7L11 7L11 6ZM16 6L16 9L17 9L17 6ZM0 8L0 9L2 9L2 8ZM6 8L6 9L7 9L7 8ZM10 9L10 10L11 10L11 9ZM12 10L12 11L13 11L13 10ZM6 11L6 12L7 12L7 11ZM21 11L21 12L22 12L22 13L21 13L21 14L20 14L20 15L19 15L19 16L20 16L20 15L21 15L21 17L22 17L22 15L21 15L21 14L24 14L24 12L22 12L22 11ZM17 12L17 13L16 13L16 14L17 14L17 15L18 15L18 14L19 14L19 13L18 13L18 12ZM2 13L2 14L3 14L3 13ZM4 14L4 15L5 15L5 14ZM17 17L17 20L20 20L20 17ZM18 18L18 19L19 19L19 18ZM11 19L11 20L10 20L10 21L12 21L12 19ZM16 24L16 25L17 25L17 24ZM18 24L18 25L20 25L20 24ZM0 0L0 7L7 7L7 0ZM1 1L1 6L6 6L6 1ZM2 2L2 5L5 5L5 2ZM18 0L18 7L25 7L25 0ZM19 1L19 6L24 6L24 1ZM20 2L20 5L23 5L23 2ZM0 18L0 25L7 25L7 18ZM1 19L1 24L6 24L6 19ZM2 20L2 23L5 23L5 20Z" fill="#000000"/></g></g></svg>
