<?xml version="1.0" encoding="UTF-8"?>
<svg xmlns="http://www.w3.org/2000/svg" version="1.1" width="300" height="300" viewBox="0 0 300 300"><rect x="0" y="0" width="300" height="300" fill="#ffffff"/><g transform="scale(12)"><g transform="translate(0,0)"><path fill-rule="evenodd" d="M8 0L8 2L9 2L9 3L10 3L10 2L9 2L9 1L11 1L11 2L12 2L12 0ZM14 0L14 1L15 1L15 0ZM16 1L16 4L17 4L17 1ZM13 2L13 4L12 4L12 3L11 3L11 5L9 5L9 4L8 4L8 9L7 9L7 8L5 8L5 10L4 10L4 9L3 9L3 8L0 8L0 9L2 9L2 12L0 12L0 13L2 13L2 12L3 12L3 13L7 13L7 14L6 14L6 15L5 15L5 14L3 14L3 15L5 15L5 16L3 16L3 17L7 17L7 16L6 16L6 15L8 15L8 12L9 12L9 13L10 13L10 14L9 14L9 17L8 17L8 18L11 18L11 19L10 19L10 20L9 20L9 19L8 19L8 20L9 20L9 22L8 22L8 25L9 25L9 23L11 23L11 24L10 24L10 25L11 25L11 24L12 24L12 25L13 25L13 23L12 23L12 22L13 22L13 19L14 19L14 20L15 20L15 21L14 21L14 24L15 24L15 25L17 25L17 24L18 24L18 25L21 25L21 22L19 22L19 24L18 24L18 21L21 21L21 19L23 19L23 18L22 18L22 17L21 17L21 15L23 15L23 17L24 17L24 15L25 15L25 14L24 14L24 15L23 15L23 14L21 14L21 15L20 15L20 13L22 13L22 12L21 12L21 11L22 11L22 10L23 10L23 11L25 11L25 8L23 8L23 9L22 9L22 10L21 10L21 11L20 11L20 9L21 9L21 8L16 8L16 9L15 9L15 6L14 6L14 9L15 9L15 10L13 10L13 9L12 9L12 7L13 7L13 6L12 6L12 7L11 7L11 5L15 5L15 2ZM16 5L16 7L17 7L17 5ZM9 6L9 7L10 7L10 9L9 9L9 10L11 10L11 7L10 7L10 6ZM6 9L6 10L5 10L5 11L6 11L6 12L7 12L7 11L8 11L8 10L7 10L7 9ZM17 9L17 10L18 10L18 9ZM3 10L3 12L4 12L4 10ZM6 10L6 11L7 11L7 10ZM12 10L12 11L11 11L11 12L13 12L13 14L12 14L12 16L10 16L10 17L12 17L12 16L13 16L13 17L14 17L14 18L15 18L15 20L16 20L16 17L15 17L15 16L17 16L17 15L18 15L18 16L20 16L20 15L19 15L19 14L18 14L18 12L19 12L19 11L18 11L18 12L17 12L17 15L13 15L13 14L14 14L14 13L15 13L15 12L16 12L16 11L13 11L13 10ZM9 11L9 12L10 12L10 11ZM24 12L24 13L25 13L25 12ZM0 14L0 15L2 15L2 14ZM10 14L10 15L11 15L11 14ZM0 16L0 17L2 17L2 16ZM17 17L17 20L20 20L20 17ZM18 18L18 19L19 19L19 18ZM24 18L24 19L25 19L25 18ZM11 19L11 21L10 21L10 22L11 22L11 21L12 21L12 19ZM15 21L15 22L16 22L16 23L17 23L17 22L16 22L16 21ZM23 21L23 22L22 22L22 23L25 23L25 22L24 22L24 21ZM24 24L24 25L25 25L25 24ZM0 0L0 7L7 7L7 0ZM1 1L1 6L6 6L6 1ZM2 2L2 5L5 5L5 2ZM18 0L18 7L25 7L25 0ZM19 1L19 6L24 6L24 1ZM20 2L20 5L23 5L23 2ZM0 18L0 25L7 25L7 18ZM1 19L1 24L6 24L6 19ZM2 20L2 23L5 23L5 20Z" fill="#000000"/></g></g></svg>
