<?xml version="1.0" encoding="UTF-8"?>
<svg xmlns="http://www.w3.org/2000/svg" version="1.1" width="300" height="300" viewBox="0 0 300 300"><rect x="0" y="0" width="300" height="300" fill="#ffffff"/><g transform="scale(12)"><g transform="translate(0,0)"><path fill-rule="evenodd" d="M9 0L9 1L8 1L8 2L9 2L9 3L8 3L8 4L10 4L10 7L11 7L11 4L12 4L12 5L13 5L13 4L14 4L14 3L15 3L15 4L16 4L16 5L15 5L15 6L14 6L14 7L15 7L15 8L13 8L13 6L12 6L12 9L14 9L14 10L15 10L15 11L16 11L16 10L17 10L17 9L18 9L18 8L17 8L17 9L16 9L16 7L17 7L17 4L16 4L16 3L15 3L15 2L16 2L16 1L17 1L17 0L16 0L16 1L15 1L15 2L14 2L14 3L13 3L13 4L12 4L12 2L13 2L13 1L14 1L14 0L13 0L13 1L11 1L11 2L10 2L10 0ZM10 3L10 4L11 4L11 3ZM8 5L8 7L9 7L9 5ZM15 6L15 7L16 7L16 6ZM0 8L0 9L5 9L5 8ZM6 8L6 9L7 9L7 10L6 10L6 11L8 11L8 12L9 12L9 13L10 13L10 14L9 14L9 15L7 15L7 14L6 14L6 13L7 13L7 12L4 12L4 11L5 11L5 10L2 10L2 11L1 11L1 10L0 10L0 12L1 12L1 13L0 13L0 17L1 17L1 14L2 14L2 15L3 15L3 16L2 16L2 17L3 17L3 16L4 16L4 17L8 17L8 19L11 19L11 20L10 20L10 21L9 21L9 20L8 20L8 25L9 25L9 23L10 23L10 24L11 24L11 25L16 25L16 24L17 24L17 25L20 25L20 24L19 24L19 23L17 23L17 22L19 22L19 21L21 21L21 22L22 22L22 21L23 21L23 22L24 22L24 24L22 24L22 23L21 23L21 24L22 24L22 25L25 25L25 21L23 21L23 20L22 20L22 18L21 18L21 16L22 16L22 17L23 17L23 16L25 16L25 10L24 10L24 8L23 8L23 9L22 9L22 8L21 8L21 10L20 10L20 8L19 8L19 10L18 10L18 11L17 11L17 12L13 12L13 13L12 13L12 11L13 11L13 10L11 10L11 11L10 11L10 9L11 9L11 8ZM8 9L8 11L9 11L9 9ZM15 9L15 10L16 10L16 9ZM19 10L19 11L20 11L20 10ZM23 10L23 11L22 11L22 12L24 12L24 10ZM2 11L2 12L3 12L3 13L2 13L2 14L3 14L3 15L5 15L5 13L4 13L4 12L3 12L3 11ZM10 12L10 13L11 13L11 18L13 18L13 19L12 19L12 20L15 20L15 19L16 19L16 18L15 18L15 19L14 19L14 17L12 17L12 15L13 15L13 16L14 16L14 15L15 15L15 14L16 14L16 16L17 16L17 14L18 14L18 15L19 15L19 16L20 16L20 14L21 14L21 12L19 12L19 13L17 13L17 14L16 14L16 13L13 13L13 14L12 14L12 13L11 13L11 12ZM19 13L19 14L20 14L20 13ZM22 13L22 16L23 16L23 14L24 14L24 13ZM6 15L6 16L7 16L7 15ZM8 16L8 17L9 17L9 18L10 18L10 17L9 17L9 16ZM17 17L17 20L20 20L20 17ZM24 17L24 18L23 18L23 19L24 19L24 20L25 20L25 17ZM18 18L18 19L19 19L19 18ZM21 20L21 21L22 21L22 20ZM10 21L10 23L11 23L11 24L14 24L14 23L15 23L15 24L16 24L16 23L15 23L15 21L14 21L14 22L13 22L13 23L12 23L12 21ZM0 0L0 7L7 7L7 0ZM1 1L1 6L6 6L6 1ZM2 2L2 5L5 5L5 2ZM18 0L18 7L25 7L25 0ZM19 1L19 6L24 6L24 1ZM20 2L20 5L23 5L23 2ZM0 18L0 25L7 25L7 18ZM1 19L1 24L6 24L6 19ZM2 20L2 23L5 23L5 20Z" fill="#000000"/></g></g></svg>
