<?xml version="1.0" encoding="UTF-8"?>
<svg xmlns="http://www.w3.org/2000/svg" version="1.1" width="300" height="300" viewBox="0 0 300 300"><rect x="0" y="0" width="300" height="300" fill="#ffffff"/><g transform="scale(12)"><g transform="translate(0,0)"><path fill-rule="evenodd" d="M8 0L8 2L10 2L10 4L8 4L8 9L7 9L7 8L5 8L5 9L4 9L4 10L6 10L6 11L3 11L3 10L2 10L2 9L3 9L3 8L0 8L0 13L1 13L1 14L0 14L0 15L2 15L2 16L0 16L0 17L2 17L2 16L3 16L3 17L5 17L5 16L3 16L3 15L4 15L4 14L5 14L5 15L8 15L8 14L5 14L5 13L4 13L4 12L6 12L6 13L7 13L7 12L8 12L8 11L9 11L9 16L8 16L8 18L9 18L9 16L13 16L13 18L14 18L14 17L16 17L16 20L15 20L15 21L16 21L16 22L13 22L13 21L14 21L14 19L13 19L13 20L11 20L11 21L10 21L10 19L12 19L12 18L10 18L10 19L8 19L8 20L9 20L9 21L10 21L10 22L8 22L8 25L9 25L9 23L10 23L10 25L11 25L11 24L13 24L13 25L17 25L17 24L18 24L18 25L19 25L19 24L20 24L20 25L21 25L21 24L20 24L20 23L21 23L21 22L22 22L22 21L21 21L21 19L23 19L23 20L24 20L24 21L23 21L23 23L25 23L25 22L24 22L24 21L25 21L25 20L24 20L24 19L25 19L25 18L24 18L24 19L23 19L23 18L22 18L22 17L21 17L21 15L23 15L23 17L24 17L24 15L25 15L25 14L24 14L24 15L23 15L23 14L21 14L21 15L20 15L20 13L22 13L22 12L21 12L21 11L22 11L22 10L23 10L23 11L25 11L25 8L23 8L23 9L22 9L22 10L21 10L21 11L20 11L20 9L21 9L21 8L17 8L17 5L16 5L16 8L15 8L15 6L14 6L14 5L15 5L15 2L13 2L13 0L11 0L11 1L9 1L9 0ZM14 0L14 1L15 1L15 0ZM11 1L11 2L12 2L12 1ZM16 1L16 4L17 4L17 1ZM11 3L11 4L12 4L12 6L11 6L11 5L9 5L9 8L10 8L10 6L11 6L11 7L12 7L12 6L13 6L13 8L11 8L11 10L9 10L9 11L10 11L10 15L12 15L12 13L11 13L11 12L13 12L13 16L17 16L17 15L18 15L18 16L20 16L20 15L19 15L19 14L18 14L18 12L19 12L19 11L18 11L18 12L17 12L17 11L15 11L15 12L14 12L14 11L13 11L13 10L15 10L15 8L14 8L14 6L13 6L13 5L14 5L14 4L13 4L13 3ZM16 8L16 9L17 9L17 10L18 10L18 9L17 9L17 8ZM6 9L6 10L7 10L7 9ZM1 10L1 11L2 11L2 10ZM11 10L11 11L12 11L12 10ZM6 11L6 12L7 12L7 11ZM2 12L2 14L4 14L4 13L3 13L3 12ZM15 12L15 13L14 13L14 15L17 15L17 13L16 13L16 12ZM24 12L24 13L25 13L25 12ZM15 13L15 14L16 14L16 13ZM6 16L6 17L7 17L7 16ZM17 17L17 20L20 20L20 17ZM18 18L18 19L19 19L19 18ZM11 21L11 23L12 23L12 21ZM18 21L18 24L19 24L19 22L21 22L21 21ZM16 22L16 23L17 23L17 22ZM13 23L13 24L14 24L14 23ZM24 24L24 25L25 25L25 24ZM0 0L0 7L7 7L7 0ZM1 1L1 6L6 6L6 1ZM2 2L2 5L5 5L5 2ZM18 0L18 7L25 7L25 0ZM19 1L19 6L24 6L24 1ZM20 2L20 5L23 5L23 2ZM0 18L0 25L7 25L7 18ZM1 19L1 24L6 24L6 19ZM2 20L2 23L5 23L5 20Z" fill="#000000"/></g></g></svg>
