<?xml version="1.0" encoding="UTF-8"?>
<svg xmlns="http://www.w3.org/2000/svg" version="1.1" width="300" height="300" viewBox="0 0 300 300"><rect x="0" y="0" width="300" height="300" fill="#ffffff"/><g transform="scale(12)"><g transform="translate(0,0)"><path fill-rule="evenodd" d="M12 0L12 2L11 2L11 1L10 1L10 2L11 2L11 3L8 3L8 4L9 4L9 5L8 5L8 7L9 7L9 8L6 8L6 9L7 9L7 10L5 10L5 11L4 11L4 10L3 10L3 9L5 9L5 8L0 8L0 9L2 9L2 10L1 10L1 11L0 11L0 17L1 17L1 14L3 14L3 16L2 16L2 17L3 17L3 16L4 16L4 17L5 17L5 15L7 15L7 16L6 16L6 17L8 17L8 19L9 19L9 20L8 20L8 25L9 25L9 20L10 20L10 24L11 24L11 25L16 25L16 24L17 24L17 25L19 25L19 23L17 23L17 22L19 22L19 21L21 21L21 24L20 24L20 25L21 25L21 24L22 24L22 25L25 25L25 21L24 21L24 20L25 20L25 17L24 17L24 18L23 18L23 20L22 20L22 18L21 18L21 16L22 16L22 17L23 17L23 16L25 16L25 10L24 10L24 8L23 8L23 9L22 9L22 8L21 8L21 10L20 10L20 8L19 8L19 10L18 10L18 11L17 11L17 12L16 12L16 10L17 10L17 9L18 9L18 8L17 8L17 9L16 9L16 7L17 7L17 3L13 3L13 0ZM14 0L14 2L16 2L16 1L17 1L17 0L16 0L16 1L15 1L15 0ZM8 1L8 2L9 2L9 1ZM11 3L11 4L10 4L10 6L9 6L9 7L10 7L10 6L11 6L11 8L10 8L10 9L8 9L8 10L9 10L9 11L8 11L8 13L9 13L9 12L11 12L11 11L13 11L13 12L15 12L15 10L16 10L16 9L15 9L15 7L16 7L16 6L15 6L15 5L16 5L16 4L14 4L14 5L13 5L13 3ZM11 4L11 5L12 5L12 4ZM12 6L12 9L10 9L10 11L11 11L11 10L12 10L12 9L14 9L14 8L13 8L13 6ZM14 6L14 7L15 7L15 6ZM19 10L19 11L20 11L20 10ZM23 10L23 11L22 11L22 12L24 12L24 10ZM2 11L2 12L3 12L3 14L5 14L5 13L4 13L4 12L3 12L3 11ZM5 11L5 12L7 12L7 11ZM19 12L19 13L17 13L17 14L16 14L16 13L15 13L15 14L14 14L14 13L12 13L12 14L11 14L11 13L10 13L10 14L7 14L7 13L6 13L6 14L7 14L7 15L9 15L9 19L10 19L10 20L14 20L14 19L16 19L16 18L15 18L15 17L14 17L14 18L13 18L13 17L12 17L12 15L13 15L13 16L15 16L15 14L16 14L16 16L17 16L17 14L18 14L18 15L19 15L19 16L20 16L20 14L21 14L21 12ZM19 13L19 14L20 14L20 13ZM22 13L22 16L23 16L23 14L24 14L24 13ZM10 14L10 15L11 15L11 14ZM10 17L10 18L12 18L12 19L13 19L13 18L12 18L12 17ZM17 17L17 20L20 20L20 17ZM18 18L18 19L19 19L19 18ZM21 20L21 21L22 21L22 24L24 24L24 22L23 22L23 21L22 21L22 20ZM12 21L12 22L11 22L11 23L12 23L12 24L14 24L14 23L15 23L15 24L16 24L16 23L15 23L15 22L14 22L14 21ZM13 22L13 23L14 23L14 22ZM0 0L0 7L7 7L7 0ZM1 1L1 6L6 6L6 1ZM2 2L2 5L5 5L5 2ZM18 0L18 7L25 7L25 0ZM19 1L19 6L24 6L24 1ZM20 2L20 5L23 5L23 2ZM0 18L0 25L7 25L7 18ZM1 19L1 24L6 24L6 19ZM2 20L2 23L5 23L5 20Z" fill="#000000"/></g></g></svg>
