<?xml version="1.0" encoding="UTF-8"?>
<svg xmlns="http://www.w3.org/2000/svg" version="1.1" width="300" height="300" viewBox="0 0 300 300"><rect x="0" y="0" width="300" height="300" fill="#ffffff"/><g transform="scale(12)"><g transform="translate(0,0)"><path fill-rule="evenodd" d="M8 0L8 2L9 2L9 3L10 3L10 5L12 5L12 4L11 4L11 3L12 3L12 2L13 2L13 3L14 3L14 4L13 4L13 5L14 5L14 8L13 8L13 6L12 6L12 8L11 8L11 9L12 9L12 10L10 10L10 8L9 8L9 4L8 4L8 9L7 9L7 8L5 8L5 9L3 9L3 8L0 8L0 9L1 9L1 10L2 10L2 12L1 12L1 11L0 11L0 12L1 12L1 14L0 14L0 15L2 15L2 16L0 16L0 17L4 17L4 16L5 16L5 17L7 17L7 16L6 16L6 15L9 15L9 14L6 14L6 13L7 13L7 12L8 12L8 13L12 13L12 14L11 14L11 15L12 15L12 14L13 14L13 15L14 15L14 14L13 14L13 13L14 13L14 12L13 12L13 13L12 13L12 11L13 11L13 10L14 10L14 8L15 8L15 9L16 9L16 10L15 10L15 11L17 11L17 9L19 9L19 11L18 11L18 14L16 14L16 13L17 13L17 12L15 12L15 16L16 16L16 17L14 17L14 16L11 16L11 17L10 17L10 16L9 16L9 17L8 17L8 18L9 18L9 19L8 19L8 20L9 20L9 22L8 22L8 25L13 25L13 24L11 24L11 23L14 23L14 25L15 25L15 22L16 22L16 25L17 25L17 24L18 24L18 25L20 25L20 23L21 23L21 22L22 22L22 23L25 23L25 20L23 20L23 21L24 21L24 22L22 22L22 21L21 21L21 19L23 19L23 18L22 18L22 17L21 17L21 16L20 16L20 15L19 15L19 13L22 13L22 12L21 12L21 11L22 11L22 10L23 10L23 11L25 11L25 8L23 8L23 9L22 9L22 10L21 10L21 11L20 11L20 9L21 9L21 8L17 8L17 9L16 9L16 7L17 7L17 6L16 6L16 7L15 7L15 5L16 5L16 4L15 4L15 3L17 3L17 1L16 1L16 0L14 0L14 1L12 1L12 0L11 0L11 1L12 1L12 2L11 2L11 3L10 3L10 0ZM14 1L14 2L16 2L16 1ZM10 6L10 7L11 7L11 6ZM2 9L2 10L3 10L3 11L4 11L4 12L2 12L2 13L4 13L4 14L2 14L2 15L3 15L3 16L4 16L4 15L5 15L5 13L6 13L6 12L7 12L7 11L8 11L8 12L10 12L10 11L9 11L9 10L7 10L7 9L6 9L6 10L5 10L5 11L4 11L4 10L3 10L3 9ZM6 10L6 11L5 11L5 12L6 12L6 11L7 11L7 10ZM19 11L19 12L20 12L20 11ZM24 12L24 13L25 13L25 12ZM21 14L21 15L23 15L23 17L24 17L24 15L25 15L25 14L24 14L24 15L23 15L23 14ZM16 15L16 16L17 16L17 15ZM18 15L18 16L19 16L19 15ZM9 17L9 18L10 18L10 22L9 22L9 23L10 23L10 22L12 22L12 21L13 21L13 22L15 22L15 20L16 20L16 18L15 18L15 19L14 19L14 17L13 17L13 19L11 19L11 18L12 18L12 17L11 17L11 18L10 18L10 17ZM17 17L17 20L20 20L20 17ZM18 18L18 19L19 19L19 18ZM24 18L24 19L25 19L25 18ZM11 20L11 21L12 21L12 20ZM13 20L13 21L14 21L14 20ZM16 21L16 22L17 22L17 21ZM18 21L18 23L19 23L19 21ZM24 24L24 25L25 25L25 24ZM0 0L0 7L7 7L7 0ZM1 1L1 6L6 6L6 1ZM2 2L2 5L5 5L5 2ZM18 0L18 7L25 7L25 0ZM19 1L19 6L24 6L24 1ZM20 2L20 5L23 5L23 2ZM0 18L0 25L7 25L7 18ZM1 19L1 24L6 24L6 19ZM2 20L2 23L5 23L5 20Z" fill="#000000"/></g></g></svg>
