<?xml version="1.0" encoding="UTF-8"?>
<svg xmlns="http://www.w3.org/2000/svg" version="1.1" width="300" height="300" viewBox="0 0 300 300"><rect x="0" y="0" width="300" height="300" fill="#ffffff"/><g transform="scale(12)"><g transform="translate(0,0)"><path fill-rule="evenodd" d="M9 0L9 1L11 1L11 2L9 2L9 3L8 3L8 5L9 5L9 6L8 6L8 7L9 7L9 9L8 9L8 8L5 8L5 9L2 9L2 8L0 8L0 11L1 11L1 12L2 12L2 14L3 14L3 15L2 15L2 17L4 17L4 16L3 16L3 15L5 15L5 16L6 16L6 17L8 17L8 20L9 20L9 22L10 22L10 23L11 23L11 20L13 20L13 19L15 19L15 18L16 18L16 20L14 20L14 22L20 22L20 21L21 21L21 19L23 19L23 18L22 18L22 17L23 17L23 16L25 16L25 10L24 10L24 9L23 9L23 10L21 10L21 9L22 9L22 8L20 8L20 9L18 9L18 10L17 10L17 11L18 11L18 10L20 10L20 12L18 12L18 13L22 13L22 12L21 12L21 11L23 11L23 10L24 10L24 14L23 14L23 15L22 15L22 14L21 14L21 15L20 15L20 16L19 16L19 14L18 14L18 15L16 15L16 13L17 13L17 12L15 12L15 16L14 16L14 17L13 17L13 16L12 16L12 15L14 15L14 12L13 12L13 11L12 11L12 12L11 12L11 11L10 11L10 10L11 10L11 8L13 8L13 9L14 9L14 10L15 10L15 11L16 11L16 10L15 10L15 9L16 9L16 7L17 7L17 6L16 6L16 7L15 7L15 5L14 5L14 4L17 4L17 2L16 2L16 3L12 3L12 2L14 2L14 1L16 1L16 0L13 0L13 1L12 1L12 0ZM9 3L9 5L10 5L10 3ZM11 4L11 7L10 7L10 6L9 6L9 7L10 7L10 8L11 8L11 7L12 7L12 4ZM13 6L13 8L14 8L14 9L15 9L15 7L14 7L14 6ZM5 9L5 10L7 10L7 9ZM9 9L9 10L8 10L8 11L9 11L9 12L10 12L10 11L9 11L9 10L10 10L10 9ZM2 10L2 11L3 11L3 10ZM4 11L4 12L3 12L3 14L4 14L4 13L5 13L5 11ZM6 11L6 12L7 12L7 13L6 13L6 14L5 14L5 15L6 15L6 16L7 16L7 15L6 15L6 14L7 14L7 13L8 13L8 12L7 12L7 11ZM0 13L0 17L1 17L1 13ZM11 13L11 15L12 15L12 14L13 14L13 13ZM9 15L9 17L11 17L11 18L10 18L10 19L9 19L9 20L11 20L11 18L13 18L13 17L11 17L11 16L10 16L10 15ZM21 15L21 17L22 17L22 15ZM15 16L15 17L14 17L14 18L15 18L15 17L16 17L16 16ZM17 17L17 20L20 20L20 17ZM24 17L24 20L22 20L22 22L21 22L21 23L20 23L20 25L21 25L21 23L23 23L23 22L24 22L24 25L25 25L25 21L24 21L24 20L25 20L25 17ZM18 18L18 19L19 19L19 18ZM8 23L8 25L11 25L11 24L9 24L9 23ZM12 23L12 25L14 25L14 24L15 24L15 23L14 23L14 24L13 24L13 23ZM16 23L16 25L17 25L17 24L18 24L18 25L19 25L19 24L18 24L18 23ZM0 0L0 7L7 7L7 0ZM1 1L1 6L6 6L6 1ZM2 2L2 5L5 5L5 2ZM18 0L18 7L25 7L25 0ZM19 1L19 6L24 6L24 1ZM20 2L20 5L23 5L23 2ZM0 18L0 25L7 25L7 18ZM1 19L1 24L6 24L6 19ZM2 20L2 23L5 23L5 20Z" fill="#000000"/></g></g></svg>
