<?xml version="1.0" encoding="UTF-8"?>
<svg xmlns="http://www.w3.org/2000/svg" version="1.1" width="300" height="300" viewBox="0 0 300 300"><rect x="0" y="0" width="300" height="300" fill="#ffffff"/><g transform="scale(12)"><g transform="translate(0,0)"><path fill-rule="evenodd" d="M10 0L10 2L11 2L11 0ZM12 0L12 1L14 1L14 0ZM16 0L16 1L15 1L15 2L14 2L14 3L13 3L13 2L12 2L12 4L14 4L14 5L11 5L11 6L10 6L10 4L11 4L11 3L8 3L8 4L9 4L9 5L8 5L8 7L9 7L9 8L6 8L6 9L5 9L5 8L0 8L0 9L4 9L4 10L3 10L3 11L2 11L2 12L0 12L0 17L1 17L1 14L2 14L2 16L3 16L3 17L7 17L7 16L9 16L9 17L8 17L8 19L11 19L11 18L10 18L10 17L12 17L12 18L13 18L13 19L12 19L12 20L8 20L8 25L9 25L9 24L11 24L11 25L12 25L12 24L13 24L13 25L16 25L16 24L17 24L17 25L20 25L20 24L22 24L22 25L25 25L25 21L23 21L23 20L25 20L25 17L24 17L24 18L23 18L23 20L22 20L22 18L21 18L21 16L22 16L22 17L23 17L23 16L25 16L25 10L24 10L24 8L23 8L23 9L22 9L22 8L21 8L21 10L20 10L20 8L19 8L19 10L18 10L18 11L17 11L17 9L18 9L18 8L15 8L15 6L16 6L16 7L17 7L17 4L16 4L16 5L15 5L15 3L16 3L16 1L17 1L17 0ZM8 1L8 2L9 2L9 1ZM14 5L14 6L13 6L13 7L12 7L12 6L11 6L11 7L12 7L12 9L11 9L11 8L10 8L10 9L9 9L9 12L11 12L11 13L10 13L10 14L13 14L13 15L12 15L12 16L15 16L15 14L16 14L16 16L17 16L17 14L18 14L18 15L19 15L19 16L20 16L20 14L21 14L21 12L19 12L19 13L17 13L17 11L16 11L16 13L15 13L15 10L16 10L16 9L14 9L14 10L12 10L12 9L13 9L13 8L14 8L14 6L15 6L15 5ZM9 6L9 7L10 7L10 6ZM6 9L6 10L4 10L4 11L3 11L3 12L2 12L2 13L3 13L3 16L4 16L4 14L5 14L5 16L7 16L7 15L9 15L9 16L11 16L11 15L9 15L9 13L8 13L8 9ZM10 9L10 11L11 11L11 9ZM6 10L6 11L4 11L4 12L3 12L3 13L4 13L4 12L5 12L5 14L6 14L6 15L7 15L7 14L6 14L6 13L7 13L7 12L6 12L6 11L7 11L7 10ZM19 10L19 11L20 11L20 10ZM23 10L23 11L22 11L22 12L24 12L24 10ZM12 11L12 13L14 13L14 12L13 12L13 11ZM16 13L16 14L17 14L17 13ZM19 13L19 14L20 14L20 13ZM22 13L22 16L23 16L23 14L24 14L24 13ZM14 17L14 19L13 19L13 20L12 20L12 22L11 22L11 24L12 24L12 23L13 23L13 24L14 24L14 23L15 23L15 24L16 24L16 23L15 23L15 21L13 21L13 20L15 20L15 19L16 19L16 18L15 18L15 17ZM17 17L17 20L20 20L20 17ZM18 18L18 19L19 19L19 18ZM21 20L21 21L19 21L19 22L17 22L17 23L19 23L19 24L20 24L20 23L22 23L22 24L24 24L24 22L23 22L23 21L22 21L22 20ZM9 21L9 23L10 23L10 21ZM21 21L21 22L22 22L22 21ZM0 0L0 7L7 7L7 0ZM1 1L1 6L6 6L6 1ZM2 2L2 5L5 5L5 2ZM18 0L18 7L25 7L25 0ZM19 1L19 6L24 6L24 1ZM20 2L20 5L23 5L23 2ZM0 18L0 25L7 25L7 18ZM1 19L1 24L6 24L6 19ZM2 20L2 23L5 23L5 20Z" fill="#000000"/></g></g></svg>
