<?xml version="1.0" encoding="UTF-8"?>
<svg xmlns="http://www.w3.org/2000/svg" version="1.1" width="300" height="300" viewBox="0 0 300 300"><rect x="0" y="0" width="300" height="300" fill="#ffffff"/><g transform="scale(10.345)"><g transform="translate(0,0)"><path fill-rule="evenodd" d="M10 0L10 1L9 1L9 2L8 2L8 3L9 3L9 5L10 5L10 7L11 7L11 8L12 8L12 9L11 9L11 10L10 10L10 9L9 9L9 6L8 6L8 8L4 8L4 9L3 9L3 8L0 8L0 10L1 10L1 9L2 9L2 10L3 10L3 11L1 11L1 12L0 12L0 14L1 14L1 13L3 13L3 14L4 14L4 16L3 16L3 15L2 15L2 16L3 16L3 17L1 17L1 16L0 16L0 17L1 17L1 18L0 18L0 19L1 19L1 20L0 20L0 21L1 21L1 20L2 20L2 19L1 19L1 18L3 18L3 20L4 20L4 21L5 21L5 20L4 20L4 17L8 17L8 16L12 16L12 17L10 17L10 19L8 19L8 20L9 20L9 21L8 21L8 25L9 25L9 22L12 22L12 20L14 20L14 22L13 22L13 23L14 23L14 22L17 22L17 20L18 20L18 19L17 19L17 18L20 18L20 19L21 19L21 20L19 20L19 22L18 22L18 23L17 23L17 24L16 24L16 23L15 23L15 24L16 24L16 25L15 25L15 26L14 26L14 25L13 25L13 24L12 24L12 23L10 23L10 26L8 26L8 29L10 29L10 27L12 27L12 28L11 28L11 29L12 29L12 28L14 28L14 29L15 29L15 26L18 26L18 27L16 27L16 28L19 28L19 29L21 29L21 28L22 28L22 27L23 27L23 28L26 28L26 29L29 29L29 28L28 28L28 27L29 27L29 24L28 24L28 25L27 25L27 26L28 26L28 27L27 27L27 28L26 28L26 27L25 27L25 26L24 26L24 25L26 25L26 23L29 23L29 22L28 22L28 21L27 21L27 22L25 22L25 21L26 21L26 19L29 19L29 18L28 18L28 17L29 17L29 16L28 16L28 15L29 15L29 13L28 13L28 15L27 15L27 14L26 14L26 15L25 15L25 14L23 14L23 12L22 12L22 14L23 14L23 15L18 15L18 14L17 14L17 15L15 15L15 16L16 16L16 17L15 17L15 18L14 18L14 17L13 17L13 16L12 16L12 15L11 15L11 14L12 14L12 12L14 12L14 14L13 14L13 15L14 15L14 14L16 14L16 13L17 13L17 12L19 12L19 14L21 14L21 11L24 11L24 12L25 12L25 13L26 13L26 11L27 11L27 12L29 12L29 9L27 9L27 8L26 8L26 9L25 9L25 10L23 10L23 8L21 8L21 6L20 6L20 5L19 5L19 4L21 4L21 2L20 2L20 1L19 1L19 0L18 0L18 1L17 1L17 2L18 2L18 1L19 1L19 4L18 4L18 5L17 5L17 3L16 3L16 2L15 2L15 3L16 3L16 5L14 5L14 3L12 3L12 2L11 2L11 3L12 3L12 5L10 5L10 3L9 3L9 2L10 2L10 1L11 1L11 0ZM14 0L14 1L13 1L13 2L14 2L14 1L15 1L15 0ZM13 5L13 7L12 7L12 6L11 6L11 7L12 7L12 8L13 8L13 9L14 9L14 10L13 10L13 11L14 11L14 10L15 10L15 9L16 9L16 8L17 8L17 10L19 10L19 12L20 12L20 10L19 10L19 9L20 9L20 8L19 8L19 7L20 7L20 6L19 6L19 5L18 5L18 6L17 6L17 7L16 7L16 6L15 6L15 7L14 7L14 5ZM18 6L18 7L17 7L17 8L18 8L18 7L19 7L19 6ZM15 7L15 8L16 8L16 7ZM6 9L6 10L7 10L7 9ZM8 9L8 13L6 13L6 12L7 12L7 11L6 11L6 12L5 12L5 11L3 11L3 13L4 13L4 14L5 14L5 13L6 13L6 14L7 14L7 15L5 15L5 16L7 16L7 15L8 15L8 13L10 13L10 12L9 12L9 11L10 11L10 10L9 10L9 9ZM26 9L26 10L25 10L25 11L26 11L26 10L27 10L27 11L28 11L28 10L27 10L27 9ZM11 11L11 12L12 12L12 11ZM15 11L15 12L16 12L16 11ZM24 15L24 16L23 16L23 19L22 19L22 18L21 18L21 19L22 19L22 20L24 20L24 19L25 19L25 18L27 18L27 15L26 15L26 17L25 17L25 15ZM17 16L17 17L20 17L20 16ZM21 16L21 17L22 17L22 16ZM6 18L6 19L7 19L7 18ZM13 18L13 19L14 19L14 18ZM15 18L15 19L16 19L16 18ZM11 19L11 20L12 20L12 19ZM6 20L6 21L7 21L7 20ZM15 20L15 21L16 21L16 20ZM21 21L21 24L24 24L24 21ZM19 22L19 23L18 23L18 24L17 24L17 25L18 25L18 26L19 26L19 27L20 27L20 28L21 28L21 27L20 27L20 26L23 26L23 25L20 25L20 22ZM22 22L22 23L23 23L23 22ZM11 24L11 25L12 25L12 24ZM13 26L13 27L14 27L14 26ZM0 0L0 7L7 7L7 0ZM1 1L1 6L6 6L6 1ZM2 2L2 5L5 5L5 2ZM22 0L22 7L29 7L29 0ZM23 1L23 6L28 6L28 1ZM24 2L24 5L27 5L27 2ZM0 22L0 29L7 29L7 22ZM1 23L1 28L6 28L6 23ZM2 24L2 27L5 27L5 24Z" fill="#000000"/></g></g></svg>
