<?xml version="1.0" encoding="UTF-8"?>
<svg xmlns="http://www.w3.org/2000/svg" version="1.1" width="300" height="300" viewBox="0 0 300 300"><rect x="0" y="0" width="300" height="300" fill="#ffffff"/><g transform="scale(12)"><g transform="translate(0,0)"><path fill-rule="evenodd" d="M8 0L8 2L9 2L9 3L10 3L10 2L9 2L9 1L11 1L11 2L12 2L12 0ZM13 0L13 1L14 1L14 2L13 2L13 3L11 3L11 5L9 5L9 4L8 4L8 9L7 9L7 8L5 8L5 9L3 9L3 8L0 8L0 10L1 10L1 11L0 11L0 12L1 12L1 14L0 14L0 15L3 15L3 16L4 16L4 17L7 17L7 16L8 16L8 15L7 15L7 14L6 14L6 13L7 13L7 12L8 12L8 9L10 9L10 7L11 7L11 5L12 5L12 7L13 7L13 5L16 5L16 4L15 4L15 3L17 3L17 1L16 1L16 0L15 0L15 1L14 1L14 0ZM15 1L15 2L16 2L16 1ZM13 3L13 4L14 4L14 3ZM9 6L9 7L10 7L10 6ZM14 6L14 8L11 8L11 9L12 9L12 11L11 11L11 10L9 10L9 11L10 11L10 12L9 12L9 13L10 13L10 14L9 14L9 17L8 17L8 18L10 18L10 20L9 20L9 19L8 19L8 20L9 20L9 22L8 22L8 25L12 25L12 24L13 24L13 25L14 25L14 24L15 24L15 25L17 25L17 24L18 24L18 25L20 25L20 23L21 23L21 22L19 22L19 24L18 24L18 21L21 21L21 19L23 19L23 18L22 18L22 17L21 17L21 15L23 15L23 17L24 17L24 15L25 15L25 14L24 14L24 15L23 15L23 14L21 14L21 15L20 15L20 13L22 13L22 12L21 12L21 11L22 11L22 10L23 10L23 11L25 11L25 8L23 8L23 9L22 9L22 10L21 10L21 11L20 11L20 9L21 9L21 8L17 8L17 9L16 9L16 7L17 7L17 6L16 6L16 7L15 7L15 6ZM14 8L14 9L13 9L13 10L14 10L14 9L15 9L15 10L16 10L16 9L15 9L15 8ZM1 9L1 10L3 10L3 13L4 13L4 14L3 14L3 15L5 15L5 16L7 16L7 15L6 15L6 14L5 14L5 13L4 13L4 10L3 10L3 9ZM6 9L6 10L5 10L5 12L7 12L7 11L6 11L6 10L7 10L7 9ZM17 9L17 10L18 10L18 9ZM13 11L13 13L12 13L12 12L11 12L11 14L16 14L16 13L17 13L17 15L13 15L13 16L14 16L14 17L13 17L13 18L12 18L12 15L11 15L11 16L10 16L10 17L11 17L11 18L12 18L12 19L11 19L11 20L10 20L10 21L11 21L11 22L10 22L10 23L9 23L9 24L12 24L12 23L11 23L11 22L12 22L12 20L14 20L14 21L13 21L13 22L16 22L16 23L17 23L17 22L16 22L16 21L15 21L15 20L16 20L16 17L15 17L15 16L17 16L17 15L18 15L18 16L20 16L20 15L19 15L19 14L18 14L18 12L19 12L19 11L18 11L18 12L17 12L17 11ZM14 12L14 13L16 13L16 12ZM24 12L24 13L25 13L25 12ZM0 16L0 17L2 17L2 16ZM14 17L14 18L13 18L13 19L15 19L15 17ZM17 17L17 20L20 20L20 17ZM18 18L18 19L19 19L19 18ZM24 18L24 20L23 20L23 23L25 23L25 22L24 22L24 20L25 20L25 18ZM13 23L13 24L14 24L14 23ZM24 24L24 25L25 25L25 24ZM0 0L0 7L7 7L7 0ZM1 1L1 6L6 6L6 1ZM2 2L2 5L5 5L5 2ZM18 0L18 7L25 7L25 0ZM19 1L19 6L24 6L24 1ZM20 2L20 5L23 5L23 2ZM0 18L0 25L7 25L7 18ZM1 19L1 24L6 24L6 19ZM2 20L2 23L5 23L5 20Z" fill="#000000"/></g></g></svg>
