<?xml version="1.0" encoding="UTF-8"?>
<svg xmlns="http://www.w3.org/2000/svg" version="1.1" width="300" height="300" viewBox="0 0 300 300"><rect x="0" y="0" width="300" height="300" fill="#ffffff"/><g transform="scale(10.345)"><g transform="translate(0,0)"><path fill-rule="evenodd" d="M10 0L10 1L8 1L8 3L9 3L9 4L8 4L8 8L6 8L6 9L7 9L7 10L3 10L3 9L4 9L4 8L3 8L3 9L2 9L2 8L0 8L0 10L1 10L1 9L2 9L2 10L3 10L3 11L7 11L7 12L6 12L6 13L4 13L4 12L3 12L3 15L2 15L2 16L3 16L3 15L4 15L4 17L1 17L1 18L0 18L0 19L1 19L1 18L3 18L3 20L2 20L2 21L3 21L3 20L4 20L4 21L5 21L5 20L6 20L6 21L7 21L7 20L9 20L9 17L10 17L10 20L11 20L11 19L12 19L12 20L13 20L13 18L14 18L14 20L15 20L15 21L14 21L14 22L17 22L17 23L18 23L18 24L19 24L19 23L20 23L20 25L19 25L19 26L18 26L18 25L17 25L17 24L16 24L16 23L14 23L14 24L16 24L16 27L17 27L17 28L16 28L16 29L17 29L17 28L20 28L20 29L21 29L21 28L20 28L20 27L21 27L21 26L20 26L20 25L22 25L22 27L23 27L23 28L25 28L25 29L28 29L28 27L29 27L29 26L28 26L28 25L29 25L29 24L27 24L27 23L28 23L28 21L27 21L27 20L25 20L25 19L24 19L24 20L23 20L23 18L24 18L24 17L21 17L21 16L24 16L24 15L25 15L25 16L26 16L26 15L25 15L25 14L26 14L26 12L29 12L29 11L27 11L27 10L29 10L29 9L28 9L28 8L26 8L26 9L25 9L25 8L22 8L22 9L19 9L19 13L20 13L20 15L19 15L19 14L17 14L17 15L16 15L16 16L15 16L15 17L14 17L14 16L12 16L12 12L14 12L14 13L13 13L13 15L15 15L15 14L16 14L16 13L17 13L17 11L16 11L16 12L14 12L14 11L15 11L15 10L18 10L18 7L19 7L19 8L20 8L20 7L21 7L21 5L20 5L20 3L19 3L19 2L17 2L17 1L15 1L15 0L14 0L14 3L12 3L12 7L11 7L11 4L10 4L10 3L9 3L9 2L11 2L11 0ZM20 1L20 2L21 2L21 1ZM15 2L15 3L14 3L14 4L13 4L13 7L12 7L12 8L13 8L13 9L14 9L14 10L15 10L15 9L16 9L16 8L17 8L17 7L18 7L18 6L19 6L19 7L20 7L20 6L19 6L19 5L18 5L18 4L19 4L19 3L16 3L16 2ZM14 4L14 5L15 5L15 6L14 6L14 7L13 7L13 8L14 8L14 9L15 9L15 8L16 8L16 7L17 7L17 6L16 6L16 5L17 5L17 4L16 4L16 5L15 5L15 4ZM9 5L9 8L8 8L8 9L10 9L10 10L7 10L7 11L8 11L8 12L9 12L9 13L8 13L8 14L7 14L7 13L6 13L6 14L4 14L4 15L6 15L6 16L5 16L5 18L8 18L8 14L9 14L9 13L10 13L10 14L11 14L11 13L10 13L10 12L9 12L9 11L11 11L11 8L10 8L10 5ZM15 6L15 7L14 7L14 8L15 8L15 7L16 7L16 6ZM23 9L23 10L22 10L22 11L21 11L21 10L20 10L20 12L21 12L21 15L20 15L20 16L21 16L21 15L24 15L24 14L25 14L25 12L23 12L23 10L25 10L25 9ZM26 9L26 10L27 10L27 9ZM0 11L0 12L1 12L1 11ZM22 12L22 13L23 13L23 12ZM1 13L1 14L2 14L2 13ZM6 14L6 15L7 15L7 14ZM28 14L28 15L27 15L27 18L26 18L26 17L25 17L25 18L26 18L26 19L28 19L28 20L29 20L29 18L28 18L28 15L29 15L29 14ZM6 16L6 17L7 17L7 16ZM11 16L11 18L12 18L12 16ZM16 16L16 17L18 17L18 21L17 21L17 22L19 22L19 21L20 21L20 20L19 20L19 19L22 19L22 18L21 18L21 17L20 17L20 18L19 18L19 16ZM15 18L15 19L16 19L16 20L17 20L17 19L16 19L16 18ZM6 19L6 20L7 20L7 19ZM0 20L0 21L1 21L1 20ZM8 21L8 23L9 23L9 22L10 22L10 23L11 23L11 22L12 22L12 21ZM21 21L21 24L24 24L24 21ZM26 21L26 23L27 23L27 21ZM22 22L22 23L23 23L23 22ZM12 24L12 25L8 25L8 26L9 26L9 27L8 27L8 29L9 29L9 28L10 28L10 29L12 29L12 28L13 28L13 29L15 29L15 27L13 27L13 24ZM26 24L26 26L27 26L27 27L26 27L26 28L27 28L27 27L28 27L28 26L27 26L27 24ZM24 25L24 26L23 26L23 27L24 27L24 26L25 26L25 25ZM11 26L11 27L10 27L10 28L12 28L12 26ZM19 26L19 27L20 27L20 26ZM0 0L0 7L7 7L7 0ZM1 1L1 6L6 6L6 1ZM2 2L2 5L5 5L5 2ZM22 0L22 7L29 7L29 0ZM23 1L23 6L28 6L28 1ZM24 2L24 5L27 5L27 2ZM0 22L0 29L7 29L7 22ZM1 23L1 28L6 28L6 23ZM2 24L2 27L5 27L5 24Z" fill="#000000"/></g></g></svg>
