<?xml version="1.0" encoding="UTF-8"?>
<svg xmlns="http://www.w3.org/2000/svg" version="1.1" width="300" height="300" viewBox="0 0 300 300"><rect x="0" y="0" width="300" height="300" fill="#ffffff"/><g transform="scale(12)"><g transform="translate(0,0)"><path fill-rule="evenodd" d="M8 0L8 2L10 2L10 4L8 4L8 9L9 9L9 10L11 10L11 12L12 12L12 14L11 14L11 16L10 16L10 11L9 11L9 14L8 14L8 13L7 13L7 12L8 12L8 11L7 11L7 10L6 10L6 11L5 11L5 10L4 10L4 9L3 9L3 8L0 8L0 10L1 10L1 11L0 11L0 12L1 12L1 13L2 13L2 12L4 12L4 13L3 13L3 16L0 16L0 17L3 17L3 16L4 16L4 17L5 17L5 16L4 16L4 15L5 15L5 14L6 14L6 15L9 15L9 17L8 17L8 16L6 16L6 17L8 17L8 18L9 18L9 19L8 19L8 20L9 20L9 22L8 22L8 25L14 25L14 24L9 24L9 23L10 23L10 22L11 22L11 23L12 23L12 22L13 22L13 23L15 23L15 22L16 22L16 25L17 25L17 24L18 24L18 25L19 25L19 24L20 24L20 25L21 25L21 24L20 24L20 23L22 23L22 21L21 21L21 19L23 19L23 20L24 20L24 19L25 19L25 18L24 18L24 19L23 19L23 18L22 18L22 17L21 17L21 16L18 16L18 15L20 15L20 14L19 14L19 13L22 13L22 12L21 12L21 11L22 11L22 10L23 10L23 11L25 11L25 8L23 8L23 9L22 9L22 10L21 10L21 11L20 11L20 9L21 9L21 8L17 8L17 9L16 9L16 8L15 8L15 6L14 6L14 8L11 8L11 6L10 6L10 8L9 8L9 5L12 5L12 7L13 7L13 5L12 5L12 4L13 4L13 3L14 3L14 4L15 4L15 5L16 5L16 4L17 4L17 2L16 2L16 4L15 4L15 3L14 3L14 2L12 2L12 4L11 4L11 1L13 1L13 0L10 0L10 1L9 1L9 0ZM14 0L14 1L16 1L16 0ZM16 6L16 7L17 7L17 6ZM5 8L5 9L7 9L7 8ZM14 8L14 9L13 9L13 10L16 10L16 9L15 9L15 8ZM1 9L1 10L3 10L3 9ZM11 9L11 10L12 10L12 9ZM17 9L17 11L15 11L15 12L17 12L17 13L16 13L16 14L18 14L18 11L19 11L19 12L20 12L20 11L19 11L19 9ZM4 11L4 12L5 12L5 11ZM6 11L6 12L7 12L7 11ZM13 11L13 14L15 14L15 13L14 13L14 11ZM24 12L24 13L25 13L25 12ZM4 13L4 14L5 14L5 13ZM6 13L6 14L7 14L7 13ZM0 14L0 15L2 15L2 14ZM21 14L21 15L23 15L23 17L24 17L24 15L25 15L25 14L24 14L24 15L23 15L23 14ZM12 15L12 17L11 17L11 18L12 18L12 19L11 19L11 22L12 22L12 20L14 20L14 22L15 22L15 20L16 20L16 18L15 18L15 17L16 17L16 16L17 16L17 15L16 15L16 16L15 16L15 15ZM13 16L13 17L12 17L12 18L14 18L14 20L15 20L15 18L14 18L14 16ZM9 17L9 18L10 18L10 17ZM17 17L17 20L20 20L20 17ZM18 18L18 19L19 19L19 18ZM9 19L9 20L10 20L10 19ZM16 21L16 22L17 22L17 21ZM18 21L18 23L19 23L19 21ZM23 21L23 23L25 23L25 22L24 22L24 21ZM24 24L24 25L25 25L25 24ZM0 0L0 7L7 7L7 0ZM1 1L1 6L6 6L6 1ZM2 2L2 5L5 5L5 2ZM18 0L18 7L25 7L25 0ZM19 1L19 6L24 6L24 1ZM20 2L20 5L23 5L23 2ZM0 18L0 25L7 25L7 18ZM1 19L1 24L6 24L6 19ZM2 20L2 23L5 23L5 20Z" fill="#000000"/></g></g></svg>
