<?xml version="1.0" encoding="UTF-8"?>
<svg xmlns="http://www.w3.org/2000/svg" version="1.1" width="300" height="300" viewBox="0 0 300 300"><rect x="0" y="0" width="300" height="300" fill="#ffffff"/><g transform="scale(10.345)"><g transform="translate(0,0)"><path fill-rule="evenodd" d="M8 0L8 2L9 2L9 3L10 3L10 2L9 2L9 1L11 1L11 2L12 2L12 0ZM13 0L13 1L15 1L15 2L16 2L16 0ZM17 0L17 1L18 1L18 2L17 2L17 3L15 3L15 5L13 5L13 3L14 3L14 2L13 2L13 3L11 3L11 5L9 5L9 4L8 4L8 9L10 9L10 7L11 7L11 5L12 5L12 7L13 7L13 8L11 8L11 9L12 9L12 11L11 11L11 10L9 10L9 11L10 11L10 12L9 12L9 13L8 13L8 17L9 17L9 18L10 18L10 19L8 19L8 18L6 18L6 17L7 17L7 16L6 16L6 15L7 15L7 14L6 14L6 13L7 13L7 12L8 12L8 11L7 11L7 10L4 10L4 12L6 12L6 13L5 13L5 16L6 16L6 17L4 17L4 18L3 18L3 17L2 17L2 16L4 16L4 13L3 13L3 14L2 14L2 12L3 12L3 8L0 8L0 11L1 11L1 9L2 9L2 12L1 12L1 14L0 14L0 17L1 17L1 18L0 18L0 19L2 19L2 20L0 20L0 21L2 21L2 20L4 20L4 18L6 18L6 19L5 19L5 21L7 21L7 20L6 20L6 19L8 19L8 22L9 22L9 23L8 23L8 24L9 24L9 23L12 23L12 22L11 22L11 21L10 21L10 20L13 20L13 22L15 22L15 23L16 23L16 22L17 22L17 23L18 23L18 24L15 24L15 25L16 25L16 26L13 26L13 25L14 25L14 23L13 23L13 24L10 24L10 25L9 25L9 26L8 26L8 29L9 29L9 26L10 26L10 27L11 27L11 28L10 28L10 29L11 29L11 28L13 28L13 29L15 29L15 27L18 27L18 26L17 26L17 25L18 25L18 24L19 24L19 25L20 25L20 26L19 26L19 28L20 28L20 29L24 29L24 28L25 28L25 29L27 29L27 28L25 28L25 27L29 27L29 24L28 24L28 23L29 23L29 22L28 22L28 23L27 23L27 25L28 25L28 26L26 26L26 25L25 25L25 23L26 23L26 21L25 21L25 19L24 19L24 16L23 16L23 15L22 15L22 14L24 14L24 15L29 15L29 13L28 13L28 12L29 12L29 8L27 8L27 9L28 9L28 10L24 10L24 9L25 9L25 8L19 8L19 9L20 9L20 10L18 10L18 12L17 12L17 9L18 9L18 8L15 8L15 9L16 9L16 11L15 11L15 10L13 10L13 9L14 9L14 7L15 7L15 5L16 5L16 7L17 7L17 5L20 5L20 7L21 7L21 5L20 5L20 3L19 3L19 1L20 1L20 0L19 0L19 1L18 1L18 0ZM18 3L18 4L19 4L19 3ZM9 6L9 7L10 7L10 6ZM13 6L13 7L14 7L14 6ZM18 6L18 7L19 7L19 6ZM5 8L5 9L7 9L7 8ZM21 9L21 11L19 11L19 12L18 12L18 14L20 14L20 17L19 17L19 15L17 15L17 13L16 13L16 12L15 12L15 14L13 14L13 12L14 12L14 11L13 11L13 12L11 12L11 14L10 14L10 16L9 16L9 17L10 17L10 16L13 16L13 15L14 15L14 17L13 17L13 18L16 18L16 16L18 16L18 17L17 17L17 18L20 18L20 19L19 19L19 20L18 20L18 19L16 19L16 21L15 21L15 22L16 22L16 21L17 21L17 22L18 22L18 23L19 23L19 22L20 22L20 21L19 21L19 20L23 20L23 19L21 19L21 18L22 18L22 17L21 17L21 16L22 16L22 15L21 15L21 14L20 14L20 12L21 12L21 11L22 11L22 12L23 12L23 11L24 11L24 10L23 10L23 11L22 11L22 9ZM6 11L6 12L7 12L7 11ZM25 11L25 12L24 12L24 14L25 14L25 13L26 13L26 14L27 14L27 12L28 12L28 11ZM11 14L11 15L12 15L12 14ZM15 14L15 15L16 15L16 14ZM28 16L28 17L29 17L29 16ZM11 17L11 19L12 19L12 17ZM20 17L20 18L21 18L21 17ZM25 17L25 18L26 18L26 19L27 19L27 21L28 21L28 19L29 19L29 18L28 18L28 19L27 19L27 18L26 18L26 17ZM13 19L13 20L14 20L14 19ZM17 20L17 21L18 21L18 22L19 22L19 21L18 21L18 20ZM9 21L9 22L10 22L10 21ZM21 21L21 24L24 24L24 21ZM22 22L22 23L23 23L23 22ZM10 25L10 26L11 26L11 27L12 27L12 25ZM22 25L22 26L21 26L21 27L20 27L20 28L24 28L24 26L25 26L25 25ZM22 26L22 27L23 27L23 26ZM13 27L13 28L14 28L14 27ZM16 28L16 29L18 29L18 28ZM28 28L28 29L29 29L29 28ZM0 0L0 7L7 7L7 0ZM1 1L1 6L6 6L6 1ZM2 2L2 5L5 5L5 2ZM22 0L22 7L29 7L29 0ZM23 1L23 6L28 6L28 1ZM24 2L24 5L27 5L27 2ZM0 22L0 29L7 29L7 22ZM1 23L1 28L6 28L6 23ZM2 24L2 27L5 27L5 24Z" fill="#000000"/></g></g></svg>
