<?xml version="1.0" encoding="UTF-8"?>
<svg xmlns="http://www.w3.org/2000/svg" version="1.1" width="300" height="300" viewBox="0 0 300 300"><rect x="0" y="0" width="300" height="300" fill="#ffffff"/><g transform="scale(10.345)"><g transform="translate(0,0)"><path fill-rule="evenodd" d="M9 0L9 1L8 1L8 2L9 2L9 3L8 3L8 4L10 4L10 7L11 7L11 4L12 4L12 5L13 5L13 6L12 6L12 9L13 9L13 8L14 8L14 9L15 9L15 10L17 10L17 11L16 11L16 12L17 12L17 11L19 11L19 10L17 10L17 9L16 9L16 7L17 7L17 5L16 5L16 4L18 4L18 8L19 8L19 4L20 4L20 7L21 7L21 4L20 4L20 3L21 3L21 2L19 2L19 0L15 0L15 1L17 1L17 2L16 2L16 4L12 4L12 2L13 2L13 1L11 1L11 2L10 2L10 0ZM20 0L20 1L21 1L21 0ZM14 2L14 3L15 3L15 2ZM17 2L17 3L19 3L19 2ZM10 3L10 4L11 4L11 3ZM8 5L8 7L9 7L9 5ZM13 6L13 7L14 7L14 8L15 8L15 7L16 7L16 6L15 6L15 7L14 7L14 6ZM0 8L0 9L2 9L2 11L1 11L1 10L0 10L0 13L1 13L1 15L0 15L0 16L1 16L1 15L2 15L2 16L4 16L4 17L3 17L3 18L2 18L2 21L7 21L7 20L3 20L3 19L5 19L5 18L4 18L4 17L5 17L5 16L4 16L4 15L7 15L7 16L6 16L6 17L7 17L7 18L6 18L6 19L8 19L8 20L9 20L9 17L10 17L10 21L12 21L12 22L13 22L13 23L12 23L12 25L13 25L13 24L14 24L14 25L15 25L15 27L14 27L14 28L15 28L15 29L16 29L16 27L19 27L19 26L17 26L17 25L16 25L16 24L17 24L17 23L18 23L18 24L20 24L20 25L24 25L24 26L23 26L23 27L27 27L27 28L28 28L28 26L29 26L29 25L28 25L28 24L25 24L25 21L26 21L26 22L28 22L28 21L29 21L29 20L24 20L24 19L23 19L23 20L22 20L22 18L25 18L25 19L26 19L26 18L25 18L25 17L27 17L27 18L28 18L28 17L27 17L27 16L28 16L28 14L29 14L29 11L28 11L28 10L29 10L29 9L28 9L28 8L27 8L27 12L25 12L25 13L22 13L22 12L21 12L21 13L20 13L20 12L19 12L19 13L17 13L17 14L18 14L18 16L20 16L20 19L21 19L21 20L20 20L20 23L19 23L19 22L17 22L17 21L16 21L16 19L17 19L17 18L18 18L18 19L19 19L19 17L17 17L17 16L14 16L14 15L16 15L16 13L12 13L12 11L13 11L13 10L11 10L11 11L10 11L10 9L11 9L11 8L6 8L6 9L5 9L5 8ZM21 8L21 9L20 9L20 10L23 10L23 12L24 12L24 11L25 11L25 9L26 9L26 8L25 8L25 9L24 9L24 8L23 8L23 9L22 9L22 8ZM4 9L4 11L3 11L3 13L2 13L2 12L1 12L1 13L2 13L2 15L3 15L3 14L4 14L4 11L6 11L6 12L7 12L7 13L5 13L5 14L7 14L7 13L8 13L8 14L9 14L9 13L8 13L8 12L9 12L9 11L8 11L8 10L7 10L7 9L6 9L6 10L5 10L5 9ZM6 10L6 11L7 11L7 10ZM14 11L14 12L15 12L15 11ZM10 12L10 13L11 13L11 14L10 14L10 16L11 16L11 18L13 18L13 19L12 19L12 21L15 21L15 20L14 20L14 19L15 19L15 17L14 17L14 16L13 16L13 17L12 17L12 15L13 15L13 14L12 14L12 13L11 13L11 12ZM19 13L19 15L20 15L20 16L21 16L21 15L20 15L20 13ZM21 13L21 14L22 14L22 13ZM26 13L26 14L25 14L25 16L24 16L24 15L23 15L23 16L22 16L22 17L25 17L25 16L27 16L27 14L28 14L28 13ZM8 15L8 16L7 16L7 17L9 17L9 15ZM0 17L0 21L1 21L1 17ZM8 21L8 23L10 23L10 24L11 24L11 23L10 23L10 22L9 22L9 21ZM21 21L21 24L24 24L24 21ZM22 22L22 23L23 23L23 22ZM14 23L14 24L16 24L16 23ZM8 24L8 29L9 29L9 27L10 27L10 28L11 28L11 29L12 29L12 27L13 27L13 26L11 26L11 27L10 27L10 25L9 25L9 24ZM25 25L25 26L27 26L27 25ZM20 26L20 27L21 27L21 28L22 28L22 29L23 29L23 28L22 28L22 27L21 27L21 26ZM19 28L19 29L20 29L20 28ZM0 0L0 7L7 7L7 0ZM1 1L1 6L6 6L6 1ZM2 2L2 5L5 5L5 2ZM22 0L22 7L29 7L29 0ZM23 1L23 6L28 6L28 1ZM24 2L24 5L27 5L27 2ZM0 22L0 29L7 29L7 22ZM1 23L1 28L6 28L6 23ZM2 24L2 27L5 27L5 24Z" fill="#000000"/></g></g></svg>
