<?xml version="1.0" encoding="UTF-8"?>
<svg xmlns="http://www.w3.org/2000/svg" version="1.1" width="300" height="300" viewBox="0 0 300 300"><rect x="0" y="0" width="300" height="300" fill="#ffffff"/><g transform="scale(12)"><g transform="translate(0,0)"><path fill-rule="evenodd" d="M10 0L10 1L9 1L9 2L8 2L8 3L9 3L9 5L10 5L10 7L11 7L11 10L10 10L10 9L9 9L9 6L8 6L8 8L4 8L4 9L3 9L3 8L0 8L0 9L2 9L2 10L0 10L0 11L2 11L2 12L0 12L0 13L2 13L2 12L3 12L3 11L2 11L2 10L4 10L4 13L3 13L3 14L2 14L2 15L1 15L1 14L0 14L0 15L1 15L1 16L0 16L0 17L1 17L1 16L2 16L2 17L3 17L3 16L4 16L4 17L5 17L5 16L6 16L6 17L8 17L8 21L9 21L9 18L10 18L10 17L11 17L11 18L15 18L15 19L13 19L13 20L16 20L16 21L20 21L20 24L19 24L19 23L18 23L18 24L17 24L17 22L15 22L15 21L10 21L10 23L11 23L11 24L10 24L10 25L11 25L11 24L12 24L12 25L13 25L13 24L14 24L14 23L15 23L15 25L22 25L22 23L21 23L21 21L22 21L22 19L23 19L23 21L24 21L24 19L25 19L25 18L24 18L24 17L23 17L23 18L22 18L22 19L21 19L21 17L22 17L22 15L25 15L25 14L24 14L24 13L25 13L25 12L24 12L24 11L25 11L25 9L24 9L24 11L23 11L23 14L22 14L22 13L21 13L21 12L22 12L22 11L18 11L18 9L19 9L19 8L17 8L17 9L15 9L15 10L16 10L16 11L15 11L15 12L14 12L14 10L13 10L13 8L15 8L15 6L16 6L16 7L17 7L17 6L16 6L16 5L15 5L15 3L16 3L16 2L17 2L17 1L15 1L15 0L13 0L13 2L14 2L14 3L13 3L13 4L12 4L12 5L10 5L10 3L9 3L9 2L10 2L10 1L11 1L11 0ZM14 1L14 2L15 2L15 1ZM11 2L11 3L12 3L12 2ZM13 4L13 5L14 5L14 6L13 6L13 7L12 7L12 6L11 6L11 7L12 7L12 8L13 8L13 7L14 7L14 6L15 6L15 5L14 5L14 4ZM22 8L22 9L21 9L21 10L23 10L23 8ZM5 9L5 12L7 12L7 13L6 13L6 14L5 14L5 13L4 13L4 14L3 14L3 15L4 15L4 16L5 16L5 15L6 15L6 16L8 16L8 17L10 17L10 16L9 16L9 15L10 15L10 14L9 14L9 15L8 15L8 12L7 12L7 11L10 11L10 10L9 10L9 9L8 9L8 10L7 10L7 9ZM6 10L6 11L7 11L7 10ZM11 10L11 12L12 12L12 10ZM16 11L16 12L15 12L15 13L14 13L14 14L11 14L11 15L12 15L12 16L11 16L11 17L12 17L12 16L13 16L13 17L15 17L15 18L16 18L16 17L15 17L15 16L21 16L21 15L22 15L22 14L21 14L21 13L20 13L20 12L19 12L19 13L20 13L20 15L18 15L18 14L17 14L17 13L16 13L16 12L17 12L17 11ZM9 12L9 13L10 13L10 12ZM6 14L6 15L7 15L7 14ZM14 14L14 15L13 15L13 16L14 16L14 15L15 15L15 14ZM16 14L16 15L17 15L17 14ZM17 17L17 20L20 20L20 17ZM18 18L18 19L19 19L19 18ZM10 19L10 20L11 20L11 19ZM8 22L8 25L9 25L9 22ZM11 22L11 23L12 23L12 24L13 24L13 23L14 23L14 22ZM24 22L24 23L23 23L23 25L25 25L25 24L24 24L24 23L25 23L25 22ZM0 0L0 7L7 7L7 0ZM1 1L1 6L6 6L6 1ZM2 2L2 5L5 5L5 2ZM18 0L18 7L25 7L25 0ZM19 1L19 6L24 6L24 1ZM20 2L20 5L23 5L23 2ZM0 18L0 25L7 25L7 18ZM1 19L1 24L6 24L6 19ZM2 20L2 23L5 23L5 20Z" fill="#000000"/></g></g></svg>
