<?xml version="1.0" encoding="UTF-8"?>
<svg xmlns="http://www.w3.org/2000/svg" version="1.1" width="300" height="300" viewBox="0 0 300 300"><rect x="0" y="0" width="300" height="300" fill="#ffffff"/><g transform="scale(10.345)"><g transform="translate(0,0)"><path fill-rule="evenodd" d="M9 0L9 1L8 1L8 3L9 3L9 4L8 4L8 8L6 8L6 9L4 9L4 8L3 8L3 9L2 9L2 8L0 8L0 10L1 10L1 9L2 9L2 10L3 10L3 11L2 11L2 12L1 12L1 11L0 11L0 17L1 17L1 18L0 18L0 19L1 19L1 18L2 18L2 19L7 19L7 18L8 18L8 17L9 17L9 16L11 16L11 17L12 17L12 16L13 16L13 17L15 17L15 18L17 18L17 21L15 21L15 20L14 20L14 18L13 18L13 20L12 20L12 19L10 19L10 18L9 18L9 19L8 19L8 20L9 20L9 19L10 19L10 20L11 20L11 27L10 27L10 26L9 26L9 25L10 25L10 24L9 24L9 25L8 25L8 26L9 26L9 27L8 27L8 29L10 29L10 28L12 28L12 29L14 29L14 28L12 28L12 24L14 24L14 25L13 25L13 27L15 27L15 29L16 29L16 28L20 28L20 29L23 29L23 28L25 28L25 29L28 29L28 27L29 27L29 26L28 26L28 25L29 25L29 23L28 23L28 21L27 21L27 20L25 20L25 19L26 19L26 18L27 18L27 19L28 19L28 20L29 20L29 18L28 18L28 15L29 15L29 14L28 14L28 15L27 15L27 17L26 17L26 18L25 18L25 19L24 19L24 20L23 20L23 18L24 18L24 17L21 17L21 16L24 16L24 15L25 15L25 16L26 16L26 15L25 15L25 14L26 14L26 12L29 12L29 11L27 11L27 10L29 10L29 9L28 9L28 8L26 8L26 9L25 9L25 8L22 8L22 9L20 9L20 8L21 8L21 5L20 5L20 4L21 4L21 2L20 2L20 3L18 3L18 1L19 1L19 0L18 0L18 1L17 1L17 0L16 0L16 1L14 1L14 0L12 0L12 1L11 1L11 2L9 2L9 1L10 1L10 0ZM16 1L16 2L14 2L14 3L16 3L16 4L15 4L15 8L14 8L14 6L13 6L13 3L12 3L12 4L9 4L9 5L10 5L10 6L9 6L9 7L10 7L10 8L8 8L8 9L6 9L6 10L7 10L7 11L5 11L5 10L4 10L4 9L3 9L3 10L4 10L4 11L3 11L3 16L8 16L8 15L4 15L4 13L5 13L5 14L9 14L9 15L10 15L10 14L9 14L9 13L12 13L12 12L13 12L13 15L16 15L16 16L15 16L15 17L18 17L18 18L19 18L19 20L18 20L18 22L17 22L17 25L16 25L16 24L15 24L15 23L16 23L16 22L15 22L15 21L14 21L14 20L13 20L13 21L14 21L14 22L15 22L15 23L14 23L14 24L15 24L15 25L16 25L16 26L15 26L15 27L16 27L16 26L17 26L17 27L18 27L18 26L17 26L17 25L19 25L19 27L20 27L20 28L21 28L21 27L20 27L20 26L22 26L22 25L20 25L20 23L19 23L19 24L18 24L18 22L19 22L19 21L20 21L20 20L21 20L21 19L22 19L22 18L21 18L21 17L20 17L20 16L21 16L21 15L24 15L24 14L25 14L25 12L23 12L23 10L25 10L25 9L23 9L23 10L22 10L22 11L21 11L21 10L20 10L20 12L19 12L19 13L18 13L18 14L19 14L19 15L18 15L18 16L17 16L17 13L16 13L16 14L15 14L15 12L14 12L14 11L17 11L17 12L18 12L18 10L19 10L19 7L20 7L20 6L19 6L19 7L18 7L18 5L16 5L16 4L17 4L17 3L16 3L16 2L17 2L17 1ZM11 5L11 6L10 6L10 7L11 7L11 6L12 6L12 8L13 8L13 6L12 6L12 5ZM16 6L16 7L17 7L17 8L15 8L15 9L14 9L14 10L16 10L16 9L17 9L17 10L18 10L18 7L17 7L17 6ZM10 8L10 10L8 10L8 11L11 11L11 10L12 10L12 9L11 9L11 8ZM26 9L26 10L27 10L27 9ZM4 11L4 12L5 12L5 13L7 13L7 12L5 12L5 11ZM8 12L8 13L9 13L9 12ZM22 12L22 13L23 13L23 12ZM1 13L1 14L2 14L2 13ZM20 13L20 15L21 15L21 13ZM11 14L11 16L12 16L12 14ZM6 17L6 18L7 18L7 17ZM19 17L19 18L20 18L20 17ZM0 20L0 21L1 21L1 20ZM2 20L2 21L7 21L7 20ZM8 21L8 23L10 23L10 21ZM21 21L21 24L24 24L24 21ZM26 21L26 22L25 22L25 23L26 23L26 22L27 22L27 21ZM22 22L22 23L23 23L23 22ZM26 24L26 26L25 26L25 25L24 25L24 26L23 26L23 27L22 27L22 28L23 28L23 27L24 27L24 26L25 26L25 27L26 27L26 28L27 28L27 27L28 27L28 26L27 26L27 25L28 25L28 24ZM26 26L26 27L27 27L27 26ZM0 0L0 7L7 7L7 0ZM1 1L1 6L6 6L6 1ZM2 2L2 5L5 5L5 2ZM22 0L22 7L29 7L29 0ZM23 1L23 6L28 6L28 1ZM24 2L24 5L27 5L27 2ZM0 22L0 29L7 29L7 22ZM1 23L1 28L6 28L6 23ZM2 24L2 27L5 27L5 24Z" fill="#000000"/></g></g></svg>
