<?xml version="1.0" encoding="UTF-8"?>
<svg xmlns="http://www.w3.org/2000/svg" version="1.1" width="300" height="300" viewBox="0 0 300 300"><rect x="0" y="0" width="300" height="300" fill="#ffffff"/><g transform="scale(12)"><g transform="translate(0,0)"><path fill-rule="evenodd" d="M8 0L8 1L9 1L9 2L10 2L10 3L11 3L11 1L13 1L13 2L12 2L12 4L11 4L11 5L10 5L10 4L9 4L9 5L10 5L10 8L9 8L9 6L8 6L8 8L9 8L9 10L8 10L8 14L9 14L9 15L11 15L11 16L10 16L10 17L8 17L8 18L11 18L11 19L13 19L13 20L11 20L11 21L10 21L10 19L9 19L9 20L8 20L8 22L9 22L9 21L10 21L10 23L11 23L11 24L10 24L10 25L11 25L11 24L12 24L12 25L13 25L13 23L12 23L12 21L13 21L13 20L14 20L14 21L17 21L17 22L15 22L15 25L17 25L17 24L16 24L16 23L18 23L18 25L20 25L20 23L22 23L22 24L24 24L24 25L25 25L25 21L21 21L21 19L23 19L23 20L25 20L25 17L24 17L24 16L25 16L25 10L24 10L24 9L25 9L25 8L24 8L24 9L23 9L23 10L21 10L21 9L19 9L19 8L18 8L18 9L19 9L19 10L16 10L16 9L17 9L17 6L16 6L16 8L15 8L15 6L14 6L14 5L12 5L12 4L14 4L14 3L16 3L16 5L17 5L17 3L16 3L16 2L15 2L15 0L11 0L11 1L9 1L9 0ZM11 5L11 7L12 7L12 9L10 9L10 10L9 10L9 11L10 11L10 10L12 10L12 11L13 11L13 13L11 13L11 12L10 12L10 14L13 14L13 13L14 13L14 15L12 15L12 16L11 16L11 17L12 17L12 16L14 16L14 17L13 17L13 18L15 18L15 19L14 19L14 20L16 20L16 17L15 17L15 16L16 16L16 15L15 15L15 13L16 13L16 12L15 12L15 11L14 11L14 9L15 9L15 8L13 8L13 7L14 7L14 6L13 6L13 7L12 7L12 5ZM0 8L0 11L1 11L1 10L2 10L2 11L3 11L3 12L2 12L2 14L1 14L1 12L0 12L0 17L1 17L1 15L3 15L3 16L2 16L2 17L4 17L4 16L5 16L5 17L7 17L7 16L8 16L8 15L7 15L7 14L6 14L6 15L4 15L4 14L3 14L3 12L5 12L5 13L7 13L7 12L6 12L6 11L7 11L7 10L6 10L6 11L3 11L3 10L2 10L2 8ZM3 8L3 9L4 9L4 10L5 10L5 8ZM6 8L6 9L7 9L7 8ZM12 9L12 10L13 10L13 9ZM19 10L19 11L21 11L21 12L22 12L22 13L21 13L21 14L24 14L24 12L22 12L22 11L21 11L21 10ZM17 11L17 14L18 14L18 15L19 15L19 16L21 16L21 17L22 17L22 15L19 15L19 14L20 14L20 13L18 13L18 11ZM6 15L6 16L7 16L7 15ZM14 15L14 16L15 16L15 15ZM17 17L17 20L20 20L20 17ZM18 18L18 19L19 19L19 18ZM23 18L23 19L24 19L24 18ZM19 21L19 22L18 22L18 23L20 23L20 21ZM8 23L8 25L9 25L9 23ZM0 0L0 7L7 7L7 0ZM1 1L1 6L6 6L6 1ZM2 2L2 5L5 5L5 2ZM18 0L18 7L25 7L25 0ZM19 1L19 6L24 6L24 1ZM20 2L20 5L23 5L23 2ZM0 18L0 25L7 25L7 18ZM1 19L1 24L6 24L6 19ZM2 20L2 23L5 23L5 20Z" fill="#000000"/></g></g></svg>
