<?xml version="1.0" encoding="UTF-8"?>
<svg xmlns="http://www.w3.org/2000/svg" version="1.1" width="300" height="300" viewBox="0 0 300 300"><rect x="0" y="0" width="300" height="300" fill="#ffffff"/><g transform="scale(12)"><g transform="translate(0,0)"><path fill-rule="evenodd" d="M8 0L8 2L10 2L10 4L8 4L8 9L9 9L9 10L8 10L8 11L7 11L7 10L6 10L6 9L7 9L7 8L5 8L5 10L6 10L6 11L7 11L7 12L6 12L6 13L8 13L8 14L6 14L6 15L7 15L7 16L6 16L6 17L8 17L8 18L9 18L9 19L8 19L8 20L9 20L9 19L10 19L10 21L9 21L9 22L8 22L8 25L14 25L14 24L11 24L11 23L12 23L12 22L13 22L13 23L15 23L15 25L17 25L17 24L18 24L18 25L19 25L19 24L18 24L18 21L21 21L21 22L19 22L19 23L20 23L20 25L21 25L21 23L25 23L25 22L24 22L24 21L23 21L23 22L22 22L22 21L21 21L21 19L23 19L23 20L24 20L24 19L25 19L25 18L24 18L24 19L23 19L23 18L22 18L22 17L21 17L21 15L23 15L23 17L24 17L24 15L25 15L25 14L24 14L24 15L23 15L23 14L21 14L21 15L20 15L20 13L22 13L22 12L21 12L21 11L22 11L22 10L23 10L23 11L25 11L25 8L23 8L23 9L22 9L22 10L21 10L21 11L20 11L20 9L21 9L21 8L15 8L15 9L16 9L16 10L13 10L13 9L14 9L14 8L11 8L11 6L10 6L10 8L9 8L9 5L12 5L12 7L13 7L13 5L12 5L12 4L13 4L13 3L14 3L14 7L15 7L15 5L16 5L16 7L17 7L17 5L16 5L16 3L17 3L17 2L15 2L15 1L16 1L16 0L15 0L15 1L14 1L14 0L10 0L10 1L9 1L9 0ZM11 1L11 4L12 4L12 2L14 2L14 3L15 3L15 2L14 2L14 1ZM0 8L0 9L1 9L1 10L0 10L0 12L1 12L1 10L2 10L2 9L3 9L3 11L4 11L4 12L2 12L2 13L1 13L1 14L0 14L0 15L2 15L2 16L0 16L0 17L2 17L2 16L4 16L4 17L5 17L5 15L4 15L4 12L5 12L5 11L4 11L4 9L3 9L3 8ZM11 9L11 10L9 10L9 11L10 11L10 16L11 16L11 14L12 14L12 12L11 12L11 10L12 10L12 9ZM17 9L17 10L18 10L18 9ZM13 11L13 14L16 14L16 13L17 13L17 15L12 15L12 17L11 17L11 18L12 18L12 19L11 19L11 22L9 22L9 23L11 23L11 22L12 22L12 20L14 20L14 22L16 22L16 23L17 23L17 22L16 22L16 21L15 21L15 20L16 20L16 17L15 17L15 16L17 16L17 15L18 15L18 16L20 16L20 15L19 15L19 14L18 14L18 12L19 12L19 11L18 11L18 12L17 12L17 11L16 11L16 13L14 13L14 11ZM8 12L8 13L9 13L9 12ZM24 12L24 13L25 13L25 12ZM2 13L2 15L3 15L3 13ZM8 14L8 15L9 15L9 14ZM13 16L13 17L12 17L12 18L14 18L14 20L15 20L15 18L14 18L14 16ZM9 17L9 18L10 18L10 17ZM17 17L17 20L20 20L20 17ZM18 18L18 19L19 19L19 18ZM24 24L24 25L25 25L25 24ZM0 0L0 7L7 7L7 0ZM1 1L1 6L6 6L6 1ZM2 2L2 5L5 5L5 2ZM18 0L18 7L25 7L25 0ZM19 1L19 6L24 6L24 1ZM20 2L20 5L23 5L23 2ZM0 18L0 25L7 25L7 18ZM1 19L1 24L6 24L6 19ZM2 20L2 23L5 23L5 20Z" fill="#000000"/></g></g></svg>
