<?xml version="1.0" encoding="UTF-8"?>
<svg xmlns="http://www.w3.org/2000/svg" version="1.1" width="300" height="300" viewBox="0 0 300 300"><rect x="0" y="0" width="300" height="300" fill="#ffffff"/><g transform="scale(12)"><g transform="translate(0,0)"><path fill-rule="evenodd" d="M9 0L9 1L8 1L8 3L9 3L9 4L8 4L8 8L6 8L6 9L8 9L8 8L9 8L9 5L10 5L10 8L11 8L11 10L14 10L14 11L9 11L9 10L10 10L10 9L9 9L9 10L5 10L5 9L4 9L4 8L3 8L3 9L2 9L2 8L0 8L0 9L2 9L2 10L3 10L3 11L7 11L7 12L5 12L5 13L4 13L4 14L5 14L5 15L1 15L1 14L0 14L0 15L1 15L1 16L0 16L0 17L3 17L3 16L6 16L6 17L7 17L7 16L8 16L8 19L9 19L9 17L10 17L10 18L11 18L11 17L12 17L12 19L11 19L11 20L10 20L10 21L8 21L8 22L9 22L9 23L8 23L8 25L11 25L11 24L12 24L12 25L13 25L13 24L14 24L14 21L15 21L15 20L16 20L16 21L20 21L20 22L19 22L19 23L16 23L16 22L15 22L15 25L22 25L22 22L23 22L23 21L22 21L22 20L25 20L25 18L22 18L22 19L21 19L21 17L23 17L23 16L22 16L22 15L23 15L23 14L24 14L24 15L25 15L25 14L24 14L24 13L25 13L25 12L23 12L23 13L21 13L21 12L22 12L22 11L23 11L23 9L24 9L24 11L25 11L25 9L24 9L24 8L22 8L22 9L21 9L21 8L18 8L18 9L17 9L17 6L16 6L16 5L17 5L17 4L16 4L16 3L17 3L17 2L16 2L16 1L15 1L15 0L13 0L13 1L11 1L11 0ZM9 1L9 3L10 3L10 5L11 5L11 8L12 8L12 5L13 5L13 3L16 3L16 2L14 2L14 1L13 1L13 3L12 3L12 4L11 4L11 3L10 3L10 2L11 2L11 1ZM15 4L15 5L16 5L16 4ZM13 6L13 9L14 9L14 6ZM15 6L15 9L16 9L16 6ZM3 9L3 10L4 10L4 9ZM18 9L18 11L17 11L17 10L15 10L15 11L14 11L14 12L13 12L13 14L12 14L12 15L15 15L15 16L14 16L14 17L13 17L13 19L12 19L12 20L13 20L13 21L11 21L11 23L12 23L12 24L13 24L13 23L12 23L12 22L13 22L13 21L14 21L14 20L15 20L15 19L14 19L14 17L15 17L15 18L16 18L16 17L15 17L15 16L19 16L19 15L22 15L22 14L21 14L21 13L20 13L20 12L21 12L21 11L22 11L22 10L21 10L21 9ZM0 10L0 12L2 12L2 14L3 14L3 12L2 12L2 11L1 11L1 10ZM19 10L19 11L18 11L18 12L16 12L16 11L15 11L15 12L16 12L16 15L19 15L19 12L20 12L20 10ZM8 11L8 13L9 13L9 14L7 14L7 13L6 13L6 14L7 14L7 15L6 15L6 16L7 16L7 15L8 15L8 16L10 16L10 15L11 15L11 13L10 13L10 12L9 12L9 11ZM17 17L17 20L20 20L20 17ZM18 18L18 19L19 19L19 18ZM24 22L24 23L25 23L25 22ZM19 23L19 24L21 24L21 23ZM23 24L23 25L25 25L25 24ZM0 0L0 7L7 7L7 0ZM1 1L1 6L6 6L6 1ZM2 2L2 5L5 5L5 2ZM18 0L18 7L25 7L25 0ZM19 1L19 6L24 6L24 1ZM20 2L20 5L23 5L23 2ZM0 18L0 25L7 25L7 18ZM1 19L1 24L6 24L6 19ZM2 20L2 23L5 23L5 20Z" fill="#000000"/></g></g></svg>
