<?xml version="1.0" encoding="UTF-8"?>
<svg xmlns="http://www.w3.org/2000/svg" version="1.1" width="300" height="300" viewBox="0 0 300 300"><rect x="0" y="0" width="300" height="300" fill="#ffffff"/><g transform="scale(12)"><g transform="translate(0,0)"><path fill-rule="evenodd" d="M9 0L9 1L8 1L8 2L9 2L9 3L8 3L8 4L10 4L10 7L11 7L11 4L12 4L12 5L14 5L14 7L15 7L15 8L14 8L14 9L15 9L15 10L14 10L14 12L12 12L12 11L13 11L13 10L11 10L11 11L10 11L10 9L11 9L11 8L6 8L6 9L5 9L5 8L0 8L0 10L1 10L1 13L0 13L0 17L1 17L1 14L3 14L3 10L4 10L4 11L8 11L8 12L6 12L6 13L7 13L7 14L5 14L5 16L4 16L4 17L5 17L5 16L6 16L6 17L8 17L8 19L9 19L9 20L8 20L8 25L9 25L9 24L10 24L10 25L12 25L12 24L13 24L13 23L14 23L14 25L16 25L16 24L17 24L17 25L19 25L19 23L17 23L17 22L19 22L19 21L21 21L21 24L22 24L22 25L25 25L25 21L23 21L23 20L22 20L22 18L21 18L21 16L22 16L22 17L23 17L23 16L25 16L25 10L24 10L24 8L23 8L23 9L22 9L22 8L21 8L21 10L20 10L20 8L19 8L19 10L18 10L18 11L17 11L17 9L18 9L18 8L17 8L17 9L15 9L15 8L16 8L16 7L17 7L17 4L15 4L15 3L17 3L17 0L14 0L14 1L15 1L15 3L14 3L14 4L12 4L12 2L13 2L13 1L11 1L11 2L10 2L10 0ZM10 3L10 4L11 4L11 3ZM14 4L14 5L15 5L15 4ZM8 5L8 7L9 7L9 5ZM12 6L12 9L13 9L13 6ZM15 6L15 7L16 7L16 6ZM1 9L1 10L3 10L3 9ZM6 9L6 10L8 10L8 11L9 11L9 10L8 10L8 9ZM19 10L19 11L20 11L20 10ZM23 10L23 11L22 11L22 12L24 12L24 10ZM15 11L15 12L14 12L14 13L13 13L13 15L12 15L12 13L11 13L11 12L10 12L10 13L9 13L9 14L8 14L8 15L9 15L9 17L10 17L10 13L11 13L11 16L13 16L13 17L11 17L11 19L10 19L10 18L9 18L9 19L10 19L10 21L9 21L9 22L10 22L10 24L12 24L12 23L13 23L13 21L14 21L14 22L15 22L15 21L14 21L14 19L13 19L13 18L15 18L15 19L16 19L16 18L15 18L15 17L14 17L14 16L15 16L15 12L17 12L17 11ZM4 12L4 13L5 13L5 12ZM19 12L19 13L17 13L17 14L16 14L16 16L17 16L17 14L18 14L18 15L19 15L19 16L20 16L20 14L21 14L21 12ZM19 13L19 14L20 14L20 13ZM22 13L22 16L23 16L23 14L24 14L24 13ZM2 15L2 16L3 16L3 15ZM6 15L6 16L7 16L7 15ZM17 17L17 20L20 20L20 17ZM24 17L24 18L23 18L23 19L25 19L25 17ZM18 18L18 19L19 19L19 18ZM12 19L12 21L13 21L13 19ZM21 20L21 21L22 21L22 24L24 24L24 22L23 22L23 21L22 21L22 20ZM10 21L10 22L11 22L11 21ZM15 23L15 24L16 24L16 23ZM0 0L0 7L7 7L7 0ZM1 1L1 6L6 6L6 1ZM2 2L2 5L5 5L5 2ZM18 0L18 7L25 7L25 0ZM19 1L19 6L24 6L24 1ZM20 2L20 5L23 5L23 2ZM0 18L0 25L7 25L7 18ZM1 19L1 24L6 24L6 19ZM2 20L2 23L5 23L5 20Z" fill="#000000"/></g></g></svg>
