<?xml version="1.0" encoding="UTF-8"?>
<svg xmlns="http://www.w3.org/2000/svg" version="1.1" width="300" height="300" viewBox="0 0 300 300"><rect x="0" y="0" width="300" height="300" fill="#ffffff"/><g transform="scale(12)"><g transform="translate(0,0)"><path fill-rule="evenodd" d="M9 0L9 1L8 1L8 2L9 2L9 3L8 3L8 4L10 4L10 7L11 7L11 4L12 4L12 5L13 5L13 4L12 4L12 2L13 2L13 1L15 1L15 2L14 2L14 4L15 4L15 6L14 6L14 11L15 11L15 12L14 12L14 14L13 14L13 13L12 13L12 11L13 11L13 10L11 10L11 11L10 11L10 9L11 9L11 8L6 8L6 9L5 9L5 8L0 8L0 10L1 10L1 9L2 9L2 13L1 13L1 12L0 12L0 17L1 17L1 14L2 14L2 15L3 15L3 14L4 14L4 13L5 13L5 14L6 14L6 15L5 15L5 16L4 16L4 17L5 17L5 16L6 16L6 17L7 17L7 16L8 16L8 19L9 19L9 20L8 20L8 25L9 25L9 22L10 22L10 25L11 25L11 22L10 22L10 21L9 21L9 20L11 20L11 21L12 21L12 22L13 22L13 23L12 23L12 25L13 25L13 24L14 24L14 25L15 25L15 24L17 24L17 25L19 25L19 24L20 24L20 23L19 23L19 24L18 24L18 23L15 23L15 22L14 22L14 21L12 21L12 19L13 19L13 18L14 18L14 17L15 17L15 16L14 16L14 17L13 17L13 15L14 15L14 14L15 14L15 15L16 15L16 14L15 14L15 13L16 13L16 10L17 10L17 11L18 11L18 10L20 10L20 12L21 12L21 14L18 14L18 15L17 15L17 16L16 16L16 19L14 19L14 20L15 20L15 21L17 21L17 22L22 22L22 23L21 23L21 24L22 24L22 25L25 25L25 20L22 20L22 18L21 18L21 16L22 16L22 17L23 17L23 16L25 16L25 10L24 10L24 8L23 8L23 9L22 9L22 8L21 8L21 10L20 10L20 8L19 8L19 9L18 9L18 8L17 8L17 4L16 4L16 2L17 2L17 0L13 0L13 1L11 1L11 2L10 2L10 0ZM10 3L10 4L11 4L11 3ZM8 5L8 7L9 7L9 5ZM12 6L12 9L13 9L13 6ZM15 6L15 8L16 8L16 9L17 9L17 10L18 10L18 9L17 9L17 8L16 8L16 6ZM6 9L6 10L7 10L7 9ZM8 9L8 10L9 10L9 9ZM3 10L3 11L5 11L5 12L8 12L8 14L9 14L9 15L8 15L8 16L9 16L9 19L11 19L11 18L13 18L13 17L12 17L12 15L13 15L13 14L12 14L12 13L11 13L11 12L10 12L10 13L11 13L11 14L9 14L9 11L5 11L5 10ZM23 10L23 11L22 11L22 12L24 12L24 10ZM17 12L17 13L19 13L19 12ZM6 13L6 14L7 14L7 13ZM22 13L22 16L23 16L23 14L24 14L24 13ZM6 15L6 16L7 16L7 15ZM9 15L9 16L10 16L10 15ZM20 15L20 16L21 16L21 15ZM2 16L2 17L3 17L3 16ZM17 17L17 20L20 20L20 17ZM24 17L24 18L23 18L23 19L25 19L25 17ZM18 18L18 19L19 19L19 18ZM21 20L21 21L22 21L22 22L23 22L23 23L22 23L22 24L24 24L24 22L23 22L23 21L22 21L22 20ZM14 23L14 24L15 24L15 23ZM0 0L0 7L7 7L7 0ZM1 1L1 6L6 6L6 1ZM2 2L2 5L5 5L5 2ZM18 0L18 7L25 7L25 0ZM19 1L19 6L24 6L24 1ZM20 2L20 5L23 5L23 2ZM0 18L0 25L7 25L7 18ZM1 19L1 24L6 24L6 19ZM2 20L2 23L5 23L5 20Z" fill="#000000"/></g></g></svg>
