<?xml version="1.0" encoding="UTF-8"?>
<svg xmlns="http://www.w3.org/2000/svg" version="1.1" width="300" height="300" viewBox="0 0 300 300"><rect x="0" y="0" width="300" height="300" fill="#ffffff"/><g transform="scale(12)"><g transform="translate(0,0)"><path fill-rule="evenodd" d="M9 0L9 1L8 1L8 3L9 3L9 4L8 4L8 8L6 8L6 9L4 9L4 8L3 8L3 9L2 9L2 8L0 8L0 9L2 9L2 12L1 12L1 14L0 14L0 15L1 15L1 16L0 16L0 17L2 17L2 15L4 15L4 16L3 16L3 17L4 17L4 16L6 16L6 17L8 17L8 19L9 19L9 18L10 18L10 19L11 19L11 20L12 20L12 24L13 24L13 25L14 25L14 23L15 23L15 22L16 22L16 25L19 25L19 24L18 24L18 23L17 23L17 21L19 21L19 23L20 23L20 25L22 25L22 23L21 23L21 22L22 22L22 20L23 20L23 21L24 21L24 20L25 20L25 18L22 18L22 19L21 19L21 17L23 17L23 16L22 16L22 15L23 15L23 14L24 14L24 15L25 15L25 14L24 14L24 13L25 13L25 12L23 12L23 13L21 13L21 12L22 12L22 11L23 11L23 9L24 9L24 11L25 11L25 9L24 9L24 8L22 8L22 9L21 9L21 8L18 8L18 9L17 9L17 1L16 1L16 0L12 0L12 1L11 1L11 2L9 2L9 1L10 1L10 0ZM13 1L13 3L12 3L12 4L9 4L9 5L10 5L10 6L9 6L9 7L10 7L10 8L8 8L8 9L9 9L9 10L10 10L10 8L11 8L11 9L12 9L12 10L11 10L11 11L8 11L8 12L7 12L7 11L6 11L6 10L7 10L7 9L6 9L6 10L5 10L5 11L6 11L6 12L7 12L7 13L6 13L6 14L5 14L5 12L4 12L4 10L3 10L3 12L2 12L2 13L3 13L3 14L5 14L5 15L6 15L6 16L7 16L7 15L9 15L9 16L8 16L8 17L9 17L9 16L10 16L10 18L11 18L11 19L12 19L12 20L14 20L14 19L13 19L13 18L14 18L14 17L16 17L16 16L19 16L19 15L20 15L20 14L21 14L21 15L22 15L22 14L21 14L21 13L20 13L20 12L21 12L21 11L22 11L22 10L21 10L21 9L19 9L19 10L20 10L20 11L18 11L18 10L17 10L17 11L18 11L18 12L19 12L19 13L20 13L20 14L17 14L17 13L16 13L16 9L12 9L12 6L13 6L13 8L14 8L14 5L15 5L15 4L14 4L14 2L15 2L15 1ZM13 4L13 5L14 5L14 4ZM11 5L11 6L10 6L10 7L11 7L11 6L12 6L12 5ZM15 6L15 7L16 7L16 6ZM13 10L13 12L12 12L12 14L11 14L11 13L10 13L10 14L9 14L9 12L8 12L8 14L9 14L9 15L10 15L10 16L11 16L11 18L13 18L13 17L12 17L12 14L13 14L13 13L15 13L15 10ZM3 12L3 13L4 13L4 12ZM1 14L1 15L2 15L2 14ZM6 14L6 15L7 15L7 14ZM10 14L10 15L11 15L11 14ZM16 14L16 15L15 15L15 16L16 16L16 15L17 15L17 14ZM13 15L13 16L14 16L14 15ZM17 17L17 20L20 20L20 17ZM18 18L18 19L19 19L19 18ZM23 19L23 20L24 20L24 19ZM9 20L9 21L8 21L8 22L9 22L9 23L8 23L8 25L10 25L10 22L11 22L11 21L10 21L10 20ZM15 20L15 21L14 21L14 22L15 22L15 21L16 21L16 20ZM9 21L9 22L10 22L10 21ZM20 21L20 22L21 22L21 21ZM24 22L24 23L25 23L25 22ZM23 24L23 25L25 25L25 24ZM0 0L0 7L7 7L7 0ZM1 1L1 6L6 6L6 1ZM2 2L2 5L5 5L5 2ZM18 0L18 7L25 7L25 0ZM19 1L19 6L24 6L24 1ZM20 2L20 5L23 5L23 2ZM0 18L0 25L7 25L7 18ZM1 19L1 24L6 24L6 19ZM2 20L2 23L5 23L5 20Z" fill="#000000"/></g></g></svg>
