<?xml version="1.0" encoding="UTF-8"?>
<svg xmlns="http://www.w3.org/2000/svg" version="1.1" width="300" height="300" viewBox="0 0 300 300"><rect x="0" y="0" width="300" height="300" fill="#ffffff"/><g transform="scale(12)"><g transform="translate(0,0)"><path fill-rule="evenodd" d="M9 0L9 1L11 1L11 2L9 2L9 3L8 3L8 5L9 5L9 6L8 6L8 7L9 7L9 9L10 9L10 10L8 10L8 11L7 11L7 10L6 10L6 9L8 9L8 8L5 8L5 9L2 9L2 8L0 8L0 9L1 9L1 10L0 10L0 11L1 11L1 12L2 12L2 11L5 11L5 12L6 12L6 13L5 13L5 14L4 14L4 13L2 13L2 14L4 14L4 15L5 15L5 16L2 16L2 17L5 17L5 16L6 16L6 17L8 17L8 20L9 20L9 21L10 21L10 22L9 22L9 23L8 23L8 25L9 25L9 23L11 23L11 21L10 21L10 20L9 20L9 19L12 19L12 21L13 21L13 19L15 19L15 18L16 18L16 20L14 20L14 22L12 22L12 25L14 25L14 24L15 24L15 23L14 23L14 22L20 22L20 21L21 21L21 19L23 19L23 18L22 18L22 17L23 17L23 16L25 16L25 10L24 10L24 9L23 9L23 10L21 10L21 9L22 9L22 8L20 8L20 9L18 9L18 10L17 10L17 11L18 11L18 10L20 10L20 12L18 12L18 13L22 13L22 12L21 12L21 11L23 11L23 10L24 10L24 14L23 14L23 15L22 15L22 14L18 14L18 15L16 15L16 13L17 13L17 12L15 12L15 11L16 11L16 10L15 10L15 11L14 11L14 10L12 10L12 11L14 11L14 12L13 12L13 14L12 14L12 15L13 15L13 14L14 14L14 12L15 12L15 15L14 15L14 16L11 16L11 13L12 13L12 12L11 12L11 11L10 11L10 10L11 10L11 8L10 8L10 7L11 7L11 4L12 4L12 5L13 5L13 3L12 3L12 2L13 2L13 1L12 1L12 0ZM14 0L14 1L16 1L16 2L15 2L15 3L16 3L16 4L15 4L15 5L14 5L14 9L15 9L15 5L16 5L16 8L17 8L17 3L16 3L16 2L17 2L17 1L16 1L16 0ZM9 3L9 5L10 5L10 3ZM9 6L9 7L10 7L10 6ZM12 6L12 7L13 7L13 6ZM12 8L12 9L13 9L13 8ZM1 10L1 11L2 11L2 10ZM6 11L6 12L7 12L7 11ZM8 11L8 12L10 12L10 11ZM0 13L0 17L1 17L1 13ZM6 13L6 14L8 14L8 15L6 15L6 16L8 16L8 15L9 15L9 17L10 17L10 18L12 18L12 19L13 19L13 18L15 18L15 17L16 17L16 16L14 16L14 17L10 17L10 14L8 14L8 13ZM19 15L19 16L20 16L20 15ZM21 15L21 17L22 17L22 15ZM17 17L17 20L20 20L20 17ZM24 17L24 20L22 20L22 22L24 22L24 25L25 25L25 21L24 21L24 20L25 20L25 17ZM18 18L18 19L19 19L19 18ZM13 23L13 24L14 24L14 23ZM16 23L16 25L17 25L17 24L18 24L18 25L21 25L21 24L18 24L18 23ZM0 0L0 7L7 7L7 0ZM1 1L1 6L6 6L6 1ZM2 2L2 5L5 5L5 2ZM18 0L18 7L25 7L25 0ZM19 1L19 6L24 6L24 1ZM20 2L20 5L23 5L23 2ZM0 18L0 25L7 25L7 18ZM1 19L1 24L6 24L6 19ZM2 20L2 23L5 23L5 20Z" fill="#000000"/></g></g></svg>
