<?xml version="1.0" encoding="UTF-8"?>
<svg xmlns="http://www.w3.org/2000/svg" version="1.1" width="300" height="300" viewBox="0 0 300 300"><rect x="0" y="0" width="300" height="300" fill="#ffffff"/><g transform="scale(12)"><g transform="translate(0,0)"><path fill-rule="evenodd" d="M10 0L10 2L11 2L11 0ZM12 0L12 1L13 1L13 2L12 2L12 4L13 4L13 2L15 2L15 3L14 3L14 4L15 4L15 6L14 6L14 9L13 9L13 8L12 8L12 7L13 7L13 5L11 5L11 6L10 6L10 4L11 4L11 3L8 3L8 4L9 4L9 5L8 5L8 7L9 7L9 8L6 8L6 9L7 9L7 10L6 10L6 11L4 11L4 12L2 12L2 13L0 13L0 17L1 17L1 14L2 14L2 13L4 13L4 14L5 14L5 13L4 13L4 12L6 12L6 13L11 13L11 12L9 12L9 10L8 10L8 9L10 9L10 11L11 11L11 9L12 9L12 12L13 12L13 13L14 13L14 12L15 12L15 13L16 13L16 10L17 10L17 11L18 11L18 10L20 10L20 12L21 12L21 15L20 15L20 14L18 14L18 15L17 15L17 16L16 16L16 19L15 19L15 20L14 20L14 21L17 21L17 22L22 22L22 21L23 21L23 22L24 22L24 24L22 24L22 23L19 23L19 24L18 24L18 23L14 23L14 25L15 25L15 24L17 24L17 25L19 25L19 24L22 24L22 25L25 25L25 21L23 21L23 20L24 20L24 19L25 19L25 17L24 17L24 18L23 18L23 20L22 20L22 18L21 18L21 16L22 16L22 17L23 17L23 16L25 16L25 10L24 10L24 8L23 8L23 9L22 9L22 8L21 8L21 10L20 10L20 8L19 8L19 9L18 9L18 8L17 8L17 6L16 6L16 5L17 5L17 4L15 4L15 3L16 3L16 2L17 2L17 0L15 0L15 1L14 1L14 0ZM8 1L8 2L9 2L9 1ZM9 6L9 7L10 7L10 6ZM11 6L11 7L12 7L12 6ZM15 6L15 8L16 8L16 6ZM0 8L0 9L2 9L2 10L1 10L1 11L0 11L0 12L1 12L1 11L3 11L3 10L4 10L4 9L5 9L5 8ZM10 8L10 9L11 9L11 8ZM17 9L17 10L18 10L18 9ZM13 10L13 12L14 12L14 11L15 11L15 10ZM23 10L23 11L22 11L22 12L24 12L24 10ZM6 11L6 12L7 12L7 11ZM17 12L17 13L19 13L19 12ZM22 13L22 16L23 16L23 14L24 14L24 13ZM6 14L6 15L8 15L8 14ZM9 14L9 15L10 15L10 16L9 16L9 17L8 17L8 19L9 19L9 20L8 20L8 25L9 25L9 22L10 22L10 21L11 21L11 20L10 20L10 18L11 18L11 17L10 17L10 16L11 16L11 14ZM15 14L15 15L16 15L16 14ZM4 15L4 16L2 16L2 17L5 17L5 15ZM12 15L12 17L13 17L13 18L12 18L12 19L14 19L14 17L15 17L15 16L14 16L14 17L13 17L13 15ZM19 15L19 16L20 16L20 15ZM6 16L6 17L7 17L7 16ZM9 17L9 18L10 18L10 17ZM17 17L17 20L20 20L20 17ZM18 18L18 19L19 19L19 18ZM9 20L9 21L10 21L10 20ZM21 20L21 21L22 21L22 20ZM10 23L10 24L12 24L12 25L13 25L13 24L12 24L12 23ZM0 0L0 7L7 7L7 0ZM1 1L1 6L6 6L6 1ZM2 2L2 5L5 5L5 2ZM18 0L18 7L25 7L25 0ZM19 1L19 6L24 6L24 1ZM20 2L20 5L23 5L23 2ZM0 18L0 25L7 25L7 18ZM1 19L1 24L6 24L6 19ZM2 20L2 23L5 23L5 20Z" fill="#000000"/></g></g></svg>
