<?xml version="1.0" encoding="UTF-8"?>
<svg xmlns="http://www.w3.org/2000/svg" version="1.1" width="300" height="300" viewBox="0 0 300 300"><rect x="0" y="0" width="300" height="300" fill="#ffffff"/><g transform="scale(12)"><g transform="translate(0,0)"><path fill-rule="evenodd" d="M10 0L10 1L9 1L9 2L8 2L8 3L9 3L9 4L10 4L10 5L9 5L9 6L8 6L8 8L4 8L4 9L3 9L3 8L0 8L0 10L1 10L1 11L0 11L0 12L1 12L1 13L3 13L3 12L4 12L4 9L5 9L5 10L6 10L6 11L7 11L7 12L5 12L5 13L4 13L4 14L2 14L2 15L1 15L1 14L0 14L0 15L1 15L1 16L0 16L0 17L1 17L1 16L2 16L2 17L4 17L4 15L5 15L5 16L6 16L6 17L7 17L7 16L9 16L9 17L8 17L8 21L9 21L9 22L8 22L8 25L13 25L13 24L14 24L14 23L15 23L15 25L19 25L19 24L20 24L20 25L22 25L22 23L23 23L23 25L25 25L25 24L24 24L24 23L25 23L25 22L24 22L24 23L23 23L23 22L22 22L22 19L24 19L24 20L23 20L23 21L24 21L24 20L25 20L25 18L24 18L24 17L23 17L23 18L22 18L22 19L21 19L21 17L22 17L22 15L25 15L25 14L24 14L24 13L25 13L25 12L24 12L24 11L25 11L25 9L24 9L24 11L23 11L23 14L22 14L22 13L21 13L21 12L22 12L22 11L18 11L18 9L19 9L19 8L17 8L17 9L15 9L15 10L13 10L13 8L15 8L15 6L16 6L16 7L17 7L17 5L15 5L15 4L17 4L17 3L15 3L15 2L17 2L17 1L15 1L15 2L14 2L14 3L13 3L13 1L11 1L11 0ZM9 2L9 3L10 3L10 2ZM11 2L11 3L12 3L12 4L11 4L11 5L12 5L12 6L11 6L11 7L12 7L12 8L13 8L13 7L14 7L14 6L13 6L13 5L14 5L14 4L13 4L13 3L12 3L12 2ZM9 6L9 7L10 7L10 6ZM12 6L12 7L13 7L13 6ZM9 8L9 9L6 9L6 10L7 10L7 11L8 11L8 12L7 12L7 13L5 13L5 15L6 15L6 16L7 16L7 15L9 15L9 16L10 16L10 14L11 14L11 15L14 15L14 16L13 16L13 17L14 17L14 18L11 18L11 19L9 19L9 21L10 21L10 23L9 23L9 24L13 24L13 23L14 23L14 22L17 22L17 24L18 24L18 23L20 23L20 21L16 21L16 20L15 20L15 21L14 21L14 22L13 22L13 23L12 23L12 22L11 22L11 21L12 21L12 20L13 20L13 19L14 19L14 18L16 18L16 17L15 17L15 16L21 16L21 15L22 15L22 14L21 14L21 13L20 13L20 12L19 12L19 13L20 13L20 14L19 14L19 15L18 15L18 14L17 14L17 13L16 13L16 12L17 12L17 11L16 11L16 10L15 10L15 11L16 11L16 12L13 12L13 14L11 14L11 13L12 13L12 12L11 12L11 11L12 11L12 10L11 10L11 9L10 9L10 8ZM22 8L22 9L21 9L21 10L23 10L23 8ZM2 9L2 11L1 11L1 12L3 12L3 9ZM9 10L9 11L10 11L10 10ZM7 13L7 14L6 14L6 15L7 15L7 14L10 14L10 13ZM14 14L14 15L15 15L15 14ZM16 14L16 15L17 15L17 14ZM2 15L2 16L3 16L3 15ZM9 17L9 18L10 18L10 17ZM17 17L17 20L20 20L20 17ZM18 18L18 19L19 19L19 18ZM11 19L11 20L10 20L10 21L11 21L11 20L12 20L12 19ZM0 0L0 7L7 7L7 0ZM1 1L1 6L6 6L6 1ZM2 2L2 5L5 5L5 2ZM18 0L18 7L25 7L25 0ZM19 1L19 6L24 6L24 1ZM20 2L20 5L23 5L23 2ZM0 18L0 25L7 25L7 18ZM1 19L1 24L6 24L6 19ZM2 20L2 23L5 23L5 20Z" fill="#000000"/></g></g></svg>
