<?xml version="1.0" encoding="UTF-8"?>
<svg xmlns="http://www.w3.org/2000/svg" version="1.1" width="300" height="300" viewBox="0 0 300 300"><rect x="0" y="0" width="300" height="300" fill="#ffffff"/><g transform="scale(10.345)"><g transform="translate(0,0)"><path fill-rule="evenodd" d="M8 0L8 2L10 2L10 4L8 4L8 9L7 9L7 8L5 8L5 9L7 9L7 10L6 10L6 11L5 11L5 12L4 12L4 13L3 13L3 11L4 11L4 9L3 9L3 8L0 8L0 9L3 9L3 11L2 11L2 12L1 12L1 11L0 11L0 12L1 12L1 14L3 14L3 15L4 15L4 16L3 16L3 17L2 17L2 15L0 15L0 16L1 16L1 17L2 17L2 18L0 18L0 19L2 19L2 20L0 20L0 21L2 21L2 20L4 20L4 19L5 19L5 20L6 20L6 21L8 21L8 22L9 22L9 23L8 23L8 24L9 24L9 26L8 26L8 29L9 29L9 26L10 26L10 29L14 29L14 27L13 27L13 28L11 28L11 27L12 27L12 26L10 26L10 24L13 24L13 26L15 26L15 27L16 27L16 26L18 26L18 24L19 24L19 28L20 28L20 29L24 29L24 28L25 28L25 29L27 29L27 28L25 28L25 27L29 27L29 22L28 22L28 24L27 24L27 25L28 25L28 26L26 26L26 25L25 25L25 23L26 23L26 21L25 21L25 19L26 19L26 18L25 18L25 19L24 19L24 16L23 16L23 15L22 15L22 14L24 14L24 15L29 15L29 13L28 13L28 12L29 12L29 8L27 8L27 9L28 9L28 10L24 10L24 9L25 9L25 8L21 8L21 9L20 9L20 7L21 7L21 5L20 5L20 3L21 3L21 2L19 2L19 1L20 1L20 0L19 0L19 1L18 1L18 0L15 0L15 1L13 1L13 0L11 0L11 1L9 1L9 0ZM11 1L11 2L12 2L12 1ZM15 1L15 2L16 2L16 1ZM13 2L13 3L11 3L11 4L12 4L12 6L11 6L11 5L9 5L9 8L10 8L10 6L11 6L11 7L12 7L12 6L13 6L13 8L11 8L11 10L7 10L7 11L6 11L6 12L5 12L5 13L4 13L4 14L5 14L5 13L6 13L6 14L7 14L7 15L5 15L5 16L4 16L4 17L3 17L3 18L5 18L5 16L7 16L7 17L6 17L6 18L7 18L7 19L6 19L6 20L8 20L8 21L9 21L9 20L13 20L13 19L14 19L14 21L13 21L13 22L16 22L16 23L17 23L17 24L16 24L16 25L15 25L15 26L16 26L16 25L17 25L17 24L18 24L18 23L19 23L19 22L20 22L20 21L19 21L19 20L23 20L23 19L21 19L21 18L22 18L22 17L21 17L21 18L20 18L20 16L19 16L19 15L17 15L17 16L18 16L18 17L17 17L17 18L16 18L16 16L15 16L15 18L13 18L13 16L14 16L14 15L13 15L13 16L11 16L11 15L12 15L12 13L11 13L11 12L13 12L13 11L14 11L14 13L13 13L13 14L16 14L16 13L15 13L15 12L16 12L16 11L17 11L17 14L20 14L20 13L18 13L18 12L20 12L20 11L22 11L22 12L23 12L23 11L24 11L24 10L23 10L23 11L22 11L22 9L21 9L21 10L20 10L20 9L19 9L19 8L18 8L18 6L19 6L19 7L20 7L20 5L17 5L17 4L18 4L18 3L19 3L19 2L18 2L18 3L15 3L15 4L16 4L16 6L15 6L15 5L13 5L13 4L14 4L14 2ZM14 6L14 8L13 8L13 10L15 10L15 11L16 11L16 10L15 10L15 8L16 8L16 9L18 9L18 11L20 11L20 10L19 10L19 9L18 9L18 8L17 8L17 6L16 6L16 7L15 7L15 6ZM11 10L11 11L12 11L12 10ZM7 11L7 12L6 12L6 13L8 13L8 15L9 15L9 13L10 13L10 11L9 11L9 13L8 13L8 11ZM25 11L25 12L24 12L24 14L25 14L25 13L26 13L26 14L27 14L27 12L28 12L28 11ZM21 15L21 16L22 16L22 15ZM8 16L8 17L7 17L7 18L9 18L9 19L8 19L8 20L9 20L9 19L10 19L10 17L11 17L11 16ZM28 16L28 17L29 17L29 16ZM18 17L18 20L15 20L15 21L16 21L16 22L18 22L18 20L19 20L19 19L20 19L20 18L19 18L19 17ZM11 18L11 19L12 19L12 18ZM15 18L15 19L16 19L16 18ZM28 18L28 19L27 19L27 21L28 21L28 19L29 19L29 18ZM10 21L10 22L11 22L11 23L12 23L12 21ZM21 21L21 24L24 24L24 21ZM22 22L22 23L23 23L23 22ZM9 23L9 24L10 24L10 23ZM13 23L13 24L14 24L14 23ZM20 25L20 28L21 28L21 25ZM22 25L22 26L23 26L23 27L22 27L22 28L24 28L24 26L25 26L25 25ZM15 28L15 29L18 29L18 28ZM28 28L28 29L29 29L29 28ZM0 0L0 7L7 7L7 0ZM1 1L1 6L6 6L6 1ZM2 2L2 5L5 5L5 2ZM22 0L22 7L29 7L29 0ZM23 1L23 6L28 6L28 1ZM24 2L24 5L27 5L27 2ZM0 22L0 29L7 29L7 22ZM1 23L1 28L6 28L6 23ZM2 24L2 27L5 27L5 24Z" fill="#000000"/></g></g></svg>
