<?xml version="1.0" encoding="UTF-8"?>
<svg xmlns="http://www.w3.org/2000/svg" version="1.1" width="300" height="300" viewBox="0 0 300 300"><rect x="0" y="0" width="300" height="300" fill="#ffffff"/><g transform="scale(12)"><g transform="translate(0,0)"><path fill-rule="evenodd" d="M12 0L12 2L13 2L13 0ZM15 0L15 2L14 2L14 5L13 5L13 6L12 6L12 8L11 8L11 6L10 6L10 4L13 4L13 3L8 3L8 4L9 4L9 5L8 5L8 7L9 7L9 8L6 8L6 9L5 9L5 8L0 8L0 10L1 10L1 11L0 11L0 12L3 12L3 11L2 11L2 10L4 10L4 12L5 12L5 13L4 13L4 14L3 14L3 13L0 13L0 17L1 17L1 14L2 14L2 17L4 17L4 16L6 16L6 17L8 17L8 19L9 19L9 20L8 20L8 25L10 25L10 20L11 20L11 17L10 17L10 16L9 16L9 15L10 15L10 13L11 13L11 12L8 12L8 11L9 11L9 10L8 10L8 11L7 11L7 10L6 10L6 9L10 9L10 11L11 11L11 9L13 9L13 10L12 10L12 11L13 11L13 10L14 10L14 9L15 9L15 12L14 12L14 13L16 13L16 10L17 10L17 11L18 11L18 10L20 10L20 12L21 12L21 14L20 14L20 15L19 15L19 14L18 14L18 15L17 15L17 16L16 16L16 19L15 19L15 18L14 18L14 17L15 17L15 15L16 15L16 14L15 14L15 15L14 15L14 17L13 17L13 15L12 15L12 17L13 17L13 18L12 18L12 20L13 20L13 19L15 19L15 20L14 20L14 23L15 23L15 24L17 24L17 25L20 25L20 24L18 24L18 23L15 23L15 21L17 21L17 22L21 22L21 24L22 24L22 25L25 25L25 21L24 21L24 20L25 20L25 17L24 17L24 18L23 18L23 20L22 20L22 18L21 18L21 16L22 16L22 17L23 17L23 16L25 16L25 10L24 10L24 8L23 8L23 9L22 9L22 8L21 8L21 10L20 10L20 8L19 8L19 9L18 9L18 8L16 8L16 7L17 7L17 6L16 6L16 5L17 5L17 3L15 3L15 2L16 2L16 1L17 1L17 0ZM8 1L8 2L9 2L9 1ZM10 1L10 2L11 2L11 1ZM14 5L14 6L13 6L13 9L14 9L14 6L15 6L15 7L16 7L16 6L15 6L15 5ZM9 6L9 7L10 7L10 6ZM10 8L10 9L11 9L11 8ZM17 9L17 10L18 10L18 9ZM5 10L5 11L6 11L6 12L7 12L7 11L6 11L6 10ZM23 10L23 11L22 11L22 12L24 12L24 10ZM17 12L17 13L19 13L19 12ZM6 13L6 14L4 14L4 15L3 15L3 16L4 16L4 15L6 15L6 16L7 16L7 15L8 15L8 14L7 14L7 13ZM22 13L22 16L23 16L23 14L24 14L24 13ZM6 14L6 15L7 15L7 14ZM20 15L20 16L21 16L21 15ZM9 17L9 18L10 18L10 17ZM17 17L17 20L20 20L20 17ZM18 18L18 19L19 19L19 18ZM21 20L21 21L22 21L22 20ZM12 22L12 25L14 25L14 24L13 24L13 22ZM22 22L22 24L24 24L24 22ZM0 0L0 7L7 7L7 0ZM1 1L1 6L6 6L6 1ZM2 2L2 5L5 5L5 2ZM18 0L18 7L25 7L25 0ZM19 1L19 6L24 6L24 1ZM20 2L20 5L23 5L23 2ZM0 18L0 25L7 25L7 18ZM1 19L1 24L6 24L6 19ZM2 20L2 23L5 23L5 20Z" fill="#000000"/></g></g></svg>
