<?xml version="1.0" encoding="UTF-8"?>
<svg xmlns="http://www.w3.org/2000/svg" version="1.1" width="300" height="300" viewBox="0 0 300 300"><rect x="0" y="0" width="300" height="300" fill="#ffffff"/><g transform="scale(10.345)"><g transform="translate(0,0)"><path fill-rule="evenodd" d="M9 0L9 1L10 1L10 2L8 2L8 3L9 3L9 4L10 4L10 5L9 5L9 6L8 6L8 8L4 8L4 9L3 9L3 8L0 8L0 9L1 9L1 10L2 10L2 9L3 9L3 11L0 11L0 12L2 12L2 14L4 14L4 15L2 15L2 17L1 17L1 16L0 16L0 17L1 17L1 18L0 18L0 19L1 19L1 20L0 20L0 21L1 21L1 20L3 20L3 21L4 21L4 20L6 20L6 21L8 21L8 25L9 25L9 26L8 26L8 29L9 29L9 28L12 28L12 29L13 29L13 28L12 28L12 27L9 27L9 26L10 26L10 25L11 25L11 26L12 26L12 24L14 24L14 26L13 26L13 27L14 27L14 26L16 26L16 27L15 27L15 28L16 28L16 29L22 29L22 27L23 27L23 28L26 28L26 29L29 29L29 28L28 28L28 27L29 27L29 22L28 22L28 21L27 21L27 22L25 22L25 21L26 21L26 19L29 19L29 18L28 18L28 17L29 17L29 16L28 16L28 15L29 15L29 13L28 13L28 15L27 15L27 14L26 14L26 15L25 15L25 14L23 14L23 12L22 12L22 14L23 14L23 15L21 15L21 11L24 11L24 12L25 12L25 13L26 13L26 11L27 11L27 12L29 12L29 9L27 9L27 8L26 8L26 9L25 9L25 10L23 10L23 8L21 8L21 9L19 9L19 10L20 10L20 11L17 11L17 12L16 12L16 11L15 11L15 12L16 12L16 13L15 13L15 14L14 14L14 13L13 13L13 12L12 12L12 11L11 11L11 12L12 12L12 13L11 13L11 14L10 14L10 13L7 13L7 12L9 12L9 11L10 11L10 10L12 10L12 8L14 8L14 9L15 9L15 10L18 10L18 9L15 9L15 6L16 6L16 8L18 8L18 7L19 7L19 6L20 6L20 7L21 7L21 6L20 6L20 5L19 5L19 4L20 4L20 3L21 3L21 1L19 1L19 2L20 2L20 3L17 3L17 1L15 1L15 0L14 0L14 2L16 2L16 3L13 3L13 0L12 0L12 1L10 1L10 0ZM11 2L11 3L12 3L12 4L11 4L11 5L10 5L10 6L9 6L9 7L10 7L10 6L11 6L11 8L12 8L12 6L13 6L13 7L14 7L14 6L15 6L15 5L16 5L16 6L17 6L17 7L18 7L18 6L19 6L19 5L18 5L18 6L17 6L17 3L16 3L16 4L15 4L15 5L14 5L14 6L13 6L13 3L12 3L12 2ZM9 8L9 9L8 9L8 10L10 10L10 8ZM4 9L4 11L3 11L3 13L4 13L4 14L7 14L7 13L5 13L5 12L7 12L7 11L6 11L6 10L7 10L7 9ZM26 9L26 10L25 10L25 11L26 11L26 10L27 10L27 11L28 11L28 10L27 10L27 9ZM13 10L13 11L14 11L14 10ZM4 11L4 12L5 12L5 11ZM17 12L17 14L19 14L19 16L17 16L17 15L16 15L16 14L15 14L15 17L17 17L17 19L16 19L16 18L14 18L14 16L12 16L12 15L9 15L9 14L8 14L8 15L6 15L6 16L8 16L8 17L6 17L6 18L4 18L4 17L5 17L5 15L4 15L4 16L3 16L3 19L6 19L6 20L9 20L9 22L11 22L11 21L12 21L12 20L13 20L13 21L14 21L14 22L13 22L13 23L14 23L14 22L15 22L15 25L20 25L20 26L19 26L19 27L18 27L18 28L19 28L19 27L20 27L20 28L21 28L21 27L22 27L22 26L23 26L23 25L20 25L20 22L19 22L19 21L20 21L20 20L21 20L21 19L22 19L22 20L24 20L24 19L26 19L26 18L27 18L27 15L26 15L26 18L25 18L25 15L24 15L24 16L23 16L23 19L22 19L22 18L19 18L19 16L20 16L20 14L19 14L19 13L20 13L20 12ZM13 14L13 15L14 15L14 14ZM8 15L8 16L9 16L9 15ZM11 16L11 17L8 17L8 18L6 18L6 19L8 19L8 18L9 18L9 19L10 19L10 20L12 20L12 19L10 19L10 18L12 18L12 16ZM21 16L21 17L22 17L22 16ZM1 18L1 19L2 19L2 18ZM13 18L13 19L14 19L14 18ZM18 18L18 19L17 19L17 20L16 20L16 19L15 19L15 22L18 22L18 23L17 23L17 24L19 24L19 22L18 22L18 21L17 21L17 20L18 20L18 19L19 19L19 20L20 20L20 19L19 19L19 18ZM21 21L21 24L24 24L24 21ZM22 22L22 23L23 23L23 22ZM10 23L10 24L9 24L9 25L10 25L10 24L12 24L12 23ZM26 23L26 25L24 25L24 26L26 26L26 28L27 28L27 27L28 27L28 26L27 26L27 23ZM16 27L16 28L17 28L17 27ZM0 0L0 7L7 7L7 0ZM1 1L1 6L6 6L6 1ZM2 2L2 5L5 5L5 2ZM22 0L22 7L29 7L29 0ZM23 1L23 6L28 6L28 1ZM24 2L24 5L27 5L27 2ZM0 22L0 29L7 29L7 22ZM1 23L1 28L6 28L6 23ZM2 24L2 27L5 27L5 24Z" fill="#000000"/></g></g></svg>
