<?xml version="1.0" encoding="UTF-8"?>
<svg xmlns="http://www.w3.org/2000/svg" version="1.1" width="300" height="300" viewBox="0 0 300 300"><rect x="0" y="0" width="300" height="300" fill="#ffffff"/><g transform="scale(12)"><g transform="translate(0,0)"><path fill-rule="evenodd" d="M9 0L9 1L8 1L8 2L9 2L9 3L8 3L8 4L10 4L10 7L11 7L11 4L12 4L12 5L13 5L13 6L12 6L12 7L13 7L13 6L14 6L14 7L15 7L15 6L16 6L16 7L17 7L17 4L15 4L15 3L16 3L16 1L17 1L17 0L14 0L14 4L15 4L15 6L14 6L14 5L13 5L13 3L12 3L12 2L13 2L13 1L11 1L11 2L10 2L10 0ZM10 3L10 4L11 4L11 3ZM8 5L8 7L9 7L9 5ZM0 8L0 17L1 17L1 13L3 13L3 15L2 15L2 16L3 16L3 15L4 15L4 14L5 14L5 13L4 13L4 11L5 11L5 10L6 10L6 11L7 11L7 12L6 12L6 13L7 13L7 14L6 14L6 15L7 15L7 16L6 16L6 17L8 17L8 19L11 19L11 17L13 17L13 18L12 18L12 20L11 20L11 21L14 21L14 20L15 20L15 21L17 21L17 22L22 22L22 21L23 21L23 22L24 22L24 24L22 24L22 23L21 23L21 24L22 24L22 25L25 25L25 21L24 21L24 20L25 20L25 17L24 17L24 18L23 18L23 19L24 19L24 20L22 20L22 19L21 19L21 16L22 16L22 17L23 17L23 16L25 16L25 10L24 10L24 8L23 8L23 9L22 9L22 8L21 8L21 10L20 10L20 8L19 8L19 9L18 9L18 8L14 8L14 9L13 9L13 8L12 8L12 9L13 9L13 10L12 10L12 11L10 11L10 9L11 9L11 8L6 8L6 9L5 9L5 8ZM1 9L1 12L2 12L2 10L3 10L3 9ZM4 9L4 10L5 10L5 9ZM6 9L6 10L7 10L7 11L8 11L8 12L9 12L9 11L8 11L8 10L9 10L9 9ZM14 9L14 10L13 10L13 12L10 12L10 13L11 13L11 14L10 14L10 15L9 15L9 13L8 13L8 14L7 14L7 15L9 15L9 16L8 16L8 17L10 17L10 15L11 15L11 16L12 16L12 15L13 15L13 17L14 17L14 18L13 18L13 20L14 20L14 18L15 18L15 19L16 19L16 16L17 16L17 15L18 15L18 14L21 14L21 12L20 12L20 10L18 10L18 9L17 9L17 10L16 10L16 13L14 13L14 12L15 12L15 9ZM17 10L17 11L18 11L18 10ZM23 10L23 11L22 11L22 12L24 12L24 10ZM17 12L17 13L19 13L19 12ZM22 13L22 16L23 16L23 14L24 14L24 13ZM15 14L15 15L14 15L14 17L15 17L15 15L16 15L16 14ZM19 15L19 16L21 16L21 15ZM4 16L4 17L5 17L5 16ZM17 17L17 20L20 20L20 17ZM18 18L18 19L19 19L19 18ZM8 20L8 25L10 25L10 24L11 24L11 22L10 22L10 21L9 21L9 20ZM21 20L21 21L22 21L22 20ZM9 22L9 24L10 24L10 22ZM12 23L12 25L13 25L13 23ZM15 23L15 24L14 24L14 25L15 25L15 24L17 24L17 25L19 25L19 24L20 24L20 23L19 23L19 24L18 24L18 23ZM0 0L0 7L7 7L7 0ZM1 1L1 6L6 6L6 1ZM2 2L2 5L5 5L5 2ZM18 0L18 7L25 7L25 0ZM19 1L19 6L24 6L24 1ZM20 2L20 5L23 5L23 2ZM0 18L0 25L7 25L7 18ZM1 19L1 24L6 24L6 19ZM2 20L2 23L5 23L5 20Z" fill="#000000"/></g></g></svg>
