<?xml version="1.0" encoding="UTF-8"?>
<svg xmlns="http://www.w3.org/2000/svg" version="1.1" width="300" height="300" viewBox="0 0 300 300"><rect x="0" y="0" width="300" height="300" fill="#ffffff"/><g transform="scale(12)"><g transform="translate(0,0)"><path fill-rule="evenodd" d="M8 0L8 4L9 4L9 5L8 5L8 7L9 7L9 6L10 6L10 9L11 9L11 8L12 8L12 9L14 9L14 10L13 10L13 11L12 11L12 10L8 10L8 9L7 9L7 8L4 8L4 10L3 10L3 9L2 9L2 8L0 8L0 9L2 9L2 10L3 10L3 13L2 13L2 11L1 11L1 12L0 12L0 14L2 14L2 15L3 15L3 16L5 16L5 17L7 17L7 16L5 16L5 15L8 15L8 18L9 18L9 17L10 17L10 16L9 16L9 15L8 15L8 14L6 14L6 13L7 13L7 12L8 12L8 11L9 11L9 12L10 12L10 11L11 11L11 13L10 13L10 15L12 15L12 16L11 16L11 17L13 17L13 18L11 18L11 20L12 20L12 21L13 21L13 22L11 22L11 24L10 24L10 25L12 25L12 23L13 23L13 22L16 22L16 23L15 23L15 25L16 25L16 23L18 23L18 24L17 24L17 25L19 25L19 21L21 21L21 22L22 22L22 23L20 23L20 25L25 25L25 24L24 24L24 22L25 22L25 21L24 21L24 19L23 19L23 18L22 18L22 17L23 17L23 14L21 14L21 12L22 12L22 13L24 13L24 14L25 14L25 12L24 12L24 9L25 9L25 8L21 8L21 9L20 9L20 8L19 8L19 9L18 9L18 11L17 11L17 9L16 9L16 10L15 10L15 9L14 9L14 8L17 8L17 2L16 2L16 3L14 3L14 5L13 5L13 4L12 4L12 5L13 5L13 6L12 6L12 7L11 7L11 3L10 3L10 2L9 2L9 0ZM14 0L14 1L11 1L11 2L12 2L12 3L13 3L13 2L15 2L15 0ZM16 0L16 1L17 1L17 0ZM15 4L15 7L16 7L16 4ZM13 6L13 8L14 8L14 6ZM6 9L6 10L5 10L5 11L6 11L6 12L4 12L4 13L3 13L3 15L5 15L5 14L4 14L4 13L6 13L6 12L7 12L7 11L6 11L6 10L7 10L7 9ZM19 9L19 12L20 12L20 9ZM21 9L21 10L22 10L22 11L23 11L23 10L22 10L22 9ZM14 10L14 11L13 11L13 12L14 12L14 13L11 13L11 14L13 14L13 16L14 16L14 18L13 18L13 21L14 21L14 20L15 20L15 21L16 21L16 22L17 22L17 21L16 21L16 20L15 20L15 19L16 19L16 18L15 18L15 16L16 16L16 15L15 15L15 14L14 14L14 13L16 13L16 14L18 14L18 15L17 15L17 16L21 16L21 14L19 14L19 13L17 13L17 12L15 12L15 10ZM14 15L14 16L15 16L15 15ZM0 16L0 17L2 17L2 16ZM17 17L17 20L20 20L20 17ZM24 17L24 18L25 18L25 17ZM14 18L14 19L15 19L15 18ZM18 18L18 19L19 19L19 18ZM21 18L21 19L22 19L22 18ZM8 19L8 21L9 21L9 23L8 23L8 25L9 25L9 23L10 23L10 21L9 21L9 19ZM22 21L22 22L23 22L23 21ZM13 24L13 25L14 25L14 24ZM0 0L0 7L7 7L7 0ZM1 1L1 6L6 6L6 1ZM2 2L2 5L5 5L5 2ZM18 0L18 7L25 7L25 0ZM19 1L19 6L24 6L24 1ZM20 2L20 5L23 5L23 2ZM0 18L0 25L7 25L7 18ZM1 19L1 24L6 24L6 19ZM2 20L2 23L5 23L5 20Z" fill="#000000"/></g></g></svg>
