<?xml version="1.0" encoding="UTF-8"?>
<svg xmlns="http://www.w3.org/2000/svg" version="1.1" width="300" height="300" viewBox="0 0 300 300"><rect x="0" y="0" width="300" height="300" fill="#ffffff"/><g transform="scale(12)"><g transform="translate(0,0)"><path fill-rule="evenodd" d="M8 0L8 1L9 1L9 2L8 2L8 5L9 5L9 4L11 4L11 5L10 5L10 10L9 10L9 12L8 12L8 10L6 10L6 9L7 9L7 8L6 8L6 9L4 9L4 8L0 8L0 11L1 11L1 12L2 12L2 13L1 13L1 15L0 15L0 16L1 16L1 15L2 15L2 17L3 17L3 16L5 16L5 17L8 17L8 18L9 18L9 16L10 16L10 15L11 15L11 16L12 16L12 14L13 14L13 15L14 15L14 16L13 16L13 18L12 18L12 21L11 21L11 22L10 22L10 23L9 23L9 21L10 21L10 19L9 19L9 21L8 21L8 25L11 25L11 23L13 23L13 24L12 24L12 25L16 25L16 24L14 24L14 23L15 23L15 22L16 22L16 21L18 21L18 24L20 24L20 25L22 25L22 24L23 24L23 25L25 25L25 24L23 24L23 23L24 23L24 22L25 22L25 20L24 20L24 21L23 21L23 23L22 23L22 20L21 20L21 18L23 18L23 19L25 19L25 18L23 18L23 17L25 17L25 15L24 15L24 13L25 13L25 12L23 12L23 11L24 11L24 9L25 9L25 8L24 8L24 9L23 9L23 8L20 8L20 9L19 9L19 10L18 10L18 11L17 11L17 9L18 9L18 8L17 8L17 9L16 9L16 11L17 11L17 12L14 12L14 11L15 11L15 10L14 10L14 9L15 9L15 8L16 8L16 7L17 7L17 6L16 6L16 7L15 7L15 6L14 6L14 5L17 5L17 4L14 4L14 3L15 3L15 1L14 1L14 0L12 0L12 1L11 1L11 0L10 0L10 1L9 1L9 0ZM16 0L16 1L17 1L17 0ZM13 1L13 2L11 2L11 4L12 4L12 3L13 3L13 2L14 2L14 1ZM16 2L16 3L17 3L17 2ZM13 4L13 5L12 5L12 6L11 6L11 8L12 8L12 6L13 6L13 9L14 9L14 6L13 6L13 5L14 5L14 4ZM8 6L8 7L9 7L9 6ZM8 8L8 9L9 9L9 8ZM1 9L1 10L2 10L2 12L3 12L3 14L5 14L5 15L6 15L6 16L7 16L7 15L8 15L8 16L9 16L9 15L10 15L10 14L11 14L11 13L12 13L12 12L13 12L13 11L11 11L11 13L8 13L8 14L7 14L7 13L6 13L6 12L7 12L7 11L6 11L6 10L4 10L4 11L3 11L3 9ZM11 9L11 10L12 10L12 9ZM20 9L20 10L21 10L21 11L20 11L20 12L19 12L19 11L18 11L18 12L19 12L19 13L20 13L20 12L22 12L22 10L21 10L21 9ZM5 11L5 12L6 12L6 11ZM5 13L5 14L6 14L6 15L7 15L7 14L6 14L6 13ZM13 13L13 14L14 14L14 15L15 15L15 16L14 16L14 18L13 18L13 21L12 21L12 22L13 22L13 23L14 23L14 22L15 22L15 21L16 21L16 20L15 20L15 21L14 21L14 18L15 18L15 19L16 19L16 18L15 18L15 17L16 17L16 16L17 16L17 15L16 15L16 14L14 14L14 13ZM21 13L21 15L22 15L22 16L23 16L23 15L22 15L22 14L23 14L23 13ZM18 14L18 15L19 15L19 14ZM10 17L10 18L11 18L11 17ZM17 17L17 20L20 20L20 17ZM18 18L18 19L19 19L19 18ZM13 21L13 22L14 22L14 21ZM19 21L19 22L21 22L21 21ZM21 23L21 24L22 24L22 23ZM0 0L0 7L7 7L7 0ZM1 1L1 6L6 6L6 1ZM2 2L2 5L5 5L5 2ZM18 0L18 7L25 7L25 0ZM19 1L19 6L24 6L24 1ZM20 2L20 5L23 5L23 2ZM0 18L0 25L7 25L7 18ZM1 19L1 24L6 24L6 19ZM2 20L2 23L5 23L5 20Z" fill="#000000"/></g></g></svg>
