<?xml version="1.0" encoding="UTF-8"?>
<svg xmlns="http://www.w3.org/2000/svg" version="1.1" width="300" height="300" viewBox="0 0 300 300"><rect x="0" y="0" width="300" height="300" fill="#ffffff"/><g transform="scale(12)"><g transform="translate(0,0)"><path fill-rule="evenodd" d="M8 0L8 1L9 1L9 2L10 2L10 3L11 3L11 1L13 1L13 0L11 0L11 1L9 1L9 0ZM14 0L14 1L16 1L16 2L15 2L15 3L16 3L16 4L13 4L13 3L14 3L14 2L12 2L12 4L11 4L11 5L10 5L10 4L9 4L9 5L10 5L10 8L9 8L9 6L8 6L8 8L9 8L9 10L10 10L10 11L9 11L9 13L8 13L8 14L6 14L6 13L7 13L7 12L8 12L8 11L7 11L7 10L5 10L5 11L7 11L7 12L6 12L6 13L5 13L5 12L4 12L4 10L3 10L3 9L5 9L5 8L3 8L3 9L2 9L2 8L0 8L0 9L2 9L2 10L1 10L1 11L0 11L0 17L1 17L1 15L2 15L2 16L5 16L5 14L6 14L6 15L9 15L9 16L6 16L6 17L8 17L8 18L9 18L9 19L10 19L10 20L11 20L11 19L12 19L12 21L14 21L14 24L13 24L13 22L11 22L11 21L10 21L10 22L9 22L9 20L8 20L8 22L9 22L9 23L8 23L8 25L9 25L9 23L10 23L10 25L12 25L12 24L13 24L13 25L14 25L14 24L15 24L15 22L17 22L17 23L18 23L18 22L20 22L20 23L19 23L19 24L18 24L18 25L21 25L21 24L20 24L20 23L22 23L22 24L24 24L24 25L25 25L25 21L22 21L22 22L20 22L20 21L21 21L21 18L22 18L22 19L23 19L23 20L24 20L24 19L25 19L25 17L24 17L24 16L25 16L25 10L24 10L24 9L25 9L25 8L24 8L24 9L23 9L23 10L21 10L21 9L19 9L19 8L18 8L18 10L21 10L21 11L20 11L20 12L18 12L18 11L16 11L16 10L15 10L15 8L14 8L14 7L15 7L15 5L17 5L17 1L16 1L16 0ZM12 4L12 5L11 5L11 7L12 7L12 8L13 8L13 7L14 7L14 6L13 6L13 7L12 7L12 5L13 5L13 4ZM16 6L16 9L17 9L17 6ZM6 8L6 9L7 9L7 8ZM10 9L10 10L12 10L12 12L13 12L13 13L11 13L11 12L10 12L10 13L9 13L9 15L10 15L10 14L11 14L11 16L10 16L10 17L9 17L9 18L10 18L10 17L12 17L12 19L13 19L13 18L14 18L14 19L15 19L15 20L16 20L16 18L14 18L14 17L16 17L16 16L14 16L14 15L15 15L15 14L14 14L14 15L12 15L12 14L13 14L13 13L14 13L14 12L16 12L16 11L13 11L13 10L12 10L12 9ZM2 10L2 11L3 11L3 10ZM21 11L21 12L22 12L22 13L21 13L21 14L24 14L24 12L22 12L22 11ZM17 12L17 13L16 13L16 14L17 14L17 15L18 15L18 14L19 14L19 13L18 13L18 12ZM2 13L2 15L3 15L3 14L5 14L5 13ZM19 15L19 16L20 16L20 15ZM21 15L21 17L22 17L22 15ZM12 16L12 17L13 17L13 16ZM17 17L17 20L20 20L20 17ZM18 18L18 19L19 19L19 18ZM23 18L23 19L24 19L24 18ZM11 23L11 24L12 24L12 23ZM16 24L16 25L17 25L17 24ZM0 0L0 7L7 7L7 0ZM1 1L1 6L6 6L6 1ZM2 2L2 5L5 5L5 2ZM18 0L18 7L25 7L25 0ZM19 1L19 6L24 6L24 1ZM20 2L20 5L23 5L23 2ZM0 18L0 25L7 25L7 18ZM1 19L1 24L6 24L6 19ZM2 20L2 23L5 23L5 20Z" fill="#000000"/></g></g></svg>
