<?xml version="1.0" encoding="UTF-8"?>
<svg xmlns="http://www.w3.org/2000/svg" version="1.1" width="300" height="300" viewBox="0 0 300 300"><rect x="0" y="0" width="300" height="300" fill="#ffffff"/><g transform="scale(10.345)"><g transform="translate(0,0)"><path fill-rule="evenodd" d="M8 0L8 1L10 1L10 0ZM15 0L15 1L14 1L14 2L11 2L11 4L10 4L10 3L9 3L9 2L8 2L8 5L9 5L9 6L8 6L8 7L9 7L9 8L8 8L8 9L7 9L7 8L6 8L6 9L7 9L7 10L6 10L6 11L5 11L5 10L4 10L4 8L0 8L0 10L1 10L1 11L2 11L2 13L3 13L3 14L4 14L4 12L5 12L5 13L7 13L7 12L6 12L6 11L7 11L7 10L8 10L8 9L9 9L9 10L10 10L10 9L9 9L9 8L10 8L10 7L11 7L11 8L12 8L12 7L13 7L13 9L15 9L15 10L14 10L14 11L11 11L11 13L10 13L10 12L9 12L9 13L8 13L8 14L5 14L5 15L4 15L4 16L3 16L3 15L1 15L1 13L0 13L0 15L1 15L1 16L0 16L0 17L1 17L1 16L2 16L2 17L3 17L3 18L4 18L4 20L1 20L1 21L4 21L4 20L6 20L6 21L8 21L8 22L9 22L9 23L10 23L10 24L9 24L9 25L8 25L8 29L10 29L10 27L9 27L9 25L10 25L10 26L11 26L11 28L12 28L12 29L13 29L13 28L12 28L12 26L13 26L13 27L14 27L14 29L15 29L15 28L16 28L16 27L14 27L14 26L15 26L15 24L16 24L16 23L15 23L15 24L14 24L14 26L13 26L13 24L12 24L12 25L10 25L10 24L11 24L11 23L14 23L14 22L17 22L17 23L19 23L19 22L17 22L17 21L14 21L14 20L13 20L13 18L14 18L14 17L12 17L12 16L14 16L14 15L15 15L15 14L14 14L14 13L13 13L13 14L12 14L12 12L15 12L15 13L16 13L16 16L17 16L17 14L18 14L18 16L19 16L19 15L20 15L20 16L23 16L23 18L24 18L24 17L25 17L25 19L24 19L24 20L21 20L21 19L22 19L22 18L21 18L21 17L19 17L19 18L18 18L18 19L17 19L17 18L15 18L15 20L16 20L16 19L17 19L17 20L18 20L18 21L19 21L19 20L18 20L18 19L19 19L19 18L20 18L20 25L21 25L21 26L20 26L20 27L24 27L24 25L25 25L25 26L27 26L27 25L28 25L28 27L27 27L27 28L26 28L26 29L28 29L28 27L29 27L29 25L28 25L28 21L27 21L27 20L28 20L28 19L27 19L27 18L26 18L26 16L25 16L25 15L24 15L24 14L23 14L23 13L22 13L22 12L25 12L25 14L28 14L28 15L27 15L27 17L28 17L28 18L29 18L29 17L28 17L28 15L29 15L29 12L26 12L26 11L27 11L27 10L29 10L29 8L28 8L28 9L27 9L27 8L24 8L24 9L22 9L22 8L21 8L21 9L20 9L20 8L19 8L19 6L20 6L20 7L21 7L21 6L20 6L20 5L21 5L21 4L19 4L19 5L18 5L18 4L17 4L17 5L16 5L16 7L15 7L15 5L14 5L14 4L13 4L13 5L12 5L12 3L16 3L16 1L17 1L17 2L18 2L18 1L19 1L19 0ZM20 0L20 2L19 2L19 3L20 3L20 2L21 2L21 0ZM10 5L10 6L9 6L9 7L10 7L10 6L11 6L11 7L12 7L12 5ZM13 5L13 7L14 7L14 5ZM17 5L17 7L16 7L16 8L15 8L15 9L17 9L17 10L18 10L18 11L16 11L16 10L15 10L15 12L16 12L16 13L19 13L19 14L20 14L20 15L23 15L23 16L24 16L24 15L23 15L23 14L21 14L21 12L18 12L18 11L21 11L21 10L20 10L20 9L19 9L19 10L18 10L18 8L17 8L17 7L18 7L18 5ZM1 9L1 10L2 10L2 9ZM25 9L25 10L22 10L22 11L26 11L26 10L27 10L27 9ZM9 13L9 18L8 18L8 15L5 15L5 16L4 16L4 17L5 17L5 18L8 18L8 20L9 20L9 22L10 22L10 19L11 19L11 20L12 20L12 19L11 19L11 18L12 18L12 17L10 17L10 13ZM11 14L11 16L12 16L12 14ZM13 14L13 15L14 15L14 14ZM5 16L5 17L7 17L7 16ZM0 18L0 19L1 19L1 18ZM6 19L6 20L7 20L7 19ZM25 19L25 23L26 23L26 24L27 24L27 23L26 23L26 19ZM11 21L11 22L12 22L12 21ZM21 21L21 24L24 24L24 21ZM22 22L22 23L23 23L23 22ZM16 25L16 26L17 26L17 27L18 27L18 28L17 28L17 29L22 29L22 28L19 28L19 27L18 27L18 26L19 26L19 25ZM22 25L22 26L23 26L23 25ZM23 28L23 29L25 29L25 28ZM0 0L0 7L7 7L7 0ZM1 1L1 6L6 6L6 1ZM2 2L2 5L5 5L5 2ZM22 0L22 7L29 7L29 0ZM23 1L23 6L28 6L28 1ZM24 2L24 5L27 5L27 2ZM0 22L0 29L7 29L7 22ZM1 23L1 28L6 28L6 23ZM2 24L2 27L5 27L5 24Z" fill="#000000"/></g></g></svg>
