<?xml version="1.0" encoding="UTF-8"?>
<svg xmlns="http://www.w3.org/2000/svg" version="1.1" width="300" height="300" viewBox="0 0 300 300"><rect x="0" y="0" width="300" height="300" fill="#ffffff"/><g transform="scale(12)"><g transform="translate(0,0)"><path fill-rule="evenodd" d="M8 0L8 1L10 1L10 0ZM13 0L13 1L14 1L14 2L11 2L11 4L10 4L10 3L9 3L9 2L8 2L8 5L9 5L9 6L8 6L8 7L9 7L9 8L8 8L8 9L7 9L7 8L6 8L6 9L7 9L7 10L5 10L5 11L4 11L4 13L5 13L5 11L8 11L8 9L9 9L9 10L10 10L10 9L9 9L9 8L10 8L10 7L11 7L11 8L13 8L13 10L14 10L14 9L15 9L15 10L16 10L16 11L12 11L12 10L11 10L11 13L10 13L10 12L8 12L8 13L9 13L9 14L8 14L8 15L9 15L9 16L11 16L11 17L12 17L12 18L13 18L13 19L14 19L14 18L15 18L15 17L13 17L13 16L12 16L12 15L14 15L14 14L15 14L15 13L16 13L16 15L15 15L15 16L16 16L16 21L15 21L15 20L13 20L13 21L14 21L14 22L16 22L16 23L12 23L12 22L11 22L11 23L10 23L10 21L11 21L11 20L12 20L12 19L10 19L10 20L9 20L9 21L8 21L8 25L10 25L10 24L11 24L11 25L13 25L13 24L14 24L14 25L16 25L16 23L17 23L17 25L20 25L20 24L21 24L21 23L22 23L22 25L25 25L25 24L23 24L23 23L24 23L24 22L25 22L25 20L24 20L24 19L25 19L25 18L23 18L23 17L25 17L25 15L24 15L24 13L25 13L25 12L23 12L23 11L24 11L24 9L25 9L25 8L24 8L24 9L23 9L23 8L20 8L20 9L19 9L19 10L20 10L20 9L21 9L21 10L22 10L22 12L21 12L21 11L20 11L20 12L21 12L21 13L19 13L19 12L18 12L18 10L17 10L17 9L18 9L18 8L17 8L17 6L16 6L16 8L17 8L17 9L15 9L15 8L13 8L13 6L14 6L14 7L15 7L15 6L14 6L14 5L15 5L15 4L16 4L16 5L17 5L17 4L16 4L16 3L17 3L17 2L15 2L15 1L17 1L17 0L15 0L15 1L14 1L14 0ZM14 2L14 3L13 3L13 4L12 4L12 5L10 5L10 6L9 6L9 7L10 7L10 6L11 6L11 7L12 7L12 5L14 5L14 3L15 3L15 2ZM0 8L0 10L2 10L2 11L1 11L1 12L0 12L0 13L1 13L1 12L2 12L2 11L3 11L3 10L2 10L2 9L4 9L4 8ZM6 12L6 13L7 13L7 12ZM14 12L14 13L13 13L13 14L14 14L14 13L15 13L15 12ZM21 13L21 15L22 15L22 16L23 16L23 15L22 15L22 14L23 14L23 13ZM1 14L1 15L0 15L0 16L1 16L1 15L2 15L2 16L3 16L3 17L5 17L5 16L3 16L3 15L7 15L7 14L3 14L3 15L2 15L2 14ZM10 14L10 15L12 15L12 14ZM16 15L16 16L17 16L17 15ZM19 15L19 16L20 16L20 15ZM6 16L6 17L8 17L8 18L10 18L10 17L8 17L8 16ZM17 17L17 20L20 20L20 17ZM18 18L18 19L19 19L19 18ZM21 18L21 20L22 20L22 21L23 21L23 18ZM19 21L19 23L18 23L18 24L19 24L19 23L20 23L20 22L21 22L21 21ZM22 22L22 23L23 23L23 22ZM9 23L9 24L10 24L10 23ZM0 0L0 7L7 7L7 0ZM1 1L1 6L6 6L6 1ZM2 2L2 5L5 5L5 2ZM18 0L18 7L25 7L25 0ZM19 1L19 6L24 6L24 1ZM20 2L20 5L23 5L23 2ZM0 18L0 25L7 25L7 18ZM1 19L1 24L6 24L6 19ZM2 20L2 23L5 23L5 20Z" fill="#000000"/></g></g></svg>
