<?xml version="1.0" encoding="UTF-8"?>
<svg xmlns="http://www.w3.org/2000/svg" version="1.1" width="300" height="300" viewBox="0 0 300 300"><rect x="0" y="0" width="300" height="300" fill="#ffffff"/><g transform="scale(12)"><g transform="translate(0,0)"><path fill-rule="evenodd" d="M9 0L9 1L8 1L8 2L9 2L9 3L8 3L8 4L10 4L10 7L11 7L11 4L12 4L12 5L13 5L13 4L12 4L12 2L14 2L14 4L15 4L15 6L14 6L14 10L11 10L11 11L10 11L10 9L11 9L11 8L6 8L6 9L5 9L5 8L0 8L0 11L1 11L1 12L0 12L0 17L1 17L1 14L3 14L3 16L2 16L2 17L8 17L8 19L9 19L9 20L8 20L8 25L10 25L10 24L11 24L11 22L10 22L10 21L12 21L12 22L13 22L13 23L12 23L12 25L13 25L13 24L14 24L14 25L15 25L15 24L17 24L17 25L19 25L19 24L18 24L18 23L15 23L15 21L17 21L17 22L22 22L22 21L23 21L23 22L24 22L24 24L22 24L22 23L20 23L20 24L22 24L22 25L25 25L25 17L24 17L24 18L23 18L23 19L24 19L24 20L22 20L22 19L21 19L21 16L22 16L22 17L23 17L23 16L25 16L25 10L24 10L24 8L23 8L23 9L22 9L22 8L21 8L21 10L20 10L20 8L19 8L19 9L18 9L18 8L15 8L15 6L16 6L16 7L17 7L17 4L16 4L16 2L17 2L17 0L15 0L15 1L11 1L11 2L10 2L10 0ZM10 3L10 4L11 4L11 3ZM8 5L8 7L9 7L9 5ZM12 6L12 9L13 9L13 6ZM1 9L1 11L4 11L4 10L5 10L5 11L6 11L6 12L4 12L4 13L3 13L3 12L2 12L2 13L3 13L3 14L5 14L5 16L8 16L8 15L6 15L6 14L7 14L7 13L6 13L6 12L7 12L7 11L6 11L6 10L9 10L9 9L6 9L6 10L5 10L5 9ZM17 9L17 10L16 10L16 13L15 13L15 10L14 10L14 11L12 11L12 13L11 13L11 12L10 12L10 13L11 13L11 14L9 14L9 15L10 15L10 16L9 16L9 18L10 18L10 16L11 16L11 18L13 18L13 19L12 19L12 21L15 21L15 20L14 20L14 19L16 19L16 16L17 16L17 15L18 15L18 14L19 14L19 15L20 15L20 16L21 16L21 15L20 15L20 14L21 14L21 12L20 12L20 10L18 10L18 9ZM17 10L17 11L18 11L18 10ZM23 10L23 11L22 11L22 12L24 12L24 10ZM8 11L8 12L9 12L9 11ZM17 12L17 13L19 13L19 12ZM12 13L12 14L13 14L13 15L12 15L12 17L13 17L13 16L14 16L14 17L15 17L15 16L14 16L14 15L16 15L16 14L14 14L14 13ZM22 13L22 16L23 16L23 14L24 14L24 13ZM17 17L17 20L20 20L20 17ZM18 18L18 19L19 19L19 18ZM10 19L10 20L9 20L9 21L10 21L10 20L11 20L11 19ZM21 20L21 21L22 21L22 20ZM9 23L9 24L10 24L10 23ZM14 23L14 24L15 24L15 23ZM0 0L0 7L7 7L7 0ZM1 1L1 6L6 6L6 1ZM2 2L2 5L5 5L5 2ZM18 0L18 7L25 7L25 0ZM19 1L19 6L24 6L24 1ZM20 2L20 5L23 5L23 2ZM0 18L0 25L7 25L7 18ZM1 19L1 24L6 24L6 19ZM2 20L2 23L5 23L5 20Z" fill="#000000"/></g></g></svg>
