<?xml version="1.0" encoding="UTF-8"?>
<svg xmlns="http://www.w3.org/2000/svg" version="1.1" width="300" height="300" viewBox="0 0 300 300"><rect x="0" y="0" width="300" height="300" fill="#ffffff"/><g transform="scale(12)"><g transform="translate(0,0)"><path fill-rule="evenodd" d="M8 0L8 1L10 1L10 0ZM13 0L13 1L14 1L14 2L11 2L11 4L10 4L10 3L9 3L9 2L8 2L8 5L9 5L9 6L8 6L8 7L9 7L9 8L8 8L8 9L7 9L7 8L6 8L6 9L7 9L7 10L5 10L5 9L4 9L4 8L0 8L0 10L1 10L1 9L2 9L2 10L3 10L3 11L2 11L2 13L1 13L1 15L0 15L0 16L1 16L1 15L2 15L2 17L3 17L3 15L4 15L4 16L5 16L5 15L8 15L8 14L9 14L9 16L6 16L6 17L8 17L8 18L9 18L9 16L10 16L10 20L9 20L9 21L8 21L8 25L9 25L9 23L10 23L10 22L11 22L11 23L14 23L14 22L15 22L15 23L16 23L16 22L15 22L15 21L14 21L14 20L13 20L13 18L14 18L14 17L12 17L12 16L14 16L14 15L15 15L15 14L16 14L16 15L17 15L17 16L15 16L15 18L16 18L16 21L17 21L17 25L19 25L19 24L20 24L20 23L22 23L22 25L25 25L25 24L23 24L23 23L24 23L24 22L25 22L25 21L24 21L24 19L25 19L25 18L23 18L23 17L25 17L25 15L24 15L24 13L25 13L25 12L23 12L23 11L24 11L24 9L25 9L25 8L24 8L24 9L23 9L23 8L20 8L20 9L18 9L18 8L17 8L17 9L15 9L15 8L16 8L16 7L17 7L17 6L16 6L16 7L15 7L15 5L12 5L12 3L14 3L14 4L15 4L15 1L16 1L16 2L17 2L17 0L15 0L15 1L14 1L14 0ZM16 4L16 5L17 5L17 4ZM10 5L10 6L9 6L9 7L10 7L10 8L9 8L9 9L10 9L10 10L9 10L9 12L8 12L8 13L6 13L6 12L7 12L7 11L8 11L8 10L7 10L7 11L6 11L6 12L5 12L5 14L8 14L8 13L9 13L9 12L10 12L10 13L11 13L11 11L14 11L14 10L15 10L15 12L12 12L12 14L10 14L10 15L11 15L11 16L12 16L12 14L13 14L13 15L14 15L14 14L13 14L13 13L15 13L15 12L16 12L16 14L17 14L17 15L20 15L20 16L21 16L21 15L22 15L22 16L23 16L23 15L22 15L22 14L23 14L23 13L21 13L21 12L22 12L22 10L21 10L21 9L20 9L20 10L19 10L19 11L21 11L21 12L19 12L19 14L17 14L17 12L18 12L18 9L17 9L17 10L15 10L15 9L13 9L13 8L14 8L14 6L13 6L13 7L12 7L12 5ZM10 6L10 7L11 7L11 8L12 8L12 7L11 7L11 6ZM3 9L3 10L4 10L4 11L3 11L3 12L4 12L4 11L5 11L5 10L4 10L4 9ZM0 11L0 12L1 12L1 11ZM16 11L16 12L17 12L17 11ZM2 13L2 14L4 14L4 13ZM20 13L20 14L21 14L21 13ZM11 17L11 18L12 18L12 17ZM17 17L17 20L20 20L20 17ZM18 18L18 19L19 19L19 18ZM21 18L21 20L22 20L22 21L21 21L21 22L22 22L22 23L23 23L23 18ZM11 19L11 20L12 20L12 19ZM11 21L11 22L12 22L12 21ZM19 22L19 23L20 23L20 22ZM10 24L10 25L11 25L11 24ZM12 24L12 25L13 25L13 24ZM14 24L14 25L15 25L15 24ZM0 0L0 7L7 7L7 0ZM1 1L1 6L6 6L6 1ZM2 2L2 5L5 5L5 2ZM18 0L18 7L25 7L25 0ZM19 1L19 6L24 6L24 1ZM20 2L20 5L23 5L23 2ZM0 18L0 25L7 25L7 18ZM1 19L1 24L6 24L6 19ZM2 20L2 23L5 23L5 20Z" fill="#000000"/></g></g></svg>
