<?xml version="1.0" encoding="UTF-8"?>
<svg xmlns="http://www.w3.org/2000/svg" version="1.1" width="300" height="300" viewBox="0 0 300 300"><rect x="0" y="0" width="300" height="300" fill="#ffffff"/><g transform="scale(12)"><g transform="translate(0,0)"><path fill-rule="evenodd" d="M8 0L8 2L9 2L9 3L10 3L10 4L8 4L8 9L7 9L7 8L5 8L5 10L6 10L6 11L5 11L5 12L4 12L4 10L3 10L3 8L0 8L0 10L2 10L2 11L3 11L3 12L2 12L2 13L3 13L3 14L0 14L0 15L2 15L2 16L0 16L0 17L2 17L2 16L3 16L3 17L4 17L4 15L5 15L5 17L8 17L8 18L9 18L9 19L8 19L8 20L9 20L9 22L8 22L8 25L9 25L9 22L10 22L10 25L12 25L12 24L13 24L13 25L14 25L14 24L13 24L13 23L15 23L15 22L16 22L16 25L17 25L17 24L18 24L18 25L21 25L21 24L19 24L19 23L22 23L22 21L21 21L21 18L22 18L22 19L23 19L23 20L25 20L25 18L24 18L24 19L23 19L23 18L22 18L22 17L21 17L21 16L18 16L18 15L23 15L23 17L24 17L24 15L25 15L25 14L24 14L24 15L23 15L23 14L19 14L19 13L22 13L22 12L21 12L21 11L22 11L22 10L23 10L23 11L25 11L25 8L23 8L23 9L22 9L22 10L21 10L21 11L20 11L20 9L21 9L21 8L17 8L17 9L16 9L16 7L17 7L17 5L16 5L16 4L15 4L15 3L17 3L17 1L16 1L16 0L14 0L14 1L12 1L12 0L10 0L10 1L9 1L9 0ZM11 1L11 2L12 2L12 1ZM15 1L15 2L16 2L16 1ZM11 3L11 4L12 4L12 5L11 5L11 9L10 9L10 10L8 10L8 11L10 11L10 13L8 13L8 15L6 15L6 14L7 14L7 13L6 13L6 12L7 12L7 11L6 11L6 12L5 12L5 13L4 13L4 12L3 12L3 13L4 13L4 14L5 14L5 15L6 15L6 16L8 16L8 17L9 17L9 18L10 18L10 19L9 19L9 20L10 20L10 21L11 21L11 22L12 22L12 21L11 21L11 20L13 20L13 22L15 22L15 21L14 21L14 20L16 20L16 18L15 18L15 17L16 17L16 16L17 16L17 15L16 15L16 16L14 16L14 13L15 13L15 12L17 12L17 13L16 13L16 14L18 14L18 11L19 11L19 12L20 12L20 11L19 11L19 9L17 9L17 11L15 11L15 10L16 10L16 9L15 9L15 7L16 7L16 5L15 5L15 4L14 4L14 3ZM13 4L13 5L14 5L14 7L15 7L15 5L14 5L14 4ZM9 5L9 8L10 8L10 5ZM12 6L12 7L13 7L13 6ZM12 8L12 10L11 10L11 12L12 12L12 14L9 14L9 15L8 15L8 16L9 16L9 15L10 15L10 16L11 16L11 15L12 15L12 18L11 18L11 19L10 19L10 20L11 20L11 19L12 19L12 18L13 18L13 19L15 19L15 18L14 18L14 16L13 16L13 15L12 15L12 14L13 14L13 13L14 13L14 12L15 12L15 11L14 11L14 12L12 12L12 10L14 10L14 8ZM6 9L6 10L7 10L7 9ZM0 11L0 13L1 13L1 11ZM24 12L24 13L25 13L25 12ZM17 17L17 20L20 20L20 17ZM18 18L18 19L19 19L19 18ZM16 21L16 22L17 22L17 21ZM18 21L18 23L19 23L19 21ZM23 21L23 23L25 23L25 22L24 22L24 21ZM11 23L11 24L12 24L12 23ZM24 24L24 25L25 25L25 24ZM0 0L0 7L7 7L7 0ZM1 1L1 6L6 6L6 1ZM2 2L2 5L5 5L5 2ZM18 0L18 7L25 7L25 0ZM19 1L19 6L24 6L24 1ZM20 2L20 5L23 5L23 2ZM0 18L0 25L7 25L7 18ZM1 19L1 24L6 24L6 19ZM2 20L2 23L5 23L5 20Z" fill="#000000"/></g></g></svg>
