<?xml version="1.0" encoding="UTF-8"?>
<svg xmlns="http://www.w3.org/2000/svg" version="1.1" width="300" height="300" viewBox="0 0 300 300"><rect x="0" y="0" width="300" height="300" fill="#ffffff"/><g transform="scale(12)"><g transform="translate(0,0)"><path fill-rule="evenodd" d="M9 0L9 1L8 1L8 3L9 3L9 4L8 4L8 8L6 8L6 9L4 9L4 8L3 8L3 10L1 10L1 9L2 9L2 8L0 8L0 12L1 12L1 13L2 13L2 12L1 12L1 11L3 11L3 12L4 12L4 13L5 13L5 14L4 14L4 15L1 15L1 14L0 14L0 15L1 15L1 16L0 16L0 17L3 17L3 16L4 16L4 17L7 17L7 16L9 16L9 17L8 17L8 19L10 19L10 21L12 21L12 22L13 22L13 24L12 24L12 25L14 25L14 23L15 23L15 22L16 22L16 25L19 25L19 24L20 24L20 25L22 25L22 20L25 20L25 18L21 18L21 17L23 17L23 16L22 16L22 15L23 15L23 14L24 14L24 15L25 15L25 14L24 14L24 13L25 13L25 12L23 12L23 13L21 13L21 12L22 12L22 11L23 11L23 9L24 9L24 11L25 11L25 9L24 9L24 8L22 8L22 9L21 9L21 8L18 8L18 9L17 9L17 8L14 8L14 9L12 9L12 8L11 8L11 5L12 5L12 7L13 7L13 6L14 6L14 7L15 7L15 6L16 6L16 7L17 7L17 6L16 6L16 5L17 5L17 4L13 4L13 5L12 5L12 4L11 4L11 5L10 5L10 3L9 3L9 2L11 2L11 3L13 3L13 2L12 2L12 0ZM13 0L13 1L14 1L14 2L16 2L16 3L17 3L17 2L16 2L16 0ZM9 5L9 8L8 8L8 9L6 9L6 10L5 10L5 13L6 13L6 14L5 14L5 15L4 15L4 16L5 16L5 15L6 15L6 16L7 16L7 15L6 15L6 14L10 14L10 15L11 15L11 14L12 14L12 16L11 16L11 17L10 17L10 18L11 18L11 20L12 20L12 21L13 21L13 22L14 22L14 21L13 21L13 20L15 20L15 21L16 21L16 20L15 20L15 19L13 19L13 18L11 18L11 17L12 17L12 16L13 16L13 17L14 17L14 18L15 18L15 17L16 17L16 16L19 16L19 15L20 15L20 14L21 14L21 15L22 15L22 14L21 14L21 13L20 13L20 12L21 12L21 11L22 11L22 10L21 10L21 9L19 9L19 10L20 10L20 11L18 11L18 10L17 10L17 11L16 11L16 9L15 9L15 11L14 11L14 10L13 10L13 11L14 11L14 13L13 13L13 14L12 14L12 13L10 13L10 12L9 12L9 11L12 11L12 9L11 9L11 8L10 8L10 5ZM9 9L9 10L6 10L6 11L9 11L9 10L10 10L10 9ZM15 11L15 12L16 12L16 13L14 13L14 15L13 15L13 16L16 16L16 15L17 15L17 14L20 14L20 13L19 13L19 12L18 12L18 11L17 11L17 12L16 12L16 11ZM6 12L6 13L7 13L7 12ZM16 13L16 14L15 14L15 15L16 15L16 14L17 14L17 13ZM17 17L17 20L20 20L20 17ZM18 18L18 19L19 19L19 18ZM12 19L12 20L13 20L13 19ZM8 21L8 22L9 22L9 23L8 23L8 25L9 25L9 23L10 23L10 25L11 25L11 22L9 22L9 21ZM17 21L17 23L18 23L18 24L19 24L19 21ZM20 21L20 22L21 22L21 21ZM24 22L24 23L25 23L25 22ZM20 23L20 24L21 24L21 23ZM23 24L23 25L25 25L25 24ZM0 0L0 7L7 7L7 0ZM1 1L1 6L6 6L6 1ZM2 2L2 5L5 5L5 2ZM18 0L18 7L25 7L25 0ZM19 1L19 6L24 6L24 1ZM20 2L20 5L23 5L23 2ZM0 18L0 25L7 25L7 18ZM1 19L1 24L6 24L6 19ZM2 20L2 23L5 23L5 20Z" fill="#000000"/></g></g></svg>
