<?xml version="1.0" encoding="UTF-8"?>
<svg xmlns="http://www.w3.org/2000/svg" version="1.1" width="300" height="300" viewBox="0 0 300 300"><rect x="0" y="0" width="300" height="300" fill="#ffffff"/><g transform="scale(12)"><g transform="translate(0,0)"><path fill-rule="evenodd" d="M9 0L9 1L10 1L10 2L8 2L8 3L9 3L9 4L10 4L10 5L9 5L9 6L8 6L8 8L4 8L4 9L3 9L3 8L0 8L0 11L1 11L1 12L0 12L0 13L1 13L1 14L0 14L0 15L1 15L1 16L0 16L0 17L1 17L1 16L2 16L2 15L3 15L3 17L5 17L5 15L7 15L7 16L6 16L6 17L8 17L8 21L10 21L10 25L11 25L11 24L12 24L12 25L13 25L13 24L14 24L14 23L15 23L15 25L19 25L19 23L18 23L18 24L17 24L17 22L14 22L14 23L11 23L11 22L13 22L13 20L16 20L16 21L20 21L20 23L21 23L21 25L22 25L22 23L23 23L23 25L25 25L25 24L24 24L24 23L25 23L25 22L24 22L24 23L23 23L23 21L22 21L22 19L25 19L25 18L24 18L24 17L23 17L23 18L21 18L21 17L22 17L22 15L25 15L25 14L24 14L24 13L25 13L25 12L24 12L24 11L25 11L25 9L24 9L24 11L23 11L23 14L22 14L22 13L21 13L21 12L22 12L22 11L18 11L18 9L19 9L19 8L16 8L16 9L13 9L13 12L12 12L12 11L11 11L11 12L12 12L12 13L11 13L11 14L10 14L10 18L9 18L9 16L8 16L8 15L7 15L7 14L9 14L9 13L7 13L7 12L9 12L9 11L10 11L10 10L12 10L12 8L15 8L15 6L16 6L16 7L17 7L17 6L16 6L16 5L15 5L15 4L16 4L16 3L17 3L17 1L15 1L15 0L12 0L12 1L10 1L10 0ZM11 2L11 3L12 3L12 4L11 4L11 5L10 5L10 6L9 6L9 7L10 7L10 6L11 6L11 8L12 8L12 6L13 6L13 7L14 7L14 6L15 6L15 5L14 5L14 4L13 4L13 3L14 3L14 2L13 2L13 3L12 3L12 2ZM15 2L15 3L16 3L16 2ZM13 5L13 6L14 6L14 5ZM9 8L9 9L6 9L6 10L5 10L5 9L4 9L4 10L2 10L2 9L1 9L1 10L2 10L2 12L1 12L1 13L3 13L3 12L4 12L4 13L5 13L5 14L7 14L7 13L6 13L6 12L7 12L7 11L9 11L9 10L10 10L10 8ZM22 8L22 9L21 9L21 10L23 10L23 8ZM4 10L4 12L6 12L6 11L7 11L7 10L6 10L6 11L5 11L5 10ZM15 10L15 11L16 11L16 12L13 12L13 15L14 15L14 16L13 16L13 17L12 17L12 18L11 18L11 20L10 20L10 19L9 19L9 20L10 20L10 21L12 21L12 20L13 20L13 19L14 19L14 18L16 18L16 17L15 17L15 16L19 16L19 15L18 15L18 14L17 14L17 13L16 13L16 12L17 12L17 11L16 11L16 10ZM19 12L19 13L20 13L20 14L21 14L21 15L20 15L20 16L21 16L21 15L22 15L22 14L21 14L21 13L20 13L20 12ZM1 14L1 15L2 15L2 14ZM3 14L3 15L4 15L4 14ZM14 14L14 15L15 15L15 14ZM16 14L16 15L17 15L17 14ZM11 15L11 16L12 16L12 15ZM13 17L13 18L12 18L12 19L13 19L13 18L14 18L14 17ZM17 17L17 20L20 20L20 17ZM18 18L18 19L19 19L19 18ZM8 22L8 25L9 25L9 22ZM21 22L21 23L22 23L22 22ZM0 0L0 7L7 7L7 0ZM1 1L1 6L6 6L6 1ZM2 2L2 5L5 5L5 2ZM18 0L18 7L25 7L25 0ZM19 1L19 6L24 6L24 1ZM20 2L20 5L23 5L23 2ZM0 18L0 25L7 25L7 18ZM1 19L1 24L6 24L6 19ZM2 20L2 23L5 23L5 20Z" fill="#000000"/></g></g></svg>
