<?xml version="1.0" encoding="UTF-8"?>
<svg xmlns="http://www.w3.org/2000/svg" version="1.1" width="300" height="300" viewBox="0 0 300 300"><rect x="0" y="0" width="300" height="300" fill="#ffffff"/><g transform="scale(12)"><g transform="translate(0,0)"><path fill-rule="evenodd" d="M9 0L9 1L8 1L8 2L9 2L9 3L8 3L8 4L10 4L10 7L11 7L11 4L12 4L12 5L13 5L13 4L14 4L14 3L13 3L13 4L12 4L12 2L15 2L15 6L14 6L14 7L15 7L15 8L14 8L14 9L15 9L15 11L14 11L14 13L16 13L16 10L17 10L17 11L18 11L18 10L20 10L20 12L21 12L21 14L20 14L20 15L19 15L19 14L18 14L18 15L17 15L17 16L16 16L16 19L15 19L15 20L14 20L14 21L17 21L17 22L21 22L21 20L22 20L22 21L23 21L23 22L22 22L22 23L20 23L20 24L22 24L22 25L25 25L25 21L23 21L23 20L22 20L22 19L21 19L21 16L22 16L22 17L23 17L23 16L25 16L25 10L24 10L24 8L23 8L23 9L22 9L22 8L21 8L21 10L20 10L20 8L19 8L19 9L18 9L18 8L17 8L17 6L16 6L16 5L17 5L17 0L14 0L14 1L11 1L11 2L10 2L10 0ZM10 3L10 4L11 4L11 3ZM8 5L8 7L9 7L9 5ZM12 6L12 9L13 9L13 6ZM15 6L15 7L16 7L16 6ZM0 8L0 10L1 10L1 9L2 9L2 11L1 11L1 12L0 12L0 17L1 17L1 14L3 14L3 13L5 13L5 14L4 14L4 15L2 15L2 17L3 17L3 16L4 16L4 17L5 17L5 16L4 16L4 15L5 15L5 14L6 14L6 15L7 15L7 14L6 14L6 13L7 13L7 12L8 12L8 16L9 16L9 17L8 17L8 19L9 19L9 20L8 20L8 25L9 25L9 24L10 24L10 25L11 25L11 24L12 24L12 23L11 23L11 24L10 24L10 21L9 21L9 20L11 20L11 18L10 18L10 19L9 19L9 17L10 17L10 16L11 16L11 17L13 17L13 16L11 16L11 15L10 15L10 16L9 16L9 13L10 13L10 14L11 14L11 13L12 13L12 15L14 15L14 18L13 18L13 19L12 19L12 21L13 21L13 19L14 19L14 18L15 18L15 15L16 15L16 14L13 14L13 12L12 12L12 11L13 11L13 10L11 10L11 11L10 11L10 9L11 9L11 8L6 8L6 9L8 9L8 10L6 10L6 11L7 11L7 12L5 12L5 11L4 11L4 10L5 10L5 8ZM15 8L15 9L17 9L17 10L18 10L18 9L17 9L17 8ZM8 10L8 11L9 11L9 10ZM23 10L23 11L22 11L22 12L24 12L24 10ZM1 12L1 13L3 13L3 12ZM10 12L10 13L11 13L11 12ZM17 12L17 13L19 13L19 12ZM22 13L22 16L23 16L23 14L24 14L24 13ZM20 15L20 16L21 16L21 15ZM6 16L6 17L7 17L7 16ZM17 17L17 20L20 20L20 17ZM24 17L24 18L23 18L23 19L25 19L25 17ZM18 18L18 19L19 19L19 18ZM23 22L23 23L22 23L22 24L24 24L24 22ZM14 23L14 25L15 25L15 24L17 24L17 25L19 25L19 24L18 24L18 23ZM0 0L0 7L7 7L7 0ZM1 1L1 6L6 6L6 1ZM2 2L2 5L5 5L5 2ZM18 0L18 7L25 7L25 0ZM19 1L19 6L24 6L24 1ZM20 2L20 5L23 5L23 2ZM0 18L0 25L7 25L7 18ZM1 19L1 24L6 24L6 19ZM2 20L2 23L5 23L5 20Z" fill="#000000"/></g></g></svg>
