<?xml version="1.0" encoding="UTF-8"?>
<svg xmlns="http://www.w3.org/2000/svg" version="1.1" width="300" height="300" viewBox="0 0 300 300"><rect x="0" y="0" width="300" height="300" fill="#ffffff"/><g transform="scale(12)"><g transform="translate(0,0)"><path fill-rule="evenodd" d="M9 0L9 1L8 1L8 3L9 3L9 4L8 4L8 8L6 8L6 9L8 9L8 8L10 8L10 10L9 10L9 11L7 11L7 10L5 10L5 9L4 9L4 8L3 8L3 9L2 9L2 8L0 8L0 9L2 9L2 10L3 10L3 11L4 11L4 12L3 12L3 13L2 13L2 11L0 11L0 12L1 12L1 13L2 13L2 14L3 14L3 13L4 13L4 16L3 16L3 15L1 15L1 14L0 14L0 15L1 15L1 16L0 16L0 17L4 17L4 16L5 16L5 17L8 17L8 19L9 19L9 20L10 20L10 21L8 21L8 22L9 22L9 23L8 23L8 25L9 25L9 24L10 24L10 25L11 25L11 24L12 24L12 23L13 23L13 24L15 24L15 22L16 22L16 25L19 25L19 24L18 24L18 23L17 23L17 21L19 21L19 23L20 23L20 24L21 24L21 25L22 25L22 23L21 23L21 22L23 22L23 21L24 21L24 20L25 20L25 18L23 18L23 19L21 19L21 17L23 17L23 16L22 16L22 15L23 15L23 14L24 14L24 15L25 15L25 14L24 14L24 13L25 13L25 12L23 12L23 13L21 13L21 12L22 12L22 11L23 11L23 9L24 9L24 11L25 11L25 9L24 9L24 8L22 8L22 9L21 9L21 8L18 8L18 9L17 9L17 3L13 3L13 0L12 0L12 1L11 1L11 2L9 2L9 1L10 1L10 0ZM14 1L14 2L17 2L17 1ZM12 3L12 4L9 4L9 5L10 5L10 6L9 6L9 7L10 7L10 8L11 8L11 9L12 9L12 10L11 10L11 11L9 11L9 12L8 12L8 13L5 13L5 15L6 15L6 16L7 16L7 15L8 15L8 13L13 13L13 14L12 14L12 15L13 15L13 14L14 14L14 17L13 17L13 16L10 16L10 18L9 18L9 19L10 19L10 20L11 20L11 19L12 19L12 20L14 20L14 22L15 22L15 21L16 21L16 20L14 20L14 18L15 18L15 17L16 17L16 16L19 16L19 15L20 15L20 14L21 14L21 15L22 15L22 14L21 14L21 13L20 13L20 12L21 12L21 11L22 11L22 10L21 10L21 9L19 9L19 10L20 10L20 11L18 11L18 10L14 10L14 11L18 11L18 12L19 12L19 13L20 13L20 14L17 14L17 13L16 13L16 12L12 12L12 10L13 10L13 9L14 9L14 6L13 6L13 3ZM15 4L15 5L16 5L16 4ZM11 5L11 6L10 6L10 7L11 7L11 6L12 6L12 9L13 9L13 6L12 6L12 5ZM15 6L15 7L16 7L16 6ZM15 8L15 9L16 9L16 8ZM6 11L6 12L7 12L7 11ZM14 13L14 14L16 14L16 15L15 15L15 16L16 16L16 15L17 15L17 14L16 14L16 13ZM6 14L6 15L7 15L7 14ZM9 14L9 15L11 15L11 14ZM8 16L8 17L9 17L9 16ZM12 17L12 18L13 18L13 17ZM17 17L17 20L20 20L20 17ZM18 18L18 19L19 19L19 18ZM23 19L23 20L22 20L22 21L23 21L23 20L24 20L24 19ZM20 21L20 22L21 22L21 21ZM11 22L11 23L12 23L12 22ZM24 22L24 23L25 23L25 22ZM23 24L23 25L25 25L25 24ZM0 0L0 7L7 7L7 0ZM1 1L1 6L6 6L6 1ZM2 2L2 5L5 5L5 2ZM18 0L18 7L25 7L25 0ZM19 1L19 6L24 6L24 1ZM20 2L20 5L23 5L23 2ZM0 18L0 25L7 25L7 18ZM1 19L1 24L6 24L6 19ZM2 20L2 23L5 23L5 20Z" fill="#000000"/></g></g></svg>
