<?xml version="1.0" encoding="UTF-8"?>
<svg xmlns="http://www.w3.org/2000/svg" version="1.1" width="300" height="300" viewBox="0 0 300 300"><rect x="0" y="0" width="300" height="300" fill="#ffffff"/><g transform="scale(12)"><g transform="translate(0,0)"><path fill-rule="evenodd" d="M9 0L9 1L10 1L10 2L8 2L8 3L9 3L9 4L10 4L10 5L9 5L9 6L8 6L8 8L4 8L4 9L3 9L3 8L0 8L0 11L1 11L1 9L2 9L2 10L3 10L3 11L2 11L2 12L1 12L1 13L2 13L2 14L3 14L3 13L2 13L2 12L3 12L3 11L4 11L4 12L6 12L6 13L4 13L4 14L6 14L6 15L5 15L5 16L2 16L2 15L1 15L1 14L0 14L0 15L1 15L1 16L0 16L0 17L1 17L1 16L2 16L2 17L5 17L5 16L6 16L6 17L7 17L7 16L6 16L6 15L7 15L7 14L8 14L8 21L9 21L9 22L8 22L8 25L9 25L9 24L10 24L10 25L12 25L12 24L14 24L14 25L15 25L15 22L17 22L17 21L19 21L19 22L20 22L20 23L21 23L21 24L20 24L20 25L22 25L22 23L21 23L21 22L20 22L20 21L22 21L22 19L21 19L21 17L22 17L22 15L25 15L25 14L24 14L24 13L25 13L25 12L24 12L24 11L25 11L25 9L24 9L24 11L23 11L23 14L22 14L22 13L21 13L21 12L22 12L22 11L20 11L20 13L21 13L21 14L22 14L22 15L19 15L19 16L16 16L16 15L18 15L18 14L19 14L19 12L17 12L17 13L15 13L15 14L13 14L13 12L15 12L15 10L18 10L18 11L19 11L19 8L16 8L16 7L17 7L17 6L16 6L16 5L15 5L15 4L17 4L17 2L16 2L16 1L15 1L15 0L14 0L14 1L13 1L13 0L12 0L12 1L10 1L10 0ZM11 2L11 3L12 3L12 4L11 4L11 5L10 5L10 6L9 6L9 7L10 7L10 6L11 6L11 8L12 8L12 10L10 10L10 8L9 8L9 10L8 10L8 9L5 9L5 10L4 10L4 11L6 11L6 12L7 12L7 11L6 11L6 10L8 10L8 12L9 12L9 13L8 13L8 14L11 14L11 13L12 13L12 12L13 12L13 11L14 11L14 10L15 10L15 7L16 7L16 6L15 6L15 7L14 7L14 5L13 5L13 3L15 3L15 2L13 2L13 3L12 3L12 2ZM12 6L12 8L14 8L14 7L13 7L13 6ZM22 8L22 9L21 9L21 10L23 10L23 8ZM9 10L9 11L10 11L10 10ZM11 11L11 12L12 12L12 11ZM6 13L6 14L7 14L7 13ZM15 14L15 15L16 15L16 14ZM11 15L11 16L12 16L12 18L11 18L11 17L10 17L10 16L9 16L9 17L10 17L10 18L9 18L9 19L12 19L12 20L11 20L11 21L12 21L12 20L13 20L13 21L14 21L14 22L13 22L13 23L14 23L14 22L15 22L15 21L16 21L16 20L15 20L15 17L16 17L16 16L15 16L15 17L14 17L14 16L12 16L12 15ZM17 17L17 20L20 20L20 17ZM23 17L23 19L25 19L25 18L24 18L24 17ZM13 18L13 19L14 19L14 18ZM18 18L18 19L19 19L19 18ZM23 20L23 21L25 21L25 20ZM24 22L24 23L23 23L23 25L25 25L25 24L24 24L24 23L25 23L25 22ZM10 23L10 24L12 24L12 23ZM16 23L16 25L19 25L19 24L17 24L17 23ZM0 0L0 7L7 7L7 0ZM1 1L1 6L6 6L6 1ZM2 2L2 5L5 5L5 2ZM18 0L18 7L25 7L25 0ZM19 1L19 6L24 6L24 1ZM20 2L20 5L23 5L23 2ZM0 18L0 25L7 25L7 18ZM1 19L1 24L6 24L6 19ZM2 20L2 23L5 23L5 20Z" fill="#000000"/></g></g></svg>
