<?xml version="1.0" encoding="UTF-8"?>
<svg xmlns="http://www.w3.org/2000/svg" version="1.1" width="300" height="300" viewBox="0 0 300 300"><rect x="0" y="0" width="300" height="300" fill="#ffffff"/><g transform="scale(12)"><g transform="translate(0,0)"><path fill-rule="evenodd" d="M8 0L8 2L10 2L10 4L8 4L8 9L7 9L7 8L5 8L5 9L3 9L3 8L0 8L0 11L1 11L1 12L2 12L2 13L3 13L3 14L0 14L0 15L3 15L3 17L4 17L4 16L5 16L5 17L8 17L8 18L10 18L10 19L8 19L8 20L9 20L9 21L10 21L10 22L8 22L8 25L9 25L9 23L10 23L10 24L13 24L13 25L15 25L15 22L16 22L16 25L17 25L17 24L18 24L18 25L21 25L21 24L20 24L20 23L25 23L25 22L24 22L24 21L25 21L25 20L24 20L24 19L25 19L25 18L24 18L24 19L23 19L23 20L24 20L24 21L22 21L22 22L21 22L21 19L22 19L22 17L21 17L21 16L20 16L20 15L23 15L23 17L24 17L24 15L25 15L25 14L24 14L24 15L23 15L23 14L19 14L19 13L22 13L22 12L21 12L21 11L22 11L22 10L23 10L23 11L25 11L25 8L23 8L23 9L22 9L22 10L21 10L21 11L20 11L20 9L21 9L21 8L17 8L17 5L16 5L16 4L17 4L17 3L16 3L16 2L17 2L17 1L16 1L16 0L14 0L14 1L13 1L13 0L11 0L11 1L9 1L9 0ZM11 1L11 2L12 2L12 1ZM15 1L15 2L16 2L16 1ZM11 3L11 4L12 4L12 6L11 6L11 5L9 5L9 8L10 8L10 6L11 6L11 7L12 7L12 6L13 6L13 8L11 8L11 10L9 10L9 11L8 11L8 10L7 10L7 9L6 9L6 10L5 10L5 11L6 11L6 12L8 12L8 13L4 13L4 10L3 10L3 9L1 9L1 10L3 10L3 13L4 13L4 14L8 14L8 15L9 15L9 17L10 17L10 16L11 16L11 18L12 18L12 19L10 19L10 21L11 21L11 23L12 23L12 21L11 21L11 20L13 20L13 19L14 19L14 21L13 21L13 22L15 22L15 20L16 20L16 18L15 18L15 17L16 17L16 16L17 16L17 15L16 15L16 16L15 16L15 12L17 12L17 13L16 13L16 14L18 14L18 11L19 11L19 12L20 12L20 11L19 11L19 9L17 9L17 11L15 11L15 12L14 12L14 11L13 11L13 10L16 10L16 9L15 9L15 7L16 7L16 5L14 5L14 3ZM15 3L15 4L16 4L16 3ZM13 5L13 6L14 6L14 7L15 7L15 6L14 6L14 5ZM13 8L13 9L14 9L14 8ZM6 10L6 11L7 11L7 10ZM11 10L11 11L12 11L12 10ZM9 11L9 13L10 13L10 11ZM11 12L11 13L12 13L12 15L11 15L11 16L13 16L13 18L14 18L14 17L15 17L15 16L13 16L13 14L14 14L14 12ZM24 12L24 13L25 13L25 12ZM9 14L9 15L10 15L10 14ZM6 15L6 16L7 16L7 15ZM18 15L18 16L19 16L19 15ZM0 16L0 17L2 17L2 16ZM17 17L17 20L20 20L20 17ZM18 18L18 19L19 19L19 18ZM16 21L16 22L17 22L17 21ZM18 21L18 23L19 23L19 21ZM13 23L13 24L14 24L14 23ZM24 24L24 25L25 25L25 24ZM0 0L0 7L7 7L7 0ZM1 1L1 6L6 6L6 1ZM2 2L2 5L5 5L5 2ZM18 0L18 7L25 7L25 0ZM19 1L19 6L24 6L24 1ZM20 2L20 5L23 5L23 2ZM0 18L0 25L7 25L7 18ZM1 19L1 24L6 24L6 19ZM2 20L2 23L5 23L5 20Z" fill="#000000"/></g></g></svg>
