<?xml version="1.0" encoding="UTF-8"?>
<svg xmlns="http://www.w3.org/2000/svg" version="1.1" width="300" height="300" viewBox="0 0 300 300"><rect x="0" y="0" width="300" height="300" fill="#ffffff"/><g transform="scale(12)"><g transform="translate(0,0)"><path fill-rule="evenodd" d="M8 0L8 2L9 2L9 3L10 3L10 4L8 4L8 9L7 9L7 8L5 8L5 10L4 10L4 9L3 9L3 8L0 8L0 9L1 9L1 10L2 10L2 11L3 11L3 12L2 12L2 14L0 14L0 15L2 15L2 14L3 14L3 13L5 13L5 14L4 14L4 15L3 15L3 16L4 16L4 17L5 17L5 16L6 16L6 17L8 17L8 18L9 18L9 17L8 17L8 15L9 15L9 16L10 16L10 19L11 19L11 20L10 20L10 21L12 21L12 22L8 22L8 25L9 25L9 24L10 24L10 25L14 25L14 24L13 24L13 23L14 23L14 22L13 22L13 21L14 21L14 20L13 20L13 21L12 21L12 18L13 18L13 19L15 19L15 18L16 18L16 20L15 20L15 22L16 22L16 25L17 25L17 24L18 24L18 25L19 25L19 23L20 23L20 25L21 25L21 19L22 19L22 17L21 17L21 16L18 16L18 15L20 15L20 14L19 14L19 13L22 13L22 12L21 12L21 11L22 11L22 10L23 10L23 11L25 11L25 8L23 8L23 9L22 9L22 10L21 10L21 11L20 11L20 9L21 9L21 8L17 8L17 9L16 9L16 7L17 7L17 5L16 5L16 4L15 4L15 3L17 3L17 1L16 1L16 0L14 0L14 1L13 1L13 3L14 3L14 5L12 5L12 3L11 3L11 1L12 1L12 0ZM9 1L9 2L10 2L10 1ZM15 1L15 2L16 2L16 1ZM9 5L9 8L10 8L10 5ZM11 5L11 8L14 8L14 9L13 9L13 10L16 10L16 9L15 9L15 7L16 7L16 5L14 5L14 6L13 6L13 7L12 7L12 5ZM14 6L14 7L15 7L15 6ZM6 9L6 10L5 10L5 11L6 11L6 12L7 12L7 13L6 13L6 14L8 14L8 13L9 13L9 14L12 14L12 13L13 13L13 12L14 12L14 13L15 13L15 12L17 12L17 13L16 13L16 14L18 14L18 11L19 11L19 12L20 12L20 11L19 11L19 9L17 9L17 11L15 11L15 12L14 12L14 11L11 11L11 10L12 10L12 9L10 9L10 10L9 10L9 9L8 9L8 10L9 10L9 11L10 11L10 13L9 13L9 12L7 12L7 11L6 11L6 10L7 10L7 9ZM0 12L0 13L1 13L1 12ZM11 12L11 13L12 13L12 12ZM24 12L24 13L25 13L25 12ZM21 14L21 15L23 15L23 17L24 17L24 15L25 15L25 14L24 14L24 15L23 15L23 14ZM6 15L6 16L7 16L7 15ZM11 15L11 18L12 18L12 16L13 16L13 18L15 18L15 17L16 17L16 16L17 16L17 15L16 15L16 16L15 16L15 17L14 17L14 15ZM0 16L0 17L2 17L2 16ZM17 17L17 20L20 20L20 17ZM18 18L18 19L19 19L19 18ZM24 18L24 19L23 19L23 20L25 20L25 18ZM8 19L8 20L9 20L9 19ZM16 21L16 22L17 22L17 21ZM18 21L18 23L19 23L19 21ZM22 21L22 23L25 23L25 22L24 22L24 21ZM12 22L12 23L10 23L10 24L12 24L12 23L13 23L13 22ZM24 24L24 25L25 25L25 24ZM0 0L0 7L7 7L7 0ZM1 1L1 6L6 6L6 1ZM2 2L2 5L5 5L5 2ZM18 0L18 7L25 7L25 0ZM19 1L19 6L24 6L24 1ZM20 2L20 5L23 5L23 2ZM0 18L0 25L7 25L7 18ZM1 19L1 24L6 24L6 19ZM2 20L2 23L5 23L5 20Z" fill="#000000"/></g></g></svg>
