<?xml version="1.0" encoding="UTF-8"?>
<svg xmlns="http://www.w3.org/2000/svg" version="1.1" width="300" height="300" viewBox="0 0 300 300"><rect x="0" y="0" width="300" height="300" fill="#ffffff"/><g transform="scale(12)"><g transform="translate(0,0)"><path fill-rule="evenodd" d="M8 0L8 1L10 1L10 0ZM13 0L13 1L14 1L14 2L11 2L11 4L10 4L10 3L9 3L9 2L8 2L8 5L9 5L9 6L8 6L8 7L9 7L9 8L8 8L8 11L7 11L7 10L6 10L6 11L4 11L4 10L5 10L5 9L4 9L4 8L0 8L0 12L3 12L3 11L4 11L4 13L7 13L7 12L8 12L8 13L9 13L9 14L8 14L8 15L9 15L9 16L11 16L11 17L12 17L12 18L10 18L10 17L8 17L8 18L10 18L10 19L12 19L12 20L9 20L9 21L8 21L8 25L10 25L10 23L13 23L13 24L12 24L12 25L15 25L15 24L14 24L14 23L16 23L16 22L14 22L14 21L15 21L15 18L16 18L16 21L17 21L17 25L19 25L19 22L20 22L20 24L21 24L21 22L22 22L22 20L21 20L21 19L23 19L23 20L24 20L24 21L23 21L23 23L22 23L22 25L25 25L25 24L23 24L23 23L24 23L24 22L25 22L25 20L24 20L24 19L25 19L25 18L23 18L23 17L25 17L25 15L24 15L24 13L25 13L25 12L23 12L23 11L24 11L24 9L25 9L25 8L24 8L24 9L23 9L23 8L20 8L20 9L18 9L18 8L16 8L16 10L17 10L17 9L18 9L18 12L17 12L17 11L16 11L16 12L15 12L15 11L11 11L11 13L10 13L10 12L8 12L8 11L9 11L9 10L10 10L10 9L9 9L9 8L10 8L10 7L11 7L11 8L12 8L12 7L13 7L13 5L12 5L12 3L13 3L13 4L15 4L15 5L17 5L17 4L15 4L15 3L16 3L16 2L15 2L15 1L14 1L14 0ZM16 0L16 1L17 1L17 0ZM10 5L10 6L9 6L9 7L10 7L10 6L11 6L11 7L12 7L12 5ZM14 6L14 10L15 10L15 6ZM16 6L16 7L17 7L17 6ZM6 8L6 9L7 9L7 8ZM1 9L1 11L3 11L3 10L4 10L4 9ZM20 9L20 10L19 10L19 11L21 11L21 12L19 12L19 14L17 14L17 12L16 12L16 14L15 14L15 15L13 15L13 16L12 16L12 14L14 14L14 13L13 13L13 12L12 12L12 14L10 14L10 15L11 15L11 16L12 16L12 17L13 17L13 16L14 16L14 18L13 18L13 20L12 20L12 21L9 21L9 23L10 23L10 22L12 22L12 21L14 21L14 18L15 18L15 16L17 16L17 15L20 15L20 16L21 16L21 15L22 15L22 16L23 16L23 15L22 15L22 14L23 14L23 13L21 13L21 12L22 12L22 10L21 10L21 9ZM6 11L6 12L7 12L7 11ZM1 13L1 15L0 15L0 16L1 16L1 15L4 15L4 16L2 16L2 17L5 17L5 15L4 15L4 14L3 14L3 13ZM20 13L20 15L21 15L21 13ZM6 14L6 15L7 15L7 14ZM16 14L16 15L17 15L17 14ZM6 16L6 17L7 17L7 16ZM17 17L17 20L20 20L20 17ZM18 18L18 19L19 19L19 18ZM13 22L13 23L14 23L14 22ZM0 0L0 7L7 7L7 0ZM1 1L1 6L6 6L6 1ZM2 2L2 5L5 5L5 2ZM18 0L18 7L25 7L25 0ZM19 1L19 6L24 6L24 1ZM20 2L20 5L23 5L23 2ZM0 18L0 25L7 25L7 18ZM1 19L1 24L6 24L6 19ZM2 20L2 23L5 23L5 20Z" fill="#000000"/></g></g></svg>
