<?xml version="1.0" encoding="UTF-8"?>
<svg xmlns="http://www.w3.org/2000/svg" version="1.1" width="300" height="300" viewBox="0 0 300 300"><rect x="0" y="0" width="300" height="300" fill="#ffffff"/><g transform="scale(10.345)"><g transform="translate(0,0)"><path fill-rule="evenodd" d="M8 0L8 1L11 1L11 3L10 3L10 2L9 2L9 3L10 3L10 5L9 5L9 6L8 6L8 8L9 8L9 9L10 9L10 10L9 10L9 11L10 11L10 10L11 10L11 9L10 9L10 7L11 7L11 6L12 6L12 9L14 9L14 12L13 12L13 13L12 13L12 14L13 14L13 13L16 13L16 14L14 14L14 15L12 15L12 16L10 16L10 18L12 18L12 19L10 19L10 21L8 21L8 22L11 22L11 25L13 25L13 26L10 26L10 25L9 25L9 24L8 24L8 26L10 26L10 27L8 27L8 29L11 29L11 28L12 28L12 27L14 27L14 26L15 26L15 27L17 27L17 24L18 24L18 28L14 28L14 29L18 29L18 28L19 28L19 29L21 29L21 27L22 27L22 29L24 29L24 28L23 28L23 27L25 27L25 26L26 26L26 25L25 25L25 23L26 23L26 22L27 22L27 21L28 21L28 22L29 22L29 21L28 21L28 19L29 19L29 17L28 17L28 19L27 19L27 17L26 17L26 16L27 16L27 15L28 15L28 16L29 16L29 13L28 13L28 12L27 12L27 13L26 13L26 14L25 14L25 13L24 13L24 12L23 12L23 11L21 11L21 10L20 10L20 12L19 12L19 13L18 13L18 10L19 10L19 9L21 9L21 6L20 6L20 8L19 8L19 4L18 4L18 5L17 5L17 6L16 6L16 8L15 8L15 5L16 5L16 4L17 4L17 3L15 3L15 2L16 2L16 0L13 0L13 1L12 1L12 0ZM17 0L17 2L19 2L19 3L20 3L20 4L21 4L21 3L20 3L20 0L19 0L19 1L18 1L18 0ZM12 2L12 4L14 4L14 5L15 5L15 4L14 4L14 3L13 3L13 2ZM10 5L10 6L9 6L9 7L10 7L10 6L11 6L11 5ZM12 5L12 6L13 6L13 8L14 8L14 6L13 6L13 5ZM17 6L17 9L15 9L15 10L18 10L18 9L19 9L19 8L18 8L18 6ZM0 8L0 9L1 9L1 10L3 10L3 9L5 9L5 12L4 12L4 11L3 11L3 12L4 12L4 14L2 14L2 16L1 16L1 17L0 17L0 21L2 21L2 20L3 20L3 21L5 21L5 20L4 20L4 17L5 17L5 15L4 15L4 14L6 14L6 15L7 15L7 14L8 14L8 15L9 15L9 14L11 14L11 12L8 12L8 11L7 11L7 10L6 10L6 9L7 9L7 8L6 8L6 9L5 9L5 8L3 8L3 9L2 9L2 8ZM22 8L22 9L23 9L23 10L24 10L24 11L25 11L25 9L23 9L23 8ZM28 8L28 9L29 9L29 8ZM26 9L26 11L28 11L28 10L27 10L27 9ZM12 10L12 11L13 11L13 10ZM6 11L6 12L7 12L7 11ZM16 11L16 12L17 12L17 11ZM0 12L0 13L1 13L1 12ZM6 13L6 14L7 14L7 13ZM20 13L20 16L22 16L22 17L21 17L21 18L20 18L20 17L19 17L19 15L17 15L17 14L16 14L16 15L15 15L15 16L13 16L13 17L12 17L12 18L16 18L16 21L15 21L15 19L14 19L14 25L15 25L15 26L16 26L16 23L15 23L15 22L17 22L17 23L18 23L18 22L19 22L19 23L20 23L20 21L19 21L19 19L17 19L17 16L18 16L18 17L19 17L19 18L20 18L20 19L21 19L21 20L23 20L23 19L21 19L21 18L24 18L24 20L25 20L25 22L26 22L26 20L25 20L25 19L26 19L26 17L25 17L25 16L26 16L26 15L25 15L25 16L24 16L24 15L23 15L23 14L22 14L22 15L21 15L21 13ZM0 14L0 15L1 15L1 14ZM3 15L3 16L2 16L2 19L3 19L3 16L4 16L4 15ZM16 15L16 16L15 16L15 17L16 17L16 16L17 16L17 15ZM6 16L6 17L7 17L7 18L5 18L5 19L7 19L7 20L6 20L6 21L7 21L7 20L8 20L8 19L9 19L9 18L8 18L8 16ZM23 16L23 17L24 17L24 18L25 18L25 17L24 17L24 16ZM7 18L7 19L8 19L8 18ZM12 19L12 21L11 21L11 22L12 22L12 23L13 23L13 22L12 22L12 21L13 21L13 19ZM21 21L21 24L24 24L24 21ZM22 22L22 23L23 23L23 22ZM27 23L27 25L28 25L28 26L27 26L27 27L26 27L26 29L27 29L27 27L28 27L28 28L29 28L29 24L28 24L28 23ZM22 25L22 26L24 26L24 25ZM10 27L10 28L11 28L11 27ZM19 27L19 28L20 28L20 27ZM0 0L0 7L7 7L7 0ZM1 1L1 6L6 6L6 1ZM2 2L2 5L5 5L5 2ZM22 0L22 7L29 7L29 0ZM23 1L23 6L28 6L28 1ZM24 2L24 5L27 5L27 2ZM0 22L0 29L7 29L7 22ZM1 23L1 28L6 28L6 23ZM2 24L2 27L5 27L5 24Z" fill="#000000"/></g></g></svg>
