<?xml version="1.0" encoding="UTF-8"?>
<svg xmlns="http://www.w3.org/2000/svg" version="1.1" width="300" height="300" viewBox="0 0 300 300"><rect x="0" y="0" width="300" height="300" fill="#ffffff"/><g transform="scale(12)"><g transform="translate(0,0)"><path fill-rule="evenodd" d="M10 0L10 1L8 1L8 3L9 3L9 4L8 4L8 8L6 8L6 9L4 9L4 8L3 8L3 9L2 9L2 8L0 8L0 9L2 9L2 10L4 10L4 11L2 11L2 12L3 12L3 13L2 13L2 15L1 15L1 14L0 14L0 15L1 15L1 16L0 16L0 17L2 17L2 16L3 16L3 15L4 15L4 16L5 16L5 17L7 17L7 16L11 16L11 15L12 15L12 14L13 14L13 17L12 17L12 18L14 18L14 14L16 14L16 15L15 15L15 16L16 16L16 17L15 17L15 20L16 20L16 21L15 21L15 22L14 22L14 20L13 20L13 19L12 19L12 21L11 21L11 20L10 20L10 19L11 19L11 17L8 17L8 19L9 19L9 20L10 20L10 21L8 21L8 22L9 22L9 23L8 23L8 25L9 25L9 24L10 24L10 25L13 25L13 24L15 24L15 22L16 22L16 25L19 25L19 24L18 24L18 23L17 23L17 21L19 21L19 23L20 23L20 24L21 24L21 25L22 25L22 23L21 23L21 22L22 22L22 20L24 20L24 19L25 19L25 18L23 18L23 19L21 19L21 17L23 17L23 16L22 16L22 15L23 15L23 14L24 14L24 15L25 15L25 14L24 14L24 13L25 13L25 12L23 12L23 13L21 13L21 12L22 12L22 11L23 11L23 9L24 9L24 11L25 11L25 9L24 9L24 8L22 8L22 9L21 9L21 8L18 8L18 9L17 9L17 4L16 4L16 3L13 3L13 4L12 4L12 7L11 7L11 4L10 4L10 3L9 3L9 2L11 2L11 0ZM14 0L14 2L17 2L17 1L15 1L15 0ZM13 4L13 5L14 5L14 4ZM15 4L15 5L16 5L16 4ZM9 5L9 8L8 8L8 12L7 12L7 11L5 11L5 12L4 12L4 13L3 13L3 14L4 14L4 15L5 15L5 16L7 16L7 15L6 15L6 14L8 14L8 12L9 12L9 13L10 13L10 14L9 14L9 15L11 15L11 13L10 13L10 12L9 12L9 11L11 11L11 12L13 12L13 14L14 14L14 13L16 13L16 14L17 14L17 15L16 15L16 16L19 16L19 15L20 15L20 14L21 14L21 15L22 15L22 14L21 14L21 13L20 13L20 12L21 12L21 11L22 11L22 10L21 10L21 9L19 9L19 10L20 10L20 11L18 11L18 10L17 10L17 11L16 11L16 10L15 10L15 9L14 9L14 8L15 8L15 7L16 7L16 6L15 6L15 7L14 7L14 6L13 6L13 7L12 7L12 8L10 8L10 5ZM12 8L12 9L11 9L11 10L12 10L12 11L13 11L13 12L14 12L14 11L15 11L15 10L14 10L14 9L13 9L13 8ZM6 9L6 10L7 10L7 9ZM9 9L9 10L10 10L10 9ZM0 11L0 13L1 13L1 11ZM17 11L17 14L20 14L20 13L19 13L19 12L18 12L18 11ZM6 12L6 13L7 13L7 12ZM4 13L4 14L5 14L5 13ZM17 17L17 20L20 20L20 17ZM18 18L18 19L19 19L19 18ZM20 21L20 22L21 22L21 21ZM10 22L10 24L11 24L11 23L12 23L12 24L13 24L13 23L12 23L12 22ZM24 22L24 23L25 23L25 22ZM23 24L23 25L25 25L25 24ZM0 0L0 7L7 7L7 0ZM1 1L1 6L6 6L6 1ZM2 2L2 5L5 5L5 2ZM18 0L18 7L25 7L25 0ZM19 1L19 6L24 6L24 1ZM20 2L20 5L23 5L23 2ZM0 18L0 25L7 25L7 18ZM1 19L1 24L6 24L6 19ZM2 20L2 23L5 23L5 20Z" fill="#000000"/></g></g></svg>
