<?xml version="1.0" encoding="UTF-8"?>
<svg xmlns="http://www.w3.org/2000/svg" version="1.1" width="300" height="300" viewBox="0 0 300 300"><rect x="0" y="0" width="300" height="300" fill="#ffffff"/><g transform="scale(12)"><g transform="translate(0,0)"><path fill-rule="evenodd" d="M9 0L9 1L8 1L8 2L9 2L9 3L8 3L8 4L10 4L10 7L11 7L11 4L12 4L12 5L13 5L13 4L12 4L12 2L15 2L15 3L14 3L14 4L15 4L15 5L14 5L14 9L13 9L13 6L12 6L12 9L13 9L13 10L11 10L11 11L10 11L10 9L11 9L11 8L6 8L6 9L5 9L5 8L0 8L0 9L3 9L3 10L4 10L4 11L5 11L5 12L3 12L3 11L2 11L2 10L0 10L0 12L2 12L2 13L0 13L0 17L1 17L1 14L2 14L2 16L3 16L3 17L4 17L4 16L5 16L5 17L7 17L7 16L8 16L8 15L7 15L7 14L6 14L6 13L8 13L8 11L9 11L9 13L10 13L10 15L11 15L11 13L12 13L12 14L13 14L13 13L14 13L14 12L15 12L15 13L16 13L16 10L17 10L17 11L18 11L18 10L20 10L20 12L21 12L21 14L18 14L18 15L17 15L17 16L16 16L16 19L14 19L14 17L15 17L15 16L14 16L14 17L13 17L13 16L12 16L12 17L13 17L13 19L14 19L14 21L17 21L17 22L22 22L22 21L23 21L23 22L24 22L24 24L22 24L22 23L21 23L21 24L20 24L20 23L19 23L19 24L18 24L18 23L15 23L15 22L14 22L14 25L15 25L15 24L17 24L17 25L19 25L19 24L20 24L20 25L21 25L21 24L22 24L22 25L25 25L25 21L23 21L23 20L22 20L22 19L25 19L25 17L24 17L24 18L21 18L21 16L22 16L22 17L23 17L23 16L25 16L25 10L24 10L24 8L23 8L23 9L22 9L22 8L21 8L21 10L20 10L20 8L19 8L19 9L18 9L18 8L17 8L17 6L16 6L16 5L17 5L17 4L15 4L15 3L16 3L16 2L17 2L17 0L14 0L14 1L11 1L11 2L10 2L10 0ZM10 3L10 4L11 4L11 3ZM8 5L8 7L9 7L9 5ZM15 6L15 8L16 8L16 6ZM6 9L6 10L7 10L7 11L6 11L6 12L5 12L5 13L4 13L4 14L3 14L3 13L2 13L2 14L3 14L3 16L4 16L4 15L5 15L5 13L6 13L6 12L7 12L7 11L8 11L8 10L9 10L9 9L8 9L8 10L7 10L7 9ZM14 9L14 11L12 11L12 12L14 12L14 11L15 11L15 9ZM17 9L17 10L18 10L18 9ZM23 10L23 11L22 11L22 12L24 12L24 10ZM10 12L10 13L11 13L11 12ZM17 12L17 13L19 13L19 12ZM22 13L22 16L23 16L23 14L24 14L24 13ZM15 14L15 15L16 15L16 14ZM6 15L6 16L7 16L7 15ZM20 15L20 16L21 16L21 15ZM8 17L8 19L9 19L9 20L8 20L8 25L13 25L13 24L12 24L12 23L13 23L13 22L12 22L12 23L11 23L11 24L10 24L10 23L9 23L9 21L11 21L11 20L12 20L12 21L13 21L13 20L12 20L12 19L11 19L11 17L10 17L10 19L9 19L9 17ZM17 17L17 20L20 20L20 17ZM18 18L18 19L19 19L19 18ZM21 20L21 21L22 21L22 20ZM0 0L0 7L7 7L7 0ZM1 1L1 6L6 6L6 1ZM2 2L2 5L5 5L5 2ZM18 0L18 7L25 7L25 0ZM19 1L19 6L24 6L24 1ZM20 2L20 5L23 5L23 2ZM0 18L0 25L7 25L7 18ZM1 19L1 24L6 24L6 19ZM2 20L2 23L5 23L5 20Z" fill="#000000"/></g></g></svg>
