<?xml version="1.0" encoding="UTF-8"?>
<svg xmlns="http://www.w3.org/2000/svg" version="1.1" width="300" height="300" viewBox="0 0 300 300"><rect x="0" y="0" width="300" height="300" fill="#ffffff"/><g transform="scale(12)"><g transform="translate(0,0)"><path fill-rule="evenodd" d="M9 0L9 1L8 1L8 3L9 3L9 1L10 1L10 2L11 2L11 3L10 3L10 4L11 4L11 5L12 5L12 7L11 7L11 6L10 6L10 5L9 5L9 4L8 4L8 8L6 8L6 9L8 9L8 8L9 8L9 10L6 10L6 11L4 11L4 10L5 10L5 9L4 9L4 8L3 8L3 9L2 9L2 8L0 8L0 13L3 13L3 15L1 15L1 14L0 14L0 15L1 15L1 16L0 16L0 17L2 17L2 16L3 16L3 17L5 17L5 14L6 14L6 15L8 15L8 16L6 16L6 17L8 17L8 19L9 19L9 20L11 20L11 22L10 22L10 21L8 21L8 22L10 22L10 24L9 24L9 23L8 23L8 25L11 25L11 22L12 22L12 23L13 23L13 24L12 24L12 25L15 25L15 22L16 22L16 25L19 25L19 24L18 24L18 23L17 23L17 21L19 21L19 23L21 23L21 24L20 24L20 25L22 25L22 23L23 23L23 22L24 22L24 23L25 23L25 20L24 20L24 19L25 19L25 18L23 18L23 19L21 19L21 17L23 17L23 16L22 16L22 15L23 15L23 14L24 14L24 15L25 15L25 14L24 14L24 13L25 13L25 12L23 12L23 13L21 13L21 12L22 12L22 11L23 11L23 9L24 9L24 11L25 11L25 9L24 9L24 8L22 8L22 9L21 9L21 8L18 8L18 9L16 9L16 11L14 11L14 9L15 9L15 8L16 8L16 7L17 7L17 1L16 1L16 0L13 0L13 1L14 1L14 2L15 2L15 3L14 3L14 5L12 5L12 4L11 4L11 3L12 3L12 0ZM9 6L9 7L10 7L10 9L11 9L11 10L10 10L10 12L9 12L9 11L8 11L8 12L9 12L9 13L6 13L6 14L9 14L9 13L10 13L10 12L11 12L11 14L10 14L10 15L9 15L9 17L10 17L10 15L11 15L11 14L12 14L12 16L11 16L11 17L12 17L12 16L13 16L13 17L16 17L16 16L19 16L19 15L20 15L20 14L21 14L21 15L22 15L22 14L21 14L21 13L20 13L20 12L21 12L21 11L22 11L22 10L21 10L21 9L19 9L19 10L20 10L20 11L18 11L18 10L17 10L17 11L18 11L18 12L19 12L19 13L20 13L20 14L17 14L17 13L16 13L16 14L15 14L15 12L14 12L14 14L12 14L12 13L13 13L13 12L11 12L11 11L12 11L12 9L11 9L11 7L10 7L10 6ZM13 6L13 7L12 7L12 8L14 8L14 6ZM15 6L15 7L16 7L16 6ZM1 9L1 10L2 10L2 9ZM3 9L3 10L4 10L4 9ZM1 11L1 12L2 12L2 11ZM3 11L3 12L4 12L4 13L5 13L5 12L4 12L4 11ZM6 11L6 12L7 12L7 11ZM16 14L16 15L15 15L15 16L16 16L16 15L17 15L17 14ZM13 15L13 16L14 16L14 15ZM17 17L17 20L20 20L20 17ZM9 18L9 19L11 19L11 20L12 20L12 21L13 21L13 20L14 20L14 18ZM18 18L18 19L19 19L19 18ZM15 20L15 21L16 21L16 20ZM22 20L22 21L20 21L20 22L21 22L21 23L22 23L22 22L23 22L23 20ZM13 22L13 23L14 23L14 22ZM23 24L23 25L25 25L25 24ZM0 0L0 7L7 7L7 0ZM1 1L1 6L6 6L6 1ZM2 2L2 5L5 5L5 2ZM18 0L18 7L25 7L25 0ZM19 1L19 6L24 6L24 1ZM20 2L20 5L23 5L23 2ZM0 18L0 25L7 25L7 18ZM1 19L1 24L6 24L6 19ZM2 20L2 23L5 23L5 20Z" fill="#000000"/></g></g></svg>
