<?xml version="1.0" encoding="UTF-8"?>
<svg xmlns="http://www.w3.org/2000/svg" version="1.1" width="300" height="300" viewBox="0 0 300 300"><rect x="0" y="0" width="300" height="300" fill="#ffffff"/><g transform="scale(12)"><g transform="translate(0,0)"><path fill-rule="evenodd" d="M8 0L8 1L9 1L9 2L10 2L10 3L11 3L11 1L13 1L13 2L12 2L12 4L11 4L11 5L10 5L10 4L9 4L9 5L10 5L10 8L9 8L9 6L8 6L8 8L9 8L9 10L8 10L8 9L7 9L7 8L6 8L6 9L7 9L7 10L6 10L6 11L5 11L5 12L4 12L4 10L5 10L5 8L3 8L3 9L2 9L2 8L0 8L0 11L1 11L1 12L0 12L0 17L1 17L1 15L3 15L3 17L4 17L4 15L5 15L5 16L6 16L6 17L8 17L8 18L10 18L10 23L8 23L8 25L10 25L10 24L11 24L11 19L12 19L12 21L15 21L15 22L12 22L12 23L14 23L14 24L12 24L12 25L15 25L15 22L17 22L17 23L18 23L18 22L20 22L20 25L21 25L21 22L23 22L23 23L22 23L22 24L24 24L24 25L25 25L25 20L24 20L24 19L25 19L25 17L24 17L24 16L25 16L25 10L24 10L24 9L25 9L25 8L24 8L24 9L23 9L23 10L21 10L21 9L19 9L19 8L18 8L18 10L21 10L21 11L20 11L20 12L18 12L18 11L16 11L16 10L15 10L15 8L16 8L16 9L17 9L17 8L16 8L16 7L17 7L17 6L16 6L16 7L15 7L15 6L14 6L14 7L13 7L13 5L12 5L12 4L13 4L13 3L14 3L14 2L15 2L15 3L16 3L16 4L14 4L14 5L17 5L17 1L16 1L16 0L15 0L15 1L14 1L14 0L11 0L11 1L9 1L9 0ZM15 1L15 2L16 2L16 1ZM11 5L11 7L12 7L12 9L10 9L10 10L9 10L9 11L10 11L10 10L12 10L12 11L13 11L13 12L14 12L14 13L11 13L11 12L10 12L10 14L7 14L7 13L6 13L6 12L8 12L8 11L6 11L6 12L5 12L5 13L4 13L4 12L3 12L3 11L2 11L2 9L1 9L1 11L2 11L2 12L1 12L1 14L2 14L2 13L3 13L3 15L4 15L4 14L5 14L5 15L6 15L6 16L7 16L7 15L8 15L8 16L9 16L9 17L10 17L10 14L13 14L13 15L12 15L12 16L11 16L11 17L14 17L14 18L15 18L15 19L14 19L14 20L16 20L16 18L15 18L15 17L16 17L16 16L14 16L14 13L15 13L15 12L16 12L16 11L15 11L15 10L14 10L14 9L13 9L13 7L12 7L12 5ZM14 7L14 8L15 8L15 7ZM12 9L12 10L13 10L13 9ZM21 11L21 12L22 12L22 13L21 13L21 14L19 14L19 13L18 13L18 12L17 12L17 13L16 13L16 14L17 14L17 15L18 15L18 14L19 14L19 16L21 16L21 17L22 17L22 15L21 15L21 14L24 14L24 12L22 12L22 11ZM5 13L5 14L6 14L6 15L7 15L7 14L6 14L6 13ZM17 17L17 20L20 20L20 17ZM12 18L12 19L13 19L13 18ZM18 18L18 19L19 19L19 18ZM22 18L22 19L21 19L21 21L20 21L20 22L21 22L21 21L23 21L23 19L24 19L24 18ZM8 20L8 22L9 22L9 20ZM16 24L16 25L17 25L17 24ZM18 24L18 25L19 25L19 24ZM0 0L0 7L7 7L7 0ZM1 1L1 6L6 6L6 1ZM2 2L2 5L5 5L5 2ZM18 0L18 7L25 7L25 0ZM19 1L19 6L24 6L24 1ZM20 2L20 5L23 5L23 2ZM0 18L0 25L7 25L7 18ZM1 19L1 24L6 24L6 19ZM2 20L2 23L5 23L5 20Z" fill="#000000"/></g></g></svg>
