<?xml version="1.0" encoding="UTF-8"?>
<svg xmlns="http://www.w3.org/2000/svg" version="1.1" width="300" height="300" viewBox="0 0 300 300"><rect x="0" y="0" width="300" height="300" fill="#ffffff"/><g transform="scale(10.345)"><g transform="translate(0,0)"><path fill-rule="evenodd" d="M9 0L9 1L10 1L10 2L8 2L8 3L9 3L9 4L10 4L10 5L9 5L9 6L8 6L8 8L4 8L4 9L3 9L3 8L0 8L0 11L1 11L1 12L2 12L2 11L4 11L4 10L5 10L5 11L7 11L7 12L6 12L6 13L7 13L7 14L5 14L5 16L3 16L3 17L2 17L2 15L3 15L3 14L4 14L4 13L5 13L5 12L3 12L3 13L2 13L2 14L0 14L0 15L1 15L1 17L2 17L2 18L3 18L3 19L4 19L4 18L3 18L3 17L7 17L7 16L8 16L8 18L6 18L6 19L5 19L5 20L2 20L2 19L1 19L1 18L0 18L0 19L1 19L1 20L0 20L0 21L1 21L1 20L2 20L2 21L7 21L7 20L6 20L6 19L8 19L8 18L10 18L10 13L9 13L9 11L10 11L10 10L12 10L12 8L14 8L14 10L13 10L13 11L14 11L14 10L16 10L16 9L18 9L18 7L19 7L19 8L20 8L20 9L21 9L21 10L22 10L22 11L21 11L21 12L20 12L20 11L19 11L19 10L18 10L18 11L15 11L15 12L16 12L16 15L17 15L17 17L16 17L16 18L17 18L17 17L18 17L18 16L20 16L20 20L18 20L18 19L19 19L19 18L18 18L18 19L17 19L17 20L16 20L16 19L15 19L15 20L16 20L16 22L18 22L18 23L16 23L16 26L18 26L18 27L17 27L17 28L16 28L16 27L15 27L15 28L16 28L16 29L18 29L18 27L19 27L19 29L21 29L21 26L20 26L20 27L19 27L19 25L18 25L18 23L20 23L20 25L23 25L23 27L22 27L22 28L23 28L23 27L25 27L25 22L27 22L27 24L26 24L26 26L28 26L28 27L27 27L27 29L29 29L29 28L28 28L28 27L29 27L29 22L28 22L28 21L27 21L27 20L26 20L26 19L25 19L25 18L23 18L23 15L25 15L25 17L26 17L26 15L25 15L25 14L24 14L24 12L25 12L25 13L26 13L26 11L27 11L27 12L29 12L29 9L27 9L27 8L26 8L26 9L25 9L25 10L26 10L26 11L23 11L23 10L24 10L24 9L23 9L23 8L20 8L20 7L21 7L21 6L20 6L20 2L21 2L21 1L20 1L20 0L16 0L16 1L14 1L14 0L12 0L12 1L10 1L10 0ZM13 1L13 2L14 2L14 1ZM18 1L18 2L17 2L17 3L16 3L16 2L15 2L15 3L16 3L16 4L15 4L15 5L14 5L14 4L13 4L13 3L12 3L12 2L11 2L11 3L12 3L12 4L11 4L11 5L10 5L10 6L9 6L9 7L10 7L10 6L11 6L11 8L12 8L12 6L13 6L13 7L14 7L14 6L15 6L15 8L16 8L16 6L17 6L17 7L18 7L18 6L19 6L19 7L20 7L20 6L19 6L19 4L18 4L18 3L19 3L19 1ZM13 5L13 6L14 6L14 5ZM9 8L9 10L8 10L8 9L6 9L6 10L8 10L8 11L9 11L9 10L10 10L10 8ZM1 9L1 10L2 10L2 9ZM26 9L26 10L27 10L27 11L28 11L28 10L27 10L27 9ZM11 11L11 12L12 12L12 13L11 13L11 15L12 15L12 16L11 16L11 18L12 18L12 16L14 16L14 18L13 18L13 19L14 19L14 18L15 18L15 14L14 14L14 13L13 13L13 12L12 12L12 11ZM22 11L22 12L23 12L23 11ZM7 12L7 13L8 13L8 14L7 14L7 15L6 15L6 16L7 16L7 15L8 15L8 16L9 16L9 15L8 15L8 14L9 14L9 13L8 13L8 12ZM18 12L18 13L19 13L19 15L20 15L20 12ZM21 13L21 16L22 16L22 13ZM28 13L28 15L27 15L27 19L29 19L29 18L28 18L28 17L29 17L29 16L28 16L28 15L29 15L29 13ZM13 14L13 15L14 15L14 14ZM21 17L21 18L22 18L22 17ZM10 19L10 20L12 20L12 21L10 21L10 23L9 23L9 21L8 21L8 25L9 25L9 26L8 26L8 29L9 29L9 28L12 28L12 29L13 29L13 28L12 28L12 27L11 27L11 26L12 26L12 24L14 24L14 26L13 26L13 27L14 27L14 26L15 26L15 22L14 22L14 21L13 21L13 20L12 20L12 19ZM21 19L21 20L24 20L24 19ZM25 20L25 21L26 21L26 20ZM18 21L18 22L19 22L19 21ZM21 21L21 24L24 24L24 21ZM13 22L13 23L14 23L14 22ZM22 22L22 23L23 23L23 22ZM10 23L10 24L12 24L12 23ZM27 24L27 25L28 25L28 24ZM9 26L9 27L10 27L10 26ZM24 28L24 29L25 29L25 28ZM0 0L0 7L7 7L7 0ZM1 1L1 6L6 6L6 1ZM2 2L2 5L5 5L5 2ZM22 0L22 7L29 7L29 0ZM23 1L23 6L28 6L28 1ZM24 2L24 5L27 5L27 2ZM0 22L0 29L7 29L7 22ZM1 23L1 28L6 28L6 23ZM2 24L2 27L5 27L5 24Z" fill="#000000"/></g></g></svg>
