<?xml version="1.0" encoding="UTF-8"?>
<svg xmlns="http://www.w3.org/2000/svg" version="1.1" width="300" height="300" viewBox="0 0 300 300"><rect x="0" y="0" width="300" height="300" fill="#ffffff"/><g transform="scale(12)"><g transform="translate(0,0)"><path fill-rule="evenodd" d="M8 0L8 2L9 2L9 3L10 3L10 2L9 2L9 1L11 1L11 2L12 2L12 0ZM14 0L14 2L13 2L13 3L11 3L11 5L9 5L9 4L8 4L8 9L7 9L7 8L5 8L5 10L4 10L4 11L7 11L7 12L6 12L6 13L7 13L7 14L5 14L5 12L4 12L4 14L3 14L3 15L2 15L2 14L0 14L0 15L2 15L2 16L0 16L0 17L2 17L2 16L3 16L3 17L8 17L8 18L9 18L9 19L8 19L8 20L10 20L10 21L9 21L9 22L8 22L8 25L12 25L12 23L14 23L14 24L13 24L13 25L14 25L14 24L15 24L15 25L17 25L17 24L18 24L18 25L21 25L21 23L22 23L22 21L21 21L21 19L22 19L22 17L21 17L21 15L23 15L23 17L24 17L24 15L25 15L25 14L24 14L24 15L23 15L23 14L21 14L21 15L20 15L20 13L22 13L22 12L21 12L21 11L22 11L22 10L23 10L23 11L25 11L25 8L23 8L23 9L22 9L22 10L21 10L21 11L20 11L20 9L21 9L21 8L17 8L17 5L16 5L16 3L15 3L15 1L16 1L16 2L17 2L17 1L16 1L16 0ZM14 3L14 4L15 4L15 3ZM11 5L11 7L10 7L10 6L9 6L9 7L10 7L10 9L9 9L9 10L11 10L11 11L12 11L12 9L11 9L11 8L14 8L14 9L13 9L13 10L14 10L14 9L15 9L15 10L16 10L16 11L13 11L13 12L11 12L11 14L10 14L10 13L9 13L9 12L10 12L10 11L8 11L8 12L7 12L7 13L8 13L8 14L7 14L7 15L6 15L6 16L8 16L8 17L9 17L9 18L10 18L10 17L11 17L11 19L10 19L10 20L11 20L11 21L10 21L10 23L9 23L9 24L10 24L10 23L11 23L11 22L16 22L16 23L17 23L17 22L16 22L16 21L15 21L15 20L16 20L16 17L15 17L15 16L17 16L17 15L18 15L18 16L20 16L20 15L19 15L19 14L18 14L18 12L19 12L19 11L18 11L18 12L17 12L17 10L18 10L18 9L17 9L17 10L16 10L16 5L13 5L13 7L12 7L12 5ZM14 6L14 7L15 7L15 6ZM0 8L0 9L2 9L2 11L1 11L1 12L0 12L0 13L3 13L3 8ZM6 9L6 10L7 10L7 9ZM13 12L13 13L14 13L14 12ZM15 12L15 13L16 13L16 14L13 14L13 15L14 15L14 16L11 16L11 15L12 15L12 14L11 14L11 15L10 15L10 16L11 16L11 17L12 17L12 19L11 19L11 20L12 20L12 21L14 21L14 20L15 20L15 19L14 19L14 20L13 20L13 17L14 17L14 18L15 18L15 17L14 17L14 16L15 16L15 15L17 15L17 12ZM24 12L24 13L25 13L25 12ZM4 14L4 15L5 15L5 14ZM8 15L8 16L9 16L9 15ZM17 17L17 20L20 20L20 17ZM18 18L18 19L19 19L19 18ZM24 18L24 19L25 19L25 18ZM23 20L23 23L25 23L25 22L24 22L24 20ZM18 21L18 24L20 24L20 23L19 23L19 22L21 22L21 21ZM24 24L24 25L25 25L25 24ZM0 0L0 7L7 7L7 0ZM1 1L1 6L6 6L6 1ZM2 2L2 5L5 5L5 2ZM18 0L18 7L25 7L25 0ZM19 1L19 6L24 6L24 1ZM20 2L20 5L23 5L23 2ZM0 18L0 25L7 25L7 18ZM1 19L1 24L6 24L6 19ZM2 20L2 23L5 23L5 20Z" fill="#000000"/></g></g></svg>
