<?xml version="1.0" encoding="UTF-8"?>
<svg xmlns="http://www.w3.org/2000/svg" version="1.1" width="300" height="300" viewBox="0 0 300 300"><rect x="0" y="0" width="300" height="300" fill="#ffffff"/><g transform="scale(12)"><g transform="translate(0,0)"><path fill-rule="evenodd" d="M8 0L8 2L9 2L9 3L10 3L10 4L8 4L8 9L9 9L9 10L10 10L10 9L12 9L12 10L11 10L11 13L12 13L12 14L11 14L11 15L10 15L10 18L9 18L9 17L8 17L8 18L9 18L9 19L8 19L8 20L9 20L9 22L8 22L8 25L9 25L9 24L10 24L10 23L9 23L9 22L10 22L10 21L12 21L12 22L11 22L11 23L12 23L12 22L14 22L14 24L11 24L11 25L14 25L14 24L15 24L15 25L17 25L17 24L18 24L18 25L19 25L19 24L20 24L20 25L21 25L21 23L25 23L25 22L24 22L24 21L23 21L23 22L19 22L19 24L18 24L18 21L21 21L21 19L22 19L22 17L21 17L21 15L23 15L23 17L24 17L24 15L25 15L25 14L24 14L24 15L23 15L23 14L21 14L21 15L20 15L20 13L22 13L22 12L21 12L21 11L22 11L22 10L23 10L23 11L25 11L25 8L23 8L23 9L22 9L22 10L21 10L21 11L20 11L20 9L21 9L21 8L15 8L15 6L14 6L14 4L15 4L15 5L16 5L16 7L17 7L17 5L16 5L16 4L17 4L17 3L16 3L16 4L15 4L15 3L14 3L14 2L12 2L12 4L11 4L11 3L10 3L10 2L11 2L11 1L12 1L12 0L10 0L10 2L9 2L9 0ZM14 0L14 1L16 1L16 0ZM13 3L13 4L12 4L12 5L9 5L9 8L10 8L10 6L11 6L11 8L14 8L14 10L16 10L16 9L15 9L15 8L14 8L14 6L13 6L13 7L12 7L12 5L13 5L13 4L14 4L14 3ZM0 8L0 10L1 10L1 11L4 11L4 13L3 13L3 14L5 14L5 15L7 15L7 16L6 16L6 17L7 17L7 16L9 16L9 13L10 13L10 11L8 11L8 12L9 12L9 13L8 13L8 15L7 15L7 14L6 14L6 13L7 13L7 12L6 12L6 11L7 11L7 10L5 10L5 9L7 9L7 8L5 8L5 9L3 9L3 8ZM1 9L1 10L3 10L3 9ZM17 9L17 10L18 10L18 9ZM4 10L4 11L5 11L5 10ZM13 11L13 12L12 12L12 13L13 13L13 14L16 14L16 13L17 13L17 15L15 15L15 16L14 16L14 15L11 15L11 16L14 16L14 18L13 18L13 17L12 17L12 18L13 18L13 19L12 19L12 21L13 21L13 20L14 20L14 22L16 22L16 23L17 23L17 22L16 22L16 21L15 21L15 20L16 20L16 17L15 17L15 16L17 16L17 15L18 15L18 16L20 16L20 15L19 15L19 14L18 14L18 12L19 12L19 11L18 11L18 12L17 12L17 11L16 11L16 13L15 13L15 11ZM5 12L5 13L6 13L6 12ZM13 12L13 13L14 13L14 12ZM24 12L24 13L25 13L25 12ZM0 14L0 15L2 15L2 14ZM3 15L3 16L0 16L0 17L3 17L3 16L4 16L4 17L5 17L5 16L4 16L4 15ZM17 17L17 20L20 20L20 17ZM18 18L18 19L19 19L19 18ZM24 18L24 19L23 19L23 20L25 20L25 18ZM9 19L9 20L10 20L10 19ZM24 24L24 25L25 25L25 24ZM0 0L0 7L7 7L7 0ZM1 1L1 6L6 6L6 1ZM2 2L2 5L5 5L5 2ZM18 0L18 7L25 7L25 0ZM19 1L19 6L24 6L24 1ZM20 2L20 5L23 5L23 2ZM0 18L0 25L7 25L7 18ZM1 19L1 24L6 24L6 19ZM2 20L2 23L5 23L5 20Z" fill="#000000"/></g></g></svg>
