<?xml version="1.0" encoding="UTF-8"?>
<svg xmlns="http://www.w3.org/2000/svg" version="1.1" width="300" height="300" viewBox="0 0 300 300"><rect x="0" y="0" width="300" height="300" fill="#ffffff"/><g transform="scale(12)"><g transform="translate(0,0)"><path fill-rule="evenodd" d="M9 0L9 1L10 1L10 2L8 2L8 3L9 3L9 4L10 4L10 5L9 5L9 6L8 6L8 8L4 8L4 9L3 9L3 8L0 8L0 10L2 10L2 9L3 9L3 10L4 10L4 12L3 12L3 11L0 11L0 12L3 12L3 13L4 13L4 14L5 14L5 11L7 11L7 12L6 12L6 13L7 13L7 12L8 12L8 14L6 14L6 15L10 15L10 17L9 17L9 16L8 16L8 21L9 21L9 22L8 22L8 25L9 25L9 22L10 22L10 24L11 24L11 25L12 25L12 24L14 24L14 25L19 25L19 24L20 24L20 25L22 25L22 23L23 23L23 25L25 25L25 24L24 24L24 23L25 23L25 22L24 22L24 23L23 23L23 21L22 21L22 19L21 19L21 17L22 17L22 15L25 15L25 14L24 14L24 13L25 13L25 12L24 12L24 11L25 11L25 9L24 9L24 11L23 11L23 14L22 14L22 13L21 13L21 12L22 12L22 11L18 11L18 9L19 9L19 8L17 8L17 9L15 9L15 8L14 8L14 7L15 7L15 6L16 6L16 7L17 7L17 5L15 5L15 4L16 4L16 3L17 3L17 1L15 1L15 0L14 0L14 1L13 1L13 0L12 0L12 1L10 1L10 0ZM14 1L14 2L13 2L13 3L12 3L12 2L11 2L11 3L12 3L12 4L11 4L11 5L10 5L10 6L9 6L9 7L10 7L10 6L11 6L11 8L12 8L12 10L10 10L10 8L9 8L9 9L4 9L4 10L7 10L7 11L8 11L8 12L9 12L9 14L10 14L10 15L11 15L11 16L12 16L12 18L10 18L10 20L9 20L9 21L12 21L12 20L13 20L13 21L14 21L14 22L13 22L13 23L14 23L14 22L17 22L17 24L18 24L18 23L20 23L20 21L16 21L16 20L15 20L15 18L16 18L16 17L15 17L15 18L14 18L14 16L12 16L12 15L11 15L11 13L12 13L12 12L13 12L13 13L14 13L14 14L13 14L13 15L14 15L14 14L15 14L15 16L19 16L19 15L20 15L20 16L21 16L21 15L22 15L22 14L21 14L21 13L20 13L20 12L19 12L19 13L20 13L20 14L19 14L19 15L18 15L18 14L17 14L17 13L16 13L16 12L17 12L17 11L16 11L16 10L15 10L15 9L14 9L14 8L12 8L12 6L13 6L13 7L14 7L14 6L13 6L13 5L14 5L14 4L13 4L13 3L16 3L16 2L15 2L15 1ZM22 8L22 9L21 9L21 10L23 10L23 8ZM8 10L8 11L10 11L10 10ZM13 10L13 11L14 11L14 10ZM11 11L11 12L12 12L12 11ZM15 11L15 12L16 12L16 11ZM1 13L1 14L0 14L0 15L1 15L1 16L0 16L0 17L1 17L1 16L2 16L2 17L7 17L7 16L5 16L5 15L3 15L3 14L2 14L2 13ZM1 14L1 15L2 15L2 14ZM16 14L16 15L17 15L17 14ZM20 14L20 15L21 15L21 14ZM17 17L17 20L20 20L20 17ZM23 17L23 19L24 19L24 21L25 21L25 18L24 18L24 17ZM13 18L13 19L14 19L14 18ZM18 18L18 19L19 19L19 18ZM11 19L11 20L12 20L12 19ZM21 22L21 23L22 23L22 22ZM11 23L11 24L12 24L12 23ZM0 0L0 7L7 7L7 0ZM1 1L1 6L6 6L6 1ZM2 2L2 5L5 5L5 2ZM18 0L18 7L25 7L25 0ZM19 1L19 6L24 6L24 1ZM20 2L20 5L23 5L23 2ZM0 18L0 25L7 25L7 18ZM1 19L1 24L6 24L6 19ZM2 20L2 23L5 23L5 20Z" fill="#000000"/></g></g></svg>
