<?xml version="1.0" encoding="UTF-8"?>
<svg xmlns="http://www.w3.org/2000/svg" version="1.1" width="300" height="300" viewBox="0 0 300 300"><rect x="0" y="0" width="300" height="300" fill="#ffffff"/><g transform="scale(12)"><g transform="translate(0,0)"><path fill-rule="evenodd" d="M10 0L10 1L9 1L9 2L8 2L8 3L9 3L9 5L10 5L10 7L11 7L11 8L12 8L12 9L11 9L11 10L10 10L10 9L9 9L9 6L8 6L8 8L4 8L4 9L3 9L3 8L0 8L0 9L1 9L1 10L0 10L0 13L1 13L1 14L0 14L0 15L1 15L1 16L0 16L0 17L1 17L1 16L2 16L2 17L3 17L3 16L2 16L2 15L4 15L4 17L5 17L5 15L7 15L7 16L6 16L6 17L7 17L7 16L8 16L8 15L10 15L10 14L12 14L12 15L13 15L13 16L12 16L12 19L10 19L10 18L11 18L11 17L10 17L10 18L9 18L9 17L8 17L8 21L9 21L9 22L8 22L8 25L10 25L10 24L9 24L9 22L11 22L11 21L10 21L10 20L12 20L12 21L13 21L13 22L12 22L12 24L13 24L13 25L14 25L14 24L15 24L15 25L19 25L19 24L20 24L20 25L22 25L22 23L23 23L23 25L25 25L25 24L24 24L24 23L25 23L25 22L24 22L24 23L23 23L23 22L22 22L22 19L21 19L21 17L22 17L22 15L25 15L25 14L24 14L24 13L25 13L25 12L24 12L24 11L25 11L25 9L24 9L24 11L23 11L23 14L22 14L22 13L21 13L21 12L22 12L22 11L18 11L18 9L19 9L19 8L17 8L17 6L16 6L16 4L15 4L15 2L16 2L16 3L17 3L17 2L16 2L16 0L13 0L13 1L14 1L14 4L13 4L13 3L12 3L12 2L11 2L11 3L12 3L12 5L10 5L10 3L9 3L9 2L10 2L10 1L11 1L11 0ZM14 4L14 6L13 6L13 7L12 7L12 6L11 6L11 7L12 7L12 8L13 8L13 7L14 7L14 6L15 6L15 7L16 7L16 6L15 6L15 4ZM14 8L14 10L13 10L13 11L14 11L14 10L15 10L15 11L16 11L16 12L14 12L14 13L12 13L12 14L14 14L14 18L13 18L13 19L12 19L12 20L13 20L13 19L14 19L14 22L13 22L13 23L15 23L15 22L17 22L17 24L18 24L18 23L20 23L20 24L21 24L21 23L22 23L22 22L21 22L21 23L20 23L20 21L16 21L16 20L15 20L15 18L16 18L16 17L15 17L15 16L21 16L21 15L22 15L22 14L21 14L21 13L20 13L20 12L19 12L19 13L20 13L20 15L18 15L18 14L17 14L17 13L16 13L16 12L17 12L17 11L16 11L16 8ZM22 8L22 9L21 9L21 10L23 10L23 8ZM2 9L2 10L1 10L1 11L2 11L2 10L3 10L3 9ZM4 9L4 10L5 10L5 11L6 11L6 12L7 12L7 13L6 13L6 14L7 14L7 15L8 15L8 14L9 14L9 13L10 13L10 12L8 12L8 11L10 11L10 10L8 10L8 11L6 11L6 10L7 10L7 9ZM11 11L11 12L12 12L12 11ZM2 12L2 14L1 14L1 15L2 15L2 14L5 14L5 13L3 13L3 12ZM7 13L7 14L8 14L8 13ZM16 14L16 15L17 15L17 14ZM17 17L17 20L20 20L20 17ZM23 17L23 20L25 20L25 18L24 18L24 17ZM18 18L18 19L19 19L19 18ZM9 19L9 20L10 20L10 19ZM0 0L0 7L7 7L7 0ZM1 1L1 6L6 6L6 1ZM2 2L2 5L5 5L5 2ZM18 0L18 7L25 7L25 0ZM19 1L19 6L24 6L24 1ZM20 2L20 5L23 5L23 2ZM0 18L0 25L7 25L7 18ZM1 19L1 24L6 24L6 19ZM2 20L2 23L5 23L5 20Z" fill="#000000"/></g></g></svg>
