<?xml version="1.0" encoding="UTF-8"?>
<svg xmlns="http://www.w3.org/2000/svg" version="1.1" width="300" height="300" viewBox="0 0 300 300"><rect x="0" y="0" width="300" height="300" fill="#ffffff"/><g transform="scale(12)"><g transform="translate(0,0)"><path fill-rule="evenodd" d="M8 0L8 2L10 2L10 4L8 4L8 9L9 9L9 10L11 10L11 11L14 11L14 10L13 10L13 9L14 9L14 8L11 8L11 6L10 6L10 8L9 8L9 5L12 5L12 7L13 7L13 6L14 6L14 7L15 7L15 9L16 9L16 10L15 10L15 11L17 11L17 9L19 9L19 11L18 11L18 14L16 14L16 13L17 13L17 12L15 12L15 13L14 13L14 12L12 12L12 14L9 14L9 13L10 13L10 11L9 11L9 13L8 13L8 11L7 11L7 10L6 10L6 9L7 9L7 8L5 8L5 9L4 9L4 10L5 10L5 11L4 11L4 13L5 13L5 14L6 14L6 15L4 15L4 16L0 16L0 17L4 17L4 16L5 16L5 17L8 17L8 18L9 18L9 19L8 19L8 20L9 20L9 22L8 22L8 25L11 25L11 24L9 24L9 23L13 23L13 21L14 21L14 24L12 24L12 25L14 25L14 24L15 24L15 22L16 22L16 25L17 25L17 24L18 24L18 25L20 25L20 24L19 24L19 23L21 23L21 22L22 22L22 23L25 23L25 22L24 22L24 21L23 21L23 22L22 22L22 21L21 21L21 19L22 19L22 17L21 17L21 15L23 15L23 17L24 17L24 15L25 15L25 14L24 14L24 15L23 15L23 14L19 14L19 13L22 13L22 12L21 12L21 11L22 11L22 10L23 10L23 11L25 11L25 8L23 8L23 9L22 9L22 10L21 10L21 11L20 11L20 9L21 9L21 8L16 8L16 7L17 7L17 5L16 5L16 3L17 3L17 2L15 2L15 3L14 3L14 2L12 2L12 4L11 4L11 1L16 1L16 0L10 0L10 1L9 1L9 0ZM13 3L13 4L12 4L12 5L14 5L14 3ZM15 5L15 7L16 7L16 5ZM0 8L0 13L1 13L1 14L0 14L0 15L3 15L3 13L1 13L1 12L3 12L3 11L1 11L1 10L2 10L2 9L3 9L3 8ZM11 9L11 10L12 10L12 9ZM5 11L5 13L6 13L6 14L7 14L7 13L6 13L6 12L7 12L7 11ZM19 11L19 12L20 12L20 11ZM24 12L24 13L25 13L25 12ZM13 13L13 14L12 14L12 16L10 16L10 17L9 17L9 18L10 18L10 19L9 19L9 20L10 20L10 19L11 19L11 20L12 20L12 19L13 19L13 20L14 20L14 21L15 21L15 20L16 20L16 18L15 18L15 17L16 17L16 16L17 16L17 15L16 15L16 16L15 16L15 15L14 15L14 13ZM8 14L8 16L9 16L9 14ZM6 15L6 16L7 16L7 15ZM18 15L18 16L20 16L20 15ZM12 16L12 18L11 18L11 17L10 17L10 18L11 18L11 19L12 19L12 18L13 18L13 19L14 19L14 20L15 20L15 18L13 18L13 17L14 17L14 16ZM17 17L17 20L20 20L20 17ZM18 18L18 19L19 19L19 18ZM24 18L24 19L23 19L23 20L24 20L24 19L25 19L25 18ZM10 21L10 22L12 22L12 21ZM16 21L16 22L17 22L17 21ZM18 21L18 23L19 23L19 21ZM24 24L24 25L25 25L25 24ZM0 0L0 7L7 7L7 0ZM1 1L1 6L6 6L6 1ZM2 2L2 5L5 5L5 2ZM18 0L18 7L25 7L25 0ZM19 1L19 6L24 6L24 1ZM20 2L20 5L23 5L23 2ZM0 18L0 25L7 25L7 18ZM1 19L1 24L6 24L6 19ZM2 20L2 23L5 23L5 20Z" fill="#000000"/></g></g></svg>
