<?xml version="1.0" encoding="UTF-8"?>
<svg xmlns="http://www.w3.org/2000/svg" version="1.1" width="300" height="300" viewBox="0 0 300 300"><rect x="0" y="0" width="300" height="300" fill="#ffffff"/><g transform="scale(12)"><g transform="translate(0,0)"><path fill-rule="evenodd" d="M9 0L9 1L11 1L11 2L9 2L9 3L8 3L8 5L9 5L9 6L8 6L8 7L9 7L9 9L8 9L8 8L5 8L5 10L2 10L2 11L3 11L3 13L4 13L4 14L5 14L5 15L4 15L4 16L6 16L6 17L8 17L8 20L9 20L9 23L8 23L8 25L9 25L9 23L10 23L10 25L14 25L14 23L15 23L15 22L20 22L20 21L21 21L21 19L22 19L22 17L23 17L23 16L25 16L25 10L24 10L24 9L23 9L23 10L21 10L21 9L22 9L22 8L20 8L20 9L18 9L18 10L17 10L17 11L18 11L18 10L20 10L20 12L18 12L18 13L22 13L22 12L21 12L21 11L23 11L23 10L24 10L24 14L23 14L23 15L22 15L22 14L21 14L21 15L22 15L22 17L21 17L21 16L19 16L19 14L18 14L18 15L16 15L16 13L17 13L17 12L15 12L15 11L16 11L16 10L15 10L15 9L17 9L17 8L16 8L16 7L17 7L17 3L16 3L16 2L14 2L14 3L15 3L15 4L14 4L14 5L13 5L13 4L12 4L12 2L13 2L13 1L12 1L12 0ZM14 0L14 1L16 1L16 0ZM9 3L9 5L10 5L10 3ZM11 4L11 7L10 7L10 6L9 6L9 7L10 7L10 8L11 8L11 10L10 10L10 9L9 9L9 10L8 10L8 9L6 9L6 10L7 10L7 11L6 11L6 12L7 12L7 13L5 13L5 14L7 14L7 15L6 15L6 16L8 16L8 17L9 17L9 16L10 16L10 19L9 19L9 20L10 20L10 19L12 19L12 21L11 21L11 24L12 24L12 23L13 23L13 22L12 22L12 21L15 21L15 20L16 20L16 18L15 18L15 17L16 17L16 16L15 16L15 17L14 17L14 15L15 15L15 12L14 12L14 11L15 11L15 10L14 10L14 8L15 8L15 7L16 7L16 5L15 5L15 7L14 7L14 6L13 6L13 5L12 5L12 4ZM12 6L12 9L13 9L13 6ZM0 8L0 10L1 10L1 9L2 9L2 8ZM9 10L9 11L7 11L7 12L8 12L8 14L10 14L10 15L11 15L11 12L12 12L12 11L13 11L13 10L11 10L11 11L10 11L10 10ZM9 11L9 12L10 12L10 11ZM1 12L1 13L0 13L0 17L1 17L1 13L2 13L2 12ZM13 12L13 13L12 13L12 14L13 14L13 15L12 15L12 17L13 17L13 18L12 18L12 19L14 19L14 20L15 20L15 18L14 18L14 17L13 17L13 15L14 15L14 12ZM2 15L2 17L3 17L3 15ZM17 17L17 20L20 20L20 17ZM24 17L24 19L25 19L25 17ZM18 18L18 19L19 19L19 18ZM22 20L22 21L23 21L23 22L24 22L24 25L25 25L25 20ZM21 22L21 23L22 23L22 22ZM16 23L16 25L17 25L17 24L18 24L18 25L19 25L19 24L20 24L20 25L21 25L21 24L20 24L20 23L19 23L19 24L18 24L18 23ZM0 0L0 7L7 7L7 0ZM1 1L1 6L6 6L6 1ZM2 2L2 5L5 5L5 2ZM18 0L18 7L25 7L25 0ZM19 1L19 6L24 6L24 1ZM20 2L20 5L23 5L23 2ZM0 18L0 25L7 25L7 18ZM1 19L1 24L6 24L6 19ZM2 20L2 23L5 23L5 20Z" fill="#000000"/></g></g></svg>
