<?xml version="1.0" encoding="UTF-8"?>
<svg xmlns="http://www.w3.org/2000/svg" version="1.1" width="300" height="300" viewBox="0 0 300 300"><rect x="0" y="0" width="300" height="300" fill="#ffffff"/><g transform="scale(12)"><g transform="translate(0,0)"><path fill-rule="evenodd" d="M8 0L8 1L11 1L11 3L10 3L10 2L9 2L9 3L10 3L10 5L9 5L9 6L8 6L8 8L9 8L9 9L10 9L10 10L9 10L9 11L10 11L10 10L11 10L11 9L10 9L10 7L11 7L11 6L12 6L12 9L15 9L15 8L14 8L14 7L15 7L15 6L14 6L14 7L13 7L13 6L12 6L12 5L13 5L13 4L12 4L12 2L13 2L13 3L14 3L14 2L13 2L13 1L14 1L14 0L13 0L13 1L12 1L12 0ZM15 0L15 1L16 1L16 0ZM15 2L15 3L16 3L16 4L17 4L17 2ZM14 4L14 5L15 5L15 4ZM10 5L10 6L9 6L9 7L10 7L10 6L11 6L11 5ZM16 6L16 9L17 9L17 6ZM0 8L0 10L1 10L1 9L2 9L2 13L3 13L3 15L2 15L2 14L1 14L1 13L0 13L0 17L1 17L1 15L2 15L2 17L4 17L4 16L5 16L5 17L7 17L7 16L9 16L9 17L8 17L8 18L9 18L9 20L8 20L8 22L9 22L9 23L8 23L8 25L9 25L9 23L10 23L10 25L14 25L14 22L15 22L15 25L17 25L17 24L16 24L16 23L18 23L18 25L20 25L20 24L19 24L19 23L18 23L18 22L19 22L19 21L20 21L20 23L21 23L21 19L22 19L22 18L24 18L24 19L25 19L25 17L24 17L24 16L25 16L25 10L24 10L24 9L25 9L25 8L24 8L24 9L23 9L23 10L21 10L21 9L19 9L19 8L18 8L18 9L19 9L19 10L17 10L17 11L18 11L18 13L20 13L20 14L19 14L19 15L18 15L18 14L17 14L17 13L16 13L16 12L15 12L15 13L14 13L14 12L13 12L13 13L12 13L12 14L13 14L13 15L12 15L12 16L11 16L11 15L10 15L10 16L9 16L9 14L11 14L11 12L9 12L9 13L8 13L8 12L6 12L6 13L5 13L5 11L4 11L4 10L3 10L3 9L5 9L5 8L3 8L3 9L2 9L2 8ZM6 8L6 9L7 9L7 10L6 10L6 11L7 11L7 10L8 10L8 9L7 9L7 8ZM12 10L12 11L16 11L16 10ZM19 10L19 11L21 11L21 12L22 12L22 13L21 13L21 14L24 14L24 12L22 12L22 11L21 11L21 10ZM0 11L0 12L1 12L1 11ZM6 13L6 14L4 14L4 15L5 15L5 16L7 16L7 15L6 15L6 14L7 14L7 13ZM13 13L13 14L14 14L14 13ZM15 13L15 14L16 14L16 13ZM13 15L13 17L12 17L12 18L10 18L10 17L11 17L11 16L10 16L10 17L9 17L9 18L10 18L10 19L12 19L12 21L11 21L11 22L12 22L12 23L13 23L13 22L12 22L12 21L13 21L13 19L12 19L12 18L15 18L15 19L14 19L14 21L15 21L15 22L17 22L17 21L15 21L15 20L16 20L16 17L15 17L15 16L16 16L16 15ZM19 15L19 16L21 16L21 17L22 17L22 15ZM17 17L17 20L20 20L20 17ZM18 18L18 19L19 19L19 18ZM9 20L9 21L10 21L10 20ZM23 20L23 21L22 21L22 22L23 22L23 23L22 23L22 24L24 24L24 25L25 25L25 20ZM0 0L0 7L7 7L7 0ZM1 1L1 6L6 6L6 1ZM2 2L2 5L5 5L5 2ZM18 0L18 7L25 7L25 0ZM19 1L19 6L24 6L24 1ZM20 2L20 5L23 5L23 2ZM0 18L0 25L7 25L7 18ZM1 19L1 24L6 24L6 19ZM2 20L2 23L5 23L5 20Z" fill="#000000"/></g></g></svg>
