<?xml version="1.0" encoding="UTF-8"?>
<svg xmlns="http://www.w3.org/2000/svg" version="1.1" width="300" height="300" viewBox="0 0 300 300"><rect x="0" y="0" width="300" height="300" fill="#ffffff"/><g transform="scale(12)"><g transform="translate(0,0)"><path fill-rule="evenodd" d="M9 0L9 1L11 1L11 2L9 2L9 3L8 3L8 5L9 5L9 6L8 6L8 7L9 7L9 9L8 9L8 8L5 8L5 9L3 9L3 10L2 10L2 8L0 8L0 10L2 10L2 12L1 12L1 11L0 11L0 17L1 17L1 13L2 13L2 12L3 12L3 14L4 14L4 15L5 15L5 14L6 14L6 15L7 15L7 14L6 14L6 13L7 13L7 12L8 12L8 13L10 13L10 14L11 14L11 12L12 12L12 13L13 13L13 15L12 15L12 17L14 17L14 16L16 16L16 17L15 17L15 18L13 18L13 19L15 19L15 18L16 18L16 20L14 20L14 21L15 21L15 22L20 22L20 21L21 21L21 19L22 19L22 17L23 17L23 16L25 16L25 10L24 10L24 9L23 9L23 10L21 10L21 9L22 9L22 8L20 8L20 9L18 9L18 10L17 10L17 11L18 11L18 10L20 10L20 12L18 12L18 13L22 13L22 12L21 12L21 11L23 11L23 10L24 10L24 14L23 14L23 15L22 15L22 14L20 14L20 16L19 16L19 14L18 14L18 15L16 15L16 13L17 13L17 12L15 12L15 11L16 11L16 10L15 10L15 8L14 8L14 10L15 10L15 11L14 11L14 12L12 12L12 11L13 11L13 10L12 10L12 11L10 11L10 10L11 10L11 8L10 8L10 7L11 7L11 4L12 4L12 7L13 7L13 5L14 5L14 4L13 4L13 3L12 3L12 2L14 2L14 3L16 3L16 4L15 4L15 5L17 5L17 3L16 3L16 2L17 2L17 1L16 1L16 0L14 0L14 1L12 1L12 0ZM14 1L14 2L16 2L16 1ZM9 3L9 5L10 5L10 3ZM9 6L9 7L10 7L10 6ZM14 6L14 7L15 7L15 6ZM16 6L16 8L17 8L17 6ZM5 9L5 10L3 10L3 12L4 12L4 11L6 11L6 12L7 12L7 11L9 11L9 12L10 12L10 11L9 11L9 10L10 10L10 9L9 9L9 10L7 10L7 9ZM6 10L6 11L7 11L7 10ZM14 12L14 14L15 14L15 12ZM8 14L8 15L9 15L9 14ZM2 15L2 17L3 17L3 15ZM13 15L13 16L14 16L14 15ZM21 15L21 17L22 17L22 15ZM4 16L4 17L8 17L8 20L9 20L9 21L10 21L10 22L9 22L9 23L8 23L8 25L14 25L14 24L15 24L15 23L14 23L14 22L13 22L13 23L12 23L12 24L11 24L11 21L10 21L10 20L12 20L12 18L10 18L10 17L11 17L11 16L10 16L10 17L9 17L9 16ZM17 17L17 20L20 20L20 17ZM24 17L24 20L22 20L22 23L23 23L23 22L24 22L24 25L25 25L25 21L24 21L24 20L25 20L25 17ZM18 18L18 19L19 19L19 18ZM9 23L9 24L10 24L10 23ZM13 23L13 24L14 24L14 23ZM16 23L16 25L17 25L17 24L18 24L18 25L19 25L19 24L20 24L20 25L21 25L21 23L19 23L19 24L18 24L18 23ZM0 0L0 7L7 7L7 0ZM1 1L1 6L6 6L6 1ZM2 2L2 5L5 5L5 2ZM18 0L18 7L25 7L25 0ZM19 1L19 6L24 6L24 1ZM20 2L20 5L23 5L23 2ZM0 18L0 25L7 25L7 18ZM1 19L1 24L6 24L6 19ZM2 20L2 23L5 23L5 20Z" fill="#000000"/></g></g></svg>
