<?xml version="1.0" encoding="UTF-8"?>
<svg xmlns="http://www.w3.org/2000/svg" version="1.1" width="300" height="300" viewBox="0 0 300 300"><rect x="0" y="0" width="300" height="300" fill="#ffffff"/><g transform="scale(12)"><g transform="translate(0,0)"><path fill-rule="evenodd" d="M8 0L8 4L10 4L10 3L11 3L11 4L12 4L12 2L11 2L11 0ZM12 0L12 1L13 1L13 2L15 2L15 0L14 0L14 1L13 1L13 0ZM16 0L16 1L17 1L17 0ZM9 2L9 3L10 3L10 2ZM16 2L16 3L14 3L14 5L11 5L11 6L10 6L10 7L9 7L9 5L8 5L8 7L9 7L9 8L10 8L10 7L11 7L11 6L12 6L12 8L11 8L11 9L9 9L9 10L8 10L8 9L7 9L7 8L4 8L4 9L2 9L2 8L0 8L0 9L1 9L1 12L0 12L0 14L1 14L1 12L2 12L2 14L4 14L4 15L2 15L2 16L0 16L0 17L3 17L3 16L4 16L4 15L5 15L5 17L8 17L8 18L9 18L9 16L11 16L11 17L12 17L12 18L11 18L11 20L9 20L9 19L8 19L8 21L11 21L11 20L12 20L12 21L13 21L13 22L16 22L16 23L14 23L14 24L13 24L13 23L12 23L12 24L10 24L10 22L9 22L9 23L8 23L8 25L12 25L12 24L13 24L13 25L16 25L16 23L18 23L18 24L17 24L17 25L19 25L19 21L22 21L22 23L20 23L20 25L25 25L25 24L24 24L24 22L25 22L25 19L24 19L24 21L23 21L23 19L22 19L22 17L23 17L23 14L21 14L21 12L22 12L22 13L24 13L24 14L25 14L25 12L24 12L24 9L25 9L25 8L21 8L21 9L20 9L20 8L19 8L19 9L18 9L18 11L17 11L17 9L16 9L16 10L15 10L15 8L17 8L17 2ZM15 4L15 7L16 7L16 4ZM13 6L13 8L12 8L12 9L11 9L11 10L9 10L9 11L8 11L8 10L7 10L7 9L5 9L5 10L2 10L2 12L3 12L3 13L4 13L4 14L5 14L5 15L6 15L6 16L9 16L9 15L10 15L10 14L11 14L11 16L12 16L12 17L13 17L13 18L15 18L15 19L14 19L14 21L16 21L16 22L17 22L17 21L16 21L16 20L15 20L15 19L16 19L16 18L15 18L15 17L13 17L13 16L14 16L14 15L15 15L15 16L16 16L16 15L15 15L15 14L13 14L13 13L12 13L12 12L13 12L13 11L12 11L12 12L11 12L11 13L10 13L10 11L11 11L11 10L12 10L12 9L13 9L13 10L14 10L14 9L13 9L13 8L14 8L14 6ZM19 9L19 12L20 12L20 9ZM21 9L21 10L22 10L22 11L23 11L23 10L22 10L22 9ZM6 10L6 11L5 11L5 12L6 12L6 13L7 13L7 12L8 12L8 14L10 14L10 13L9 13L9 12L8 12L8 11L7 11L7 10ZM3 11L3 12L4 12L4 11ZM6 11L6 12L7 12L7 11ZM14 11L14 13L16 13L16 14L18 14L18 15L17 15L17 16L19 16L19 15L20 15L20 16L21 16L21 14L19 14L19 13L17 13L17 12L15 12L15 11ZM6 14L6 15L7 15L7 14ZM12 15L12 16L13 16L13 15ZM17 17L17 20L20 20L20 17ZM24 17L24 18L25 18L25 17ZM18 18L18 19L19 19L19 18ZM12 19L12 20L13 20L13 19ZM0 0L0 7L7 7L7 0ZM1 1L1 6L6 6L6 1ZM2 2L2 5L5 5L5 2ZM18 0L18 7L25 7L25 0ZM19 1L19 6L24 6L24 1ZM20 2L20 5L23 5L23 2ZM0 18L0 25L7 25L7 18ZM1 19L1 24L6 24L6 19ZM2 20L2 23L5 23L5 20Z" fill="#000000"/></g></g></svg>
