<?xml version="1.0" encoding="UTF-8"?>
<svg xmlns="http://www.w3.org/2000/svg" version="1.1" width="300" height="300" viewBox="0 0 300 300"><rect x="0" y="0" width="300" height="300" fill="#ffffff"/><g transform="scale(12)"><g transform="translate(0,0)"><path fill-rule="evenodd" d="M9 0L9 1L11 1L11 2L9 2L9 3L8 3L8 5L9 5L9 6L8 6L8 7L9 7L9 9L10 9L10 10L8 10L8 8L5 8L5 9L4 9L4 12L2 12L2 11L3 11L3 9L2 9L2 8L0 8L0 12L2 12L2 15L4 15L4 16L2 16L2 17L4 17L4 16L5 16L5 17L8 17L8 20L9 20L9 22L10 22L10 23L11 23L11 22L10 22L10 21L13 21L13 19L15 19L15 17L16 17L16 20L14 20L14 22L15 22L15 23L14 23L14 24L13 24L13 25L14 25L14 24L15 24L15 25L17 25L17 24L18 24L18 25L21 25L21 24L19 24L19 23L17 23L17 22L19 22L19 21L20 21L20 22L21 22L21 23L22 23L22 22L21 22L21 19L22 19L22 17L23 17L23 16L25 16L25 10L24 10L24 9L23 9L23 10L21 10L21 9L22 9L22 8L20 8L20 9L19 9L19 10L18 10L18 11L16 11L16 10L15 10L15 6L14 6L14 5L16 5L16 7L17 7L17 2L16 2L16 3L15 3L15 1L16 1L16 0L13 0L13 1L12 1L12 0ZM13 1L13 2L12 2L12 4L11 4L11 7L10 7L10 6L9 6L9 7L10 7L10 8L11 8L11 10L10 10L10 11L9 11L9 12L10 12L10 11L11 11L11 10L13 10L13 11L12 11L12 12L11 12L11 14L10 14L10 13L9 13L9 14L7 14L7 13L8 13L8 11L6 11L6 10L7 10L7 9L5 9L5 11L6 11L6 12L5 12L5 13L4 13L4 15L5 15L5 16L7 16L7 15L8 15L8 17L9 17L9 20L10 20L10 19L11 19L11 20L12 20L12 19L13 19L13 18L14 18L14 15L15 15L15 16L16 16L16 15L17 15L17 14L18 14L18 15L19 15L19 16L21 16L21 17L22 17L22 15L23 15L23 14L24 14L24 10L23 10L23 11L21 11L21 12L22 12L22 13L20 13L20 14L19 14L19 13L18 13L18 12L17 12L17 14L16 14L16 13L14 13L14 12L16 12L16 11L15 11L15 10L13 10L13 9L14 9L14 6L13 6L13 5L14 5L14 4L15 4L15 3L14 3L14 1ZM9 3L9 5L10 5L10 3ZM12 4L12 5L13 5L13 4ZM12 6L12 9L13 9L13 6ZM1 9L1 10L2 10L2 9ZM19 10L19 11L20 11L20 10ZM6 12L6 13L5 13L5 15L7 15L7 14L6 14L6 13L7 13L7 12ZM12 12L12 15L13 15L13 12ZM0 13L0 17L1 17L1 13ZM9 14L9 17L10 17L10 14ZM15 14L15 15L16 15L16 14ZM20 14L20 15L22 15L22 14ZM11 16L11 17L13 17L13 16ZM17 17L17 20L20 20L20 17ZM24 17L24 19L25 19L25 17ZM11 18L11 19L12 19L12 18ZM18 18L18 19L19 19L19 18ZM22 20L22 21L23 21L23 22L24 22L24 25L25 25L25 21L23 21L23 20ZM15 21L15 22L17 22L17 21ZM12 22L12 23L13 23L13 22ZM8 23L8 25L9 25L9 23ZM11 24L11 25L12 25L12 24ZM0 0L0 7L7 7L7 0ZM1 1L1 6L6 6L6 1ZM2 2L2 5L5 5L5 2ZM18 0L18 7L25 7L25 0ZM19 1L19 6L24 6L24 1ZM20 2L20 5L23 5L23 2ZM0 18L0 25L7 25L7 18ZM1 19L1 24L6 24L6 19ZM2 20L2 23L5 23L5 20Z" fill="#000000"/></g></g></svg>
