<?xml version="1.0" encoding="UTF-8"?>
<svg xmlns="http://www.w3.org/2000/svg" version="1.1" width="300" height="300" viewBox="0 0 300 300"><rect x="0" y="0" width="300" height="300" fill="#ffffff"/><g transform="scale(12)"><g transform="translate(0,0)"><path fill-rule="evenodd" d="M8 0L8 4L9 4L9 5L8 5L8 7L9 7L9 6L10 6L10 9L11 9L11 8L12 8L12 9L14 9L14 10L13 10L13 11L12 11L12 12L11 12L11 13L9 13L9 14L10 14L10 15L11 15L11 16L10 16L10 18L9 18L9 17L8 17L8 16L9 16L9 15L8 15L8 16L6 16L6 15L7 15L7 14L5 14L5 13L3 13L3 12L2 12L2 14L3 14L3 15L2 15L2 16L0 16L0 17L2 17L2 16L3 16L3 17L5 17L5 16L6 16L6 17L8 17L8 18L9 18L9 19L8 19L8 21L9 21L9 22L10 22L10 24L9 24L9 23L8 23L8 25L11 25L11 23L12 23L12 25L14 25L14 24L15 24L15 23L16 23L16 22L17 22L17 23L19 23L19 22L21 22L21 23L20 23L20 25L25 25L25 24L24 24L24 22L25 22L25 21L23 21L23 20L25 20L25 19L21 19L21 18L22 18L22 17L23 17L23 14L21 14L21 12L22 12L22 13L24 13L24 14L25 14L25 12L24 12L24 9L25 9L25 8L21 8L21 9L20 9L20 8L19 8L19 9L20 9L20 11L19 11L19 12L17 12L17 13L16 13L16 14L15 14L15 12L16 12L16 11L18 11L18 10L17 10L17 9L16 9L16 10L15 10L15 9L14 9L14 8L16 8L16 7L17 7L17 3L16 3L16 2L17 2L17 0L16 0L16 2L15 2L15 1L14 1L14 0L13 0L13 1L11 1L11 2L12 2L12 5L13 5L13 6L12 6L12 7L11 7L11 3L10 3L10 2L9 2L9 0ZM13 2L13 4L14 4L14 3L15 3L15 2ZM15 4L15 7L16 7L16 4ZM13 6L13 7L12 7L12 8L14 8L14 6ZM0 8L0 14L1 14L1 11L2 11L2 10L4 10L4 12L6 12L6 13L8 13L8 12L6 12L6 11L9 11L9 12L10 12L10 11L11 11L11 10L9 10L9 9L7 9L7 8L4 8L4 9L2 9L2 8ZM4 9L4 10L7 10L7 9ZM21 9L21 10L22 10L22 11L23 11L23 10L22 10L22 9ZM14 10L14 11L13 11L13 13L14 13L14 11L15 11L15 10ZM11 13L11 14L12 14L12 15L13 15L13 16L14 16L14 17L15 17L15 18L14 18L14 19L13 19L13 20L10 20L10 19L11 19L11 18L13 18L13 17L11 17L11 18L10 18L10 19L9 19L9 21L10 21L10 22L13 22L13 24L14 24L14 23L15 23L15 22L16 22L16 20L15 20L15 19L16 19L16 16L15 16L15 14L12 14L12 13ZM17 13L17 16L20 16L20 13ZM4 14L4 15L5 15L5 14ZM18 14L18 15L19 15L19 14ZM17 17L17 20L20 20L20 17ZM24 17L24 18L25 18L25 17ZM18 18L18 19L19 19L19 18ZM13 20L13 22L15 22L15 21L14 21L14 20ZM21 21L21 22L23 22L23 21ZM17 24L17 25L19 25L19 24ZM0 0L0 7L7 7L7 0ZM1 1L1 6L6 6L6 1ZM2 2L2 5L5 5L5 2ZM18 0L18 7L25 7L25 0ZM19 1L19 6L24 6L24 1ZM20 2L20 5L23 5L23 2ZM0 18L0 25L7 25L7 18ZM1 19L1 24L6 24L6 19ZM2 20L2 23L5 23L5 20Z" fill="#000000"/></g></g></svg>
