<?xml version="1.0" encoding="UTF-8"?>
<svg xmlns="http://www.w3.org/2000/svg" version="1.1" width="300" height="300" viewBox="0 0 300 300"><rect x="0" y="0" width="300" height="300" fill="#ffffff"/><g transform="scale(12)"><g transform="translate(0,0)"><path fill-rule="evenodd" d="M8 0L8 2L10 2L10 4L8 4L8 9L7 9L7 8L5 8L5 9L4 9L4 10L3 10L3 8L0 8L0 9L1 9L1 10L0 10L0 11L1 11L1 14L0 14L0 15L2 15L2 16L0 16L0 17L7 17L7 16L5 16L5 15L8 15L8 14L10 14L10 15L9 15L9 16L8 16L8 18L10 18L10 21L9 21L9 22L8 22L8 25L9 25L9 24L10 24L10 25L12 25L12 24L13 24L13 25L14 25L14 24L13 24L13 23L15 23L15 25L17 25L17 24L18 24L18 25L19 25L19 24L18 24L18 21L21 21L21 18L22 18L22 17L21 17L21 15L23 15L23 17L24 17L24 15L25 15L25 14L24 14L24 15L23 15L23 14L21 14L21 15L20 15L20 13L22 13L22 12L21 12L21 11L22 11L22 10L23 10L23 11L25 11L25 8L23 8L23 9L22 9L22 10L21 10L21 11L20 11L20 9L21 9L21 8L16 8L16 10L14 10L14 8L15 8L15 6L14 6L14 4L15 4L15 5L16 5L16 4L15 4L15 3L17 3L17 1L16 1L16 0L14 0L14 1L13 1L13 0L10 0L10 1L9 1L9 0ZM11 1L11 2L12 2L12 3L11 3L11 4L12 4L12 5L9 5L9 8L10 8L10 6L11 6L11 8L14 8L14 6L13 6L13 7L12 7L12 5L13 5L13 4L14 4L14 3L13 3L13 1ZM15 1L15 2L16 2L16 1ZM12 3L12 4L13 4L13 3ZM16 6L16 7L17 7L17 6ZM5 9L5 10L7 10L7 11L6 11L6 12L4 12L4 11L2 11L2 10L1 10L1 11L2 11L2 12L4 12L4 13L3 13L3 14L2 14L2 15L3 15L3 14L4 14L4 15L5 15L5 14L7 14L7 13L6 13L6 12L8 12L8 10L9 10L9 11L10 11L10 14L12 14L12 13L13 13L13 14L16 14L16 13L15 13L15 11L11 11L11 10L12 10L12 9L11 9L11 10L9 10L9 9L8 9L8 10L7 10L7 9ZM17 9L17 10L16 10L16 11L17 11L17 10L18 10L18 9ZM18 11L18 12L17 12L17 15L15 15L15 16L14 16L14 15L11 15L11 16L12 16L12 17L10 17L10 16L9 16L9 17L10 17L10 18L12 18L12 19L11 19L11 20L12 20L12 21L11 21L11 22L9 22L9 23L10 23L10 24L12 24L12 23L11 23L11 22L12 22L12 21L13 21L13 22L16 22L16 23L17 23L17 22L16 22L16 21L14 21L14 19L15 19L15 20L16 20L16 17L15 17L15 16L17 16L17 15L18 15L18 16L20 16L20 15L19 15L19 14L18 14L18 12L19 12L19 11ZM11 12L11 13L12 13L12 12ZM13 12L13 13L14 13L14 12ZM24 12L24 13L25 13L25 12ZM13 16L13 17L12 17L12 18L13 18L13 19L12 19L12 20L13 20L13 19L14 19L14 16ZM17 17L17 20L20 20L20 17ZM18 18L18 19L19 19L19 18ZM24 18L24 19L23 19L23 20L24 20L24 19L25 19L25 18ZM8 19L8 20L9 20L9 19ZM23 21L23 22L22 22L22 23L25 23L25 22L24 22L24 21ZM19 22L19 23L20 23L20 25L21 25L21 22ZM24 24L24 25L25 25L25 24ZM0 0L0 7L7 7L7 0ZM1 1L1 6L6 6L6 1ZM2 2L2 5L5 5L5 2ZM18 0L18 7L25 7L25 0ZM19 1L19 6L24 6L24 1ZM20 2L20 5L23 5L23 2ZM0 18L0 25L7 25L7 18ZM1 19L1 24L6 24L6 19ZM2 20L2 23L5 23L5 20Z" fill="#000000"/></g></g></svg>
