<?xml version="1.0" encoding="UTF-8"?>
<svg xmlns="http://www.w3.org/2000/svg" version="1.1" width="300" height="300" viewBox="0 0 300 300"><rect x="0" y="0" width="300" height="300" fill="#ffffff"/><g transform="scale(12)"><g transform="translate(0,0)"><path fill-rule="evenodd" d="M8 0L8 1L11 1L11 3L10 3L10 2L9 2L9 3L10 3L10 5L9 5L9 6L8 6L8 8L9 8L9 9L10 9L10 10L8 10L8 9L7 9L7 8L6 8L6 9L7 9L7 10L5 10L5 12L4 12L4 10L2 10L2 8L0 8L0 10L2 10L2 11L1 11L1 12L2 12L2 11L3 11L3 12L4 12L4 13L2 13L2 14L1 14L1 13L0 13L0 17L1 17L1 15L2 15L2 17L3 17L3 15L4 15L4 16L5 16L5 17L7 17L7 16L8 16L8 15L11 15L11 13L13 13L13 14L12 14L12 17L11 17L11 16L9 16L9 17L8 17L8 18L9 18L9 17L11 17L11 19L9 19L9 20L8 20L8 22L9 22L9 23L8 23L8 25L10 25L10 24L9 24L9 23L10 23L10 22L11 22L11 24L12 24L12 25L14 25L14 24L13 24L13 22L11 22L11 21L10 21L10 22L9 22L9 20L12 20L12 21L17 21L17 22L15 22L15 25L17 25L17 24L16 24L16 23L18 23L18 25L21 25L21 22L23 22L23 23L22 23L22 24L24 24L24 25L25 25L25 21L24 21L24 20L25 20L25 17L24 17L24 16L25 16L25 10L24 10L24 9L25 9L25 8L24 8L24 9L23 9L23 10L21 10L21 9L19 9L19 8L18 8L18 9L19 9L19 10L15 10L15 9L16 9L16 8L17 8L17 6L16 6L16 8L15 8L15 5L17 5L17 1L16 1L16 0L15 0L15 1L16 1L16 3L15 3L15 2L14 2L14 0L13 0L13 1L12 1L12 0ZM12 2L12 3L13 3L13 4L15 4L15 3L13 3L13 2ZM10 5L10 6L9 6L9 7L10 7L10 9L11 9L11 10L10 10L10 11L8 11L8 12L11 12L11 10L12 10L12 11L13 11L13 12L14 12L14 14L13 14L13 17L12 17L12 18L15 18L15 19L14 19L14 20L16 20L16 17L15 17L15 16L16 16L16 15L15 15L15 14L16 14L16 12L17 12L17 14L18 14L18 15L19 15L19 16L21 16L21 17L22 17L22 15L19 15L19 14L20 14L20 13L18 13L18 11L14 11L14 9L15 9L15 8L13 8L13 9L11 9L11 8L12 8L12 6L13 6L13 7L14 7L14 5L12 5L12 6L11 6L11 5ZM10 6L10 7L11 7L11 6ZM3 8L3 9L5 9L5 8ZM19 10L19 11L21 11L21 12L22 12L22 13L21 13L21 14L24 14L24 12L22 12L22 11L21 11L21 10ZM6 11L6 12L7 12L7 11ZM4 13L4 15L5 15L5 16L7 16L7 15L6 15L6 14L9 14L9 13ZM2 14L2 15L3 15L3 14ZM17 17L17 20L20 20L20 17ZM18 18L18 19L19 19L19 18ZM21 18L21 21L23 21L23 20L24 20L24 18ZM19 21L19 22L18 22L18 23L20 23L20 21ZM0 0L0 7L7 7L7 0ZM1 1L1 6L6 6L6 1ZM2 2L2 5L5 5L5 2ZM18 0L18 7L25 7L25 0ZM19 1L19 6L24 6L24 1ZM20 2L20 5L23 5L23 2ZM0 18L0 25L7 25L7 18ZM1 19L1 24L6 24L6 19ZM2 20L2 23L5 23L5 20Z" fill="#000000"/></g></g></svg>
