<?xml version="1.0" encoding="UTF-8"?>
<svg xmlns="http://www.w3.org/2000/svg" version="1.1" width="300" height="300" viewBox="0 0 300 300"><rect x="0" y="0" width="300" height="300" fill="#ffffff"/><g transform="scale(10.345)"><g transform="translate(0,0)"><path fill-rule="evenodd" d="M9 0L9 1L8 1L8 2L9 2L9 3L8 3L8 4L10 4L10 7L11 7L11 4L12 4L12 5L13 5L13 6L12 6L12 9L13 9L13 8L14 8L14 9L15 9L15 10L17 10L17 9L18 9L18 10L21 10L21 13L20 13L20 12L19 12L19 13L18 13L18 12L17 12L17 11L16 11L16 12L17 12L17 15L18 15L18 16L14 16L14 15L16 15L16 13L12 13L12 11L13 11L13 10L11 10L11 11L10 11L10 9L11 9L11 8L6 8L6 9L5 9L5 8L0 8L0 10L2 10L2 11L3 11L3 12L1 12L1 13L0 13L0 14L1 14L1 13L2 13L2 15L3 15L3 17L2 17L2 16L0 16L0 21L1 21L1 17L2 17L2 21L4 21L4 20L3 20L3 19L4 19L4 16L6 16L6 17L5 17L5 20L6 20L6 21L7 21L7 20L8 20L8 23L10 23L10 21L9 21L9 20L10 20L10 17L7 17L7 16L6 16L6 15L9 15L9 14L8 14L8 13L10 13L10 14L11 14L11 13L12 13L12 14L13 14L13 15L12 15L12 17L13 17L13 16L14 16L14 17L16 17L16 18L15 18L15 19L14 19L14 20L15 20L15 21L12 21L12 19L13 19L13 18L11 18L11 21L12 21L12 22L13 22L13 23L12 23L12 25L13 25L13 24L14 24L14 25L15 25L15 24L14 24L14 23L17 23L17 22L18 22L18 24L17 24L17 25L16 25L16 26L15 26L15 27L14 27L14 28L15 28L15 29L18 29L18 28L15 28L15 27L16 27L16 26L17 26L17 25L18 25L18 27L19 27L19 25L18 25L18 24L20 24L20 25L25 25L25 23L27 23L27 22L28 22L28 21L29 21L29 20L25 20L25 19L26 19L26 18L25 18L25 17L27 17L27 18L28 18L28 17L27 17L27 16L28 16L28 14L29 14L29 11L28 11L28 10L29 10L29 9L28 9L28 8L27 8L27 12L25 12L25 9L26 9L26 8L25 8L25 9L24 9L24 8L23 8L23 9L22 9L22 8L21 8L21 4L20 4L20 2L21 2L21 1L20 1L20 0L18 0L18 3L17 3L17 2L16 2L16 4L12 4L12 2L13 2L13 1L11 1L11 2L10 2L10 0ZM15 0L15 1L17 1L17 0ZM19 1L19 2L20 2L20 1ZM14 2L14 3L15 3L15 2ZM10 3L10 4L11 4L11 3ZM18 3L18 4L16 4L16 5L17 5L17 7L16 7L16 6L15 6L15 7L14 7L14 6L13 6L13 7L14 7L14 8L15 8L15 7L16 7L16 9L17 9L17 8L18 8L18 9L21 9L21 10L22 10L22 9L21 9L21 8L20 8L20 5L19 5L19 3ZM8 5L8 7L9 7L9 5ZM18 5L18 8L19 8L19 5ZM2 9L2 10L3 10L3 11L5 11L5 12L7 12L7 11L6 11L6 10L8 10L8 12L9 12L9 10L8 10L8 9L6 9L6 10L3 10L3 9ZM23 9L23 10L24 10L24 9ZM14 11L14 12L15 12L15 11ZM3 12L3 13L4 13L4 14L3 14L3 15L5 15L5 14L7 14L7 13L4 13L4 12ZM10 12L10 13L11 13L11 12ZM22 12L22 13L25 13L25 12ZM26 13L26 14L28 14L28 13ZM18 14L18 15L20 15L20 16L18 16L18 17L17 17L17 19L16 19L16 21L15 21L15 22L16 22L16 21L17 21L17 20L18 20L18 21L19 21L19 22L20 22L20 21L19 21L19 20L24 20L24 19L23 19L23 18L22 18L22 19L20 19L20 18L18 18L18 17L20 17L20 16L21 16L21 17L25 17L25 16L27 16L27 15L24 15L24 16L23 16L23 14L22 14L22 16L21 16L21 15L20 15L20 14ZM6 17L6 18L7 18L7 17ZM8 18L8 20L9 20L9 18ZM6 19L6 20L7 20L7 19ZM18 19L18 20L19 20L19 19ZM21 21L21 24L24 24L24 21ZM26 21L26 22L27 22L27 21ZM22 22L22 23L23 23L23 22ZM8 24L8 29L9 29L9 28L10 28L10 29L12 29L12 27L13 27L13 26L11 26L11 25L9 25L9 24ZM27 24L27 25L26 25L26 27L25 27L25 26L20 26L20 28L19 28L19 29L20 29L20 28L21 28L21 29L24 29L24 28L22 28L22 27L25 27L25 28L26 28L26 27L27 27L27 28L28 28L28 26L29 26L29 25L28 25L28 24ZM9 26L9 27L10 27L10 28L11 28L11 26ZM0 0L0 7L7 7L7 0ZM1 1L1 6L6 6L6 1ZM2 2L2 5L5 5L5 2ZM22 0L22 7L29 7L29 0ZM23 1L23 6L28 6L28 1ZM24 2L24 5L27 5L27 2ZM0 22L0 29L7 29L7 22ZM1 23L1 28L6 28L6 23ZM2 24L2 27L5 27L5 24Z" fill="#000000"/></g></g></svg>
