<?xml version="1.0" encoding="UTF-8"?>
<svg xmlns="http://www.w3.org/2000/svg" version="1.1" width="300" height="300" viewBox="0 0 300 300"><rect x="0" y="0" width="300" height="300" fill="#ffffff"/><g transform="scale(12)"><g transform="translate(0,0)"><path fill-rule="evenodd" d="M9 0L9 1L11 1L11 2L9 2L9 3L8 3L8 5L9 5L9 6L8 6L8 7L9 7L9 9L10 9L10 10L6 10L6 11L5 11L5 9L8 9L8 8L5 8L5 9L2 9L2 8L0 8L0 9L1 9L1 10L0 10L0 17L1 17L1 12L4 12L4 13L3 13L3 14L2 14L2 16L3 16L3 17L5 17L5 16L6 16L6 17L7 17L7 16L6 16L6 15L7 15L7 14L8 14L8 15L10 15L10 16L11 16L11 17L10 17L10 18L9 18L9 16L8 16L8 20L9 20L9 23L8 23L8 25L14 25L14 24L15 24L15 25L17 25L17 24L18 24L18 25L19 25L19 23L17 23L17 22L19 22L19 21L20 21L20 22L21 22L21 18L22 18L22 17L23 17L23 16L25 16L25 10L24 10L24 9L23 9L23 10L21 10L21 9L22 9L22 8L20 8L20 9L19 9L19 10L18 10L18 11L17 11L17 10L15 10L15 11L14 11L14 10L11 10L11 8L10 8L10 7L11 7L11 4L12 4L12 5L13 5L13 4L12 4L12 2L15 2L15 5L17 5L17 3L16 3L16 2L17 2L17 1L16 1L16 0L14 0L14 1L12 1L12 0ZM15 1L15 2L16 2L16 1ZM9 3L9 5L10 5L10 3ZM9 6L9 7L10 7L10 6ZM12 6L12 9L13 9L13 6ZM14 6L14 9L17 9L17 6L16 6L16 7L15 7L15 6ZM10 10L10 11L8 11L8 12L7 12L7 11L6 11L6 12L5 12L5 11L4 11L4 12L5 12L5 13L4 13L4 15L3 15L3 16L5 16L5 15L6 15L6 14L7 14L7 13L8 13L8 14L9 14L9 13L8 13L8 12L10 12L10 11L11 11L11 10ZM19 10L19 11L20 11L20 10ZM23 10L23 11L21 11L21 12L22 12L22 13L20 13L20 14L19 14L19 13L18 13L18 12L17 12L17 11L15 11L15 12L14 12L14 11L12 11L12 12L11 12L11 16L12 16L12 12L14 12L14 14L13 14L13 16L14 16L14 17L11 17L11 18L10 18L10 19L9 19L9 20L10 20L10 19L11 19L11 18L12 18L12 20L11 20L11 21L10 21L10 22L11 22L11 23L10 23L10 24L12 24L12 23L13 23L13 24L14 24L14 23L13 23L13 22L17 22L17 21L14 21L14 20L16 20L16 17L15 17L15 16L16 16L16 15L17 15L17 14L18 14L18 15L19 15L19 16L21 16L21 17L22 17L22 15L23 15L23 14L24 14L24 10ZM6 12L6 13L5 13L5 14L6 14L6 13L7 13L7 12ZM15 12L15 13L16 13L16 14L15 14L15 15L14 15L14 16L15 16L15 15L16 15L16 14L17 14L17 12ZM20 14L20 15L22 15L22 14ZM17 17L17 20L20 20L20 17ZM24 17L24 19L25 19L25 17ZM13 18L13 19L15 19L15 18ZM18 18L18 19L19 19L19 18ZM12 20L12 21L13 21L13 20ZM22 20L22 21L23 21L23 22L24 22L24 25L25 25L25 21L23 21L23 20ZM20 23L20 25L21 25L21 23ZM0 0L0 7L7 7L7 0ZM1 1L1 6L6 6L6 1ZM2 2L2 5L5 5L5 2ZM18 0L18 7L25 7L25 0ZM19 1L19 6L24 6L24 1ZM20 2L20 5L23 5L23 2ZM0 18L0 25L7 25L7 18ZM1 19L1 24L6 24L6 19ZM2 20L2 23L5 23L5 20Z" fill="#000000"/></g></g></svg>
