<?xml version="1.0" encoding="UTF-8"?>
<svg xmlns="http://www.w3.org/2000/svg" version="1.1" width="300" height="300" viewBox="0 0 300 300"><rect x="0" y="0" width="300" height="300" fill="#ffffff"/><g transform="scale(12)"><g transform="translate(0,0)"><path fill-rule="evenodd" d="M8 0L8 1L9 1L9 2L10 2L10 3L11 3L11 1L13 1L13 0L11 0L11 1L9 1L9 0ZM14 0L14 2L12 2L12 4L11 4L11 5L10 5L10 4L9 4L9 5L10 5L10 8L9 8L9 6L8 6L8 8L9 8L9 9L8 9L8 10L6 10L6 11L5 11L5 12L4 12L4 10L3 10L3 9L5 9L5 8L3 8L3 9L2 9L2 8L0 8L0 9L1 9L1 10L0 10L0 11L1 11L1 10L3 10L3 11L2 11L2 12L0 12L0 17L1 17L1 15L2 15L2 16L4 16L4 17L7 17L7 16L8 16L8 15L9 15L9 16L10 16L10 17L8 17L8 18L9 18L9 20L8 20L8 22L9 22L9 23L8 23L8 25L9 25L9 23L10 23L10 25L11 25L11 23L10 23L10 21L9 21L9 20L11 20L11 19L12 19L12 21L17 21L17 22L15 22L15 24L12 24L12 25L17 25L17 24L16 24L16 23L18 23L18 25L19 25L19 23L18 23L18 22L19 22L19 21L20 21L20 23L22 23L22 24L24 24L24 25L25 25L25 20L24 20L24 19L25 19L25 17L24 17L24 16L25 16L25 10L24 10L24 9L25 9L25 8L24 8L24 9L23 9L23 10L21 10L21 9L19 9L19 8L18 8L18 9L19 9L19 10L15 10L15 8L14 8L14 7L15 7L15 6L14 6L14 7L13 7L13 5L12 5L12 4L13 4L13 3L14 3L14 2L15 2L15 3L16 3L16 4L17 4L17 2L15 2L15 1L16 1L16 0ZM14 4L14 5L15 5L15 4ZM11 5L11 7L12 7L12 9L10 9L10 10L8 10L8 13L6 13L6 14L5 14L5 13L4 13L4 12L3 12L3 13L4 13L4 14L3 14L3 15L4 15L4 14L5 14L5 15L6 15L6 16L7 16L7 15L6 15L6 14L8 14L8 13L9 13L9 15L10 15L10 16L11 16L11 17L10 17L10 18L11 18L11 17L13 17L13 18L12 18L12 19L13 19L13 18L15 18L15 19L14 19L14 20L16 20L16 17L15 17L15 16L16 16L16 15L15 15L15 14L16 14L16 12L17 12L17 14L18 14L18 15L19 15L19 16L21 16L21 17L22 17L22 15L19 15L19 14L20 14L20 13L18 13L18 11L16 11L16 12L15 12L15 10L14 10L14 9L13 9L13 7L12 7L12 5ZM16 6L16 9L17 9L17 6ZM6 8L6 9L7 9L7 8ZM12 9L12 10L10 10L10 11L9 11L9 13L10 13L10 12L11 12L11 13L14 13L14 14L10 14L10 15L11 15L11 16L12 16L12 15L14 15L14 16L15 16L15 15L14 15L14 14L15 14L15 13L14 13L14 12L13 12L13 11L12 11L12 10L13 10L13 9ZM19 10L19 11L21 11L21 12L22 12L22 13L21 13L21 14L24 14L24 12L22 12L22 11L21 11L21 10ZM6 11L6 12L7 12L7 11ZM1 13L1 14L2 14L2 13ZM17 17L17 20L20 20L20 17ZM18 18L18 19L19 19L19 18ZM21 18L21 21L23 21L23 19L24 19L24 18ZM12 22L12 23L14 23L14 22ZM22 22L22 23L23 23L23 22ZM20 24L20 25L21 25L21 24ZM0 0L0 7L7 7L7 0ZM1 1L1 6L6 6L6 1ZM2 2L2 5L5 5L5 2ZM18 0L18 7L25 7L25 0ZM19 1L19 6L24 6L24 1ZM20 2L20 5L23 5L23 2ZM0 18L0 25L7 25L7 18ZM1 19L1 24L6 24L6 19ZM2 20L2 23L5 23L5 20Z" fill="#000000"/></g></g></svg>
