<?xml version="1.0" encoding="UTF-8"?>
<svg xmlns="http://www.w3.org/2000/svg" version="1.1" width="300" height="300" viewBox="0 0 300 300"><rect x="0" y="0" width="300" height="300" fill="#ffffff"/><g transform="scale(12)"><g transform="translate(0,0)"><path fill-rule="evenodd" d="M8 0L8 4L9 4L9 5L8 5L8 7L9 7L9 6L10 6L10 9L11 9L11 8L12 8L12 9L13 9L13 11L12 11L12 10L9 10L9 9L8 9L8 10L6 10L6 9L7 9L7 8L4 8L4 10L3 10L3 9L2 9L2 8L0 8L0 11L1 11L1 12L2 12L2 16L0 16L0 17L4 17L4 16L3 16L3 14L4 14L4 15L8 15L8 16L5 16L5 17L8 17L8 18L9 18L9 15L10 15L10 17L13 17L13 18L10 18L10 19L12 19L12 21L13 21L13 22L11 22L11 20L10 20L10 22L9 22L9 23L8 23L8 25L9 25L9 24L11 24L11 25L14 25L14 24L12 24L12 23L13 23L13 22L14 22L14 23L16 23L16 22L17 22L17 23L19 23L19 24L17 24L17 25L20 25L20 23L19 23L19 22L21 22L21 25L25 25L25 24L24 24L24 22L25 22L25 21L24 21L24 19L21 19L21 18L22 18L22 17L23 17L23 14L21 14L21 12L22 12L22 13L24 13L24 14L25 14L25 12L24 12L24 9L25 9L25 8L21 8L21 9L20 9L20 8L19 8L19 9L20 9L20 11L19 11L19 12L17 12L17 11L18 11L18 10L17 10L17 9L16 9L16 10L15 10L15 11L14 11L14 8L17 8L17 0L16 0L16 2L15 2L15 3L14 3L14 4L12 4L12 5L13 5L13 6L12 6L12 7L11 7L11 3L10 3L10 2L9 2L9 0ZM14 0L14 1L11 1L11 2L12 2L12 3L13 3L13 2L14 2L14 1L15 1L15 0ZM15 3L15 7L16 7L16 3ZM13 6L13 8L14 8L14 6ZM21 9L21 10L22 10L22 11L23 11L23 10L22 10L22 9ZM1 10L1 11L3 11L3 12L4 12L4 13L6 13L6 14L8 14L8 15L9 15L9 14L8 14L8 13L11 13L11 14L13 14L13 17L14 17L14 16L15 16L15 18L13 18L13 20L14 20L14 21L15 21L15 22L16 22L16 20L15 20L15 19L16 19L16 16L15 16L15 14L16 14L16 13L17 13L17 16L20 16L20 13L17 13L17 12L16 12L16 11L17 11L17 10L16 10L16 11L15 11L15 12L14 12L14 11L13 11L13 12L14 12L14 13L12 13L12 12L11 12L11 11L10 11L10 12L8 12L8 13L6 13L6 12L7 12L7 11L5 11L5 12L4 12L4 11L3 11L3 10ZM8 10L8 11L9 11L9 10ZM15 12L15 13L14 13L14 14L15 14L15 13L16 13L16 12ZM0 13L0 14L1 14L1 13ZM18 14L18 15L19 15L19 14ZM11 15L11 16L12 16L12 15ZM17 17L17 20L20 20L20 17ZM24 17L24 18L25 18L25 17ZM18 18L18 19L19 19L19 18ZM8 19L8 21L9 21L9 19ZM21 21L21 22L22 22L22 21ZM10 22L10 23L11 23L11 22ZM0 0L0 7L7 7L7 0ZM1 1L1 6L6 6L6 1ZM2 2L2 5L5 5L5 2ZM18 0L18 7L25 7L25 0ZM19 1L19 6L24 6L24 1ZM20 2L20 5L23 5L23 2ZM0 18L0 25L7 25L7 18ZM1 19L1 24L6 24L6 19ZM2 20L2 23L5 23L5 20Z" fill="#000000"/></g></g></svg>
