<?xml version="1.0" encoding="UTF-8"?>
<svg xmlns="http://www.w3.org/2000/svg" version="1.1" width="300" height="300" viewBox="0 0 300 300"><rect x="0" y="0" width="300" height="300" fill="#ffffff"/><g transform="scale(12)"><g transform="translate(0,0)"><path fill-rule="evenodd" d="M10 0L10 2L11 2L11 0ZM12 0L12 1L13 1L13 0ZM16 0L16 1L15 1L15 2L14 2L14 3L13 3L13 2L12 2L12 4L14 4L14 5L11 5L11 6L10 6L10 4L11 4L11 3L8 3L8 4L9 4L9 5L8 5L8 7L9 7L9 8L6 8L6 9L10 9L10 11L11 11L11 9L12 9L12 10L14 10L14 9L15 9L15 6L16 6L16 8L17 8L17 9L16 9L16 10L15 10L15 12L13 12L13 11L12 11L12 13L14 13L14 14L11 14L11 16L10 16L10 14L9 14L9 17L8 17L8 16L5 16L5 15L7 15L7 14L8 14L8 13L11 13L11 12L9 12L9 11L7 11L7 10L4 10L4 12L2 12L2 11L1 11L1 12L0 12L0 17L1 17L1 13L3 13L3 14L2 14L2 15L3 15L3 16L2 16L2 17L4 17L4 16L5 16L5 17L8 17L8 19L9 19L9 20L8 20L8 25L9 25L9 23L10 23L10 22L9 22L9 21L11 21L11 20L10 20L10 19L11 19L11 18L9 18L9 17L12 17L12 18L13 18L13 17L15 17L15 18L16 18L16 19L14 19L14 20L13 20L13 19L12 19L12 21L14 21L14 22L11 22L11 25L13 25L13 24L12 24L12 23L14 23L14 22L15 22L15 23L16 23L16 24L15 24L15 25L16 25L16 24L17 24L17 25L19 25L19 23L17 23L17 22L19 22L19 21L21 21L21 24L22 24L22 25L25 25L25 20L24 20L24 19L25 19L25 17L24 17L24 18L22 18L22 19L21 19L21 16L22 16L22 17L23 17L23 16L25 16L25 10L24 10L24 8L23 8L23 9L22 9L22 8L21 8L21 10L20 10L20 8L19 8L19 10L18 10L18 11L16 11L16 10L17 10L17 9L18 9L18 8L17 8L17 6L16 6L16 5L17 5L17 3L16 3L16 2L17 2L17 0ZM8 1L8 2L9 2L9 1ZM15 3L15 5L14 5L14 6L13 6L13 7L12 7L12 6L11 6L11 7L12 7L12 9L13 9L13 8L14 8L14 6L15 6L15 5L16 5L16 3ZM9 6L9 7L10 7L10 6ZM0 8L0 9L1 9L1 10L3 10L3 9L5 9L5 8ZM10 8L10 9L11 9L11 8ZM19 10L19 11L20 11L20 10ZM23 10L23 11L22 11L22 12L24 12L24 10ZM6 11L6 12L7 12L7 11ZM16 12L16 13L17 13L17 14L16 14L16 16L17 16L17 14L18 14L18 15L19 15L19 16L20 16L20 14L21 14L21 12L19 12L19 13L17 13L17 12ZM4 13L4 15L5 15L5 14L7 14L7 13ZM19 13L19 14L20 14L20 13ZM22 13L22 16L23 16L23 14L24 14L24 13ZM12 15L12 17L13 17L13 16L14 16L14 15ZM17 17L17 20L20 20L20 17ZM18 18L18 19L19 19L19 18ZM22 19L22 20L21 20L21 21L22 21L22 24L24 24L24 22L23 22L23 21L22 21L22 20L23 20L23 19ZM0 0L0 7L7 7L7 0ZM1 1L1 6L6 6L6 1ZM2 2L2 5L5 5L5 2ZM18 0L18 7L25 7L25 0ZM19 1L19 6L24 6L24 1ZM20 2L20 5L23 5L23 2ZM0 18L0 25L7 25L7 18ZM1 19L1 24L6 24L6 19ZM2 20L2 23L5 23L5 20Z" fill="#000000"/></g></g></svg>
