<?xml version="1.0" encoding="UTF-8"?>
<svg xmlns="http://www.w3.org/2000/svg" version="1.1" width="300" height="300" viewBox="0 0 300 300"><rect x="0" y="0" width="300" height="300" fill="#ffffff"/><g transform="scale(12)"><g transform="translate(0,0)"><path fill-rule="evenodd" d="M9 0L9 1L8 1L8 2L9 2L9 3L8 3L8 4L10 4L10 7L11 7L11 4L12 4L12 5L13 5L13 6L12 6L12 7L13 7L13 6L14 6L14 7L15 7L15 8L14 8L14 9L15 9L15 11L14 11L14 13L13 13L13 12L12 12L12 13L13 13L13 14L12 14L12 15L11 15L11 17L10 17L10 20L8 20L8 25L13 25L13 23L14 23L14 25L16 25L16 24L17 24L17 25L19 25L19 24L22 24L22 25L25 25L25 21L24 21L24 20L25 20L25 17L24 17L24 18L22 18L22 19L21 19L21 16L22 16L22 17L23 17L23 16L25 16L25 10L24 10L24 8L23 8L23 9L22 9L22 8L21 8L21 10L20 10L20 8L19 8L19 10L18 10L18 11L16 11L16 10L17 10L17 9L18 9L18 8L17 8L17 9L15 9L15 8L16 8L16 7L17 7L17 6L16 6L16 5L17 5L17 4L16 4L16 2L17 2L17 0L15 0L15 1L14 1L14 0L13 0L13 1L11 1L11 2L10 2L10 0ZM12 2L12 3L13 3L13 4L14 4L14 6L15 6L15 7L16 7L16 6L15 6L15 4L14 4L14 3L15 3L15 2ZM10 3L10 4L11 4L11 3ZM8 5L8 7L9 7L9 5ZM0 8L0 9L1 9L1 10L2 10L2 11L4 11L4 13L2 13L2 12L0 12L0 17L1 17L1 14L2 14L2 17L3 17L3 15L4 15L4 16L6 16L6 17L8 17L8 19L9 19L9 17L8 17L8 16L10 16L10 14L11 14L11 13L10 13L10 12L11 12L11 11L10 11L10 9L11 9L11 8L6 8L6 9L5 9L5 8ZM12 8L12 9L13 9L13 8ZM4 9L4 10L5 10L5 9ZM6 9L6 10L7 10L7 11L6 11L6 12L5 12L5 15L6 15L6 16L7 16L7 15L9 15L9 14L10 14L10 13L9 13L9 12L8 12L8 11L9 11L9 9ZM12 10L12 11L13 11L13 10ZM19 10L19 11L20 11L20 10ZM23 10L23 11L22 11L22 12L24 12L24 10ZM6 12L6 13L7 13L7 14L6 14L6 15L7 15L7 14L8 14L8 13L7 13L7 12ZM16 12L16 13L17 13L17 14L16 14L16 16L17 16L17 14L18 14L18 15L19 15L19 16L20 16L20 14L21 14L21 12L19 12L19 13L17 13L17 12ZM19 13L19 14L20 14L20 13ZM22 13L22 16L23 16L23 14L24 14L24 13ZM13 14L13 15L12 15L12 16L14 16L14 17L11 17L11 20L12 20L12 19L13 19L13 21L10 21L10 24L12 24L12 22L14 22L14 23L15 23L15 24L16 24L16 23L15 23L15 22L14 22L14 20L15 20L15 19L16 19L16 18L15 18L15 16L14 16L14 15L15 15L15 14ZM17 17L17 20L20 20L20 17ZM18 18L18 19L19 19L19 18ZM22 19L22 20L21 20L21 21L19 21L19 22L17 22L17 23L22 23L22 24L24 24L24 22L23 22L23 21L22 21L22 20L24 20L24 19ZM21 21L21 22L22 22L22 21ZM0 0L0 7L7 7L7 0ZM1 1L1 6L6 6L6 1ZM2 2L2 5L5 5L5 2ZM18 0L18 7L25 7L25 0ZM19 1L19 6L24 6L24 1ZM20 2L20 5L23 5L23 2ZM0 18L0 25L7 25L7 18ZM1 19L1 24L6 24L6 19ZM2 20L2 23L5 23L5 20Z" fill="#000000"/></g></g></svg>
