<?xml version="1.0" encoding="UTF-8"?>
<svg xmlns="http://www.w3.org/2000/svg" version="1.1" width="300" height="300" viewBox="0 0 300 300"><rect x="0" y="0" width="300" height="300" fill="#ffffff"/><g transform="scale(12)"><g transform="translate(0,0)"><path fill-rule="evenodd" d="M8 0L8 2L9 2L9 3L10 3L10 2L9 2L9 1L11 1L11 2L12 2L12 0ZM13 0L13 1L16 1L16 0ZM13 2L13 3L11 3L11 5L9 5L9 4L8 4L8 9L10 9L10 7L11 7L11 5L12 5L12 7L13 7L13 3L14 3L14 4L15 4L15 5L16 5L16 7L17 7L17 5L16 5L16 3L17 3L17 2L16 2L16 3L14 3L14 2ZM9 6L9 7L10 7L10 6ZM14 6L14 9L15 9L15 6ZM0 8L0 10L2 10L2 9L3 9L3 8ZM5 8L5 9L4 9L4 10L3 10L3 11L4 11L4 12L6 12L6 13L8 13L8 14L4 14L4 15L3 15L3 14L2 14L2 13L3 13L3 12L2 12L2 11L1 11L1 12L2 12L2 13L1 13L1 14L0 14L0 15L2 15L2 16L0 16L0 17L3 17L3 16L4 16L4 17L5 17L5 16L6 16L6 17L7 17L7 16L8 16L8 18L9 18L9 19L8 19L8 20L10 20L10 21L9 21L9 22L8 22L8 25L9 25L9 22L10 22L10 23L11 23L11 24L10 24L10 25L12 25L12 23L13 23L13 22L14 22L14 20L11 20L11 19L12 19L12 18L13 18L13 19L15 19L15 18L14 18L14 16L13 16L13 15L14 15L14 14L15 14L15 15L17 15L17 16L15 16L15 17L16 17L16 20L15 20L15 21L16 21L16 22L15 22L15 23L14 23L14 24L13 24L13 25L14 25L14 24L15 24L15 25L17 25L17 24L18 24L18 25L20 25L20 23L22 23L22 21L21 21L21 18L22 18L22 17L21 17L21 15L23 15L23 17L24 17L24 15L25 15L25 14L24 14L24 15L23 15L23 14L21 14L21 15L20 15L20 13L22 13L22 12L21 12L21 11L22 11L22 10L23 10L23 11L25 11L25 8L23 8L23 9L22 9L22 10L21 10L21 11L20 11L20 9L21 9L21 8L16 8L16 10L13 10L13 8L11 8L11 9L12 9L12 11L11 11L11 10L5 10L5 9L7 9L7 8ZM17 9L17 10L18 10L18 9ZM4 10L4 11L5 11L5 10ZM6 11L6 12L7 12L7 11ZM9 11L9 12L8 12L8 13L9 13L9 12L10 12L10 11ZM13 11L13 12L14 12L14 13L12 13L12 12L11 12L11 14L10 14L10 15L9 15L9 14L8 14L8 16L9 16L9 17L10 17L10 18L12 18L12 17L13 17L13 16L12 16L12 15L11 15L11 14L14 14L14 13L15 13L15 14L16 14L16 13L17 13L17 15L18 15L18 16L20 16L20 15L19 15L19 14L18 14L18 12L19 12L19 11L18 11L18 12L16 12L16 13L15 13L15 11ZM24 12L24 13L25 13L25 12ZM4 15L4 16L5 16L5 15ZM6 15L6 16L7 16L7 15ZM10 16L10 17L12 17L12 16ZM17 17L17 20L20 20L20 17ZM18 18L18 19L19 19L19 18ZM24 18L24 20L23 20L23 23L25 23L25 22L24 22L24 20L25 20L25 18ZM11 21L11 22L12 22L12 21ZM18 21L18 24L19 24L19 22L21 22L21 21ZM16 22L16 23L17 23L17 22ZM24 24L24 25L25 25L25 24ZM0 0L0 7L7 7L7 0ZM1 1L1 6L6 6L6 1ZM2 2L2 5L5 5L5 2ZM18 0L18 7L25 7L25 0ZM19 1L19 6L24 6L24 1ZM20 2L20 5L23 5L23 2ZM0 18L0 25L7 25L7 18ZM1 19L1 24L6 24L6 19ZM2 20L2 23L5 23L5 20Z" fill="#000000"/></g></g></svg>
