<?xml version="1.0" encoding="UTF-8"?>
<svg xmlns="http://www.w3.org/2000/svg" version="1.1" width="300" height="300" viewBox="0 0 300 300"><rect x="0" y="0" width="300" height="300" fill="#ffffff"/><g transform="scale(10.345)"><g transform="translate(0,0)"><path fill-rule="evenodd" d="M8 0L8 4L10 4L10 3L11 3L11 4L12 4L12 2L11 2L11 0ZM12 0L12 1L13 1L13 0ZM14 0L14 1L15 1L15 0ZM18 0L18 2L17 2L17 1L16 1L16 3L14 3L14 2L13 2L13 3L14 3L14 4L13 4L13 5L11 5L11 6L10 6L10 7L9 7L9 5L8 5L8 7L9 7L9 8L10 8L10 7L11 7L11 6L12 6L12 8L11 8L11 9L9 9L9 10L8 10L8 9L7 9L7 8L4 8L4 9L3 9L3 10L1 10L1 9L2 9L2 8L0 8L0 10L1 10L1 11L0 11L0 12L1 12L1 11L2 11L2 12L3 12L3 13L1 13L1 14L3 14L3 15L2 15L2 18L5 18L5 19L3 19L3 20L0 20L0 21L3 21L3 20L4 20L4 21L8 21L8 22L9 22L9 21L10 21L10 23L8 23L8 25L9 25L9 24L10 24L10 23L11 23L11 20L12 20L12 21L13 21L13 22L15 22L15 23L14 23L14 24L13 24L13 23L12 23L12 24L11 24L11 25L10 25L10 26L9 26L9 27L8 27L8 29L9 29L9 28L10 28L10 29L11 29L11 28L12 28L12 29L14 29L14 27L15 27L15 28L19 28L19 27L16 27L16 26L19 26L19 25L20 25L20 27L23 27L23 28L22 28L22 29L23 29L23 28L25 28L25 29L28 29L28 28L29 28L29 25L28 25L28 24L29 24L29 22L28 22L28 23L27 23L27 25L28 25L28 26L27 26L27 28L25 28L25 27L23 27L23 26L22 26L22 25L24 25L24 26L26 26L26 25L25 25L25 22L26 22L26 21L25 21L25 18L27 18L27 17L28 17L28 16L29 16L29 12L28 12L28 11L29 11L29 8L25 8L25 9L24 9L24 8L23 8L23 9L22 9L22 12L23 12L23 10L27 10L27 12L28 12L28 13L26 13L26 14L25 14L25 13L21 13L21 12L19 12L19 11L18 11L18 10L20 10L20 11L21 11L21 10L20 10L20 9L21 9L21 5L20 5L20 4L21 4L21 0L20 0L20 1L19 1L19 0ZM9 2L9 3L10 3L10 2ZM18 2L18 3L19 3L19 4L20 4L20 2ZM16 3L16 4L15 4L15 7L16 7L16 4L17 4L17 5L18 5L18 4L17 4L17 3ZM13 6L13 8L12 8L12 9L11 9L11 10L9 10L9 11L8 11L8 10L7 10L7 9L6 9L6 10L5 10L5 12L7 12L7 13L6 13L6 14L9 14L9 15L10 15L10 19L9 19L9 18L7 18L7 17L9 17L9 16L8 16L8 15L6 15L6 16L7 16L7 17L5 17L5 13L4 13L4 17L5 17L5 18L7 18L7 19L6 19L6 20L7 20L7 19L9 19L9 20L8 20L8 21L9 21L9 20L11 20L11 18L12 18L12 17L13 17L13 18L16 18L16 19L17 19L17 18L19 18L19 19L20 19L20 20L21 20L21 19L20 19L20 18L22 18L22 17L27 17L27 15L25 15L25 14L22 14L22 16L21 16L21 13L20 13L20 14L19 14L19 12L17 12L17 11L14 11L14 13L15 13L15 14L13 14L13 13L12 13L12 12L13 12L13 11L12 11L12 12L11 12L11 13L10 13L10 11L11 11L11 10L12 10L12 9L13 9L13 10L16 10L16 9L17 9L17 10L18 10L18 9L20 9L20 8L19 8L19 7L20 7L20 6L19 6L19 7L18 7L18 6L17 6L17 7L18 7L18 8L16 8L16 9L13 9L13 8L14 8L14 6ZM27 9L27 10L28 10L28 9ZM3 10L3 12L4 12L4 10ZM6 10L6 11L7 11L7 10ZM24 11L24 12L25 12L25 11ZM8 12L8 13L9 13L9 14L10 14L10 15L11 15L11 14L10 14L10 13L9 13L9 12ZM15 12L15 13L16 13L16 14L15 14L15 15L14 15L14 16L13 16L13 15L12 15L12 16L11 16L11 17L12 17L12 16L13 16L13 17L15 17L15 16L16 16L16 15L17 15L17 16L18 16L18 14L17 14L17 13L16 13L16 12ZM23 15L23 16L24 16L24 15ZM20 16L20 17L19 17L19 18L20 18L20 17L21 17L21 16ZM0 17L0 18L1 18L1 17ZM16 17L16 18L17 18L17 17ZM28 18L28 21L29 21L29 18ZM12 19L12 20L13 20L13 19ZM14 19L14 21L15 21L15 22L16 22L16 21L17 21L17 22L18 22L18 24L17 24L17 25L19 25L19 23L20 23L20 21L19 21L19 22L18 22L18 21L17 21L17 20L15 20L15 19ZM23 19L23 20L24 20L24 19ZM21 21L21 24L24 24L24 21ZM22 22L22 23L23 23L23 22ZM12 24L12 25L11 25L11 26L12 26L12 25L13 25L13 26L16 26L16 24L15 24L15 25L13 25L13 24ZM10 27L10 28L11 28L11 27ZM12 27L12 28L13 28L13 27ZM20 28L20 29L21 29L21 28ZM0 0L0 7L7 7L7 0ZM1 1L1 6L6 6L6 1ZM2 2L2 5L5 5L5 2ZM22 0L22 7L29 7L29 0ZM23 1L23 6L28 6L28 1ZM24 2L24 5L27 5L27 2ZM0 22L0 29L7 29L7 22ZM1 23L1 28L6 28L6 23ZM2 24L2 27L5 27L5 24Z" fill="#000000"/></g></g></svg>
