<?xml version="1.0" encoding="UTF-8"?>
<svg xmlns="http://www.w3.org/2000/svg" version="1.1" width="300" height="300" viewBox="0 0 300 300"><rect x="0" y="0" width="300" height="300" fill="#ffffff"/><g transform="scale(12)"><g transform="translate(0,0)"><path fill-rule="evenodd" d="M9 0L9 1L8 1L8 2L9 2L9 3L8 3L8 4L10 4L10 7L11 7L11 4L12 4L12 5L13 5L13 4L15 4L15 3L17 3L17 2L16 2L16 1L17 1L17 0L16 0L16 1L15 1L15 0L14 0L14 1L11 1L11 2L10 2L10 0ZM14 1L14 2L12 2L12 3L14 3L14 2L15 2L15 1ZM10 3L10 4L11 4L11 3ZM16 4L16 5L15 5L15 6L14 6L14 8L13 8L13 6L12 6L12 9L11 9L11 8L6 8L6 9L5 9L5 8L0 8L0 9L1 9L1 10L0 10L0 12L1 12L1 11L3 11L3 12L2 12L2 13L0 13L0 17L1 17L1 14L2 14L2 17L4 17L4 13L5 13L5 10L6 10L6 11L9 11L9 12L6 12L6 13L10 13L10 14L12 14L12 13L10 13L10 12L13 12L13 13L14 13L14 12L13 12L13 11L16 11L16 12L15 12L15 13L16 13L16 14L15 14L15 16L12 16L12 17L11 17L11 16L8 16L8 19L9 19L9 20L8 20L8 25L9 25L9 20L10 20L10 21L11 21L11 22L10 22L10 24L11 24L11 25L16 25L16 24L17 24L17 25L20 25L20 23L17 23L17 22L19 22L19 21L21 21L21 22L24 22L24 24L22 24L22 23L21 23L21 24L22 24L22 25L25 25L25 21L24 21L24 20L25 20L25 17L24 17L24 18L22 18L22 19L21 19L21 16L22 16L22 17L23 17L23 16L25 16L25 10L24 10L24 8L23 8L23 9L22 9L22 8L21 8L21 10L20 10L20 8L19 8L19 10L18 10L18 11L16 11L16 10L17 10L17 9L18 9L18 8L17 8L17 9L16 9L16 10L14 10L14 9L15 9L15 8L16 8L16 7L17 7L17 4ZM8 5L8 7L9 7L9 5ZM15 6L15 7L16 7L16 6ZM3 9L3 11L4 11L4 10L5 10L5 9ZM6 9L6 10L8 10L8 9ZM10 9L10 11L12 11L12 10L13 10L13 9L12 9L12 10L11 10L11 9ZM19 10L19 11L20 11L20 10ZM23 10L23 11L22 11L22 12L24 12L24 10ZM19 12L19 13L17 13L17 14L16 14L16 16L17 16L17 14L18 14L18 15L19 15L19 16L20 16L20 14L21 14L21 12ZM19 13L19 14L20 14L20 13ZM22 13L22 16L23 16L23 14L24 14L24 13ZM6 14L6 15L5 15L5 17L7 17L7 16L6 16L6 15L7 15L7 14ZM10 17L10 20L11 20L11 21L12 21L12 22L11 22L11 23L12 23L12 24L14 24L14 23L15 23L15 24L16 24L16 23L15 23L15 21L12 21L12 20L15 20L15 19L16 19L16 18L15 18L15 17L12 17L12 18L11 18L11 17ZM17 17L17 20L20 20L20 17ZM13 18L13 19L14 19L14 18ZM18 18L18 19L19 19L19 18ZM11 19L11 20L12 20L12 19ZM22 19L22 20L21 20L21 21L22 21L22 20L24 20L24 19ZM12 22L12 23L13 23L13 22ZM0 0L0 7L7 7L7 0ZM1 1L1 6L6 6L6 1ZM2 2L2 5L5 5L5 2ZM18 0L18 7L25 7L25 0ZM19 1L19 6L24 6L24 1ZM20 2L20 5L23 5L23 2ZM0 18L0 25L7 25L7 18ZM1 19L1 24L6 24L6 19ZM2 20L2 23L5 23L5 20Z" fill="#000000"/></g></g></svg>
