<?xml version="1.0" encoding="UTF-8"?>
<svg xmlns="http://www.w3.org/2000/svg" version="1.1" width="300" height="300" viewBox="0 0 300 300"><rect x="0" y="0" width="300" height="300" fill="#ffffff"/><g transform="scale(12)"><g transform="translate(0,0)"><path fill-rule="evenodd" d="M8 0L8 4L9 4L9 5L8 5L8 7L9 7L9 6L10 6L10 9L11 9L11 8L12 8L12 9L13 9L13 10L15 10L15 11L16 11L16 14L15 14L15 15L14 15L14 12L13 12L13 11L12 11L12 12L11 12L11 13L9 13L9 14L10 14L10 15L9 15L9 16L10 16L10 18L11 18L11 20L10 20L10 19L8 19L8 21L9 21L9 23L8 23L8 25L9 25L9 24L10 24L10 25L14 25L14 24L15 24L15 23L16 23L16 22L17 22L17 23L19 23L19 22L22 22L22 21L23 21L23 23L20 23L20 24L17 24L17 25L25 25L25 24L24 24L24 22L25 22L25 21L23 21L23 20L25 20L25 19L23 19L23 14L21 14L21 12L22 12L22 13L24 13L24 14L25 14L25 12L24 12L24 9L25 9L25 8L21 8L21 9L20 9L20 8L19 8L19 9L20 9L20 11L19 11L19 12L17 12L17 11L18 11L18 10L17 10L17 9L16 9L16 8L17 8L17 6L16 6L16 7L15 7L15 4L16 4L16 5L17 5L17 4L16 4L16 2L17 2L17 0L16 0L16 2L15 2L15 0L13 0L13 1L11 1L11 2L12 2L12 5L13 5L13 6L12 6L12 7L11 7L11 3L10 3L10 2L9 2L9 0ZM13 1L13 5L14 5L14 3L15 3L15 2L14 2L14 1ZM13 6L13 7L12 7L12 8L13 8L13 9L14 9L14 8L15 8L15 7L14 7L14 6ZM0 8L0 9L2 9L2 8ZM4 8L4 9L3 9L3 10L2 10L2 13L0 13L0 14L2 14L2 15L3 15L3 17L4 17L4 16L5 16L5 17L8 17L8 18L9 18L9 17L8 17L8 13L7 13L7 12L8 12L8 11L9 11L9 12L10 12L10 11L11 11L11 10L9 10L9 9L8 9L8 10L6 10L6 11L3 11L3 10L5 10L5 9L7 9L7 8ZM15 9L15 10L16 10L16 11L17 11L17 10L16 10L16 9ZM21 9L21 10L22 10L22 11L23 11L23 10L22 10L22 9ZM0 11L0 12L1 12L1 11ZM6 11L6 12L5 12L5 13L4 13L4 12L3 12L3 13L4 13L4 14L3 14L3 15L4 15L4 14L7 14L7 13L6 13L6 12L7 12L7 11ZM11 13L11 14L12 14L12 13ZM17 13L17 16L20 16L20 13ZM18 14L18 15L19 15L19 14ZM6 15L6 16L7 16L7 15ZM13 15L13 16L14 16L14 17L12 17L12 16L11 16L11 18L12 18L12 19L13 19L13 20L14 20L14 21L12 21L12 20L11 20L11 22L10 22L10 24L12 24L12 23L13 23L13 24L14 24L14 23L15 23L15 22L16 22L16 20L15 20L15 19L16 19L16 16L14 16L14 15ZM0 16L0 17L2 17L2 16ZM14 17L14 18L15 18L15 17ZM17 17L17 20L20 20L20 17ZM21 17L21 18L22 18L22 17ZM24 17L24 18L25 18L25 17ZM18 18L18 19L19 19L19 18ZM14 21L14 22L15 22L15 21ZM11 22L11 23L12 23L12 22ZM0 0L0 7L7 7L7 0ZM1 1L1 6L6 6L6 1ZM2 2L2 5L5 5L5 2ZM18 0L18 7L25 7L25 0ZM19 1L19 6L24 6L24 1ZM20 2L20 5L23 5L23 2ZM0 18L0 25L7 25L7 18ZM1 19L1 24L6 24L6 19ZM2 20L2 23L5 23L5 20Z" fill="#000000"/></g></g></svg>
