<?xml version="1.0" encoding="UTF-8"?>
<svg xmlns="http://www.w3.org/2000/svg" version="1.1" width="300" height="300" viewBox="0 0 300 300"><rect x="0" y="0" width="300" height="300" fill="#ffffff"/><g transform="scale(12)"><g transform="translate(0,0)"><path fill-rule="evenodd" d="M9 0L9 1L12 1L12 0ZM13 0L13 2L14 2L14 3L16 3L16 4L15 4L15 5L17 5L17 3L16 3L16 2L17 2L17 1L16 1L16 0L15 0L15 1L16 1L16 2L14 2L14 0ZM9 2L9 3L8 3L8 5L10 5L10 7L11 7L11 8L12 8L12 9L13 9L13 8L12 8L12 7L13 7L13 6L12 6L12 7L11 7L11 4L9 4L9 3L12 3L12 2ZM13 4L13 5L14 5L14 4ZM8 6L8 7L9 7L9 6ZM14 6L14 7L15 7L15 6ZM16 6L16 7L17 7L17 6ZM0 8L0 10L3 10L3 11L4 11L4 10L5 10L5 11L7 11L7 10L10 10L10 11L8 11L8 12L5 12L5 13L7 13L7 14L6 14L6 15L4 15L4 13L3 13L3 15L2 15L2 17L4 17L4 16L6 16L6 17L7 17L7 16L8 16L8 20L9 20L9 21L10 21L10 23L8 23L8 25L9 25L9 24L10 24L10 25L13 25L13 23L14 23L14 25L17 25L17 24L18 24L18 25L21 25L21 23L20 23L20 24L19 24L19 23L17 23L17 22L19 22L19 21L20 21L20 22L24 22L24 25L25 25L25 21L24 21L24 19L25 19L25 17L24 17L24 19L23 19L23 16L25 16L25 10L24 10L24 9L23 9L23 10L21 10L21 9L22 9L22 8L20 8L20 9L19 9L19 10L18 10L18 11L17 11L17 10L15 10L15 8L14 8L14 10L15 10L15 11L14 11L14 12L13 12L13 11L12 11L12 12L11 12L11 13L13 13L13 14L12 14L12 16L10 16L10 15L8 15L8 14L10 14L10 11L11 11L11 9L10 9L10 8L9 8L9 9L8 9L8 8L5 8L5 9L2 9L2 8ZM5 9L5 10L7 10L7 9ZM19 10L19 11L20 11L20 10ZM23 10L23 11L21 11L21 12L22 12L22 13L20 13L20 14L19 14L19 13L18 13L18 12L17 12L17 11L16 11L16 13L15 13L15 12L14 12L14 14L16 14L16 15L15 15L15 16L16 16L16 15L17 15L17 14L18 14L18 15L19 15L19 16L21 16L21 18L22 18L22 15L23 15L23 14L24 14L24 10ZM1 11L1 12L0 12L0 17L1 17L1 14L2 14L2 13L1 13L1 12L2 12L2 11ZM16 13L16 14L17 14L17 13ZM20 14L20 15L22 15L22 14ZM3 15L3 16L4 16L4 15ZM6 15L6 16L7 16L7 15ZM13 15L13 17L11 17L11 18L14 18L14 19L13 19L13 21L12 21L12 20L11 20L11 19L10 19L10 21L11 21L11 23L10 23L10 24L12 24L12 22L13 22L13 21L14 21L14 20L16 20L16 17L15 17L15 18L14 18L14 15ZM9 16L9 17L10 17L10 16ZM17 17L17 20L20 20L20 17ZM18 18L18 19L19 19L19 18ZM21 19L21 21L22 21L22 20L23 20L23 19ZM15 21L15 22L14 22L14 23L15 23L15 22L17 22L17 21ZM0 0L0 7L7 7L7 0ZM1 1L1 6L6 6L6 1ZM2 2L2 5L5 5L5 2ZM18 0L18 7L25 7L25 0ZM19 1L19 6L24 6L24 1ZM20 2L20 5L23 5L23 2ZM0 18L0 25L7 25L7 18ZM1 19L1 24L6 24L6 19ZM2 20L2 23L5 23L5 20Z" fill="#000000"/></g></g></svg>
