<?xml version="1.0" encoding="UTF-8"?>
<svg xmlns="http://www.w3.org/2000/svg" version="1.1" width="300" height="300" viewBox="0 0 300 300"><rect x="0" y="0" width="300" height="300" fill="#ffffff"/><g transform="scale(12)"><g transform="translate(0,0)"><path fill-rule="evenodd" d="M8 0L8 2L9 2L9 4L8 4L8 9L7 9L7 8L5 8L5 10L4 10L4 9L3 9L3 8L0 8L0 9L3 9L3 10L2 10L2 11L1 11L1 12L0 12L0 13L1 13L1 12L2 12L2 14L0 14L0 15L2 15L2 16L0 16L0 17L4 17L4 16L5 16L5 15L2 15L2 14L3 14L3 10L4 10L4 12L5 12L5 13L8 13L8 14L9 14L9 15L7 15L7 14L6 14L6 15L7 15L7 16L6 16L6 17L8 17L8 18L11 18L11 19L8 19L8 20L9 20L9 21L10 21L10 20L11 20L11 21L12 21L12 22L10 22L10 23L9 23L9 22L8 22L8 25L10 25L10 24L11 24L11 25L13 25L13 24L11 24L11 23L15 23L15 24L14 24L14 25L17 25L17 24L18 24L18 25L20 25L20 23L21 23L21 22L22 22L22 23L25 23L25 20L23 20L23 21L24 21L24 22L22 22L22 21L21 21L21 19L23 19L23 17L24 17L24 15L25 15L25 14L24 14L24 15L23 15L23 14L21 14L21 15L20 15L20 13L22 13L22 12L21 12L21 11L22 11L22 10L23 10L23 11L25 11L25 8L23 8L23 9L22 9L22 10L21 10L21 11L20 11L20 9L21 9L21 8L17 8L17 9L16 9L16 7L17 7L17 6L16 6L16 7L15 7L15 6L14 6L14 7L15 7L15 11L14 11L14 9L13 9L13 6L12 6L12 8L11 8L11 10L10 10L10 9L9 9L9 4L10 4L10 5L11 5L11 3L12 3L12 2L13 2L13 4L14 4L14 5L15 5L15 3L17 3L17 1L16 1L16 2L15 2L15 1L14 1L14 0L13 0L13 1L12 1L12 2L11 2L11 3L10 3L10 0ZM13 1L13 2L14 2L14 1ZM10 6L10 7L11 7L11 6ZM6 9L6 10L5 10L5 12L7 12L7 11L9 11L9 12L10 12L10 11L9 11L9 9L8 9L8 10L7 10L7 9ZM17 9L17 10L18 10L18 9ZM6 10L6 11L7 11L7 10ZM12 11L12 13L13 13L13 14L12 14L12 15L11 15L11 16L8 16L8 17L11 17L11 16L13 16L13 19L11 19L11 20L12 20L12 21L14 21L14 22L16 22L16 23L17 23L17 22L16 22L16 21L15 21L15 20L16 20L16 17L15 17L15 16L17 16L17 15L18 15L18 16L20 16L20 15L19 15L19 14L18 14L18 12L19 12L19 11L18 11L18 12L17 12L17 11L15 11L15 12L14 12L14 11ZM15 12L15 13L16 13L16 14L15 14L15 15L14 15L14 14L13 14L13 15L14 15L14 16L15 16L15 15L17 15L17 13L16 13L16 12ZM24 12L24 13L25 13L25 12ZM9 13L9 14L11 14L11 13ZM21 15L21 18L22 18L22 17L23 17L23 15ZM14 17L14 20L15 20L15 17ZM17 17L17 20L20 20L20 17ZM18 18L18 19L19 19L19 18ZM24 18L24 19L25 19L25 18ZM18 21L18 24L19 24L19 22L21 22L21 21ZM24 24L24 25L25 25L25 24ZM0 0L0 7L7 7L7 0ZM1 1L1 6L6 6L6 1ZM2 2L2 5L5 5L5 2ZM18 0L18 7L25 7L25 0ZM19 1L19 6L24 6L24 1ZM20 2L20 5L23 5L23 2ZM0 18L0 25L7 25L7 18ZM1 19L1 24L6 24L6 19ZM2 20L2 23L5 23L5 20Z" fill="#000000"/></g></g></svg>
