<?xml version="1.0" encoding="UTF-8"?>
<svg xmlns="http://www.w3.org/2000/svg" version="1.1" width="300" height="300" viewBox="0 0 300 300"><rect x="0" y="0" width="300" height="300" fill="#ffffff"/><g transform="scale(12)"><g transform="translate(0,0)"><path fill-rule="evenodd" d="M15 0L15 1L14 1L14 4L13 4L13 2L12 2L12 4L13 4L13 6L12 6L12 7L11 7L11 5L10 5L10 4L11 4L11 3L10 3L10 2L11 2L11 1L10 1L10 2L9 2L9 1L8 1L8 2L9 2L9 3L8 3L8 4L9 4L9 5L8 5L8 7L9 7L9 8L6 8L6 9L5 9L5 8L0 8L0 10L1 10L1 12L0 12L0 17L1 17L1 14L2 14L2 13L3 13L3 12L4 12L4 11L7 11L7 12L6 12L6 13L5 13L5 14L4 14L4 15L2 15L2 16L3 16L3 17L7 17L7 16L8 16L8 19L9 19L9 20L8 20L8 25L11 25L11 24L13 24L13 23L11 23L11 22L10 22L10 21L14 21L14 20L15 20L15 23L16 23L16 24L14 24L14 25L16 25L16 24L17 24L17 25L19 25L19 23L17 23L17 22L19 22L19 21L21 21L21 22L22 22L22 21L23 21L23 22L24 22L24 24L22 24L22 23L21 23L21 24L20 24L20 25L21 25L21 24L22 24L22 25L25 25L25 21L24 21L24 19L25 19L25 17L24 17L24 18L23 18L23 16L25 16L25 10L24 10L24 8L23 8L23 9L22 9L22 8L21 8L21 10L20 10L20 8L19 8L19 10L18 10L18 11L17 11L17 13L15 13L15 12L14 12L14 14L12 14L12 15L11 15L11 17L10 17L10 14L9 14L9 13L11 13L11 12L9 12L9 10L8 10L8 9L10 9L10 8L12 8L12 7L13 7L13 6L14 6L14 7L15 7L15 8L14 8L14 9L15 9L15 10L14 10L14 11L16 11L16 10L17 10L17 9L18 9L18 8L17 8L17 9L15 9L15 8L16 8L16 7L17 7L17 2L16 2L16 1L17 1L17 0ZM14 4L14 5L15 5L15 4ZM9 6L9 7L10 7L10 6ZM15 6L15 7L16 7L16 6ZM2 9L2 12L3 12L3 10L5 10L5 9ZM6 9L6 10L7 10L7 9ZM10 10L10 11L11 11L11 10ZM19 10L19 11L20 11L20 10ZM23 10L23 11L22 11L22 12L24 12L24 10ZM12 11L12 13L13 13L13 11ZM7 12L7 13L6 13L6 14L7 14L7 13L8 13L8 12ZM19 12L19 13L17 13L17 14L16 14L16 16L17 16L17 14L18 14L18 15L19 15L19 16L20 16L20 14L21 14L21 12ZM19 13L19 14L20 14L20 13ZM22 13L22 16L21 16L21 17L22 17L22 16L23 16L23 14L24 14L24 13ZM14 14L14 15L12 15L12 16L13 16L13 17L11 17L11 18L10 18L10 20L11 20L11 19L12 19L12 20L14 20L14 19L16 19L16 18L15 18L15 17L14 17L14 16L15 16L15 14ZM4 15L4 16L5 16L5 15ZM6 15L6 16L7 16L7 15ZM17 17L17 20L20 20L20 17ZM18 18L18 19L19 19L19 18ZM22 18L22 20L21 20L21 21L22 21L22 20L23 20L23 18ZM10 23L10 24L11 24L11 23ZM0 0L0 7L7 7L7 0ZM1 1L1 6L6 6L6 1ZM2 2L2 5L5 5L5 2ZM18 0L18 7L25 7L25 0ZM19 1L19 6L24 6L24 1ZM20 2L20 5L23 5L23 2ZM0 18L0 25L7 25L7 18ZM1 19L1 24L6 24L6 19ZM2 20L2 23L5 23L5 20Z" fill="#000000"/></g></g></svg>
