<?xml version="1.0" encoding="UTF-8"?>
<svg xmlns="http://www.w3.org/2000/svg" version="1.1" width="300" height="300" viewBox="0 0 300 300"><rect x="0" y="0" width="300" height="300" fill="#ffffff"/><g transform="scale(12)"><g transform="translate(0,0)"><path fill-rule="evenodd" d="M8 0L8 1L11 1L11 3L10 3L10 2L9 2L9 3L10 3L10 5L9 5L9 6L8 6L8 8L9 8L9 9L8 9L8 10L9 10L9 11L8 11L8 13L10 13L10 14L11 14L11 12L9 12L9 11L10 11L10 10L11 10L11 9L10 9L10 7L11 7L11 6L12 6L12 9L13 9L13 8L14 8L14 10L12 10L12 11L14 11L14 12L16 12L16 13L14 13L14 14L13 14L13 12L12 12L12 14L13 14L13 15L10 15L10 17L11 17L11 16L12 16L12 17L14 17L14 16L15 16L15 17L16 17L16 19L15 19L15 18L13 18L13 19L12 19L12 18L9 18L9 14L8 14L8 15L7 15L7 14L6 14L6 15L5 15L5 13L7 13L7 12L3 12L3 13L4 13L4 14L1 14L1 12L2 12L2 10L3 10L3 11L4 11L4 9L5 9L5 11L7 11L7 10L6 10L6 9L7 9L7 8L6 8L6 9L5 9L5 8L3 8L3 9L2 9L2 8L0 8L0 9L1 9L1 12L0 12L0 17L1 17L1 15L2 15L2 16L3 16L3 17L5 17L5 16L6 16L6 17L8 17L8 18L9 18L9 20L8 20L8 22L10 22L10 23L8 23L8 25L9 25L9 24L10 24L10 23L11 23L11 25L13 25L13 24L12 24L12 23L14 23L14 22L15 22L15 23L16 23L16 22L17 22L17 21L18 21L18 22L19 22L19 23L20 23L20 24L19 24L19 25L20 25L20 24L21 24L21 25L23 25L23 24L24 24L24 25L25 25L25 21L22 21L22 24L21 24L21 19L23 19L23 18L24 18L24 19L25 19L25 17L24 17L24 16L25 16L25 10L24 10L24 9L25 9L25 8L24 8L24 9L23 9L23 10L21 10L21 9L19 9L19 8L18 8L18 9L19 9L19 11L18 11L18 13L20 13L20 14L17 14L17 12L16 12L16 11L17 11L17 10L16 10L16 8L15 8L15 6L14 6L14 7L13 7L13 6L12 6L12 5L13 5L13 4L14 4L14 5L15 5L15 3L16 3L16 7L17 7L17 1L16 1L16 2L15 2L15 3L14 3L14 1L15 1L15 0L14 0L14 1L12 1L12 0ZM12 2L12 4L13 4L13 2ZM10 5L10 6L9 6L9 7L10 7L10 6L11 6L11 5ZM9 9L9 10L10 10L10 9ZM19 11L19 12L20 12L20 13L21 13L21 14L24 14L24 12L22 12L22 11ZM21 12L21 13L22 13L22 12ZM14 14L14 15L13 15L13 16L14 16L14 15L15 15L15 14ZM16 14L16 16L17 16L17 14ZM6 15L6 16L7 16L7 15ZM20 15L20 16L21 16L21 18L23 18L23 17L22 17L22 15ZM17 17L17 20L20 20L20 17ZM18 18L18 19L19 19L19 18ZM11 19L11 20L9 20L9 21L10 21L10 22L11 22L11 21L12 21L12 22L13 22L13 21L14 21L14 20L15 20L15 19L14 19L14 20L13 20L13 21L12 21L12 19ZM15 21L15 22L16 22L16 21ZM19 21L19 22L20 22L20 21ZM17 23L17 24L15 24L15 25L18 25L18 23ZM0 0L0 7L7 7L7 0ZM1 1L1 6L6 6L6 1ZM2 2L2 5L5 5L5 2ZM18 0L18 7L25 7L25 0ZM19 1L19 6L24 6L24 1ZM20 2L20 5L23 5L23 2ZM0 18L0 25L7 25L7 18ZM1 19L1 24L6 24L6 19ZM2 20L2 23L5 23L5 20Z" fill="#000000"/></g></g></svg>
