<?xml version="1.0" encoding="UTF-8"?>
<svg xmlns="http://www.w3.org/2000/svg" version="1.1" width="300" height="300" viewBox="0 0 300 300"><rect x="0" y="0" width="300" height="300" fill="#ffffff"/><g transform="scale(12)"><g transform="translate(0,0)"><path fill-rule="evenodd" d="M8 0L8 4L10 4L10 3L11 3L11 4L12 4L12 2L11 2L11 0ZM12 0L12 1L13 1L13 2L14 2L14 3L13 3L13 5L11 5L11 6L10 6L10 7L9 7L9 5L8 5L8 7L9 7L9 8L10 8L10 7L11 7L11 6L12 6L12 8L11 8L11 9L9 9L9 10L11 10L11 11L10 11L10 13L9 13L9 11L7 11L7 10L8 10L8 9L7 9L7 8L4 8L4 9L3 9L3 10L2 10L2 8L0 8L0 12L1 12L1 13L0 13L0 14L2 14L2 15L3 15L3 17L4 17L4 16L6 16L6 17L7 17L7 16L8 16L8 18L9 18L9 19L8 19L8 21L9 21L9 23L8 23L8 25L11 25L11 23L12 23L12 21L13 21L13 18L16 18L16 21L18 21L18 23L17 23L17 22L15 22L15 21L14 21L14 22L13 22L13 23L15 23L15 24L16 24L16 23L17 23L17 24L19 24L19 25L20 25L20 24L23 24L23 25L25 25L25 24L24 24L24 22L25 22L25 21L23 21L23 14L21 14L21 13L20 13L20 12L16 12L16 10L17 10L17 6L16 6L16 9L15 9L15 8L14 8L14 9L13 9L13 6L14 6L14 7L15 7L15 6L14 6L14 4L15 4L15 5L17 5L17 2L16 2L16 4L15 4L15 1L17 1L17 0L14 0L14 1L13 1L13 0ZM9 2L9 3L10 3L10 2ZM19 8L19 9L20 9L20 10L18 10L18 11L20 11L20 10L21 10L21 12L22 12L22 13L24 13L24 14L25 14L25 12L24 12L24 9L25 9L25 8L21 8L21 9L20 9L20 8ZM5 9L5 10L3 10L3 13L2 13L2 14L3 14L3 15L5 15L5 13L6 13L6 14L7 14L7 15L6 15L6 16L7 16L7 15L8 15L8 16L10 16L10 17L9 17L9 18L11 18L11 17L12 17L12 18L13 18L13 17L16 17L16 15L17 15L17 16L19 16L19 15L20 15L20 13L17 13L17 14L16 14L16 15L15 15L15 14L14 14L14 15L13 15L13 17L12 17L12 16L11 16L11 13L12 13L12 14L13 14L13 13L16 13L16 12L15 12L15 10L13 10L13 13L12 13L12 12L11 12L11 13L10 13L10 15L9 15L9 14L7 14L7 13L8 13L8 12L7 12L7 11L6 11L6 10L7 10L7 9ZM11 9L11 10L12 10L12 9ZM21 9L21 10L22 10L22 11L23 11L23 10L22 10L22 9ZM1 10L1 12L2 12L2 10ZM4 11L4 13L3 13L3 14L4 14L4 13L5 13L5 12L6 12L6 13L7 13L7 12L6 12L6 11ZM0 16L0 17L2 17L2 16ZM17 17L17 20L20 20L20 17ZM21 17L21 18L22 18L22 17ZM24 17L24 18L25 18L25 17ZM18 18L18 19L19 19L19 18ZM9 19L9 20L10 20L10 22L11 22L11 21L12 21L12 19ZM14 19L14 20L15 20L15 19ZM24 19L24 20L25 20L25 19ZM21 21L21 22L20 22L20 23L19 23L19 24L20 24L20 23L21 23L21 22L22 22L22 23L23 23L23 21ZM0 0L0 7L7 7L7 0ZM1 1L1 6L6 6L6 1ZM2 2L2 5L5 5L5 2ZM18 0L18 7L25 7L25 0ZM19 1L19 6L24 6L24 1ZM20 2L20 5L23 5L23 2ZM0 18L0 25L7 25L7 18ZM1 19L1 24L6 24L6 19ZM2 20L2 23L5 23L5 20Z" fill="#000000"/></g></g></svg>
