<?xml version="1.0" encoding="UTF-8"?>
<svg xmlns="http://www.w3.org/2000/svg" version="1.1" width="300" height="300" viewBox="0 0 300 300"><rect x="0" y="0" width="300" height="300" fill="#ffffff"/><g transform="scale(12)"><g transform="translate(0,0)"><path fill-rule="evenodd" d="M9 0L9 1L8 1L8 2L9 2L9 3L8 3L8 4L10 4L10 7L11 7L11 4L12 4L12 5L13 5L13 6L12 6L12 9L14 9L14 8L13 8L13 6L14 6L14 7L15 7L15 8L16 8L16 7L17 7L17 3L15 3L15 2L16 2L16 1L17 1L17 0L16 0L16 1L15 1L15 2L14 2L14 3L13 3L13 4L12 4L12 2L13 2L13 1L11 1L11 2L10 2L10 0ZM10 3L10 4L11 4L11 3ZM14 4L14 5L16 5L16 4ZM8 5L8 7L9 7L9 5ZM15 6L15 7L16 7L16 6ZM0 8L0 12L1 12L1 11L3 11L3 12L2 12L2 13L0 13L0 17L1 17L1 14L2 14L2 16L3 16L3 15L5 15L5 17L7 17L7 16L6 16L6 15L8 15L8 16L9 16L9 17L8 17L8 19L9 19L9 18L10 18L10 17L11 17L11 16L9 16L9 14L10 14L10 15L11 15L11 13L12 13L12 14L13 14L13 13L14 13L14 16L13 16L13 15L12 15L12 17L15 17L15 18L11 18L11 19L10 19L10 20L8 20L8 25L9 25L9 24L11 24L11 21L12 21L12 22L14 22L14 23L16 23L16 24L12 24L12 25L16 25L16 24L17 24L17 25L19 25L19 24L20 24L20 23L17 23L17 22L19 22L19 21L21 21L21 22L24 22L24 24L22 24L22 23L21 23L21 24L22 24L22 25L25 25L25 21L23 21L23 20L22 20L22 18L23 18L23 19L24 19L24 20L25 20L25 17L24 17L24 18L23 18L23 16L25 16L25 10L24 10L24 8L23 8L23 9L22 9L22 8L21 8L21 10L20 10L20 8L19 8L19 10L18 10L18 11L17 11L17 9L18 9L18 8L17 8L17 9L16 9L16 10L15 10L15 11L17 11L17 13L16 13L16 14L15 14L15 12L13 12L13 13L12 13L12 11L13 11L13 10L11 10L11 11L10 11L10 9L11 9L11 8L6 8L6 9L5 9L5 8ZM3 9L3 10L4 10L4 12L7 12L7 11L5 11L5 10L4 10L4 9ZM6 9L6 10L8 10L8 13L6 13L6 14L5 14L5 13L4 13L4 14L5 14L5 15L6 15L6 14L8 14L8 13L9 13L9 9ZM19 10L19 11L20 11L20 10ZM23 10L23 11L22 11L22 12L24 12L24 10ZM10 12L10 13L11 13L11 12ZM19 12L19 13L17 13L17 14L16 14L16 16L17 16L17 14L18 14L18 15L19 15L19 16L20 16L20 14L21 14L21 12ZM2 13L2 14L3 14L3 13ZM19 13L19 14L20 14L20 13ZM22 13L22 16L21 16L21 17L22 17L22 16L23 16L23 14L24 14L24 13ZM17 17L17 20L20 20L20 17ZM15 18L15 19L16 19L16 18ZM18 18L18 19L19 19L19 18ZM12 19L12 20L14 20L14 19ZM10 20L10 21L11 21L11 20ZM21 20L21 21L22 21L22 20ZM14 21L14 22L15 22L15 21ZM9 22L9 23L10 23L10 22ZM0 0L0 7L7 7L7 0ZM1 1L1 6L6 6L6 1ZM2 2L2 5L5 5L5 2ZM18 0L18 7L25 7L25 0ZM19 1L19 6L24 6L24 1ZM20 2L20 5L23 5L23 2ZM0 18L0 25L7 25L7 18ZM1 19L1 24L6 24L6 19ZM2 20L2 23L5 23L5 20Z" fill="#000000"/></g></g></svg>
