<?xml version="1.0" encoding="UTF-8"?>
<svg xmlns="http://www.w3.org/2000/svg" version="1.1" width="300" height="300" viewBox="0 0 300 300"><rect x="0" y="0" width="300" height="300" fill="#ffffff"/><g transform="scale(12)"><g transform="translate(0,0)"><path fill-rule="evenodd" d="M9 0L9 1L8 1L8 2L9 2L9 3L8 3L8 4L10 4L10 7L11 7L11 4L12 4L12 5L13 5L13 6L12 6L12 7L13 7L13 6L14 6L14 7L15 7L15 6L16 6L16 8L14 8L14 9L13 9L13 8L12 8L12 9L13 9L13 10L12 10L12 11L13 11L13 10L14 10L14 9L15 9L15 11L14 11L14 13L13 13L13 12L12 12L12 13L13 13L13 14L12 14L12 15L11 15L11 16L10 16L10 17L8 17L8 15L7 15L7 14L6 14L6 13L7 13L7 12L4 12L4 10L2 10L2 11L0 11L0 17L1 17L1 13L2 13L2 16L5 16L5 17L8 17L8 19L9 19L9 18L11 18L11 17L14 17L14 16L12 16L12 15L13 15L13 14L14 14L14 15L15 15L15 18L16 18L16 19L15 19L15 20L14 20L14 22L12 22L12 24L11 24L11 25L13 25L13 23L14 23L14 25L16 25L16 24L17 24L17 25L19 25L19 24L20 24L20 25L21 25L21 24L22 24L22 25L25 25L25 21L24 21L24 20L25 20L25 17L24 17L24 18L23 18L23 16L25 16L25 10L24 10L24 8L23 8L23 9L22 9L22 8L21 8L21 10L20 10L20 8L19 8L19 10L18 10L18 11L17 11L17 9L18 9L18 8L17 8L17 4L16 4L16 2L17 2L17 0L14 0L14 1L15 1L15 3L14 3L14 4L13 4L13 3L12 3L12 2L13 2L13 1L11 1L11 2L10 2L10 0ZM10 3L10 4L11 4L11 3ZM14 4L14 5L15 5L15 4ZM8 5L8 7L9 7L9 5ZM0 8L0 9L5 9L5 11L7 11L7 10L9 10L9 13L8 13L8 14L11 14L11 13L10 13L10 12L11 12L11 11L10 11L10 9L11 9L11 8L6 8L6 9L5 9L5 8ZM6 9L6 10L7 10L7 9ZM19 10L19 11L20 11L20 10ZM23 10L23 11L22 11L22 12L24 12L24 10ZM15 11L15 12L17 12L17 11ZM2 12L2 13L3 13L3 12ZM19 12L19 13L17 13L17 14L16 14L16 16L17 16L17 14L18 14L18 15L19 15L19 16L20 16L20 14L21 14L21 12ZM4 13L4 14L3 14L3 15L6 15L6 16L7 16L7 15L6 15L6 14L5 14L5 13ZM14 13L14 14L15 14L15 13ZM19 13L19 14L20 14L20 13ZM22 13L22 16L21 16L21 17L22 17L22 16L23 16L23 14L24 14L24 13ZM17 17L17 20L20 20L20 17ZM18 18L18 19L19 19L19 18ZM22 18L22 20L21 20L21 21L19 21L19 22L17 22L17 23L20 23L20 24L21 24L21 22L23 22L23 23L22 23L22 24L24 24L24 22L23 22L23 21L22 21L22 20L24 20L24 19L23 19L23 18ZM10 19L10 20L11 20L11 21L13 21L13 19L12 19L12 20L11 20L11 19ZM8 20L8 25L10 25L10 24L9 24L9 23L10 23L10 22L9 22L9 20ZM14 22L14 23L15 23L15 24L16 24L16 23L15 23L15 22ZM0 0L0 7L7 7L7 0ZM1 1L1 6L6 6L6 1ZM2 2L2 5L5 5L5 2ZM18 0L18 7L25 7L25 0ZM19 1L19 6L24 6L24 1ZM20 2L20 5L23 5L23 2ZM0 18L0 25L7 25L7 18ZM1 19L1 24L6 24L6 19ZM2 20L2 23L5 23L5 20Z" fill="#000000"/></g></g></svg>
