<?xml version="1.0" encoding="UTF-8"?>
<svg xmlns="http://www.w3.org/2000/svg" version="1.1" width="300" height="300" viewBox="0 0 300 300"><rect x="0" y="0" width="300" height="300" fill="#ffffff"/><g transform="scale(12)"><g transform="translate(0,0)"><path fill-rule="evenodd" d="M10 0L10 1L9 1L9 2L11 2L11 3L13 3L13 4L14 4L14 3L13 3L13 2L11 2L11 1L14 1L14 2L15 2L15 3L16 3L16 5L17 5L17 1L16 1L16 2L15 2L15 1L14 1L14 0ZM8 3L8 5L10 5L10 4L9 4L9 3ZM11 4L11 5L12 5L12 4ZM8 6L8 7L9 7L9 6ZM10 6L10 8L9 8L9 10L6 10L6 9L8 9L8 8L5 8L5 9L4 9L4 10L2 10L2 8L0 8L0 9L1 9L1 10L0 10L0 11L1 11L1 12L0 12L0 17L1 17L1 14L2 14L2 13L4 13L4 14L3 14L3 15L2 15L2 16L3 16L3 17L7 17L7 16L8 16L8 20L9 20L9 21L10 21L10 23L11 23L11 22L12 22L12 24L11 24L11 25L12 25L12 24L13 24L13 22L12 22L12 21L14 21L14 22L15 22L15 23L14 23L14 24L15 24L15 25L17 25L17 24L18 24L18 25L19 25L19 23L17 23L17 22L19 22L19 21L20 21L20 22L21 22L21 19L23 19L23 20L22 20L22 21L23 21L23 22L24 22L24 25L25 25L25 21L24 21L24 20L25 20L25 17L24 17L24 19L23 19L23 16L25 16L25 10L24 10L24 9L23 9L23 10L21 10L21 9L22 9L22 8L20 8L20 9L19 9L19 10L18 10L18 11L17 11L17 10L16 10L16 9L15 9L15 6L14 6L14 8L13 8L13 6L12 6L12 8L11 8L11 6ZM16 6L16 7L17 7L17 6ZM10 8L10 10L9 10L9 11L8 11L8 13L9 13L9 20L11 20L11 21L12 21L12 19L13 19L13 20L14 20L14 18L15 18L15 20L16 20L16 17L14 17L14 18L13 18L13 17L12 17L12 16L14 16L14 15L15 15L15 16L16 16L16 15L17 15L17 14L18 14L18 15L19 15L19 16L21 16L21 18L22 18L22 15L23 15L23 14L24 14L24 10L23 10L23 11L21 11L21 12L22 12L22 13L20 13L20 14L19 14L19 13L18 13L18 12L17 12L17 11L16 11L16 12L17 12L17 14L16 14L16 15L15 15L15 13L14 13L14 12L15 12L15 11L12 11L12 10L13 10L13 9L12 9L12 10L11 10L11 8ZM4 10L4 11L3 11L3 12L4 12L4 11L6 11L6 12L7 12L7 11L6 11L6 10ZM10 10L10 11L9 11L9 13L10 13L10 11L11 11L11 12L12 12L12 13L11 13L11 14L10 14L10 17L11 17L11 18L10 18L10 19L12 19L12 17L11 17L11 14L12 14L12 15L13 15L13 14L12 14L12 13L13 13L13 12L12 12L12 11L11 11L11 10ZM19 10L19 11L20 11L20 10ZM6 13L6 14L7 14L7 13ZM4 14L4 15L3 15L3 16L5 16L5 14ZM20 14L20 15L22 15L22 14ZM6 15L6 16L7 16L7 15ZM17 17L17 20L20 20L20 17ZM18 18L18 19L19 19L19 18ZM15 21L15 22L17 22L17 21ZM8 23L8 25L9 25L9 23ZM20 23L20 25L21 25L21 23ZM0 0L0 7L7 7L7 0ZM1 1L1 6L6 6L6 1ZM2 2L2 5L5 5L5 2ZM18 0L18 7L25 7L25 0ZM19 1L19 6L24 6L24 1ZM20 2L20 5L23 5L23 2ZM0 18L0 25L7 25L7 18ZM1 19L1 24L6 24L6 19ZM2 20L2 23L5 23L5 20Z" fill="#000000"/></g></g></svg>
