<?xml version="1.0" encoding="UTF-8"?>
<svg xmlns="http://www.w3.org/2000/svg" version="1.1" width="300" height="300" viewBox="0 0 300 300"><rect x="0" y="0" width="300" height="300" fill="#ffffff"/><g transform="scale(12)"><g transform="translate(0,0)"><path fill-rule="evenodd" d="M8 0L8 4L9 4L9 5L8 5L8 7L9 7L9 6L10 6L10 9L11 9L11 8L12 8L12 9L14 9L14 10L15 10L15 12L14 12L14 13L13 13L13 12L12 12L12 10L9 10L9 12L10 12L10 11L11 11L11 13L10 13L10 14L9 14L9 13L7 13L7 12L5 12L5 11L7 11L7 10L8 10L8 9L7 9L7 8L4 8L4 9L3 9L3 10L2 10L2 8L0 8L0 9L1 9L1 10L0 10L0 12L2 12L2 13L3 13L3 14L2 14L2 15L3 15L3 16L5 16L5 14L4 14L4 13L7 13L7 14L6 14L6 15L7 15L7 14L9 14L9 15L10 15L10 17L9 17L9 16L6 16L6 17L8 17L8 18L9 18L9 19L8 19L8 21L9 21L9 20L13 20L13 22L11 22L11 21L10 21L10 22L9 22L9 23L8 23L8 25L14 25L14 24L13 24L13 22L14 22L14 23L16 23L16 22L17 22L17 23L19 23L19 24L17 24L17 25L25 25L25 24L24 24L24 22L25 22L25 21L24 21L24 19L23 19L23 14L21 14L21 12L22 12L22 13L24 13L24 14L25 14L25 12L24 12L24 9L25 9L25 8L21 8L21 9L20 9L20 8L19 8L19 9L20 9L20 11L19 11L19 12L17 12L17 13L16 13L16 10L17 10L17 11L18 11L18 10L17 10L17 9L16 9L16 10L15 10L15 9L14 9L14 8L17 8L17 3L16 3L16 7L15 7L15 5L14 5L14 4L15 4L15 0L14 0L14 1L11 1L11 2L12 2L12 3L13 3L13 2L14 2L14 4L12 4L12 5L14 5L14 8L13 8L13 6L12 6L12 7L11 7L11 3L10 3L10 2L9 2L9 0ZM16 0L16 1L17 1L17 0ZM4 9L4 11L2 11L2 12L3 12L3 13L4 13L4 11L5 11L5 10L7 10L7 9ZM21 9L21 10L22 10L22 11L23 11L23 10L22 10L22 9ZM0 13L0 14L1 14L1 13ZM11 13L11 14L10 14L10 15L11 15L11 14L12 14L12 15L13 15L13 16L11 16L11 17L10 17L10 19L11 19L11 18L13 18L13 20L14 20L14 21L15 21L15 22L16 22L16 20L14 20L14 19L16 19L16 16L15 16L15 14L16 14L16 13L15 13L15 14L13 14L13 13ZM17 13L17 16L20 16L20 13ZM18 14L18 15L19 15L19 14ZM0 16L0 17L2 17L2 16ZM13 16L13 18L15 18L15 17L14 17L14 16ZM17 17L17 20L20 20L20 17ZM21 17L21 18L22 18L22 17ZM24 17L24 18L25 18L25 17ZM18 18L18 19L19 19L19 18ZM22 21L22 22L19 22L19 23L20 23L20 24L21 24L21 23L22 23L22 22L23 22L23 21ZM10 22L10 24L11 24L11 22ZM0 0L0 7L7 7L7 0ZM1 1L1 6L6 6L6 1ZM2 2L2 5L5 5L5 2ZM18 0L18 7L25 7L25 0ZM19 1L19 6L24 6L24 1ZM20 2L20 5L23 5L23 2ZM0 18L0 25L7 25L7 18ZM1 19L1 24L6 24L6 19ZM2 20L2 23L5 23L5 20Z" fill="#000000"/></g></g></svg>
