<?xml version="1.0" encoding="UTF-8"?>
<svg xmlns="http://www.w3.org/2000/svg" version="1.1" width="300" height="300" viewBox="0 0 300 300"><rect x="0" y="0" width="300" height="300" fill="#ffffff"/><g transform="scale(12)"><g transform="translate(0,0)"><path fill-rule="evenodd" d="M8 0L8 2L10 2L10 4L8 4L8 10L6 10L6 9L7 9L7 8L5 8L5 9L4 9L4 10L3 10L3 12L2 12L2 13L4 13L4 14L3 14L3 15L2 15L2 14L0 14L0 15L2 15L2 16L0 16L0 17L5 17L5 16L6 16L6 17L7 17L7 16L8 16L8 18L9 18L9 17L10 17L10 18L11 18L11 21L12 21L12 22L11 22L11 23L12 23L12 22L13 22L13 23L15 23L15 25L17 25L17 24L18 24L18 25L21 25L21 24L18 24L18 21L21 21L21 19L23 19L23 20L24 20L24 19L25 19L25 18L24 18L24 19L23 19L23 17L24 17L24 15L25 15L25 14L24 14L24 15L23 15L23 14L21 14L21 15L20 15L20 13L22 13L22 12L21 12L21 11L22 11L22 10L23 10L23 11L25 11L25 8L23 8L23 9L22 9L22 10L21 10L21 11L20 11L20 9L21 9L21 8L17 8L17 9L16 9L16 7L17 7L17 6L16 6L16 7L15 7L15 6L14 6L14 8L13 8L13 6L12 6L12 7L11 7L11 6L10 6L10 8L9 8L9 5L12 5L12 4L11 4L11 3L12 3L12 2L13 2L13 3L14 3L14 5L16 5L16 4L15 4L15 3L17 3L17 1L16 1L16 0L15 0L15 1L14 1L14 0L10 0L10 1L9 1L9 0ZM11 1L11 2L12 2L12 1ZM15 1L15 2L16 2L16 1ZM0 8L0 9L3 9L3 8ZM11 8L11 10L8 10L8 11L6 11L6 10L5 10L5 11L4 11L4 12L5 12L5 11L6 11L6 12L8 12L8 13L6 13L6 14L4 14L4 15L6 15L6 16L7 16L7 15L8 15L8 16L9 16L9 15L10 15L10 16L11 16L11 18L12 18L12 20L14 20L14 22L16 22L16 23L17 23L17 22L16 22L16 21L15 21L15 20L16 20L16 17L15 17L15 16L17 16L17 15L18 15L18 16L20 16L20 15L19 15L19 14L18 14L18 12L19 12L19 11L18 11L18 12L17 12L17 11L15 11L15 10L16 10L16 9L15 9L15 8L14 8L14 10L12 10L12 8ZM17 9L17 10L18 10L18 9ZM0 10L0 12L1 12L1 11L2 11L2 10ZM11 10L11 11L12 11L12 10ZM9 11L9 13L8 13L8 15L9 15L9 13L10 13L10 11ZM11 12L11 13L12 13L12 14L10 14L10 15L17 15L17 13L16 13L16 12L14 12L14 13L16 13L16 14L13 14L13 12ZM24 12L24 13L25 13L25 12ZM6 14L6 15L7 15L7 14ZM21 15L21 18L22 18L22 17L23 17L23 15ZM12 16L12 18L13 18L13 17L14 17L14 16ZM17 17L17 20L20 20L20 17ZM14 18L14 20L15 20L15 18ZM18 18L18 19L19 19L19 18ZM8 19L8 20L9 20L9 22L8 22L8 25L10 25L10 19ZM23 21L23 23L25 23L25 22L24 22L24 21ZM19 22L19 23L22 23L22 22ZM12 24L12 25L14 25L14 24ZM24 24L24 25L25 25L25 24ZM0 0L0 7L7 7L7 0ZM1 1L1 6L6 6L6 1ZM2 2L2 5L5 5L5 2ZM18 0L18 7L25 7L25 0ZM19 1L19 6L24 6L24 1ZM20 2L20 5L23 5L23 2ZM0 18L0 25L7 25L7 18ZM1 19L1 24L6 24L6 19ZM2 20L2 23L5 23L5 20Z" fill="#000000"/></g></g></svg>
