<?xml version="1.0" encoding="UTF-8"?>
<svg xmlns="http://www.w3.org/2000/svg" version="1.1" width="300" height="300" viewBox="0 0 300 300"><rect x="0" y="0" width="300" height="300" fill="#ffffff"/><g transform="scale(12)"><g transform="translate(0,0)"><path fill-rule="evenodd" d="M8 0L8 4L10 4L10 3L11 3L11 5L12 5L12 8L11 8L11 9L8 9L8 10L6 10L6 9L7 9L7 8L4 8L4 9L2 9L2 8L0 8L0 10L1 10L1 13L0 13L0 14L1 14L1 13L2 13L2 10L3 10L3 11L5 11L5 12L6 12L6 13L7 13L7 12L8 12L8 13L9 13L9 15L8 15L8 14L6 14L6 15L5 15L5 14L2 14L2 15L3 15L3 16L0 16L0 17L4 17L4 16L6 16L6 17L8 17L8 18L9 18L9 19L8 19L8 21L9 21L9 23L8 23L8 25L13 25L13 23L14 23L14 24L16 24L16 23L17 23L17 24L19 24L19 25L20 25L20 24L23 24L23 25L25 25L25 24L24 24L24 22L25 22L25 21L24 21L24 20L23 20L23 14L21 14L21 13L20 13L20 12L17 12L17 11L16 11L16 10L17 10L17 9L16 9L16 7L17 7L17 4L16 4L16 3L17 3L17 2L16 2L16 3L15 3L15 1L17 1L17 0L12 0L12 1L13 1L13 2L11 2L11 1L10 1L10 0ZM9 2L9 3L10 3L10 2ZM13 2L13 3L12 3L12 5L13 5L13 3L14 3L14 2ZM14 4L14 6L13 6L13 9L12 9L12 10L13 10L13 11L12 11L12 12L11 12L11 13L10 13L10 11L11 11L11 10L9 10L9 13L10 13L10 15L9 15L9 16L8 16L8 15L6 15L6 16L8 16L8 17L9 17L9 16L11 16L11 17L10 17L10 19L9 19L9 21L10 21L10 22L11 22L11 21L12 21L12 23L10 23L10 24L12 24L12 23L13 23L13 22L14 22L14 21L15 21L15 22L17 22L17 23L18 23L18 21L16 21L16 19L15 19L15 17L16 17L16 15L17 15L17 16L19 16L19 15L20 15L20 13L17 13L17 12L15 12L15 10L14 10L14 9L15 9L15 7L16 7L16 5L15 5L15 4ZM8 5L8 7L9 7L9 8L10 8L10 7L11 7L11 6L10 6L10 7L9 7L9 5ZM14 6L14 7L15 7L15 6ZM19 8L19 9L20 9L20 10L18 10L18 11L20 11L20 10L21 10L21 12L22 12L22 13L24 13L24 14L25 14L25 12L24 12L24 9L25 9L25 8L21 8L21 9L20 9L20 8ZM1 9L1 10L2 10L2 9ZM4 9L4 10L5 10L5 11L6 11L6 12L7 12L7 11L6 11L6 10L5 10L5 9ZM21 9L21 10L22 10L22 11L23 11L23 10L22 10L22 9ZM12 12L12 13L11 13L11 15L12 15L12 16L13 16L13 14L15 14L15 15L16 15L16 14L17 14L17 13L15 13L15 12L14 12L14 13L13 13L13 12ZM12 13L12 14L13 14L13 13ZM11 17L11 19L10 19L10 21L11 21L11 20L12 20L12 21L13 21L13 20L12 20L12 19L14 19L14 20L15 20L15 19L14 19L14 17L13 17L13 18L12 18L12 17ZM17 17L17 20L20 20L20 17ZM21 17L21 18L22 18L22 17ZM24 17L24 18L25 18L25 17ZM18 18L18 19L19 19L19 18ZM22 21L22 22L23 22L23 21ZM20 22L20 23L19 23L19 24L20 24L20 23L21 23L21 22ZM0 0L0 7L7 7L7 0ZM1 1L1 6L6 6L6 1ZM2 2L2 5L5 5L5 2ZM18 0L18 7L25 7L25 0ZM19 1L19 6L24 6L24 1ZM20 2L20 5L23 5L23 2ZM0 18L0 25L7 25L7 18ZM1 19L1 24L6 24L6 19ZM2 20L2 23L5 23L5 20Z" fill="#000000"/></g></g></svg>
