<?xml version="1.0" encoding="UTF-8"?>
<svg xmlns="http://www.w3.org/2000/svg" version="1.1" width="300" height="300" viewBox="0 0 300 300"><rect x="0" y="0" width="300" height="300" fill="#ffffff"/><g transform="scale(12)"><g transform="translate(0,0)"><path fill-rule="evenodd" d="M8 0L8 1L10 1L10 2L9 2L9 3L10 3L10 4L11 4L11 3L13 3L13 5L11 5L11 6L10 6L10 5L9 5L9 6L8 6L8 8L9 8L9 9L8 9L8 10L6 10L6 9L7 9L7 8L6 8L6 9L5 9L5 8L3 8L3 9L2 9L2 8L0 8L0 10L1 10L1 9L2 9L2 10L4 10L4 11L3 11L3 13L2 13L2 11L0 11L0 12L1 12L1 13L0 13L0 17L1 17L1 15L2 15L2 17L4 17L4 16L3 16L3 15L5 15L5 12L6 12L6 13L7 13L7 14L6 14L6 15L7 15L7 16L6 16L6 17L7 17L7 16L8 16L8 18L9 18L9 20L8 20L8 22L9 22L9 23L8 23L8 25L9 25L9 24L10 24L10 25L11 25L11 24L12 24L12 25L13 25L13 23L14 23L14 24L15 24L15 25L17 25L17 24L16 24L16 23L18 23L18 25L20 25L20 24L19 24L19 23L18 23L18 22L19 22L19 21L20 21L20 23L21 23L21 16L19 16L19 15L22 15L22 17L23 17L23 18L22 18L22 19L23 19L23 18L24 18L24 19L25 19L25 17L24 17L24 16L25 16L25 10L24 10L24 9L25 9L25 8L24 8L24 9L23 9L23 10L21 10L21 9L19 9L19 8L18 8L18 9L19 9L19 10L17 10L17 11L16 11L16 9L17 9L17 8L15 8L15 4L16 4L16 5L17 5L17 4L16 4L16 3L17 3L17 1L16 1L16 2L15 2L15 0L13 0L13 1L12 1L12 2L11 2L11 0ZM10 2L10 3L11 3L11 2ZM14 3L14 4L15 4L15 3ZM13 5L13 7L12 7L12 6L11 6L11 7L10 7L10 6L9 6L9 7L10 7L10 9L9 9L9 10L10 10L10 11L9 11L9 12L11 12L11 10L10 10L10 9L12 9L12 11L13 11L13 13L12 13L12 14L11 14L11 18L12 18L12 19L13 19L13 18L15 18L15 19L14 19L14 20L13 20L13 21L12 21L12 20L9 20L9 21L12 21L12 22L14 22L14 23L15 23L15 22L17 22L17 21L15 21L15 22L14 22L14 20L16 20L16 17L15 17L15 16L16 16L16 15L14 15L14 14L15 14L15 12L16 12L16 13L17 13L17 14L18 14L18 15L19 15L19 14L20 14L20 13L18 13L18 11L17 11L17 12L16 12L16 11L14 11L14 9L15 9L15 8L13 8L13 7L14 7L14 5ZM16 6L16 7L17 7L17 6ZM11 7L11 8L12 8L12 7ZM19 10L19 11L21 11L21 12L22 12L22 13L21 13L21 14L24 14L24 12L22 12L22 11L21 11L21 10ZM4 11L4 12L5 12L5 11ZM6 11L6 12L7 12L7 11ZM1 13L1 14L2 14L2 13ZM9 13L9 15L10 15L10 13ZM13 13L13 14L12 14L12 17L14 17L14 16L13 16L13 14L14 14L14 13ZM7 14L7 15L8 15L8 14ZM9 16L9 17L10 17L10 16ZM17 17L17 20L20 20L20 17ZM18 18L18 19L19 19L19 18ZM23 20L23 21L22 21L22 22L23 22L23 23L22 23L22 24L24 24L24 25L25 25L25 21L24 21L24 20ZM10 22L10 23L11 23L11 22ZM0 0L0 7L7 7L7 0ZM1 1L1 6L6 6L6 1ZM2 2L2 5L5 5L5 2ZM18 0L18 7L25 7L25 0ZM19 1L19 6L24 6L24 1ZM20 2L20 5L23 5L23 2ZM0 18L0 25L7 25L7 18ZM1 19L1 24L6 24L6 19ZM2 20L2 23L5 23L5 20Z" fill="#000000"/></g></g></svg>
