<?xml version="1.0" encoding="UTF-8"?>
<svg xmlns="http://www.w3.org/2000/svg" version="1.1" width="300" height="300" viewBox="0 0 300 300"><rect x="0" y="0" width="300" height="300" fill="#ffffff"/><g transform="scale(12)"><g transform="translate(0,0)"><path fill-rule="evenodd" d="M10 0L10 1L9 1L9 2L8 2L8 3L9 3L9 5L10 5L10 7L11 7L11 8L12 8L12 11L11 11L11 10L10 10L10 9L9 9L9 6L8 6L8 8L4 8L4 9L3 9L3 8L0 8L0 10L1 10L1 12L0 12L0 13L1 13L1 14L0 14L0 15L1 15L1 16L0 16L0 17L1 17L1 16L2 16L2 17L4 17L4 16L5 16L5 17L8 17L8 21L9 21L9 22L8 22L8 25L10 25L10 24L9 24L9 22L11 22L11 21L12 21L12 23L11 23L11 24L12 24L12 25L15 25L15 24L16 24L16 25L17 25L17 24L22 24L22 25L25 25L25 24L24 24L24 23L25 23L25 22L24 22L24 23L23 23L23 24L22 24L22 19L23 19L23 21L24 21L24 19L25 19L25 18L24 18L24 17L22 17L22 15L25 15L25 14L24 14L24 13L25 13L25 12L24 12L24 11L25 11L25 9L24 9L24 11L23 11L23 14L22 14L22 13L21 13L21 14L22 14L22 15L20 15L20 16L17 16L17 15L19 15L19 12L20 12L20 11L21 11L21 12L22 12L22 11L21 11L21 10L23 10L23 8L22 8L22 9L21 9L21 10L19 10L19 8L15 8L15 6L16 6L16 7L17 7L17 6L16 6L16 3L17 3L17 1L16 1L16 0L15 0L15 2L16 2L16 3L14 3L14 4L15 4L15 6L14 6L14 7L13 7L13 4L12 4L12 5L10 5L10 3L9 3L9 2L10 2L10 1L11 1L11 0ZM11 2L11 3L12 3L12 2ZM11 6L11 7L12 7L12 6ZM14 8L14 9L13 9L13 11L12 11L12 12L11 12L11 14L10 14L10 15L9 15L9 14L7 14L7 13L8 13L8 11L10 11L10 10L8 10L8 11L4 11L4 10L3 10L3 9L1 9L1 10L2 10L2 12L3 12L3 13L2 13L2 14L1 14L1 15L2 15L2 14L3 14L3 15L5 15L5 16L7 16L7 15L9 15L9 16L8 16L8 17L9 17L9 21L10 21L10 19L11 19L11 20L12 20L12 21L13 21L13 19L15 19L15 20L14 20L14 22L13 22L13 23L12 23L12 24L13 24L13 23L16 23L16 22L17 22L17 21L16 21L16 19L15 19L15 18L16 18L16 16L15 16L15 15L16 15L16 12L15 12L15 11L17 11L17 12L19 12L19 10L18 10L18 11L17 11L17 10L16 10L16 9L15 9L15 8ZM5 9L5 10L7 10L7 9ZM14 10L14 11L13 11L13 13L12 13L12 14L13 14L13 15L12 15L12 16L11 16L11 15L10 15L10 16L11 16L11 17L12 17L12 19L13 19L13 18L14 18L14 15L15 15L15 13L14 13L14 11L15 11L15 10ZM4 12L4 13L3 13L3 14L4 14L4 13L5 13L5 14L6 14L6 15L7 15L7 14L6 14L6 13L7 13L7 12L6 12L6 13L5 13L5 12ZM9 12L9 13L10 13L10 12ZM17 17L17 20L20 20L20 17ZM18 18L18 19L19 19L19 18ZM15 21L15 22L16 22L16 21ZM18 21L18 23L19 23L19 21ZM20 21L20 22L21 22L21 21ZM0 0L0 7L7 7L7 0ZM1 1L1 6L6 6L6 1ZM2 2L2 5L5 5L5 2ZM18 0L18 7L25 7L25 0ZM19 1L19 6L24 6L24 1ZM20 2L20 5L23 5L23 2ZM0 18L0 25L7 25L7 18ZM1 19L1 24L6 24L6 19ZM2 20L2 23L5 23L5 20Z" fill="#000000"/></g></g></svg>
