<?xml version="1.0" encoding="UTF-8"?>
<svg xmlns="http://www.w3.org/2000/svg" version="1.1" width="300" height="300" viewBox="0 0 300 300"><rect x="0" y="0" width="300" height="300" fill="#ffffff"/><g transform="scale(12)"><g transform="translate(0,0)"><path fill-rule="evenodd" d="M8 0L8 4L9 4L9 5L8 5L8 7L9 7L9 6L10 6L10 9L11 9L11 8L12 8L12 9L13 9L13 10L15 10L15 12L17 12L17 13L15 13L15 14L14 14L14 13L13 13L13 11L12 11L12 12L11 12L11 13L10 13L10 15L9 15L9 14L8 14L8 13L7 13L7 12L10 12L10 11L11 11L11 10L9 10L9 9L8 9L8 10L6 10L6 11L7 11L7 12L4 12L4 15L3 15L3 13L2 13L2 12L3 12L3 11L5 11L5 10L3 10L3 9L2 9L2 8L0 8L0 10L2 10L2 11L1 11L1 12L0 12L0 14L1 14L1 13L2 13L2 15L3 15L3 16L0 16L0 17L3 17L3 16L4 16L4 17L5 17L5 16L6 16L6 17L8 17L8 18L9 18L9 19L8 19L8 21L9 21L9 22L10 22L10 25L11 25L11 24L12 24L12 25L13 25L13 24L12 24L12 23L14 23L14 22L15 22L15 24L16 24L16 23L17 23L17 24L19 24L19 25L20 25L20 24L23 24L23 25L25 25L25 24L24 24L24 22L25 22L25 21L23 21L23 20L25 20L25 19L23 19L23 14L21 14L21 13L20 13L20 12L17 12L17 11L16 11L16 10L17 10L17 9L16 9L16 8L17 8L17 6L16 6L16 7L15 7L15 5L17 5L17 4L16 4L16 2L17 2L17 0L14 0L14 1L11 1L11 2L12 2L12 5L13 5L13 6L12 6L12 7L11 7L11 3L10 3L10 2L9 2L9 0ZM14 1L14 2L13 2L13 3L14 3L14 4L15 4L15 2L16 2L16 1ZM13 6L13 7L12 7L12 8L13 8L13 9L14 9L14 8L15 8L15 7L14 7L14 6ZM4 8L4 9L7 9L7 8ZM19 8L19 9L20 9L20 10L18 10L18 11L20 11L20 10L21 10L21 12L22 12L22 13L24 13L24 14L25 14L25 12L24 12L24 9L25 9L25 8L21 8L21 9L20 9L20 8ZM21 9L21 10L22 10L22 11L23 11L23 10L22 10L22 9ZM6 13L6 14L5 14L5 15L6 15L6 16L7 16L7 15L6 15L6 14L7 14L7 13ZM11 13L11 14L12 14L12 13ZM17 13L17 16L19 16L19 15L20 15L20 13ZM13 14L13 17L12 17L12 16L11 16L11 15L10 15L10 18L11 18L11 17L12 17L12 19L13 19L13 21L12 21L12 22L14 22L14 21L15 21L15 22L17 22L17 23L18 23L18 21L16 21L16 19L15 19L15 20L14 20L14 18L13 18L13 17L16 17L16 15L14 15L14 14ZM8 15L8 17L9 17L9 15ZM17 17L17 20L20 20L20 17ZM21 17L21 19L22 19L22 17ZM24 17L24 18L25 18L25 17ZM18 18L18 19L19 19L19 18ZM9 19L9 20L11 20L11 19ZM21 21L21 22L20 22L20 23L19 23L19 24L20 24L20 23L21 23L21 22L22 22L22 23L23 23L23 21ZM8 23L8 25L9 25L9 23ZM0 0L0 7L7 7L7 0ZM1 1L1 6L6 6L6 1ZM2 2L2 5L5 5L5 2ZM18 0L18 7L25 7L25 0ZM19 1L19 6L24 6L24 1ZM20 2L20 5L23 5L23 2ZM0 18L0 25L7 25L7 18ZM1 19L1 24L6 24L6 19ZM2 20L2 23L5 23L5 20Z" fill="#000000"/></g></g></svg>
