<?xml version="1.0" encoding="UTF-8"?>
<svg xmlns="http://www.w3.org/2000/svg" version="1.1" width="300" height="300" viewBox="0 0 300 300"><rect x="0" y="0" width="300" height="300" fill="#ffffff"/><g transform="scale(12)"><g transform="translate(0,0)"><path fill-rule="evenodd" d="M8 0L8 1L9 1L9 2L10 2L10 3L11 3L11 4L14 4L14 3L15 3L15 2L14 2L14 1L15 1L15 0L10 0L10 1L9 1L9 0ZM11 1L11 3L12 3L12 2L13 2L13 1ZM16 1L16 2L17 2L17 1ZM16 3L16 5L17 5L17 3ZM9 4L9 5L10 5L10 8L9 8L9 6L8 6L8 8L9 8L9 10L6 10L6 9L7 9L7 8L6 8L6 9L5 9L5 8L3 8L3 10L2 10L2 8L0 8L0 9L1 9L1 10L2 10L2 12L1 12L1 11L0 11L0 12L1 12L1 13L0 13L0 17L1 17L1 15L2 15L2 14L5 14L5 15L3 15L3 16L2 16L2 17L3 17L3 16L4 16L4 17L5 17L5 16L6 16L6 17L8 17L8 18L9 18L9 19L11 19L11 21L10 21L10 20L8 20L8 22L9 22L9 23L8 23L8 25L11 25L11 24L12 24L12 25L13 25L13 24L12 24L12 23L13 23L13 22L12 22L12 21L13 21L13 20L14 20L14 21L17 21L17 22L15 22L15 23L14 23L14 24L15 24L15 25L17 25L17 24L16 24L16 23L18 23L18 25L21 25L21 24L19 24L19 23L18 23L18 22L19 22L19 21L20 21L20 23L21 23L21 22L22 22L22 24L24 24L24 25L25 25L25 21L24 21L24 20L25 20L25 17L24 17L24 16L25 16L25 10L24 10L24 9L25 9L25 8L24 8L24 9L23 9L23 10L21 10L21 9L19 9L19 8L18 8L18 9L19 9L19 10L16 10L16 9L17 9L17 6L16 6L16 7L15 7L15 6L14 6L14 5L10 5L10 4ZM11 6L11 7L12 7L12 8L13 8L13 9L12 9L12 10L13 10L13 12L12 12L12 11L11 11L11 12L10 12L10 14L8 14L8 16L9 16L9 17L10 17L10 18L12 18L12 19L14 19L14 20L16 20L16 17L15 17L15 16L16 16L16 15L15 15L15 14L14 14L14 15L13 15L13 13L14 13L14 12L15 12L15 13L17 13L17 14L18 14L18 15L19 15L19 16L21 16L21 21L23 21L23 19L24 19L24 18L23 18L23 17L22 17L22 15L19 15L19 14L20 14L20 13L18 13L18 11L17 11L17 12L16 12L16 11L14 11L14 10L13 10L13 9L14 9L14 8L15 8L15 9L16 9L16 8L15 8L15 7L14 7L14 6L13 6L13 7L12 7L12 6ZM13 7L13 8L14 8L14 7ZM4 9L4 10L3 10L3 12L4 12L4 13L5 13L5 14L7 14L7 13L6 13L6 12L7 12L7 11L6 11L6 10L5 10L5 9ZM10 9L10 10L9 10L9 11L8 11L8 13L9 13L9 11L10 11L10 10L11 10L11 9ZM4 10L4 11L5 11L5 10ZM19 10L19 11L21 11L21 12L22 12L22 13L21 13L21 14L24 14L24 12L22 12L22 11L21 11L21 10ZM11 12L11 14L10 14L10 15L11 15L11 14L12 14L12 12ZM6 15L6 16L7 16L7 15ZM12 15L12 16L11 16L11 17L13 17L13 18L14 18L14 19L15 19L15 18L14 18L14 16L15 16L15 15L14 15L14 16L13 16L13 15ZM17 17L17 20L20 20L20 17ZM18 18L18 19L19 19L19 18ZM22 18L22 19L23 19L23 18ZM9 21L9 22L10 22L10 21ZM9 23L9 24L11 24L11 23ZM0 0L0 7L7 7L7 0ZM1 1L1 6L6 6L6 1ZM2 2L2 5L5 5L5 2ZM18 0L18 7L25 7L25 0ZM19 1L19 6L24 6L24 1ZM20 2L20 5L23 5L23 2ZM0 18L0 25L7 25L7 18ZM1 19L1 24L6 24L6 19ZM2 20L2 23L5 23L5 20Z" fill="#000000"/></g></g></svg>
