<?xml version="1.0" encoding="UTF-8"?>
<svg xmlns="http://www.w3.org/2000/svg" version="1.1" width="300" height="300" viewBox="0 0 300 300"><rect x="0" y="0" width="300" height="300" fill="#ffffff"/><g transform="scale(12)"><g transform="translate(0,0)"><path fill-rule="evenodd" d="M12 0L12 1L13 1L13 0ZM14 0L14 2L16 2L16 1L17 1L17 0L16 0L16 1L15 1L15 0ZM8 1L8 2L9 2L9 1ZM10 1L10 2L11 2L11 1ZM8 3L8 4L9 4L9 5L8 5L8 7L9 7L9 8L6 8L6 9L5 9L5 8L0 8L0 9L3 9L3 10L2 10L2 11L4 11L4 9L5 9L5 10L6 10L6 11L7 11L7 12L6 12L6 13L8 13L8 14L6 14L6 15L7 15L7 16L5 16L5 14L4 14L4 13L5 13L5 12L3 12L3 15L2 15L2 17L3 17L3 16L4 16L4 17L7 17L7 16L8 16L8 15L10 15L10 16L9 16L9 17L8 17L8 19L9 19L9 20L8 20L8 25L16 25L16 24L17 24L17 25L19 25L19 24L22 24L22 25L25 25L25 21L24 21L24 20L25 20L25 17L24 17L24 18L23 18L23 16L25 16L25 10L24 10L24 8L23 8L23 9L22 9L22 8L21 8L21 10L20 10L20 8L19 8L19 10L18 10L18 11L17 11L17 9L18 9L18 8L17 8L17 9L16 9L16 7L17 7L17 3L12 3L12 4L11 4L11 3ZM10 4L10 6L9 6L9 7L10 7L10 6L11 6L11 7L12 7L12 8L10 8L10 9L9 9L9 10L8 10L8 9L6 9L6 10L7 10L7 11L9 11L9 12L8 12L8 13L9 13L9 14L10 14L10 15L11 15L11 16L10 16L10 17L11 17L11 16L12 16L12 14L13 14L13 16L15 16L15 14L16 14L16 16L17 16L17 14L18 14L18 15L19 15L19 16L20 16L20 14L21 14L21 12L19 12L19 13L17 13L17 11L15 11L15 10L16 10L16 9L14 9L14 11L13 11L13 8L14 8L14 6L15 6L15 7L16 7L16 6L15 6L15 5L16 5L16 4L14 4L14 5L13 5L13 4L12 4L12 5L11 5L11 4ZM12 5L12 7L13 7L13 5ZM10 9L10 11L11 11L11 10L12 10L12 9ZM19 10L19 11L20 11L20 10ZM23 10L23 11L22 11L22 12L24 12L24 10ZM12 11L12 13L11 13L11 12L9 12L9 13L11 13L11 14L12 14L12 13L14 13L14 12L15 12L15 11L14 11L14 12L13 12L13 11ZM1 12L1 13L0 13L0 17L1 17L1 14L2 14L2 12ZM16 13L16 14L17 14L17 13ZM19 13L19 14L20 14L20 13ZM22 13L22 16L21 16L21 17L22 17L22 16L23 16L23 14L24 14L24 13ZM12 17L12 18L9 18L9 19L11 19L11 21L12 21L12 22L9 22L9 24L10 24L10 23L12 23L12 24L16 24L16 23L15 23L15 21L14 21L14 22L13 22L13 20L14 20L14 19L16 19L16 18L15 18L15 17ZM17 17L17 20L20 20L20 17ZM12 18L12 19L14 19L14 18ZM18 18L18 19L19 19L19 18ZM21 18L21 19L22 19L22 20L21 20L21 21L19 21L19 22L17 22L17 23L21 23L21 22L22 22L22 24L24 24L24 22L23 22L23 21L22 21L22 20L23 20L23 18ZM0 0L0 7L7 7L7 0ZM1 1L1 6L6 6L6 1ZM2 2L2 5L5 5L5 2ZM18 0L18 7L25 7L25 0ZM19 1L19 6L24 6L24 1ZM20 2L20 5L23 5L23 2ZM0 18L0 25L7 25L7 18ZM1 19L1 24L6 24L6 19ZM2 20L2 23L5 23L5 20Z" fill="#000000"/></g></g></svg>
