<?xml version="1.0" encoding="UTF-8"?>
<svg xmlns="http://www.w3.org/2000/svg" version="1.1" width="300" height="300" viewBox="0 0 300 300"><rect x="0" y="0" width="300" height="300" fill="#ffffff"/><g transform="scale(12)"><g transform="translate(0,0)"><path fill-rule="evenodd" d="M8 0L8 1L9 1L9 2L10 2L10 3L11 3L11 1L13 1L13 2L12 2L12 4L11 4L11 5L10 5L10 4L9 4L9 5L10 5L10 8L9 8L9 6L8 6L8 8L9 8L9 9L7 9L7 8L6 8L6 9L7 9L7 10L5 10L5 11L7 11L7 12L6 12L6 13L7 13L7 12L8 12L8 13L10 13L10 12L11 12L11 13L13 13L13 14L12 14L12 15L11 15L11 14L6 14L6 15L11 15L11 16L10 16L10 17L9 17L9 16L8 16L8 18L11 18L11 19L9 19L9 20L8 20L8 22L9 22L9 21L10 21L10 23L8 23L8 25L14 25L14 24L11 24L11 23L12 23L12 22L11 22L11 21L10 21L10 20L11 20L11 19L12 19L12 16L13 16L13 14L14 14L14 12L12 12L12 10L13 10L13 8L15 8L15 9L14 9L14 11L15 11L15 13L16 13L16 14L15 14L15 15L14 15L14 16L15 16L15 17L16 17L16 20L14 20L14 19L15 19L15 18L13 18L13 20L12 20L12 21L13 21L13 23L15 23L15 25L17 25L17 24L16 24L16 23L18 23L18 25L19 25L19 23L18 23L18 22L19 22L19 21L20 21L20 23L21 23L21 16L19 16L19 15L22 15L22 17L23 17L23 18L22 18L22 19L23 19L23 20L24 20L24 19L25 19L25 17L24 17L24 16L25 16L25 10L24 10L24 9L25 9L25 8L24 8L24 9L23 9L23 10L21 10L21 9L19 9L19 8L18 8L18 9L19 9L19 10L15 10L15 9L16 9L16 8L17 8L17 6L16 6L16 8L15 8L15 5L17 5L17 3L15 3L15 1L16 1L16 0L14 0L14 1L13 1L13 0L11 0L11 1L9 1L9 0ZM13 3L13 4L12 4L12 5L11 5L11 7L12 7L12 8L13 8L13 7L14 7L14 5L13 5L13 4L15 4L15 3ZM12 5L12 7L13 7L13 5ZM0 8L0 9L2 9L2 10L3 10L3 12L2 12L2 13L3 13L3 15L2 15L2 14L1 14L1 11L0 11L0 17L1 17L1 15L2 15L2 17L7 17L7 16L3 16L3 15L5 15L5 14L4 14L4 13L5 13L5 12L4 12L4 9L5 9L5 8L3 8L3 9L2 9L2 8ZM10 9L10 10L9 10L9 11L10 11L10 10L12 10L12 9ZM7 10L7 11L8 11L8 10ZM19 10L19 11L21 11L21 12L22 12L22 13L21 13L21 14L24 14L24 12L22 12L22 11L21 11L21 10ZM17 11L17 12L16 12L16 13L17 13L17 14L18 14L18 15L19 15L19 14L20 14L20 13L18 13L18 11ZM3 12L3 13L4 13L4 12ZM15 15L15 16L16 16L16 15ZM17 17L17 20L20 20L20 17ZM18 18L18 19L19 19L19 18ZM23 18L23 19L24 19L24 18ZM15 21L15 22L17 22L17 21ZM23 21L23 23L22 23L22 24L24 24L24 25L25 25L25 21ZM20 24L20 25L21 25L21 24ZM0 0L0 7L7 7L7 0ZM1 1L1 6L6 6L6 1ZM2 2L2 5L5 5L5 2ZM18 0L18 7L25 7L25 0ZM19 1L19 6L24 6L24 1ZM20 2L20 5L23 5L23 2ZM0 18L0 25L7 25L7 18ZM1 19L1 24L6 24L6 19ZM2 20L2 23L5 23L5 20Z" fill="#000000"/></g></g></svg>
