<?xml version="1.0" encoding="UTF-8"?>
<svg xmlns="http://www.w3.org/2000/svg" version="1.1" width="300" height="300" viewBox="0 0 300 300"><rect x="0" y="0" width="300" height="300" fill="#ffffff"/><g transform="scale(12)"><g transform="translate(0,0)"><path fill-rule="evenodd" d="M9 0L9 1L11 1L11 2L9 2L9 3L8 3L8 5L9 5L9 6L8 6L8 7L9 7L9 9L10 9L10 10L8 10L8 8L5 8L5 9L2 9L2 8L0 8L0 10L6 10L6 11L7 11L7 12L5 12L5 15L3 15L3 12L4 12L4 11L3 11L3 12L0 12L0 17L1 17L1 14L2 14L2 16L5 16L5 15L7 15L7 14L8 14L8 13L10 13L10 14L9 14L9 15L11 15L11 12L12 12L12 11L13 11L13 10L11 10L11 8L10 8L10 7L11 7L11 4L12 4L12 5L14 5L14 3L13 3L13 4L12 4L12 2L13 2L13 1L14 1L14 2L15 2L15 0L13 0L13 1L12 1L12 0ZM16 2L16 3L15 3L15 4L16 4L16 7L17 7L17 2ZM9 3L9 5L10 5L10 3ZM9 6L9 7L10 7L10 6ZM12 6L12 9L15 9L15 12L13 12L13 13L12 13L12 14L13 14L13 15L12 15L12 17L13 17L13 16L14 16L14 17L16 17L16 20L15 20L15 18L12 18L12 19L11 19L11 20L10 20L10 19L9 19L9 16L8 16L8 20L9 20L9 22L10 22L10 23L8 23L8 25L14 25L14 23L15 23L15 25L17 25L17 24L18 24L18 25L21 25L21 23L23 23L23 22L24 22L24 25L25 25L25 17L24 17L24 20L22 20L22 21L21 21L21 16L19 16L19 15L18 15L18 14L17 14L17 13L16 13L16 11L17 11L17 12L18 12L18 13L19 13L19 14L20 14L20 15L22 15L22 19L23 19L23 16L25 16L25 10L24 10L24 9L23 9L23 10L21 10L21 9L22 9L22 8L20 8L20 9L19 9L19 10L18 10L18 11L17 11L17 10L16 10L16 8L15 8L15 6L14 6L14 8L13 8L13 6ZM6 9L6 10L7 10L7 11L8 11L8 12L10 12L10 11L11 11L11 10L10 10L10 11L8 11L8 10L7 10L7 9ZM19 10L19 11L20 11L20 10ZM23 10L23 11L21 11L21 12L22 12L22 13L20 13L20 14L22 14L22 15L23 15L23 14L24 14L24 10ZM6 13L6 14L7 14L7 13ZM14 13L14 14L16 14L16 15L15 15L15 16L16 16L16 15L17 15L17 14L16 14L16 13ZM6 16L6 17L7 17L7 16ZM10 16L10 17L11 17L11 16ZM17 17L17 20L20 20L20 17ZM18 18L18 19L19 19L19 18ZM12 19L12 21L10 21L10 22L11 22L11 23L10 23L10 24L12 24L12 23L13 23L13 22L12 22L12 21L14 21L14 22L17 22L17 23L19 23L19 24L20 24L20 23L21 23L21 22L20 22L20 21L19 21L19 22L17 22L17 21L15 21L15 20L14 20L14 19ZM0 0L0 7L7 7L7 0ZM1 1L1 6L6 6L6 1ZM2 2L2 5L5 5L5 2ZM18 0L18 7L25 7L25 0ZM19 1L19 6L24 6L24 1ZM20 2L20 5L23 5L23 2ZM0 18L0 25L7 25L7 18ZM1 19L1 24L6 24L6 19ZM2 20L2 23L5 23L5 20Z" fill="#000000"/></g></g></svg>
