<?xml version="1.0" encoding="UTF-8"?>
<svg xmlns="http://www.w3.org/2000/svg" version="1.1" width="300" height="300" viewBox="0 0 300 300"><rect x="0" y="0" width="300" height="300" fill="#ffffff"/><g transform="scale(12)"><g transform="translate(0,0)"><path fill-rule="evenodd" d="M10 0L10 1L9 1L9 2L8 2L8 3L9 3L9 5L10 5L10 7L11 7L11 8L12 8L12 9L11 9L11 10L10 10L10 9L9 9L9 6L8 6L8 8L4 8L4 10L3 10L3 8L0 8L0 9L1 9L1 10L0 10L0 11L1 11L1 12L0 12L0 13L1 13L1 12L2 12L2 11L4 11L4 12L3 12L3 13L4 13L4 14L3 14L3 15L1 15L1 14L0 14L0 15L1 15L1 16L0 16L0 17L1 17L1 16L2 16L2 17L8 17L8 21L9 21L9 22L8 22L8 25L11 25L11 24L12 24L12 25L14 25L14 23L11 23L11 22L12 22L12 21L14 21L14 20L15 20L15 19L16 19L16 21L15 21L15 22L16 22L16 23L15 23L15 24L16 24L16 25L17 25L17 24L22 24L22 25L25 25L25 24L24 24L24 23L25 23L25 22L24 22L24 23L23 23L23 21L22 21L22 19L23 19L23 20L24 20L24 19L25 19L25 18L24 18L24 17L22 17L22 15L25 15L25 14L24 14L24 13L25 13L25 12L24 12L24 11L25 11L25 9L24 9L24 11L23 11L23 14L22 14L22 13L21 13L21 14L22 14L22 15L20 15L20 16L17 16L17 15L19 15L19 12L20 12L20 11L21 11L21 12L22 12L22 11L21 11L21 10L23 10L23 8L22 8L22 9L21 9L21 10L19 10L19 8L17 8L17 5L16 5L16 3L17 3L17 1L16 1L16 0L13 0L13 1L14 1L14 3L15 3L15 4L14 4L14 5L13 5L13 3L12 3L12 2L11 2L11 3L12 3L12 5L10 5L10 3L9 3L9 2L10 2L10 1L11 1L11 0ZM15 2L15 3L16 3L16 2ZM14 5L14 6L13 6L13 7L12 7L12 6L11 6L11 7L12 7L12 8L13 8L13 7L14 7L14 9L13 9L13 10L15 10L15 11L16 11L16 12L14 12L14 14L13 14L13 12L12 12L12 11L11 11L11 12L12 12L12 14L10 14L10 12L8 12L8 11L6 11L6 12L4 12L4 13L5 13L5 14L4 14L4 15L5 15L5 16L8 16L8 17L10 17L10 18L11 18L11 17L12 17L12 16L13 16L13 15L14 15L14 14L15 14L15 16L14 16L14 17L13 17L13 19L15 19L15 17L16 17L16 15L17 15L17 14L16 14L16 12L19 12L19 10L18 10L18 11L17 11L17 10L16 10L16 6L15 6L15 5ZM14 6L14 7L15 7L15 6ZM6 9L6 10L7 10L7 9ZM8 9L8 10L9 10L9 11L10 11L10 10L9 10L9 9ZM1 10L1 11L2 11L2 10ZM4 10L4 11L5 11L5 10ZM6 12L6 13L7 13L7 14L6 14L6 15L7 15L7 14L8 14L8 13L7 13L7 12ZM8 15L8 16L9 16L9 15ZM11 15L11 16L12 16L12 15ZM17 17L17 20L20 20L20 17ZM18 18L18 19L19 19L19 18ZM9 19L9 20L10 20L10 19ZM11 19L11 20L12 20L12 19ZM16 21L16 22L17 22L17 21ZM18 21L18 23L19 23L19 21ZM20 21L20 22L21 22L21 21ZM9 22L9 23L10 23L10 22ZM22 23L22 24L23 24L23 23ZM0 0L0 7L7 7L7 0ZM1 1L1 6L6 6L6 1ZM2 2L2 5L5 5L5 2ZM18 0L18 7L25 7L25 0ZM19 1L19 6L24 6L24 1ZM20 2L20 5L23 5L23 2ZM0 18L0 25L7 25L7 18ZM1 19L1 24L6 24L6 19ZM2 20L2 23L5 23L5 20Z" fill="#000000"/></g></g></svg>
