<?xml version="1.0" encoding="UTF-8"?>
<svg xmlns="http://www.w3.org/2000/svg" version="1.1" width="300" height="300" viewBox="0 0 300 300"><rect x="0" y="0" width="300" height="300" fill="#ffffff"/><g transform="scale(12)"><g transform="translate(0,0)"><path fill-rule="evenodd" d="M8 0L8 1L9 1L9 2L8 2L8 5L9 5L9 4L11 4L11 5L10 5L10 10L9 10L9 8L8 8L8 10L6 10L6 11L7 11L7 12L5 12L5 15L4 15L4 13L3 13L3 14L2 14L2 13L1 13L1 15L0 15L0 16L1 16L1 15L3 15L3 16L2 16L2 17L3 17L3 16L5 16L5 15L7 15L7 16L6 16L6 17L7 17L7 16L8 16L8 14L9 14L9 15L10 15L10 17L8 17L8 18L9 18L9 19L10 19L10 20L9 20L9 21L8 21L8 25L11 25L11 24L13 24L13 25L16 25L16 23L17 23L17 25L19 25L19 24L18 24L18 23L19 23L19 21L21 21L21 22L20 22L20 23L22 23L22 25L25 25L25 24L23 24L23 23L24 23L24 22L25 22L25 18L23 18L23 19L24 19L24 21L22 21L22 20L21 20L21 17L25 17L25 15L24 15L24 13L25 13L25 12L23 12L23 11L24 11L24 9L25 9L25 8L24 8L24 9L23 9L23 8L20 8L20 9L19 9L19 10L20 10L20 9L21 9L21 10L22 10L22 12L21 12L21 11L20 11L20 12L21 12L21 13L19 13L19 12L18 12L18 10L17 10L17 9L18 9L18 8L14 8L14 9L12 9L12 8L13 8L13 6L14 6L14 7L15 7L15 6L14 6L14 5L17 5L17 4L15 4L15 3L17 3L17 0L16 0L16 2L15 2L15 1L14 1L14 0L12 0L12 1L11 1L11 0L10 0L10 1L9 1L9 0ZM13 1L13 2L11 2L11 4L12 4L12 3L13 3L13 2L14 2L14 3L15 3L15 2L14 2L14 1ZM12 5L12 6L11 6L11 8L12 8L12 6L13 6L13 5ZM8 6L8 7L9 7L9 6ZM16 6L16 7L17 7L17 6ZM0 8L0 9L1 9L1 10L0 10L0 12L1 12L1 11L2 11L2 12L4 12L4 11L2 11L2 9L3 9L3 10L4 10L4 8ZM6 8L6 9L7 9L7 8ZM11 9L11 10L12 10L12 11L11 11L11 13L9 13L9 12L8 12L8 13L6 13L6 14L8 14L8 13L9 13L9 14L11 14L11 15L12 15L12 16L11 16L11 17L13 17L13 16L14 16L14 17L15 17L15 18L14 18L14 19L13 19L13 18L11 18L11 19L12 19L12 20L10 20L10 21L12 21L12 23L14 23L14 22L15 22L15 23L16 23L16 22L15 22L15 21L16 21L16 16L17 16L17 15L16 15L16 14L14 14L14 13L17 13L17 10L16 10L16 9L14 9L14 10L12 10L12 9ZM8 10L8 11L9 11L9 10ZM12 11L12 12L13 12L13 13L12 13L12 14L13 14L13 15L14 15L14 14L13 14L13 13L14 13L14 11ZM15 11L15 12L16 12L16 11ZM21 13L21 15L22 15L22 16L23 16L23 15L22 15L22 14L23 14L23 13ZM15 15L15 16L16 16L16 15ZM19 15L19 16L20 16L20 15ZM17 17L17 20L20 20L20 17ZM18 18L18 19L19 19L19 18ZM14 20L14 21L15 21L15 20ZM9 22L9 24L11 24L11 23L10 23L10 22ZM22 22L22 23L23 23L23 22ZM0 0L0 7L7 7L7 0ZM1 1L1 6L6 6L6 1ZM2 2L2 5L5 5L5 2ZM18 0L18 7L25 7L25 0ZM19 1L19 6L24 6L24 1ZM20 2L20 5L23 5L23 2ZM0 18L0 25L7 25L7 18ZM1 19L1 24L6 24L6 19ZM2 20L2 23L5 23L5 20Z" fill="#000000"/></g></g></svg>
