<?xml version="1.0" encoding="UTF-8"?>
<svg xmlns="http://www.w3.org/2000/svg" version="1.1" width="300" height="300" viewBox="0 0 300 300"><rect x="0" y="0" width="300" height="300" fill="#ffffff"/><g transform="scale(12)"><g transform="translate(0,0)"><path fill-rule="evenodd" d="M8 0L8 2L9 2L9 3L10 3L10 2L9 2L9 1L11 1L11 2L12 2L12 0ZM14 0L14 2L13 2L13 3L11 3L11 5L9 5L9 4L8 4L8 9L7 9L7 8L5 8L5 9L4 9L4 10L2 10L2 12L3 12L3 13L2 13L2 14L0 14L0 15L4 15L4 16L3 16L3 17L4 17L4 16L5 16L5 14L6 14L6 15L7 15L7 16L6 16L6 17L7 17L7 16L8 16L8 15L10 15L10 18L9 18L9 17L8 17L8 18L9 18L9 19L8 19L8 20L9 20L9 19L10 19L10 18L11 18L11 17L12 17L12 19L11 19L11 20L10 20L10 21L9 21L9 22L8 22L8 25L10 25L10 24L11 24L11 25L14 25L14 23L13 23L13 24L11 24L11 23L12 23L12 22L11 22L11 23L9 23L9 22L10 22L10 21L11 21L11 20L13 20L13 22L15 22L15 25L17 25L17 24L18 24L18 25L19 25L19 24L18 24L18 21L21 21L21 22L19 22L19 23L22 23L22 21L21 21L21 15L23 15L23 17L22 17L22 19L23 19L23 17L24 17L24 15L25 15L25 14L24 14L24 15L23 15L23 14L21 14L21 15L20 15L20 13L22 13L22 12L21 12L21 11L22 11L22 10L23 10L23 11L25 11L25 8L23 8L23 9L22 9L22 10L21 10L21 11L20 11L20 9L21 9L21 8L17 8L17 5L16 5L16 9L15 9L15 10L13 10L13 9L14 9L14 7L15 7L15 4L16 4L16 3L15 3L15 0ZM16 1L16 2L17 2L17 1ZM13 3L13 5L14 5L14 4L15 4L15 3ZM11 5L11 7L10 7L10 6L9 6L9 7L10 7L10 9L8 9L8 10L7 10L7 9L5 9L5 10L4 10L4 13L5 13L5 12L10 12L10 11L9 11L9 10L11 10L11 11L12 11L12 9L11 9L11 8L13 8L13 7L14 7L14 6L13 6L13 7L12 7L12 5ZM0 8L0 12L1 12L1 9L3 9L3 8ZM17 9L17 10L16 10L16 11L15 11L15 12L17 12L17 15L15 15L15 14L16 14L16 13L15 13L15 14L13 14L13 12L14 12L14 11L13 11L13 12L11 12L11 14L10 14L10 13L9 13L9 14L10 14L10 15L11 15L11 16L13 16L13 15L14 15L14 17L13 17L13 18L15 18L15 20L16 20L16 17L15 17L15 16L17 16L17 15L18 15L18 16L20 16L20 15L19 15L19 14L18 14L18 12L19 12L19 11L18 11L18 12L17 12L17 10L18 10L18 9ZM6 10L6 11L7 11L7 10ZM24 12L24 13L25 13L25 12ZM6 13L6 14L7 14L7 15L8 15L8 13ZM11 14L11 15L12 15L12 14ZM0 16L0 17L2 17L2 16ZM17 17L17 20L20 20L20 17ZM18 18L18 19L19 19L19 18ZM24 18L24 20L23 20L23 23L25 23L25 22L24 22L24 21L25 21L25 18ZM13 19L13 20L14 20L14 19ZM15 21L15 22L16 22L16 23L17 23L17 22L16 22L16 21ZM20 24L20 25L21 25L21 24ZM24 24L24 25L25 25L25 24ZM0 0L0 7L7 7L7 0ZM1 1L1 6L6 6L6 1ZM2 2L2 5L5 5L5 2ZM18 0L18 7L25 7L25 0ZM19 1L19 6L24 6L24 1ZM20 2L20 5L23 5L23 2ZM0 18L0 25L7 25L7 18ZM1 19L1 24L6 24L6 19ZM2 20L2 23L5 23L5 20Z" fill="#000000"/></g></g></svg>
