<?xml version="1.0" encoding="UTF-8"?>
<svg xmlns="http://www.w3.org/2000/svg" version="1.1" width="300" height="300" viewBox="0 0 300 300"><rect x="0" y="0" width="300" height="300" fill="#ffffff"/><g transform="scale(12)"><g transform="translate(0,0)"><path fill-rule="evenodd" d="M9 0L9 1L10 1L10 2L8 2L8 3L9 3L9 4L10 4L10 5L9 5L9 6L8 6L8 8L4 8L4 9L3 9L3 8L0 8L0 9L3 9L3 10L2 10L2 11L3 11L3 12L1 12L1 10L0 10L0 12L1 12L1 14L0 14L0 15L1 15L1 16L0 16L0 17L1 17L1 16L2 16L2 17L3 17L3 15L5 15L5 16L4 16L4 17L7 17L7 16L8 16L8 21L9 21L9 19L10 19L10 18L9 18L9 16L8 16L8 15L10 15L10 17L11 17L11 16L12 16L12 17L13 17L13 18L12 18L12 19L13 19L13 21L12 21L12 22L13 22L13 23L11 23L11 20L10 20L10 24L12 24L12 25L14 25L14 24L16 24L16 25L17 25L17 24L22 24L22 25L25 25L25 24L24 24L24 23L25 23L25 22L24 22L24 23L23 23L23 24L22 24L22 23L21 23L21 22L22 22L22 19L24 19L24 20L25 20L25 18L24 18L24 17L23 17L23 18L22 18L22 15L25 15L25 14L24 14L24 13L25 13L25 12L24 12L24 11L25 11L25 9L24 9L24 11L23 11L23 14L22 14L22 13L21 13L21 14L22 14L22 15L20 15L20 16L17 16L17 15L19 15L19 12L20 12L20 11L21 11L21 12L22 12L22 11L21 11L21 10L23 10L23 8L22 8L22 9L21 9L21 10L19 10L19 8L16 8L16 10L17 10L17 11L15 11L15 12L14 12L14 11L13 11L13 14L12 14L12 15L11 15L11 14L10 14L10 13L7 13L7 12L6 12L6 11L8 11L8 12L9 12L9 11L10 11L10 10L12 10L12 9L13 9L13 10L15 10L15 9L14 9L14 8L15 8L15 6L16 6L16 7L17 7L17 5L16 5L16 4L15 4L15 3L14 3L14 5L13 5L13 6L12 6L12 8L11 8L11 6L10 6L10 5L11 5L11 4L12 4L12 3L13 3L13 2L16 2L16 3L17 3L17 2L16 2L16 0L12 0L12 1L10 1L10 0ZM11 2L11 3L12 3L12 2ZM9 6L9 7L10 7L10 6ZM13 6L13 7L14 7L14 6ZM9 8L9 10L10 10L10 8ZM5 9L5 10L3 10L3 11L6 11L6 10L8 10L8 9ZM18 10L18 11L17 11L17 12L19 12L19 10ZM4 12L4 13L5 13L5 12ZM15 12L15 13L14 13L14 14L13 14L13 15L12 15L12 16L13 16L13 15L14 15L14 17L15 17L15 18L13 18L13 19L15 19L15 20L14 20L14 21L16 21L16 22L15 22L15 23L16 23L16 22L17 22L17 21L16 21L16 16L15 16L15 15L16 15L16 12ZM6 13L6 14L5 14L5 15L6 15L6 16L7 16L7 15L8 15L8 14L7 14L7 13ZM1 14L1 15L3 15L3 14ZM6 14L6 15L7 15L7 14ZM14 14L14 15L15 15L15 14ZM17 17L17 20L20 20L20 17ZM18 18L18 19L19 19L19 18ZM18 21L18 23L19 23L19 21ZM20 21L20 22L21 22L21 21ZM8 22L8 25L9 25L9 22ZM0 0L0 7L7 7L7 0ZM1 1L1 6L6 6L6 1ZM2 2L2 5L5 5L5 2ZM18 0L18 7L25 7L25 0ZM19 1L19 6L24 6L24 1ZM20 2L20 5L23 5L23 2ZM0 18L0 25L7 25L7 18ZM1 19L1 24L6 24L6 19ZM2 20L2 23L5 23L5 20Z" fill="#000000"/></g></g></svg>
