<?xml version="1.0" encoding="UTF-8"?>
<svg xmlns="http://www.w3.org/2000/svg" version="1.1" width="300" height="300" viewBox="0 0 300 300"><rect x="0" y="0" width="300" height="300" fill="#ffffff"/><g transform="scale(12)"><g transform="translate(0,0)"><path fill-rule="evenodd" d="M8 0L8 1L11 1L11 3L10 3L10 2L9 2L9 3L10 3L10 5L9 5L9 6L8 6L8 8L9 8L9 9L10 9L10 10L9 10L9 11L10 11L10 10L11 10L11 9L10 9L10 7L11 7L11 6L12 6L12 9L14 9L14 12L13 12L13 13L12 13L12 14L13 14L13 13L15 13L15 14L14 14L14 15L12 15L12 16L11 16L11 18L9 18L9 17L10 17L10 15L11 15L11 12L9 12L9 14L5 14L5 13L4 13L4 12L5 12L5 11L7 11L7 10L8 10L8 9L7 9L7 8L6 8L6 9L5 9L5 8L3 8L3 9L5 9L5 11L4 11L4 10L1 10L1 9L2 9L2 8L0 8L0 10L1 10L1 12L0 12L0 17L1 17L1 15L2 15L2 16L3 16L3 17L7 17L7 16L8 16L8 18L9 18L9 19L11 19L11 21L10 21L10 20L8 20L8 22L9 22L9 21L10 21L10 25L14 25L14 19L15 19L15 21L16 21L16 22L15 22L15 23L16 23L16 22L17 22L17 21L18 21L18 22L19 22L19 23L20 23L20 24L19 24L19 25L20 25L20 24L21 24L21 25L23 25L23 24L24 24L24 25L25 25L25 20L24 20L24 21L21 21L21 16L20 16L20 15L22 15L22 19L23 19L23 18L24 18L24 19L25 19L25 17L24 17L24 16L25 16L25 10L24 10L24 9L25 9L25 8L24 8L24 9L23 9L23 10L21 10L21 9L19 9L19 8L18 8L18 9L19 9L19 11L18 11L18 13L20 13L20 14L17 14L17 10L16 10L16 9L17 9L17 8L16 8L16 9L15 9L15 3L16 3L16 2L17 2L17 1L16 1L16 2L15 2L15 3L14 3L14 1L15 1L15 0L14 0L14 1L12 1L12 0ZM12 2L12 4L14 4L14 3L13 3L13 2ZM16 4L16 7L17 7L17 4ZM10 5L10 6L9 6L9 7L10 7L10 6L11 6L11 5ZM12 5L12 6L13 6L13 8L14 8L14 6L13 6L13 5ZM6 9L6 10L7 10L7 9ZM12 10L12 11L13 11L13 10ZM2 11L2 13L1 13L1 14L4 14L4 15L5 15L5 16L7 16L7 15L5 15L5 14L4 14L4 13L3 13L3 12L4 12L4 11ZM15 11L15 12L16 12L16 11ZM19 11L19 12L20 12L20 13L21 13L21 14L24 14L24 12L22 12L22 11ZM6 12L6 13L8 13L8 12ZM21 12L21 13L22 13L22 12ZM9 14L9 15L8 15L8 16L9 16L9 15L10 15L10 14ZM13 16L13 17L12 17L12 18L11 18L11 19L12 19L12 21L11 21L11 22L12 22L12 23L13 23L13 22L12 22L12 21L13 21L13 19L12 19L12 18L15 18L15 16ZM17 17L17 20L20 20L20 17ZM18 18L18 19L19 19L19 18ZM19 21L19 22L20 22L20 21ZM21 22L21 24L22 24L22 23L23 23L23 22ZM8 23L8 25L9 25L9 23ZM17 23L17 24L15 24L15 25L18 25L18 23ZM0 0L0 7L7 7L7 0ZM1 1L1 6L6 6L6 1ZM2 2L2 5L5 5L5 2ZM18 0L18 7L25 7L25 0ZM19 1L19 6L24 6L24 1ZM20 2L20 5L23 5L23 2ZM0 18L0 25L7 25L7 18ZM1 19L1 24L6 24L6 19ZM2 20L2 23L5 23L5 20Z" fill="#000000"/></g></g></svg>
