<?xml version="1.0" encoding="UTF-8"?>
<svg xmlns="http://www.w3.org/2000/svg" version="1.1" width="300" height="300" viewBox="0 0 300 300"><rect x="0" y="0" width="300" height="300" fill="#ffffff"/><g transform="scale(12)"><g transform="translate(0,0)"><path fill-rule="evenodd" d="M11 0L11 1L9 1L9 2L11 2L11 1L13 1L13 0ZM14 0L14 3L13 3L13 2L12 2L12 4L14 4L14 3L15 3L15 4L16 4L16 7L15 7L15 5L14 5L14 8L13 8L13 9L12 9L12 7L13 7L13 5L11 5L11 6L10 6L10 8L9 8L9 9L8 9L8 8L5 8L5 10L4 10L4 9L2 9L2 8L0 8L0 10L1 10L1 9L2 9L2 12L0 12L0 17L1 17L1 14L2 14L2 17L3 17L3 14L4 14L4 17L8 17L8 20L9 20L9 23L8 23L8 25L10 25L10 24L11 24L11 25L13 25L13 24L11 24L11 22L12 22L12 21L11 21L11 20L13 20L13 21L16 21L16 22L15 22L15 23L14 23L14 22L13 22L13 23L14 23L14 24L15 24L15 25L18 25L18 24L17 24L17 23L18 23L18 22L19 22L19 23L20 23L20 24L19 24L19 25L20 25L20 24L21 24L21 25L23 25L23 24L21 24L21 23L22 23L22 22L24 22L24 25L25 25L25 21L23 21L23 20L25 20L25 17L24 17L24 19L23 19L23 18L22 18L22 19L23 19L23 20L22 20L22 21L21 21L21 16L20 16L20 15L22 15L22 17L23 17L23 16L25 16L25 10L24 10L24 9L23 9L23 10L21 10L21 9L22 9L22 8L20 8L20 9L19 9L19 11L18 11L18 10L16 10L16 7L17 7L17 3L16 3L16 2L15 2L15 0ZM8 3L8 5L10 5L10 4L9 4L9 3ZM8 6L8 7L9 7L9 6ZM11 6L11 7L12 7L12 6ZM10 8L10 10L8 10L8 9L6 9L6 10L8 10L8 11L5 11L5 12L4 12L4 10L3 10L3 12L2 12L2 13L4 13L4 14L5 14L5 16L7 16L7 15L9 15L9 16L8 16L8 17L9 17L9 16L10 16L10 17L11 17L11 18L12 18L12 17L11 17L11 15L10 15L10 14L13 14L13 15L12 15L12 16L14 16L14 15L15 15L15 16L17 16L17 14L19 14L19 15L20 15L20 14L22 14L22 15L23 15L23 14L24 14L24 10L23 10L23 11L21 11L21 10L20 10L20 11L19 11L19 12L20 12L20 14L19 14L19 13L18 13L18 12L17 12L17 14L16 14L16 15L15 15L15 13L14 13L14 12L16 12L16 11L14 11L14 10L15 10L15 9L13 9L13 10L12 10L12 9L11 9L11 8ZM10 10L10 11L9 11L9 12L6 12L6 13L5 13L5 14L6 14L6 15L7 15L7 14L10 14L10 11L11 11L11 10ZM12 11L12 12L11 12L11 13L13 13L13 11ZM21 12L21 13L22 13L22 12ZM6 13L6 14L7 14L7 13ZM13 17L13 18L14 18L14 19L13 19L13 20L14 20L14 19L15 19L15 18L14 18L14 17ZM17 17L17 20L20 20L20 17ZM9 18L9 19L10 19L10 20L11 20L11 19L10 19L10 18ZM18 18L18 19L19 19L19 18ZM10 21L10 22L11 22L11 21ZM17 21L17 22L16 22L16 23L15 23L15 24L16 24L16 23L17 23L17 22L18 22L18 21ZM19 21L19 22L20 22L20 23L21 23L21 22L20 22L20 21ZM9 23L9 24L10 24L10 23ZM0 0L0 7L7 7L7 0ZM1 1L1 6L6 6L6 1ZM2 2L2 5L5 5L5 2ZM18 0L18 7L25 7L25 0ZM19 1L19 6L24 6L24 1ZM20 2L20 5L23 5L23 2ZM0 18L0 25L7 25L7 18ZM1 19L1 24L6 24L6 19ZM2 20L2 23L5 23L5 20Z" fill="#000000"/></g></g></svg>
