<?xml version="1.0" encoding="UTF-8"?>
<svg xmlns="http://www.w3.org/2000/svg" version="1.1" width="300" height="300" viewBox="0 0 300 300"><rect x="0" y="0" width="300" height="300" fill="#ffffff"/><g transform="scale(12)"><g transform="translate(0,0)"><path fill-rule="evenodd" d="M8 0L8 2L10 2L10 4L8 4L8 10L6 10L6 11L7 11L7 12L6 12L6 13L10 13L10 11L9 11L9 12L8 12L8 10L11 10L11 14L9 14L9 15L8 15L8 14L5 14L5 16L4 16L4 12L1 12L1 11L0 11L0 13L1 13L1 14L0 14L0 15L2 15L2 14L3 14L3 16L0 16L0 17L3 17L3 16L4 16L4 17L7 17L7 16L8 16L8 18L9 18L9 19L8 19L8 20L9 20L9 22L8 22L8 25L9 25L9 24L10 24L10 23L12 23L12 24L11 24L11 25L13 25L13 23L12 23L12 22L13 22L13 21L12 21L12 19L14 19L14 20L15 20L15 21L14 21L14 24L15 24L15 25L18 25L18 24L19 24L19 25L20 25L20 24L21 24L21 25L23 25L23 24L21 24L21 22L20 22L20 24L19 24L19 23L18 23L18 24L17 24L17 22L15 22L15 21L21 21L21 15L23 15L23 17L24 17L24 15L25 15L25 14L24 14L24 15L23 15L23 14L21 14L21 15L20 15L20 12L18 12L18 11L16 11L16 10L17 10L17 9L18 9L18 10L20 10L20 11L22 11L22 10L23 10L23 11L25 11L25 8L23 8L23 9L22 9L22 10L20 10L20 9L21 9L21 8L16 8L16 7L17 7L17 5L16 5L16 7L15 7L15 4L16 4L16 3L17 3L17 2L15 2L15 0L14 0L14 2L13 2L13 0L11 0L11 1L9 1L9 0ZM11 1L11 2L12 2L12 1ZM14 2L14 3L15 3L15 2ZM11 3L11 4L12 4L12 6L11 6L11 5L9 5L9 8L10 8L10 6L11 6L11 7L12 7L12 6L13 6L13 9L12 9L12 8L11 8L11 10L12 10L12 14L15 14L15 13L14 13L14 12L16 12L16 11L15 11L15 10L14 10L14 9L15 9L15 8L14 8L14 5L13 5L13 3ZM0 8L0 10L2 10L2 11L5 11L5 9L7 9L7 8L5 8L5 9L4 9L4 10L3 10L3 8ZM13 10L13 11L14 11L14 10ZM17 12L17 15L18 15L18 16L19 16L19 15L18 15L18 12ZM21 12L21 13L22 13L22 12ZM24 12L24 13L25 13L25 12ZM6 15L6 16L7 16L7 15ZM9 15L9 16L10 16L10 15ZM11 15L11 16L13 16L13 17L12 17L12 18L14 18L14 19L15 19L15 18L14 18L14 17L15 17L15 16L16 16L16 15ZM9 17L9 18L10 18L10 19L9 19L9 20L10 20L10 19L11 19L11 17ZM17 17L17 20L20 20L20 17ZM18 18L18 19L19 19L19 18ZM22 18L22 19L23 19L23 22L22 22L22 23L25 23L25 22L24 22L24 20L25 20L25 18L24 18L24 19L23 19L23 18ZM10 21L10 22L11 22L11 21ZM15 23L15 24L16 24L16 23ZM24 24L24 25L25 25L25 24ZM0 0L0 7L7 7L7 0ZM1 1L1 6L6 6L6 1ZM2 2L2 5L5 5L5 2ZM18 0L18 7L25 7L25 0ZM19 1L19 6L24 6L24 1ZM20 2L20 5L23 5L23 2ZM0 18L0 25L7 25L7 18ZM1 19L1 24L6 24L6 19ZM2 20L2 23L5 23L5 20Z" fill="#000000"/></g></g></svg>
