<?xml version="1.0" encoding="UTF-8"?>
<svg xmlns="http://www.w3.org/2000/svg" version="1.1" width="300" height="300" viewBox="0 0 300 300"><rect x="0" y="0" width="300" height="300" fill="#ffffff"/><g transform="scale(12)"><g transform="translate(0,0)"><path fill-rule="evenodd" d="M9 0L9 1L10 1L10 2L8 2L8 3L9 3L9 4L10 4L10 5L9 5L9 6L8 6L8 8L4 8L4 9L3 9L3 8L0 8L0 10L2 10L2 11L0 11L0 13L1 13L1 12L2 12L2 15L1 15L1 14L0 14L0 15L1 15L1 16L0 16L0 17L1 17L1 16L2 16L2 17L5 17L5 16L2 16L2 15L3 15L3 14L4 14L4 12L5 12L5 11L7 11L7 12L6 12L6 13L5 13L5 14L6 14L6 15L8 15L8 21L9 21L9 19L10 19L10 18L12 18L12 19L11 19L11 20L12 20L12 23L11 23L11 21L10 21L10 23L11 23L11 24L12 24L12 25L14 25L14 23L13 23L13 22L14 22L14 20L15 20L15 19L16 19L16 21L15 21L15 22L16 22L16 23L15 23L15 24L16 24L16 25L17 25L17 24L22 24L22 25L25 25L25 24L24 24L24 23L25 23L25 22L24 22L24 23L23 23L23 22L22 22L22 23L21 23L21 22L20 22L20 21L22 21L22 19L25 19L25 18L24 18L24 17L23 17L23 18L22 18L22 15L25 15L25 14L24 14L24 13L25 13L25 12L24 12L24 11L25 11L25 9L24 9L24 11L23 11L23 14L22 14L22 13L21 13L21 14L22 14L22 15L20 15L20 16L16 16L16 15L15 15L15 14L14 14L14 12L15 12L15 10L14 10L14 8L15 8L15 6L16 6L16 7L17 7L17 5L16 5L16 3L17 3L17 1L16 1L16 0L14 0L14 1L15 1L15 3L14 3L14 5L15 5L15 6L14 6L14 7L13 7L13 6L12 6L12 8L11 8L11 6L10 6L10 5L11 5L11 4L12 4L12 3L13 3L13 0L12 0L12 1L10 1L10 0ZM11 2L11 3L12 3L12 2ZM9 6L9 7L10 7L10 6ZM9 8L9 10L10 10L10 11L8 11L8 9L6 9L6 10L7 10L7 11L8 11L8 12L7 12L7 13L6 13L6 14L7 14L7 13L8 13L8 15L9 15L9 18L10 18L10 17L11 17L11 16L12 16L12 15L11 15L11 13L12 13L12 12L13 12L13 8L12 8L12 10L10 10L10 8ZM16 8L16 11L18 11L18 10L19 10L19 12L16 12L16 14L17 14L17 15L19 15L19 12L20 12L20 11L21 11L21 12L22 12L22 11L21 11L21 10L23 10L23 8L22 8L22 9L21 9L21 10L19 10L19 8ZM2 9L2 10L3 10L3 9ZM4 9L4 10L5 10L5 9ZM11 11L11 12L12 12L12 11ZM9 13L9 15L10 15L10 16L11 16L11 15L10 15L10 13ZM6 16L6 17L7 17L7 16ZM14 16L14 18L15 18L15 17L16 17L16 16ZM12 17L12 18L13 18L13 17ZM17 17L17 20L20 20L20 17ZM18 18L18 19L19 19L19 18ZM16 21L16 22L17 22L17 21ZM18 21L18 23L19 23L19 21ZM8 22L8 25L9 25L9 22ZM22 23L22 24L23 24L23 23ZM0 0L0 7L7 7L7 0ZM1 1L1 6L6 6L6 1ZM2 2L2 5L5 5L5 2ZM18 0L18 7L25 7L25 0ZM19 1L19 6L24 6L24 1ZM20 2L20 5L23 5L23 2ZM0 18L0 25L7 25L7 18ZM1 19L1 24L6 24L6 19ZM2 20L2 23L5 23L5 20Z" fill="#000000"/></g></g></svg>
