<?xml version="1.0" encoding="UTF-8"?>
<svg xmlns="http://www.w3.org/2000/svg" version="1.1" width="300" height="300" viewBox="0 0 300 300"><rect x="0" y="0" width="300" height="300" fill="#ffffff"/><g transform="scale(12)"><g transform="translate(0,0)"><path fill-rule="evenodd" d="M9 0L9 1L8 1L8 2L9 2L9 3L8 3L8 4L10 4L10 7L11 7L11 4L12 4L12 5L13 5L13 4L16 4L16 5L15 5L15 6L14 6L14 8L13 8L13 6L12 6L12 9L16 9L16 10L15 10L15 11L14 11L14 12L13 12L13 13L12 13L12 11L13 11L13 10L11 10L11 11L10 11L10 9L11 9L11 8L6 8L6 9L7 9L7 10L5 10L5 8L0 8L0 10L1 10L1 9L2 9L2 10L5 10L5 11L3 11L3 12L2 12L2 11L1 11L1 12L0 12L0 17L1 17L1 14L2 14L2 15L3 15L3 16L2 16L2 17L8 17L8 19L10 19L10 20L8 20L8 25L9 25L9 24L10 24L10 25L11 25L11 24L10 24L10 22L9 22L9 21L12 21L12 22L13 22L13 23L12 23L12 25L13 25L13 24L14 24L14 25L16 25L16 24L17 24L17 23L18 23L18 22L19 22L19 23L20 23L20 25L22 25L22 23L23 23L23 22L24 22L24 24L23 24L23 25L25 25L25 20L22 20L22 19L21 19L21 18L22 18L22 17L23 17L23 16L25 16L25 10L24 10L24 8L23 8L23 9L22 9L22 8L21 8L21 12L20 12L20 13L19 13L19 11L20 11L20 8L19 8L19 11L18 11L18 10L17 10L17 9L18 9L18 8L17 8L17 9L16 9L16 7L17 7L17 4L16 4L16 2L17 2L17 0L16 0L16 1L15 1L15 2L14 2L14 3L13 3L13 4L12 4L12 2L13 2L13 1L11 1L11 2L10 2L10 0ZM10 3L10 4L11 4L11 3ZM8 5L8 7L9 7L9 5ZM15 6L15 7L16 7L16 6ZM7 10L7 11L5 11L5 13L6 13L6 14L7 14L7 15L5 15L5 14L4 14L4 16L8 16L8 14L10 14L10 13L11 13L11 18L10 18L10 19L11 19L11 18L13 18L13 19L12 19L12 21L14 21L14 22L15 22L15 20L16 20L16 18L15 18L15 17L12 17L12 15L13 15L13 16L14 16L14 15L15 15L15 14L16 14L16 13L17 13L17 14L19 14L19 15L20 15L20 14L21 14L21 13L20 13L20 14L19 14L19 13L17 13L17 11L16 11L16 13L13 13L13 14L12 14L12 13L11 13L11 12L10 12L10 13L8 13L8 10ZM23 10L23 11L22 11L22 12L24 12L24 10ZM3 12L3 13L2 13L2 14L3 14L3 13L4 13L4 12ZM6 12L6 13L7 13L7 14L8 14L8 13L7 13L7 12ZM22 13L22 16L21 16L21 17L22 17L22 16L23 16L23 14L24 14L24 13ZM9 15L9 16L10 16L10 15ZM16 15L16 16L17 16L17 15ZM17 17L17 20L20 20L20 17ZM24 17L24 18L23 18L23 19L25 19L25 17ZM18 18L18 19L19 19L19 18ZM14 19L14 20L15 20L15 19ZM21 20L21 21L19 21L19 22L20 22L20 23L22 23L22 22L23 22L23 21L22 21L22 20ZM16 21L16 23L17 23L17 22L18 22L18 21ZM21 21L21 22L22 22L22 21ZM14 23L14 24L15 24L15 23ZM0 0L0 7L7 7L7 0ZM1 1L1 6L6 6L6 1ZM2 2L2 5L5 5L5 2ZM18 0L18 7L25 7L25 0ZM19 1L19 6L24 6L24 1ZM20 2L20 5L23 5L23 2ZM0 18L0 25L7 25L7 18ZM1 19L1 24L6 24L6 19ZM2 20L2 23L5 23L5 20Z" fill="#000000"/></g></g></svg>
