<?xml version="1.0" encoding="UTF-8"?>
<svg xmlns="http://www.w3.org/2000/svg" version="1.1" width="300" height="300" viewBox="0 0 300 300"><rect x="0" y="0" width="300" height="300" fill="#ffffff"/><g transform="scale(12)"><g transform="translate(0,0)"><path fill-rule="evenodd" d="M8 0L8 1L10 1L10 0ZM16 0L16 2L17 2L17 0ZM8 2L8 5L9 5L9 6L8 6L8 7L9 7L9 8L8 8L8 11L7 11L7 10L6 10L6 11L5 11L5 9L4 9L4 8L0 8L0 10L2 10L2 11L1 11L1 12L0 12L0 13L1 13L1 15L0 15L0 16L1 16L1 15L2 15L2 17L4 17L4 16L5 16L5 17L8 17L8 18L9 18L9 19L12 19L12 20L11 20L11 21L12 21L12 22L10 22L10 21L8 21L8 25L9 25L9 22L10 22L10 25L11 25L11 24L12 24L12 22L13 22L13 21L12 21L12 20L13 20L13 19L14 19L14 18L15 18L15 17L14 17L14 16L16 16L16 19L15 19L15 20L14 20L14 21L15 21L15 23L13 23L13 25L15 25L15 24L17 24L17 23L19 23L19 24L18 24L18 25L22 25L22 24L23 24L23 25L25 25L25 24L23 24L23 23L24 23L24 22L25 22L25 20L24 20L24 19L25 19L25 18L23 18L23 17L25 17L25 15L24 15L24 13L25 13L25 12L23 12L23 11L24 11L24 9L25 9L25 8L24 8L24 9L23 9L23 8L20 8L20 9L19 9L19 11L20 11L20 13L19 13L19 12L18 12L18 11L17 11L17 9L18 9L18 8L15 8L15 5L12 5L12 3L13 3L13 4L15 4L15 2L11 2L11 4L10 4L10 3L9 3L9 2ZM16 4L16 7L17 7L17 4ZM10 5L10 6L9 6L9 7L10 7L10 8L9 8L9 9L10 9L10 10L9 10L9 12L7 12L7 11L6 11L6 12L5 12L5 11L4 11L4 12L2 12L2 14L3 14L3 13L4 13L4 14L7 14L7 15L6 15L6 16L9 16L9 15L8 15L8 14L10 14L10 13L11 13L11 11L14 11L14 12L12 12L12 14L11 14L11 15L10 15L10 17L11 17L11 18L12 18L12 17L13 17L13 16L14 16L14 15L13 15L13 16L12 16L12 14L15 14L15 15L17 15L17 16L21 16L21 15L22 15L22 16L23 16L23 15L22 15L22 14L23 14L23 13L21 13L21 14L19 14L19 15L18 15L18 12L16 12L16 13L17 13L17 14L15 14L15 13L14 13L14 12L15 12L15 11L16 11L16 9L15 9L15 8L14 8L14 6L13 6L13 7L12 7L12 5ZM10 6L10 7L11 7L11 8L12 8L12 7L11 7L11 6ZM6 8L6 9L7 9L7 8ZM3 9L3 10L4 10L4 9ZM20 9L20 10L21 10L21 12L22 12L22 10L21 10L21 9ZM14 10L14 11L15 11L15 10ZM6 12L6 13L7 13L7 14L8 14L8 13L7 13L7 12ZM9 12L9 13L10 13L10 12ZM11 16L11 17L12 17L12 16ZM17 17L17 20L20 20L20 17ZM21 17L21 18L22 18L22 17ZM18 18L18 19L19 19L19 18ZM21 19L21 21L22 21L22 20L23 20L23 21L24 21L24 20L23 20L23 19ZM15 20L15 21L16 21L16 23L17 23L17 22L18 22L18 21L16 21L16 20ZM19 21L19 22L20 22L20 21ZM21 22L21 23L22 23L22 22ZM0 0L0 7L7 7L7 0ZM1 1L1 6L6 6L6 1ZM2 2L2 5L5 5L5 2ZM18 0L18 7L25 7L25 0ZM19 1L19 6L24 6L24 1ZM20 2L20 5L23 5L23 2ZM0 18L0 25L7 25L7 18ZM1 19L1 24L6 24L6 19ZM2 20L2 23L5 23L5 20Z" fill="#000000"/></g></g></svg>
