<?xml version="1.0" encoding="UTF-8"?>
<svg xmlns="http://www.w3.org/2000/svg" version="1.1" width="300" height="300" viewBox="0 0 300 300"><rect x="0" y="0" width="300" height="300" fill="#ffffff"/><g transform="scale(12)"><g transform="translate(0,0)"><path fill-rule="evenodd" d="M9 0L9 1L10 1L10 2L8 2L8 3L9 3L9 4L10 4L10 5L9 5L9 6L8 6L8 8L4 8L4 9L3 9L3 8L0 8L0 11L1 11L1 9L2 9L2 10L5 10L5 9L8 9L8 10L9 10L9 11L10 11L10 10L12 10L12 8L14 8L14 9L15 9L15 8L17 8L17 9L16 9L16 10L17 10L17 11L20 11L20 12L22 12L22 11L21 11L21 10L23 10L23 8L22 8L22 9L21 9L21 10L19 10L19 8L17 8L17 6L16 6L16 4L17 4L17 3L15 3L15 2L16 2L16 0L15 0L15 1L13 1L13 0L12 0L12 1L10 1L10 0ZM11 2L11 3L12 3L12 4L11 4L11 5L10 5L10 6L9 6L9 7L10 7L10 6L11 6L11 8L12 8L12 6L13 6L13 7L14 7L14 8L15 8L15 7L16 7L16 6L15 6L15 7L14 7L14 6L13 6L13 5L15 5L15 4L14 4L14 2L13 2L13 3L12 3L12 2ZM9 8L9 10L10 10L10 8ZM24 9L24 11L23 11L23 14L22 14L22 13L21 13L21 14L19 14L19 12L18 12L18 14L19 14L19 15L15 15L15 14L14 14L14 13L13 13L13 12L12 12L12 11L11 11L11 12L12 12L12 13L11 13L11 15L12 15L12 16L11 16L11 18L12 18L12 16L14 16L14 18L13 18L13 19L14 19L14 18L15 18L15 19L16 19L16 21L15 21L15 22L14 22L14 21L13 21L13 20L12 20L12 19L10 19L10 18L9 18L9 17L8 17L8 21L9 21L9 22L8 22L8 25L10 25L10 24L9 24L9 23L10 23L10 20L12 20L12 21L11 21L11 23L12 23L12 24L11 24L11 25L12 25L12 24L14 24L14 25L17 25L17 24L18 24L18 25L20 25L20 24L21 24L21 22L23 22L23 20L22 20L22 19L24 19L24 21L25 21L25 18L24 18L24 17L23 17L23 18L22 18L22 19L21 19L21 17L22 17L22 15L25 15L25 14L24 14L24 13L25 13L25 12L24 12L24 11L25 11L25 9ZM6 10L6 11L7 11L7 10ZM13 10L13 11L14 11L14 10ZM2 11L2 12L3 12L3 11ZM4 11L4 13L3 13L3 14L2 14L2 13L1 13L1 14L0 14L0 15L1 15L1 16L0 16L0 17L1 17L1 16L3 16L3 15L4 15L4 17L5 17L5 16L6 16L6 17L7 17L7 16L6 16L6 15L8 15L8 16L10 16L10 13L9 13L9 12L6 12L6 13L7 13L7 14L5 14L5 11ZM8 13L8 14L9 14L9 13ZM16 13L16 14L17 14L17 13ZM1 14L1 15L2 15L2 14ZM4 14L4 15L5 15L5 14ZM13 14L13 15L14 15L14 14ZM21 14L21 15L20 15L20 16L21 16L21 15L22 15L22 14ZM15 16L15 17L16 17L16 16ZM17 17L17 20L20 20L20 17ZM18 18L18 19L19 19L19 18ZM21 20L21 21L22 21L22 20ZM16 21L16 22L17 22L17 23L18 23L18 24L19 24L19 21L18 21L18 22L17 22L17 21ZM13 22L13 23L14 23L14 22ZM24 22L24 23L23 23L23 24L22 24L22 25L25 25L25 24L24 24L24 23L25 23L25 22ZM15 23L15 24L16 24L16 23ZM0 0L0 7L7 7L7 0ZM1 1L1 6L6 6L6 1ZM2 2L2 5L5 5L5 2ZM18 0L18 7L25 7L25 0ZM19 1L19 6L24 6L24 1ZM20 2L20 5L23 5L23 2ZM0 18L0 25L7 25L7 18ZM1 19L1 24L6 24L6 19ZM2 20L2 23L5 23L5 20Z" fill="#000000"/></g></g></svg>
