<?xml version="1.0" encoding="UTF-8"?>
<svg xmlns="http://www.w3.org/2000/svg" version="1.1" width="300" height="300" viewBox="0 0 300 300"><rect x="0" y="0" width="300" height="300" fill="#ffffff"/><g transform="scale(14.286)"><g transform="translate(0,0)"><path fill-rule="evenodd" d="M11 0L11 3L12 3L12 4L10 4L10 1L8 1L8 2L9 2L9 3L8 3L8 4L10 4L10 5L8 5L8 7L9 7L9 6L10 6L10 8L6 8L6 9L5 9L5 8L0 8L0 12L3 12L3 11L1 11L1 9L5 9L5 10L4 10L4 13L5 13L5 12L6 12L6 13L8 13L8 15L10 15L10 16L8 16L8 21L11 21L11 17L10 17L10 16L11 16L11 15L12 15L12 17L13 17L13 18L12 18L12 19L14 19L14 17L15 17L15 20L13 20L13 21L15 21L15 20L17 20L17 21L18 21L18 20L19 20L19 21L20 21L20 20L19 20L19 18L20 18L20 17L18 17L18 20L17 20L17 19L16 19L16 17L17 17L17 15L15 15L15 16L14 16L14 14L16 14L16 13L18 13L18 12L20 12L20 13L21 13L21 12L20 12L20 10L19 10L19 9L20 9L20 8L19 8L19 9L18 9L18 8L17 8L17 9L16 9L16 8L15 8L15 10L18 10L18 12L17 12L17 11L15 11L15 12L14 12L14 10L11 10L11 9L14 9L14 8L13 8L13 5L12 5L12 4L13 4L13 3L12 3L12 2L13 2L13 1L12 1L12 0ZM11 6L11 7L12 7L12 6ZM10 8L10 9L11 9L11 8ZM6 9L6 10L5 10L5 11L6 11L6 12L8 12L8 11L10 11L10 12L9 12L9 14L11 14L11 12L12 12L12 11L10 11L10 10L9 10L9 9ZM6 10L6 11L7 11L7 10ZM13 12L13 13L12 13L12 14L13 14L13 13L14 13L14 12ZM15 12L15 13L16 13L16 12ZM19 14L19 15L18 15L18 16L19 16L19 15L20 15L20 14ZM13 16L13 17L14 17L14 16ZM9 18L9 20L10 20L10 18ZM0 0L0 7L7 7L7 0ZM1 1L1 6L6 6L6 1ZM2 2L2 5L5 5L5 2ZM14 0L14 7L21 7L21 0ZM15 1L15 6L20 6L20 1ZM16 2L16 5L19 5L19 2ZM0 14L0 21L7 21L7 14ZM1 15L1 20L6 20L6 15ZM2 16L2 19L5 19L5 16Z" fill="#000000"/></g></g></svg>
